<svg id="Capa_1" data-name="Capa 1" xmlns="http://www.w3.org/2000/svg" viewBox="0 0 667.71 1024"><defs><style>.cls-1{fill:#e2ddda;}.cls-2{fill:#803d24;}.cls-3{fill:#f3a532;}.cls-4{fill:#6c4e36;}.cls-5{fill:#c1d06b;}.cls-6{fill:#645522;}.cls-7{fill:#e1d8ca;}.cls-8{fill:#cfac99;}</style></defs><path class="cls-1" d="M427.87,271.64c3.63-5.63,4.72-11.54,2-17.88,7.43-14.18,6.14-21.85-4.72-22.63-18.66-1.35-37.63-1.6-55.11,6.4-9,4.13-14.83,4.07-18.42-6.17-1.76-5-4.24-9.83-6.45-14.72-4.35-9.6-13.2-13.46-22.41-14.76s-14.11,6.12-16.67,13.86c-2.75,8.34-13,12.36-12.22,22.74.22,3.07-4.12,5.42-6.67,3.84-15.51-9.6-32.68-4.32-49-6-21.32-2.26-25.47,3.07-19.1,24-2.43,4.91-1.16,9.65.69,14.36l1.5,5.92c5.29,27.4,21.28,46.21,47.16,55.68a151,151,0,0,0,74.15,7.44C386.08,337.46,418.7,318.47,427.87,271.64Z"/><path class="cls-1" d="M394.78,365.78s.38.25.37.26c-4.72-4.74-11-6.43-17-8.37-63.93-20.57-118-2.45-162.92,44.46-68.13,71.19-84.8,194.44-39.6,285,29.86,59.8,74.28,100.29,144.42,105.09,6.9.35,13.85.22,20.67,1.15,32.1,4.41,61.11-5.79,86.85-22.61,39.16-25.59,67.2-62.17,80.66-106.65C537.86,566,529,474.27,452.39,398.28c-10.23-10.14-20.54-24.43-38.68-23.36l-10.87-5.12A11.27,11.27,0,0,0,394.78,365.78Z"/><path class="cls-2" d="M402.84,369.8l10.85,5.11c10.17,9.28,21.19,17.83,30.41,28,79.12,87.3,79.14,242.7.83,330.58-29.36,33-64.63,53.77-109.14,57.53-8.1-9.75-19.27-3.93-28.94-5.78-14.11-2.69-30.26-.36-39.61-15.37l6.3.79c52,22.7,121.62,5.81,155.49-38.76a410.94,410.94,0,0,1-102.91-48.58c-2.84-1.85-5.67-1.29-8.38.3-28.43,16.73-59.7,25.83-91.29,34l-7.42-1.3-7.14-9.89s.06-1.19.06-1.19c35.8-.68,67.63-13.49,100-31.51C281,652.06,253.8,629,231,601.93c-14.89-17.66-28.71-26.55-50.07-12.81-.2-3.29-.41-6.58-.61-9.87l4.16-3.89c17.08-5,17.28-5.55,6.59-18.8-2.42-3-4.68-6.14-7-9.21q.45-7.59.89-15.18c6.87,8.34,13.94,16.53,20.54,25.08,3.93,5.08,7.72,6.59,13.76,3.3a523,523,0,0,0,81.06-53.72c5.16-4.2,5-7,.38-11.6-23.35-23.34-42.71-50.07-63.48-75.61-.16-.75-.36-1.5-.58-2.23l6.21-9.28,4.09,2.51c16.6,28.93,39.76,52.59,61.72,77.24,5.62,6.31,10,3.63,14.84-1a488.82,488.82,0,0,0,76.58-92c5.87-9.17,3.53-13.71-5.48-18.24a166.26,166.26,0,0,0-62.41-17.29c7.25-8,15.84-3.48,24.14-2.78,13.5,1.13,24.79,11,38.89,9.48l-.38-.25C396.11,369.85,399.48,369.81,402.84,369.8Zm80.41,128.14c-.2-1-.34-1.95-.62-2.89-11.21-37.63-29.78-70.8-58.84-97.71-7-6.45-10.46-3.16-14.63,3.45a436.39,436.39,0,0,1-78.82,93.75c-7.78,6.94-5.23,10.38.74,16a700.82,700.82,0,0,0,80.47,65.12c8.48,5.95,13.29,4.39,19.46-3.1,16.95-20.6,32.85-42,48-63.87C481.23,505.54,483.7,502.26,483.25,497.94ZM312.53,511.67a69.54,69.54,0,0,0-6.69,4.5,451.06,451.06,0,0,1-78.79,52.32c-7,3.69-6.74,6.55-2,11.89a564,564,0,0,0,89.4,81.75c6.22,4.54,11.11,4.27,17.29.11,27.54-18.57,52.32-40.32,75.77-63.75,5.81-5.8,5-9.43-1.56-13.75-30.19-19.84-57.89-42.81-84.11-67.62C319.39,514.8,317.28,511.78,312.53,511.67Zm119.1,209.11c8.25.76,8.95.87,13.92-5.72C463,691.88,474.83,665.89,483,638.15c2-6.72.33-10.84-6.49-14.09-15.16-7.23-30-15.21-44.71-23.29-5-2.75-8.78-3.28-13,1.25-23.78,25.28-49.6,48.24-78.55,67.54-3.66,2.44-6.84,5.09-1.2,8.66C368.43,696.83,399.31,712.16,431.63,720.78Zm55.75-204.52c-17.52,24.59-33.24,46-50.7,65.93-4.15,4.75-2.49,7.8,2.4,10.33,13.56,7,27.14,13.94,40.59,21.13,6.41,3.42,8.67,1.14,9.67-5.39C493.81,578.88,493.71,549.65,487.38,516.26Z"/><path class="cls-3" d="M335.79,791c44.51-3.76,79.78-24.58,109.14-57.53,78.31-87.88,78.29-243.28-.83-330.58-9.22-10.17-20.24-18.72-30.41-28,18.16-1.06,28.47,13.23,38.7,23.37,76.58,76,85.47,167.71,55.8,265.79-13.46,44.48-41.5,81.06-80.66,106.65-25.74,16.82-54.75,27-86.85,22.61-6.82-.93-13.77-.8-20.7-1.15Z"/><path class="cls-4" d="M335.79,791,320,792.18c-70.11-4.8-114.53-45.29-144.39-105.09-45.2-90.52-28.53-213.77,39.6-285,44.89-46.91,99-65,162.92-44.46,6,1.94,12.32,3.63,17,8.37-14.09,1.55-25.38-8.36-38.88-9.49-8.3-.7-16.89-5.2-24.14,2.78l-14.46,3.88c-22.32-3.84-40.2,7.08-58.21,17.53-6.9,1.75-11.43,7.19-17,10.94-7.11,4.76-5.36,9.23.37,13.61v2.82q-3.1,4.63-6.2,9.28c-5.66-11.37-11.07-13.17-20.05-1.92-17.34,21.72-30.2,45.56-40.71,71.22-6.59,16.07-6.19,29,7.2,40.62l.42,3.12-.78.89,1.83.84h.4q-.43,7.59-.89,15.18a6.44,6.44,0,0,0-1.66.65c-2.69-8.72-8.83-14.91-15.6-22.76-4.29,14-4.26,26.71-4.92,39.31-1.13,21.47-1,21.48,18.44,14.7.2,3.29.41,6.58.61,9.87a10,10,0,0,0-1.27,2C164,592.6,161.44,601,164.14,615.41c5.43,28.93,14.4,56.3,28.61,82.1,4.5,8.17,10.19,11.45,19.14,8.94l7.14,9.89c-6.82.79-14.19,1.35-5.57,10.38,10,10.48,18.95,22.16,32.23,29l15.38,11c1.08,2.61,3.23,3.48,5.85,3.55l.32-.41c9.35,15,25.5,12.68,39.61,15.37C316.52,787.09,327.69,781.27,335.79,791Z"/><path class="cls-5" d="M219.07,260.29c-6.38-20.94-2.23-26.27,19.09-24,16.35,1.72,33.52-3.56,49,6,2.55,1.58,6.89-.77,6.67-3.84-.74-10.38,9.47-14.4,12.22-22.74,2.56-7.74,7.39-15.18,16.67-13.86s18.06,5.16,22.41,14.76c2.21,4.89,4.69,9.68,6.45,14.72,3.59,10.24,9.4,10.3,18.42,6.17,17.48-8,36.45-7.75,55.11-6.4,10.86.78,12.15,8.45,4.73,22.64-22.13-5.86-43.05-1-63,8.4-7.54,3.56-11,3.1-14.3-4.81-4.61-11-12.45-20-20.18-29-7-8.16-12.88-7.23-18.93,1-6.43,8.77-13.14,17.46-16.68,27.78-2.89,8.41-6.15,10.13-15,6.57-19.07-7.7-39-9.61-59.21-3.54Z"/><path class="cls-6" d="M222.61,260.21c20.17-6.07,40.14-4.16,59.21,3.54,8.82,3.56,12.08,1.84,15-6.57,3.54-10.32,10.25-19,16.68-27.78,6-8.27,11.92-9.2,18.93-1,7.73,9,15.57,18,20.18,29,3.32,7.91,6.76,8.37,14.3,4.81,19.94-9.4,40.86-14.26,63-8.4,2.72,6.33,1.63,12.24-2,17.87-5.78,2.57-4.13,13.22-13.24,12.15.46-2.42.48-5,1.47-7.21,5.08-11.25,1.6-15.08-10.49-13.89-15,1.48-29.65,3.76-41.65,13.43-9.63,7.75-13.62,5.29-17.63-5.7-3.49-9.53-9.78-18.07-15.11-26.87-5.83-9.62-10.88-7.5-15.72,1.17-5.05,9.06-10.86,17.74-12.91,28.13-1.82,9.24-6,11.51-14.4,6.15-9.68-6.19-20.33-10.19-32-10.66C247.42,268,234.59,264,231,270.6c-4.28,7.79,2.63,18.49,8.53,26.59l.24,4.57c-11.56-2.35-11-15.28-18.5-21.17l-1.5-5.92C223.67,270.43,221.47,265,222.61,260.21Z"/><path class="cls-4" d="M221.25,280.59c7.5,5.89,6.94,18.82,18.5,21.16,25.08,41.09,122.77,45.33,158.74,5.71,7-4.22,9.84-11.67,14.07-18q1.19-2.27,2.39-4.53l-.32-1.09c9.11,1.07,7.46-9.58,13.24-12.15-9.17,46.83-41.79,65.82-85.31,72.07a151,151,0,0,1-74.15-7.44C242.53,326.8,226.54,308,221.25,280.59Z"/><path class="cls-4" d="M222.61,260.21c-1.14,4.78,1.06,10.22-2.86,14.46-1.85-4.71-3.12-9.45-.69-14.37Z"/><path class="cls-4" d="M402.84,369.8c-3.36,0-6.73.05-8.06-4A11.27,11.27,0,0,1,402.84,369.8Z"/><path class="cls-3" d="M483.25,497.94c.45,4.32-2,7.6-4.22,10.79C463.86,530.64,448,552,431,572.6c-6.17,7.49-11,9-19.46,3.1a700.82,700.82,0,0,1-80.47-65.12c-6-5.66-8.52-9.1-.74-16a436.39,436.39,0,0,0,78.82-93.75c4.17-6.61,7.67-9.9,14.63-3.45,29.06,26.91,47.63,60.08,58.84,97.71C482.91,496,483.05,497,483.25,497.94Z"/><path class="cls-3" d="M312.53,511.67c4.75.11,6.86,3.13,9.31,5.45,26.22,24.81,53.92,47.78,84.11,67.62,6.56,4.32,7.37,8,1.56,13.75-23.45,23.43-48.23,45.18-75.77,63.75-6.18,4.16-11.07,4.43-17.29-.11a564,564,0,0,1-89.4-81.75c-4.74-5.34-5-8.2,2-11.89a451.06,451.06,0,0,0,78.79-52.32A69.54,69.54,0,0,1,312.53,511.67Z"/><path class="cls-3" d="M317.67,363.21l14.46-3.88a166.26,166.26,0,0,1,62.41,17.29c9,4.53,11.35,9.07,5.48,18.24a488.82,488.82,0,0,1-76.58,92c-4.88,4.61-9.22,7.29-14.84,1-22-24.65-45.12-48.31-61.7-77.22q3.75-5.82,7.45-11.7C274.26,384.92,296,374.18,317.67,363.21Z"/><path class="cls-3" d="M226.44,717.64c31.6-8.19,62.87-17.29,91.3-34,2.71-1.59,5.54-2.15,8.38-.3A410.94,410.94,0,0,0,429,731.9c-33.87,44.57-103.51,61.46-155.47,38.77-7-7.35-14.46-14-24.2-17.64l-5.42-4,1.78-.82-2.59-.71C238,737.29,224.79,731.62,226.44,717.64Z"/><path class="cls-3" d="M431.63,720.78c-32.32-8.62-63.2-23.95-92.59-42.56-5.64-3.57-2.46-6.22,1.2-8.66C369.19,650.26,395,627.3,418.79,602c4.25-4.53,8-4,13-1.25,14.74,8.08,29.55,16.06,44.71,23.29,6.82,3.25,8.47,7.37,6.49,14.09-8.19,27.74-20,53.73-37.47,76.91C440.58,721.65,439.88,721.54,431.63,720.78Z"/><path class="cls-3" d="M183.45,530.43c-.14-1-.28-2.08-.41-3.12,4.81-5.83,6.77-13,8.43-20,7.88-33.11,23.56-62,45.69-87.65,20.77,25.54,40.13,52.27,63.48,75.61,4.63,4.64,4.78,7.4-.38,11.6a523,523,0,0,1-81.06,53.72c-6,3.29-9.83,1.78-13.76-3.3-6.6-8.55-13.67-16.74-20.54-25.08h-.4A1.72,1.72,0,0,0,183.45,530.43Z"/><path class="cls-3" d="M179.61,591.13a10,10,0,0,1,1.27-2c21.36-13.74,35.18-4.85,50.07,12.81C253.8,629,281,652.06,312,673.75c-32.41,18-64.24,30.83-100,31.51-11.68-25-22.53-50.21-27.24-77.75C182.64,615.41,184.8,602.75,179.61,591.13Z"/><path class="cls-3" d="M487.38,516.26c6.33,33.39,6.43,62.62,2,92-1,6.53-3.26,8.81-9.67,5.39-13.45-7.19-27-14.13-40.59-21.13-4.89-2.53-6.55-5.58-2.4-10.33C454.14,562.22,469.86,540.85,487.38,516.26Z"/><path class="cls-7" d="M237.16,419.62c-22.13,25.62-37.81,54.54-45.69,87.65-1.66,7-3.62,14.21-8.43,20-13.4-11.61-13.8-24.55-7.21-40.62,10.51-25.66,23.37-49.5,40.71-71.22,9-11.25,14.39-9.45,20.05,1.92C236.8,418.12,237,418.87,237.16,419.62Z"/><path class="cls-7" d="M179.61,591.13c5.19,11.62,3,24.28,5.1,36.38,4.71,27.54,15.56,52.75,27.24,77.75,0,0,0,1.18-.06,1.19-8.95,2.51-14.64-.77-19.14-8.94-14.21-25.8-23.18-53.17-28.61-82.1C161.44,601,164,592.6,179.61,591.13Z"/><path class="cls-7" d="M180.27,579.25c-19.39,6.78-19.57,6.77-18.44-14.7.66-12.6.63-25.35,4.92-39.31,6.77,7.85,12.91,14,15.59,22.75-.44,9.21-4.84,18.73,2.09,27.37Z"/><path class="cls-7" d="M243.94,749l5.41,4-3.66,2.71c-13.28-6.86-22.22-18.54-32.23-29-8.62-9-1.25-9.59,5.57-10.38l7.42,1.3c-1.66,14,11.57,19.65,16.68,29.85A1.62,1.62,0,0,0,243.94,749Z"/><path class="cls-3" d="M184.43,575.36c-6.93-8.64-2.53-18.16-2.09-27.37a7,7,0,0,1,1.67-.64c2.33,3.07,4.59,6.21,7,9.21C201.71,569.81,201.51,570.4,184.43,575.36Z"/><path class="cls-8" d="M245.69,755.74l3.66-2.71c9.75,3.59,17.23,10.29,24.21,17.64l-6.32-.8-.32.41c-1.05-2.67-3.58-2.89-5.85-3.55Z"/><path class="cls-7" d="M254.35,398.94q-3.71,5.87-7.45,11.7l-4.11-2.53V405.3l11.3-6.65Z"/><path class="cls-7" d="M317.67,363.21c-21.63,11-43.41,21.71-63.32,35.73,0,0-.26-.29-.26-.28-.7-6.72,14-8.82,5.37-17.92C277.47,370.29,295.35,359.37,317.67,363.21Z"/><path class="cls-1" d="M259.46,380.74c8.64,9.1-6.07,11.2-5.37,17.92l-11.3,6.64c-5.73-4.39-7.48-8.86-.37-13.62C248,387.93,252.56,382.49,259.46,380.74Z"/><path class="cls-2" d="M261.07,766.73c2.27.66,4.8.88,5.85,3.55C264.3,770.21,262.15,769.34,261.07,766.73Z"/><path class="cls-2" d="M183.45,530.43a1.72,1.72,0,0,1,1.05,1.74l-1.83-.85Z"/><path class="cls-5" d="M412.56,289.41c-4.23,6.38-7.08,13.83-14.08,18-5.57-.62-10.52,1.16-15.65,3.23-50.05,20.17-98.31,20.32-143.32-13.5-5.9-8.1-12.81-18.8-8.53-26.59,3.61-6.58,16.44-2.61,25.23-2.26,11.65.47,22.3,4.47,32,10.66,8.37,5.36,12.58,3.09,14.4-6.15,2.05-10.39,7.86-19.07,12.91-28.13,4.84-8.67,9.89-10.79,15.72-1.17,5.33,8.8,11.62,17.34,15.11,26.87,4,11,8,13.45,17.63,5.7,12-9.67,26.68-11.95,41.65-13.43,12.09-1.19,15.57,2.64,10.49,13.89-1,2.18-1,4.79-1.47,7.21l.32,1.09Q413.75,287.15,412.56,289.41Z"/><path class="cls-7" d="M239.51,297.19c45,33.82,93.27,33.67,143.32,13.5,5.13-2.07,10.08-3.85,15.65-3.23-36,39.62-133.65,35.38-158.73-5.71Z"/><path class="cls-6" d="M412.56,289.41q1.19-2.27,2.39-4.53Q413.75,287.15,412.56,289.41Z"/><path class="cls-8" d="M243.94,749a1.62,1.62,0,0,1-.81-1.54l2.59.72Z"/></svg>