<svg id="Capa_1" data-name="Capa 1" xmlns="http://www.w3.org/2000/svg" viewBox="0 0 667.71 1024"><defs><style>.cls-1{fill:#e2ddda;}.cls-2{fill:#6c4e36;}.cls-3{fill:#803d24;}.cls-4{fill:#d15650;}.cls-5{fill:#645522;}.cls-6{fill:#c1d06b;}.cls-7{fill:#e64746;}.cls-8{fill:#e1d8ca;}.cls-9{fill:#cfac99;}.cls-10{fill:#e1c7cc;}</style></defs><path class="cls-1" d="M559.79,764.17q2.22-1.7,4.43-3.4c3.41.1,5.72-1.87,8-4.07,38.32-37.37,45.08-112.83,13.34-155.93-14-19-30.65-34.92-56.85-34.34-16.8-3.67-33.41-3.79-49.19,3.91-5.78,2.81-10.79,1.15-16.09-.55-72.6-67.35-114-148.62-111.63-249.56.26-10.77.59-21.67-3.63-32,.44-3.47.2-6.78-2.24-9.58.12-3.07-.45-5.87-3-8-.3-2-.61-4-.92-5.95,9.26-4.39,3.79-10.65,1.14-15.31-15.3-26.89-36.58-43.9-69.47-45-16.11-.53-18.62-.52-18.59,16a29.88,29.88,0,0,0-1.35,18.35c-.76,4.18-.68,8.26,1.4,12.11l.79,6.28c.38,2,.75,4.09,1.13,6.13,7.13,33.79,30,52.56,61.67,62.63-3.8,5.91-9.24,6.76-13.77,8.9-83.53,39.44-146.49,114.4-123.72,217.57,2.15,9.76-2.86,8.78-9.28,6.94-31-8.85-56.18,1.79-76.11,25-30.09,35-35.39,76.07-23.95,119.32,15.64,59.1,57.87,82.17,116,64.69,4.74-1.42,8.7-1.9,13.26.34,24.21,11.92,48,8.34,71.62-2.19,9.67-1.5,16.77-7.5,23.54-13.82,33.83-31.63,44.93-90.07,25.56-134.42-8.52-19.49-18.27-38-39.67-46.57-6.08-4-12.27-7.74-19.79-8.32-18.69-9.6-37.62-9.18-56.62-1.16-5.7,2.41-10.17,4.59-12.16-4.47-8.68-39.3-8.84-77.93,9.44-114.8,26.8-54.06,73.62-84.64,127.31-106.83,12.75-5.27,10.65,4.59,10.91,11.21,2.59,66.72,26.58,125.44,66.44,178.2,9.81,13,20.21,25.53,30.34,38.27-6.53,4.78-14.3,2-21.37,3.49-22.48-.59-37.35,12.78-50.06,28.65-30.26,37.81-34.13,101.56-9.31,143.1,26.55,44.46,68.85,55,103.58,36.13,4.6-2.49,8.48-2.22,13,.14,28.93,15.19,55.8,9,81.5-8.24C557.49,767,559.27,766.55,559.79,764.17Z"/><path class="cls-2" d="M348.15,288.24c4.22,10.32,3.89,21.22,3.63,32-2.41,100.94,39,182.21,111.63,249.56-8.92.07-19.27,6.17-25.3-6-10.13-12.74-20.53-25.28-30.34-38.27-39.86-52.76-63.85-111.48-66.44-178.2-.26-6.62,1.84-16.48-10.91-11.21C276.73,358.31,229.91,388.89,203.11,443c-18.28,36.87-18.12,75.5-9.44,114.8,2,9.06,6.46,6.88,12.16,4.47,19-8,37.93-8.44,56.62,1.16-11.33.15-22.74-.44-34,.69-8,.81-17.81-.91-22.14,9.31l-.09,0c-12.55.78-25.21-1.48-35.26-8-14-9-26.71-1-39.89-.39-2.65.13-10.69,2.91-3.25,9l-12,8.11c-11.55,4.18-17,14-22.19,24.06-24.79,36.62-18.87,104.85,6.79,131.35,5.94,7.78,11.68,15.79,22,18.4l-.17-.15,6.22,3.75,6.34,5.74c16.16,13.68,32.08,3,47.32-1.64,7.19-2.19,12.48-4.23,19.91-.87,15.88,7.19,33.14,6.48,50,5,8.57-.74,16.71-5,19.26-14.95a1.76,1.76,0,0,1,1.28-1c3.9,1.88,4.65,5.42,4.88,9.23l-4.58,5.37c-23.57,10.53-47.4,14.11-71.61,2.19-4.56-2.24-8.52-1.76-13.26-.34-58.16,17.48-100.39-5.59-116-64.69-11.44-43.25-6.14-84.34,23.95-119.32,19.93-23.18,45.14-33.82,76.11-25,6.42,1.84,11.43,2.82,9.28-6.94C158.47,449.27,221.43,374.31,305,334.87c4.53-2.14,10-3,13.77-8.9-31.66-10.07-54.54-28.84-61.67-62.63,7.2,1.12,9,8.58,14.11,12.1q4.65,4.92,9.32,9.82C290,307,310.63,311,330.31,316.89c10.13,3.05,11.19-2.36,11.26-9.84C348.5,302.44,342.57,293.33,348.15,288.24Z"/><path class="cls-2" d="M555.43,767.07c-25.7,17.21-52.57,23.43-81.5,8.24-4.5-2.36-8.38-2.63-13-.14-34.73,18.83-77,8.33-103.58-36.13-24.82-41.54-20.95-105.29,9.31-143.1,12.71-15.87,27.58-29.24,50.06-28.65-4.08,4.37-10.07,4.75-15,7.28-4.44,2.28-11.18,3.06-10,10.79l-2.19,3.79-.1.15a1.36,1.36,0,0,0-.75,2.14c-2.07.18-3.51,1-3.32,3.38l.21-.26c-2.34-.12-3.85.59-3.35,3.33l.16-.27c-1,.06-2.29-.26-2.83.25C339.5,636,344.2,726.4,388.21,759.59c2.61,2,6,8.5,11,2.16,17.51,16.13,37,12.37,55.41,3.46,10.49-5.07,19-5,28.61.13,5.77,3.06,12,5.29,18,7.89,11.52,7.4,21.57,6.2,29.91-5.08h0c8.51,1.44,16.31-2.35,24.49-3.37l.28.28A3.71,3.71,0,0,0,555.43,767.07Z"/><path class="cls-3" d="M391.75,585.36c-1.19-7.73,5.55-8.51,10-10.79,4.93-2.53,10.92-2.91,15-7.28,7.07-1.48,14.84,1.29,21.37-3.49,6,12.16,16.38,6.06,25.3,6,5.3,1.7,10.31,3.36,16.09.55,15.78-7.7,32.39-7.58,49.18-3.92,30.42,10.59,46.87,36,56.86,63,16.47,44.48,10.12,88-20.09,126.39l-10.68-4.36c27.33-37.48,35-78.06,18.59-122.09-15-40.1-57.74-71.13-99.79-42.36-4.11,2.82-9.51,3.14-13.25.4C437.78,570.86,414.92,575,391.75,585.36Z"/><path class="cls-3" d="M206.34,573.38c4.33-10.22,14.17-8.5,22.14-9.31,11.23-1.13,22.64-.54,34-.69,7.52.58,13.71,4.31,19.79,8.32,6.37,9.26,12.67,18.56,19.12,27.76,32.24,45.94,20.34,126.27-24,161.68-.23-3.81-1-7.35-4.87-9.23,25.88-26.69,36.15-58.64,34-95.59-2.26-39-23.45-72-54.7-83.66C236.34,566.86,221.43,569.35,206.34,573.38Z"/><path class="cls-4" d="M565.45,755.79c30.21-38.4,36.56-81.91,20.09-126.39-10-26.95-26.44-52.39-56.86-63,26.21-.57,42.84,15.32,56.86,34.35,31.74,43.1,25,118.56-13.34,155.93-2.26,2.2-4.57,4.17-8,4.07C564.64,759.11,565,757.45,565.45,755.79Z"/><path class="cls-4" d="M277.38,761.14c44.32-35.41,56.22-115.74,24-161.68-6.45-9.2-12.75-18.5-19.12-27.76,21.4,8.56,31.15,27.08,39.67,46.57,19.37,44.35,8.27,102.79-25.56,134.42-6.77,6.32-13.87,12.32-23.54,13.82Z"/><path class="cls-5" d="M271.17,275.44c-5.14-3.52-6.91-11-14.11-12.1-.38-2-.75-4.09-1.13-6.13,3-2.51,2.42-4.56-.79-6.28-2.08-3.85-2.16-7.93-1.4-12.11,8.27-3.92,8-11.31,7.63-18.75,34.69.81,61.34,16.12,80.64,44.69.31,2,.62,4,.92,5.95-.45,3.2-.08,6.08,3,8,2.44,2.8,2.68,6.11,2.24,9.58-5.58,5.09.35,14.2-6.58,18.81L339,301.27c-2.54-36.82-27.63-63.55-63.74-68.68-8.46-1.2-11.77,1.35-10.35,9.57C266.8,253.28,269.05,264.35,271.17,275.44Z"/><path class="cls-6" d="M342,264.76c-19.3-28.57-45.95-43.88-80.64-44.69l-6.28.4c0-16.54,2.48-16.55,18.59-16,32.89,1.1,54.17,18.11,69.47,45C345.8,254.11,351.27,260.37,342,264.76Z"/><path class="cls-2" d="M255.09,220.47l6.28-.4c.39,7.44.64,14.83-7.63,18.75A29.88,29.88,0,0,1,255.09,220.47Z"/><path class="cls-2" d="M565.45,755.79c-.41,1.66-.81,3.32-1.22,5l-4.44,3.4-3.91.89-.28-.27q-.3-6.43-.61-12.87l-.22-.49Z"/><path class="cls-2" d="M255.14,250.93c3.21,1.72,3.81,3.77.79,6.28C255.67,255.12,255.4,253,255.14,250.93Z"/><path class="cls-2" d="M345.91,278.66c-3.06-1.87-3.43-4.75-3-8C345.46,272.79,346,275.59,345.91,278.66Z"/><path class="cls-4" d="M555.88,765.06l3.91-.89c-.52,2.38-2.3,2.85-4.36,2.9A3.71,3.71,0,0,1,555.88,765.06Z"/><path class="cls-7" d="M206.34,573.38c15.09-4,30-6.52,45.47-.72,31.25,11.71,52.44,44.71,54.7,83.66,2.15,36.95-8.12,68.9-34,95.59a1.76,1.76,0,0,0-1.29,1c-24.49,12.41-48.92,17.29-73.39-.17a7.79,7.79,0,0,0-8.83-.08c-16.46,11.33-35.2,12.52-54.22,12.68q-3.18-2.87-6.34-5.75c-1.27-2.59-3.18-4.1-6.22-3.74l.17.15C117.52,745,110,736,101,728.2,83,694.27,81.55,658.86,91.68,622.44l2.22-2.92,1-2.93c8.21-10.74,17.49-20.82,21-34.45l12-8.11c20.38-7.28,40-7,58.92,4.93,8.1,5.11,14.34,1.1,19.49-5.53ZM286.94,658c-.86-8.19-1.51-16.41-2.66-24.56-.57-4-1.59-8.9-7.27-8-4.59.77-4.75,5-4.19,8.68,3,19.09,2,38.05-1.22,57-.51,3.05-.58,6.65,3.12,7.81,4.64,1.45,6.81-2.21,7.62-5.66A174.71,174.71,0,0,0,286.94,658Zm-14,59.82c-.25-3.33-1-7.67-4.58-6.61-9,2.64-10.8,11.51-13.46,19-1.26,3.57,2.29,6.27,5.44,5.42C269.24,733.27,269.94,724.6,273,717.82Z"/><path class="cls-6" d="M271.17,275.44c-2.12-11.09-4.37-22.16-6.3-33.28-1.42-8.22,1.89-10.77,10.35-9.57,36.11,5.13,61.2,31.86,63.74,68.67-20.93-.09-39.45-9-58.47-16Q275.83,280.36,271.17,275.44Z"/><path class="cls-3" d="M134.78,765.29c19-.16,37.76-1.35,54.22-12.68a7.79,7.79,0,0,1,8.83.08c24.47,17.46,48.9,12.58,73.39.17-2.55,10-10.69,14.21-19.26,14.95-16.81,1.45-34.07,2.16-50-5-7.43-3.36-12.72-1.32-19.91.87C166.86,768.31,150.94,779,134.78,765.29Z"/><path class="cls-8" d="M91.68,622.44C81.55,658.86,83,694.27,101,728.2c-1.27,3,3.75,6.49-.58,9.35-25.66-26.5-31.58-94.73-6.79-131.34,5.61,2.84,1.31,6.86,1.24,10.38l-1,2.93Z"/><path class="cls-8" d="M280.49,285.26c19,7,37.54,15.91,58.47,16l2.61,5.79c-.07,7.48-1.13,12.89-11.26,9.84C310.63,311,290,307,280.49,285.26Z"/><path class="cls-3" d="M206.25,573.43c-5.15,6.63-11.39,10.64-19.49,5.53-18.89-11.91-38.54-12.21-58.92-4.93-7.43-6.06.61-8.84,3.26-9,13.18-.63,25.9-8.65,39.89.39C181,572,193.7,574.21,206.25,573.43Z"/><path class="cls-9" d="M94.89,616.59c.07-3.52,4.37-7.54-1.24-10.38,5.15-10.11,10.64-19.89,22.19-24.07C112.38,595.77,103.1,605.85,94.89,616.59Z"/><path class="cls-9" d="M100.44,737.55c4.33-2.86-.69-6.31.58-9.35C110,736,117.52,745,122.39,756,112.12,753.34,106.38,745.33,100.44,737.55Z"/><path class="cls-9" d="M122.22,755.8c3-.36,5,1.15,6.22,3.74Q125.32,757.68,122.22,755.8Z"/><path class="cls-7" d="M391.75,585.36c23.17-10.36,46-14.5,68.57,2,3.74,2.74,9.14,2.42,13.25-.4,42.05-28.77,84.83,2.26,99.79,42.36,16.43,44,8.74,84.61-18.59,122.09,0,0,.22.49.23.5-9.23,3.54-15.89,10.87-23.89,16.22h0l-29.91,5.08c-6-2.6-12.2-4.83-18-7.89-9.65-5.11-18.12-5.2-28.61-.13-18.44,8.91-37.9,12.67-55.41-3.46-25.5-26.61-37-58.5-36.78-95.17.12-25,10.25-46.88,20-69l-.16.27,3.35-3.33-.21.25,3.32-3.37a1.36,1.36,0,0,1,.75-2.14l.1-.15Zm175.38,80.15c-.73-7-1.41-15.61-2.64-24.2-.57-3.95-1.63-9-7.14-8.07-5.27.88-5.06,5.79-4.55,9.9,2.3,18.39,2.62,36.66-1.93,54.84-1,4-.67,8.77,4.87,9.48,4.55.59,5.67-3.35,6.82-6.84C566.11,689.76,566,678.44,567.13,665.51ZM552.4,727.09c.53-4.38-.73-8.5-3.87-7.88-9.41,1.84-10,11.62-14,18.21-1.87,3.09,1.14,6.72,4.23,6.37C549,742.67,548.84,732.75,552.4,727.09Z"/><path class="cls-10" d="M382.41,597.62c-9.74,22.08-19.87,43.94-20,69-.19,36.67,11.28,68.56,36.78,95.17-4.95,6.34-8.38-.19-11-2.16-44-33.19-48.71-123.61-8.63-161.72C380.12,597.36,381.45,597.68,382.41,597.62Z"/><path class="cls-3" d="M531.11,768.15c8-5.35,14.66-12.68,23.89-16.22l.6,12.86C547.42,765.8,539.62,769.59,531.11,768.15Z"/><path class="cls-3" d="M501.19,773.23l29.91-5.08C522.76,779.43,512.71,780.63,501.19,773.23Z"/><path class="cls-3" d="M389.56,589.15l-.1.15Z"/><path class="cls-10" d="M385.6,594.56l-3.35,3.33C381.75,595.15,383.26,594.44,385.6,594.56Z"/><path class="cls-10" d="M388.71,591.44l-3.32,3.37C385.2,592.42,386.64,591.62,388.71,591.44Z"/><path class="cls-8" d="M286.94,658a174.71,174.71,0,0,1-4.6,35.31c-.81,3.45-3,7.11-7.62,5.66-3.7-1.16-3.63-4.76-3.12-7.81,3.19-18.94,4.18-37.9,1.22-57-.56-3.66-.4-7.91,4.19-8.68,5.68-1,6.7,3.91,7.27,8C285.43,641.59,286.08,649.81,286.94,658Z"/><path class="cls-8" d="M273,717.82c-3,6.78-3.73,15.45-12.6,17.83-3.15.85-6.7-1.85-5.44-5.42,2.66-7.51,4.5-16.38,13.46-19C272,710.15,272.72,714.49,273,717.82Z"/><path class="cls-9" d="M91.68,622.44l2.22-2.92Z"/><path class="cls-10" d="M567.13,665.51c-1.15,12.93-1,24.25-4.57,35.11-1.15,3.49-2.27,7.43-6.82,6.84-5.54-.71-5.87-5.49-4.87-9.48,4.55-18.18,4.23-36.45,1.93-54.84-.51-4.11-.72-9,4.55-9.9,5.51-.92,6.57,4.12,7.14,8.07C565.72,649.9,566.4,658.56,567.13,665.51Z"/><path class="cls-10" d="M552.4,727.09c-3.56,5.66-3.42,15.58-13.63,16.7-3.09.35-6.1-3.28-4.23-6.37,4-6.59,4.58-16.37,14-18.21C551.67,718.59,552.93,722.71,552.4,727.09Z"/></svg>