<svg id="Capa_1" data-name="Capa 1" xmlns="http://www.w3.org/2000/svg" viewBox="0 0 667.71 1024"><defs><style>.cls-1{fill:#e2ddda;}.cls-2{fill:#6c4e36;}.cls-3{fill:#645522;}.cls-4{fill:#b267a3;}.cls-5{fill:#e1c7cc;}.cls-6{fill:#cfac99;}.cls-7{fill:#e1d8ca;}.cls-8{fill:#c1d06b;}.cls-9{fill:#a56888;}</style></defs><path class="cls-1" d="M254.67,403.45l-5.56-.55c-3.76-.67-7.5-1.78-11.28-1.94-80.83-3.44-148.24,49.16-166.69,130-16.8,73.56,24.68,151.72,96.72,182.23,64.54,27.33,145.82,9.7,195.24-42.28,4.71-5,8.19-12.46,17.53-8.22,29.62,13.45,61.1,13.52,92.7,12.46a64.71,64.71,0,0,0,29.37-2.17C600.41,644.3,635.18,532,570.37,453.21c-9.28-11.3-19.23-22.76-35-25.7-22.67-12-44.81-23.22-71-28.83-39.21-8.39-72.23-.21-104.08,20.9l-7.73.5-.48-4.63c3.05-9.77-3.48-20.54,8.15-29.91,50.56-40.76,50.57-94.8,27.34-148.07-4.6-10.55-11-10.47-19.63-5.29-26.55,15.92-49.39,35.53-61.73,64.7-3.78,8.93-7.09,9.88-15.54,5.59-16.28-8.29-34-12.6-52.08-15.43-12-1.88-17,1.55-17,14.5,0,37.21,9,70.9,34.67,99C255.73,401.49,255.2,402.47,254.67,403.45Z"/><path class="cls-2" d="M473.33,675.11c-31.6,1.06-63.08,1-92.7-12.46-9.34-4.24-12.82,3.26-17.53,8.22-49.42,52-130.7,69.61-195.24,42.28-72-30.51-113.52-108.67-96.72-182.23,18.45-80.8,85.86-133.4,166.69-130,3.78.16,7.52,1.27,11.28,1.94,25.74,11.7,51.82,22.41,79.86,27.45,4.32.78,14.51-1.87,9.53,6.65-10.42,17.82,1.72,10.77,9.17,9.73,3.48,4.09,5.53,9.52,11.06,11.67,1.31,3,2.18,6.32,4,9,35.47,52.34,39.13,107.72,15.93,165.64-3.79,9.45.43,14.9,8.6,18.25,52,21.34,133.15,5,163.76-58.1,44.36-91.49-28.43-194.57-119.49-182.27-10-.37-20.3-3.25-29.74,2.77a27.24,27.24,0,0,0-15.53,6.24l-.84-.21-.5.71-16.57,6.95a14.77,14.77,0,0,0-8.07-7.79c31.85-21.11,64.87-29.29,104.08-20.9,26.19,5.61,48.33,16.81,71,28.83.33,4.94,4.29,7.42,7.1,10.74,40.69,48,54,120,9.27,179.06-18.6,24.57-40.65,42.38-70,51.19C478,669.61,473.94,670.16,473.33,675.11ZM172.41,425.59c-35.82,14.68-61.28,40.24-77.74,74.9-31,65.3-7.3,150.7,51.15,184.87l8.53,4.54-.3.05c49.85,31.63,117.35,30.32,168.33-10.83,49.5-39.94,67-92.65,51.66-152.23-16.41-63.71-60.52-102.06-127-111.94C221.4,413,196,412.71,172.41,425.59Z"/><path class="cls-3" d="M360.27,419.58a14.77,14.77,0,0,1,8.07,7.79l-4.79,3.18-4.95,4-7.16,8.53-3.77,3.65c-7.45,1-19.59,8.09-9.17-9.73,5-8.52-5.21-5.87-9.53-6.65-28-5-54.12-15.75-79.86-27.45l5.56.55c2.08-.14,3.42-.68,1.6-2.94-25.63-28.07-34.66-61.76-34.67-99,0-13,4.93-16.38,17-14.5,18.11,2.83,35.8,7.14,52.08,15.43,8.45,4.29,11.76,3.34,15.54-5.59,12.34-29.17,35.18-48.78,61.73-64.7,8.63-5.18,15-5.26,19.63,5.29,23.23,53.27,23.22,107.31-27.34,148.07-11.63,9.37-5.1,20.14-8.15,29.92l.48,4.62Zm-20.89-12.19c-1.56-57.34-34.4-95.3-89.83-105.8-12.27-2.33-15.15,1.58-14.76,13.42,1.85,55.48,34.11,92.06,91.13,103.67C338.3,421.2,340.84,416.91,339.38,407.39ZM349,376.8c39.72-27.35,53.06-87.69,29.55-126.93-3.31-5.52-6-5.09-10.4-2.35-22.44,14.1-41.11,31.59-51.18,56.79-2,5.12-4.45,11,.34,15.53C333.76,335.43,342.76,355.22,349,376.8Z"/><path class="cls-4" d="M473.33,675.11c.61-5,4.67-5.5,8.36-6.61,29.38-8.81,51.43-26.62,70-51.19,44.7-59,31.42-131.07-9.27-179.06-2.81-3.32-6.77-5.8-7.1-10.74,15.79,2.94,25.74,14.4,35,25.7,64.81,78.82,30,191.09-67.67,219.73A64.71,64.71,0,0,1,473.33,675.11Z"/><path class="cls-2" d="M352.54,420.08l-.48-4.62C352.22,417,352.38,418.54,352.54,420.08Z"/><path class="cls-2" d="M256.27,400.51c1.82,2.26.48,2.8-1.6,2.94C255.2,402.47,255.73,401.49,256.27,400.51Z"/><path class="cls-4" d="M154.35,689.9l-8.53-4.54c-1.87-6.85-7.65-10.66-12.15-15.4C85.51,619.2,80.85,534.76,122,477.9c14.26-19.68,33.77-32.91,51.6-48.32,24-7.22,47.59-16.39,73.37-14.65,66.52,9.9,110.63,48.25,127,112,15.34,59.58-2.16,112.29-51.66,152.23-51,41.15-118.48,42.46-168.33,10.83Zm87.39-13.61c-10.83-7.17-23-9.48-35.71-10.1-9.67-1.2-17-7.6-25.55-11.37-4.43-2-9.65-5.41-12.81,1.06-2.6,5.32,2.59,7.75,6.07,10.22,19.34,13.75,41.53,20.19,64.43,24.7,5.08,1,10.65,1.42,12.33-4.83C252.34,679.18,246.26,678.11,241.74,676.29ZM207.83,494.07c-6.92.13-12.08,2.58-11.8,10.5.35,9.83-.7,20.24,6.84,28.21s6.93,14.11-1.2,22c-9.5,9.18-15.51,23.93-8.61,34.11,7.21,10.65,21.49,3.68,31.73-1.61,11.26-5.81,20.26-7.51,31,2.46,7.71,7.14,20.63,14.47,29.86,5.56,9.05-8.73,4-21.63-1.66-32.23a13,13,0,0,0-2-2.66c-6.81-7.56-5.67-13.92,1-21.59,8.44-9.69,16.74-23.87,8.92-34.14-8.32-10.93-23.74-5.35-34.81,1.39-10.3,6.26-18.19,4.61-26.82-2.67C224.05,498,216.66,494,207.83,494.07Zm-49.56,145c-.56-5.19-16.89-20-21-18.89-2.94.78-4.43,2.74-4.3,6,.28,6.66,14.18,20.51,19.93,19.67C156.81,645.32,158.61,643,158.27,639.11Z"/><path class="cls-4" d="M431.52,410.91c91.06-12.3,163.85,90.78,119.49,182.27-30.61,63.13-111.78,79.44-163.76,58.1-8.17-3.35-12.39-8.8-8.6-18.25,23.2-57.92,19.54-113.3-15.93-165.64-1.81-2.67-2.68-6-4-9,9.5-5.12,16.57-12.79,22.73-21.43l.16-.11ZM421.46,559.56c3.7.5,7.24.33,10.21-2.34,11.6-7.31,21.78-5.88,31.84,3.65,5.88,5.56,14.79,7.83,21.27,2.71,7.25-5.74,4.9-14.38.83-22-1-1.89-1.24-4.24-2.38-6-5.78-9-5.13-16.88,2.47-24.85,7.14-7.5,12.82-17.8,6.34-26.78-6.3-8.75-17.33-2.19-26.3-1.31-1.62.16-3.79.36-4.66,1.41-8.05,9.75-14.47,4.56-21.52-1.56-4.52-3.93-9.85-7.15-16.2-7.63-10.1-.76-18.68,4.22-14.56,13.87,8.76,20.55,8.26,39.18-3.37,57.87-1,3.26-1.21,6.47.66,9.53C409.93,563.1,415.72,561.19,421.46,559.56Z"/><path class="cls-5" d="M173.63,429.58C155.8,445,136.29,458.22,122,477.9,80.85,534.76,85.51,619.2,133.67,670c4.5,4.74,10.28,8.55,12.15,15.4C87.37,651.19,63.64,565.79,94.67,500.49c16.46-34.66,41.92-60.22,77.74-74.9C172.81,426.92,173.22,428.25,173.63,429.58Z"/><path class="cls-5" d="M431.52,410.91l-49.89,25.95q1.64-8.22,3.28-16.44l.5-.71.84.21c5.93-.21,13.1,2.67,15.53-6.24C411.22,407.66,421.49,410.54,431.52,410.91Z"/><path class="cls-6" d="M173.63,429.58c-.41-1.33-.82-2.66-1.22-4C196,412.71,221.4,413,247,414.94,221.22,413.19,197.62,422.36,173.63,429.58Z"/><path class="cls-7" d="M384.91,420.42q-1.65,8.22-3.28,16.44l-.16.11c-10.81-1.9-17.82,14.84-30,6.11l7.16-8.53,4.95-4,4.79-3.18Z"/><path class="cls-5" d="M351.44,443.08c12.21,8.73,19.22-8,30-6.11-6.16,8.64-13.23,16.31-22.73,21.43-5.54-2.15-7.59-7.58-11.07-11.67Z"/><path class="cls-7" d="M401.78,413.68c-2.43,8.91-9.6,6-15.53,6.24A27.24,27.24,0,0,1,401.78,413.68Z"/><path class="cls-5" d="M154.35,689.9l-.3.05Z"/><path class="cls-8" d="M339.38,407.39c1.46,9.52-1.08,13.81-13.46,11.29-57-11.61-89.28-48.19-91.13-103.67-.39-11.84,2.49-15.75,14.76-13.42C305,312.09,337.82,350.05,339.38,407.39Z"/><path class="cls-8" d="M349,376.8c-6.28-21.58-15.28-41.37-31.69-57-4.79-4.54-2.38-10.41-.34-15.53,10.07-25.2,28.74-42.69,51.18-56.79,4.37-2.74,7.09-3.17,10.4,2.35C402.1,289.11,388.76,349.45,349,376.8Z"/><path class="cls-2" d="M363.55,430.55l-4.95,4Z"/><path class="cls-2" d="M207.85,494.08c8.81-.06,16.2,4,22.51,9.29,8.63,7.28,16.52,8.93,26.82,2.67,11.07-6.74,26.49-12.32,34.81-1.39,7.82,10.27-.48,24.45-8.92,34.14-6.68,7.67-7.82,14-1,21.59a13,13,0,0,1,2,2.66c5.64,10.6,10.71,23.5,1.66,32.23-9.23,8.91-22.15,1.58-29.86-5.56-10.77-10-19.77-8.27-31-2.46-10.24,5.29-24.52,12.26-31.73,1.61-6.9-10.18-.89-24.93,8.61-34.11,8.13-7.86,8.75-14,1.2-22s-6.49-18.38-6.84-28.21C195.75,496.65,200.91,494.2,207.85,494.08Zm49.52,44.33c9.82-2,17-7.09,19.69-17.16,1.35-5-1.39-7.85-5.94-6.88-9.78,2.09-15.79,9.13-19.1,18.11C250.79,535.8,252.92,538.83,257.37,538.41Zm-22.79-7.93c-1.55-10.75-9.51-15.73-18.36-19.23-3.87-1.54-6.08,1.41-5.28,5.62,1.93,10.1,7.91,16.8,17.81,19.38C232.73,537.29,234.78,534.58,234.58,530.48Zm-21.85,47.81c9.7-2.65,18.25-7,20.81-18.35,1-4.29-.73-6.77-5-5.77-10.44,2.43-17.59,8.93-20.81,19.23C206.63,577,209.13,578.25,212.73,578.29Zm37.06-13C251.28,574,261.13,576.6,268.7,581c3.88,2.26,5.8-1,5.05-5.09-1.81-9.95-7.18-17.08-17.19-19.6C251.63,555.08,249.86,558.56,249.79,565.25Z"/><path class="cls-1" d="M241.74,676.29c4.52,1.82,10.6,2.89,8.76,9.68-1.68,6.25-7.25,5.83-12.33,4.83-22.9-4.51-45.09-10.95-64.43-24.7-3.48-2.47-8.67-4.9-6.07-10.22,3.16-6.47,8.38-3,12.81-1.06C189,658.59,196.36,665,206,666.19A73.35,73.35,0,0,0,241.74,676.29Z"/><path class="cls-1" d="M158.28,639.12c.33,3.92-1.47,6.2-5.36,6.76-5.75.84-19.65-13-19.93-19.67-.13-3.25,1.36-5.21,4.3-6C141.38,619.13,157.71,633.92,158.28,639.12Z"/><path class="cls-9" d="M241.74,676.29A73.35,73.35,0,0,1,206,666.19C218.71,666.81,230.91,669.12,241.74,676.29Z"/><path class="cls-2" d="M405.43,546.62c11.63-18.69,12.13-37.32,3.37-57.87-4.12-9.65,4.46-14.63,14.56-13.87,6.35.48,11.68,3.7,16.2,7.63,7.05,6.12,13.47,11.31,21.52,1.56.87-1.05,3-1.25,4.66-1.41,9-.88,20-7.44,26.3,1.31,6.48,9,.8,19.28-6.34,26.78-7.6,8-8.25,15.85-2.47,24.85,1.14,1.78,1.37,4.13,2.38,6,4.07,7.58,6.42,16.22-.83,22-6.48,5.12-15.39,2.85-21.27-2.71-10.06-9.53-20.24-11-31.84-3.66L431,546.42c3.11-4.53,10.79-9.89,4.94-14.45-5.61-4.36-11.59,2.37-15.46,7.63-1.17,1.59-1.15,4.07-1.68,6.14ZM462.08,530c-5.16,0-7.48,2.56-6.16,6.18,2.46,6.77,7.06,12.66,13.81,15.16,4.8,1.78,4.83-3.8,4.25-6.31C472.37,538.05,469,532,462.08,530Zm-22-26.86c-1-5.33-4.74-9.7-11.07-11.61-3.36-1-5.47.76-5,4.21.88,7,3.83,12.83,11.69,13.92C439.05,510.15,440.38,507.67,440.09,503.16Zm23,9c6.15-2.32,11.72-5.57,14-12.39,1.09-3.28-.79-5.53-4-5.35-7.53.42-11.37,5.64-13.71,12.09C458.29,509.52,459.31,511.77,463.07,512.17Z"/><path class="cls-3" d="M431,546.42l.72,10.79c-3,2.68-6.51,2.85-10.21,2.35-4.35-4.65-10.11-2.88-15.37-3.41-1.87-3.06-1.7-6.27-.66-9.53l13.32-.88-.31.16c1.48,3.61,3.61,3.76,6.26,1.2Z"/><path class="cls-2" d="M406.09,556.15c5.26.53,11-1.24,15.37,3.41C415.72,561.19,409.93,563.1,406.09,556.15Z"/><path class="cls-9" d="M257.37,538.42c-4.45.41-6.58-2.62-5.35-5.94,3.31-9,9.32-16,19.1-18.11,4.55-1,7.29,1.86,5.94,6.88C274.35,531.32,267.19,536.43,257.37,538.42Z"/><path class="cls-9" d="M234.59,530.49c.19,4.09-1.86,6.8-5.84,5.76-9.9-2.58-15.88-9.28-17.81-19.38-.8-4.21,1.41-7.16,5.28-5.62C225.07,514.75,233,519.73,234.59,530.49Z"/><path class="cls-9" d="M212.73,578.29c-3.6,0-6.1-1.32-5-4.89,3.22-10.3,10.37-16.8,20.81-19.23,4.26-1,6,1.48,5,5.77C231,571.27,222.43,575.64,212.73,578.29Z"/><path class="cls-9" d="M249.79,565.25c.07-6.69,1.84-10.17,6.77-8.93,10,2.52,15.38,9.65,17.19,19.6.75,4.09-1.17,7.35-5.05,5.09C261.13,576.6,251.28,574,249.79,565.25Z"/><path class="cls-9" d="M462.08,530c6.87,2,10.29,8,11.9,15,.58,2.51.55,8.09-4.25,6.31-6.75-2.5-11.35-8.39-13.81-15.16C454.6,532.58,456.92,530,462.08,530Z"/><path class="cls-9" d="M440.09,503.16c.29,4.51-1,7-4.42,6.52-7.86-1.09-10.81-6.88-11.69-13.92-.43-3.45,1.68-5.22,5-4.21C435.35,493.46,439.13,497.83,440.09,503.16Z"/><path class="cls-9" d="M463.07,512.17c-3.76-.4-4.78-2.65-3.69-5.65,2.34-6.45,6.18-11.67,13.71-12.09,3.18-.18,5.06,2.07,4,5.35C474.79,506.6,469.22,509.85,463.07,512.17Z"/><path class="cls-9" d="M431,546.42l-6.25.68-6.26-1.2.31-.16c.53-2.07.51-4.55,1.68-6.14,3.87-5.26,9.85-12,15.46-7.63C441.74,536.53,434.06,541.89,431,546.42Z"/><path class="cls-2" d="M418.44,545.9l6.26,1.2C422.05,549.66,419.92,549.51,418.44,545.9Z"/></svg>