<svg id="Capa_1" data-name="Capa 1" xmlns="http://www.w3.org/2000/svg" viewBox="0 0 667.71 1024"><defs><style>.cls-1{fill:#e2ddda;}.cls-2{fill:#6c4e36;}.cls-3{fill:#803d24;}.cls-4{fill:#d15650;}.cls-5{fill:#645522;}.cls-6{fill:#c1d06b;}.cls-7{fill:#e64746;}.cls-8{fill:#e1c7cc;}.cls-9{fill:#e1d8ca;}.cls-10{fill:#cfac99;}</style></defs><path class="cls-1" d="M401.34,307.14,384,302.8c23.09-22.74,26.65-50,20.53-80.58-3.38-16.86-10.8-24.92-28.25-21.9-4.44-12.4-12.12-11-21.64-5.74-37.19,20.69-58.9,50.47-56.5,95.61C280,264.14,263.57,238,243.48,214.44c-6.09-7.14-10.26-12.44-20-3.1-9.35,9-7.3,13.86.87,21.71,29.69,28.53,55,60.69,74.68,96.92,12.12,22.26,22.74,45.28,27.56,72.79-5.67-2.37-9-3.57-12.19-5.12C257,369.59,204.6,379.55,158.68,421.42c-55.09,50.23-72.64,116-69.36,187.93C93.08,692,138.49,783.89,231.41,804.83l6.83,1.35c38.75,15.11,74.12,8.05,106.87-16.27L382,803c32.9,17.57,66.27,13.82,98.14-1.09,92-43,117.61-172.1,92.55-248.77l-2-5.26c-18.34-88.53-61.37-153.92-160.82-167.93l21.53-11.14,6.44-2c13.35,1,25-2.81,35-11.85,7.84-7.1,9.3-12.32-.67-20.15A289.17,289.17,0,0,0,426.78,306C415.8,300.27,409.61,300.21,401.34,307.14Z"/><path class="cls-2" d="M231.41,804.83C138.49,783.89,93.08,692,89.32,609.35c-3.28-71.94,14.27-137.7,69.36-187.93,45.92-41.87,98.34-51.83,155.76-23.78,3.18,1.55,6.52,2.75,12.19,5.12-4.82-27.51-15.44-50.53-27.56-72.79-19.71-36.23-45-68.39-74.68-96.92-8.17-7.85-10.22-12.71-.87-21.71,9.7-9.34,13.87-4,20,3.1,20.09,23.54,36.53,49.7,54.63,75.75-2.4-45.14,19.31-74.92,56.5-95.61,9.52-5.29,17.2-6.66,21.64,5.73-3.17,6.65,4,10.71,4.17,16.53l-12,4.85c-.71-1.39-1.42-2.77-2.12-4.16-1.46-11.69-7.42-9.38-14.68-5-30.88,18.43-43.88,50.12-36.52,86.15,3.15,15.39,8.08,22.1,22.65,10.49L349,320.26a8.59,8.59,0,0,0-.84,1.79c-2.83,1-5.77,1.77-8.48,3-17,7.77-16.76,9.8-3.28,22.92,13,12.63,28.8,17.49,45.76,20.48,1.45,8.6,5.62,11.12,14.08,7.51,11.11-4.75,22.6-8.59,35.06-7.2l-21.54,11.14c99.45,14,142.48,79.4,160.82,167.93-13.07-2-9.31-13.45-12.22-21.32-5-13.42-4.31-30-20.39-37.39-.87-2.84-1.73-5.68-2.6-8.52-.88-12.56-7.18-23.07-13.89-33-2.63-3.89-5.85-12.42-14.05-6.16l-5.75-3.68L496,434l.38.17c-28.82-33.92-80-46.46-125.46-30.74-25.64,8.87-52.55,9.5-76.74,1.8-6-3.76-12.54-5.69-19.71-4.95-10.16-4.89-20.74-3.73-31.35-2.23a99.71,99.71,0,0,0-57.83,20.28c-70.6,53.08-88.7,126.91-79.81,209.92,2.95,27.51,9.11,55.17,26.79,78.23V706c-1.27,4.22,1,7,3.93,9.41,5.44,14,14.18,25.87,24.47,36.67l4.93,5.22,4.12,3.53,0-.29c9.16,23.64,29.18,28.5,51.33,29.7l-.09-.09C224.09,795.25,232.28,796.8,231.41,804.83Zm95.13-446.17c2.43,14.66,4.41,25.91,6.14,37.21,1.14,7.48,4.27,8.43,11,5.09,12.38-6.18,25.22-11.44,41.44-18.69C361.75,380.61,345,371.24,326.54,358.66Z"/><path class="cls-3" d="M231.41,804.83c.87-8-7.32-9.58-10.54-14.68,14.11-5.52,28,7.52,40.47,2.59,17.19-6.83,36.43-8.53,51.82-20,11.34-8.46,21.74-8.69,35.26-1.31C409.56,804.76,455,792,499.13,750.71c36.44-34,53.72-79.57,59.08-129.09,5-45.88-2.39-90-20.22-132.49,16.08,7.38,15.44,24,20.39,37.39,2.91,7.87-.85,19.33,12.22,21.32l2,5.25c3.16,46.59,1.76,92.45-15.73,136.89-29.22,74.2-97.58,128.22-175,113l-36.84-13.05c-7.36-7.34-14.81-8.32-24.75-3.62-25.88,12.26-52.88,21-82.12,19.89Z"/><path class="cls-4" d="M382,803c77.38,15.24,145.74-38.78,175-113,17.49-44.44,18.89-90.3,15.73-136.89,25.06,76.68-.53,205.75-92.55,248.78C448.22,816.78,414.85,820.53,382,803Z"/><path class="cls-5" d="M349,320.26,337.8,309.12a10.25,10.25,0,0,1,1-3.05c30.54-20.87,36.95-50.21,29.64-84.37l12-4.86c9.82,29.89,4.49,57.59-13.89,85l17.44,1,17.36,4.34c14.62,7.31,28,16.34,39.33,28.28,15.21,16,15.08,18-2.91,31.37l-6.43,2c-12.46-1.39-23.95,2.45-35.06,7.2-8.46,3.61-12.63,1.09-14.07-7.51l7.31-1.35c11.68-.53,22.36-4.54,33-9s12.63-9.14,3.19-17.8C403.48,319.89,378.66,311.32,349,320.26Z"/><path class="cls-6" d="M384,302.8l-17.44-1c18.38-27.39,23.71-55.09,13.89-85-.2-5.82-7.34-9.88-4.17-16.53,17.45-3,24.87,5.05,28.25,21.91C410.62,252.82,407.06,280.06,384,302.8Z"/><path class="cls-6" d="M437.75,366.79c18-13.33,18.12-15.35,2.91-31.37-11.33-11.94-24.71-21-39.33-28.28,8.28-6.93,14.47-6.87,25.45-1.12a289.17,289.17,0,0,1,45.28,28.77c10,7.83,8.51,13,.67,20.15C462.75,364,451.1,367.83,437.75,366.79Z"/><path class="cls-4" d="M238.24,806.18c29.24,1.11,56.24-7.63,82.12-19.89,9.94-4.7,17.39-3.72,24.75,3.62C312.36,814.23,277,821.29,238.24,806.18Z"/><path class="cls-7" d="M538,489.13c17.83,42.47,25.19,86.61,20.22,132.49-5.36,49.52-22.64,95.08-59.08,129.09-44.18,41.24-89.57,54-150.71,20.72-13.52-7.38-23.92-7.15-35.26,1.31-15.39,11.47-34.63,13.17-51.82,20-12.44,4.93-26.36-8.11-40.47-2.59l.08.08-51.32-29.7,0,.29-4.12-3.53-4.91-5.22c1.36-7.91-2.53-14.4-6.34-20.54-24.71-39.86-30.44-83.87-30.62-129.68-.12-28.7,11.75-54.58,15.75-82.2L174,463a2.59,2.59,0,0,0,1.92-2.11c8-4.72,15.17-10.31,19.51-18.82l0,0c2.81-1.13,5.86-1.86,8.38-3.44,45.63-28.7,91.71-30.43,138-2,8.33,5.11,14.59,2.42,21.82-1.78,27.92-16.18,57.37-22.58,89.72-15.79,15.19,3.19,27.83,12.42,42.92,15.16L496,434q2.88,1.88,5.75,3.76l5.74,3.68a137.72,137.72,0,0,0,27.95,39.15C536.26,483.45,537.12,486.29,538,489.13Zm-5.86,101.16c-2.76-33.09-7.62-65.1-22.25-94.7-2.62-5.3-3.64-15.57-13.05-11.13-7.49,3.53-2.75,10.79-.34,16.14A236.15,236.15,0,0,1,517,591.3c.19,6.28-1.46,15.83,8.48,14.89C534.78,605.31,531.34,595.9,532.13,590.29ZM529.4,634c0-6.72,1.28-12.69-5.31-13.59-6.18-.85-7.65,4.77-8.75,9.53-1.76,7.63-3.4,15.29-4.79,23-.66,3.7-.13,7.53,4.27,8.69,4.24,1.12,7.19-1.64,8.33-5.14C525.75,648.46,527.68,640.26,529.4,634Z"/><path class="cls-1" d="M132.22,706.5c-17.68-23.06-23.84-50.72-26.79-78.23-8.89-83,9.21-156.84,79.81-209.92a99.71,99.71,0,0,1,57.83-20.28c10.09,5.77,20.83,2.43,31.35,2.23,7.17-.74,13.67,1.19,19.71,4.95-7.3,13-19.58,5.86-29.41,6.54-27,1.87-51.88,7.06-69.26,30.27l0,0c-13.85-1.34-18.54,6.81-19.51,18.82A2.6,2.6,0,0,1,174,463c-24.4,10.86-28,35.5-37.36,56.35-1.94,7-3.61,14.08-5.85,21-12.14,37.56-15.35,75.7-8.55,114.7C125.26,672.28,132.51,688.66,132.22,706.5Z"/><path class="cls-8" d="M195.46,442.06c17.38-23.21,42.31-28.4,69.26-30.27,9.83-.68,22.11,6.43,29.41-6.54,24.19,7.7,51.1,7.07,76.74-1.8,45.44-15.72,96.64-3.18,125.46,30.74-15.09-2.74-27.73-12-42.92-15.16-32.35-6.79-61.8-.39-89.72,15.79-7.23,4.2-13.49,6.89-21.82,1.78-46.32-28.41-92.4-26.68-138,2C201.32,440.2,198.27,440.93,195.46,442.06Z"/><path class="cls-6" d="M349,320.26c29.64-8.94,54.46-.37,76.66,20,9.44,8.66,7.42,13.3-3.19,17.8s-21.31,8.51-33,9c-5.86-4.27-12.13-8.09-17.5-12.91-10.08-9-23.55-15.77-23.81-32.15A8.59,8.59,0,0,1,349,320.26Z"/><path class="cls-9" d="M338.82,306.07a10.25,10.25,0,0,0-1,3.05c-14.58,11.62-19.51,4.91-22.66-10.48-7.36-36,5.64-67.72,36.52-86.15,7.26-4.34,13.22-6.65,14.68,5-7.56,2.16-11.74,8.12-16.26,13.92C332.32,254.27,332.83,279.73,338.82,306.07Z"/><path class="cls-6" d="M338.82,306.07c-6-26.34-6.5-51.8,11.26-74.62,4.52-5.8,8.7-11.76,16.26-13.92.7,1.39,1.41,2.77,2.12,4.16C375.77,255.86,369.36,285.2,338.82,306.07Z"/><path class="cls-10" d="M132.22,706.5c.29-17.84-7-34.22-10-51.44-6.8-39-3.59-77.14,8.55-114.7,2.24-6.9,3.91-14,5.84-21h1.41l1.37.29c-4,27.62-15.87,53.5-15.75,82.2.18,45.81,5.91,89.82,30.62,129.68,3.81,6.14,7.7,12.63,6.34,20.54-10.31-10.8-19-22.63-24.49-36.67-.34-3.54.26-7.48-3.93-9.41Z"/><path class="cls-9" d="M348.18,322.05c.26,16.38,13.73,23.11,23.81,32.15,5.37,4.82,11.64,8.64,17.5,12.91l-7.3,1.35c-17-3-32.79-7.85-45.77-20.48-13.48-13.12-13.69-15.15,3.28-22.92C342.41,323.82,345.35,323,348.18,322.05Z"/><path class="cls-3" d="M169.63,760.53,221,790.23C198.81,789,178.79,784.17,169.63,760.53Z"/><path class="cls-3" d="M535.39,480.61a137.72,137.72,0,0,1-27.95-39.15c8.21-6.26,11.43,2.27,14.06,6.16C528.21,457.54,534.51,468.05,535.39,480.61Z"/><path class="cls-8" d="M274.42,400.3c-10.52.2-21.26,3.54-31.35-2.23C253.68,396.57,264.26,395.41,274.42,400.3Z"/><path class="cls-1" d="M132.21,706c4.19,1.93,3.59,5.87,3.93,9.41C133.22,712.94,130.94,710.21,132.21,706Z"/><path class="cls-3" d="M165.54,757.29l4.12,3.53Z"/><path class="cls-8" d="M501.7,437.78q-2.86-1.89-5.75-3.76Z"/><path class="cls-9" d="M532.13,590.29c-.79,5.61,2.65,15-6.69,15.9-9.94.94-8.29-8.61-8.48-14.89a236.15,236.15,0,0,0-20.47-90.7c-2.41-5.35-7.15-12.61.34-16.14,9.41-4.44,10.43,5.83,13.05,11.13C524.51,525.19,529.37,557.2,532.13,590.29Z"/><path class="cls-9" d="M529.4,634c-1.72,6.3-3.65,14.5-6.25,22.48-1.14,3.5-4.09,6.26-8.33,5.14-4.4-1.16-4.93-5-4.27-8.69,1.39-7.7,3-15.36,4.79-23,1.1-4.76,2.57-10.38,8.75-9.53C530.68,621.27,529.38,627.24,529.4,634Z"/><path class="cls-8" d="M139.42,519.65l-1.37-.29h-1.41c9.35-20.84,13-45.48,37.37-56.34Q156.7,491.34,139.42,519.65Z"/><path class="cls-8" d="M175.92,460.92c1-12,5.66-20.16,19.51-18.82C191.09,450.61,183.92,456.2,175.92,460.92Z"/></svg>