<svg id="Capa_1" data-name="Capa 1" xmlns="http://www.w3.org/2000/svg" viewBox="0 0 667.71 1024"><defs><style>.cls-1{fill:#e2ddda;}.cls-2{fill:#f3a532;}.cls-3{fill:#6c4e36;}.cls-4{fill:#803d24;}.cls-5{fill:#e1d8ca;}.cls-6{fill:#cfac99;}</style></defs><path class="cls-1" d="M416.59,722.78l6.52-1.72c18.61-1,33.35-11.16,48.84-20.95,38.92-24.6,67.55-59.43,83.09-102.74,25.87-72.09,19.45-142.7-25.84-205.46-38-52.68-87.74-85.46-152.63-87.91-24.68-6.5-49.67-10.27-75.1-7.41-10.34,1.17-12.54-3.17-12.92-13-1.53-40.07-18.92-72.73-45.12-100.65-3.45-3.68-7-13.82-14.42-5.37s2.34,11.49,6.25,15.07c26.06,23.83,42.66,53.17,49.74,88.76,2.35,11.82-.3,17.24-12.26,19.79-38.57,8.23-71.83,27.52-101.19,55.1-78,73.22-91.82,205-30.61,295.37C204.1,744.92,324,775.84,416.59,722.78Z"/><path class="cls-2" d="M376.57,304c64.89,2.45,114.61,35.23,152.63,87.91,45.29,62.76,51.71,133.37,25.84,205.46C539.5,640.68,510.87,675.51,472,700.11c-15.49,9.79-30.23,19.9-48.84,20.95,60.45-40,99.16-95.56,108.58-171,13-104.31-47.5-210.35-145.36-241.5Z"/><path class="cls-3" d="M376.57,304l9.75,4.52c-3.45,4.37-7.46,4.68-12.23,2.4-22.07-10.52-45.65-9.8-68.82-8-9,.69-21-2.18-26.86,10l-8.79,4-4.93-.57c-1.48-1.48-2.64-1.23-3.47.72-11.77,5.81-25,8.29-35.44,17.13l-4.41,2.51-5.28,2.79C147.15,379,105.65,469.52,117.72,552c13.65,93.25,82.14,163.28,160.6,177.58,14.34,6.73,29.79,2.75,44.59,5.1,2.19,8,6.77,9.38,14.37,7.62,21.59-5,43.45-8.53,63.76-18.66,4.37-2.19,10.1-7.08,15.55-.87C324,775.84,204.1,744.92,140.94,651.65,79.73,561.26,93.6,429.5,171.55,356.28c29.36-27.58,62.62-46.87,101.19-55.1,12-2.55,14.61-8,12.26-19.79-7.08-35.59-23.68-64.93-49.74-88.76-3.91-3.58-13.66-6.62-6.25-15.07s11,1.69,14.42,5.37c26.2,27.92,43.59,60.58,45.12,100.65.38,9.84,2.58,14.18,12.92,13C326.9,293.73,351.89,297.5,376.57,304Z"/><path class="cls-4" d="M416.59,722.78c-5.45-6.21-11.18-1.32-15.55.87-20.31,10.13-42.17,13.65-63.76,18.66-7.6,1.76-12.18.35-14.37-7.62l17.26-3.25c19.3-.18,37.33-6,54.86-13.83,88-39.32,137-133.3,121.11-231.84-15.55-96.24-91-166.87-185.31-174.57-17.7-1.45-34.89,3.61-52.42,1.74,5.84-12.2,17.9-9.33,26.86-10,23.17-1.8,46.75-2.52,68.82,8,4.77,2.28,8.78,2,12.23-2.4,97.87,31.15,158.4,137.19,145.37,241.5-9.42,75.48-48.13,131-108.58,171Z"/><path class="cls-2" d="M278.41,312.94c17.53,1.87,34.72-3.19,52.42-1.74,94.34,7.7,169.76,78.33,185.31,174.57C532.07,584.31,483,678.29,395,717.61c-17.53,7.85-35.56,13.65-54.85,13.82-27.85.88-53.36-9.86-79.43-17.82l-3.94-2c-1.92-4.63-4.92-6.87-9.82-4.91l-6.82-3.22c-.75-3.83-2.74-5.58-6.53-4.3l-4.11-2.78c-9-11.89-18.4-23.27-33.3-27.23l-3.09-4.83c1.64-10-7.65-10.89-12-15.9a3.82,3.82,0,0,0-1.51-1.55c-2.72-9.52-5.95-18.65-15.59-23l-1.92-3c.28-9-2.48-16.44-10.41-21a5.94,5.94,0,0,0-1.38-2,2.23,2.23,0,0,0-1-2.32q-1-5.6-1.91-11.18c3.7-4.62.92-8.85-.61-13.26-8.55-24.63-8.61-50-5.72-75.59.71-6.37,3.74-12.66-.51-18.82l1.32-7.55c7.09-5.43,4.54-13.4,4.88-20.6l3.47-4c4.84-2.69,4.71-7.4,4.45-12.15l2.46-5.46c5.12-2.67,6.32-7.33,5.89-12.8l.84-1.29c7.43-2.56,9.07-8.71,9-15.94l3.25-4.69c3.42-.3,5-2.43,5.17-5.86l4.42-5.38c3.82-.22,5.55-2.28,5.06-6.32a4.57,4.57,0,0,0,1.39-1.57l2-2.07,5.08-3.31.63.45-.34-.78,2.92-3.05.71.36-.41-.68q1.53-2.61,3.07-5.22c4.43.3,7.8-1,8.41-6.3l2.84-3.46c6.44-.46,11.92-2.35,13.62-10,15.35-2.76,27.74-11.26,38.92-22.12Zm152.34,332.5c2.54-1.69,5.45-2.78,7.18-4.91,17.24-21.22,31-44.54,37.65-71.85,1-4.21.88-8.89-4.22-10.22-4.53-1.19-7.69,1.58-9.46,5.85-4.57,11-8.19,22.5-13.75,32.88-6.13,11.45-14.31,21.66-21,32.81C423.93,635.42,420.83,642.11,430.75,645.44ZM391,676.84c7,.4,24.4-13.76,24.13-19.65-.19-4.29-2.51-6.22-6.49-6.4-6.93-.33-24.51,13.79-24.32,19.62C384.49,674.92,387.32,676.39,391,676.84Z"/><path class="cls-5" d="M150.24,444.56l-3.46,4c-4.16,6.19-6.42,12.91-4.89,20.62l-1.32,7.54c-6.06,6.89-4.57,16.19-5.29,24-2.66,28.74-3.06,57.58,12.13,83.66q1,5.6,1.89,11.16s-.24,1.53-.24,1.53l1.27.81a5.89,5.89,0,0,1,1.37,2c-1.29,9.6,4.52,15.34,10.42,21,.64,1,1.28,2,1.92,3,3.37,9,4.51,19.73,15.59,23a3.86,3.86,0,0,1,1.51,1.54c1.14,7.67,5.12,13,12,15.91l3.08,4.82c8.79,12.19,19.47,21.84,33.31,27.24l4.1,2.76c1,3.44,3.23,4.76,6.54,4.32l6.82,3.21c2,4.3,5.85,4.81,9.82,4.92l3.94,2c3.48,8.2,14.89,6.8,17.57,16-78.46-14.3-146.95-84.33-160.6-177.58C105.65,469.52,147.15,379,216.09,339.54l1,9.5c-1,1.15-1.89,2.31-2.82,3.46-3.86.54-7.35,1.64-8.43,6.3q-1.54,2.61-3.05,5.21s-.32.33-.32.33c-1,1-2,2-2.91,3.05,0,0-.3.33-.3.33L194.18,371a4.36,4.36,0,0,0-2,2.07,4.65,4.65,0,0,1-1.38,1.57c-3.07.87-5,2.75-5.07,6.32l-4.42,5.37c-3.66.07-5.71,1.71-5.17,5.87q-1.64,2.36-3.23,4.68c-6.69,3-7.34,9.79-9,15.95l-.84,1.28c-5.51,2.46-5.42,7.78-5.89,12.81l-2.45,5.45C150.4,435.3,150.52,440,150.24,444.56Z"/><path class="cls-6" d="M278.32,729.59c-2.68-9.19-14.09-7.79-17.57-16,26.07,8,51.58,18.71,79.43,17.83l-17.27,3.26C308.11,732.34,292.66,736.32,278.32,729.59Z"/><path class="cls-6" d="M269.62,317c-11.18,10.86-23.57,19.36-38.92,22.12l-.88-.71c-1.35-1.38-2.69-2.76-4-4.13,10.44-8.84,23.67-11.32,35.44-17.13l3.47-.72Z"/><path class="cls-6" d="M217.08,349l-1-9.5,5.28-2.79c2.19,4.19,5.17,3.75,8.45,1.62l.88.71C229,346.69,223.52,348.58,217.08,349Z"/><path class="cls-5" d="M229.82,338.37c-3.28,2.13-6.26,2.57-8.45-1.62l4.41-2.51C227.13,335.61,228.47,337,229.82,338.37Z"/><path class="cls-4" d="M264.69,316.39l-3.47.72C262.05,315.16,263.21,314.91,264.69,316.39Z"/><path class="cls-5" d="M430.75,645.44c-9.92-3.33-6.82-10-3.57-15.44,6.66-11.15,14.84-21.36,21-32.81,5.56-10.38,9.18-21.9,13.75-32.88,1.77-4.27,4.93-7,9.46-5.85,5.1,1.33,5.25,6,4.22,10.22-6.69,27.31-20.41,50.63-37.65,71.85C436.2,642.66,433.29,643.75,430.75,645.44Z"/><path class="cls-6" d="M147.41,584.36c-15.19-26.08-14.79-54.92-12.13-83.66.72-7.83-.77-17.13,5.29-24,4.25,6.17,1.22,12.46.51,18.83-2.89,25.56-2.83,51,5.72,75.59C148.33,575.51,151.11,579.74,147.41,584.36Z"/><path class="cls-5" d="M391,676.86c-3.69-.47-6.52-1.94-6.67-6.45-.19-5.83,17.39-19.95,24.32-19.62,4,.18,6.3,2.11,6.49,6.4C415.42,663.08,398,677.24,391,676.86Z"/><path class="cls-6" d="M229.53,696.44C215.69,691,205,681.39,196.22,669.2,211.13,673.17,220.52,684.55,229.53,696.44Z"/><path class="cls-6" d="M179.63,646.93c-11.08-3.29-12.22-14-15.59-23C173.68,628.28,176.91,637.41,179.63,646.93Z"/><path class="cls-6" d="M162.12,620.9c-5.9-5.68-11.71-11.42-10.42-21C159.64,604.46,162.4,611.85,162.12,620.9Z"/><path class="cls-6" d="M193.14,664.38c-6.88-2.92-10.86-8.24-12-15.91C185.49,653.49,194.78,654.38,193.14,664.38Z"/><path class="cls-6" d="M163.88,412.86c1.65-6.16,2.3-12.95,9-15.95C173,404.15,171.31,410.3,163.88,412.86Z"/><path class="cls-6" d="M141.89,469.14c-1.53-7.71.73-14.43,4.89-20.62C146.43,455.74,149,463.71,141.89,469.14Z"/><path class="cls-6" d="M157.15,427c.47-5,.38-10.35,5.89-12.81C163.47,419.62,162.27,424.28,157.15,427Z"/><path class="cls-6" d="M150.24,444.56c.28-4.55.16-9.26,4.46-12.16C155,437.16,155.08,441.87,150.24,444.56Z"/><path class="cls-6" d="M256.81,711.65c-4-.11-7.77-.62-9.82-4.92C251.89,704.78,254.89,707,256.81,711.65Z"/><path class="cls-6" d="M205.83,358.8c1.08-4.66,4.57-5.76,8.43-6.3C213.63,357.84,210.26,359.1,205.83,358.8Z"/><path class="cls-6" d="M240.17,703.52c-3.31.44-5.57-.88-6.54-4.32C237.43,697.94,239.42,699.69,240.17,703.52Z"/><path class="cls-6" d="M185.69,381c.05-3.57,2-5.45,5.07-6.32C191.24,378.71,189.51,380.77,185.69,381Z"/><path class="cls-6" d="M176.1,392.23c-.54-4.16,1.51-5.8,5.17-5.87C181.06,389.8,179.52,391.93,176.1,392.23Z"/><path class="cls-6" d="M202.46,364.34s.33-.33.32-.33.39.69.39.69Z"/><path class="cls-6" d="M150.33,597.86l-1.27-.81s.23-1.54.24-1.53A2.25,2.25,0,0,1,150.33,597.86Z"/><path class="cls-6" d="M192.14,373.1a4.36,4.36,0,0,1,2-2.07C193.49,371.72,192.82,372.41,192.14,373.1Z"/><path class="cls-6" d="M199.25,367.72s.32-.33.3-.33.33.78.33.78Z"/></svg>