<svg id="Capa_1" data-name="Capa 1" xmlns="http://www.w3.org/2000/svg" viewBox="0 0 667.71 1024"><defs><style>.cls-1{fill:#e2ddda;}.cls-2{fill:#dfe064;}.cls-3{fill:#6c4e36;}.cls-4{fill:#645522;}.cls-5{fill:#e1d8ca;}</style></defs><path class="cls-1" d="M136.51,250.07c5.63-7.54,10.8-15.49,17-22.48,4.9-5.49,3.8-8.55-.69-13.8-9.22-10.78-14.35-9.34-21.52,2.56-12.44,20.66-13,47.28-32.53,64.2L95,285.92c-16.15,21.37-21.53,46.42-22.9,72.23C68.68,422,86.37,481.22,116.6,536.36c53.58,97.73,135.46,163,241.36,195.21,82,24.91,162.38,28.36,227.39-43.84,9.56-10.62,11.45-16.9-.48-25.1,16.12-16,15.54-20.38-6.72-26.94q-38.43-11.34-76.4-23.94c-41.66-13.86-79-35.6-115.9-58.13-33.15-20.24-64.43-43.26-92.46-70.57a648.3,648.3,0,0,1-81.3-96.87c-26.12-37.86-43.65-80.07-62.66-121.52-3.06-6.66-7.39-9.25-13.62-10.61C136,252.72,136.28,251.4,136.51,250.07Z"/><path class="cls-2" d="M135.81,254.06c6.23,1.35,10.56,3.94,13.62,10.6,19,41.45,36.54,83.66,62.66,121.52a648.3,648.3,0,0,0,81.3,96.87c28,27.31,59.31,50.33,92.46,70.57,36.92,22.53,74.24,44.27,115.9,58.13q38,12.68,76.4,23.94c22.26,6.56,22.84,10.91,6.73,26.94l-2.5,1c-8.8-5-18.45-7.62-28.14-10.35-176-49.57-310.68-150.41-391.62-317.3-9.22-19-15.07-40-26.2-57.68C130.15,268.29,128.69,262.4,135.81,254.06Z"/><path class="cls-3" d="M582.38,663.58l2.5-1c11.92,8.2,10,14.48.47,25.1-65,72.2-145.44,68.75-227.39,43.84-105.9-32.18-187.78-97.48-241.36-195.21C86.37,481.22,68.68,422,72.09,358.15c1.37-25.81,6.75-50.86,22.9-72.23q-1.08,15-2.17,30C81.63,353.83,82.05,392,91,430.24,123,566,207.21,656.72,333.89,709.73c48,20.11,98.55,30.18,150.88,20.66,37.31-6.79,70.65-21.24,90.74-56.37C577.53,670.36,582.64,668.74,582.38,663.58Z"/><path class="cls-4" d="M582.38,663.58c.26,5.16-4.85,6.78-6.87,10.44L567,671.56c-4.77-1.56-9.48-3.29-14.3-4.66-192.86-55-336-167.95-415.91-355.34-4.43-10.39-3.28-29.25-18.42-28.38-15.42.89-18.1,18.85-23.26,31.54a13.58,13.58,0,0,1-2.24,1.16q1.08-15,2.17-30l3.82-5.37c12-2.82,21.46-8.34,23.87-21.74,1.4-7.82,7.51-8.53,13.83-8.74-.23,1.33-.47,2.65-.7,4-7.12,8.34-5.66,14.23.61,24.19,11.13,17.72,17,38.66,26.2,57.68,80.94,166.89,215.57,267.73,391.62,317.3C563.93,656,573.58,658.54,582.38,663.58Z"/><path class="cls-3" d="M136.51,250.07c-6.32.21-12.43.92-13.83,8.74-2.41,13.4-11.89,18.92-23.87,21.74,19.57-16.92,20.09-43.54,32.53-64.2,7.17-11.9,12.3-13.34,21.52-2.56,4.49,5.25,5.59,8.31.69,13.8C147.31,234.58,142.14,242.53,136.51,250.07Z"/><path class="cls-5" d="M92.82,315.88a12.9,12.9,0,0,0,2.24-1.17c1.84,31-1.52,61.85,5.67,93.09,15.92,69.23,48.66,128.39,96.53,180.1,34.46,37.24,76.25,64.69,119.56,89.9,12.7,7.4,27.88,10.54,41.92,15.63l2-4.54c-5.07-3-10.15-5.89-15.21-8.87s-14.1-4.19-9.5-12.38c4.49-8,11.53-3.25,17.31.42,13.89,8.81,29.76,12.67,45,18.17,7.25,2.62,21.07-1.11,20.22,9.51-.93,11.63-13.87,3.64-21.16,5.79-.67.2-.94,1.72-1.79,3.42,36.57,13.43,73.55,9.33,110.13,2.88,24.36-4.29,46.69-14.26,61.21-36.27l8.56,2.46c-20.09,35.13-53.43,49.58-90.74,56.37-52.33,9.52-102.84-.55-150.88-20.66C207.21,656.72,123,566,91,430.24,82.05,392,81.63,353.83,92.82,315.88Zm293.2,385c-5-4.35-10-8.81-18.55-4.44C373.63,701.9,379.7,702.11,386,700.83Z"/><path class="cls-2" d="M567,671.56c-14.52,22-36.85,32-61.21,36.27-36.58,6.45-73.56,10.55-110.13-2.88.85-1.7,1.12-3.22,1.79-3.42,7.29-2.15,20.23,5.84,21.16-5.79.85-10.62-13-6.89-20.22-9.51-15.23-5.5-31.1-9.36-45-18.17-5.78-3.67-12.82-8.41-17.31-.42-4.6,8.19,4.58,9.47,9.5,12.38s10.14,5.91,15.21,8.87l-2,4.54c-14-5.09-29.22-8.23-41.92-15.63-43.31-25.21-85.1-52.66-119.56-89.9C149.39,536.19,116.65,477,100.73,407.8c-7.19-31.24-3.83-62.09-5.67-93.09,5.16-12.68,7.84-30.64,23.26-31.53,15.14-.87,14,18,18.42,28.38C216.62,499,359.79,611.91,552.65,666.9,557.47,668.27,562.18,670,567,671.56ZM326.26,652.08c.36-5.22-14.7-21-19.54-20.92-4.22.09-5.4,2.85-5.76,6.46-.69,7,11.64,20.13,18.93,20.16C324,657.79,325.65,655.3,326.26,652.08Z"/><path class="cls-2" d="M386,700.83c-6.32,1.28-12.39,1.07-18.55-4.44C376,692,381,696.48,386,700.83Z"/><path class="cls-5" d="M326.26,652.08c-.61,3.22-2.3,5.71-6.37,5.7-7.29,0-19.62-13.21-18.93-20.16.36-3.61,1.54-6.37,5.76-6.46C311.56,631.05,326.62,646.86,326.26,652.08Z"/></svg>