<svg id="Capa_1" data-name="Capa 1" xmlns="http://www.w3.org/2000/svg" viewBox="0 0 667.71 1024"><defs><style>.cls-1{fill:#e2ddda;}.cls-2{fill:#6c4e36;}.cls-3{fill:#803d24;}.cls-4{fill:#92c368;}.cls-5{fill:#645522;}.cls-6{fill:#c1d06b;}.cls-7{fill:#e64746;}.cls-8{fill:#e1c7cc;}.cls-9{fill:#e1d8ca;}.cls-10{fill:#cfac99;}.cls-11{fill:#d15650;}</style></defs><path class="cls-1" d="M106,424c-4.92,3.8-3,8.06-.82,12.33C98,442,102,447.63,105.43,453c11.32,18,21.89,36.64,34.31,53.89,47.86,66.45,101.11,128.06,163.1,182A1111.34,1111.34,0,0,0,449.91,797.24c6.26,3.85,14.42,11.83,21.33,3,5.6-7.19,16.27-15.28,5.86-26.79l7.95-32c.92-3.89,2.27-7.73,2.69-11.67C494.6,665.33,505.5,601.54,518.09,538c11.56-58.3,23.77-116.46,35.69-174.68,7.81-35.84,7.7-35.81-26.69-28.32-129.9,28.28-259.39,58.75-392.26,70.79-8.48.77-21.24-.63-25.16,12.29C100.63,415.21,108.07,422.61,106,424Z"/><path class="cls-2" d="M485.05,741.42l-7.95,32a10.44,10.44,0,0,0-1.48-1.71l-5.09-1.37a9.93,9.93,0,0,0-1-2.14c4.92-7.63-2.5-8.67-6.28-11-92-57.58-172.69-128.39-244.43-209.63C194.48,514,166.55,483.08,145.24,447.4c-8.56-14.32-16.4-28.37-35.6-29.24,4-13,16.71-11.56,25.19-12.33,132.87-12,262.36-42.51,392.26-70.79,34.39-7.49,34.5-7.52,26.69,28.32-8.51.23-5.65,7-6.54,11.52-1.54,7.83-5.38,9.71-12.06,5.06a5.52,5.52,0,0,1,0-3.12l.27-1.35c.77-2.22,1.55-4.43,2.32-6.65,3.62-2.91,3.95-6.38,1.8-10.29,4.09-12.86-2-12.15-11.77-9.94-94.58,21.31-189.24,42.26-285.1,57.19-23.95,3.73-48,6.63-72,10.18-3.25.49-9.28-1.68-8.24,5.24.23,1.51,3.5,2.56,5.37,3.82l-2.37,3.66c-2.47,21.24,11.36,31.62,27.11,40.71l4,5.24a7.89,7.89,0,0,0,.62,8.06c10.53,15.39,21.56,30.61,32.53,45.48,13.14,17.8,28.2,35.73,49,46.48l4.52,4.63c.16,5.88,4.71,8.94,8.13,12.76,53.31,59.65,119.76,103.07,184.05,149.17C478.68,743.57,481.79,743.15,485.05,741.42ZM178.93,473.73l-40.54-61.08-5.23,3.56,36.27,52.33,24.69,32.33c.63,1.58.95,3.41,2,4.7A1108.33,1108.33,0,0,0,367.82,680.38c11.94,9.73,22.92,21.22,39.06,25.46C329.72,647.09,261,580.05,201.56,503.64ZM474.34,751.57c-13.18-9.32-24.78-21.17-41.16-25.34C446,736.18,458.07,747.22,474.34,751.57Z"/><path class="cls-3" d="M535.18,379.94c6.68,4.65,10.52,2.77,12.06-5.06.89-4.51-2-11.29,6.54-11.52C541.86,421.58,529.65,479.74,518.09,538c-12.59,63.5-23.49,127.29-30.35,191.71-.42,3.94-1.77,7.78-2.69,11.67-3.26,1.73-6.37,2.15-9.66-.21-64.29-46.1-130.74-89.52-184-149.17-3.42-3.82-8-6.88-8.13-12.75,53.61,51.52,109.7,99.92,173.2,139.18,9.71,6,14,6.34,15.44-6.43,4.71-41.73,11.22-83.19,19-124.46C504,518,517.14,448.46,535.18,379.94Z"/><path class="cls-4" d="M477.1,773.4c10.41,11.51-.26,19.6-5.86,26.79-6.91,8.88-15.07.9-21.33-3A1111.34,1111.34,0,0,1,302.84,688.9c-62-53.92-115.24-115.53-163.1-182-12.42-17.25-23-35.85-34.31-53.89-3.39-5.4-7.44-11-.29-16.67,3.12,4.06,6.58,7.92,9.33,12.23C153.63,509.92,198,567.08,249.38,618.75c21.92,22.06,44,43.83,68,63.76,42.55,35.4,86.55,68.67,134.14,97,11.26,6.72,19.62,5.64,24.1-7.87A10.44,10.44,0,0,1,477.1,773.4Z"/><path class="cls-5" d="M475.62,771.69c-4.48,13.51-12.84,14.59-24.1,7.87-47.59-28.38-91.59-61.65-134.14-97-24-19.93-46.08-41.7-68-63.76C198,567.08,153.63,509.92,114.47,448.59c-2.75-4.31-6.21-8.17-9.33-12.23C103,432.1,101,427.84,106,424l9.85,9.22c25.14,51.21,60.67,96,98,137.58,47,52.36,96.38,103.58,155.51,143.82,27.68,18.83,54.7,38.63,83.29,56.13,6.28,3.85,12.13,7.3,17.9-.48Z"/><path class="cls-6" d="M115.8,433.26,106,424c2.12-1.43-5.32-8.83,3.71-5.9,19.18.89,27,14.94,35.58,29.26,21.31,35.68,49.24,66.6,73.58,100.1-.94.81-1.87,1.63-2.8,2.45-3.24-3.22-6.87-6.14-9.66-9.71C180,506.48,154.61,472,132.81,435.1,127.64,426.35,122.42,425.07,115.8,433.26Z"/><path class="cls-7" d="M535.18,379.94c-18,68.52-31.2,138.07-44.32,207.64-7.79,41.27-14.3,82.73-19,124.46-1.44,12.77-5.73,12.43-15.44,6.43-63.5-39.26-119.59-87.66-173.2-139.18l-4.52-4.64c-9.9-17.63-26.52-29.6-38.33-45.74-13.71-18.75-29.13-36.24-43.8-54.28-1.35-1.74-2.69-3.49-4-5.24-8.31-14.05-15.24-29-27.11-40.71l2.37-3.66c4.45-.85,8.86-2,13.35-2.5,71.48-7.66,142.24-19.78,212.7-33.77,46.7-9.28,93.32-19,140-28.54l3.93,8.61c-.77,2.22-1.55,4.43-2.32,6.64,0,0-.81.5-.81.5l.54.86A5.52,5.52,0,0,0,535.18,379.94ZM358,455.38c2.88-4,6.38-7.92,8.79-12.43,2.71-5.07,5.43-11.41,1.19-16.21-4.51-5.11-10.92-1.76-16.11.26-10.67,4.16-18.07,12.25-23.14,22.24-2.45,4.82-2.32,10.18,2.23,14.28s9.66,4.19,14.45,1.47C349.89,462.46,353.68,458.78,358,455.38Zm-17.41,77.48c-1.63,1.63-3.41,3.14-4.86,4.91-5.16,6.32-11.72,13.82-5.47,21.34,6.52,7.84,14.75,2.15,21.67-2.25a36.22,36.22,0,0,0,5.57-4.08c8.68-8.2,18.06-22.16,11.76-29.3C360.35,513.34,349,525.1,340.63,532.86Zm113.78,17.22c4-7.43,17.59-17.12,8.87-26.59s-20,2.07-28.12,8.71c-8.8,7.16-17.48,19-9,27.86C434.28,568.48,445.08,558.83,454.41,550.08ZM259.94,483.6c2.86-4,5-6.74,6.82-9.68,4.19-6.86,10.27-15.58,4.83-22-6.33-7.43-14.61.78-21.8,3.46C241,458.73,237.47,467,232.53,474c-3,4.22-3.43,8.52-.66,12.86,3.42,5.34,8.85,5.36,13.85,3.63C251.05,488.67,256,485.59,259.94,483.6Zm201.28-37.51c4.87-9,16.69-18.73,7.1-28.43-8.56-8.66-16.73,4.77-25.16,8.15a3.06,3.06,0,0,0-1.29,1.13c-5.59,8.26-17.54,17.57-9.12,26.65C442.27,463.86,452.1,452,461.22,446.09ZM407.53,634c-9.19,9.37-16.84,17.18-7.82,26,8.63,8.41,16.88,1.43,23.88-5,2.54-2.31,5.45-4.59,7-7.51,4-7.41,11.68-16.85,6.17-23.4-6.91-8.22-15.33,1-22.43,5.15A61,61,0,0,0,407.53,634Z"/><path class="cls-4" d="M115.8,433.26c6.62-8.19,11.84-6.91,17,1.84,21.8,36.93,47.2,71.38,73.55,105.14,2.79,3.57,6.42,6.49,9.66,9.71,40.15,46.68,82.51,91.2,130.22,130.3,39.11,32.06,79.38,62.57,123.29,87.93a9.93,9.93,0,0,1,1,2.14c-5.77,7.77-11.62,4.32-17.9.47-28.59-17.5-55.61-37.3-83.29-56.13-59.13-40.24-108.48-91.46-155.51-143.82C176.47,529.26,140.94,484.47,115.8,433.26Z"/><path class="cls-8" d="M533.8,360.21c-46.65,9.53-93.27,19.26-140,28.54-70.46,14-141.22,26.11-212.7,33.77-4.49.48-8.9,1.65-13.35,2.5-1.87-1.26-5.14-2.31-5.37-3.82-1-6.92,5-4.75,8.24-5.24,24-3.55,48.06-6.45,72-10.18,95.86-14.93,190.52-35.88,285.1-57.19,9.81-2.21,15.86-2.92,11.76,10Z"/><path class="cls-9" d="M469.53,768.18c-43.91-25.36-84.18-55.87-123.29-87.93C298.53,641.15,256.17,596.63,216,550c.93-.82,1.86-1.64,2.8-2.45,71.74,81.25,152.4,152.06,244.43,209.64C467,759.51,474.45,760.55,469.53,768.18Z"/><path class="cls-10" d="M201.56,503.64C261,580.05,329.72,647.09,406.88,705.84c-16.14-4.24-27.12-15.73-39.06-25.46A1108.33,1108.33,0,0,1,196.08,505.57c-1-1.29-1.33-3.12-2-4.7Z"/><path class="cls-3" d="M196.56,474.63c14.67,18,30.09,35.53,43.8,54.28,11.81,16.14,28.43,28.11,38.33,45.74-20.78-10.75-35.84-28.68-49-46.48-11-14.87-22-30.09-32.53-45.48A7.89,7.89,0,0,1,196.56,474.63Z"/><path class="cls-10" d="M169.43,468.54l-36.27-52.33,5.23-3.56,40.54,61.08Z"/><path class="cls-3" d="M165.41,428.68c11.87,11.68,18.8,26.66,27.11,40.71C176.77,460.3,162.94,449.92,165.41,428.68Z"/><path class="cls-10" d="M474.34,751.57c-16.27-4.35-28.38-15.39-41.16-25.34C449.56,730.4,461.16,742.25,474.34,751.57Z"/><path class="cls-9" d="M169.43,468.54l9.5,5.19,22.63,29.91-7.44-2.77Z"/><path class="cls-3" d="M533.8,360.21l5.72-1.67c2.16,3.9,1.83,7.37-1.79,10.28Z"/><path class="cls-3" d="M535.14,376.82l-.54-.86s.8-.51.81-.5S535.14,376.82,535.14,376.82Z"/><path class="cls-3" d="M358,455.38c-4.36,3.4-8.15,7.08-12.59,9.61-4.79,2.72-10,2.5-14.45-1.47s-4.68-9.46-2.23-14.28c5.07-10,12.47-18.08,23.14-22.24,5.19-2,11.6-5.37,16.11-.26,4.24,4.8,1.52,11.14-1.19,16.21C364.42,447.46,360.92,451.38,358,455.38ZM337.76,457c10.64-4.49,17.76-10,21.95-22.44C347.16,438.53,339.24,443.21,337.76,457Z"/><path class="cls-3" d="M340.63,532.86c8.4-7.76,19.72-19.52,28.67-9.38,6.3,7.14-3.08,21.1-11.76,29.3a36.22,36.22,0,0,1-5.57,4.08c-6.92,4.4-15.15,10.09-21.67,2.25-6.25-7.52.31-15,5.47-21.34C337.22,536,339,534.49,340.63,532.86Zm-.42,18.55c13.62-5.68,13.62-5.68,17.57-19.39C346.93,534.63,340.58,539.46,340.21,551.41Z"/><path class="cls-3" d="M454.41,550.08c-9.33,8.75-20.13,18.4-28.22,10-8.51-8.86.17-20.7,9-27.86,8.15-6.64,19.27-18.32,28.12-8.71S458.45,542.65,454.41,550.08Zm.6-19c-11.8,4.51-18.43,9.91-21.38,21.53C445.15,549.45,452.53,544.78,455,531.12Z"/><path class="cls-3" d="M259.94,483.6c-4,2-8.89,5.07-14.22,6.91-5,1.73-10.43,1.71-13.85-3.63-2.77-4.34-2.32-8.64.66-12.86,4.94-7,8.43-15.29,17.26-18.6,7.19-2.68,15.47-10.89,21.8-3.46,5.44,6.38-.64,15.1-4.83,22C265,476.86,262.8,479.56,259.94,483.6Zm3.11-25.31c-11.87,5.61-20,10.68-22,23.87C253.39,479.23,260.35,473.1,263.05,458.29Z"/><path class="cls-3" d="M461.22,446.09c-9.12,5.94-19,17.77-28.47,7.5-8.42-9.08,3.53-18.39,9.12-26.65a3.06,3.06,0,0,1,1.29-1.13c8.43-3.38,16.6-16.81,25.16-8.15C477.91,427.36,466.09,437.09,461.22,446.09ZM462.35,425c-12.49,5.64-19,10.4-21,22.43C451.41,443.63,456.88,437.78,462.35,425Z"/><path class="cls-3" d="M407.53,634a61,61,0,0,1,6.82-4.73c7.1-4.1,15.52-13.37,22.43-5.15,5.51,6.55-2.18,16-6.17,23.4-1.57,2.92-4.48,5.2-7,7.51-7,6.38-15.25,13.36-23.88,5C390.69,651.18,398.34,643.37,407.53,634Zm19.82-3c-10.22,4.75-17,9.48-20.08,17.91-.95,2.55,1.75,4,4.29,3.46C421.32,650.29,425.34,643.27,427.35,631Z"/><path class="cls-11" d="M337.76,457c1.48-13.78,9.4-18.46,21.95-22.44C355.52,447,348.4,452.5,337.76,457Z"/><path class="cls-11" d="M340.21,551.41c.37-11.95,6.72-16.78,17.57-19.39C353.83,545.73,353.83,545.73,340.21,551.41Z"/><path class="cls-11" d="M455,531.12c-2.48,13.66-9.86,18.33-21.38,21.53C436.58,541,443.21,535.63,455,531.12Z"/><path class="cls-11" d="M263.05,458.29c-2.7,14.81-9.66,20.94-22,23.87C243,469,251.18,463.9,263.05,458.29Z"/><path class="cls-11" d="M462.35,425c-5.47,12.77-10.94,18.62-21,22.43C443.33,435.41,449.86,430.65,462.35,425Z"/><path class="cls-11" d="M427.35,631c-2,12.29-6,19.31-15.79,21.37-2.54.53-5.24-.91-4.29-3.46C410.4,640.46,417.13,635.73,427.35,631Z"/></svg>