<svg id="Capa_1" data-name="Capa 1" xmlns="http://www.w3.org/2000/svg" viewBox="0 0 667.71 1024"><defs><style>.cls-1{fill:#e2ddda;}.cls-2{fill:#6c4e36;}.cls-3{fill:#c1d06b;}.cls-4{fill:#645522;}.cls-5{fill:#a56888;}.cls-6{fill:#e1c7cc;}.cls-7{fill:#b267a3;}.cls-8{fill:#e1d8ca;}.cls-9{fill:#cfac99;}</style></defs><path class="cls-1" d="M352.94,205.68l-5.53,4.42.09-.08c-22.52,14.85-31.67,37.4-35.41,65.72-14.51-19.17-26.91-36.4-41.69-51.72-7-7.22-10.47-6.9-16.52,1-6.37,8.34-1.49,11.31,4.08,16,36.47,30.5,66.83,64.76,73,114.85,1.24,10.07-1.7,13.32-10.55,14.25-23.27,2.45-41,14.48-55.44,32.19-6.88-10.71-18.86-14.41-28.87-20.76-4.47-2.83-9.68-7.26-14.72-.34-5.73-2.57-11.31-5.53-17.21-7.63-33.52-11.94-63.56-5-87.94,20.11-23,23.61-30.07,52.52-18.51,84.12C109.83,510.9,134.2,529.3,169.27,533c6.82.73,13.8.11,22.45.11-2.21,4-3.09,5.83-4.14,7.52-36.41,59.11-3.15,125.06,65.94,129.59,14.35,1,9,6.18,5.43,13.14-15.87,31.23-11.52,66.24,11.18,92.29,22.46,25.77,57.13,34.65,90.16,23.07,13.49-4.73,25.06-12.88,36.76-20.77,3.21,5.2,8.52,6.44,11.05,1.26,3.31-6.79,9.1-11.12,13-17.2,14.87-23,13.38-46.65,5.49-71.59-3-9.55-6.75-14.72-16.83-14.2q-1.37-3.13-2.71-6.27c68.91-1.64,116.57-68.35,74.53-127.87-4.92-7-2.41-9,5-9,17.86.09,33.93-6.18,49.07-14.87C581.25,492.13,589,433.92,552,396.67c-39.74-40.06-96.33-38-132.44,4.91-4.37,5.19-8.75,12.18-15.31,3.64-16.55-21.56-38.54-32.59-65-35.89-4-.5-10.09-.12-9.81-5.41.38-7.09,1.87-14.84,5.44-20.78,2.4-4,7.32,1.4,10.72,3.19,18.42,9.66,37.21,16.92,58.55,11.42l6.34-1.25a42.09,42.09,0,0,0,23-10.67c8.31-2.89,14.29-9.29,21.25-14.21,10.05,2.4,15-5.32,21.41-10.51C487.37,312,488,303,475.94,294.53c-16.39-11.53-33.64-21.67-54.78-18.89-11.55,1.52-16.11-1.21-12.74-13.38,6.52-23.52,4.38-46.46-5.28-68.87-2.2-5.11-4.37-9.77-10.48-10.27-6.44-.52-9.16,4-11,9.26a4.81,4.81,0,0,0-2.93-.06c-7.6-.37-13,4-18.4,8.46l-.1.06c-3.45.21-5.8,2.07-7.47,5Z"/><path class="cls-2" d="M404.16,357.75c-21.34,5.5-40.13-1.76-58.55-11.42-3.4-1.79-8.32-7.19-10.72-3.19-3.57,5.94-5.06,13.69-5.44,20.78-.28,5.29,5.8,4.91,9.81,5.41,26.47,3.3,48.46,14.33,65,35.89,6.56,8.54,10.94,1.55,15.31-3.64,36.11-42.91,92.7-45,132.44-4.91,37,37.25,29.23,95.46-16.33,121.6-15.14,8.69-31.21,15-49.07,14.87-7.42,0-9.93,2-5,9,42,59.52-5.62,126.23-74.52,127.86-9.07.89-6.77,6.19-3.58,10.68,3.74,5.27,4.91,11.29,6.77,17.17,8.19,25.89.66,49.77-9.2,73.38q-2,3.39-4,6.78c-11.7,7.89-23.27,16-36.76,20.77-33,11.58-67.7,2.7-90.16-23.07-22.7-26.05-27-61.06-11.18-92.29,3.53-7,8.92-12.19-5.43-13.14-69.09-4.53-102.35-70.48-65.94-129.59,1-1.69,1.93-3.49,4.14-7.52-8.65,0-15.63.62-22.45-.11-35.07-3.74-59.44-22.14-71.56-55.23-11.56-31.6-4.44-60.51,18.51-84.12,24.38-25.09,54.42-32.05,87.94-20.11,5.9,2.1,11.48,5.06,17.21,7.63,6.65,5.91,15.33,9.33,20.69,16.83,1.25,5,1.63,10.43,3.94,14.86,4.31,8.28,9.4,9.74,13.35-.65l5.6-9.93c14.43-17.72,32.18-29.75,55.45-32.2,8.85-.93,11.79-4.18,10.55-14.25-6.16-50.09-36.52-84.35-73-114.85-5.57-4.66-10.45-7.63-4.08-16,6.05-7.93,9.56-8.25,16.52-1,14.78,15.32,27.18,32.55,41.69,51.72C315.83,247.42,325,224.87,347.5,210c-.26,7-7.84,11.72-6.29,19.36-17.21,21.35-18.44,45.26-12.84,71.05,3.2,14.72,8.67,15.63,18.82,6.42l.24,13.27c-8,6-7.64,10.37,1.64,15.34A125.36,125.36,0,0,0,388.32,349C390,358.42,400.2,352.43,404.16,357.75ZM151.77,516.12c.82,3.4,3.52,2.64,5.87,2.65,3.6.59,7.18,1.39,10.8,1.73,29.29,2.8,56-11.36,69.41-36.53,14.71-27.55,9.54-53.5-7.94-77.17-17.61-23.86-44.82-31.44-74.18-23-25.45,4.08-47.34,28.6-50.66,56.73-3.81,32.27,11.23,60.93,37.8,72.05l-.06-.07c2.06,3.84,5.15,5.37,9.44,4.14Zm194,273,7.24-2c5.26-.63,9.88-2.72,14.6-5.16,27.88-14.41,43.14-58,28.58-90-10.95-24.1-47.65-49-83.3-39.25-30.68,9.67-48.91,30.72-51.54,62.43-2.44,29.31,9.52,53,35.91,68.09,6.09,5.07,12.88,7.93,21,6.63l10.54,1.84c4.89.52,9.76.87,14.31-1.62A5.36,5.36,0,0,0,345.78,789.13Zm33.06-138.24c1.28,3.25,4,3.13,6.8,3,16.36,6.1,32.65,5,48.7-1,32-11.9,55.49-49.34,40.23-91.19-11.05-30.3-49.65-51.53-80.81-42.52-3.21-.31-6.48-.8-8.63,2.52l.27-.21C362.05,527.75,346,545.46,343.32,568c-7,12.27-6.72,24.68-.69,37.2,2.36,23.07,15.1,37.89,36.44,45.88ZM448,506.13a7.85,7.85,0,0,0,6.25,5.64c4.73,2,7.57,6.86,13.21,7.86,26.79,4.77,68.8-4.51,82.53-41.18,9.7-25.92,8.66-49.75-8.69-70.52-16.74-20.05-38.65-31.61-66.37-25.4-2.88-2.34-5.58-2.81-7.92.74l.27-.19c-23.89,4.2-37.66,20.28-47.77,40.66-5.25,14.81-9.81,29.62-.26,44.51.08,2.6-.23,5.29.32,7.79,3.45,15.57,17.48,30.47,28.66,30.7Zm-213.8,14.68c-27.39,7-42.59,26.2-48.65,52.15-6.18,26.42,1.34,50.17,22.16,68.12,11.6,10,23.95,20.37,41.48,16.31,24.46,3.45,44.87-5.49,59.89-23.71,20.32-24.65,22.13-58.75,6.87-82C297.64,523.94,267.94,512.71,234.17,520.81Zm71.13-6.28c22.9,18.08,64.35,1.79,77.86-14.63,21-25.53,25.08-60.14,10.18-84.23-17.74-28.68-44.64-39.14-81-31.5-4.48-1.41-8.24.88-11.84,2.72-41.65,21.27-45.93,66.35-30.61,99.09C276.45,500,287.09,513,305.3,514.53ZM269,505.33c-5.25-6.9-6.9-17-14-17s-9.37,9.53-13.54,17Zm130.81-.66h22.73c-3.92-5.74-5.23-13.06-11.46-13.32C404.61,491.07,402.28,497.49,399.76,504.67ZM341.47,635.15c-1.73-4.38-4-9.25-8.7-10.22-4.46-.91-5.53,4.31-6.23,7.55-1.38,6.39,4,6.21,8,6.65C337.45,639.46,341,639.93,341.47,635.15Zm-3.37-92.53c-1.68-5.59-7-6.61-11.73-8-2.74-.83-5.45.59-4.63,3.93,1.35,5.53,4.26,10.93,10.11,11.89C334.86,550.9,337.83,547.09,338.1,542.62Z"/><path class="cls-3" d="M381.63,192.38c1.87-5.25,4.59-9.78,11-9.26,6.11.5,8.28,5.16,10.48,10.27,9.66,22.41,11.8,45.35,5.28,68.87-3.37,12.17,1.19,14.9,12.74,13.38,21.14-2.78,38.39,7.36,54.78,18.89,12,8.46,11.43,17.47.21,26.58-6.39,5.19-11.36,12.91-21.41,10.52,12.62-16.68,12.43-18.05-5.37-29.23-19.55-12.27-41.09-17.08-64-16.64l-.06-.05C399,254,396.49,223,381.63,192.38Z"/><path class="cls-4" d="M385.4,285.76c22.88-.44,44.42,4.37,64,16.64,17.8,11.18,18,12.55,5.37,29.23-7,4.91-12.94,11.31-21.26,14.2-8.85,1-18.6,0-23,10.67l-6.34,1.25c-4-5.32-14.18.67-15.84-8.79a65,65,0,0,0,22.86-5.3c13.05-2.09,22.45-10.41,32.14-18.44,7.1-5.89,5.23-9.32-1.64-14-30-20.29-61.34-17.49-91.13,8.75a11.65,11.65,0,0,1-3.12.12l-.24-13.27,3.58-5.34c24.64-12.49,32.37-34.14,32-59.88-.17-12,.18-29.46-9.49-32.76-10.81-3.68-21.3,9.85-29.25,19.67a12.71,12.71,0,0,1-2.84.84c-1.55-7.64,6-12.31,6.29-19.36l-.09.08c2.92-.13,5.18-1.08,5.53-4.42l-.21.13c4.37,1.16,6.8-.58,7.47-5l.1-.06c7.61.39,15.23.8,18.4-8.46a4.81,4.81,0,0,1,2.93.06C396.49,223,399,254,385.34,285.71a4.1,4.1,0,0,0-1.14.59c-.15.15,0,.6,0,.92Z"/><path class="cls-5" d="M409.79,676.26c15.14,27.2,19.4,54.78,2.82,83.07-2.86,4.89-5,10.51-11.52,11.87,9.85-23.6,17.38-47.48,9.19-73.37-1.86-5.88-3-11.9-6.77-17.17-3.19-4.49-5.49-9.79,3.58-10.68Q408.43,673.13,409.79,676.26Z"/><path class="cls-6" d="M242.06,398c-5.36-7.5-14-10.92-20.69-16.83,5-6.92,10.25-2.49,14.72.34,10,6.35,22,10.05,28.86,20.77l-5.6,9.93C251.07,410.58,250.19,399.9,242.06,398Z"/><path class="cls-2" d="M410.5,356.5c4.38-10.63,14.13-9.68,23-10.67A42,42,0,0,1,410.5,356.5Z"/><path class="cls-2" d="M378.7,192.32c-3.17,9.26-10.79,8.85-18.4,8.46C365.68,196.31,371.1,192,378.7,192.32Z"/><path class="cls-2" d="M360.2,200.84c-.67,4.39-3.1,6.13-7.47,5C354.4,202.91,356.75,201.05,360.2,200.84Z"/><path class="cls-2" d="M352.94,205.68c-.35,3.34-2.61,4.29-5.53,4.42Z"/><path class="cls-7" d="M155.73,383.8c29.36-8.44,56.57-.86,74.18,23,17.48,23.67,22.65,49.62,7.94,77.17-13.44,25.17-40.12,39.33-69.41,36.53-3.62-.34-7.2-1.14-10.79-1.73q-2.93-1.34-5.88-2.65l.47.53c-2.23-3.47-5.18-5.3-9.43-4.14l.06.07c.46-7.39-6.12-10.59-9.71-15.32-9.06-11.95-15-24.5-16.24-39.85C114.29,424.34,130.09,401.63,155.73,383.8Z"/><path class="cls-7" d="M393.76,519.22c31.16-9,69.76,12.22,80.81,42.52,15.26,41.85-8.28,79.29-40.23,91.19-16,6-32.34,7.06-48.7,1a7.67,7.67,0,0,0-6.8-3l.23.18c-10.23-14.72-23.53-27.49-28-45.86-2.32-9.59-5.62,1.54-8.47,0-6-12.52-6.27-24.93.69-37.2,3.19-.42,7.38,9.46,8.91,1,3.81-21.36,21.18-32.32,33.17-47.41l-.27.21Zm44.9,116.28c5.15-4.48,9.08-11,11.7-18.21,1.18-3.24-1.07-7.15-4.51-6.45-9.13,1.86-9.85,11-13.08,17.66C431.22,631.71,433,634.52,438.66,635.5Z"/><path class="cls-7" d="M312.34,384.17c36.36-7.64,63.26,2.82,81,31.5,14.9,24.09,10.83,58.7-10.18,84.23-13.51,16.42-55,32.71-77.85,14.64-7.39-13.57-22.7-21.54-26.85-37.32C268.23,438.38,272.76,412.61,312.34,384.17Z"/><path class="cls-7" d="M234.17,520.81c33.77-8.1,63.47,3.13,81.75,30.91,15.26,23.21,13.45,57.31-6.87,82-15,18.22-35.43,27.16-59.88,23.71-43.38-18.17-61.07-60-43.83-102.34C211.34,540.3,224.26,532,234.17,520.81Z"/><path class="cls-7" d="M312.9,652.69c35.65-9.76,72.35,15.15,83.3,39.25,14.56,32-.7,75.62-28.58,90-4.72,2.44-9.34,4.53-14.58,5.15-2.75-.55-5.47-1-7.26,2a5.36,5.36,0,0,1-2.66.93c-4.83,0-9.77-.87-14.33,1.62l-10.52-1.83c-6.08-5.37-12.61-10-20.66-12C263,739.62,268.8,697.94,293.33,669.7,299.23,662.92,309.52,661.86,312.9,652.69ZM354.65,772c12-1.68,8.68-13.58,13.15-20.26,1.58-2.37-1.78-6.64-5.17-5.78-9.4,2.39-10.41,11.89-13.79,19C347.07,768.67,350.31,771.59,354.65,772Z"/><path class="cls-7" d="M474.9,382.53c27.72-6.21,49.63,5.35,66.37,25.4,17.35,20.77,18.39,44.6,8.69,70.52-13.73,36.67-55.74,45.95-82.53,41.18-5.64-1-8.48-5.83-13.21-7.86-.38-3.77-2.92-5.13-6.25-5.64l.23.61c-.62-2-.7-4.42-1.94-5.85-19.83-22.79-20.88-48.63-13-76.17,5.4-18.81,21.15-29,33.95-41.64l-.27.19Zm54.36,78c-8.38,3.69-13.35,10.37-14.37,19.74-.47,4.35,1.44,10.18,6,8.68,9.11-3,11.59-12.47,14.38-20.67C536.62,464.34,534.14,461.4,529.26,460.51Z"/><path class="cls-6" d="M234.17,520.81c-9.91,11.15-22.83,19.49-28.83,34.24-17.24,42.34.45,84.17,43.83,102.34-17.54,4.06-29.89-6.31-41.49-16.31-20.82-18-28.34-41.7-22.16-68.12C191.58,547,206.78,527.76,234.17,520.81Z"/><path class="cls-6" d="M312.34,384.17c-39.58,28.44-44.11,54.21-33.88,93.05,4.15,15.78,19.46,23.75,26.85,37.32C287.09,513,276.45,500,269.89,486c-15.32-32.74-11-77.82,30.61-99.09C304.1,385.05,307.86,382.76,312.34,384.17Z"/><path class="cls-6" d="M312.9,652.69c-3.38,9.17-13.67,10.23-19.57,17C268.8,697.94,263,739.62,297.6,777.86l-.33,5.35c-26.39-15.09-38.35-38.78-35.91-68.09C264,683.41,282.22,662.36,312.9,652.69Z"/><path class="cls-6" d="M155.73,383.8c-25.64,17.83-41.44,40.54-38.81,73.61,1.22,15.35,7.18,27.9,16.24,39.85,3.59,4.73,10.17,7.93,9.71,15.32-26.57-11.12-41.61-39.78-37.8-72.05C108.39,412.4,130.28,387.88,155.73,383.8Z"/><path class="cls-6" d="M467.25,383.08c-12.8,12.67-28.55,22.83-33.95,41.64-7.92,27.54-6.87,53.38,13,76.17,1.24,1.43,1.32,3.87,1.94,5.85C437,506.51,423,491.61,419.54,476c-.55-2.5-.24-5.19-.32-7.79,8.3-14.78,2.2-29.66.26-44.51C429.59,403.36,443.36,387.28,467.25,383.08Z"/><path class="cls-8" d="M350.77,301.51l-3.58,5.34c-10.15,9.21-15.62,8.3-18.82-6.42-5.6-25.79-4.37-49.7,12.84-71.05a13,13,0,0,0,2.85-.84c-.72,4.05-1.71,8.07-2.12,12.16C339.83,261.68,335.58,283,350.77,301.51Z"/><path class="cls-8" d="M411.18,343.66a65,65,0,0,1-22.86,5.3,125.36,125.36,0,0,1-39.25-13.5c-9.28-5-9.66-9.3-1.64-15.34a12.08,12.08,0,0,0,3.12-.11C367.45,336.38,387.72,344.1,411.18,343.66Z"/><path class="cls-6" d="M385.4,521.53c-12,15.09-29.36,26.05-33.17,47.41-1.53,8.51-5.72-1.37-8.91-1C346,545.46,362.05,527.75,385.4,521.53Z"/><path class="cls-6" d="M342.63,605.19c2.85,1.56,6.15-9.57,8.47,0,4.44,18.37,17.74,31.14,28,45.86C357.73,643.08,345,628.26,342.63,605.19Z"/><path class="cls-6" d="M269,505.33H241.44c4.17-7.46,6.61-17,13.54-17S263.7,498.43,269,505.33Z"/><path class="cls-5" d="M419.48,423.74c1.94,14.85,8,29.73-.26,44.51C409.67,453.36,414.23,438.55,419.48,423.74Z"/><path class="cls-6" d="M399.76,504.67c2.52-7.18,4.85-13.6,11.27-13.32,6.23.26,7.54,7.58,11.46,13.32Z"/><path class="cls-5" d="M242.06,398c8.13,1.86,9,12.54,17.29,14.21-4,10.39-9,8.93-13.35.65C243.69,408.47,243.31,403,242.06,398Z"/><path class="cls-9" d="M341.47,635.15c-.43,4.78-4,4.31-7,4-4-.44-9.34-.26-8-6.65.7-3.24,1.77-8.46,6.23-7.55C337.45,625.9,339.74,630.77,341.47,635.15Z"/><path class="cls-5" d="M338.1,542.62c-.27,4.47-3.24,8.28-6.25,7.78-5.85-1-8.76-6.36-10.11-11.89-.82-3.34,1.89-4.76,4.63-3.93C331.09,536,336.42,537,338.1,542.62Z"/><path class="cls-9" d="M297.27,783.21l.33-5.35c8.06,2,14.59,6.62,20.67,12C310.15,791.14,303.36,788.28,297.27,783.21Z"/><path class="cls-9" d="M328.79,791.68c4.56-2.49,9.5-1.66,14.33-1.62C338.55,792.55,333.68,792.2,328.79,791.68Z"/><path class="cls-9" d="M345.78,789.13c1.79-3,4.51-2.56,7.26-2Z"/><path class="cls-6" d="M393.76,519.22l-8.63,2.52C387.28,518.42,390.55,518.91,393.76,519.22Z"/><path class="cls-6" d="M448,506.13c3.33.51,5.87,1.87,6.25,5.64A7.85,7.85,0,0,1,448,506.13Z"/><path class="cls-6" d="M142.81,512.51c4.25-1.16,7.2.67,9.43,4.14C148,517.88,144.87,516.35,142.81,512.51Z"/><path class="cls-6" d="M151.77,516.12q3,1.32,5.88,2.65C155.29,518.76,152.59,519.52,151.77,516.12Z"/><path class="cls-6" d="M474.9,382.53l-7.92.74C469.32,379.72,472,380.19,474.9,382.53Z"/><path class="cls-6" d="M378.84,650.89a7.67,7.67,0,0,1,6.8,3C382.88,654,380.12,654.14,378.84,650.89Z"/><path class="cls-3" d="M411.18,343.66c-23.46.44-43.73-7.28-60.63-23.65,29.79-26.25,61.16-29.05,91.13-8.76,6.87,4.65,8.74,8.08,1.64,14C433.63,333.25,424.23,341.57,411.18,343.66Z"/><path class="cls-3" d="M350.77,301.51c-15.19-18.49-10.94-39.83-8.83-60.81.41-4.09,1.4-8.11,2.12-12.16,7.94-9.82,18.43-23.35,29.24-19.67,9.67,3.3,9.32,20.71,9.49,32.76C383.14,267.37,375.41,289,350.77,301.51Z"/><path class="cls-3" d="M385.4,285.76l-1.19,1.46c0-.32-.16-.77,0-.92a4.1,4.1,0,0,1,1.14-.59Z"/><path class="cls-1" d="M438.66,635.5c-5.62-1-7.44-3.79-5.89-7,3.23-6.68,4-15.8,13.08-17.66,3.44-.7,5.69,3.21,4.51,6.45C447.74,624.5,443.81,631,438.66,635.5Z"/><path class="cls-6" d="M354.65,772c-4.34-.45-7.58-3.37-5.81-7.09,3.38-7.06,4.39-16.56,13.79-19,3.39-.86,6.75,3.41,5.17,5.78C363.33,758.46,366.68,770.36,354.65,772Z"/><path class="cls-6" d="M529.26,460.51c4.88.89,7.36,3.83,6,7.75-2.79,8.2-5.27,17.67-14.38,20.67-4.58,1.5-6.49-4.33-6-8.68C515.91,470.88,520.88,464.2,529.26,460.51Z"/></svg>