<svg id="Capa_1" data-name="Capa 1" xmlns="http://www.w3.org/2000/svg" viewBox="0 0 482.12 589.6"><defs><style>.cls-1{fill:#1f1916;}.cls-2{fill:#efb7be;}.cls-3{fill:#f2b6be;}.cls-4{fill:#e8b7be;}.cls-5{fill:#daafb7;}.cls-6{fill:#f1d5aa;}.cls-7{fill:#ad8048;}.cls-8{fill:#eb9e9d;}.cls-9{fill:#ac804a;}.cls-10{fill:#eed3a9;}.cls-11{fill:#ebd1ab;}.cls-12{fill:#dfc7aa;}.cls-13{fill:#cf9796;}.cls-14{fill:#bdad92;}.cls-15{fill:#191510;}</style></defs><path class="cls-1" d="M355,777.77a85.76,85.76,0,0,1-33.24,1.3l-2.23-.41-3.38-.66c-5.43-3.38-12.24-4-17.1-8.52-6.13-5.65-10.59-7.71-20.52-3.44-21.5,9.26-43.72,5-63.9-7.14-8.16-4.91-14.15-11.73-14.77-21.76-.29-4.69-3.31-4.24-6.17-4-19.56,1.25-37.82-3.3-55.17-12.09l.1.13-2.07-1.38.11.07-1.77-1.22a.75.75,0,0,0-1-.52l-8.54-6.28c-14.67-12.61-24.69-27.67-25.09-47.77a45.44,45.44,0,0,1,2.09-15.12c8.12-24.92,30.86-32.78,52.48-18,3.93,2.68,7.55,5.82,12.11,9.38,5.55-27.92,19.15-50.41,38.31-69.71,2.9-2.92,1.73-4.18-1-6-7.21-4.78-13.85-10.2-19.06-17.28-7.65-10.39-10.63-21.7-7.2-34.3a21.3,21.3,0,0,0-.29-11.9c-7-24.38-6.1-47.83,7.57-70.06,4-6.6,4.63-14.38,4.32-21.95-.68-17.06,2.33-32.76,15-45.31,1.85-1.84,2.12-3.19-.09-5.24-17.77-16.44-21.05-38.72-24-61a139.11,139.11,0,0,1-.73-19.38c.07-10.92,3.13-13.81,14.27-13.48,20.89.62,38.68,8.93,53.83,22.87,3.78,3.47,5.81,3.85,9.63.31a92.7,92.7,0,0,1,14.93-11c3.62-2.2,4.1-4,2.08-7.63-11.12-20.22-16.1-42.1-17.29-65-.66-12.75,2.89-16.22,15.15-12.13,32.07,10.72,61.86,25.32,83.64,52.55,1,1.23,2.13,2.34,3.7,4.06,2.05-6.07,3.7-11.62,5.79-17,3-7.62,8.64-10.59,16.73-9.09,12.32,2.28,22.9,7.68,31.37,17a241.66,241.66,0,0,1,24,31.49c2.3,3.57,4.41,5.13,9,4.56,12.23-1.53,18.65,2.93,22.54,14.62,2.93,8.8,3.7,18,3.9,27.12.09,4.4,1,6.54,5.86,7.64,18.14,4.11,34.15,13,49.09,23.81a36.6,36.6,0,0,1,5.94,5.46c6.56,7.46,6,13.34-2.13,18.85A110.36,110.36,0,0,1,517,381.64c-6.68,3.16-7.89,6.92-3.49,13.17,7.44,10.57,14.41,21.48,21.48,32.3a62.36,62.36,0,0,1,4.66,8.48c4.94,11.08,2.25,17-9.35,21-12.31,4.21-13.55,4.54-12.45,16.91,3.42,38.12-12.42,69.13-34.34,98.23A197,197,0,0,1,463.67,594c-3.15,3.08-4.53,5.62-2.11,9.67a19.11,19.11,0,0,1,2.13,6.06c2.16,11.27,4.74,20.54,18.22,25.44,11.42,4.14,15.66,17.06,17.38,29.31,1.79,12.79-.78,25.2-3.48,37.59L490,715.55c9.06-2.67,16.61-3.92,20.64-11.61,12.57-6.42,25.93-33.82,23-47-.47-2.15-1.48-3-3.56-3.65-17.35-5.2-25.39-18.69-28.46-35-4.18-22.22-.94-43.37,13.47-61.88,4.41-5.66,8.65-6.11,14.29-1.65,16.79,13.29,30.72,28.58,36.61,49.82,4.81,17.37-1.8,36.71-16.47,47.16-3,2.11-4.52,4.37-4.59,7.85-.37,18-7.81,33.25-18.7,47.1-9.61,10.4-21.15,17.77-35.35,19.12-6.24.59-10.13,2.82-14.13,7.26-8.75,9.73-19.67,16.59-33.09,16.12-10.36-.37-19.85.75-29.53,4.71-10.49,4.29-21.83,1.65-32.82,1.31-2.81-.09-6-1.41-7.42,2.68C370.59,767.34,363.44,773.22,355,777.77ZM243.52,471l-.05,0,11.19-.91,4.59-.46L287,470.9,293.4,472l17.82,3.82c13.52,4.74,26.5,10.47,38,19.2,29.22,22.11,27.81,54.83-3.32,74.17a79,79,0,0,1-16,7.68c-31.38,10.89-62.95,10.52-94.6,1.42-19.18-5.51-19.3-5.8-31.71,10.08-16.12,20.64-27.8,43.22-26.36,70.34,1.05,19.91,4.83,39.1,19.83,54.12,4.17,4.17,6.33,5.4,8.83-1.67,5.19-14.72,11.27-29.13,17.07-43.63,1.26-3.15,3.15-6.18,7.21-4.38,3.47,1.54,3,4.73,2,7.7-1.87,5.34-3.85,10.64-5.75,16-5.05,14.19-11.25,28-14.77,42.71-1.9,8,.23,13.94,7.24,18.79,12.87,8.89,27.1,11.31,42.27,10.72,16.77-.65,22.42-6.35,21.18-23.13-1.47-19.89-1-39.9-3.72-59.72-.47-3.51-1-7.47,3.92-8.28,4.74-.78,6,2.73,6.5,6.43.94,7.44,1.64,14.92,2.48,22.37.16,1.45-.58,3.52,1.79,3.8s2.19-2.17,2.56-3.33c1.7-5.38,3.57-10.68,4.61-16.31.77-4.15,3.05-9.39,8.7-8,5.82,1.47,3.25,6.3,2.29,10.1-.33,1.3-.81,2.57-1.18,3.86-4.72,16.59-9,33.28-11.07,50.45s2,23.55,18.54,28.78a59.33,59.33,0,0,0,24.75,2.5c13.59-1.51,20.21-7.71,22.54-21.25,2.4-13.86-1-27.37-3-40.91-1.24-8.51-3.58-16.85-5.35-25.28-.73-3.5-1.5-7.51,3.07-8.78,5-1.41,6.35,2.69,7.53,6.39.33,1,.49,2.1.76,3.14C372,697,374.39,712.47,376.41,728c0,4,.07,8.06,0,12.09-.05,2.5.74,4.06,3.47,4.45,11,1.6,22,1.72,32.8-1.55,2.73-.83,4.21-1.87,3.71-5-3.16-19.73-.29-39.15,3.17-58.53.14-.77.29-1.53.43-2.29,4.39-11.5,8.8-23,16.36-32.9l-.09.08L438,642.4l3-2.91,10-6.77a.87.87,0,0,0,1.06-.39c3.13-.28,5.06-1.73,4.37-5.13-1.35-6.67-1.87-13.6-5.74-19.54a.83.83,0,0,0-.38-1.06c-.36-.86-.73-1.71-1.1-2.57a61.76,61.76,0,0,0-2.53-5.91c-6.33-11.46-15.62-20.53-24.46-30-4.32-4.59-5.08-8.25,1-12.33,39.71-26.77,49.26-65.83,44.24-110.48-2.65-23.56-10.9-45.45-21.35-66.58-2.07-4.2-3.65-8.4.07-12.76,17.83-20.91,18.06-45.19,12.76-70.23-2-9.38-5.44-11.07-14.59-8.47-20.41,5.8-36.56,17.87-49.78,34.22-2.23,2.75-2.15,5.84-2.53,9.07-4,34.83-21.87,60.18-53,75.92-10.4,5.25-16.43,2.19-20.76-8.79-2.77-7-2.75-14.56-3.87-22.8L306,381c-19.14,13.89-40.41,22.5-63.95,25-12.81,1.35-16.77-1.31-21.92-13a105.73,105.73,0,0,1-.89-23.65c.08-1.24,1.18-3.51-1.4-3.43-.93,0-1.82,1.66-2.72,2.57a1.16,1.16,0,0,0-1.06,1,33.9,33.9,0,0,0-10,15.07l0,0c-3.68,4.87-3.05,10.65-3.37,16.22-.67,11.49,0,23.16-4.6,34.13l0-.05a24.56,24.56,0,0,0-5,9.73c-9,16.06-8,32.71-3.24,51.23,12.16-11.67,26.14-17.48,40.8-21.93l1.68-.29,4.82-1.22C238.08,472.5,240.94,472.6,243.52,471ZM196,542.64l2.1,2.4c2.89,4.2,7,7,11.17,9.71,30.58,18,63.45,22.82,98.11,16.79,14.2-2.48,27.64-7.09,39.12-16.23,15.55-12.39,17.07-29.32,4-44.31a59.35,59.35,0,0,0-17-13.47c-35.9-19-73.34-21.72-111.84-9.65-10.52,3.3-20.32,8.59-27.18,17.89a10.06,10.06,0,0,0-4.4,7l-.67,2.21C185,525.77,188.6,534.66,196,542.64ZM230.15,376.5c0,1.89-.06,3.78,0,5.66.38,11.85,2.52,14,14,12.39A121.3,121.3,0,0,0,298.44,373c8.84-6.31,16.28-14.08,23.56-22.05,2.49-2.72,4.74-6.78,9.24-4,4.8,2.94,2.21,7,.77,10.77-1,2.51-2.14,4.94-3.08,7.47a41.45,41.45,0,0,0-1.12,26.16c1.57,5.64,4.37,7,9.34,4.06,24-14,39.77-33.94,43.36-61.82a44.35,44.35,0,0,1,11.86-25.77A135.24,135.24,0,0,1,415,288.3c4.48-3.08,12.52-3.43,12.89-9.46.32-5.27-5.53-9.51-8.72-14.16-7.06-10.25-14.45-20.35-25.57-26.55-14.6-8.14-18.73-6-21.44,10.44-.44,2.64-.38,5.37-.84,8-.86,5,3.1,12-3.62,14.42-7.67,2.8-9.95-5.19-13-9.61-19.46-28.51-47.54-44.66-78.87-56.51-6-2.27-7.58-.81-7,5.4,1.88,21.53,7.79,41.82,18.54,60.55,3.22,5.62,2,8.56-3.29,11.59C247.68,303.17,231.41,335.57,230.15,376.5Zm223.52,211c1.74-1.46,3.21-2.57,4.53-3.82,9.82-9.35,17.76-20.22,25.33-31.38,16-23.56,25.92-48.7,22.88-78.07-1-9.1-.15-19,10.14-24.58,4.48-2.44,12.43-.73,13.13-7.23.59-5.47-4.89-9.89-7.6-14.82-.77-1.42-1.78-2.7-2.66-4.06-6-9.26-12.5-18.24-17.84-27.87-4.71-8.48-3-13.89,4.35-19.79a69,69,0,0,1,15.25-9.07c5.28-2.37,5.61-4.77.84-8.32-13.09-9.73-27.41-16.94-42.67-22.61-6.19-2.29-8.2-.27-9.14,5.42-1.55,9.41-4.64,18.41-10.45,26-3.53,4.61-3.32,8.5-.9,13.25a181.37,181.37,0,0,1,18,54.23c7.72,48.82,1.18,93.1-41.73,125.09-3.62,2.7-2.4,4.51.09,7,5.57,5.47,11.21,10.91,15.63,17.42C451.6,585.28,452.54,586.17,453.67,587.48Zm-28,130c-.1,2.15-.26,4.3-.3,6.45-.23,11.14,1.52,13.18,12.44,14.36,11.21,1.21,20.46-3,28.63-10.35,9.71-8.73,15.84-19.66,19.19-32.08,3.39-12.58,5.17-25.4.65-38.13-6.54-18.44-24.06-22.57-38.26-9.25-6.44,6-10.52,13.51-13.67,21.61C428.42,685.32,426.62,701.31,425.66,717.46Zm-236.22,3.17c-14.51-14.94-21.11-32.69-21.95-51.8-.68-15.36-9.19-23.47-20.86-29.89-16.66-9.18-30-2.82-34.52,15.85-1.09,4.52-.91,9-.58,13.63C113.81,699.78,160.16,726.42,189.44,720.63ZM556.61,614.86c-.14-1.18-.2-2.81-.53-4.38-4-19-16.07-32.36-30.25-44.38-3.74-3.16-4.63.4-5.8,2.45-9.24,16.2-11.18,33.48-6.6,51.38,2.16,8.46,6.42,16,14.12,20.87,8.56,5.43,15.66,4.25,21.79-3.71C554.25,630.7,556.42,623.31,556.61,614.86Zm-328.69-286c4.85-9.74,9.57-18.49,15.7-26.35,1.76-2.26,1.13-3.75-.74-5.45-13.12-11.92-28.28-19.34-46-21.15-4.91-.5-7,1.41-6.41,6.41,1.1,9.62,1.35,19.38,3.19,28.84,2.5,12.92,5.52,26,15.08,35.94,2.62,2.73,4.82,8,10.42,4.27,5.24-3.45,3.62-7.52,1.49-11.94-4.93-10.19-10.22-20.14-17.49-28.92-2.19-2.65-3.76-5.68-.31-8.4,3.13-2.47,5.58-.2,7.61,2a58.85,58.85,0,0,1,4.91,6.39C219.43,316.4,223.45,322.34,227.92,328.86Z" transform="translate(-95.91 -190.5)"/><path class="cls-2" d="M355,777.77c8.48-4.55,15.63-10.43,19-19.87,1.44-4.09,4.61-2.77,7.42-2.68,11,.34,22.33,3,32.82-1.31,9.68-4,19.17-5.08,29.53-4.71,13.42.47,24.34-6.39,33.09-16.12,4-4.44,7.89-6.67,14.13-7.26,14.2-1.35,25.74-8.72,35.35-19.12,5.89,4.16,13,4.79,19.63,6.69A83.53,83.53,0,0,1,571.42,725c9,6.31,8.77,14.86-.39,21.31-13.51,9.53-29.18,13.43-44.89,17a595.43,595.43,0,0,1-100.29,13.56c-20.91,1.08-41.76,3.27-62.74,2.9C360.32,779.71,357.07,780.88,355,777.77Z" transform="translate(-95.91 -190.5)"/><path class="cls-3" d="M133.85,718.08a.75.75,0,0,1,1,.52l1.77,1.22-.11-.07,2.07,1.38-.1-.13c-.5,3.74,2.39,4.37,4.89,5.27,1.82.64,4.38,1.39,3.52,3.53-3.46,8.57,2,4.33,4.58,3.15,2.05-.94,3.78-2,6-.91,9.84,4.73,20.37,4.28,30.84,4,3.56-.1,7.2.51,7.56,4.29.86,9,8,13,13.41,18.41-.11.2-.22.4-.34.6l.34-.6c1.7,1.66,3.3,3.44,5.13,5,2,1.69,5.25,3.1,3.91,6.18s-4.57,1.27-7.13,1.18c-5.11-.17-9.36-4.68-14.41-3.44-8.31,2-15.82-.78-23.56-2.6-9.43-2.22-18.79-5.18-28.69-3l-8.09-1.67c-.72-4.25-4-2.93-6.64-3.1-2.71-.34-5.73.8-8-1.7.25-3.78-1.09-6.15-5.24-6.57-6.35-.63-10.43-4.92-14.61-9.19-3.09-3.15-3.15-5.64-.07-8.89C110.64,721.65,121.69,718.55,133.85,718.08Z" transform="translate(-95.91 -190.5)"/><path class="cls-4" d="M144.54,762c9.9-2.14,19.26.82,28.69,3,7.74,1.82,15.25,4.64,23.56,2.6,5.05-1.24,9.3,3.27,14.41,3.44,2.56.09,5.75,2,7.13-1.18s-1.88-4.49-3.91-6.18c-1.83-1.52-3.43-3.3-5.13-5h0c-5.42-5.42-12.55-9.4-13.41-18.41-.36-3.78-4-4.39-7.56-4.29-10.47.27-21,.72-30.84-4-2.23-1.07-4,0-6,.91-2.55,1.18-8,5.42-4.58-3.15.86-2.14-1.7-2.89-3.52-3.53-2.5-.9-5.39-1.53-4.89-5.27,17.35,8.79,35.61,13.34,55.17,12.09,2.86-.19,5.88-.64,6.17,4,.62,10,6.61,16.85,14.77,21.76C234.77,771,257,775.3,278.49,766c9.93-4.27,14.39-2.21,20.52,3.44,4.86,4.49,11.67,5.14,17.1,8.52-2.28,2.82-5.47,1.75-8.29,1.73-44-.32-87.83-3.36-131.27-10.94C165.78,766.91,154.82,766.12,144.54,762Z" transform="translate(-95.91 -190.5)"/><path class="cls-4" d="M133.85,718.08c-12.16.47-23.21,3.57-31.93,12.79-3.08,3.25-3,5.74.07,8.89,4.18,4.27,8.26,8.56,14.61,9.19,4.15.42,5.49,2.79,5.24,6.57-7.59-.69-13.52-5.07-19.36-9.25-8.82-6.32-8.66-15.19-.13-22,5.56-4.42,12.63-5.7,18.71-9.08,1.69-.93,3.31-1.68,4.25-3.43Z" transform="translate(-95.91 -190.5)"/><path class="cls-5" d="M510.63,703.94c-4,7.69-11.58,8.94-20.64,11.61l5.82-13.46Z" transform="translate(-95.91 -190.5)"/><path class="cls-4" d="M129.81,757.22c2.61.17,5.92-1.15,6.64,3.1C133.67,760.5,131.28,759.84,129.81,757.22Z" transform="translate(-95.91 -190.5)"/><path class="cls-4" d="M319.49,778.66l2.23.41A1.54,1.54,0,0,1,319.49,778.66Z" transform="translate(-95.91 -190.5)"/><path class="cls-6" d="M452.06,632.33a.87.87,0,0,1-1.06.39c-4.81.09-9.49.36-10,6.77l-3,2.91-1.72,1.91.09-.08c-3.63-.89-6.49.53-8,3.68-4.3,9.28-9.3,18.42-8.41,29.22-.14.76-.29,1.52-.43,2.29a3.69,3.69,0,0,0-3.22,3.1,148,148,0,0,0-3.71,43.55c.44,7-1.67,12.16-6.5,16.06-3.15,2.54-22.41.18-24.18-1.9-1.37-1.6-.91-3.54-1.14-5.37-.38-3-.87-5.92-4.4-6.89-2-15.5-4.4-30.94-8.34-46.09-.27-1-.43-2.12-.76-3.14-1.18-3.7-2.49-7.8-7.53-6.39-4.57,1.27-3.8,5.28-3.07,8.78,1.77,8.43,4.11,16.77,5.35,25.28,2,13.54,5.37,27.05,3,40.91-2.33,13.54-8.95,19.74-22.54,21.25a59.33,59.33,0,0,1-24.75-2.5c-16.51-5.23-20.63-11.68-18.54-28.78s6.35-33.86,11.07-50.45c.37-1.29.85-2.56,1.18-3.86,1-3.8,3.53-8.63-2.29-10.1-5.65-1.42-7.93,3.82-8.7,8-1,5.63-2.91,10.93-4.61,16.31-.37,1.16-.16,3.61-2.56,3.33s-1.63-2.35-1.79-3.8c-.84-7.45-1.54-14.93-2.48-22.37-.47-3.7-1.76-7.21-6.5-6.43-4.9.81-4.39,4.77-3.92,8.28,2.68,19.82,2.25,39.83,3.72,59.72,1.24,16.78-4.41,22.48-21.18,23.13-15.17.59-29.4-1.83-42.27-10.72-7-4.85-9.14-10.83-7.24-18.79,3.52-14.73,9.72-28.52,14.77-42.71,1.9-5.32,3.88-10.62,5.75-16,1-3,1.52-6.16-2-7.7-4.06-1.8-5.95,1.23-7.21,4.38-5.8,14.5-11.88,28.91-17.07,43.63-2.5,7.07-4.66,5.84-8.83,1.67-15-15-18.78-34.21-19.83-54.12-1.44-27.12,10.24-49.7,26.36-70.34,12.41-15.88,12.53-15.59,31.71-10.08,31.65,9.1,63.22,9.47,94.6-1.42a79,79,0,0,0,16-7.68c31.13-19.34,32.54-52.06,3.32-74.17-11.53-8.73-24.51-14.46-38-19.2-5.32-4.16-11.35-5-17.82-3.82L287,470.9c-9.16-2.17-18.32-4.31-27.72-1.28l-4.59.46c-3.87-1.4-7.65-1.76-11.19.91l.05,0c-2.94-.51-5.87-1-8.31,1.41l-4.82,1.22c-.7-.72-1.25-.55-1.68.29-14.66,4.45-28.64,10.26-40.8,21.93-4.76-18.52-5.71-35.17,3.24-51.23,6.89-.55,4.81-5.74,5-9.73l0,.05c5.78-.25,6-5.29,6.3-8.78,1-13.83,1.18-27.71,1.67-41.57l0,0c5.75-2.32,10.94-10.15,10-15.07a1.16,1.16,0,0,1,1.06-1c3.78,5,1.57,10.81,2.29,16.23.38,2.9-1.57,6.64,2.72,8.28,5.15,11.64,9.11,14.3,21.92,13,23.54-2.48,44.81-11.09,63.95-25l8.34-6.05c1.12,8.24,1.1,15.77,3.87,22.8,4.33,11,10.36,14,20.76,8.79,31.18-15.74,49-41.09,53-75.92.38-3.23.3-6.32,2.53-9.07,13.22-16.35,29.37-28.42,49.78-34.22,9.15-2.6,12.61-.91,14.59,8.47,5.3,25,5.07,49.32-12.76,70.23-3.72,4.36-2.14,8.56-.07,12.76,10.45,21.13,18.7,43,21.35,66.58,5,44.65-4.53,83.71-44.24,110.48-6.06,4.08-5.3,7.74-1,12.33,8.84,9.42,18.13,18.49,24.46,30a61.76,61.76,0,0,1,2.53,5.91c.37.86.74,1.71,1.1,2.57a.83.83,0,0,1,.38,1.06C451.18,615.88,452.94,624,452.06,632.33ZM333.42,454.47c-.12,6.17,1,11.92,6.83,15.33,3.48,2.05,7.14,1.58,10.67-.56,9.22-5.57,14.76-23.14,10.32-33-3.69-8.23-11.45-10-18.36-4C336.17,438,333.65,445.79,333.42,454.47ZM254,433.7c-.1-.75-.3-2.88-.67-5-1-5.93-3.33-11-10.19-11.69s-10.22,3.73-12.8,9.06a29.62,29.62,0,0,0-1.45,22c2.75,9.14,12.57,11.21,18.91,4.13C252.14,447.35,253.53,441.38,254,433.7Zm174.6-117.59a20.79,20.79,0,0,0-2.19.68c-9.37,3.84-22.68,32.43-19.65,42.09.73,2.32,2.15,3.68,4.58,3.78s4.44-1.12,4.73-3.48c1.65-13.59,7.75-24.89,17-34.72a4.64,4.64,0,0,0,.4-6A5.15,5.15,0,0,0,428.62,316.11Z" transform="translate(-95.91 -190.5)"/><path class="cls-7" d="M230.15,376.5c1.26-40.93,17.53-73.33,53.92-94.08,5.3-3,6.51-6,3.29-11.59-10.75-18.73-16.66-39-18.54-60.55-.55-6.21,1-7.67,7-5.4,31.33,11.85,59.41,28,78.87,56.51,3,4.42,5.29,12.41,13,9.61,6.72-2.44,2.76-9.46,3.62-14.42.46-2.64.4-5.37.84-8,2.71-16.41,6.84-18.58,21.44-10.44,11.12,6.2,18.51,16.3,25.57,26.55,3.19,4.65,9,8.89,8.72,14.16-.37,6-8.41,6.38-12.89,9.46a135.24,135.24,0,0,0-22.61,19.48,44.35,44.35,0,0,0-11.86,25.77c-3.59,27.88-19.41,47.86-43.36,61.82-5,2.9-7.77,1.58-9.34-4.06a41.45,41.45,0,0,1,1.12-26.16c.94-2.53,2.11-5,3.08-7.47,1.44-3.72,4-7.83-.77-10.77-4.5-2.76-6.75,1.3-9.24,4-7.28,8-14.72,15.74-23.56,22.05a121.3,121.3,0,0,1-54.3,21.57c-11.46,1.63-13.6-.54-14-12.39C230.09,380.28,230.15,378.39,230.15,376.5Z" transform="translate(-95.91 -190.5)"/><path class="cls-8" d="M189.42,515c.23-.73.45-1.47.67-2.21,4.26-.58,4.8-3.5,4.4-7,6.86-9.3,16.66-14.59,27.18-17.89,38.5-12.07,75.94-9.36,111.84,9.65a59.35,59.35,0,0,1,17,13.47c13.08,15,11.56,31.92-4,44.31-11.48,9.14-24.92,13.75-39.12,16.23-34.66,6-67.53,1.21-98.11-16.79-.27-7.2-5.23-9-11.17-9.71l-2.1-2.4a10.69,10.69,0,0,0-1.46-8.47C190.19,528.3,189.9,521.7,189.42,515Zm38.81,5c.59,5.6.28,10.29,5.31,12.22,3.5,1.34,6.49-.17,8.33-3.15,4-6.54,6.15-13.64,5.1-21.45-.59-4.35-3.41-6.73-7.41-7.39-4.57-.76-7,2.38-8.19,6.16C229.91,511.28,229.06,516.32,228.23,520Zm76.39-.8c-.07-4-.43-8.16-5.39-9.4-4.43-1.1-8,.88-10.19,4.75a27.17,27.17,0,0,0-3.42,16.34c.39,3.7,1.94,6.82,5.95,7.71,3.64.81,6.21-1.18,8.21-3.93C303.08,530.18,303.86,524.84,304.62,519.23Z" transform="translate(-95.91 -190.5)"/><path class="cls-9" d="M453.67,587.48c-1.13-1.31-2.07-2.2-2.79-3.25-4.42-6.51-10.06-12-15.63-17.42-2.49-2.45-3.71-4.26-.09-7,42.91-32,49.45-76.27,41.73-125.09a181.37,181.37,0,0,0-18-54.23c-2.42-4.75-2.63-8.64.9-13.25,5.81-7.59,8.9-16.59,10.45-26,.94-5.69,3-7.71,9.14-5.42,15.26,5.67,29.58,12.88,42.67,22.61,4.77,3.55,4.44,5.95-.84,8.32a69,69,0,0,0-15.25,9.07c-7.33,5.9-9.06,11.31-4.35,19.79,5.34,9.63,11.84,18.61,17.84,27.87.88,1.36,1.89,2.64,2.66,4.06,2.71,4.93,8.19,9.35,7.6,14.82-.7,6.5-8.65,4.79-13.13,7.23-10.29,5.59-11.09,15.48-10.14,24.58,3,29.37-6.89,54.51-22.88,78.07-7.57,11.16-15.51,22-25.33,31.38C456.88,584.91,455.41,586,453.67,587.48Z" transform="translate(-95.91 -190.5)"/><path class="cls-10" d="M425.66,717.46c1-16.15,2.76-32.14,8.68-47.39,3.15-8.1,7.23-15.56,13.67-21.61,14.2-13.32,31.72-9.19,38.26,9.25,4.52,12.73,2.74,25.55-.65,38.13-3.35,12.42-9.48,23.35-19.19,32.08-8.17,7.35-17.42,11.56-28.63,10.35-10.92-1.18-12.67-3.22-12.44-14.36C425.4,721.76,425.56,719.61,425.66,717.46Z" transform="translate(-95.91 -190.5)"/><path class="cls-10" d="M189.44,720.63c-29.28,5.79-75.63-20.85-77.91-52.21-.33-4.6-.51-9.11.58-13.63,4.48-18.67,17.86-25,34.52-15.85,11.67,6.42,20.18,14.53,20.86,29.89C168.33,687.94,174.93,705.69,189.44,720.63Z" transform="translate(-95.91 -190.5)"/><path class="cls-10" d="M556.61,614.86c-.19,8.45-2.36,15.84-7.27,22.23-6.13,8-13.23,9.14-21.79,3.71-7.7-4.88-12-12.41-14.12-20.87-4.58-17.9-2.64-35.18,6.6-51.38,1.17-2,2.06-5.61,5.8-2.45,14.18,12,26.28,25.43,30.25,44.38C556.41,612.05,556.47,613.68,556.61,614.86Z" transform="translate(-95.91 -190.5)"/><path class="cls-11" d="M227.92,328.86c-4.47-6.52-8.49-12.46-12.6-18.34a58.85,58.85,0,0,0-4.91-6.39c-2-2.22-4.48-4.49-7.61-2-3.45,2.72-1.88,5.75.31,8.4,7.27,8.78,12.56,18.73,17.49,28.92,2.13,4.42,3.75,8.49-1.49,11.94-5.6,3.69-7.8-1.54-10.42-4.27-9.56-10-12.58-23-15.08-35.94-1.84-9.46-2.09-19.22-3.19-28.84-.57-5,1.5-6.91,6.41-6.41,17.77,1.81,32.93,9.23,46,21.15,1.87,1.7,2.5,3.19.74,5.45C237.49,310.37,232.77,319.12,227.92,328.86Z" transform="translate(-95.91 -190.5)"/><path class="cls-12" d="M376.41,728c3.53,1,4,3.91,4.4,6.89.23,1.83-.23,3.77,1.14,5.37,1.77,2.08,21,4.44,24.18,1.9,4.83-3.9,6.94-9.06,6.5-16.06a148,148,0,0,1,3.71-43.55,3.69,3.69,0,0,1,3.22-3.1c-3.46,19.38-6.33,38.8-3.17,58.53.5,3.14-1,4.18-3.71,5-10.83,3.27-21.76,3.15-32.8,1.55-2.73-.39-3.52-2-3.47-4.45C376.48,736,376.41,732,376.41,728Z" transform="translate(-95.91 -190.5)"/><path class="cls-12" d="M204.12,384.56c-.49,13.86-.72,27.74-1.67,41.57-.25,3.49-.52,8.53-6.3,8.78,4.6-11,3.93-22.64,4.6-34.13C201.07,395.21,200.44,389.43,204.12,384.56Z" transform="translate(-95.91 -190.5)"/><path class="cls-12" d="M420,677.13c-.89-10.8,4.11-19.94,8.41-29.22,1.46-3.15,4.32-4.57,8-3.68C428.79,654.14,424.38,665.63,420,677.13Z" transform="translate(-95.91 -190.5)"/><path class="cls-13" d="M189.42,515c.48,6.72.77,13.32,5.14,19.19a10.69,10.69,0,0,1,1.46,8.47C188.6,534.66,185,525.77,189.42,515Z" transform="translate(-95.91 -190.5)"/><path class="cls-12" d="M452.06,632.33c.88-8.3-.88-16.45-1.37-24.67,3.87,5.94,4.39,12.87,5.74,19.54C457.12,630.6,455.19,632.05,452.06,632.33Z" transform="translate(-95.91 -190.5)"/><path class="cls-12" d="M214.06,369.51c1,4.92-4.22,12.75-10,15.07A33.9,33.9,0,0,1,214.06,369.51Z" transform="translate(-95.91 -190.5)"/><path class="cls-14" d="M259.25,469.62c9.4-3,18.56-.89,27.72,1.28Z" transform="translate(-95.91 -190.5)"/><path class="cls-12" d="M220.13,393c-4.29-1.64-2.34-5.38-2.72-8.28-.72-5.42,1.49-11.24-2.29-16.23.9-.91,1.79-2.55,2.72-2.57,2.58-.08,1.48,2.19,1.4,3.43A105.73,105.73,0,0,0,220.13,393Z" transform="translate(-95.91 -190.5)"/><path class="cls-13" d="M198.12,545c5.94.69,10.9,2.51,11.17,9.71C205.08,552.07,201,549.24,198.12,545Z" transform="translate(-95.91 -190.5)"/><path class="cls-14" d="M293.4,472c6.47-1.2,12.5-.34,17.82,3.82Z" transform="translate(-95.91 -190.5)"/><path class="cls-12" d="M441,639.49c.53-6.41,5.21-6.68,10-6.77Z" transform="translate(-95.91 -190.5)"/><path class="cls-12" d="M196.19,434.86c-.23,4,1.85,9.18-5,9.73A24.56,24.56,0,0,1,196.19,434.86Z" transform="translate(-95.91 -190.5)"/><path class="cls-13" d="M194.49,505.77c.4,3.5-.14,6.42-4.4,7A10.06,10.06,0,0,1,194.49,505.77Z" transform="translate(-95.91 -190.5)"/><path class="cls-14" d="M243.47,471c3.54-2.67,7.32-2.31,11.19-.91Z" transform="translate(-95.91 -190.5)"/><path class="cls-14" d="M235.21,472.38c2.44-2.38,5.37-1.92,8.31-1.41C240.94,472.6,238.08,472.5,235.21,472.38Z" transform="translate(-95.91 -190.5)"/><path class="cls-12" d="M450.31,606.6c-.36-.86-.73-1.71-1.1-2.57C449.58,604.89,450,605.74,450.31,606.6Z" transform="translate(-95.91 -190.5)"/><path class="cls-14" d="M228.71,473.89c.43-.84,1-1,1.68-.29Z" transform="translate(-95.91 -190.5)"/><path class="cls-4" d="M136.62,719.82l-1.77-1.22Z" transform="translate(-95.91 -190.5)"/><path class="cls-4" d="M138.58,721.13l-2.07-1.38Z" transform="translate(-95.91 -190.5)"/><path class="cls-12" d="M436.26,644.31,438,642.4Z" transform="translate(-95.91 -190.5)"/><path class="cls-4" d="M209.29,758.75l-.34.6c.12-.2.23-.4.34-.6Z" transform="translate(-95.91 -190.5)"/><path class="cls-15" d="M333.42,454.47c.23-8.68,2.75-16.47,9.46-22.3,6.91-6,14.67-4.19,18.36,4,4.44,9.89-1.1,27.46-10.32,33-3.53,2.14-7.19,2.61-10.67.56C334.46,466.39,333.3,460.64,333.42,454.47Z" transform="translate(-95.91 -190.5)"/><path class="cls-1" d="M254,433.7c-.49,7.68-1.88,13.65-6.2,18.49-6.34,7.08-16.16,5-18.91-4.13a29.62,29.62,0,0,1,1.45-22c2.58-5.33,6.06-9.75,12.8-9.06s9.15,5.76,10.19,11.69C253.72,430.82,253.92,433,254,433.7Z" transform="translate(-95.91 -190.5)"/><path class="cls-1" d="M428.62,316.11a5.15,5.15,0,0,1,4.91,2.37,4.64,4.64,0,0,1-.4,6c-9.29,9.83-15.39,21.13-17,34.72-.29,2.36-2.28,3.58-4.73,3.48s-3.85-1.46-4.58-3.78c-3-9.66,10.28-38.25,19.65-42.09A20.79,20.79,0,0,1,428.62,316.11Z" transform="translate(-95.91 -190.5)"/><path class="cls-1" d="M228.23,520c.83-3.71,1.68-8.75,3.14-13.61,1.15-3.78,3.62-6.92,8.19-6.16,4,.66,6.82,3,7.41,7.39,1.05,7.81-1.07,14.91-5.1,21.45-1.84,3-4.83,4.49-8.33,3.15C228.51,530.32,228.82,525.63,228.23,520Z" transform="translate(-95.91 -190.5)"/><path class="cls-1" d="M304.62,519.23c-.76,5.61-1.54,10.95-4.84,15.47-2,2.75-4.57,4.74-8.21,3.93-4-.89-5.56-4-5.95-7.71A27.17,27.17,0,0,1,289,514.58c2.17-3.87,5.76-5.85,10.19-4.75C304.19,511.07,304.55,515.27,304.62,519.23Z" transform="translate(-95.91 -190.5)"/></svg>