<svg id="Capa_1" data-name="Capa 1" xmlns="http://www.w3.org/2000/svg" viewBox="0 0 667.71 1024"><defs><style>.cls-1{fill:#1f1916;}.cls-2{fill:#efb7be;}.cls-3{fill:#ef9e9e;}.cls-4{fill:#e99e9c;}.cls-5{fill:#e6747b;}</style></defs><path class="cls-1" d="M144.74,658.82A73,73,0,0,1,141.48,634c.16-5.19-1.49-8-6.26-10.38-16-8-29.61-18.84-37.49-35.52-4-8.58-6.79-17.64-4.58-27.11,1.73-7.38,1-14.37-.17-21.66-2.87-17.21,2.58-32.38,12.51-46.2,2.57-3.58,6-7.15,10.54-3.69,4.73,3.63,1.38,7.37-1.25,10.89a55.43,55.43,0,0,0-10.86,30.73c-.34,6.14.4,8.18,7.24,4.65,18.27-9.44,41.81,2.5,45.55,22.46,3.36,17.89-11,31.31-28.63,26.81-8.79-2.23-15.62-7.64-22.83-15.17,0,8.58,3.5,14.44,7.21,20.09,6.68,10.17,16.38,17,26.47,23.45,3.19,2,4.76,1.6,6.17-2.12a48.28,48.28,0,0,1,19.58-23.84,7.61,7.61,0,0,0,3.71-5.28c5.79-28.94,19.35-54.09,37.73-76.88,2.28-2.83,5.68-5.14.81-9.44-28-24.73-39.7-57-41.85-93.39-1.34-22.72-1.27-45.33,8.11-66.73,1.86-4.24.14-5.23-3.61-6.06a50.45,50.45,0,0,1-12-4c-15.8-8-19.81-18.34-13.62-34.88,9.24-24.68,23.72-45.59,45.27-61.15,25.8-18.63,53-15,72.46,10,3.67,4.71,6.29,5,11.75,3C315.76,227,359.09,219,404,228.88c8.73,1.93,15.42,1.82,23.58-2.91,31.19-18.08,63.29-10.16,94.9,14.55,11.55,9,20.59,20.24,23.54,35.25,2.47,12.59-1.62,21.38-13,27.5a73.86,73.86,0,0,1-19.83,7.29c-4.18.88-5.58,2.6-4.18,7,5.71,18.1,5.87,36.79,5.13,55.51a44.59,44.59,0,0,0,3.46,19c17.82,43.36,1.24,90.82-40.19,113.33-7.4,4-8.66,6.36-4,13.9,11.09,17.92,15,38.24,16.58,59,.27,3.55.82,7.08,1.34,11.48,3.88-2.21,6.92-4.13,10.12-5.73,26.21-13.09,48.87-.13,51.06,29.14A138.67,138.67,0,0,1,548,660.36a14.09,14.09,0,0,0-.91,1.41C531.53,694,501.79,703.91,470.65,687c-4.28-2.33-4.41-.46-5.09,2.87-2.72,13.31-9.19,23.9-23.05,27.76a97.13,97.13,0,0,1-37.8,3.12c-11.51-1.36-22.38-3.85-29.64-14-2.36-3.31-3.72-2-5.45.74-4.06,6.36-10.36,9.36-17.53,10.84-15.38,3.16-30.86,3.91-46.36,1.22-8.81-1.52-17-4.47-22.26-12.49-1.59-2.44-3.75-3.06-6.52-2.93-20.86,1-39.54-5.58-56.63-17.07-3.51-2.36-6.12-2.64-9.83-.38-8.51,5.16-17.76,7.21-27.66,4.59C165,686.46,152.88,675,144.74,658.82Zm84.61,20.6-.08-.06a4,4,0,0,0,3.47,1.89l3.44,1.59A63.27,63.27,0,0,0,260,691c22.69,3.1,18.37,3,18.87-17,.13-1.13.25-2.26.38-3.4,2.85-16.26,6.94-32.14,14.07-47.14,2.51-5.28,5.5-7.73,10.88-3.53.54,4.13-1.32,7.66-2.64,11.39-6.82,19.27-12.19,38.78-10.81,59.61.54,8.19,4,13.14,11.9,15.37,15.36,4.37,30.7,3.31,46.17.55,8.59-1.54,12.48-6.35,13.71-14.72,3.6-24.55-2.95-47.67-9.33-70.85.15-1.12.3-2.24.44-3.36l.31-.62c5.86-4.33,9.13-1.79,11.44,4.1,1.27,3.24,1.18,7.16,4.59,9.82,1.7-4.76,3.15-9.32,5-13.74,1.13-2.76,3.28-5,6.58-3.88s3.72,4,3.06,7c-.41,1.92-1,3.8-1.6,5.69-6.32,21-6.46,42.19-2.27,63.57,1.58,8.06,5.38,14.26,13.65,16.67,9.8,2.86,19.76,4.25,29.92,1.87,23.19-.86,32.16-10.78,30.28-33.81-1.58-19.4-6.51-37.82-16-55-2.47-4.45-8.51-10.55-.93-14.48,6.91-3.59,8.48,4.48,11,8.72,8.2,13.86,12.71,29.18,16.23,46.55,10.48-16.67,13.87-33.26,14.27-50.65.61-26.28-.73-52.28-11.83-76.77-.17-4.7-3.49-8-5.19-12.08-2.55-6.06-6.42-7-11.65-3.26-1.4-.12-2.81-.27-3.56,1.34a57.77,57.77,0,0,0-5.75,1.31,282,282,0,0,1-108.56,14.38c-11.61-.74-23.14-2.54-33.95-6.81-6.26-2.46-14-5.14-10.75-15l-.09.23c3.32-1.57,6.42-1.68,9.47.82,3.82,3.12,8.46,4.43,13.19,5.43C357,529.1,401.85,522.11,445.84,506l.66.1.48-.46c18.3-5.15,35.72-13,47.49-27.95,17.95-22.83,23.9-49.26,13.82-77.29-4.12-11.48-6.41-22.65-5.9-34.73.78-18.77.14-37.43-8.69-54.69-16.2-31.65-43.36-51.61-74.85-64.74-48.4-20.19-96.23-7.05-143.51,7.05-3.07.92-5,2.84-2.84,6.34.3,1,.6,2.09.89,3.14,0,2.5.07,5,1.8,7.06l-.1-.09c.5,9.51,1.13,19-.15,28.53l.13-.06c-6.43,16.93-20,24.44-36.76,27.4a310.29,310.29,0,0,1-46.3,5c-4.64.11-6.74,2-7.14,6.37l0,.18-1,2.07a1,1,0,0,0-.36,1.27,30.21,30.21,0,0,0-4,13.62h.24c-5,17.18-3.82,34.71-2.46,52.13,2.29,29.3,11.18,55.9,33.4,76.6a1.36,1.36,0,0,0,1.06,1l9.18,8.7,2.07,4.77c-.34,4.29-2.3,7.85-4.75,11.31-4.15,5.84-9.48,10.85-12.48,17.51l-2.3,3.13a33.87,33.87,0,0,0-6.74,11.48l0,.13c-.41.74-.82,1.48-1.22,2.23h0a37.69,37.69,0,0,0-7.16,15.18c-1.49,1.32-1.8,3.11-1.93,5-2.72,4.35-3.45,9.43-5.24,14.1-1.9,5-.79,7.11,4.76,7.35,13.23.57,24.18,6.43,33.66,15.38a.78.78,0,0,0,.52.66c16.15,21.73,18.84,44.89,7.4,69.55l0,0c-1.42,2.5-6.33,4.74-.58,7.78l.25.11ZM187.71,319.69c4.92-.32,8.32-.44,11.69-.78,15.19-1.55,30.5-2.5,45.2-7,14.21-4.36,19.62-12.16,19.52-27a73,73,0,0,0-4.19-25c-10.8-29.39-38.81-38.92-63.36-21.08-20.48,14.89-34.54,34.71-42.69,58.78-2.17,6.4-.44,10.79,4.56,14.82C167.61,319.8,178.72,318.41,187.71,319.69Zm-7.88,276.38c-7-2.33-11.91,1.7-16.33,6.89-14.35,16.87-14.17,46.86.36,63.5,16.29,18.64,42.52,18.14,52.79-1.71C233.4,632.39,213.73,594.84,179.83,596.07ZM541,627.44c.3-6.5.44-13-1.15-19.38-3.06-12.32-10.42-18.12-21.47-17.15-14.32,1.25-27.23,11.57-27.76,22.47a119.43,119.43,0,0,1-13.11,49.52c-5.46,10.6-3.74,14.83,7.77,19.24,15.71,6,37.93-2.85,47.6-18.81C539.63,652.22,540.6,639.92,541,627.44ZM430,237.54c5.47,3.24,9.86,5.71,14.13,8.38,18.82,11.76,36.32,25.09,49.87,43,10.2,13.46,10.16,13.5,25.84,7.55,1.32-.5,2.62-1.06,3.92-1.63,11.47-5,14-10.55,9.33-22.16-6-15-17.8-24.58-31.2-32.38C479.05,227,455.68,222.29,430,237.54ZM126.52,544.29c-7.42,0-13.84,1.47-16.5,7.1-2.26,4.81,3.52,8.16,6.09,12a25.71,25.71,0,0,0,4.11,4.24c5.25,4.84,11.33,7.66,18.51,5.7,4.19-1.14,6.16-4.73,6.43-9,.5-8-4-13.17-10.19-17.24A17,17,0,0,0,126.52,544.29Z"/><path class="cls-2" d="M144.74,658.82c8.14,16.16,20.24,27.64,38.09,32.36,9.9,2.62,19.15.57,27.66-4.59,3.71-2.26,6.32-2,9.83.38C237.41,698.46,256.09,705,277,704c2.77-.13,4.93.49,6.52,2.93,5.23,8,13.45,11,22.26,12.49,15.5,2.69,31,1.94,46.36-1.22,7.17-1.48,13.47-4.48,17.53-10.84,1.73-2.7,3.09-4,5.45-.74,7.26,10.19,18.13,12.68,29.64,14a97.13,97.13,0,0,0,37.8-3.12c13.86-3.86,20.33-14.45,23.05-27.76.68-3.33.81-5.2,5.09-2.87,31.14,17,60.88,7.06,76.42-25.18a14.09,14.09,0,0,1,.91-1.41c15.92.38,29.48,7.33,41.73,16.45C600,684.45,599,695,588.42,702.66c-12.13,8.8-26.28,13.08-40.42,17.06-30.46,8.57-61.77,12.17-93.14,15.67-48.42,5.41-97,5.55-145.53,4.69-44.8-.79-89.53-4.19-133.62-12.32-22-4.07-44.25-8.8-64.61-19.24a49.88,49.88,0,0,1-7.15-4.34c-15.73-11.63-16-21,.49-31C116.73,665.75,130.2,660.51,144.74,658.82Z"/><path class="cls-3" d="M353.17,621.28c6.38,23.18,12.93,46.3,9.33,70.85-1.23,8.37-5.12,13.18-13.71,14.72-15.47,2.76-30.81,3.82-46.17-.55-7.85-2.23-11.36-7.18-11.9-15.37-1.38-20.83,4-40.34,10.81-59.61,1.32-3.73,3.18-7.26,2.64-11.39.12-4.69-.75-11.48-6.4-7.72-5.16,3.43-12.24,7.49-12.47,16.47a38.66,38.66,0,0,1-4.89,18.21c-4.54,7.56.53,15.9-3.58,23l2.39.67c-.13,1.14-.25,2.27-.38,3.4-5,1.47-4.29,6-5.1,9.62-.45,2,.59,5.5-2.74,5-2.94-.43-5.62-2.59-4.75-6.59.78-3.57,1.54-7.15,2.14-10.75.24-1.39,0-2.92-1.65-3.46s-2.61.49-3.14,1.94-1.16,3.18-1.61,4.81c-3.14,11.52-5.24,12.57-16.68,8.14-3.08-1.19-6.14-3.6-9.13.12l-3.44-1.59c-.54-1.76-1.88-2.06-3.47-1.89l.08.06a1.68,1.68,0,0,0-2.16-1.2l-.25-.12a14.68,14.68,0,0,0,.58-7.77l0,0c2.13.54,5-.46,6.32,1.68,4.24,6.88,10.75,2.56,16.15,3.57a1.89,1.89,0,0,0,2.37-1.77,3.45,3.45,0,0,0-1.79-2.51,121.9,121.9,0,0,0-12-4c-5-1.31-5.91-3.84-2.87-7.89,7.76-10.35,7.74-20.43.12-31.66a7.74,7.74,0,0,1-1.05-4.82c1.3-11.59.37-23-1.76-34.44-.39-2.1.66-4.82-2.23-5.74a3.89,3.89,0,0,0-3,1c-2,1.69-.52,3.62-.05,5.46,2.85,11.25,2.85,11.25-7.57,11.53a.78.78,0,0,1-.52-.66c2.68-4.51-2.2-7.06-2.89-10.77-1.1-6-6.77-2.15-11.3-3.52,3.83-3,6.68-5.15,9.51-7.36,1.09-.86,2.56-1.8,1.56-3.36a3.55,3.55,0,0,0-2.84-1.22c-9.2.79-8.3-4.39-7-10.74,2.38-11.52,4.87-23.23-3.22-33.83l2.3-3.13c5.07-2,9.88-3.35,15.33-.25,2.59,1.48,5.73,0,7.89-3.06,8-11.18,1.47-23.05,2.73-34.56-1.81,2.78-2.09,5.76-2.94,8.57-1.39,4.6-3.62,3-5.78.48l-2.07-4.77c-.1-3.79,1.34-6.31,5.16-7.73,2.19-.81,2.25-3.23.85-5s-3.26-1.1-4.43.18c-3,3.24-6.68,4-10.76,3.84a1.36,1.36,0,0,1-1.06-1c.64-3.36-1.16-5.66-2.84-8.41-5.5-9-13.8-16.34-16.82-26.93-.81-2.84-3.63-5.47-.45-8.44a4.75,4.75,0,0,1,4.77-.91c4,1.16,3.52,4.54,3.65,7.62.38,8.89.39,8.89,9.54,11-.63-4.19-2.89-7.78-2.88-12.18,0-14.69-.21-14.69-15.16-15.32-3.07-.13-6.38.48-6.78-4.23-.43-5,.67-10.13,1.5-14.82.51-2.86,6.36,1.34,10,.42a18.66,18.66,0,0,1,5.07-.06c4.47.14,8.55-1.46,8.55-6.14,0-6.75,3-14.05-2.25-20.21a3.5,3.5,0,0,0-2.37-.72c-3.95-.07-7.9-.14-11.85,0-3.4.1-4.88,2.1-5.24,5.42-.34,3.11,1.38,8.5-2.86,8.44-3.81-.06-2.92-5.82-3.79-9.11-.56-2.11,0-4.51-.18-6.74-.89-9.13,4.28-18.37-.53-27.41h-.23c5.63-3.29,7.4-7.7,4-13.62a1,1,0,0,1,.36-1.27l1-2.07,0-.18c5.53-.2,11-.57,16.57.45,2.3.42,5.91,1.19,6.94-1.53,2.37-6.26,7.35-5.08,12-5.12,5.07-.05,10.06-.74,15.09-1.27,6.2-.67,14.82-3.59,18.44,1.91,5.23,8,11.77,5.73,18.34,6.07,1.94.1,4.26.08,4.36-2.73.08-2.39-1.72-3.21-3.75-3.87-9.24-3-11.77-10.62-4.14-15.47s7-10.51,6.34-17.25l-.13.06c2.95-1.26,7.73-1.56,6.34-6.17-2.24-7.41-1.58-15.63-6.19-22.36l.1.09c.15-2.54.93-5.25-1.8-7.06-.29-1.05-.59-2.1-.89-3.14,2.24-.18,4.29-.37,6.32-1.88,8.09-6,17-8.43,27.06-5.5,2.81.83,5.32-.44,8.07-1.32,8.4-2.71,16.46-9.16,24.29-9.5,19.85-.85,39.84-2.21,59.93,1.83,9.09,1.83,12.83,10.13,21.44,11.6,3.52.6,1.46,4.78-1.59,6-3.5,1.35-7.24,2.12-10.87,3.14,5,3.11,9,5.79,15,.86,3.49-2.89,9.13-6.52,15.14-4,6.53,2.77,13.13,5.05,11.86,14.71-.47,3.55,2.05,7.52,3.34,11.26a3.81,3.81,0,0,0,3.81,2.83c1.65-.07,2.33-1.32,2.57-2.85.67-4.31,3.21-6.25,7.53-5.91-.42,4,9.65,5.55,2.55,11.4-2.21,1.82.1,3.37,2,4.26,12.74,6,12.75,6.14,1.46,15-.66.53-1.22,1.19-1.89,1.7-7.6,5.77-5.52,14.2-4.21,21.17,1.17,6.25,8.22,2,12.49,3.16a3.36,3.36,0,0,0,.84,0c13.15,0,13.07.09,13.31,13.28.21,12-5.71,23.64-1.78,35.81.48,1.5-.44,3.68,1.75,4.22.73.18,2-.72,2.63-1.48,1.26-1.55,1.25-5.17,4.5-3.28,2.21,1.28,1.17,4.11,1.32,6.3a10.16,10.16,0,0,1-2.25,7.14c-2.66,3.3-2.19,5.88-.64,9.87,2.66,6.84,3.6,15.84-.05,21.26-3.27,4.87-2.5,9.3-3.15,13.65-.6,4,2.61,8.15-2.81,11.72-2.66,1.75.33,3.62,2.86,3.83,5,.42,4.06,2.54,2.64,6.25-4.72,12.39-18.65,15-25.66,24.89a2.49,2.49,0,0,1-4.54-1.22c-1.28-9.49-7.13-8.11-13.74-6.6-3.17.72-7.67,2.42-8.67-3.42-.31-1.87,0-4.45-3-4-2.61.44-2,3.09-2.45,4.87-1.57,5.9-2.09,12-8.74,15.44-4.2,2.16-7.16,6.52-13.57,7.8,5.33,2.91,8.43.49,11.85-.19,5.91-1.18,12.37-4.66,17.56,1.86l-.48.46-.66-.1a38,38,0,0,0-19.58,3.6c-5.67,2.53-12.32,3-18.29-1.68-4-3.09-8.7-3.94-10.18,3-.71,3.31-3.29,4.13-5.56,4.3-13.58,1-26.17,8.3-40.32,6.07-5.24-.83-10.74.23-16.07-.21-13.41-1.1-26.29-4.1-37.66-11.83-5.22-3.55-9.28-2-10.44,3.89l.09-.23c-6.54,3.79-2,11.35-6.62,16.08,1.64.16,2.27.42,2.74.25,5.09-1.86,10.54-2.12,11.22,4.35.62,6-5.34,4.1-8.95,4.56-2.11.27-5.13-.57-5.2,2.75s2.7,4.12,5.41,4c11.21-.66,22.72,6.49,33.71-1.34.92-.65,2.94-.48,4.12,0,14.42,6.34,29.56,1.66,44.3,3,1.85.17,4.61.4,4.69-2.28.09-3.4-3-2.67-5.1-2.71-7.07-.11-14.16.13-21.22-.1C341.06,541.23,335,542.5,328,540c1.92-1,2.58-1.7,3.25-1.7,19.53-.1,39-.12,58.58-.18,4.25,0,6,2.14,6.25,6.27.27,4.95,3,6.62,7.44,4.32,5.64-2.91,11.53-2.74,17.36-1.38,6.28,1.46,8.93-.56,9.17-7,.51-13.73.87-13.91,14.84-14.11,1.3,0,2.61-.25,4.18-.41-.86-2.59-1.57-4.68-2.27-6.77.75-1.61,2.16-1.46,3.56-1.34,5.46,1.94,10.11,4.4,10.48,11.31.19,3.6,3.35,4.07,6.36,4,11.1,24.49,12.44,50.49,11.83,76.77-.4,17.39-3.79,34-14.27,50.65-3.52-17.37-8-32.69-16.23-46.55-2.51-4.24-4.08-12.31-11-8.72-7.58,3.93-1.54,10,.93,14.48,9.51,17.16,14.44,35.58,16,55,1.88,23-7.09,32.95-30.29,33.81-2.42-.7-4.82-1.93-7.25-2-6.21-.15-12.14-2.08-18.44-2-6.94,0-13.36-9.09-13.34-16.1,0-8.7-2.73-17.06-4.33-25.57-2.66-14.15,2.91-27.07,7.17-40.09,2.81-8.6,1.54-11.42-7.16-13-3.28-.59-5.5-1.28-7.28-4.57-2-3.72-16.74-5-18.24-1.52a25.55,25.55,0,0,0-1.45,13.79l-.31.62C352,618.84,351.77,620,353.17,621.28Zm78.5-146.13c1.44,0,2.71-.4,3.36-1.87l2-3.2,1.31-2.12,1.11-1.57c1.81.19,3.51-.14,4.29-1.95,2.53-5.85,8.05-6.69,13.24-7.81,10.51-2.26,15.5-10.87,11.94-20.93-.52-1.48-1.22-2.53-2.83-2.66-2-.16-3.34.72-3.57,2.73s-.12,4-.24,5.92c-.16,2.56-.16,5.67-3.71,5.45-2.81-.18-2.65-3-3.11-5.25-1.17-5.7-.14-12.14-3.85-17-2.78-3.61-5.76-6.28-1.43-10.56,3.07-3-.06-9.34,4.95-11,7.81-2.57,9.51-7,9.08-15.22-.56-10.52.68-21.19-.2-31.81-.16-2,.18-4.76-1.67-5.39-6.76-2.32-8.63-7.41-9.11-13.74a3.34,3.34,0,0,0-2.22-2.29c-6.9-.68-14.46-3.11-20.47,1.09s-13.39,9.71-5.42,18.78c.65.75,1.2,2.53.79,3.15-5.21,7.74-1.08,15.16.43,22.72.53,2.66,1.06,5.63-1.69,7.81-2.94,2.35-5.77,1-8.8.21-2.86-.79-3.51-3.3-5.15-5.1a7.17,7.17,0,0,0-10.62,0c-3.51,3.7,1.62,3.73,3.49,4.95.95.63,2.27,1.14,1.72,2.44-1.45,3.41-4.69,2.76-7.35,2.55-3.35-.26-10,1.33-9.09-2.88,2.32-10.29-2.41-3.84-5.25-3a30.17,30.17,0,0,1-15.89.13,24.15,24.15,0,0,0-13.3.19c-9.46,3-10.42,2-9.63-8.53,3.27-.37.81,6.85,5.24,4.25,2.81-1.66,2-5,1.3-7.79-3-11.1-13.43-11.15-21.64-14.52l-2-.8c-2-6.82-9-9.43-13.5-4.7A23.74,23.74,0,0,1,304,362.61c-5,1.59-7.28,6.4-2.44,9.4s4.31,6.54,4.46,10.63c.13,3.34-.71,6.83,1.5,9.87,2.64,3.64,2.69,6.56-2,8.75a4.18,4.18,0,0,0-2.09,5.09,3.79,3.79,0,0,0,4.08,2.47c5.26-.42,10.22,3,15.8.56,3.6-1.57,6.21,0,6.67,4.81.71,7.4,4.78,13.24.75,22.45-4.88,11.14.67,24.92,1,37.59.05,2.1,1.25,4,3.75,3.55,1.86-.33,2.65-2,2.67-3.86a9,9,0,0,0-.53-3.31c-.95-2.46-.53-5.07,1.59-6,3.14-1.33,3.65,2.25,4.15,4,2.46,8.35,8.6,12.8,16,16.19,2.1,1,6,.66,5.12,4.26-.63,2.67-3.82,2.92-6.39,3.13-3.34.28-7.34,1.33-5.33,5.31,3.36,6.61-1.61,4.54-4.25,4.87-6.33.78-13-1.44-19.07,2.41,17.13,1,34.23,1.06,51.33,1,2.29,0,6.16,1.16,6.14-2.43,0-3.91-4.07-3.7-7.1-4.32-3.76-.76-5.93,4.92-10.48,2,3.21-6.21,6.4-10.62,14.91-7.78,3.75,1.26,8.61,3.22,13,.46,4.59-2.9,8.69-1.3,12.59,1.35,2.36,1.6,4.63,3.3,7.51,3.74,1.41.21,2.93.11,3.63-1.42a2.2,2.2,0,0,0-1.62-3.26c-5.8-1.44-3.34-5.39-2.8-8.77l.25-.38.44.13c12.49,3.27,14.39,2,14.54-10Zm-113,33.39c-.23,1.65,10.65,8.78,13.06,8.7q18.39-.6,36.76-1.29c1.88-.07,4.61.44,4.76-2.23.2-3.48-3-2.75-5-2.77-9.62-.11-19.24,0-28.86-.1-4.91-.07-10,1.21-14-3.82C323.46,504.58,320.23,505.58,318.65,508.54ZM293.24,264.71c3.7-1.66,11.1,2.51,11.35-2.67.34-6.84-7.23-3.81-11.51-4.22s-11.27-.31-11.06,4C282.25,266.61,289.15,263.6,293.24,264.71Zm26.23,72.75c-2.38.66-5.59-1-7.58,1.73a3.62,3.62,0,0,0,.78,5.29c4.57,2.79,9.08-.59,13.65-.83,1.63-.08,2.07-2.64,1.09-4.22C325.54,336.4,322.33,338.05,319.47,337.46Zm-93.53-2c4.55,2.4,7.88,4.14,11.2,5.9,2.35,1.25,4.41,1.14,5.41-1.62a3.57,3.57,0,0,0-2.86-5.07A25.77,25.77,0,0,0,225.94,335.43Zm267.34,74c-3,10.45-2.66,16,.65,20.67A53.67,53.67,0,0,0,493.28,409.42ZM469,420.79c-.16-2.16-.73-4.22-3.13-4.33a4.39,4.39,0,0,0-4.55,4.08,4.28,4.28,0,0,0,4,4.65C468.15,425.56,468.88,423.16,469,420.79ZM280.94,504.6c3,1.39,5.38,2,7.32-.36a1.82,1.82,0,0,0-.71-2.82C284.9,500.48,282.82,501.56,280.94,504.6Zm117-4c3,2.25,5.15,2.5,7.56.08C403.24,498.38,401.08,498.7,398,500.56Z"/><path class="cls-3" d="M187.71,319.69c-9-1.28-20.1.11-29.27-7.26-5-4-6.73-8.42-4.56-14.82,8.15-24.07,22.21-43.89,42.69-58.78,24.55-17.84,52.56-8.31,63.36,21.08a73,73,0,0,1,4.19,25c.1,14.83-5.31,22.63-19.52,27-14.7,4.52-30,5.47-45.2,7C196,319.25,192.63,319.37,187.71,319.69Z"/><path class="cls-4" d="M447,505.62c-5.19-6.52-11.65-3-17.56-1.86-3.42.68-6.52,3.1-11.85.19,6.41-1.28,9.37-5.64,13.57-7.8,6.65-3.41,7.17-9.54,8.74-15.44.47-1.78-.16-4.43,2.45-4.87,3-.5,2.72,2.08,3,4,1,5.84,5.5,4.14,8.67,3.42,6.61-1.51,12.46-2.89,13.74,6.6a2.49,2.49,0,0,0,4.54,1.22c7-9.89,20.94-12.5,25.66-24.89,1.42-3.71,2.33-5.83-2.64-6.25-2.53-.21-5.52-2.08-2.86-3.83,5.42-3.57,2.21-7.68,2.81-11.72.65-4.35-.12-8.78,3.15-13.65,3.65-5.42,2.71-14.42.05-21.26-1.55-4-2-6.57.64-9.87a10.16,10.16,0,0,0,2.25-7.14c-.15-2.19.89-5-1.32-6.3-3.25-1.89-3.24,1.73-4.5,3.28-.61.76-1.9,1.66-2.63,1.48-2.19-.54-1.27-2.72-1.75-4.22-3.93-12.17,2-23.82,1.78-35.81-.24-13.19-.16-13.27-13.31-13.28a3.36,3.36,0,0,1-.84,0c-4.27-1.18-11.32,3.09-12.49-3.16-1.31-7-3.39-15.4,4.21-21.17.67-.51,1.23-1.17,1.89-1.7,11.29-8.86,11.28-9-1.46-15-1.91-.89-4.22-2.44-2-4.26,7.1-5.85-3-7.37-2.55-11.4-4.32-.34-6.86,1.6-7.53,5.91-.24,1.53-.92,2.78-2.57,2.85a3.81,3.81,0,0,1-3.81-2.83c-1.29-3.74-3.81-7.71-3.34-11.26,1.27-9.66-5.33-11.94-11.86-14.71-6-2.55-11.65,1.08-15.14,4-5.95,4.93-9.95,2.25-15-.86,3.63-1,7.37-1.79,10.87-3.14,3.05-1.18,5.11-5.36,1.59-6-8.61-1.47-12.35-9.77-21.44-11.6-20.09-4-40.08-2.68-59.93-1.83-7.83.34-15.89,6.79-24.29,9.5-2.75.88-5.26,2.15-8.07,1.32-10-2.93-19-.54-27.06,5.5-2,1.51-4.08,1.7-6.32,1.88-2.16-3.5-.23-5.42,2.84-6.34,47.28-14.1,95.11-27.24,143.51-7.05,31.49,13.13,58.65,33.09,74.85,64.74,8.83,17.26,9.47,35.92,8.69,54.69-.51,12.08,1.78,23.25,5.9,34.73,10.08,28,4.13,54.46-13.82,77.29C482.7,492.65,465.28,500.47,447,505.62Z"/><path class="cls-5" d="M179.83,596.07c33.9-1.23,53.57,36.32,36.82,68.68-10.27,19.85-36.5,20.35-52.79,1.71-14.53-16.64-14.71-46.63-.36-63.5C167.92,597.77,172.83,593.74,179.83,596.07Z"/><path class="cls-5" d="M541,627.44c-.42,12.48-1.39,24.78-8.11,35.89-9.67,16-31.89,24.84-47.6,18.81-11.51-4.41-13.23-8.64-7.77-19.24a119.43,119.43,0,0,0,13.11-49.52c.53-10.9,13.44-21.22,27.76-22.47,11.05-1,18.41,4.83,21.47,17.15C541.47,614.42,541.33,620.94,541,627.44Z"/><path class="cls-4" d="M430,237.54c25.72-15.25,49.09-10.54,71.89,2.72,13.4,7.8,25.22,17.42,31.2,32.38,4.64,11.61,2.14,17.16-9.33,22.16-1.3.57-2.6,1.13-3.92,1.63-15.68,5.95-15.64,5.91-25.84-7.55-13.55-17.87-31-31.2-49.87-43C439.82,243.25,435.43,240.78,430,237.54Z"/><path class="cls-4" d="M446.84,519c.7,2.09,1.41,4.18,2.27,6.77-1.57.16-2.88.4-4.18.41-14,.2-14.33.38-14.84,14.11-.24,6.47-2.89,8.49-9.17,7-5.83-1.36-11.72-1.53-17.36,1.38-4.47,2.3-7.17.63-7.44-4.32-.23-4.13-2-6.28-6.25-6.27-19.53.06-39.05.08-58.58.18-.67,0-1.33.67-3.25,1.7,6.95,2.53,13,1.26,18.89,1.45,7.06.23,14.15,0,21.22.1,2.07,0,5.19-.69,5.1,2.71-.08,2.68-2.84,2.45-4.69,2.28-14.74-1.35-29.88,3.33-44.3-3-1.18-.52-3.2-.69-4.12,0-11,7.83-22.5.68-33.71,1.34-2.71.15-5.47-.67-5.41-4s3.09-2.48,5.2-2.75c3.61-.46,9.57,1.41,8.95-4.56-.68-6.47-6.13-6.21-11.22-4.35-.47.17-1.1-.09-2.74-.25,4.59-4.73.08-12.29,6.62-16.08-3.29,9.88,4.49,12.56,10.75,15,10.81,4.27,22.34,6.07,33.95,6.81a282,282,0,0,0,108.56-14.38A57.77,57.77,0,0,1,446.84,519Z"/><path class="cls-4" d="M179.69,354.15c4.81,9-.36,18.28.53,27.41.21,2.23-.38,4.63.18,6.74.87,3.29,0,9.05,3.79,9.11,4.24.06,2.52-5.33,2.86-8.44.36-3.32,1.84-5.32,5.24-5.42,4-.12,7.9-.05,11.85,0a3.5,3.5,0,0,1,2.37.72c5.26,6.16,2.25,13.46,2.25,20.21,0,4.68-4.08,6.28-8.55,6.14a18.66,18.66,0,0,0-5.07.06c-3.62.92-9.47-3.28-10-.42-.83,4.69-1.93,9.78-1.5,14.82.4,4.71,3.71,4.1,6.78,4.23,14.95.63,15.18.63,15.16,15.32,0,4.4,2.25,8,2.88,12.18-9.15-2.14-9.16-2.14-9.54-11-.13-3.08.35-6.46-3.65-7.62a4.75,4.75,0,0,0-4.77.91c-3.18,3-.36,5.6.45,8.44,3,10.59,11.32,17.88,16.82,26.93,1.68,2.75,3.48,5.05,2.84,8.41-22.22-20.69-31.11-47.29-33.4-76.59C175.87,388.86,174.67,371.33,179.69,354.15Z"/><path class="cls-4" d="M353.92,617.3a25.55,25.55,0,0,1,1.45-13.79c1.5-3.47,16.22-2.2,18.24,1.52,1.78,3.29,4,4,7.28,4.57,8.7,1.59,10,4.41,7.16,13-4.26,13-9.83,25.94-7.17,40.09,1.6,8.51,4.36,16.87,4.33,25.57,0,7,6.4,16.15,13.34,16.1,6.3,0,12.23,1.89,18.44,2,2.43.06,4.83,1.29,7.25,2-10.15,2.38-20.11,1-29.91-1.87-8.27-2.41-12.07-8.61-13.65-16.67-4.19-21.38-4.05-42.58,2.27-63.57.57-1.89,1.19-3.77,1.6-5.69.66-3,.16-5.92-3.06-7s-5.45,1.12-6.58,3.88c-1.81,4.42-3.26,9-5,13.74-3.41-2.66-3.32-6.58-4.59-9.82C363.05,615.51,359.78,613,353.92,617.3Z"/><path class="cls-4" d="M203.41,529.29c8.09,10.6,5.6,22.31,3.22,33.83-1.32,6.35-2.22,11.53,7,10.74a3.55,3.55,0,0,1,2.84,1.22c1,1.56-.47,2.5-1.56,3.36-2.83,2.21-5.68,4.4-9.51,7.36,4.53,1.37,10.2-2.43,11.3,3.52.69,3.71,5.57,6.26,2.89,10.77-9.48-9-20.43-14.81-33.66-15.38-5.55-.24-6.66-2.36-4.76-7.35,1.79-4.67,2.52-9.75,5.24-14.1.93,1,1.94,2,2.76,3,1.54,2,1,6,5.12,5.52,3.68-.44,3-4.25,4.57-6.36,3.2-4.39.33-10.06,2.83-14.51,4.89-8.67,5-8.61-5-10.17A33.87,33.87,0,0,1,203.41,529.29Zm-19.64,49.6c5.25,4.42,10.25,3.74,15.21,2.62a1.71,1.71,0,0,0,.77-2.77c-3.95-3-8.6-1.18-13-1.39C186.13,577.32,185.43,578,183.77,578.89Z"/><path class="cls-4" d="M275.07,298.19c.67,6.74,1.22,12.46-6.34,17.25s-5.1,12.46,4.14,15.47c2,.66,3.83,1.48,3.75,3.87-.1,2.81-2.42,2.83-4.36,2.73-6.57-.34-13.11,1.9-18.34-6.07-3.62-5.5-12.24-2.58-18.44-1.91-5,.53-10,1.22-15.09,1.27-4.66,0-9.64-1.14-12,5.12-1,2.72-4.64,1.95-6.94,1.53-5.54-1-11-.65-16.57-.45.4-4.35,2.5-6.26,7.14-6.37a310.29,310.29,0,0,0,46.3-5C255.11,322.63,268.64,315.12,275.07,298.19Z"/><path class="cls-4" d="M220.09,600.75c10.42-.28,10.42-.28,7.57-11.53-.47-1.84-1.93-3.77.05-5.46a3.89,3.89,0,0,1,3-1c2.89.92,1.84,3.64,2.23,5.74,2.13,11.41,3.06,22.85,1.76,34.44a7.74,7.74,0,0,0,1.05,4.82c7.62,11.23,7.64,21.31-.12,31.66-3,4.05-2.16,6.58,2.87,7.89a121.9,121.9,0,0,1,12,4,3.45,3.45,0,0,1,1.79,2.51,1.89,1.89,0,0,1-2.37,1.77c-5.4-1-11.91,3.31-16.15-3.57-1.32-2.14-4.19-1.14-6.32-1.68C238.93,645.64,236.24,622.48,220.09,600.75Z"/><path class="cls-4" d="M287.74,513.07c1.16-5.9,5.22-7.44,10.44-3.89,11.37,7.73,24.25,10.73,37.66,11.83,5.33.44,10.83-.62,16.07.21,14.15,2.23,26.74-5,40.32-6.07,2.27-.17,4.85-1,5.56-4.3,1.48-6.89,6.22-6,10.18-3,6,4.67,12.62,4.21,18.29,1.68a38,38,0,0,1,19.58-3.6c-44,16.13-88.89,23.12-135.44,13.34-4.73-1-9.37-2.31-13.19-5.43C294.16,511.39,291.06,511.5,287.74,513.07Z"/><path class="cls-4" d="M222.94,497.34c2.16,2.5,4.39,4.12,5.78-.48.85-2.81,1.13-5.79,2.94-8.57-1.26,11.51,5.28,23.38-2.73,34.56-2.16,3-5.3,4.54-7.89,3.06-5.45-3.1-10.26-1.74-15.33.25,3-6.66,8.33-11.67,12.48-17.51C220.64,505.19,222.6,501.63,222.94,497.34Zm4.72,15.91c-.08-.86-.48-3.54-3.37-3.28-3.1.29-4.7,2.79-4.77,5.93-.06,2.48,1.54,3.33,3.81,3.41C226.57,519.43,227.93,517.84,227.66,513.25Z"/><path class="cls-4" d="M236.18,682.84c3-3.72,6-1.31,9.13-.12,11.44,4.43,13.54,3.38,16.68-8.14.45-1.63,1-3.22,1.61-4.81s1.43-2.5,3.14-1.94,1.89,2.07,1.65,3.46c-.6,3.6-1.36,7.18-2.14,10.75-.87,4,1.81,6.16,4.75,6.59,3.33.49,2.29-3,2.74-5,.81-3.66.14-8.15,5.1-9.62-.5,20,3.82,20.08-18.87,17A63.27,63.27,0,0,1,236.18,682.84Z"/><path class="cls-4" d="M279.22,670.6l-2.39-.67c4.11-7.14-1-15.48,3.58-23a38.66,38.66,0,0,0,4.89-18.21c.23-9,7.31-13,12.47-16.47,5.65-3.76,6.52,3,6.4,7.72-5.38-4.2-8.37-1.75-10.88,3.53C286.16,638.46,282.07,654.34,279.22,670.6Z"/><path class="cls-3" d="M196.67,540.77c10,1.56,9.89,1.5,5,10.17-2.5,4.45.37,10.12-2.83,14.51-1.55,2.11-.89,5.92-4.57,6.36-4.08.49-3.58-3.5-5.12-5.52-.82-1.08-1.83-2-2.76-3,.13-1.85.44-3.64,1.93-5,7.71-2.55,6.93-9.11,7.16-15.18h0c.4-.75.81-1.49,1.22-2.23Z"/><path class="cls-4" d="M275.09,269.72c4.61,6.73,4,14.95,6.19,22.36,1.39,4.61-3.39,4.91-6.34,6.17C276.22,288.74,275.59,279.23,275.09,269.72Z"/><path class="cls-4" d="M467.24,533c-3,0-6.17-.43-6.36-4-.37-6.91-5-9.37-10.48-11.31,5.23-3.7,9.1-2.8,11.65,3.26C463.75,524.94,467.07,528.28,467.24,533Z"/><path class="cls-4" d="M211.69,483.87c4.08.12,7.79-.6,10.76-3.84,1.17-1.28,3.12-1.85,4.43-.18s1.34,4.18-.85,5c-3.82,1.42-5.26,3.94-5.16,7.73Z"/><path class="cls-4" d="M195.48,543.12c-.23,6.07.55,12.63-7.16,15.18A37.69,37.69,0,0,1,195.48,543.12Z"/><path class="cls-4" d="M183.43,340.52c3.43,5.92,1.66,10.33-4,13.62A30.08,30.08,0,0,1,183.43,340.52Z"/><path class="cls-4" d="M227.52,670.33a14.68,14.68,0,0,1-.58,7.77C221.19,675.07,226.1,672.83,227.52,670.33Z"/><path class="cls-4" d="M273.39,262.75c2.73,1.81,1.95,4.52,1.8,7.06C273.46,267.74,273.42,265.25,273.39,262.75Z"/><path class="cls-4" d="M353.17,621.28c-1.4-1.33-1.16-2.44.44-3.36C353.47,619,353.32,620.16,353.17,621.28Z"/><path class="cls-4" d="M229.27,679.36c1.59-.17,2.93.13,3.47,1.89A4,4,0,0,1,229.27,679.36Z"/><path class="cls-4" d="M227.19,678.22a1.68,1.68,0,0,1,2.16,1.2Z"/><path class="cls-4" d="M184.83,337.18l-1,2.07Z"/><path class="cls-4" d="M196.7,540.9c-.41.74-.82,1.48-1.22,2.23C195.88,542.38,196.29,541.64,196.7,540.9Z"/><path class="cls-4" d="M416.44,485.35c-.54,3.38-3,7.33,2.8,8.77a2.2,2.2,0,0,1,1.62,3.26c-.7,1.53-2.22,1.63-3.63,1.42-2.88-.44-5.15-2.14-7.51-3.74-3.9-2.65-8-4.25-12.59-1.35-4.36,2.76-9.22.8-13-.46-8.51-2.84-11.7,1.57-14.91,7.78,4.55,2.87,6.72-2.81,10.48-2,3,.62,7.08.41,7.1,4.32,0,3.59-3.85,2.42-6.14,2.43-17.1.1-34.2.06-51.33-1,6.07-3.85,12.74-1.63,19.07-2.41,2.64-.33,7.61,1.74,4.25-4.87-2-4,2-5,5.33-5.31,2.57-.21,5.76-.46,6.39-3.13.84-3.6-3-3.29-5.12-4.26-7.36-3.39-13.5-7.84-16-16.19-.5-1.71-1-5.29-4.15-4-2.12.9-2.54,3.51-1.59,6a9,9,0,0,1,.53,3.31c0,1.82-.81,3.53-2.67,3.86-2.5.44-3.7-1.45-3.75-3.55-.31-12.67-5.86-26.45-1-37.59,4-9.21,0-15.05-.75-22.45-.46-4.78-3.07-6.38-6.67-4.81-5.58,2.44-10.54-1-15.8-.56a3.79,3.79,0,0,1-4.08-2.47,4.18,4.18,0,0,1,2.09-5.09c4.69-2.19,4.64-5.11,2-8.75-2.21-3-1.37-6.53-1.5-9.87-.15-4.09.44-7.6-4.46-10.63s-2.52-7.81,2.44-9.4a23.74,23.74,0,0,0,10.24-6.71c4.54-4.73,11.46-2.12,13.5,4.7-8-2.75-13.83.5-16.18,7.81-3.71,11.55-2.43,22.94,5.24,32.88,3.4,4.4,7.74,7.71,13.83,6,5.89-1.62,8.59-6.27,9.47-11.84,2.06-13-.67-24.64-10.39-34.1,8.21,3.37,18.66,3.42,21.64,14.52.73,2.76,1.51,6.13-1.3,7.79-4.43,2.6-2-4.62-5.24-4.25C344,390,345,391,354.42,388a24.15,24.15,0,0,1,13.3-.19,30.17,30.17,0,0,0,15.89-.13c2.84-.85,7.57-7.3,5.25,3-.94,4.21,5.74,2.62,9.09,2.88,2.66.21,5.9.86,7.35-2.55.55-1.3-.77-1.81-1.72-2.44-1.87-1.22-7-1.25-3.49-4.95a7.17,7.17,0,0,1,10.62,0c1.64,1.8,2.29,4.31,5.15,5.1,3,.84,5.86,2.14,8.8-.21,2.75-2.18,2.22-5.15,1.69-7.81-1.51-7.56-5.64-15-.43-22.72.41-.62-.14-2.4-.79-3.15-8-9.07-.7-14.51,5.42-18.78s13.57-1.77,20.47-1.09a3.34,3.34,0,0,1,2.22,2.29c.48,6.33,2.35,11.42,9.11,13.74,1.85.63,1.51,3.4,1.67,5.39.88,10.62-.36,21.29.2,31.81.43,8.2-1.27,12.65-9.08,15.22-5,1.65-1.88,8-4.95,11-4.33,4.28-1.35,6.95,1.43,10.56,3.71,4.82,2.68,11.26,3.85,17,.46,2.24.3,5.07,3.11,5.25,3.55.22,3.55-2.89,3.71-5.45.12-2,0-4,.24-5.92s1.61-2.89,3.57-2.73c1.61.13,2.31,1.18,2.83,2.66,3.56,10.06-1.43,18.67-11.94,20.93-5.19,1.12-10.71,2-13.24,7.81-.78,1.81-2.48,2.14-4.29,1.95,23.24-35.67-4.54-72.1-42.86-71.17-25.69.62-44.11,14.32-54.6,41.52-.69-1.13-1.12-2.72-2.13-3.29a2,2,0,0,0-3,1.79c-.27,6.06-1.49,12.3.68,18.1.88,2.37,3.24.77,4.55-.9,6.72,23.63,23.08,35.25,46.89,37.4C398.49,490.69,407.43,487.69,416.44,485.35Zm44.42-110.18c.1-7-1.23-13.57-5.6-19.15-7.95-10.15-19.83-8.86-24.81,3-4.32,10.29-3.47,20.44,3.21,29.76,3.35,4.66,7.6,7.71,13.59,7,6.37-.74,9.76-5.08,12.06-10.62A26.07,26.07,0,0,0,460.86,375.17ZM348.45,410.75c-.39-3,.19-8.87-3.95-9.07-4.68-.22-4.59,5.38-4.55,9.41a22.11,22.11,0,0,1-.23,4.23c-.47,2.64-2.94,6,.54,7.57,3.92,1.76,4.37-3.27,6.59-5C348.78,416.4,348.48,413.82,348.45,410.75Zm96.22-66.1c.28-2.12-.38-3.07-1.55-3.31a16.78,16.78,0,0,0-13.48,3.08,2.59,2.59,0,0,0-.45,3.77c1.5,1.77,3.55,1.31,5.43.57C438.13,347.38,441.6,345.91,444.67,344.65Zm-87.46,58.72c2.59-1.27,6.79-.55,7.43-4.21.58-3.31-2.6-3.85-5.19-3.73-3,.14-6.65.4-7.07,4.24C352.1,402.29,354.92,402.86,357.21,403.37Z"/><path class="cls-1" d="M416.44,485.35c-9,2.34-17.95,5.34-27.44,4.49-23.81-2.15-40.17-13.77-46.89-37.4q-.06-7.85-.11-15.7c10.49-27.2,28.91-40.9,54.6-41.52,38.32-.93,66.1,35.5,42.86,71.17L438.35,468c-1,.38-1.64.94-1.31,2.12l-2,3.2c-1.27.34-3.09-.28-3.36,1.87h0l-14.54,10-.44-.13Zm-19.05-78.26a39.4,39.4,0,0,0-19.75,4.22c-13.24,6.76-23.11,16.63-23.78,32.55-.55,13.2,6.13,22.74,17.35,28.94,19.13,10.59,45.82,4.33,58.56-13.45a31.89,31.89,0,0,0,6.08-20.76C434.83,420.07,419.38,407.41,397.39,407.09Z"/><path class="cls-1" d="M329.69,361.4c9.72,9.46,12.45,21.11,10.39,34.1-.88,5.57-3.58,10.22-9.47,11.84-6.09,1.66-10.43-1.65-13.83-6-7.67-9.94-8.95-21.33-5.24-32.88,2.35-7.31,8.19-10.56,16.18-7.81Z"/><path class="cls-4" d="M318.65,508.54c1.58-3,4.81-4,6.74-1.51,4,5,9.07,3.75,14,3.82,9.62.13,19.24,0,28.86.1,2,0,5.2-.71,5,2.77-.15,2.67-2.88,2.16-4.76,2.23q-18.37.7-36.76,1.29C329.3,517.32,318.42,510.19,318.65,508.54Z"/><path class="cls-4" d="M293.24,264.71c-4.09-1.11-11,1.9-11.22-2.87-.21-4.33,6.72-4.44,11.06-4s11.85-2.62,11.51,4.22C304.34,267.22,296.94,263.05,293.24,264.71Z"/><path class="cls-4" d="M319.47,337.46c2.86.59,6.07-1.06,7.94,2,1,1.58.54,4.14-1.09,4.22-4.57.24-9.08,3.62-13.65.83a3.62,3.62,0,0,1-.78-5.29C313.88,336.47,317.09,338.12,319.47,337.46Z"/><path class="cls-4" d="M225.94,335.43a25.77,25.77,0,0,1,13.75-.79,3.57,3.57,0,0,1,2.86,5.07c-1,2.76-3.06,2.87-5.41,1.62C233.82,339.57,230.49,337.83,225.94,335.43Z"/><path class="cls-4" d="M417.13,485.1l14.54-10C431.52,487.07,429.62,488.37,417.13,485.1Z"/><path class="cls-4" d="M493.28,409.42a53.67,53.67,0,0,1,.65,20.67C490.62,425.41,490.3,419.87,493.28,409.42Z"/><path class="cls-4" d="M469,420.79c-.14,2.37-.87,4.77-3.72,4.4a4.28,4.28,0,0,1-4-4.65,4.39,4.39,0,0,1,4.55-4.08C468.29,416.57,468.86,418.63,469,420.79Z"/><path class="cls-4" d="M280.94,504.6c1.88-3,4-4.12,6.61-3.18a1.82,1.82,0,0,1,.71,2.82C286.32,506.56,283.94,506,280.94,504.6Z"/><path class="cls-4" d="M398,500.56c3.11-1.86,5.27-2.18,7.56.08C403.12,503.06,401,502.81,398,500.56Z"/><path class="cls-4" d="M431.67,475.15c.27-2.15,2.09-1.53,3.36-1.87C434.38,474.75,433.11,475.11,431.67,475.15Z"/><path class="cls-4" d="M437,470.08c-.33-1.18.34-1.74,1.31-2.12Z"/><path class="cls-3" d="M183.77,578.89c1.66-.88,2.36-1.57,3-1.54,4.36.21,9-1.66,13,1.39a1.71,1.71,0,0,1-.77,2.77C194,582.63,189,583.31,183.77,578.89Z"/><path class="cls-3" d="M227.66,513.25c.27,4.59-1.09,6.18-4.33,6.06-2.27-.08-3.87-.93-3.81-3.41.07-3.14,1.67-5.64,4.77-5.93C227.18,509.71,227.58,512.39,227.66,513.25Z"/><path class="cls-1" d="M460.86,375.17a26.07,26.07,0,0,1-1.55,10c-2.3,5.54-5.69,9.88-12.06,10.62-6,.69-10.24-2.36-13.59-7-6.68-9.32-7.53-19.47-3.21-29.76,5-11.85,16.86-13.14,24.81-3C459.63,361.6,461,368.21,460.86,375.17Z"/><path class="cls-3" d="M348.45,410.75c0,3.07.33,5.65-1.6,7.15-2.22,1.72-2.67,6.75-6.59,5-3.48-1.57-1-4.93-.54-7.57a22.11,22.11,0,0,0,.23-4.23c0-4-.13-9.63,4.55-9.41C348.64,401.88,348.06,407.76,348.45,410.75Z"/><path class="cls-3" d="M342,436.74q.06,7.85.11,15.7c-1.31,1.67-3.67,3.27-4.55.9-2.17-5.8-.95-12-.68-18.1a2,2,0,0,1,3-1.79C340.88,434,341.31,435.61,342,436.74Z"/><path class="cls-3" d="M444.67,344.65c-3.07,1.26-6.54,2.73-10.05,4.11-1.88.74-3.93,1.2-5.43-.57a2.59,2.59,0,0,1,.45-3.77,16.78,16.78,0,0,1,13.48-3.08C444.29,341.58,445,342.53,444.67,344.65Z"/><path class="cls-3" d="M357.21,403.37c-2.29-.51-5.11-1.08-4.83-3.7.42-3.84,4-4.1,7.07-4.24,2.59-.12,5.77.42,5.19,3.73C364,402.82,359.8,402.1,357.21,403.37Z"/><path class="cls-5" d="M397.39,407.08c22,.33,37.44,13,38.46,31.51a31.89,31.89,0,0,1-6.08,20.76c-12.74,17.78-39.43,24-58.56,13.45-11.22-6.2-17.9-15.74-17.35-28.94.67-15.92,10.54-25.79,23.78-32.55A39.51,39.51,0,0,1,397.39,407.08Zm23,28.24c-.47-6-3.92-10-10-10.25-6.26-.25-9.82,4.24-10.13,10.07-.34,6.17,3.43,10.31,9.68,10.37S419.83,441.92,420.43,435.32Zm-46.67,4.52c.47,5.91,3.41,9.76,9.38,10,5.73.21,8.66-3.92,8.8-9,.16-5.67-3.19-9.77-9.17-10.08S374.53,434.6,373.76,439.84Z"/><path class="cls-1" d="M420.43,435.32c-.6,6.6-4.3,10.25-10.41,10.19s-10-4.2-9.68-10.37c.31-5.83,3.87-10.32,10.13-10.07C416.51,425.32,420,429.35,420.43,435.32Z"/><path class="cls-1" d="M373.76,439.84c.77-5.24,3.06-9.37,9-9.07s9.33,4.41,9.17,10.08c-.14,5-3.07,9.17-8.8,9C377.17,449.6,374.23,445.75,373.76,439.84Z"/></svg>