<svg id="Capa_1" data-name="Capa 1" xmlns="http://www.w3.org/2000/svg" viewBox="0 0 667.71 1024"><defs><style>.cls-1{fill:#1f1916;}.cls-2{fill:#efb7be;}.cls-3{fill:#f9f0e1;}.cls-4{fill:#f3c5c7;}</style></defs><path class="cls-1" d="M516.67,715.34l-.57,2c-3.28,5.73-6.43,11.54-9.86,17.18-18.36,30.18-53.57,33.26-73.9,8.92-2.52-3-4.59-3.63-8-1.3-24.1,16.54-51.77,21.5-80.06,24.54-24.25,2.61-48.49,7.41-72.7-.38-4-1.28-7.37.37-10.54,2.71-8.54,6.31-18.07,7.57-28.22,5.37-18.69-4-31.8-15.87-40.61-31.87a133.5,133.5,0,0,0-23.86-31.65c-3.66-5.94-8.25-11.51-10.08-18.29s-5.56-7-11.51-5.58c-37.47,8.79-74.38-28.62-64.89-65.54,8.41-32.7,45.79-44.08,71.07-21.63.85.76,1.78,1.43,3.39,2.72a152.84,152.84,0,0,1,23-40.78c6.2-7.76,12.76-15.3,20.7-21.24,5.26-3.94,4.35-6.44.74-10.94-25.43-31.61-38.94-67.61-36.46-108.41,2.94-48.1,25.54-85.12,66-111.21,9.13-5.88,9-5.65,2.16-13.7-22.77-26.73-43.65-54.67-54.67-88.64-3.3-10.16-4.29-20.58-1.79-31,7.51-31.32,44.39-45,72.8-27.05,16.94,10.7,27.31,26.86,35.81,44.29,13.4,27.53,23.64,56.39,34.09,85.09,4,11,12.44,7.06,19.4,8.52s6.12-4.93,7.29-8.45C357,244.49,372.56,212,393.54,182.3c9.53-13.52,20.62-25.26,36.47-31.57,18-7.18,35.05-5.44,50.2,6.71,14.78,11.85,17.53,28.21,14.62,45.92-3.14,19.1-12.92,35.45-22.42,51.82-12,20.69-25,40.76-41.49,58.26-5.45,5.79-6,9,.9,14.66,37.65,30.78,60.34,70.24,63.12,119.18,2.47,43.37-12.82,80.58-44.71,110.51-3,2.85-4.93,4.84-2.54,9.42,14.62,27.87,24.11,57.35,26.66,89.93,3.94-2.7,7.06-5.12,10.44-7.1,20.2-11.86,39.8-1,40.26,22.32.28,13.9-4,27-7.49,40.22C516.24,713.17,516.27,714.19,516.67,715.34Zm-65.1-177.78,1.76-1.78c4-1.79,5.72-5.68,7.94-9,22.31-33.3,27.55-69.69,16.94-107.83C456,339.07,372.7,286.05,291.07,300.17c-57,9.85-96.81,41.24-111.3,98.69-11.75,46.59,2.17,88.07,31.51,124.92,10.11,12.7,10.07,12.26-2.25,23.48-34.14,31.08-52.68,68.46-46.14,115.85,2,14.5,5.8,28.13,16.29,41.33.43-7.47.41-13,1.1-18.35,3.78-29.77,31.94-45.49,58-32.48,29.31,14.65,48.17,55.8,40.17,87.65-4,16.11-4.05,16.12,13.27,17,2.33.13,4.66.19,7,.22,22.87.29,45.29-3.9,67.76-7.19,31.81-4.65,58.65-18.89,78.87-44.19,9.29-11.64,18.12-24.45,17.83-39.9-.51-26.13-6.68-51.33-16.88-75.48-7.44-17.62-16.66-34-31.25-46.87-5.8-5.11-12.26-9-20-10.11-10.28-1.47-15.68,3.88-14.47,14.14A51.61,51.61,0,0,0,384.77,564c7.37,16.59,17.37,31.64,27.18,46.82,2.3,3.55,6.23,7.77,1,11.3-4.87,3.26-7-1.91-9.36-5C391.1,600.6,379.9,583.31,371.2,562c-3.22,11.65-5.81,21.38-8.62,31-3.35,11.47-6.9,22.87-10.35,34.3-1.18,3.91-3,7.62-7.82,6-4.62-1.52-4.26-5.67-3.18-9.58.61-2.24,1.23-4.49,2-6.7C349,600,353.57,582.5,358,565c1.71-6.8,2.9-13.68,2.45-20.77s-4.23-9.78-11.1-8.33a40.24,40.24,0,0,0-18.42,9.52c-15.17,13.27-29.37,27.48-41.79,43.4-2.31,3-4.63,7-9.06,3.57-3.66-2.8-1.83-6.43.29-9.31,15.1-20.52,31.55-39.72,53.44-53.46a36.06,36.06,0,0,1,21.59-5.83c6.86.4,11.4,4.7,14.92,10.19,12.57-12.69,27.35-14.26,42.65-5.05a78,78,0,0,1,21.28,19.28c2.7,3.48,5,4.49,8.14.71S450.13,542.67,451.57,537.56Zm32.3-344.17c.19-24-20.27-39.76-43.8-33.57-14.23,3.74-24.5,13.17-33.11,24.46-23.2,30.45-38.29,65.1-51.61,100.64-1.47,3.9-.69,5.61,3.52,6.65A176.39,176.39,0,0,1,410.22,313c2.61,1.63,4.3,1.34,6.55-1.18,25.18-28.24,46.11-59.22,61.26-94C481.42,210,483.84,202,483.87,193.39ZM223.69,153.75c-23.08,0-37.29,14.49-36.94,35.36.13,7.69,2.13,15,4.89,22,12.59,32.27,33.93,58.78,56,84.84,2.36,2.79,4.58,2.94,7.59,1.7A145.68,145.68,0,0,1,303.54,287c4.77-.25,5.16-2,3.55-6-5.17-13-9.84-26.14-15.07-39.08-9-22.36-16.81-45.37-31.41-65C250.86,163.71,238.91,154.1,223.69,153.75Zm44.83,573.79c-.4-25.48-13-49.41-31.68-61.19-19-12-38.52-4.34-44.14,17.33-6.48,25,6,57.64,27.73,72.45s43.68,5.29,47.45-20.92C268.29,732.33,268.37,729.41,268.52,727.54ZM123.85,600.45c-13.77-.24-22.31,6-27.54,16.81-7.21,14.93-4.85,29.28,5.53,41.54,11.55,13.66,26.39,20.64,44.9,17,4.78-.93,5.79-3.58,5.08-8.15a150,150,0,0,1,.1-46.91c.39-2.41,1.67-5-.95-7.28C142.73,606.43,134.59,599.23,123.85,600.45Zm389,76.64c.12-19-8.17-24-22.87-16.23a33.22,33.22,0,0,0-16.45,18.51c-6.51,18.11-15.94,34.41-30.31,47.39-5,4.54-3.24,7.69.48,11.43,13.68,13.75,34.54,12.29,47.6-3.69C505.45,717.13,511.15,696.58,512.82,677.09Z"/><path class="cls-2" d="M168.37,710.82a133.5,133.5,0,0,1,23.86,31.65c8.81,16,21.92,27.83,40.61,31.87,10.15,2.2,19.68.94,28.22-5.37,3.17-2.34,6.56-4,10.54-2.71,24.21,7.79,48.45,3,72.7.38,28.29-3,56-8,80.06-24.54,3.39-2.33,5.46-1.73,8,1.3,20.33,24.34,55.54,21.26,73.9-8.92,3.43-5.64,6.58-11.45,9.86-17.18,4.1-2.11,8.17-.31,11.93.7,17.83,4.79,36.87,6.27,52.46,17.53,13.08,9.45,11.48,20.9-3.75,27.17a282.73,282.73,0,0,1-66.27,18,1144.92,1144.92,0,0,1-117.75,11.1c-33.8,1.52-67.59,2.06-101.28.82-50.1-1.85-100.27-5-149.52-15.49-14.4-3-29.13-5.65-42.6-12.28a63.54,63.54,0,0,1-12.55-7.81c-7.67-6.29-7.1-16.19,1.75-21.08,19.83-11,41.29-16.78,63.59-20C157.78,715.22,163.76,715.05,168.37,710.82Z"/><path class="cls-2" d="M516.67,715.34c-.4-1.15-.43-2.17.89-2.76C517.26,713.5,517,714.42,516.67,715.34Z"/><path class="cls-3" d="M451.57,537.56c-1.44,5.11-6.06,7.63-9.2,11.35s-5.44,2.77-8.14-.71A78,78,0,0,0,413,528.92c-15.3-9.21-30.08-7.64-42.65,5.05-3.52-5.49-8.06-9.79-14.92-10.19a36.06,36.06,0,0,0-21.59,5.83c-21.89,13.74-38.34,32.94-53.44,53.46-2.12,2.88-4,6.51-.29,9.31,4.43,3.39,6.75-.6,9.06-3.57,12.42-15.92,26.62-30.13,41.79-43.4a40.24,40.24,0,0,1,18.42-9.52c6.87-1.45,10.64,1.11,11.1,8.33s-.74,14-2.45,20.77c-4.41,17.51-9,35-14.78,52.11-.74,2.21-1.36,4.46-2,6.7-1.08,3.91-1.44,8.06,3.18,9.58,4.81,1.59,6.64-2.12,7.82-6,3.45-11.43,7-22.83,10.35-34.3,2.81-9.66,5.4-19.39,8.62-31,8.7,21.3,19.9,38.59,32.36,55.1,2.33,3.08,4.49,8.25,9.36,5,5.26-3.53,1.33-7.75-1-11.3-9.81-15.18-19.81-30.23-27.18-46.82a51.61,51.61,0,0,1-4.22-15.09c-1.21-10.26,4.19-15.61,14.47-14.14,7.73,1.12,14.19,5,20,10.11,14.59,12.86,23.81,29.25,31.25,46.87,10.2,24.15,16.37,49.35,16.88,75.48.29,15.45-8.54,28.26-17.83,39.9-20.22,25.3-47.06,39.54-78.87,44.19-22.47,3.29-44.89,7.48-67.76,7.19-2.34,0-4.67-.09-7-.22-17.32-.89-17.31-.9-13.27-17,8-31.85-10.86-73-40.17-87.65-26-13-54.18,2.71-58,32.48-.69,5.4-.67,10.88-1.1,18.35-10.49-13.2-14.29-26.83-16.29-41.33-6.54-47.39,12-84.77,46.14-115.85,12.32-11.22,12.36-10.78,2.25-23.48-29.34-36.85-43.26-78.33-31.51-124.92,14.49-57.45,54.34-88.84,111.3-98.69C372.7,286.05,456,339.07,478.21,419c10.61,38.14,5.37,74.53-16.94,107.83-2.22,3.3-3.94,7.19-7.94,9l.13.11c-1.73-3.19,1.21-7.65-3.41-10.26-10.09-5.69-19.89-11.87-29.86-17.78-3.13-1.86-6.36-1.76-8.43,1.42s-1.49,6.51,1.77,8.34c12.52,7,23.48,17.09,38.13,20.08ZM327.35,439.42a38.34,38.34,0,0,0-9-23.87c-8.65-10.12-21.44-8.94-28.16,2.51-5.33,9.09-5.39,18.83-2.87,28.67,3.46,13.5,13.21,22.19,23.07,20.94C319.73,466.49,327.38,454.6,327.35,439.42Zm124.9-9.57c-.08-7.4-1.59-14.46-5.66-20.71-6.45-9.89-17.68-9.83-24.16,0-7.13,10.82-6.64,29.87,1.06,40.48,7.41,10.22,18.22,9.71,24.48-1.29C451.2,442.64,452.15,436.31,452.25,429.85Zm-79.7,77.93c-.32,2.56.53,6.06,4.85,6.68s6.08-2.56,6.74-6.36a17.38,17.38,0,0,0,.52-4.33c-1.21-14.28,4.5-25.95,13.47-36.49a81.12,81.12,0,0,0,6-8.55c2.05-3.15,3.26-6.62-.42-9.28-3.91-2.84-7.09-1.14-9.5,2.57-1,1.46-1.92,2.91-2.93,4.33-3.69,5.2-6.61,13.62-11.3,14.76-5.8,1.41-10-7.45-15.62-10.76-4.24-2.49-8.16-10.8-13.58-4.48-5.22,6.08,2.58,9.77,6.41,12.77,12.22,9.56,22.14,19.67,15.56,37A14.66,14.66,0,0,0,372.55,507.78Zm-62.87-7.63c-1.32-5.17-4.89-6.5-9.29-4.36-19.34,9.42-38.58,19.06-57.81,28.72-3.38,1.7-5.84,4.38-3.84,8.44s5.55,3.91,9,2.21q28.59-14,57.06-28.27C307.5,505.55,309.62,503.58,309.68,500.15Zm-11.21-11.1c3.73.24,7.29,0,8-4.6.7-4.39-2-6.41-5.92-7.05-20.34-3.37-40.69-6.74-61.06-10-3.67-.58-7.43.26-8.23,4.53s2.5,6.48,6.11,7.1C257.74,482.53,278.11,485.75,298.47,489.05Zm-33.81,78a34.11,34.11,0,0,0,4.83-3.09q22-19.35,43.83-38.86c2.76-2.47,4.87-5.55,2-9.12-3.14-3.85-6.83-2.61-10,.1-8.8,7.65-17.47,15.45-26.17,23.22-6.29,5.63-12.6,11.26-18.78,17-2,1.86-3,4.29-1.63,7.11C259.87,565.73,261.69,566.92,264.66,567Zm159.6-76.74,18.59-5.61c10.3-3.12,20.63-6.14,30.87-9.42,3.56-1.13,6.51-3.46,5-7.75-1.19-3.49-4.25-4.8-7.81-3.73q-25.45,7.63-50.84,15.51c-3.21,1-4.62,3.56-3.91,6.86S419.44,490.76,424.26,490.3Zm3.62,3.55c-3.49-.36-6.56.46-7.65,4.12s.92,6.36,4.35,7.35q17.1,4.92,34.33,9.35c3.49.9,6.43-.48,7.6-4.08,1.26-3.86-1.05-6.34-4.31-7.3C450.82,500,439.34,497,427.88,493.85Z"/><path class="cls-4" d="M483.88,193.39c0,8.6-2.46,16.65-5.85,24.44-15.15,34.76-36.08,65.74-61.26,94-2.25,2.52-3.94,2.81-6.55,1.18a176.39,176.39,0,0,0-51.35-21.42c-4.21-1-5-2.75-3.52-6.65,13.32-35.54,28.41-70.19,51.61-100.64,8.61-11.29,18.88-20.72,33.11-24.46C463.6,153.63,484.06,169.38,483.88,193.39Z"/><path class="cls-4" d="M223.69,153.75c15.22.35,27.17,10,36.92,23.09,14.6,19.65,22.38,42.66,31.41,65,5.23,12.94,9.9,26.11,15.07,39.08,1.61,4,1.22,5.77-3.55,6a145.68,145.68,0,0,0-48.35,10.72c-3,1.24-5.23,1.09-7.59-1.7-22-26.06-43.37-52.57-56-84.84-2.76-7.07-4.76-14.34-4.89-22C186.4,168.24,200.61,153.76,223.69,153.75Z"/><path class="cls-4" d="M268.52,727.54c-.15,1.87-.23,4.79-.64,7.67-3.77,26.21-25.6,35.82-47.45,20.92s-34.21-47.47-27.73-72.45c5.62-21.67,25.12-29.32,44.14-17.33C255.52,678.13,268.12,702.06,268.52,727.54Z"/><path class="cls-4" d="M123.85,600.45c10.74-1.22,18.88,6,27.12,13,2.62,2.24,1.34,4.87.95,7.28a150,150,0,0,0-.1,46.91c.71,4.57-.3,7.22-5.08,8.15-18.51,3.61-33.35-3.37-44.9-17-10.38-12.26-12.74-26.61-5.53-41.54C101.54,606.44,110.08,600.21,123.85,600.45Z"/><path class="cls-4" d="M512.82,677.09c-1.67,19.49-7.37,40-21.55,57.41-13.06,16-33.92,17.44-47.6,3.69-3.72-3.74-5.5-6.89-.48-11.43,14.37-13,23.8-29.28,30.31-47.39A33.22,33.22,0,0,1,490,660.86C504.65,653.09,512.94,658.09,512.82,677.09Z"/><path class="cls-3" d="M453.33,535.78l-1.76,1.78.09.13c-.1-.65-1.22-1.05-.24-2s1.38.1,2,.21Z"/><path class="cls-1" d="M327.35,439.42c0,15.18-7.62,27.07-17,28.25-9.86,1.25-19.61-7.44-23.07-20.94-2.52-9.84-2.46-19.58,2.87-28.67,6.72-11.45,19.51-12.63,28.16-2.51A38.34,38.34,0,0,1,327.35,439.42Z"/><path class="cls-1" d="M452.24,429.84c-.09,6.47-1,12.8-4.27,18.48-6.26,11-17.07,11.51-24.48,1.29-7.7-10.61-8.19-29.66-1.06-40.48,6.48-9.82,17.71-9.88,24.16,0C450.66,415.39,452.17,422.45,452.24,429.84Z"/><path class="cls-1" d="M372.55,507.78a14.66,14.66,0,0,1,.22-2.17c6.58-17.3-3.34-27.41-15.56-37-3.83-3-11.63-6.69-6.41-12.77,5.42-6.32,9.34,2,13.58,4.48,5.64,3.31,9.82,12.17,15.62,10.76,4.69-1.14,7.61-9.56,11.3-14.76,1-1.42,2-2.87,2.93-4.33,2.41-3.71,5.59-5.41,9.5-2.57,3.68,2.66,2.47,6.13.42,9.28a81.12,81.12,0,0,1-6,8.55c-9,10.54-14.68,22.21-13.47,36.49a17.38,17.38,0,0,1-.52,4.33c-.66,3.8-2.4,7-6.74,6.36S372.23,510.34,372.55,507.78Z"/><path class="cls-1" d="M309.68,500.15c-.06,3.43-2.18,5.4-4.87,6.74q-28.49,14.21-57.06,28.27c-3.46,1.7-7,1.77-9-2.21s.46-6.74,3.84-8.44c19.23-9.66,38.47-19.3,57.81-28.72C304.79,493.65,308.36,495,309.68,500.15Z"/><path class="cls-1" d="M298.47,489.05c-20.36-3.3-40.73-6.52-61.06-10-3.61-.62-6.93-2.76-6.11-7.1s4.56-5.11,8.23-4.53c20.37,3.22,40.72,6.59,61.06,10,3.9.64,6.62,2.66,5.92,7.05C305.76,489.09,302.2,489.29,298.47,489.05Z"/><path class="cls-1" d="M264.66,567c-3-.12-4.79-1.31-5.92-3.61-1.38-2.82-.37-5.25,1.63-7.11,6.18-5.77,12.49-11.4,18.78-17,8.7-7.77,17.37-15.57,26.17-23.22,3.13-2.71,6.82-4,10-.1,2.91,3.57.8,6.65-2,9.12Q291.48,544.61,269.49,564A34.11,34.11,0,0,1,264.66,567Z"/><path class="cls-1" d="M424.26,490.3c-4.82.46-7.32-.71-8.05-4.14s.7-5.87,3.91-6.86q25.38-7.89,50.84-15.51c3.56-1.07,6.62.24,7.81,3.73,1.46,4.29-1.49,6.62-5,7.75-10.24,3.28-20.57,6.3-30.87,9.42Z"/><path class="cls-1" d="M453.46,535.89c-.66-.11-1.09-1.14-2-.21s.14,1.36.24,2c-14.65-3-25.61-13-38.13-20.08-3.26-1.83-3.76-5.29-1.77-8.34s5.3-3.28,8.43-1.42c10,5.91,19.77,12.09,29.86,17.78C454.67,528.24,451.73,532.7,453.46,535.89Z"/><path class="cls-1" d="M427.89,493.85c11.45,3.11,22.93,6.1,34.31,9.44,3.26,1,5.57,3.44,4.31,7.3-1.17,3.6-4.11,5-7.6,4.08q-17.22-4.44-34.33-9.35c-3.43-1-5.45-3.64-4.35-7.35S424.39,493.49,427.89,493.85Z"/></svg>