<svg id="Capa_1" data-name="Capa 1" xmlns="http://www.w3.org/2000/svg" viewBox="0 0 667.71 1024"><defs><style>.cls-1{fill:#1f1916;}.cls-2{fill:#efb7be;}.cls-3{fill:#f4a132;}.cls-4{fill:#f8e8c6;}.cls-5{fill:#e59d41;}.cls-6{fill:#a16433;}</style></defs><path class="cls-1" d="M110.41,695.48c-11.82-18.39-20.08-37.94-16.79-60.36,4.09-27.86,24.89-36.8,48.53-21.32,1.41.91,2.87,1.73,5.38,3.23a153.85,153.85,0,0,1,13.58-58.56c3.71-8.27,7.68-16.46,12.07-24.38,2.66-4.8,2.13-7.18-2.72-10.32a153.93,153.93,0,0,1-49.62-51.38c-13.39-22.59-16.83-45.11-.23-68.14,10.61-14.72,9.94-32.77,12.25-49.78,2.95-21.83,9.07-42.38,22.85-60,2.8-3.57,2.26-6.95,1.38-10.7-3.07-13.1-6.51-26.14-9.07-39.35-4.89-25.2,7.08-39.6,32.87-40,25.59-.36,46.7,10,63.93,28.25,6.15,6.51,12,9,21.25,8,23.13-2.56,45.52,2.44,67.11,10.52,6,2.25,10.17,1.54,15.3-1.89,19.36-12.9,39.78-23.78,63-27.79,13.68-2.37,27.39-2.6,40.39,3.92,14.84,7.44,19.94,17.14,17.43,33.48a58.7,58.7,0,0,1-7,19.76c-12.37,22.23-13.47,47-16.09,71.41-.33,3.14,1.49,5.58,2.65,8.24,14.18,32.29,18.25,65.18,6.1,99.11-5.87,16.39-16.26,29.73-28.41,41.76-2.86,2.84-3.41,4.34-1,7.78,23.85,34.3,37.9,72.48,43.54,113.73,1.15,8.43,3.94,10,12.21,8.41,35.27-6.78,64.89-41.89,64.6-77.67-.06-7.31-.94-14.62.12-21.94,1.47-10,6.75-15.74,16.68-17.74,19.69-4,40,8.41,45.78,30.72,14.56,56.08-8.31,113.46-51.91,142.59-9.11,6.08-19.65,8.37-29.71,12a124.83,124.83,0,0,1-36.67,2.31c-5.17-.38-8.42.91-11.67,5.27-10.71,14.35-24.88,23.85-42.73,27-11.6,2-22.45-.45-30.49-9.41-4-4.48-6.62-3.46-11-1.05-24.5,13.6-49.79,20.67-76.89,7.34a7.14,7.14,0,0,0-7.4.37c-13.93,8-29.4,11.29-44.85,14.63-37.85,8.19-72.53,5.76-97.4-29.21-2-2.82-3.74-2.71-6.51-1-12.72,8-24.55,4.55-36-3.19C119.44,706.15,115.3,700.44,110.41,695.48Zm432.21-40.23,1.37,2.26h-.16c2,4.19,4,8.36,6,12.57s3.94,3.62,6.1.23l.37-.28c9.4-4.15,2.63-6.84-.89-9.81l0,0a8,8,0,0,0-3.77-5l0-.05L550,653.23l.06-.05c-.84-3.68-3-6.68-5.11-9.68l-.14-.66c-2.23-9-1.24-17.33,5.29-24.44h0c10.62-6.61,21.64-10.22,33.93-4.6,9.54,4.37,10.78,3.43,13.08-7,1.49-6.77-3.13-6.92-7.21-8.28-23-7.66-29.24-23.08-17.09-41.86h0c6.27-3.89,12.76-7,20.47-6.06,3.63.45,4.53-1.06,3.9-4.57-2.26-12.49-17-23.92-29.45-22.71-6.42.63-10.52,3.26-9.6,10.53-.14,1.17-.29,2.35-.43,3.52.4,21.49-.61,42.69-12.89,61.53l-1.76,2.43-9.6,11.34-1.4,1.3c-2.93,1.87-5.82,3.78-7.58,6.93l.55-.07h-.55a19.2,19.2,0,0,0-8.09,6.06l0,0a7.43,7.43,0,0,0-5.35,3.48l.06,0-2.27,1.3v-.11l-11.15,5.55-.48-.07a56.76,56.76,0,0,1-7.61,1.8c-5.84.61-6.71,2.25-3,7.34,7,9.59,8,20.88,4.65,31.78-2.61,8.56.08,9.68,7.63,9.31,10.42-.51,10.43-.11,8.25-10.27-.67-3.13-1.21-6.28-1.81-9.42l.11-3.68c4-15.31,8.52-18.94,23.49-18.82l.49-.07,8.18,4.8.06.05a3.7,3.7,0,0,0,2.88,2.54l-.22-.22a4,4,0,0,0,2.34,3.22ZM422.26,337.76a30.24,30.24,0,0,0-7.66-9.9l0,0c-17.68-22.57-39.11-40.81-63.69-55.5-5.69-3.4-7.67-1.53-9.88,4-5.94,14.9-10.85,30.36-20.26,43.64-4.69,6.61-10.25,12.94-19.44,10.28s-11.65-10.39-12.21-19.25c-1-16.65,2.82-32.5,6.76-48.43.64-2.59,4.71-7.06-1.24-8.61-5.13-1.34-5.19,3.79-6.34,6.68-5,12.49-9.47,25.17-14.45,37.65-2.92,7.32-6,14.71-11.43,20.61-6.93,7.54-15.1,6.39-19.91-2.63-3.54-6.64-4.13-13.94-4.34-21.29-.3-10.9,1.4-21.56,3.71-32.17.68-3.09,1.9-7.09-4-5.26-14.46,4.49-29.4,7.83-41.79,17.3l0-.05a40.55,40.55,0,0,0-16.23,11.9l-.11.05c-18.58,14.28-27.71,34.07-32.71,56.23-4.11,18.23-4,37.16-9,55.23,0,0-.13.67-.12.68-3.75,6.25-7.4,12.56-11.26,18.73-6,9.61-6.94,20-3.48,30.38a108.69,108.69,0,0,0,35.64,51l.11,0c23.26,24.09,52.9,31.67,85,32.84a13.86,13.86,0,0,0,7.84.32c24.71,2.56,49.14,1.2,73.2-5.25v.12c4.64.26,9.2-2,13.88-.44l.08.06c4,7.45-1.48,9.17-6.7,10.51-4.71,1.2-5.53,2.94-2.64,7,4.34,6.09,8.28,12.48,12.38,18.74l-.12.43.36.27c17.44,47.13,17.8,93.76-4.16,139.72l-.21.29-13,15.47a36.19,36.19,0,0,0,4.78,2.16c23.75,6.24,44.36-2.08,64.21-13.9,2.65-1.58,3-4,2.85-6.83-1.86-31.9,30.21-63.76,55.8-66.72,5.68-.66,6.37-3.21,5.63-8.18-.75-5.16-3.21-6.64-8.12-6.84-14.61-.61-29.34-.16-43.66-4-10.92-3-14.93-7.31-16.37-17.8a.61.61,0,0,0,.19-.95c4.39-7.7,11.56-11.38,19.79-13.11,9.71-2,19.54-3.5,29.26-5.5,2.68-.55,7.23.09,5.77-5.32-1.11-4.1-2.08-7.92-8-6.72a157.23,157.23,0,0,1-20.8,3c-9,.6-17.93,3.4-27,1.18-10.66-2.62-13.11-10.47-6.27-19,5.82-7.25,14.3-9.9,22.42-13.06,22.33-8.69,22.36-8.6,8.41-28.27-.15-.22-.5-.29-.76-.42l.06,0c-4.24-7.1-1.8-12.17,4-17.38,43.55-38.89,39.3-98.55,15.31-137.41l0,0a42.67,42.67,0,0,0-10.08-16.21Zm-79.78,283.3c1.3-20.92-5.43-47.78-23.42-71.65-4.1-5.43-7.83-7-14.48-6.35-37.86,3.9-75.51,3.47-112.18-8.49-4.4-1.43-6.74-1-8.93,3.51-6.65,13.71-13.27,27.46-17.66,42-6.95,23.13-9.45,46,2.22,69a64.25,64.25,0,0,1,4.66,47.08c-.66,2.39-1,4.58.55,6.68,12.07,16.21,26.3,29.72,47.5,31.62,28,2.5,54.85-3.37,80.36-14.6,14.36-6.32,24.57-17.47,31.31-31.92C341.12,669.3,341.9,649.49,342.48,621.06Zm92.88-289c1.76-24.24,9.32-46.24,19.75-67.42a35.59,35.59,0,0,0,2.41-8.42c1.75-8.5-1.08-14.9-8.93-19a39.75,39.75,0,0,0-15-4.63c-28.93-2.54-52.54,11.41-76.45,24.47-4.26,2.33-1.49,4.07.78,5.57,5.87,3.86,12,7.37,17.62,11.53,4,2.94,6.3,2.09,9.46-1.26,9.91-10.5,22.59-16.46,36.1-20.84,4.21-1.37,9.21-3.38,11.26,2.36s-2.92,7.35-7.21,8.79c-2.78.93-5.58,1.8-8.27,2.94-8.64,3.65-17.12,7.57-23.95,14.3-2.36,2.33-3.81,4.12-.51,7C407.79,301.11,421.28,316.45,435.36,332.07Zm-26.71,366c-.06,15.18,10.31,24,25.12,21.41,23.37-4.1,44.14-26,47.12-49.59,1.92-15.25-8-25.89-23.06-24.65C433.43,647.29,408.75,673.8,408.65,698.1ZM104.91,646c1.75,19.93,9.29,38.81,26,53,14.57,12.38,28.41,7.14,31.65-11.55a28.27,28.27,0,0,0,.57-7c-1.55-19.79-7.46-37.82-22.23-51.88-6.84-6.52-14.67-13.48-24.71-9.08C106,624,105.34,634.53,104.91,646ZM206.4,255.93c-5.54-6-11.94-7.52-17.5-10.42-4-2.07-8.93-3.91-6.22-9.53s7.51-2.72,11.43-1A82,82,0,0,1,211.56,245c6.82,5.26,17.68,5.11,24.94.43,3.34-2.16,1-3.36-.21-4.59C219,223.65,198.77,214,173.82,217.25c-10.31,1.35-14.31,5.81-14.28,16.53,0,14.44,4.62,28.23,7.12,42.33.44,2.51,1.67,3.86,4.13,1.81C181.35,269.1,192.65,261.41,206.4,255.93ZM315,258c-4.66-.7-6.35.44-6.7,2.75-2.4,16.09-8.44,31.67-6.88,48.28.27,2.94-1.24,7.42,2.9,8.31,3.84.82,6.19-2.74,8-5.79A195.08,195.08,0,0,0,330.86,269c.7-2.27,1.73-4.75-1.39-5.93C324,261,318.46,259.22,315,258Zm-62.1,53.23c11.69-18,18-36.1,23.9-54.35,1-3-.54-4-3.47-4.54-11.38-1.88-18.3,2.49-20.3,13.59C250.48,280.26,248.87,294.63,252.92,311.24Zm318.66,312.1c-13.85,0-18.88,8.14-12.62,20.43a75.37,75.37,0,0,0,4.93,8.24c3.89,5.65,7.51,5.47,11-.57,2-3.53,4.78-6.65,6.74-10.21s7-6.68,3.62-11.42A15.35,15.35,0,0,0,571.58,623.34ZM445.43,607.12c7.33,1,9.92-1.74,7.29-8.87a35.34,35.34,0,0,1-1.48-5.94c-.79-4.29-2.7-5.65-7.33-4.47-10.76,2.75-21.7,4.8-32.55,7.2-2.8.62-6.76,1-6.71,4.37s4.12,3.67,6.84,4.33C422.65,606.44,434.19,605.63,445.43,607.12Zm155.29-28.94c-.27-13.66-1.93-16.39-10.32-15.86-6.28.41-11.55,3.1-12,10.34-.44,6.89,10.37,16.71,18.31,16S598.78,581,600.72,578.18Zm-82.88,93.14c.32,1.8.84,5.55,1.67,9.23.51,2.29,1.42,5,4.48,4.21,5-1.33,11.31-1.89,14.44-5.23s-1.54-8.49-3.15-12.73a11.2,11.2,0,0,0-1.42-2.21c-2.66-3.89-5.42-8.55-10.9-7C517.25,659.16,517.93,664.67,517.84,671.32ZM394.7,557.15c12.74,2.05,24.64-1.22,36.68-3.08,1.86-.29,6.42.14,4.41-4.31-1.65-3.66-2.34-10.52-7.78-8.59C416.46,545.27,404.66,549.37,394.7,557.15Z"/><path class="cls-2" d="M110.41,695.48c4.89,5,9,10.67,14.92,14.65,11.42,7.74,23.25,11.2,36,3.19,2.77-1.75,4.51-1.86,6.51,1,24.87,35,59.55,37.4,97.4,29.21,15.45-3.34,30.92-6.66,44.85-14.63a7.14,7.14,0,0,1,7.4-.37c27.1,13.33,52.39,6.26,76.89-7.34,4.34-2.41,6.94-3.43,11,1.05,8,9,18.89,11.43,30.49,9.41,17.85-3.11,32-12.61,42.73-27,3.25-4.36,6.5-5.65,11.67-5.27a124.83,124.83,0,0,0,36.67-2.31c9.54,4.16,20.21,5.28,29.25,10.82,3,1.82,6.17,3.38,8.85,5.57,8.55,7,8.08,15.93-.79,22.49-11,8.15-23.9,12.19-36.88,15.4C492.18,760,456.44,764.64,420.39,768c-56.95,5.34-114,4.09-170.92,2.54-46.8-1.27-93.53-6.9-139.15-18.73-12.17-3.15-24.14-7-35.26-13.13-14.14-7.8-14.7-18.46-1.47-27.49,10.1-6.89,22.28-8.55,33.08-13.63C108,697,109.16,696.18,110.41,695.48Z"/><path class="cls-3" d="M342.21,563.69l-.36-.27L342,563c1.11-6.1-2.49-10.48-5.49-15.07-2.47-3.79-3.91-6.53,2-9.37,5.58-2.69,6.61-7.63.43-11.82l-.08-.06c3.45-4.68-1.48-9-.46-13.82,1.31-6.11-1.75-9.41-8.18-9.18-2.9-6.49,1.25-5.7,4.7-4.06s6.33,3.7,10.56.84c-5.56-6.21-12.37-6.73-19.24-6-9.74,1-17.85-1.85-26.39-9.22,11.66-2.4,20,5.69,29.93,3.87,3-.56,6.78.83,10.26.23l.56-.36c3.1,6.71,10.27,6,15.61,7.47,8.76,2.44,12.23-2.71,9.17-11.93a.6.6,0,0,1-.34-.92l-1.9-2.36.09.15c-4-6.93-18.36-10.72-25.45-6.71l-4.22-.67c-3.47-7,3.31-4.76,5.79-6.18,2.89-1.66,9.16,3.82,9-2-.14-4.58-6.87-1.76-10.61-2.26a11,11,0,0,0-6.71,1.07c-5.59,3.38-11,3.71-16.07-.36-3.11-2.49-10.54,1.87-9.62-3.53.84-5,8.07-1.87,12.44-2.6.31,1.67.7,3.37,2.94,3,.51-.07,1.39-1.21,1.26-1.52-.79-1.95-2.69-1.28-4.21-1.51,1.5-5.64,6.25-3.64,9.47-3.37,17.14,1.44,32.55-6,48.74-9.25,5.59-1.14,10.71-5.33,8-12.14-2.25-5.69-7.35-6.48-13.74-6.25-13.21.47-25.57,4.95-38.38,7.06-5.63.93-10.42-3.9-15.46-.3-9.91,7.09-21.73,8-33.11,10.42-4,.86-8.93,2.65-8.81,7.15.12,4.07,1.54,9.57,7.37,10.06,4.72.39,2.12,3.84,3.07,5.78l-.05-.07c-2.27.37-4.33,2-3.72,3.93,1.89,6-1.51,8.68-5.05,12.77-3.1,3.58-2.62,9.76,4.46,11.44.53,4.19,4.18,5.83,7.13,7,7.55,3,14.45,7,21.34,11.17,4.12,2.47,7.62,6.32,13,6.14,7.91-.26,6.73,3.07,3,7.44V527c-24.58-.72-48.7,4.85-73.2,5.25a13.86,13.86,0,0,1-7.84-.32,3.58,3.58,0,0,0-3.41-3.32c-6.62-.61-13.3-.86-19.84-2-14.9-2.48-29.08-7.06-41.46-16.1-1.79-1.3-4.53-2.37-3.48-5.32,2.69-7.6-2-7.54-6.6-5.84-3.74,1.39-6.83-1-10.22-.31l-.11,0c3-5,8.37-6.41,13.28-7,5.46-.67,8.16-3.35,10-7.87h0c5.41,0,10.9.55,16.21-.2,3.15-.44,4.28,1.26,3.88,2.87-2.28,9,4.15,9.15,9.84,10.19l1.79,1.66c5.85,4.76,12,7.17,19.2,2.72a5.82,5.82,0,0,1,6.62.41c7.81,5.27,14.7,2,20.44-3.18s8.17-11.72,5.28-19.8c-1.34-3.75-2-7.87-6.6-8-3.87-.08-8.2,2.18-8.86,6-1.63,9.35-5.74,3.89-9.38,2.17-5.17-6.42-9.65-2.33-14.13,1-2.29,1.69-5.87,4.73-6.64.33-1.17-6.73-8.25-8.61-9.75-14.67-.7-2.82-2.66-1.52-4.78-.76-7,2.5-12.14-.23-14.19-6.94.4-.61.8-1.22,1.21-1.83,5.75-3.1,7.87-9.22,11-14.22a8.8,8.8,0,0,0-7.08-13.43c-6.12-.37-12.74-1.95-16.2-5.47-4.74-4.81-8.93-3.41-14.09-4.08-8.89-1.14-16.38-6.55-22.32-13.58,2.11-2.24,4.27-4.46,2.1-8.18-3.32,2.44-1.53,5.58-2.1,8.18-4.91.54-5.37-2.88-5.72-6.41l.13-.67c4.61-.56,4.71-4.21,5.61-7.65,3.83-14.61.09-30.88,9.79-44.25,1-1.42.52-4,.73-6C156,322.88,161.9,307.5,177,296.93c3.66-2.56,4.18-6.09,2.79-10.1l.11-.05,20.18-1.89c-9.46-3-4.2-6.72-4-10l0,.05c2.83.49,5.89,0,8.35,2.07,1.19,1,2.9,1.59,3.69-.15,3.58-8,12-9.25,18.46-12.78,7.24-4,11.69-.41,10,7.53-2,9.33-1.36,18.61-1.41,27.92,0,6.53-.35,13.35,1.33,19.53,2,7.38,9.74,7.6,15.93,8.71,5.57,1,10.36-.81,13.28-6.25,1.28-2.38,3-4.53,4.6-6.94a10.86,10.86,0,0,1,1.46,1.82c1,2.48-1.22,6.22,2.71,7.53a2.19,2.19,0,0,0,2.58-1.82c.87-3.11,3.8-6.34-1.49-8.73-2.94-1.32-1.4-4.25-.29-6.13,2.75-4.66,5.85-9.1,10.12-15.65-.11,7.69,3.75,13.33-2.95,17.66-2.31,1.49-1.45,3.76.11,5.26,2.45,2.34,3.15,5.5,4.64,8.31,7.42,14,18.69,15.8,30.64,6.38,4.64-3.66,6.53-9.06,10.59-13.06,1.48,2.21,2.28,4.25,3.77,5.42,1.74,1.36,5.33.91,3.9-1.6-5.63-9.88.87-18,2.78-26.75,3.32-15.22,9.56-17.44,22.7-9.83,4.75,2.74,2.61,10.17,6.82,10,9.17-.44,12.74,7.51,18.76,11.24s12.54,9.09,15.88,16.91c1.69,4,6.29,6.83,11.58,6.39l0,0c.33,5-1.14,11.43,7.66,9.9l0,.12c-1.12,8.2,3.56,12.78,10.09,16.21l0,.05a18.15,18.15,0,0,0,1.62,11,114.39,114.39,0,0,1,12.11,55.13c-.47,14.2-2.22,28.56-10.31,40.56-7.67,11.38-14.36,23.68-26.4,31.81-6.27,4.23-3.54,14.26,3.64,16.25l-.06,0c-.38,4.12-.82,8.26,3,11.29,5.28,4.24,3.25,7.12-1.7,9.61-5.25,2.64-10.45,4.76-16.63,3-1.68-.48-3.9.94-6.1,1.55,1.73,2.08,4.51-.15,5.71,3.4-8.35.09-13.44,6.06-19.63,10.07-.24-2-.72-4.06-3.07-4.46-1.36-.23-2.05,1-1.77,2.2.63,2.61,2.95,2.06,4.83,2.26-4.37,17.19-2.19,22.33,11.12,25.62a30.89,30.89,0,0,0,7.81.71c12.27-.13,24.14-3.31,36.22-4.94,2.39-.32,6.1-1.67,6.95,1.42,1,3.6-3.12,3.8-5.36,4.15-9.47,1.44-18.67,4.49-28.34,4.73s-15.76,6.6-15.84,16.56a.61.61,0,0,1-.19.95c-3.67,10.29.91,18,13.35,21a171,171,0,0,0,45.63,4.22c1.94-.08,3.55,0,4,2.21.31,1.5,0,3.48-1.48,3.66-6.38.8-10.1,6.85-16.38,7.82-7.61,1.17-13.39,6.92-17.83,11.69-12.63,13.54-25.24,27.67-24.45,48.66.13,3.56-2.6,10.63-9.92,9.88-.36-1.82-.86-3.54-3.3-3-.41.09-1,.83-1,1.15.54,2.49,2.71,1.48,4.26,1.85-.07,2.21-.95,4.06-3,4.92-12.68,5.34-25.07,11.45-39.71,7.8-5.2-1.3-8.45-1.78-2.86-6.7,3.21-2.82,2.24-5.51.57-8.45,0,0,.21-.29.22-.29,4.07-.34,7.46-5.23,12.37-1.35,1.18.94,3-2.23,1.77-3.64-3.63-4.27-2.23-8.57-1.2-13.2,2.71-12.19,3.37-24.71,6.54-36.88A70.91,70.91,0,0,0,359.69,625c-1.54-18.84-5.45-37.35-10.12-55.69C348.46,564.9,346.25,563.45,342.21,563.69ZM188.8,402.91c-.75,8.19,1,9.77,9.31,8.26l3.62,0c7.83,3.36,13.32-3,14.14-7.5,2.51-13.8,7.32-28.35-2.12-41.73-3.38-4.8-8.73-5.39-13.91-5.65-3.5-.17-5.31,2-4.6,5.72l0,0c-8.62,1.92-10,8.82-11.17,16-.36,2.26,1.57,6.93-4,4.68-1.57-.64-3.22-2.23-4.23.21-.85,2.06-.22,4.27,2.37,4.63,6.49.92,5.76,4.67,4.57,9.49-1.08,4.35,0,7.91,5.87,5.34Zm141-29.05.05.05c.47-6.49-3-8.67-9-9.06-5.07-.34-7.76,4.33-11.34,5.15-9.68,2.23-7.63,7.4-8.66,15.05-1.48,11,1.85,20.41,3.34,30.35,1.23,8.26,15.46,13,22.12,8.35,11.25-7.78,17.15-30.94,10.64-43C335.42,377.93,334.22,374.08,329.84,373.86Zm-88.76,47.33c-9.84,0-16.43,5.26-16.52,13.07-.08,7.5,6.4,13.11,15.39,13.3,8.51.18,14.43-4.49,14.5-11.42C254.53,427.43,248.92,421.15,241.08,421.19Zm-50.9,85.86c3.15,5.23,4.69,8.34,8.77,8.27.66,0,2-2.14,1.84-2.36C198.7,510.25,195.63,509.15,190.18,507.05Zm6-13.4c-.48-1.26-1-3-3.09-3.17a2.65,2.65,0,0,0-3,2.48c-.21,2,1.13,3.17,3.06,3.47C194.88,496.7,195.81,495.77,196.15,493.65Zm76.65-20.8c.29-1.38-.42-2-1.28-1.94-.69,0-1.37.6-2,.93.45.58.81,1.5,1.37,1.63S272.24,473.06,272.8,472.85ZM266.14,329c-.22.56-.81,1.33-.67,1.94s1,.95,1.6,1.41c.35-.67.95-1.33,1-2C268.1,329.46,267.53,328.74,266.14,329ZM222.83,469.81c-.69-.83-1.17-1.4-1.64-2-.53.52-1.43,1-1.48,1.56s.73,1.24,1.14,1.87ZM361,582.57c-.45-.2-1-.64-1.32-.52s-.42.82-.61,1.27c.44.2,1,.64,1.3.52S360.77,583,361,582.57Z"/><path class="cls-4" d="M342.48,621.06c-.58,28.43-1.36,48.24-10.07,66.88-6.74,14.45-17,25.6-31.31,31.92-25.51,11.23-52.38,17.1-80.36,14.6-21.2-1.9-35.43-15.41-47.5-31.62-1.56-2.1-1.21-4.29-.55-6.68A64.25,64.25,0,0,0,168,649.08c-11.67-23-9.17-45.82-2.22-69,4.39-14.59,11-28.34,17.66-42,2.19-4.53,4.53-4.94,8.93-3.51,36.67,12,74.32,12.39,112.18,8.49,6.65-.68,10.38.92,14.48,6.35C337.05,573.28,343.78,600.14,342.48,621.06ZM314,609.17c1,13,1.21,25.81-7.5,36.76-4.45,5.6-9.56,9.29-17.28,7.88s-12.61-5.73-15.18-12.92a71.09,71.09,0,0,1-3.91-26.77c.32-8.47,1-16.93,1.34-25.4.15-3.41-.76-6.7-4.77-7.23-3.57-.47-5.42,2.1-5.88,5.24-2.94,19.75-5.39,39.48,2,58.92,4.47,11.83,13.17,18.41,25.32,20.29s21.61-3.52,28.61-13.23c13.95-19.34,10.57-41.13,8.46-62.66-.33-3.36-3.1-5.14-6.35-4.74s-4.81,3-4.81,6.32Zm-123.34-4.43c.45-5.83,1-11.67,1.32-17.51.18-3.15-.64-6-4.24-6.69-4.07-.75-6.23,2-6.65,5.34-2.24,17.7-5.16,35.45.82,53,8.38,24.63,32.63,30.46,51.33,12.36,13.13-12.7,19.72-46.77,12.36-63.64-1.43-3.3-3.53-5.7-7.34-4.56-3.65,1.08-4.57,4.15-4.15,7.7.55,4.65,1.36,9.29,1.56,14,.49,11.83-.34,23.48-7.34,33.65-5,7.24-12.18,11.34-20.88,10.88s-11.4-8.08-14.07-15C189.7,624.69,190.55,614.69,190.68,604.74Z"/><path class="cls-5" d="M435.36,332.07c-14.08-15.62-27.57-31-42.9-44.52-3.3-2.92-1.85-4.71.51-7,6.83-6.73,15.31-10.65,23.95-14.3,2.69-1.14,5.49-2,8.27-2.94,4.29-1.44,9.27-3,7.21-8.79s-7-3.73-11.26-2.36C407.63,256.5,395,262.46,385,273c-3.16,3.35-5.5,4.2-9.46,1.26-5.64-4.16-11.75-7.67-17.62-11.53-2.27-1.5-5-3.24-.78-5.57,23.91-13.06,47.52-27,76.45-24.47a39.75,39.75,0,0,1,15,4.63c7.85,4.05,10.68,10.45,8.93,19a35.59,35.59,0,0,1-2.41,8.42C444.68,285.83,437.12,307.83,435.36,332.07Z"/><path class="cls-3" d="M408.65,698.1c.1-24.3,24.78-50.81,49.18-52.83,15-1.24,25,9.4,23.06,24.65-3,23.62-23.75,45.49-47.12,49.59C419,722.11,408.59,713.28,408.65,698.1Z"/><path class="cls-5" d="M143.63,405.37c5.94,7,13.43,12.44,22.32,13.58,5.16.67,9.35-.73,14.09,4.08,3.46,3.52,10.08,5.1,16.2,5.47a8.8,8.8,0,0,1,7.08,13.43c-3.18,5-5.3,11.12-11,14.22,0-4.71-2.38-7.24-7.05-6.88q-15.75,1.25-31.46,3c-3.87.42-6.83,2.63-6.24,6.95.54,3.92,3.87,5,7.31,4.76,12.26-.83,24.48-2,36.23-6,2.05,6.71,7.2,9.44,14.19,6.94,2.12-.76,4.08-2.06,4.78.76,1.5,6.06,8.58,7.94,9.75,14.67.77,4.4,4.35,1.36,6.64-.33,4.48-3.29,9-7.38,14.13-1l-.88.91c-4.87-2.23-8.31-.24-11.31,3.63-4.71,6.09-8.66,4.59-12-1.46-.7-1.27-1.18-2.67-1.91-3.92-1.59-2.72-3.7-4.79-7.1-3.25-3.1,1.42-3.64,4.07-3.06,7.35,1,5.77,4.71,9.89,8.2,14.17l-.48.55c-5.69-1-12.12-1.17-9.84-10.19.4-1.61-.73-3.31-3.88-2.87-5.31.75-10.8.21-16.21.21,3.06-2.88,7.12-3.84,10.72-5.69,3.1-1.59,5.4-3.87,3.93-7.67s-4.73-3.88-8-2.53c-9.19,3.74-18.4,7.43-27.48,11.43-3.37,1.48-6.11,4.17-4.21,8.32,2.07,4.54,5.89,4,9.72,2.41l15.33-6.29c-1.85,4.52-4.55,7.2-10,7.87-4.91.6-10.28,2-13.28,7a108.69,108.69,0,0,1-35.64-51c-3.46-10.41-2.53-20.77,3.48-30.38,3.86-6.17,7.51-12.48,11.25-18.74.35,3.53.81,7,5.72,6.41Zm49.09,38.94c4.45.39,7.32-.44,7.82-4,.61-4.43-2.76-6-6.23-7.19-16.86-5.79-33.74-11.51-50.57-17.4-4-1.38-7.82-2.06-9.78,2.41-2.28,5.21,1.76,7.64,5.7,9,13.25,4.61,26.6,8.9,39.93,13.25C184.31,441.89,189.09,443.22,192.72,444.31Z"/><path class="cls-3" d="M104.91,646c.43-11.49,1.09-22,11.3-26.46,10-4.4,17.87,2.56,24.71,9.08,14.77,14.06,20.68,32.09,22.23,51.88a28.27,28.27,0,0,1-.57,7c-3.24,18.69-17.08,23.93-31.65,11.55C114.2,684.83,106.66,666,104.91,646Z"/><path class="cls-3" d="M529.45,645,529,645c-6.29-5-12.59-1.8-17.47,1.57-5.45,3.77-9.49,9.61-6,17.26,0,1.23-.07,2.45-.11,3.68-2.08,2.92-1,6.23-1.13,9.37-.13,4-.21,8.19-5.71,7.82s-5.58-5.06-4.56-8.58c2-7,.9-13.74-.13-20.7-.94-6.35-7.6-14.2,3.43-18.45l.49.07c4.83.4,9.48.43,11.14-5.55v.11l2.26-1.3-.06,0c2.68.22,5.19.18,5.35-3.48l0,0c4.37.22,7.73-.92,8.09-6.06h.55l-.55.07c4.43-.23,7.74-1.7,7.58-6.93l1.4-1.3c6.79-.74,9.45-5,9.6-11.34l1.76-2.43c2.66-.4,5.41-1.17,6.46-3.76,7.53-18.64,13.4-37.51,6.43-57.77.14-1.17.29-2.35.43-3.52,5.81-6.36,12.49-8.81,20.92-5.27,5.23,2.19,7.68,6.83,11.06,10.79,4.63,5.44,5.31,7.66-3.27,8.85-5.06.71-13.15-.49-14,8.44h0c-4.12-.7-5.62,2.11-7.07,5.15-4.37,9.08-2.26,21.84,5,28.81,5.09,4.89,10.55,9,17.84,10.47,3.23.63,5.67,3.21,4.73,7.2-1.06,4.47-4.05,4.15-7.45,2.94-1.36-.48-3.2-.24-4.18-1.08-10.83-9.26-19.49.65-28.93,3.21-2.1.57-2.9,2.75-2.67,5h0c-4.49-.69-8.65,1.44-8.47,5.44.29,6.33-4.61,13.89,3.18,19l.14.66c-.31,4.3-.62,8.58,5.11,9.68l-.06.05c.53.63,1.05,1.27,1.57,1.91l0,.05c0,2.65.13,5.14,3.77,5l0,0c-.15,3.31-.59,6.64.9,9.81l-.37.28c-3.32-1.37-5.63-3.42-6.61-7.19-.67-2.58-1.64-5.71-5.46-5.61H544a1.86,1.86,0,0,0-1.38-2.25l.07.11c.1-1.72-.2-3.14-2.34-3.22l.22.22c.07-2-1.25-2.46-2.88-2.54l-.06-.05C537,644.56,533.52,644.29,529.45,645Z"/><path class="cls-5" d="M206.4,255.93c-13.75,5.48-25.05,13.17-35.61,22-2.46,2.05-3.69.7-4.13-1.81-2.5-14.1-7.09-27.89-7.12-42.33,0-10.72,4-15.18,14.28-16.53,25-3.25,45.19,6.4,62.47,23.61,1.24,1.23,3.55,2.43.21,4.59-7.26,4.68-18.12,4.83-24.94-.43A82,82,0,0,0,194.11,235c-3.92-1.7-8.68-4.67-11.43,1s2.25,7.46,6.22,9.53C194.46,248.41,200.86,250,206.4,255.93Z"/><path class="cls-5" d="M414.62,327.88c-5.29.44-9.89-2.42-11.58-6.39-3.34-7.82-9.71-13.08-15.88-16.91s-9.59-11.68-18.76-11.24c-4.21.21-2.07-7.22-6.82-10-13.14-7.61-19.38-5.39-22.7,9.83C337,302,330.47,310.08,336.1,320c1.43,2.51-2.16,3-3.9,1.6-1.49-1.17-2.29-3.21-3.77-5.42-4.06,4-5.95,9.4-10.59,13.06-11.95,9.42-23.22,7.61-30.64-6.38-1.49-2.81-2.19-6-4.64-8.31-1.56-1.5-2.42-3.77-.11-5.26,6.7-4.33,2.84-10,2.95-17.66-4.27,6.55-7.37,11-10.12,15.65-1.11,1.88-2.65,4.81.29,6.13,5.29,2.39,2.36,5.62,1.49,8.73a2.19,2.19,0,0,1-2.58,1.82c-3.93-1.31-1.68-5.05-2.71-7.53a10.86,10.86,0,0,0-1.46-1.82c-1.61,2.41-3.32,4.56-4.6,6.94-2.92,5.44-7.71,7.24-13.28,6.25-6.19-1.11-13.92-1.33-15.93-8.71-1.68-6.18-1.36-13-1.33-19.53.05-9.31-.61-18.59,1.41-27.92,1.72-7.94-2.73-11.49-10-7.53-6.46,3.53-14.88,4.81-18.46,12.78-.79,1.74-2.5,1.16-3.69.15-2.46-2.11-5.52-1.58-8.35-2.07,12.39-9.47,27.33-12.81,41.79-17.3,5.9-1.83,4.68,2.17,4,5.26-2.31,10.61-4,21.27-3.71,32.17.21,7.35.8,14.65,4.34,21.29,4.81,9,13,10.17,19.91,2.63,5.43-5.9,8.51-13.29,11.43-20.61,5-12.48,9.48-25.16,14.45-37.65,1.15-2.89,1.21-8,6.34-6.68,5.95,1.55,1.88,6,1.24,8.61-3.94,15.93-7.79,31.78-6.76,48.43.56,8.86,3,16.58,12.21,19.25s14.75-3.67,19.44-10.28c9.41-13.28,14.32-28.74,20.26-43.64,2.21-5.56,4.19-7.43,9.88-4C375.51,287.07,396.94,305.31,414.62,327.88Z"/><path class="cls-5" d="M337.84,703.7c1.67,2.94,2.64,5.63-.57,8.45-5.59,4.92-2.34,5.4,2.86,6.7,14.64,3.65,27-2.46,39.71-7.8,2-.86,2.92-2.71,3-4.92h0c7.32.75,10.05-6.32,9.92-9.88-.79-21,11.82-35.12,24.45-48.66,4.44-4.77,10.22-10.52,17.83-11.69,6.28-1,10-7,16.38-7.82,1.52-.18,1.79-2.16,1.48-3.66-.45-2.22-2.06-2.29-4-2.21A171,171,0,0,1,403.27,618c-12.44-2.91-17-10.66-13.35-21,1.44,10.49,5.45,14.85,16.37,17.8,14.32,3.87,29,3.42,43.66,4,4.91.2,7.37,1.68,8.12,6.84.74,5,.05,7.52-5.63,8.18-25.59,3-57.66,34.82-55.8,66.72.17,2.8-.2,5.25-2.85,6.83-19.85,11.82-40.46,20.14-64.21,13.9a36.19,36.19,0,0,1-4.78-2.16Z"/><path class="cls-6" d="M315,258c3.44,1.21,9,3,14.45,5.09,3.12,1.18,2.09,3.66,1.39,5.93a195.08,195.08,0,0,1-18.52,42.53c-1.81,3.05-4.16,6.61-8,5.79-4.14-.89-2.63-5.37-2.9-8.31-1.56-16.61,4.48-32.19,6.88-48.28C308.67,258.45,310.36,257.31,315,258Z"/><path class="cls-5" d="M390.11,596.08c.08-10,6.13-16.32,15.84-16.56s18.87-3.29,28.34-4.73c2.24-.35,6.35-.55,5.36-4.15-.85-3.09-4.56-1.74-6.95-1.42-12.08,1.63-23.95,4.81-36.22,4.94a30.89,30.89,0,0,1-7.81-.71c-13.31-3.29-15.49-8.43-11.12-25.62h0c6.19-4,11.28-10,19.63-10.07-1.2-3.55-4-1.32-5.71-3.4,2.2-.61,4.42-2,6.1-1.55,6.18,1.74,11.38-.38,16.63-3,5-2.49,7-5.37,1.7-9.61-3.78-3-3.34-7.17-3-11.29.26.13.61.2.76.42,14,19.67,13.92,19.58-8.41,28.27-8.12,3.16-16.6,5.81-22.42,13.06-6.84,8.52-4.39,16.37,6.27,19,9.05,2.22,18-.58,27-1.18a157.23,157.23,0,0,0,20.8-3c5.92-1.2,6.89,2.62,8,6.72,1.46,5.41-3.09,4.77-5.77,5.32-9.72,2-19.55,3.46-29.26,5.5C401.67,584.7,394.5,588.38,390.11,596.08Z"/><path class="cls-6" d="M252.92,311.24c-4-16.61-2.44-31,.13-45.3,2-11.1,8.92-15.47,20.3-13.59,2.93.49,4.43,1.58,3.47,4.54C270.93,275.14,264.61,293.2,252.92,311.24Z"/><path class="cls-5" d="M413,508.92c-7.18-2-9.91-12-3.64-16.25,12-8.13,18.73-20.43,26.4-31.81,8.09-12,9.84-26.36,10.31-40.56A114.39,114.39,0,0,0,434,365.17a18.15,18.15,0,0,1-1.62-11c24,38.85,28.24,98.51-15.31,137.4C411.21,496.75,408.77,501.82,413,508.92Z"/><path class="cls-6" d="M571.58,623.34a15.35,15.35,0,0,1,13.68,6.47c3.33,4.74-1.66,7.88-3.62,11.42s-4.7,6.68-6.74,10.21c-3.5,6-7.12,6.22-11,.57a75.37,75.37,0,0,1-4.93-8.24C552.7,631.48,557.73,623.39,571.58,623.34Z"/><path class="cls-6" d="M445.43,607.12c-11.24-1.49-22.78-.68-33.94-3.38-2.72-.66-6.8-1-6.84-4.33s3.91-3.75,6.71-4.37c10.85-2.4,21.79-4.45,32.55-7.2,4.63-1.18,6.54.18,7.33,4.47a35.34,35.34,0,0,0,1.48,5.94C455.35,605.38,452.76,608.16,445.43,607.12Z"/><path class="cls-5" d="M342.21,563.69c4-.24,6.25,1.21,7.36,5.58,4.67,18.34,8.58,36.85,10.12,55.69a70.91,70.91,0,0,1-2.15,23.38c-3.17,12.17-3.83,24.69-6.54,36.88-1,4.63-2.43,8.93,1.2,13.2,1.19,1.41-.59,4.58-1.77,3.64-4.91-3.88-8.3,1-12.37,1.35C360,657.45,359.65,610.82,342.21,563.69Z"/><path class="cls-5" d="M179.79,286.83c1.39,4,.87,7.54-2.79,10.1-15.1,10.57-21,25.95-22.83,43.48-.21,2,.3,4.56-.73,6-9.7,13.37-6,29.64-9.79,44.25-.9,3.44-1,7.09-5.61,7.65,5.08-18.07,4.93-37,9-55.23C152.08,320.9,161.21,301.11,179.79,286.83Z"/><path class="cls-6" d="M600.72,578.18c-1.94,2.86,3.77,9.71-4,10.44s-18.75-9.07-18.31-16c.47-7.24,5.74-9.93,12-10.34C598.79,561.79,600.45,564.52,600.72,578.18Z"/><path class="cls-6" d="M517.84,671.32c.09-6.65-.59-12.16,5.12-13.75,5.48-1.53,8.24,3.13,10.9,7a11.2,11.2,0,0,1,1.42,2.21c1.61,4.24,6.28,9.38,3.15,12.73s-9.42,3.9-14.44,5.23c-3.06.81-4-1.92-4.48-4.21C518.68,676.87,518.16,673.12,517.84,671.32Z"/><path class="cls-5" d="M550.13,618.41c-.23-2.28.57-4.46,2.67-5,9.44-2.56,18.1-12.47,28.93-3.21,1,.84,2.82.6,4.18,1.08,3.4,1.21,6.39,1.53,7.45-2.94.94-4-1.5-6.57-4.73-7.2-7.29-1.44-12.75-5.58-17.84-10.47-7.28-7-9.39-19.73-5-28.81,1.45-3,3-5.85,7.07-5.15-12.15,18.78-5.88,34.2,17.09,41.86,4.08,1.36,8.7,1.51,7.21,8.28-2.3,10.42-3.54,11.36-13.08,7C571.77,608.19,560.75,611.8,550.13,618.41Z"/><path class="cls-6" d="M394.7,557.15c10-7.78,21.76-11.88,33.31-16,5.44-1.93,6.13,4.93,7.78,8.59,2,4.45-2.55,4-4.41,4.31C419.34,555.93,407.44,559.2,394.7,557.15Z"/><path class="cls-5" d="M325,527.11c3.76-4.37,4.94-7.7-3-7.44-5.36.18-8.86-3.67-13-6.14-6.89-4.15-13.79-8.19-21.34-11.17-2.95-1.16-6.6-2.8-7.13-7l.55-.62c13.79,6.77,27.56,13.59,41.39,20.28,3.83,1.84,8.19,4.8,11.63-.16,3.68-5.29-1.64-7.56-4.42-10.56l.51-.64c6.43-.23,9.49,3.07,8.18,9.18-1,4.79,3.91,9.14.46,13.82C334.17,525.1,329.61,527.37,325,527.11Z"/><path class="cls-5" d="M158.93,499.08c3.39-.7,6.48,1.7,10.22.31,4.58-1.7,9.29-1.76,6.6,5.84-1.05,2.95,1.69,4,3.48,5.32,12.38,9,26.56,13.62,41.46,16.1,6.54,1.09,13.22,1.34,19.84,2a3.58,3.58,0,0,1,3.41,3.32C211.83,530.75,182.19,523.17,158.93,499.08Z"/><path class="cls-5" d="M572.84,556.68c.88-8.93,9-7.73,14-8.44,8.58-1.19,7.9-3.41,3.27-8.85-3.38-4-5.83-8.6-11.06-10.79-8.43-3.54-15.11-1.09-20.92,5.27-.92-7.27,3.18-9.9,9.6-10.53,12.47-1.21,27.19,10.22,29.45,22.71.63,3.51-.27,5-3.9,4.57C585.6,549.65,579.11,552.79,572.84,556.68Z"/><path class="cls-5" d="M497.26,637c-11,4.25-4.37,12.1-3.43,18.45,1,7,2.15,13.65.13,20.7-1,3.52-1,8.2,4.56,8.58s5.58-3.81,5.71-7.82c.11-3.14-1-6.45,1.13-9.37.6,3.14,1.14,6.29,1.81,9.42,2.18,10.16,2.17,9.76-8.25,10.27-7.55.37-10.24-.75-7.63-9.31,3.33-10.9,2.33-22.19-4.65-31.78-3.7-5.09-2.83-6.73,3-7.34A56.76,56.76,0,0,0,497.26,637Z"/><path class="cls-5" d="M557.73,537.39c7,20.26,1.1,39.13-6.43,57.77-1,2.59-3.8,3.36-6.46,3.76C557.12,580.08,558.13,558.88,557.73,537.39Z"/><path class="cls-5" d="M251.78,532.24c24.5-.4,48.62-6,73.2-5.25C300.92,533.44,276.49,534.8,251.78,532.24Z"/><path class="cls-5" d="M338.93,526.73c6.18,4.19,5.15,9.13-.43,11.82-5.93,2.84-4.49,5.58-2,9.37,3,4.59,6.6,9,5.49,15.07-4.1-6.26-8-12.65-12.38-18.74-2.89-4.07-2.07-5.81,2.64-7C337.45,535.9,342.93,534.18,338.93,526.73Z"/><path class="cls-5" d="M544.85,642.84c-7.79-5.11-2.89-12.67-3.18-19-.18-4,4-6.13,8.47-5.44C543.61,625.51,542.62,633.83,544.85,642.84Z"/><path class="cls-5" d="M196.13,274.88c-.25,3.29-5.51,7,4,10l-20.18,1.89A40.55,40.55,0,0,1,196.13,274.88Z"/><path class="cls-5" d="M505.47,663.86c-3.47-7.65.57-13.49,6-17.26,4.88-3.37,11.18-6.59,17.47-1.57C514,644.92,509.45,648.55,505.47,663.86Z"/><path class="cls-5" d="M432.39,354.09c-6.53-3.43-11.21-8-10.09-16.21A42.57,42.57,0,0,1,432.39,354.09Z"/><path class="cls-5" d="M543.83,657.5c3.82-.1,4.79,3,5.46,5.61,1,3.77,3.29,5.82,6.61,7.19-2.16,3.39-4.19,3.87-6.1-.23S545.82,661.69,543.83,657.5Z"/><path class="cls-5" d="M543.08,601.35c-.15,6.37-2.81,10.6-9.6,11.34Z"/><path class="cls-5" d="M422.26,337.76c-8.8,1.53-7.33-4.88-7.66-9.9A30.24,30.24,0,0,1,422.26,337.76Z"/><path class="cls-5" d="M556.27,670c-1.49-3.17-1-6.5-.9-9.81C558.9,663.18,565.67,665.87,556.27,670Z"/><path class="cls-5" d="M508.89,631.52c-1.66,6-6.31,6-11.14,5.55Z"/><path class="cls-5" d="M524.5,620.84c-.36,5.14-3.72,6.28-8.09,6.06A19.2,19.2,0,0,1,524.5,620.84Z"/><path class="cls-5" d="M550.1,653.18c-5.73-1.1-5.42-5.38-5.11-9.68C547.13,646.5,549.26,649.5,550.1,653.18Z"/><path class="cls-5" d="M532.08,614c.16,5.23-3.15,6.7-7.58,6.93C526.26,617.77,529.15,615.86,532.08,614Z"/><path class="cls-5" d="M529.45,645c4.07-.68,7.57-.41,8.18,4.8Z"/><path class="cls-5" d="M516.44,626.87c-.16,3.66-2.67,3.7-5.35,3.48A7.43,7.43,0,0,1,516.44,626.87Z"/><path class="cls-5" d="M555.41,660.23c-3.64.1-3.8-2.39-3.77-5A8,8,0,0,1,555.41,660.23Z"/><path class="cls-5" d="M540.35,652.14c2.14.08,2.44,1.5,2.34,3.22A4,4,0,0,1,540.35,652.14Z"/><path class="cls-5" d="M537.69,649.82c1.63.08,2.95.52,2.88,2.54A3.7,3.7,0,0,1,537.69,649.82Z"/><path class="cls-5" d="M511.15,630.33l-2.26,1.3Z"/><path class="cls-5" d="M551.61,655.14c-.52-.64-1-1.28-1.57-1.91Z"/><path class="cls-5" d="M542.62,655.25A1.86,1.86,0,0,1,544,657.5C543.53,656.75,543.08,656,542.62,655.25Z"/><path class="cls-5" d="M284.91,467.3c-1-1.94,1.65-5.39-3.07-5.78-5.83-.49-7.25-6-7.37-10.06-.12-4.5,4.76-6.29,8.81-7.15,11.38-2.42,23.2-3.33,33.11-10.42,5-3.6,9.83,1.23,15.46.3,12.81-2.11,25.17-6.59,38.38-7.06,6.39-.23,11.49.56,13.74,6.25,2.7,6.81-2.42,11-8,12.14-16.19,3.29-31.6,10.69-48.74,9.25-3.22-.27-8-2.27-9.47,3.37h0c-4.37.73-11.6-2.37-12.44,2.6-.92,5.4,6.51,1,9.62,3.53,5.09,4.07,10.48,3.74,16.07.36a11,11,0,0,1,6.71-1.07c3.74.5,10.47-2.32,10.61,2.26.17,5.79-6.1.31-9,2-2.48,1.42-9.26-.87-5.79,6.18-8.2-.35-15.85-3.61-23.88-4.72C301.48,468.11,293.47,464,284.91,467.3Zm1.28-8.51q43.05-8,86.09-16.08c4.1-.77,7.45-3.06,6.15-7.82s-5.19-4.84-9.29-4.05c-8.32,1.59-16.68,3-25,4.62-19.48,3.89-38.93,7.89-58.38,11.86-3.65.74-7.11,2-6.82,6.52S282.72,458.41,286.19,458.79Z"/><path class="cls-1" d="M201.73,411.2l-3.62,0c-4.16-1.56-6.72-4.92-9.31-8.26l-.22-.55c-4.31-14.51-3.22-28.15,6.63-40.34h0c5.57-1.64,10.89-2.22,15.21,2.94C220.93,377.49,216.16,402.92,201.73,411.2Z"/><path class="cls-1" d="M284.91,467.3c8.56-3.35,16.57.81,24.76,1.94,8,1.11,15.68,4.37,23.88,4.72l4.22.67,25.45,6.71-.09-.15c.64.78,1.27,1.57,1.9,2.36a.6.6,0,0,0,.34.92c-.08,6.3-3.69,8.07-9.29,7.16-5.17-.84-10.33-1.79-15.49-2.7l-.56.36c-15.35-5.59-31.5-8-47.33-11.58-5.8-1.33-10.2-3.26-7.84-10.48Z"/><path class="cls-5" d="M284.86,467.23c-2.36,7.22,2,9.15,7.84,10.48,15.83,3.62,32,6,47.33,11.58-3.48.6-7.25-.79-10.26-.23-9.92,1.82-18.27-6.27-29.93-3.87,8.54,7.37,16.65,10.2,26.39,9.22,6.87-.69,13.68-.17,19.24,6-4.23,2.86-7.16.77-10.56-.84s-7.6-2.43-4.7,4.06l-.51.64q-20.2-9.13-40.42-18.24c-3.19-1.44-6.64-3.33-9.56.05-2.68,3.11-.3,5.93,1.38,8.63l-.55.62c-7.08-1.68-7.56-7.86-4.46-11.44,3.54-4.09,6.94-6.78,5.05-12.77C280.53,469.21,282.59,467.6,284.86,467.23Z"/><path class="cls-5" d="M329.84,373.86c4.38.22,5.58,4.07,7.13,6.93,6.51,12,.61,35.18-10.64,43-6.66,4.61-20.89-.09-22.12-8.35-1.49-9.94-4.82-19.36-3.34-30.35,1-7.65-1-12.82,8.66-15.05,3.58-.82,6.27-5.49,11.34-5.15,6,.39,9.49,2.57,9,9.06-10.71-7.36-18.34-5.09-23,7.2-3.65,9.66-3.36,19.55-.13,29.28,1.95,5.87,5.49,10.73,12.27,10.91,7.25.2,10.75-4.89,13.19-11C337.3,397.77,335.56,385.69,329.84,373.86Z"/><path class="cls-1" d="M191.06,458c-11.75,4-24,5.13-36.23,6-3.44.23-6.77-.84-7.31-4.76-.59-4.32,2.37-6.53,6.24-6.95q15.7-1.74,31.46-3c4.67-.36,7.05,2.17,7.05,6.88C191.86,456.76,191.46,457.37,191.06,458Z"/><path class="cls-5" d="M240.55,479.06c3.64,1.72,7.75,7.18,9.38-2.17.66-3.83,5-6.09,8.86-6,4.57.1,5.26,4.22,6.6,8,2.89,8.08.36,14.69-5.28,19.8s-12.63,8.45-20.44,3.18a5.82,5.82,0,0,0-6.62-.41c-7.18,4.45-13.35,2-19.2-2.72.29-.32.59-.65.87-1,4.78,1.51,9.75,3,14.45.51,4.18-2.18,7.35-1.19,11.32.71,10.06,4.79,20.26-.7,22.48-11.8.84-4.2,2-9.38-3.51-11.21-6-2-7.23,3-8.32,7.36-.49,2-.85,4.22-3.24,4.69-2.81.55-4.11-1.62-5.38-3.61-.94-1.47-1.9-2.93-2.85-4.39Z"/><path class="cls-5" d="M201.73,411.2c14.43-8.28,19.2-33.71,8.72-46.23-4.32-5.16-9.64-4.58-15.21-2.94-.71-3.71,1.1-5.88,4.6-5.71,5.18.26,10.53.85,13.91,5.65,9.44,13.38,4.63,27.93,2.12,41.73C215.05,408.22,209.56,414.56,201.73,411.2Z"/><path class="cls-5" d="M241.08,421.19c7.84,0,13.45,6.24,13.37,14.95-.07,6.93-6,11.6-14.5,11.42-9-.19-15.47-5.8-15.39-13.3C224.65,426.45,231.24,421.23,241.08,421.19Zm-.81,23c5.76-1,10.91-2.76,11.2-9.89.24-5.84-5.09-10.16-12.06-9.71-6,.4-11.58,2.49-11.4,9.49S233.8,443.5,240.27,444.15Z"/><path class="cls-5" d="M195.21,362c-9.85,12.19-10.94,25.83-6.63,40.34-5.9,2.57-6.94-1-5.86-5.34,1.19-4.82,1.92-8.57-4.57-9.49-2.59-.36-3.22-2.57-2.37-4.63,1-2.44,2.66-.85,4.23-.21,5.6,2.25,3.67-2.42,4-4.68C185.19,370.84,186.59,363.94,195.21,362Z"/><path class="cls-5" d="M340.59,488.93c5.16.91,10.32,1.86,15.49,2.7,5.6.91,9.21-.86,9.29-7.16,3.06,9.22-.41,14.37-9.17,11.93C350.86,494.91,343.69,495.64,340.59,488.93Z"/><path class="cls-5" d="M363.22,481.34l-25.45-6.71C344.86,470.62,359.24,474.41,363.22,481.34Z"/><path class="cls-5" d="M190.18,507.05c5.45,2.1,8.52,3.2,10.61,5.91.17.22-1.18,2.35-1.84,2.36C194.87,515.39,193.33,512.28,190.18,507.05Z"/><path class="cls-5" d="M188.8,402.91c2.59,3.34,5.15,6.7,9.31,8.26C189.83,412.68,188.05,411.1,188.8,402.91Z"/><path class="cls-5" d="M196.15,493.65c-.34,2.12-1.27,3.05-3,2.78-1.93-.3-3.27-1.46-3.06-3.47a2.65,2.65,0,0,1,3-2.48C195.2,490.66,195.67,492.39,196.15,493.65Z"/><path class="cls-5" d="M143.63,405.37c.57-2.6-1.22-5.74,2.1-8.18,2.17,3.72,0,5.94-2.1,8.18Z"/><path class="cls-5" d="M377.55,547.83c-1.88-.2-4.2.35-4.83-2.26-.28-1.17.41-2.43,1.77-2.2,2.35.4,2.83,2.42,3.07,4.46Z"/><path class="cls-5" d="M272.8,472.85c-.56.21-1.35.78-2,.62s-.92-1.05-1.37-1.63c.68-.33,1.36-.92,2-.93C272.38,470.89,273.09,471.47,272.8,472.85Z"/><path class="cls-5" d="M266.14,329c1.39-.25,2,.47,1.91,1.33,0,.69-.63,1.35-1,2-.57-.46-1.47-.85-1.6-1.41S265.92,329.55,266.14,329Z"/><path class="cls-5" d="M222.83,469.81l-2,1.45c-.41-.63-1.18-1.28-1.14-1.87s.95-1,1.48-1.56C221.66,468.41,222.14,469,222.83,469.81Z"/><path class="cls-5" d="M317.75,458.14c1.52.23,3.42-.44,4.21,1.51.13.31-.75,1.45-1.26,1.52-2.24.33-2.63-1.37-2.94-3Z"/><path class="cls-5" d="M382.83,706.13c-1.55-.37-3.72.64-4.26-1.85-.07-.32.56-1.06,1-1.15,2.44-.55,2.94,1.17,3.3,3Z"/><path class="cls-5" d="M361,582.57c-.2.45-.3,1.14-.63,1.27s-.86-.32-1.3-.52c.19-.45.29-1.14.61-1.27S360.52,582.37,361,582.57Z"/><path class="cls-5" d="M213.85,498.7,212.06,497l.48-.55,2.18,1.22C214.44,498.05,214.14,498.38,213.85,498.7Z"/><path class="cls-5" d="M365,483.55c-.63-.79-1.26-1.58-1.9-2.36Z"/><path class="cls-1" d="M314,609.17V591.63c0-3.34,1.46-5.9,4.81-6.32s6,1.38,6.35,4.74c2.11,21.53,5.49,43.32-8.46,62.66-7,9.71-16.33,15.14-28.61,13.23s-20.85-8.46-25.32-20.29c-7.34-19.44-4.89-39.17-2-58.92.46-3.14,2.31-5.71,5.88-5.24,4,.53,4.92,3.82,4.77,7.23-.35,8.47-1,16.93-1.34,25.4a71.09,71.09,0,0,0,3.91,26.77c2.57,7.19,7.51,11.52,15.18,12.92s12.83-2.28,17.28-7.88C315.23,635,315.06,622.12,314,609.17Z"/><path class="cls-1" d="M190.68,604.75c-.13,9.94-1,19.94,2.72,29.52,2.67,6.9,5.23,14.52,14.07,15s15.89-3.64,20.88-10.88c7-10.17,7.83-21.82,7.34-33.65-.2-4.66-1-9.3-1.56-14-.42-3.55.5-6.62,4.15-7.7,3.81-1.14,5.91,1.26,7.34,4.56,7.36,16.87.77,50.94-12.36,63.64-18.7,18.1-42.95,12.27-51.33-12.36-6-17.58-3.06-35.33-.82-53,.42-3.33,2.58-6.09,6.65-5.34,3.6.67,4.42,3.54,4.24,6.69C191.65,593.07,191.13,598.91,190.68,604.75Z"/><path class="cls-1" d="M214.72,497.71l-2.18-1.22c-3.49-4.28-7.17-8.4-8.2-14.17-.58-3.28,0-5.93,3.06-7.35,3.4-1.54,5.51.53,7.1,3.25.73,1.25,1.21,2.65,1.91,3.92,3.29,6.05,7.24,7.55,12,1.46,3-3.87,6.44-5.86,11.31-3.63,1,1.46,1.91,2.92,2.85,4.39,1.27,2,2.57,4.16,5.38,3.61,2.39-.47,2.75-2.71,3.24-4.69,1.09-4.4,2.29-9.34,8.32-7.36,5.54,1.83,4.35,7,3.51,11.21-2.22,11.1-12.42,16.59-22.48,11.8-4-1.9-7.14-2.89-11.32-.71C224.47,500.67,219.5,499.22,214.72,497.71Z"/><path class="cls-1" d="M192.72,444.31c-3.63-1.09-8.41-2.42-13.13-4-13.33-4.35-26.68-8.64-39.93-13.25-3.94-1.37-8-3.8-5.7-9,2-4.47,5.82-3.79,9.78-2.41,16.83,5.89,33.71,11.61,50.57,17.4,3.47,1.19,6.84,2.76,6.23,7.19C200,443.87,197.17,444.7,192.72,444.31Z"/><path class="cls-1" d="M182.11,484.17l-15.33,6.29c-3.83,1.57-7.65,2.13-9.72-2.41-1.9-4.15.84-6.84,4.21-8.32,9.08-4,18.29-7.69,27.48-11.43,3.3-1.35,6.5-1.42,8,2.53s-.83,6.08-3.93,7.67c-3.6,1.85-7.66,2.81-10.72,5.69Z"/><path class="cls-1" d="M281.1,494.75c-1.68-2.7-4.06-5.52-1.38-8.63,2.92-3.38,6.37-1.49,9.56-.05q20.22,9.1,40.42,18.24c2.78,3,8.1,5.27,4.42,10.56-3.44,5-7.8,2-11.63.16C308.66,508.34,294.89,501.52,281.1,494.75Z"/><path class="cls-1" d="M286.19,458.79c-3.47-.38-7-.61-7.23-5s3.17-5.78,6.82-6.52c19.45-4,38.9-8,58.38-11.86,8.3-1.66,16.66-3,25-4.62,4.1-.79,8-.57,9.29,4.05s-2.05,7.05-6.15,7.82Q329.26,450.86,286.19,458.79Z"/><path class="cls-1" d="M329.84,373.86c5.72,11.83,7.46,23.91,2.41,36.47-2.44,6.08-5.94,11.17-13.19,11-6.78-.18-10.32-5-12.27-10.91-3.23-9.73-3.52-19.62.13-29.28,4.63-12.29,12.26-14.56,23-7.2Z"/><path class="cls-1" d="M240.27,444.15c-6.47-.65-12.07-3-12.26-10.11s5.41-9.09,11.4-9.49c7-.45,12.3,3.87,12.06,9.71C251.18,441.39,246,443.19,240.27,444.15Z"/></svg>