<svg id="Capa_1" data-name="Capa 1" xmlns="http://www.w3.org/2000/svg" viewBox="0 0 667.71 1024"><defs><style>.cls-1{fill:#1f1916;}.cls-2{fill:#efb7be;}.cls-3{fill:#abb7cd;}.cls-4{fill:#e99e9c;}.cls-5{fill:#f3c5c7;}.cls-6{fill:#fbe5e8;}</style></defs><path class="cls-1" d="M591.33,707C579,733.46,555.41,741.43,529,744.6c-18.86,2.26-37.51-.73-56.18-2.72-8.19-.87-16.38-1.8-24.61-.8-15.3,1.85-23.42,10.18-24.9,25.37C423,770,421.9,773,418,773.39c-4.34.4-6.25-2.47-6.82-6.42-1-7.32.77-13.93,4.78-20.09,1.57-2.4,4.25-4.17,4.46-7.39a65.18,65.18,0,0,1,46-10.82c5.81.75,11.69,1,17.54,1.43a118.57,118.57,0,0,0,32.26,2.9c18.18-.69,36.25-2.49,51.07-15,1,0,1.54-.33,1.46-1.38l1.9-2.21-.18.19,1.94-1.95-.16.18,1.69-1.94c3-1.87,3.81-5.13,4.76-8.12,7-22.08-6.48-47.4-29.39-55.49-5.83-3.55-12.35-4.85-19-5.66-2.85-.35-6.24-.94-5.63,3.92-.75,1.88-1.58,3.74-2.25,5.65-6.93,20-18.21,37-35.89,49-13.64,9.22-28.33,13.44-43.64,3.46-3.54-2.3-6.15-.75-9,.53a215.83,215.83,0,0,1-32.24,11.87c-47.21,12.62-94.8,12.23-142.69,4.6-24-3.82-46.44-10.83-64.45-28-4.21-4-6.67-6.93-11.45,0-4.39,6.36-11.9,8.17-19.81,6.68a46.81,46.81,0,0,1-21.92-10.7C129,678.17,119.92,665.34,113,650.86c-2.09-8.85-6-17.23-6.35-26.52-.41-11.44,1.36-22.06,12-28.53,10.21-6.18,19.86-2.25,29.16,2.89a68.84,68.84,0,0,1,5.91,3.86c2.9,2,4.18,1.05,4.48-2.21,2.71-29.19,12.51-56.16,26.06-81.9,2.32-4.42.2-6.21-3-8.46-12.13-8.55-23-18.51-31-31.1-22.44-35.24-20.18-70.72-.3-106.08,3.47-6.17,7.17-12.15,9.27-19,3.75-12.19,3.6-21.84-6-33.42-36.62-44-18.83-96.42,12.47-119.83,14.21-10.63,30.06-11.33,46.17-5.07a95.59,95.59,0,0,1,43.87,34.41c2.9,4.07,5.41,5.95,10.61,5.29,33.77-4.28,67-.92,99.69,8.19,5.78,1.61,5.52-2.19,6.92-5.09,13.31-27.48,34.7-44.56,65.3-47.66,37-3.75,74,22.45,78.66,56.5,5,36.53-7.74,67.9-33.75,93.64-5.21,5.16-6.95,9.29-5.16,16.68,8.78,36.26,6.35,71.84-8.46,106.33a112.1,112.1,0,0,1-16.48,27.07c-3,3.67-3.24,6,.66,9.26,26.09,22,41.23,50.22,46.54,83.83.46,2.92,1,5.5,4.55,6.77,14.37,5.14,20,16.81,21,30.85.43,6.17,2.12,8.94,8.34,9.47,21.21,1.8,37.94,11.64,50.38,28.85A73.15,73.15,0,0,1,591.33,707Zm-270.71,6.57c5.6,0,11.2.2,16.79,0,30.54-1.24,60.23-6.55,88.37-19,4.22-1.86,6.88-3.41,5.44-9.66-8.11-35.29,16.35-80.13,50.35-92.79,5.48-2,7.45-4.31,6.17-10.16-4.9-22.53-13-43.4-29.49-60.22-6.19-6.3-12-13-18.17-19.29-3.95-4-4.47-7.83-1.06-12.47,4.71-6.4,9.46-12.81,13.54-19.6,29.51-49.11,26-138.46-30-184.25-4.88-4-9.24-6.09-15.8-5.39-17.14,1.82-27.13-4.23-34.15-20.12-1.42-3.21-3.31-4.33-6.34-5.14-31.31-8.39-63.16-10.94-95.46-9.56-5.58.24-8,1.65-9.26,7.57-4.5,20.84-24.21,33.23-44.61,28.32-4.71-1.13-7.94-.06-11.22,2.8-16.78,14.64-28.13,32.52-31.16,54.82a97.26,97.26,0,0,1-14,39.57c-10.66,16.93-15.74,35.55-13.6,55.59,4.09,38.29,35,72.15,75.89,81.06,36.52,7.94,73.37,15.33,111.19,9.3a23.73,23.73,0,0,1,2.64-.31c3.7-.15,6.48,1.33,7.07,5.14.54,3.55-1.85,5.5-5,6.23a76.87,76.87,0,0,1-10.45,1.7c-42.63,3.79-83.91-3.63-124.54-15.59-6.06-1.79-8.84-1.1-11.38,4.74-8.84,20.3-16.53,40.89-20.66,62.75-10.16,53.69,20.66,102.6,73.53,115.91C270,711.67,295.23,713.42,320.62,713.54Zm193.6-82.19c-.59-12.7-.93-22.53-10.62-27.82-9.1-5-18.22-1.89-25.82,3.33-23,15.79-36.08,37.65-36.23,65.94-.12,21.55,15.18,30.81,33.83,19.92C499.72,678.52,511.39,655.83,514.22,631.35ZM504,249.47c1.33-2.49.49-4.14,0-5.81-6.61-23.28-33.31-41.48-60.83-41.46-24.12,0-53.86,21.43-59.64,42.93-3.37,12.56,4.46,23,17.37,23.94,12.67.92,21.45-6.39,30.89-13C454.29,240.28,477.78,231.92,504,249.47Zm-1.31,28c.16-16.69-12.44-26.88-29.47-25.75-16.07,1.07-28.74,9.41-41.14,18.63-4.28,3.18-5,5.16-.48,9.07,16.6,14.39,30.92,30.62,38.62,51.73,1,2.75,2.39,4.92,5.43,1.57C490.41,316.5,501,298.26,502.65,277.51Zm-336,43c7.44-19,18-33.3,32.27-44.8,1.69-1.36,3-3,1.53-5.31-7.38-12-12.46-25.5-22.5-35.73-7.1-7.24-16.53-7.28-22.65-.71-3.89,4.18-6.2,9.32-7.75,14.73C139.92,275.42,150.07,297.49,166.68,320.52Zm.14-103.76c13.43,2.14,22,9.51,28.16,20.34,4.49,7.93,9,15.9,13.88,23.57,7.43,11.59,19.19,13.85,30.34,6.23,12-8.2,14.48-19.57,6-31a85.08,85.08,0,0,0-39.66-29.81A34,34,0,0,0,166.82,216.76ZM118.73,623.34c1.5,17.18,9.06,33.34,21.59,47.31,5.73,6.4,11.91,12.23,20.21,15.14,5.06,1.77,10.29,3.57,14.34-2,3.67-5.06,3.74-10,.17-15.43-6.75-10.37-13-21.38-14.28-33.77-1.39-13.25-9.74-20.21-19.87-25.88C126.9,600.88,118.78,605.85,118.73,623.34Z"/><path class="cls-2" d="M549.3,647.32c22.91,8.09,36.38,33.41,29.39,55.49-1,3-1.76,6.25-4.76,8.12l-1.69,1.94.16-.17-1.94,1.94.18-.19-1.9,2.21c.08,1.05-.49,1.42-1.46,1.38-3.17.33-6.34.7-9.51,1-15.63,1.5-30.54,6.74-46.23,8.54-9.19,1-18.67-.85-27.59,2.52-5.85-.46-11.73-.68-17.54-1.43a65.18,65.18,0,0,0-46,10.82c-1.67-2.24-4.14-2.2-6.44-1.88-24,3.39-48.2.1-72.18,2-17.06,1.31-33.92-.51-50.87-.48-36.36,0-72.48-3.45-108.55-8.24-28.21-3.75-56.35-7.48-83.51-16.15-13.28-4.23-27-7.82-37.83-17.74-9.59-8.8-9.46-18.71,1.46-26.3,15.22-10.58,32.94-15.07,50.52-19.8,6.91,14.48,16,27.31,28.33,37.74a46.81,46.81,0,0,0,21.92,10.7c7.91,1.49,15.42-.32,19.81-6.68,4.78-6.92,7.24-4,11.45,0,18,17.19,40.49,24.2,64.45,28,47.89,7.63,95.48,8,142.69-4.6a215.83,215.83,0,0,0,32.24-11.87c2.86-1.28,5.47-2.83,9-.53,15.31,10,30,5.76,43.64-3.46,17.68-12,29-29,35.89-49,.67-1.91,1.5-3.77,2.25-5.65C533.06,643.84,540.91,649.39,549.3,647.32Z"/><path class="cls-2" d="M591.33,707a73.15,73.15,0,0,0-6.74-47.06c12,.11,21.11,6.44,29.25,14.18,6.69,6.36,6.48,15.95-.85,21.42C606.48,700.36,601.3,708.45,591.33,707Z"/><path class="cls-3" d="M320.62,713.54c-25.39-.12-50.66-1.87-75.37-8.09-52.87-13.31-83.69-62.22-73.53-115.91,4.13-21.86,11.82-42.45,20.66-62.75,2.54-5.84,5.32-6.53,11.38-4.74,40.63,12,81.91,19.38,124.54,15.59a76.87,76.87,0,0,0,10.45-1.7c3.12-.73,5.51-2.68,5-6.23-.59-3.81-3.37-5.29-7.07-5.14a23.73,23.73,0,0,0-2.64.31c-37.82,6-74.67-1.36-111.19-9.3-40.93-8.91-71.8-42.77-75.89-81.06-2.14-20,2.94-38.66,13.6-55.59a97.26,97.26,0,0,0,14-39.57c3-22.3,14.38-40.18,31.16-54.82,3.28-2.86,6.51-3.93,11.22-2.8,20.4,4.91,40.11-7.48,44.61-28.32,1.29-5.92,3.68-7.33,9.26-7.57,32.3-1.38,64.15,1.17,95.46,9.56,3,.81,4.92,1.93,6.34,5.14,7,15.89,17,21.94,34.15,20.12,6.56-.7,10.92,1.4,15.8,5.39,56,45.79,59.5,135.14,30,184.25-4.08,6.79-8.83,13.2-13.54,19.6-3.41,4.64-2.89,8.45,1.06,12.47,6.19,6.3,12,13,18.17,19.29,16.53,16.82,24.59,37.69,29.49,60.22,1.28,5.85-.69,8.12-6.17,10.16-34,12.66-58.46,57.5-50.35,92.79,1.44,6.25-1.22,7.8-5.44,9.66-28.14,12.46-57.83,17.77-88.37,19C331.82,713.74,326.22,713.54,320.62,713.54Zm20-165.84c-28-.26-41,21.11-28.6,44.6.95,1.81,2,3.61,3.06,5.34,12.26,19.41,30.88,32.07,48.62,45.64,2.64,2,5.55,2.28,7.84-.51s1.35-5.57-1.14-7.76c-8.17-7.18-16.43-14.26-24.61-21.43-9.57-8.39-18.55-17.37-23.84-29.15-6.12-13.65.23-23.45,15.12-24,13.66-.5,25.32,5.14,35.87,12.86,11.85,8.68,23,18.28,34.59,27.37,3.59,2.83,7.67,7.36,12.12,2.33s-.35-8.56-3.9-11.54c-9-7.55-18-15.13-27.36-22.31C373.75,557.88,358.19,548.59,340.58,547.7Zm-69,5.69A52.7,52.7,0,0,0,245,562.67c-19.08,13.38-30.69,32.17-38.85,53.46-1.54,4-4.35,9,1.76,11.2,5.26,1.92,7-3,8.58-6.77a134.1,134.1,0,0,1,18.76-31.86c8.6-10.77,18.61-19.84,32.77-22.47,12.2-2.27,18.15,4.3,14.68,16.2A70.83,70.83,0,0,1,277,596.22c-7.68,14.24-15.65,28.32-23.5,42.47-2.18,3.92-5.08,8.51.21,11.53,5.67,3.25,8.39-1.64,10.74-5.89C268,637.9,271.71,631.54,275,625c7-13.86,16.76-26.44,20.43-41.9C299.4,566.53,289.2,553.63,271.62,553.39ZM309.16,480c0-3.53.1-7.06,0-10.59-.16-4.49-.31-9.61-6.32-9.82-6.39-.22-6.18,5-6.22,9.48-.06,5.88-.07,11.77-.09,17.65,0,2.73-.93,4.62-4.09,4.37s-5-1.47-4.46-5a35.65,35.65,0,0,0,.42-4.39c.14-3.69,0-7.49-4.73-8.08s-5.88,2.93-6.5,6.65c-.24,1.44-.28,2.92-.45,4.38-.2,1.85-.71,3.68-3,3.53s-2.59-2.14-2.56-3.92c.08-5,.32-10,.48-15,.1-3.51-.71-6.89-4.68-7.33-4.55-.52-5.89,3-6.39,6.77-.19,1.46-.31,2.93-.45,4.39-2.53,25.8-2.09,26.34,23.88,29.17C308.19,504.85,308.37,504.68,309.16,480ZM419,420.68c0-5.5-5-7.4-12.12-3.68-24.25,12.68-48.32,25.68-72.47,38.55-3.41,1.81-6.2,4.28-4.16,8.36,2.35,4.71,6.33,3.28,9.89,1.44q36.89-19,73.69-38.14C416.47,425.83,419,424.22,419,420.68ZM234.84,448.2c.2-3.65-.83-5.39-2.72-6.51-20.25-11.92-39.82-25-61.24-34.89-3.7-1.71-7.92-2.22-10,2.17-2.36,5.07,1.62,7.35,5.46,9.33,7.05,3.63,14.13,7.2,21.09,11,12.62,6.92,25.12,14.07,37.76,21C229.51,452.62,233.74,453.61,234.84,448.2ZM250.61,393c.06-10.48-7.81-18.64-18-18.68-9.46,0-16.65,7.64-16.61,17.75,0,10.57,7.94,18.74,18,18.62C243.82,410.6,250.55,403.43,250.61,393Zm91.6,3.09c-.2-9.33-8.3-17.1-17.9-17.16s-17.25,7.61-17.24,17.52c0,10.33,7.82,17.88,18.08,17.47A17.48,17.48,0,0,0,342.21,396.12Zm24,76.8v1.47c-7.91,0-15.83-.15-23.74.06-4,.1-9.3-.44-9.5,5.25-.21,6.2,5.4,6.25,9.66,6.23,16.12-.08,32.23-.54,48.35-.85,4.22-.08,7.9-1.36,7.91-6.22,0-5.08-4-5.89-8.07-5.92C382.6,472.88,374.39,472.92,366.19,472.92Zm17.39,45.2c5.08.76,8-.16,9-4,.87-3.33-.76-5.76-3.82-7-14.74-5.83-30.32-8.76-45.55-12.9a5.15,5.15,0,0,0-6.37,3.46c-1.14,3.48.71,5.75,3.83,6.76C355.44,509.25,370.22,513.89,383.58,518.12Zm-104-68.78c7.88-.13,14.94-5.71,15-11.9s-7.12-11.6-15.15-11.46c-7.81.14-14.48,5.92-14.36,12.45C265.21,444.72,271.51,449.46,279.57,449.34Zm-67.87,14c4,.27,9.05,1.73,9.65-4.24.49-4.9-3.9-6-7.78-6.57-9.83-1.41-19.55-3.72-29.55-3.75-4.16,0-9.07-.09-9.5,5.35-.48,6.06,4.82,6.6,9.17,7C193,462.08,202.36,462.65,211.7,463.36Zm4.83,8.63c-8.9.94-16.54,1.55-24.12,2.63-3.33.48-6.25,2.22-5.85,6.41.35,3.64,3.12,5.15,6.15,5.19,10.06.13,19.85-2.15,29.63-4.21a4.72,4.72,0,0,0,3.67-5.37c-.32-3.24-2.52-4.46-5.47-4.64C218.78,471.9,217,472,216.53,472Z"/><path class="cls-3" d="M514.22,631.35c-2.83,24.48-14.5,47.17-38.84,61.37-18.65,10.89-33.95,1.63-33.83-19.92.15-28.29,13.24-50.15,36.23-65.94,7.6-5.22,16.72-8.3,25.82-3.33C513.29,608.82,513.63,618.65,514.22,631.35Z"/><path class="cls-3" d="M504,249.47c-26.18-17.55-49.67-9.19-72.19,6.59-9.44,6.62-18.22,13.93-30.89,13-12.91-.93-20.74-11.38-17.37-23.94,5.78-21.5,35.52-42.91,59.64-42.93,27.52,0,54.22,18.18,60.83,41.46C504.45,245.33,505.29,247,504,249.47Z"/><path class="cls-4" d="M502.65,277.51c-1.63,20.75-12.24,39-27,55.25-3,3.35-4.42,1.18-5.43-1.57-7.7-21.11-22-37.34-38.62-51.73-4.5-3.91-3.8-5.89.48-9.07,12.4-9.22,25.07-17.56,41.14-18.63C490.21,250.63,502.81,260.82,502.65,277.51Z"/><path class="cls-4" d="M166.68,320.52c-16.61-23-26.76-45.1-19.1-71.82,1.55-5.41,3.86-10.55,7.75-14.73,6.12-6.57,15.55-6.53,22.65.71,10,10.23,15.12,23.74,22.5,35.73,1.42,2.31.16,3.95-1.53,5.31C184.7,287.22,174.12,301.49,166.68,320.52Z"/><path class="cls-3" d="M166.82,216.76a34,34,0,0,1,38.71-10.69,85.08,85.08,0,0,1,39.66,29.81c8.49,11.45,6,22.82-6,31-11.15,7.62-22.91,5.36-30.34-6.23C203.94,253,199.47,245,195,237.1,188.86,226.27,180.25,218.9,166.82,216.76Z"/><path class="cls-3" d="M118.73,623.34c0-17.49,8.17-22.46,22.16-14.63,10.13,5.67,18.48,12.63,19.87,25.88,1.3,12.39,7.53,23.4,14.28,33.77,3.57,5.47,3.5,10.37-.17,15.43-4.05,5.57-9.28,3.77-14.34,2-8.3-2.91-14.48-8.74-20.21-15.14C127.79,656.68,120.23,640.52,118.73,623.34Z"/><path class="cls-5" d="M549.3,647.32c-8.39,2.07-16.24-3.48-24.61-1.74-.61-4.86,2.78-4.27,5.63-3.92C537,642.47,543.47,643.77,549.3,647.32Z"/><path class="cls-6" d="M572.24,712.87l1.69-1.94Z"/><path class="cls-6" d="M570.46,714.64l1.94-1.94Z"/><path class="cls-6" d="M568.74,716.66l1.9-2.21Z"/><path class="cls-1" d="M340.58,547.7c17.61.89,33.17,10.18,47.77,21.44,9.32,7.18,18.34,14.76,27.36,22.31,3.55,3,8.39,6.47,3.9,11.54s-8.53.5-12.12-2.33c-11.56-9.09-22.74-18.69-34.59-27.37-10.55-7.72-22.21-13.36-35.87-12.86-14.89.55-21.24,10.35-15.12,24,5.29,11.78,14.27,20.76,23.84,29.15,8.18,7.17,16.44,14.25,24.61,21.43,2.49,2.19,3.46,4.93,1.14,7.76s-5.2,2.52-7.84.51c-17.74-13.57-36.36-26.23-48.62-45.64-1.09-1.73-2.11-3.53-3.06-5.34C299.58,568.81,312.55,547.44,340.58,547.7Z"/><path class="cls-1" d="M271.62,553.39c17.58.24,27.78,13.14,23.85,29.7-3.67,15.46-13.39,28-20.43,41.9-3.33,6.55-7.06,12.91-10.63,19.34-2.35,4.25-5.07,9.14-10.74,5.89-5.29-3-2.39-7.61-.21-11.53,7.85-14.15,15.82-28.23,23.5-42.47a70.83,70.83,0,0,0,5.77-13.79c3.47-11.9-2.48-18.47-14.68-16.2-14.16,2.63-24.17,11.7-32.77,22.47a134.1,134.1,0,0,0-18.76,31.86c-1.59,3.76-3.32,8.69-8.58,6.77-6.11-2.23-3.3-7.17-1.76-11.2,8.16-21.29,19.77-40.08,38.85-53.46A52.7,52.7,0,0,1,271.62,553.39Z"/><path class="cls-1" d="M309.16,480c-.79,24.73-1,24.9-25.17,22.25-26-2.83-26.41-3.37-23.88-29.17.14-1.46.26-2.93.45-4.39.5-3.81,1.84-7.29,6.39-6.77,4,.44,4.78,3.82,4.68,7.33-.16,5-.4,10-.48,15,0,1.78.27,3.77,2.56,3.92s2.79-1.68,3-3.53c.17-1.46.21-2.94.45-4.38.62-3.72,1.82-7.23,6.5-6.65s4.87,4.39,4.73,8.08A35.65,35.65,0,0,1,288,486c-.57,3.55,1.41,4.77,4.46,5s4.08-1.64,4.09-4.37c0-5.88,0-11.77.09-17.65,0-4.5-.17-9.7,6.22-9.48,6,.21,6.16,5.33,6.32,9.82C309.26,472.89,309.16,476.42,309.16,480Z"/><path class="cls-1" d="M419,420.68c0,3.54-2.52,5.15-5.17,6.53Q377,446.32,340.13,465.35c-3.56,1.84-7.54,3.27-9.89-1.44-2-4.08.75-6.55,4.16-8.36,24.15-12.87,48.22-25.87,72.47-38.55C414,413.28,419,415.18,419,420.68Z"/><path class="cls-1" d="M234.84,448.2c-1.1,5.41-5.33,4.42-9.61,2.08-12.64-6.9-25.14-14-37.76-21-7-3.81-14-7.38-21.09-11-3.84-2-7.82-4.26-5.46-9.33,2-4.39,6.26-3.88,10-2.17,21.42,9.85,41,23,61.24,34.89C234,442.81,235,444.55,234.84,448.2Z"/><path class="cls-1" d="M250.61,393c-.06,10.4-6.79,17.57-16.59,17.69-10.09.12-18-8.05-18-18.62,0-10.11,7.15-17.78,16.61-17.75C242.8,374.39,250.67,382.55,250.61,393Z"/><path class="cls-1" d="M342.21,396.12A17.48,17.48,0,0,1,325.15,414c-10.26.41-18.07-7.14-18.08-17.47,0-9.91,7.54-17.58,17.24-17.52S342,386.79,342.21,396.12Z"/><path class="cls-1" d="M366.19,472.92c8.2,0,16.41,0,24.61,0,4.07,0,8.08.84,8.07,5.92,0,4.86-3.69,6.14-7.91,6.22-16.12.31-32.23.77-48.35.85-4.26,0-9.87,0-9.66-6.23.2-5.69,5.54-5.15,9.5-5.25,7.91-.21,15.83-.06,23.74-.06Z"/><path class="cls-1" d="M383.58,518.12c-13.36-4.23-28.14-8.87-42.88-13.64-3.12-1-5-3.28-3.83-6.76a5.15,5.15,0,0,1,6.37-3.46c15.23,4.14,30.81,7.07,45.55,12.9,3.06,1.21,4.69,3.64,3.82,7C391.61,518,388.66,518.88,383.58,518.12Z"/><path class="cls-1" d="M279.57,449.34c-8.06.12-14.36-4.62-14.48-10.91-.12-6.53,6.55-12.31,14.36-12.45,8-.14,15.25,5.32,15.15,11.46S287.45,449.21,279.57,449.34Z"/><path class="cls-1" d="M211.7,463.36c-9.34-.71-18.69-1.28-28-2.18-4.35-.43-9.65-1-9.17-7,.43-5.44,5.34-5.36,9.5-5.35,10,0,19.72,2.34,29.55,3.75,3.88.56,8.27,1.67,7.78,6.57C220.75,465.09,215.68,463.63,211.7,463.36Z"/><path class="cls-1" d="M216.53,472c.48,0,2.25-.09,4,0,3,.18,5.15,1.4,5.47,4.64a4.72,4.72,0,0,1-3.67,5.37c-9.78,2.06-19.57,4.34-29.63,4.21-3,0-5.8-1.55-6.15-5.19-.4-4.19,2.52-5.93,5.85-6.41C200,473.54,207.63,472.93,216.53,472Z"/></svg>