<svg id="Capa_1" data-name="Capa 1" xmlns="http://www.w3.org/2000/svg" viewBox="0 0 667.71 1024"><defs><style>.cls-1{fill:#1f1916;}.cls-2{fill:#efb7be;}.cls-3{fill:#ad8048;}.cls-4{fill:#fbdbb0;}.cls-5{fill:#f3c5c7;}</style></defs><path class="cls-1" d="M179.1,692.86a84,84,0,0,1-8.65-29.58c-.38-4.12-1.75-5.87-6-6.84-20.78-4.72-31.84-18.71-35.18-39.12-.86-5.22-2.37-8.47-7.51-11.11-13.71-7.05-21-27-16.88-45C108,547.44,113,534.17,118.09,521c2.47-6.41,7.35-7.6,11-2.54,5.51,7.73,13.31,12.78,20.2,18.89a94.85,94.85,0,0,1,18.57,21.55c12.9,21.29,4.18,43.57-20.14,49.37-8,1.9-8.8,5.61-6.88,11.81,3.67,11.79,11,20.51,22.55,25.27,3.77,1.55,6.4,1.67,6.86-3.91.89-10.56,2-21.27,11-28.85,2.2-1.84,1.44-4.48,1.35-6.9-.47-12.12,1.17-24,6-35.1,2-4.6,1-6.61-3.25-8.83A64.8,64.8,0,0,1,162.83,542c-14-19.22-7.16-43.48,15.17-51.9,6.45-2.43,7.9-4.63,5.95-11.4-7.86-27.37-8-54.77,2.23-81.72,1.46-3.81.7-5.05-3.3-5.93-9.83-2.16-19.6-4.75-28-10.59-10.65-7.37-12.52-15.24-6.47-26.66,13.33-25.16,35.23-38.67,62.17-44.57,7.55-1.65,10.28-2.84,9.11-12-3.88-30.5,6.54-56.72,27.84-78.64,6.39-6.57,14.51-10.55,23.16-13.25,14-4.36,22.55,3,20.37,17.41-.81,5.37-2.43,10.62-3.12,16-2.12,16.39,7.93,28.91,14.07,42.64,1.26,2.82,3.79,1.29,5.74.7,17.95-5.41,36.36-6.75,54.92-5.71,5.77.33,8.52-1.76,10.15-6.82,3.42-10.59,1.65-20.38-4.07-29.67-2.7-4.39-5.81-8.59-8.08-13.2-4.73-9.64-1.73-17.85,8.18-21.91,11-4.49,21.69-3.16,32.33,1.92,27.78,13.27,41.89,36,46.42,65.65.9,5.85,0,13.51,3.33,17,3,3.06,10.81,1.14,16.43,1.9,21.53,2.87,41.06,10.43,57.08,25.58,13,12.27,12.71,19.84-.36,31.73-11,10-24.27,15.46-38.37,18.91-5.6,1.37-6.43,3.5-5.72,8.93,2.12,16.08,5.72,31.2,15.29,45a50.93,50.93,0,0,1,8.33,39.73c-1,5.18.12,7.15,5.83,8.6,22.66,5.72,31.92,22.79,25.2,45.51-6.45,21.83-19.45,39.37-37,53.55-3.88,3.14-4.85,5.47-2.44,10,4.22,7.91,6.18,16.74,8.72,25.29,26.29-7.62,41.53,3.23,44,30.83,2,22.3-3.77,42.51-15.49,61.28-9.54,12.45-20.81,22.22-37.29,23.81-8.3.81-16.87-.31-21-7.8-5-9.11-8.56-5.55-13.23-.59a74.54,74.54,0,0,1-6.52,6.17c-23.12,19.26-49.12,30.08-79.74,25.87-15.09-2.07-30-5.38-44-11.72a14.45,14.45,0,0,0-9.42-.89c-28.31,5.57-55.29,2.64-79.87-13.5-4.1-2.7-7.45-2.95-12-1.26-11.85,4.43-23,2.07-33.34-4.85C188.83,706.61,183.88,699.83,179.1,692.86Zm131.66,28.58c-35.71-33-41.46-78.84-24.81-118.09,7.71-18.16,17.08-35.28,29.29-50.72,3.77-4.77,4.36-7.72-.84-11.86a36.18,36.18,0,0,1-13.3-24.57c-1.83-15.57,3.78-29.35,14-40.45,35.1-37.93,78.78-52.05,129.39-43.17,17.79,3.13,32.32,12.75,40,30.4.87,2,.24,5.91,3.52,5.48,2.82-.37,3.48-3.69,4.09-6.45,3.22-14.6-1-27.55-9.24-39.31-6.56-9.39-11.13-19.54-11.89-30.85-1.51-22.42-10.42-42-21.62-60.89a66.93,66.93,0,0,0-23.95-23.91c-36.86-22-76.12-23.69-116.79-14.28-3.56.82-5.66,2.61-6.52,6.31-1.64,7.05-5.52,13-10.15,18.42-15.62,18.38-41.45,23-57.23,8.23-8.8-8.24-16.48-8.15-26.36-5-20.09,6.42-37,17.06-48.45,35.22-5.2,8.23-4.45,11.62,3.74,16.56a57.35,57.35,0,0,0,19,7c25.25,4.89,46.58-3.55,65.78-19.26,3.2-2.61,6.86-6.23,10.41-1.65s-.25,8.08-3.8,10.86c-14.36,11.21-29.93,20.06-48.34,22.21-5.83.68-8.65,3.32-10.4,8.47-9.29,27.3-8.41,54.54.2,81.78,1,3.16,2.79,4.93,6.4,5.15,24.16,1.42,44.58,13.15,65.32,24,3.16,1.65,5.83,3.89,4.17,7.65-1.88,4.25-5.75,3.6-9.13,2-6.64-3.15-13.05-6.75-19.7-9.87-15.88-7.44-32.16-13.42-50.13-12.65-11.16.48-20.42,4.51-24.94,15.26-4.37,10.42.09,19,7.34,26.56,16.57,17.32,38.34,23,60.76,27,3.79.69,8.66.39,8.06,5.7s-5.47,4.85-9.69,4.52a112.78,112.78,0,0,1-28.64-6.14c-5.25-1.85-7.53-.22-8.72,4.78A138.66,138.66,0,0,0,194,599.21c-.43,6.73,1.75,9.37,8.56,8.95,5.23-.33,10.35,1.38,14.9,3.78,18.58,9.77,30.17,25.39,36.44,45.13,5.33,16.76,4.76,32.75-6.85,47.06-1.77,2.18-1.81,3.72.81,5.14C267,719.7,287.29,724,310.76,721.44Zm-23-73.07c1.2,20.11,6.39,41.44,23.21,57.06,23.4,21.72,53.1,30.66,83.73,27,47.17-5.71,76.6-37.69,94.4-78.89,16-37-1.55-86.12-39.4-113.64-4.62-3.36-7.84-1.52-11.81.55-27.71,14.48-56.87,21.16-88.26,16.76-7.34-1-14.87-8.28-21.42-3.59-6.05,4.33-9.81,12.2-13.86,18.94C300.73,595.27,288.67,618.69,287.8,648.37ZM418.76,441A116.18,116.18,0,0,0,396,443.13c-27.95,5.5-52.95,16.77-71.78,38.85-21.52,25.25-14.73,50.17,16.27,61.24a60.7,60.7,0,0,0,11,2.81c24.37,3.84,47.76-.22,70.13-9.94,20.55-8.93,38.82-21,49.61-41.68,9.13-17.51,4.4-34.16-12.5-44.2C446.45,442.89,432.79,441.06,418.76,441ZM229.9,286.12c.14,2.94,0,6.26.53,9.45,1.64,9.22,4.48,18.14,12.89,23.42,11.63,7.31,25.9,5.53,36.55-5.14,12.46-12.5,15.82-21.57,8.58-34.63-1.84-3.32-3.15-6.93-5-10.25-7.53-13.56-9.09-27.63-4.53-42.52,1-3.13,3.87-7.15.69-9.86s-7.28-.17-10.7,1.32c-6,2.63-11.61,6-16,11C238.6,245.19,230.09,263.8,229.9,286.12ZM180.29,645.91c-.11,21.52,5.05,38.64,14.76,49.63,8.14,9.22,17.94,14.18,30.47,10.28,11.2-3.48,20.07-15.61,20.76-27.81,1.11-19.93-14.94-47-33.06-55.66-18.6-8.93-30.32-2.5-32.38,17.77C180.59,642.55,180.38,645,180.29,645.91ZM437.9,287.63c-.89-13.6-3.26-27-9-39.38-8.27-17.75-22.92-28.55-41.24-34.37-5.79-1.84-12.81-1.71-16.7,3.19-3.77,4.72,2.75,8.44,4.36,12.75a6.39,6.39,0,0,0,.87,1.36c9.33,13,12.43,27.06,6.25,42.24-2,4.84.41,5.3,4,6.18,15.08,3.68,29.63,9,43,16.94,6.86,4.1,8.46,1.65,8.53-4.84C437.92,290.34,437.9,289,437.9,287.63Zm86.92,218.73c.42-18.56-13.78-30.54-28.73-27.44-4,.82-8.35,2.58-9.49,6.84-4.54,17-14.89,30-27.88,41.18-2.77,2.4-2.88,4,.33,6.15,6.58,4.44,11.94,10.27,17,16.31,12.22,14.55,12.46,14.84,25.22.7C513.41,536.65,523.48,521.91,524.82,506.36Zm12.51,137.11c-.22-10.21-1.24-19.9-8.53-27.62-4.41-4.67-9.59-5.74-15.61-3.45-5.71,2.17-8.69,5.55-8.14,12.27.46,5.62-.35,11.41-1.1,17.05-2.35,17.54-10.76,32.36-21.44,46-4.14,5.3-3.44,11-.88,16,2.82,5.55,8.57,6,14.33,4.84A37.42,37.42,0,0,0,515.77,698C530.77,682.78,536.51,664,537.33,643.47ZM456.84,300.82c-4.18.07-8-1.06-10.15,3a4.74,4.74,0,0,0,.68,6c12,12.92,19.47,28.6,26.8,44.34,1.33,2.86,2.83,4.06,6.27,3.22,14.19-3.46,27.22-9,38.09-19.09,4.3-4,4.22-6.85,0-11.17C501.24,309.62,479.41,303.57,456.84,300.82ZM115.06,571.61c.48,4.85,1.39,10.4,4,15.62,5.66,11.23,18.54,15.24,30.5,9.25,12.24-6.12,15.9-17.32,9.75-29.26-6.93-13.48-18.51-22.48-30-31.61-1.91-1.53-3.79-1.41-4.5.93C121.41,547.91,115.19,558.48,115.06,571.61Z"/><path class="cls-2" d="M179.1,692.86c4.78,7,9.73,13.75,16.92,18.55,10.38,6.92,21.49,9.28,33.34,4.85,4.52-1.69,7.87-1.44,12,1.26,24.58,16.14,51.56,19.07,79.87,13.5a14.45,14.45,0,0,1,9.42.89c14,6.34,28.91,9.65,44,11.72,30.62,4.21,56.62-6.61,79.74-25.87a74.54,74.54,0,0,0,6.52-6.17c4.67-5,8.2-8.52,13.23.59,4.14,7.49,12.71,8.61,21,7.8,16.48-1.59,27.75-11.36,37.29-23.81,1.31,2.4,3.57,2.91,6.05,3.55a85,85,0,0,1,29.27,13.93c10.59,7.75,10.44,19.4-.57,26.59-12,7.82-25.12,12.75-38.84,16.41-29.41,7.83-59.4,11.77-89.62,15-42.8,4.61-85.7,5.63-128.58,4.2-23.48-.78-47-2.3-70.47-5.42-24.2-3.23-48.31-6.47-72-12.17-14.73-3.55-29.19-8.21-42-16.54-13.63-8.89-13.75-21.94.11-30.51C142,701.19,160.06,695.33,179.1,692.86Z"/><path class="cls-3" d="M310.76,721.44c-23.47,2.55-43.76-1.74-62.9-12.17-2.62-1.42-2.58-3-.81-5.14,11.61-14.31,12.18-30.3,6.85-47.06-6.27-19.74-17.86-35.36-36.44-45.13-4.55-2.4-9.67-4.11-14.9-3.78-6.81.42-9-2.22-8.56-8.95a138.66,138.66,0,0,1,3.64-23.33c1.19-5,3.47-6.63,8.72-4.78A112.78,112.78,0,0,0,235,577.24c4.22.33,9.06.93,9.69-4.52s-4.27-5-8.06-5.7c-22.42-4.08-44.19-9.72-60.76-27-7.25-7.57-11.71-16.14-7.34-26.56,4.52-10.75,13.78-14.78,24.94-15.26,18-.77,34.25,5.21,50.13,12.65,6.65,3.12,13.06,6.72,19.7,9.87,3.38,1.6,7.25,2.25,9.13-2,1.66-3.76-1-6-4.17-7.65-20.74-10.83-41.16-22.56-65.32-24-3.61-.22-5.4-2-6.4-5.15-8.61-27.24-9.49-54.48-.2-81.78,1.75-5.15,4.57-7.79,10.4-8.47,18.41-2.15,34-11,48.34-22.21,3.55-2.78,7.34-6.29,3.8-10.86s-7.21-1-10.41,1.65c-19.2,15.71-40.53,24.15-65.78,19.26a57.35,57.35,0,0,1-19-7c-8.19-4.94-8.94-8.33-3.74-16.56,11.47-18.16,28.36-28.8,48.45-35.22,9.88-3.16,17.56-3.25,26.36,5,15.78,14.78,41.61,10.15,57.23-8.23,4.63-5.45,8.51-11.37,10.15-18.42.86-3.7,3-5.49,6.52-6.31,40.67-9.41,79.93-7.7,116.79,14.28A66.93,66.93,0,0,1,449.36,331c11.2,18.93,20.11,38.47,21.62,60.89.76,11.31,5.33,21.46,11.89,30.85,8.22,11.76,12.46,24.71,9.24,39.31-.61,2.76-1.27,6.08-4.09,6.45-3.28.43-2.65-3.48-3.52-5.48-7.64-17.65-22.17-27.27-40-30.4-50.61-8.88-94.29,5.24-129.39,43.17-10.27,11.1-15.88,24.88-14,40.45a36.18,36.18,0,0,0,13.3,24.57c5.2,4.14,4.61,7.09.84,11.86C303,568.07,293.66,585.19,286,603.35,269.3,642.6,275.05,688.41,310.76,721.44Zm16.92-301.56c-.8-6-.43-11.25-3.32-15.94-5.42-8.8-15-9.46-20.3-.61-6.89,11.45-7.5,23.88-1.72,35.95,4.12,8.61,13.58,9,19,1.22A33.92,33.92,0,0,0,327.68,419.88Zm118.43-23.15a27.47,27.47,0,0,0-3.68-16.2c-5.14-8.48-15.61-8.54-20.4.13-5.86,10.63-6.27,21.85-1,32.8,4.78,9.86,15.37,10.07,21.09.65A28.81,28.81,0,0,0,446.11,396.73Z"/><path class="cls-4" d="M287.8,648.37c.87-29.68,12.93-53.1,26.59-75.86,4.05-6.74,7.81-14.61,13.86-18.94,6.55-4.69,14.08,2.56,21.42,3.59,31.39,4.4,60.55-2.28,88.26-16.76,4-2.07,7.19-3.91,11.81-.55,37.85,27.52,55.36,76.68,39.4,113.64-17.8,41.2-47.23,73.18-94.4,78.89-30.63,3.71-60.33-5.23-83.73-27C294.19,689.81,289,668.48,287.8,648.37Z"/><path class="cls-5" d="M418.76,441c14,.1,27.69,1.93,40,9.25,16.9,10,21.63,26.69,12.5,44.2-10.79,20.68-29.06,32.75-49.61,41.68-22.37,9.72-45.76,13.78-70.13,9.94a60.7,60.7,0,0,1-11-2.81c-31-11.07-37.79-36-16.27-61.24,18.83-22.08,43.83-33.35,71.78-38.85A116.18,116.18,0,0,1,418.76,441Zm-5.19,47.84c-.12,7,4.93,12.86,10.95,12.7,5.74-.14,10.42-5.51,10.65-12.23.27-7.79-4.42-13.66-10.81-13.52C418.54,475.87,413.69,481.74,413.57,488.8Zm-38.38,12.74c.05-6.49-4.79-12.61-10.12-12.82s-10.52,5.18-10.51,11.21c0,7,5,13.24,10.6,13.34C370.52,513.36,375.14,508,375.19,501.54Z"/><path class="cls-4" d="M229.9,286.12c.19-22.32,8.7-40.93,23-57.2,4.4-5,10-8.38,16-11,3.42-1.49,7.46-4.09,10.7-1.32s.27,6.73-.69,9.86c-4.56,14.89-3,29,4.53,42.52,1.84,3.32,3.15,6.93,5,10.25,7.24,13.06,3.88,22.13-8.58,34.63C269.22,324.52,255,326.3,243.32,319c-8.41-5.28-11.25-14.2-12.89-23.42C229.86,292.38,230,289.06,229.9,286.12Z"/><path class="cls-5" d="M180.29,645.91c.09-.92.3-3.36.55-5.79,2.06-20.27,13.78-26.7,32.38-17.77,18.12,8.71,34.17,35.73,33.06,55.66-.69,12.2-9.56,24.33-20.76,27.81-12.53,3.9-22.33-1.06-30.47-10.28C185.34,684.55,180.18,667.43,180.29,645.91Z"/><path class="cls-4" d="M437.9,287.63c0,1.36,0,2.71,0,4.07-.07,6.49-1.67,8.94-8.53,4.84-13.33-8-27.88-13.26-43-16.94-3.58-.88-6-1.34-4-6.18,6.18-15.18,3.08-29.23-6.25-42.24a6.39,6.39,0,0,1-.87-1.36c-1.61-4.31-8.13-8-4.36-12.75,3.89-4.9,10.91-5,16.7-3.19,18.32,5.82,33,16.62,41.24,34.37C434.64,260.63,437,274,437.9,287.63Z"/><path class="cls-3" d="M524.82,506.36c-1.34,15.55-11.41,30.29-23.54,43.74-12.76,14.14-13,13.85-25.22-.7-5.07-6-10.43-11.87-17-16.31-3.21-2.17-3.1-3.75-.33-6.15,13-11.21,23.34-24.16,27.88-41.18,1.14-4.26,5.51-6,9.49-6.84C511,475.82,525.24,487.8,524.82,506.36Z"/><path class="cls-5" d="M537.33,643.47c-.82,20.51-6.56,39.31-21.56,54.55A37.42,37.42,0,0,1,496,708.64c-5.76,1.18-11.51.71-14.33-4.84-2.56-5-3.26-10.75.88-16,10.68-13.67,19.09-28.49,21.44-46,.75-5.64,1.56-11.43,1.1-17.05-.55-6.72,2.43-10.1,8.14-12.27,6-2.29,11.2-1.22,15.61,3.45C536.09,623.57,537.11,633.26,537.33,643.47Z"/><path class="cls-3" d="M456.84,300.82c22.57,2.75,44.4,8.8,61.65,26.24,4.26,4.32,4.34,7.18,0,11.17-10.87,10.1-23.9,15.63-38.09,19.09-3.44.84-4.94-.36-6.27-3.22-7.33-15.74-14.79-31.42-26.8-44.34a4.74,4.74,0,0,1-.68-6C448.86,299.76,452.66,300.89,456.84,300.82Z"/><path class="cls-3" d="M115.06,571.61c.13-13.13,6.35-23.7,9.79-35.07.71-2.34,2.59-2.46,4.5-.93,11.48,9.13,23.06,18.13,30,31.61,6.15,11.94,2.49,23.14-9.75,29.26-12,6-24.84,2-30.5-9.25C116.45,582,115.54,576.46,115.06,571.61Z"/><path class="cls-1" d="M327.68,419.88a33.92,33.92,0,0,1-6.3,20.62c-5.46,7.76-14.92,7.39-19-1.22-5.78-12.07-5.17-24.5,1.72-35.95,5.32-8.85,14.88-8.19,20.3.61C327.25,408.63,326.88,413.86,327.68,419.88Z"/><path class="cls-1" d="M446.11,396.73a28.81,28.81,0,0,1-4,17.38c-5.72,9.42-16.31,9.21-21.09-.65-5.3-10.95-4.89-22.17,1-32.8,4.79-8.67,15.26-8.61,20.4-.13A27.47,27.47,0,0,1,446.11,396.73Z"/><path class="cls-1" d="M413.57,488.8c.12-7.06,5-12.93,10.79-13.05,6.39-.14,11.08,5.73,10.81,13.52-.23,6.72-4.91,12.09-10.65,12.23C418.5,501.66,413.45,495.8,413.57,488.8Z"/><path class="cls-1" d="M375.19,501.54c-.05,6.41-4.67,11.82-10,11.73-5.62-.1-10.59-6.36-10.6-13.34,0-6,5.06-11.43,10.51-11.21S375.24,495.05,375.19,501.54Z"/></svg>