<svg id="Capa_1" data-name="Capa 1" xmlns="http://www.w3.org/2000/svg" viewBox="0 0 667.71 1024"><defs><style>.cls-1{fill:#eb606a;}.cls-2{fill:#f9e9e8;}.cls-3{fill:#e9545f;}.cls-4{fill:#f6bcbb;}.cls-5{fill:#fffffd;}</style></defs><path class="cls-1" d="M137.59,282.43c38-28.57,80.41-46.66,126.49-58.62,28.2-7.32,54.89-20,85.1-17.49,54.87,4.54,110.17,9.61,157.8,39.93,57.21,36.41,86,92.66,100.26,157.32,16.44,74.69,9.94,148.21-11.56,220.93a45,45,0,0,0-1,6.29c-2.67,2.86-4.54,6-3.61,10.14q-1.17,3.08-2.35,6.15l-1,3.08a1,1,0,0,0-.25,1.51c-6.32,5.09-8.41,12.18-9.42,19.79l.06.3-4.54,4.34-4.74,12.36.22-.14c-3.73,2.66-8,4.78-9.59,9.59l-2.06,3.51-2.05,2.93c-5.65,1.28-8.37,6.2-11.92,9.93-25.18,26.37-55.5,44.81-89.12,58.23l-3.79,2.29-5.36,1.63c-9.21,1.5-18.3,3.37-26.38,8.4l-5.7,1.3c-3.92-1.73-7.19-.08-10.37,2l-5.51,1.36-13.85,2.22-28.33,3.07-55.14.28-18.76-1.15c-2-2.31-4.35-2.69-7.07-1.59l-5.62-.86-6.25-.72-14.36-.8-5.15-2.39-7.62-.88c-2-3.31-4.74-4.72-8.58-3.66l-6.15-1.67-38.54-15.58-12.71-6.72c-27.29-18.83-54.54-38.3-70.28-68.36A445.08,445.08,0,0,1,47.82,496C46.56,455.6,54.88,416.71,67,378.43l0-.07c2.67-1.46,3.24-3.84,2.87-6.63a1.8,1.8,0,0,0,.66-2c6.3-6.55,9.59-14.71,12.42-23.12,2.92-2.11,3.57-5.32,4.12-8.57,5.47-2.73,7.89-7.61,9.33-13.18,0,0,.2-.29.19-.29q17.67-19,35.36-38h.46A6.21,6.21,0,0,0,137.59,282.43Zm-72,214.46c-1.31,40.9,10.09,85.66,23.72,130.2,19.16,62.64,57.44,107.77,119.32,130.58,80.2,29.57,161,29.14,240.74-1.45,50.34-19.3,93.18-50.54,114.85-100.9,40.6-94.35,48-192,12.9-289.89-19.59-54.57-53.65-98.72-110.52-119.09-39.78-14.24-81.46-20.48-123.86-21.8-39.11-1.22-73.09,17.79-109.27,27.55-41,11.07-77.15,33.3-106.26,65.31C82.55,366.57,64.7,425.31,65.63,496.89Z"/><path class="cls-1" d="M18.45,445.38c5.56-5.21-.49-21.16,13-17.59,12.49,3.3,5.63,15.1,4.69,23.34C25.55,543.48,33.92,632,88.86,711c14.7,21.12,32.49,39.53,53.8,54.06,8.82,6,11.7,11.79,4.06,20.39l-6.6-.22-31.64-23.53c-33.9-33.48-59-72.49-74.35-117.71a32.23,32.23,0,0,0-7.49-21.19L25.38,615l-9.78-60.8q-1-26-2-52a1.14,1.14,0,0,0,0-1.49l1.74-26.51c4.58-7,2.7-14.8,2.89-22.35Z"/><path class="cls-1" d="M482.8,791.11l-11.67,2.7c-4.05-11.27.08-17.43,11.2-21.74,19.9-7.73,37.9-19.45,53.68-33.58,16.34-14.61,34.67-28,42.93-49.77l3.36-3.07,2.94-3.4L590,673l3.09-5,1.34-.6c2-.89,3.53-2.12,3.26-4.63,8-18.55,17.76-36.41,23-56.12,1.71-6.46,4.19-13.25,12.7-10.45,8.15,2.68,6.91,10.33,5.14,16.35a295.27,295.27,0,0,1-39.43,83.4,288.5,288.5,0,0,1-58.63,62.8c-2.63.13-4.61,1.23-5.57,3.81q-2.07,1.54-4.15,3.08c-3.83.18-6.09,2.32-7.27,5.82L515,775.71c-4.79,1.26-9.17,3.14-11.75,7.75l-8,3.21Z"/><path class="cls-1" d="M505.19,200.78c1.35.55,4.13,1.06,6.15,2.59,41.29,31.36,80.4,64.73,102.11,113.68a27.74,27.74,0,0,1,2.44,9.14c.33,5-.88,9.83-6.57,11.3s-9.15-1.65-11.09-6.65C579.64,283.12,542,252.07,503.4,221.67c-4.67-3.68-11.57-7.16-8.35-15.34C496.54,202.54,499.81,200.76,505.19,200.78Z"/><path class="cls-1" d="M653.42,558.34c-.45,10.17-6.29,13.8-13.69,13.92-7.93.12-13.32-5-13.14-13,.2-8.58,5.78-13.6,14.59-13.22C649.53,546.44,653.14,551.86,653.42,558.34Z"/><path class="cls-1" d="M35.51,388.3c-4.5,5.25-10.79,5.67-17,6.28-6.49-4.79-10.91-10.65-7.45-19A12,12,0,0,1,24,368C36.43,369.56,36.92,378.54,35.51,388.3Z"/><path class="cls-2" d="M121,300a6.21,6.21,0,0,1-5.26,4.11C112.55,296.51,116.85,298.38,121,300Z"/><path class="cls-2" d="M65.63,496.89c-.93-71.58,16.92-130.32,61.62-179.49,29.11-32,65.24-54.24,106.26-65.31,36.18-9.76,70.16-28.77,109.27-27.55,42.4,1.32,84.08,7.56,123.86,21.8,56.87,20.37,90.93,64.52,110.52,119.09,35.14,97.91,27.7,195.54-12.9,289.89-21.67,50.36-64.51,81.6-114.85,100.9-79.78,30.59-160.54,31-240.74,1.45-61.88-22.81-100.16-67.94-119.32-130.58C75.72,582.55,64.32,537.79,65.63,496.89ZM482.84,295.64l.81-.68c4.14,0,5.86-2.27,5.76-6.22l1.86-6.64c.19-.43.65-1,.53-1.26a15.37,15.37,0,0,0-1.37-2.25c-5.38-10.12-13.69-10.94-23.11-6.83-7,3.07-12.22,5.76-14.46-5.73-1.95-10-10.08-11.67-18.71-6.9-21.33,11.79-42.9,23.2-63.67,35.93-47.11,28.88-94.36,57.47-143,83.8l-4.41-1c-.88-2.34.62-3.44,2.31-4.44,2.1.49,3.41-.33,4-2.4,5.22-3.64,10.31-7.48,15.68-10.89q73.38-46.46,146.82-92.84c7.5-4.76,14.78-10.63,9-20.66-5.33-9.18-14.32-8.14-22.72-4.82-8.88,3.52-17.56,7.6-26.13,11.84-5.81,2.89-10.14,3.27-12.19-4.17-3.91-14.21-13.71-13.13-23.9-8.42-17.38,8-34.57,16.51-51.61,25.24-8.38,4.3-15.77,8.55-24.1-.61-4.09-4.51-9.91-2.29-14.7.79-31.37,20.15-62.3,40.94-92.06,63.42-6.64,5-10.84,13.26-4.44,19.2,12.48,11.57,2.05,13.8-5.45,18-3.71,2.09-7.28,4.43-11,6.39-7.46,3.88-10.06,9.89-6.1,17.18s10.51,8.23,18,5.1c8.55-3.6,17.18-7,25.77-10.47C135.88,398,120.27,408.05,105,418.53c-8.19,5.62-15.51,12.18-9.53,23.76.81,2.49,2.65,3.52,5.15,3.59l3.9.76.33,7.87c-3.36,2.56-6.77,5.07-10.09,7.69-6.6,5.24-15.11,10.27-9.18,20.43,5.65,9.67,14.64,8.83,23.73,4.87,2.88-1.25,5.83-2.38,8.75-3.56l6.55,3.38c-5,4.72-10,9.61-15.2,14.11-19.4,16.67-19.14,27,1.33,41.09a33.32,33.32,0,0,1-2.76,3.86c-5.53,5.83-12.73,12-7.1,20.56,6,9.14,15.07,7.44,24.29,3.75,6.63-2.65,12-8.75,21.46-8-4.41,8-11.73,11.53-17.27,16.81-7.2,6.86-10.1,16.7-.83,21.46,14.43,7.39,6.13,10.58-.57,15.46-8.28,6-15.65,13.77-9.41,24,6.92,11.34,16.36,4.68,24.64,0,2.67.67,5.55.94,7,3.81-7.58,7.08-18.95,13.81-10.72,26,8,11.77,18.08,2.69,27.1-.61,6.41-2.36,12.06-7.15,21.95-7.49-9.72,9.13-17.61,16.18-25.05,23.66-5.84,5.86-14.43,11.36-8.85,21.52,6,11,15.17,7,23.83,3.65,5.44,2.78,11.29-6.58,16.59.56-4.31,6-5.91,12.26-.26,18.34,7.13,7.67,14.48,1.13,21.74,0l3.88-2.53a5.6,5.6,0,0,1,2.33-1.08c2.86,1.31,3.66,3.72,3.56,6.62l-.22.48c-8.54,5.7-4.56,11,.55,16.21,8.11,5.78,16,3.67,24.05-.37,10.05-5.08,20.2-10,34.07-16.78-5.7,11.76-10.23,20.65-2.73,27.36,8.41,7.52,18.06,2.83,26.82-1.33,8.18-3.88,16.18-8.12,24.36-12,3.28-1.53,6.28-3.33,8.61,2.44,6.6,16.36,12,18.56,27.69,11,16.75-8.13,33.16-17,49.51-25.87,6-3.27,10.1-4.25,14.3,2.92,5,8.53,12.22,7.14,20.81,3.9,35-13.2,56.06-43.45,82.88-66.61,1.12-1,1.48-2.8,2.19-4.23,5.24-2.93,4.6-5.36-.63-7.4-2.24-3.88-3.69-7.8-.7-12,5.3-.24,10.09-1.29,11.78-7.33h0c15.16-3.53,16.15-12.9,10.34-25.08l-6.09-4.64c-5.07-8.5-9.29-4-13.48.88l-9.49,3.81c-5.63.34-9.84-.41-5.71-7.5,13.8-9,27.87-17.55,41.29-27.07,6.68-4.74,13.35-12.62,5.85-20-8.69-8.58-5-13,1.77-18.92,5-4.33,6.41-10.23,3.2-15.93-3.49-6.2-9.55-8.36-16.54-6.46a75.69,75.69,0,0,0-10.47,3.89c-45.85,20.29-89.62,44.72-134.35,67.25C388.4,607.34,362.8,625,333.27,634.89c-2.53-6.17-13.27-7.74-9.7-17.33,22.86,2.29,38.91-8.72,50.25-27.14,27.44-44.54,34.72-93.48,27.84-144.44-3.67-27.2-22.49-45.57-44.43-48.06-20.85-2.37-38.64,9.72-50.65,36.27-18.94,41.89-23.76,85.71-16,131,3.78,22,13,40.24,32.71,52.1-10.21,9.45-9.95,17.07.79,23-16.95,12-34.95,21.77-55.43,26.33-4.17-2-.38-4.16-.15-6.25,11.75-7.17,23.57-14.23,35.22-21.56,6.74-4.24,9.85-10.92,5.67-17.78-4.46-7.31-11.82-8.3-19.49-3.61-5.15,3.15-10.47,6-17.95,10.3,3.55-10.08,12.48-14.8,8.72-24.17-3.82-9.52-14.07-6.74-21.29-10,6.14-10.56,22.79-14.06,16.3-29.4-5.18-12.23-16.57-4.71-25.52-6.06,4.31-13.86,31.38-21.43,12.72-39.63-16.65-16.23,21.41-26.47,2.23-41.15-3-2.29-1.41-6.06,1.84-7.92,11.27-6.42,7.24-22.9,19.43-29.13,2.8-1.43,2.32-7.7-.35-10.31-10.49-10.27-2.05-14.07,5.64-18.59q47.42-27.93,94.75-56c3.16.71,6.36,1.36,6.18,5.7-5.76,1.34-7.78,6.93-11.71,10.35-5.69,5-9,10.89-4.83,18.29,4.33,7.6,11.26,9.14,19.32,6.87l30-8.47c-3.74,5.22-5.48,8.27-7.81,10.78-5.37,5.78-7.12,11.66-2,18.55,5.48,7.38,11.74,5.16,18.4,2,8.62-4.06,17.38-7.82,26.08-11.71q.61,3.3,1.24,6.61a6.43,6.43,0,0,1-1.67,1.89L457,418.64c-9.67,8.12-19.25,16.38-30.68,22-6.13,3-8.63,8-6.84,14.4,2.06,7.38,8.25,9.66,15,9,6.11-.62,12.07-2.77,18.91-4.45-2.93,10.29-12.21,12.66-17.92,18.54s-14,11.35-8.54,21.5c4.89,9,13,7.49,21,5.07l2.72-1.73.28-.19c3.55.43,7.79-1.09,9.89,3.47a12.47,12.47,0,0,0-9.9,7.09l-3.05,2.4-6.91,5.43a13.51,13.51,0,0,0-9.29,7.41c-8.92,4.06-15.37,11.28-22.17,17.9s-11.15,15.49-5.55,24.33c5.89,9.32,15.25,5.58,22.95,2,49.07-23.14,96.55-49.31,143.5-76.42,10.42-6,12.55-13.95,2.31-22.61-3.41-4.27-11.12-5.15-10.16-12.87q2.75-4.25,5.5-8.47c2.47-.9,4-2.32,3.11-5.25l0-3.67c1.69-4.35.27-7-4.3-8l-7-3.73c-3.53-4.48-11.26,0-13.84-6.47a11.45,11.45,0,0,1,1.8-2l2.64-2.12,6.13-4.58c3.05,0,5.41-.83,5.34-4.52,4-5.4,7.19-11.51,2.9-17.63-10.8-15.41-24.09.71-36.41-1.47,20.26-37.32,20-40.25-4.34-45.63,9-19.82,7.93-22.17-14.48-29.92,5.86-5.57,7.79-11.92,2.26-18.26-6.25-7.15-13.3-4.68-20.23-.8-1.85,1-3.83,1.86-5.74,2.78l-5.95-2.76.11-.13Z"/><path class="cls-3" d="M491.27,282.1l-1.86,6.64c-3.74.38-5.62,2.5-5.76,6.22l-.81.67L480,298.19l-.12.13-93.43,57q-47.37,28-94.75,56c-7.69,4.52-16.13,8.32-5.64,18.59,2.67,2.61,3.15,8.88.35,10.31C274.22,446.5,278.25,463,267,469.4c-3.25,1.86-4.83,5.63-1.84,7.92,19.18,14.68-18.88,24.92-2.23,41.15,18.66,18.2-8.41,25.77-12.72,39.63,8.95,1.35,20.34-6.17,25.52,6.06,6.49,15.34-10.16,18.84-16.3,29.4,7.22,3.28,17.47.5,21.29,10,3.76,9.37-5.17,14.09-8.72,24.17,7.48-4.27,12.8-7.15,17.95-10.3,7.67-4.69,15-3.7,19.49,3.61,4.18,6.86,1.07,13.54-5.67,17.78-11.65,7.33-23.47,14.39-35.22,21.56-6.88-1.17-5.63,7.21-11.41,9-28.66,9-52.86,26.82-78.66,41.51-8.66,3.3-17.82,7.3-23.83-3.65-5.58-10.16,3-15.66,8.85-21.52,7.44-7.48,15.33-14.53,25.05-23.66-9.89.34-15.54,5.13-21.95,7.49-9,3.3-19.12,12.38-27.1.61-8.23-12.16,3.14-18.89,10.72-26,7.76-2,12.15-8,15.64-15.79l-22.66,12c-8.28,4.7-17.72,11.36-24.64,0-6.24-10.24,1.13-18,9.41-24,6.7-4.88,15-8.07.57-15.46-9.27-4.76-6.37-14.6.83-21.46,5.54-5.28,12.86-8.81,17.27-16.81-9.44-.76-14.83,5.34-21.46,8-9.22,3.69-18.29,5.39-24.29-3.75-5.63-8.57,1.57-14.73,7.1-20.56a33.32,33.32,0,0,0,2.76-3.86C90.26,528.45,90,518.1,109.4,501.43c5.24-4.5,10.15-9.39,15.2-14.11,8-.38,12.39-5.44,17.61-12.74-10.69.17-17.68,4.1-24.16,9.36-2.92,1.18-5.87,2.31-8.75,3.56-9.09,4-18.08,4.8-23.73-4.87-5.93-10.16,2.58-15.19,9.18-20.43,3.32-2.62,6.73-5.13,10.09-7.69,23.38-10.4,43.9-25.73,65.63-38.89,19.32-11.69,40.18-21.21,57.05-36.76,48.6-26.33,95.85-54.92,143-83.8,20.77-12.73,42.34-24.14,63.67-35.93,8.63-4.77,16.76-3.11,18.71,6.9,2.24,11.49,7.45,8.8,14.46,5.73,9.42-4.11,17.73-3.29,23.11,6.83Z"/><path class="cls-3" d="M537.86,650.62c-3,4.19-1.54,8.11.69,12,.21,2.47.43,4.94.64,7.4-.71,1.43-1.07,3.27-2.19,4.23-26.82,23.16-47.85,53.41-82.88,66.61-8.59,3.24-15.82,4.63-20.81-3.9-4.2-7.17-8.28-6.19-14.3-2.92-16.35,8.9-32.76,17.74-49.51,25.87-15.67,7.6-21.09,5.4-27.69-11-2.33-5.77-5.33-4-8.61-2.44-8.18,3.84-16.18,8.08-24.36,12-8.76,4.16-18.41,8.85-26.82,1.33-7.5-6.71-3-15.6,2.73-27.36-13.87,6.82-24,11.7-34.07,16.78-8,4-15.94,6.15-24.05.37q-.28-8.12-.55-16.21l.22-.48c6.85-4.88,14.92-8.51,19.76-18.91-10.3,2.65-18.15,4.82-23.32,12.29a5.6,5.6,0,0,0-2.33,1.08l-3.88,2.53c-7.26,1.08-14.61,7.62-21.74,0-5.65-6.08-4-12.29.26-18.34,25.33-9.36,45.92-27.67,70.91-37.75,1.6-.65,1.84-4.65,2.72-7.09,20.48-4.56,38.48-14.33,55.43-26.33a1,1,0,0,0,1.52-.83c4.06,1,6.21-1,7.39-4.6h.26c29.52-9.85,55.12-27.55,82.63-41.41,44.73-22.53,88.5-47,134.35-67.25a75.69,75.69,0,0,1,10.47-3.89c7-1.9,13,.26,16.54,6.46,3.21,5.7,1.78,11.6-3.2,15.93-6.77,5.88-10.46,10.34-1.77,18.92,7.5,7.41.83,15.29-5.85,20C553,593.2,539,601.78,525.16,610.74c-2,.13-4.57-.48-6,.52-20.73,14.78-42.37,27.93-65.62,38.46-2.26,1-5.08,3.94-3,8.71,23.17-7.66,42.48-23.26,65.21-31.65,5.35-2,10.08-5.64,15.09-8.53l9.49-3.8,13.48-.89,6.09,4.64c3.53,11.24-6.22,17-10.34,25.08h0C544.47,643.73,539.81,645,537.86,650.62ZM255.63,711.7c-.25-1.21-.43-2-.61-2.85a26,26,0,0,0-4.2,1.65c-.24.14.35,1.7.56,2.6Z"/><path class="cls-3" d="M559.81,431.71l7,3.73c-.42,3.67,1.27,6.21,4.3,8,0,1.22,0,2.45,0,3.68-2,1.15-3.86,2.43-3.12,5.24q-2.75,4.23-5.5,8.47c-13.22,9-27.12,17.19-37.92,29.35-.22.36-.44.71-.65,1.07l.52-1.19c8.34.49,15.55-3.27,22.22-7.23,8.18-4.86,15.58-11,26-9.13,10.24,8.66,8.11,16.59-2.31,22.61-47,27.11-94.43,53.28-143.5,76.42-7.7,3.63-17.06,7.37-22.95-2-5.6-8.84-1.36-17.6,5.55-24.33s13.25-13.84,22.17-17.9c5-.06,8.36-2.21,9.29-7.41l6.91-5.43,3.05-2.4a12.47,12.47,0,0,1,9.9-7.09c6-1,12.89-4.25,10.46-10.25-2.53-6.24-8.86.71-13.61,1-3.21.18-5.37,2.84-6.74,5.81l-.28.19-2.72,1.73c-8,2.42-16.12,3.92-21-5.07-5.51-10.15,2.74-15.51,8.54-21.5s15-8.25,17.92-18.54c-6.84,1.68-12.8,3.83-18.91,4.45-6.73.68-12.92-1.6-15-9-1.79-6.42.71-11.38,6.84-14.4,11.43-5.64,21-13.9,30.68-22,1.86.28,2.69-.6,2.72-2.4a6.18,6.18,0,0,0,1.66-1.9,35.14,35.14,0,0,0,5.46-2.71c3.36-2.43,10.39-3.79,7.17-9.22-2.38-4.05-7.31.42-10.82,2.06-1.25.58-2,2.15-3,3.27-8.7,3.89-17.46,7.65-26.08,11.71-6.66,3.13-12.92,5.35-18.4-2-5.12-6.89-3.37-12.77,2-18.55,2.33-2.51,4.07-5.56,7.81-10.78l-30,8.47c-8.06,2.27-15,.73-19.32-6.87-4.2-7.4-.86-13.33,4.83-18.29,3.93-3.42,5.95-9,11.71-10.35l93.21-60c1.91-.92,3.89-1.74,5.74-2.78,6.93-3.88,14-6.35,20.23.8,5.53,6.34,3.6,12.69-2.26,18.26C532,325.11,533,327.46,524,347.28c24.29,5.38,24.6,8.31,4.34,45.63,12.32,2.18,25.61-13.94,36.41,1.47,4.29,6.12,1.1,12.23-2.9,17.63l-5.34,4.52-6.13,4.57c-1.79-.42-2.56.43-2.64,2.13a11.45,11.45,0,0,0-1.8,2c-6.55,1.63-10.44,6.06-13.89,13.63Z"/><path class="cls-3" d="M225.42,373.4c-1.69,1-3.19,2.1-2.31,4.44l.35,0c-3.21-1.86-5.94-.08-8.75,1.15a63.16,63.16,0,0,0-7,3.26q-51.63,32.11-103.18,64.35l-3.89-.76c-.67-2.71-2.7-3.45-5.16-3.59-6-11.58,1.34-18.14,9.53-23.76,15.28-10.48,30.89-20.49,45.14-33.22-8.59,3.48-17.22,6.87-25.77,10.47-7.44,3.13-14.06,2.08-18-5.1s-1.36-13.3,6.1-17.18c3.77-2,7.34-4.3,11-6.39,7.5-4.23,17.93-6.46,5.45-18-6.4-5.94-2.2-14.18,4.44-19.2,29.76-22.48,60.69-43.27,92.06-63.42,4.79-3.08,10.61-5.3,14.7-.79,8.33,9.16,15.72,4.91,24.1.61,17-8.73,34.23-17.21,51.61-25.24,10.19-4.71,20-5.79,23.9,8.42,2.05,7.44,6.38,7.06,12.19,4.17,8.57-4.24,17.25-8.32,26.13-11.84,8.4-3.32,17.39-4.36,22.72,4.82,5.82,10-1.46,15.9-9,20.66q-73.35,46.51-146.82,92.84c-5.37,3.41-10.46,7.25-15.68,10.9Z"/><path class="cls-1" d="M323.33,617.29c-19.69-11.85-28.94-30.13-32.72-52.09-7.79-45.3-3-89.12,16-131,12-26.55,29.8-38.64,50.65-36.27,21.94,2.49,40.76,20.86,44.43,48.06,6.88,51-.4,99.9-27.84,144.44-11.34,18.42-27.39,29.43-50.26,27.14C323.56,617.57,323.33,617.29,323.33,617.29Zm63.4-126.24c.31-32.27-2.08-45.39-8.69-58.1-10.91-21-33.08-23.24-47.71-4.79-9.46,11.93-14.3,26-18,40.51-9.6,37.68-13.33,75.65,1.71,112.63,9.45,23.2,27,24.11,41.93,3.55C378.41,553.9,384.94,518.14,386.73,491.05Z"/><path class="cls-4" d="M104.51,446.64q51.58-32.19,103.18-64.35a63.16,63.16,0,0,1,7-3.26q5.08,4.86,8.75-1.15l-.35,0,4.41,1c-16.87,15.55-37.73,25.07-57.05,36.76-21.73,13.16-42.25,28.49-65.63,38.89Z"/><path class="cls-4" d="M485.84,301.08l-93.21,60c.18-4.34-3-5-6.18-5.7l93.43-57Z"/><path class="cls-4" d="M268.68,666.65c-.88,2.44-1.12,6.44-2.72,7.09-25,10.08-45.58,28.39-70.91,37.75-5.3-7.14-11.15,2.22-16.59-.56,25.8-14.69,50-32.53,78.66-41.51,5.78-1.81,4.53-10.19,11.41-9C268.3,662.49,264.51,664.66,268.68,666.65Z"/><path class="cls-4" d="M530.87,618.25c-5,2.89-9.74,6.55-15.09,8.53-22.73,8.39-42,24-65.21,31.65-2.09-4.77.73-7.69,3-8.71,23.25-10.53,44.89-23.68,65.62-38.46,1.41-1,4-.39,6-.52C521,617.84,525.24,618.59,530.87,618.25Z"/><path class="cls-4" d="M572.65,473.73c-10.41-1.85-17.81,4.27-26,9.13-6.67,4-13.88,7.72-22.22,7.23l.13.12c10.8-12.16,24.7-20.32,37.92-29.35C561.53,468.58,569.24,469.46,572.65,473.73Z"/><path class="cls-4" d="M222.74,726.27c5.17-7.47,13-9.64,23.32-12.29-4.84,10.4-12.91,14-19.76,18.91C226.4,730,225.6,727.58,222.74,726.27Z"/><path class="cls-5" d="M324.11,640.32c-10.74-6-11-13.57-.79-23,0,0,.24.27.24.26-3.56,9.59,7.18,11.16,9.72,17.33H333c-4-.94-6.45.62-7.38,4.6A1,1,0,0,1,324.11,640.32Z"/><path class="cls-4" d="M118.05,483.94c6.48-5.26,13.47-9.19,24.16-9.36-5.22,7.3-9.63,12.36-17.61,12.74Z"/><path class="cls-4" d="M143.18,640.42l22.66-12c-3.49,7.82-7.88,13.77-15.64,15.79C148.73,641.36,145.85,641.09,143.18,640.42Z"/><path class="cls-1" d="M450.87,502.78c1.37-3,3.53-5.63,6.74-5.81,4.75-.26,11.08-7.21,13.61-1,2.43,6-4.45,9.21-10.46,10.25C458.66,501.69,454.42,503.21,450.87,502.78Z"/><path class="cls-4" d="M559.81,431.71l-27.73,7.16c3.45-7.57,7.34-12,13.89-13.63C548.55,431.75,556.28,427.23,559.81,431.71Z"/><path class="cls-4" d="M460.1,407.75c1-1.12,1.79-2.69,3-3.27,3.51-1.64,8.44-6.11,10.82-2.06,3.22,5.43-3.81,6.79-7.17,9.22a35.14,35.14,0,0,1-5.46,2.71Z"/><path class="cls-4" d="M549.59,643.28c4.12-8.08,13.87-13.84,10.34-25.08C565.74,630.38,564.75,639.75,549.59,643.28Z"/><path class="cls-4" d="M553.84,613.56l-13.48.89C544.55,609.6,548.77,605.06,553.84,613.56Z"/><path class="cls-4" d="M226.08,733.37q.27,8.1.55,16.21C221.52,744.34,217.54,739.07,226.08,733.37Z"/><path class="cls-4" d="M537.86,650.62c1.95-5.61,6.61-6.89,11.78-7.33C548,649.33,543.16,650.38,537.86,650.62Z"/><path class="cls-4" d="M467,312.55c.14-3.73,2-5.84,5.77-6.23C472.88,310.27,471.16,312.52,467,312.55Z"/><path class="cls-4" d="M571.08,443.47c-3-1.82-4.72-4.36-4.3-8C571.35,436.44,572.77,439.12,571.08,443.47Z"/><path class="cls-1" d="M440.9,521.17c-.93,5.2-4.28,7.35-9.29,7.41A13.51,13.51,0,0,1,440.9,521.17Z"/><path class="cls-4" d="M539.19,670c-.21-2.46-.43-4.93-.64-7.4C543.79,664.65,544.43,667.08,539.19,670Z"/><path class="cls-4" d="M556.54,416.53l5.34-4.52C562,415.7,559.59,416.52,556.54,416.53Z"/><path class="cls-4" d="M95.46,442.29c2.46.14,4.49.88,5.16,3.59C98.11,445.81,96.27,444.78,95.46,442.29Z"/><path class="cls-4" d="M568,452.39c-.74-2.81,1.09-4.09,3.12-5.24C572,450.07,570.46,451.49,568,452.39Z"/><path class="cls-4" d="M216.53,729.88l3.88-2.53Z"/><path class="cls-1" d="M450.86,513.34l-3.05,2.4Z"/><path class="cls-1" d="M447.87,504.7l2.72-1.73Z"/><path class="cls-4" d="M547.77,423.23c.08-1.7.85-2.55,2.64-2.13Z"/><path class="cls-4" d="M225.42,373.4l4-2.39C228.83,373.07,227.52,373.89,225.42,373.4Z"/><path class="cls-4" d="M463.37,315.78l2.84-2.56C465.26,314.07,464.31,314.92,463.37,315.78Z"/><path class="cls-4" d="M474.65,299.69c-.29-1.18-.57-2.35-.85-3.52a15.37,15.37,0,0,1,1.37,2.25C475.29,298.73,474.84,299.26,474.65,299.69Z"/><path class="cls-4" d="M459.67,416.25c0,1.8-.86,2.68-2.72,2.4C457.85,417.84,458.76,417.05,459.67,416.25Z"/><path class="cls-4" d="M255.63,711.7l-4.25,1.4c-.21-.9-.8-2.46-.56-2.6a26,26,0,0,1,4.2-1.65C255.2,709.67,255.38,710.49,255.63,711.7Z"/><path class="cls-2" d="M325.63,639.49c.93-4,3.38-5.54,7.38-4.6C331.84,638.49,329.69,640.51,325.63,639.49Z"/><path class="cls-4" d="M524.44,490.09l-.52,1.19c.21-.36.43-.71.65-1.07Z"/><path class="cls-2" d="M223.46,377.88q-3.66,6-8.75,1.15C217.52,377.8,220.25,376,223.46,377.88Z"/></svg>