<svg id="Capa_1" data-name="Capa 1" xmlns="http://www.w3.org/2000/svg" viewBox="0 0 667.71 1024"><defs><style>.cls-1{fill:#f8c647;}.cls-2{fill:#f8f8eb;}.cls-3{fill:#fbedbe;}.cls-4{fill:#fac235;}</style></defs><path class="cls-1" d="M550,494.93c0,74.09,3.39,148.17.53,222.29A209.61,209.61,0,0,1,539.24,778c-10.87,31.27-34.56,50.84-66.41,58.39-47,11.13-95,11.5-142.31,3.7-68.48-11.3-96.76-45-102.56-120.84-5.39-70.41,3.64-140.55,9.4-210.63,1.31-15.88-2.64-20-17.83-18.47-51.77,5.11-92.35-12.65-117.47-60.07-11.87-22.42-12.57-45.89-4.17-69.28C103.2,346,114,336.12,129.68,331.32c64.51-19.8,114.2-58.93,148.22-117.1,38.43-65.72,89-73.05,160.5-63.71,45.67,6,79.46,31.75,101.28,72.71,9.21,17.29,10.18,36.06,10.23,54.89C550.1,350.39,550,422.66,550,494.93ZM191.38,331.43c-4,.09-7.82.76-10.81,3.77L176.14,338c-14.59,5.63-29.14,11.37-43.77,16.88-8.44,3.17-12.72,9.49-15.31,17.77-9.94,31.71,12.74,74.48,46.91,88.68,24.2,10.05,48.84,9.64,73.84,4.17,19.77-4.33,25.47-.26,22.56,18.88-2.76,18.14-2.13,36.37-4,54.46-6.39,60.66-9.79,121.47-7,182.42,2.19,47.23,24.55,82,61.73,92.15,51.08,14,103.23,13.67,154.87,2.57,27.89-6,47-24.32,54.4-51.89,8.59-32.22,11.31-65.53,10.81-98.82-1.42-96.11-3.84-192.21-5.1-288.32-.47-35.15,1.38-70.34,1.85-105.51a84.48,84.48,0,0,0-18.22-54.3c-30.16-38.81-72.28-50.9-118.49-49.11-42,1.62-74.67,20.45-95.49,59.5C282.2,252.91,263.05,275,241.56,294.6c-7.78,4.45-15.28,9.23-20.15,17.11l-9.83,5.73c-2.33.51-5.9-.61-5.22,3.92L196,328.12Z"/><path class="cls-1" d="M567.87,639.91c1.1-96.07-4.92-170.59-8.36-245.22-.32-6.9-1-13.86-.5-20.71.51-6.69-3.64-16.77,8.31-17.49,11.51-.69,12.61,8.79,13.13,16.92,2.73,43.18,5.53,86.37,7.42,129.6,2.53,57.74,6,115.57,2.88,173.32-1.54,28.61,1.16,57.93-8.51,85.82-1.42,4.1-2.73,8.35-4.93,12-3.28,5.5-8.6,7.35-14.65,5.13-6.39-2.35-5.54-7.65-4.14-12.68C572.11,718,566.9,668.08,567.87,639.91Z"/><path class="cls-1" d="M186,711.8c.28-15-.27-30,3.79-44.85,2.16-7.88,5.28-15.49,13.93-14.46,10,1.19,8.81,9.74,7.81,17.75-3.75,29.93-3.57,59.52,2.6,89.51,10,48.73,57,85.17,105.19,90.35,11.22,1.21,22.43,2.52,33.68,3.35,7.94.58,15.74.84,14.91,11.93-.86,11.5-9.78,9.39-17,9.52C246.71,876.75,185.89,816.56,186,711.8Z"/><path class="cls-1" d="M193.26,535C119,532.19,66.64,486.39,56.94,416.49c-.5-3.65-1.22-7.59-.38-11.05,1.48-6.13,3.76-12,12.18-11.7,8.72.32,9.79,6,10.17,12.74,1.37,23.83,9.29,45.43,24.55,63.65,20.14,24.05,46.84,36.59,77.66,40.7,4.34.57,8.8.23,13.12.88,8.38,1.27,19.7.55,18.52,13.18C211.63,537.05,201.28,535.89,193.26,535Z"/><path class="cls-1" d="M83.12,357.77c-.5,9.71-3.53,17.45-14.92,17.38-10.07-.06-16.67-4.79-16.8-15.66C51.28,350,56.19,343.43,65.52,343S82.6,346.49,83.12,357.77Z"/><path class="cls-1" d="M540.42,808.62c10.71,1,16.56,6.42,16.69,16.83s-7.3,14.41-15.74,14.93c-10.51.65-16.08-6.1-15.9-16.33C525.65,814.54,531.82,809.85,540.42,808.62Z"/><path class="cls-2" d="M241.56,294.6c21.49-19.6,40.64-41.69,54.18-67.08,20.82-39.05,53.46-57.88,95.49-59.5,46.21-1.79,88.33,10.3,118.49,49.11a84.48,84.48,0,0,1,18.22,54.3c-.47,35.17-2.32,70.36-1.85,105.51,1.26,96.11,3.68,192.21,5.1,288.32.5,33.29-2.22,66.6-10.81,98.82C513,791.65,493.87,810,466,816c-51.64,11.1-103.79,11.41-154.87-2.57-37.18-10.18-59.54-44.92-61.73-92.15-2.83-61,.57-121.76,7-182.42,1.9-18.09,1.27-36.32,4-54.46,2.91-19.14-2.79-23.21-22.56-18.88-25,5.47-49.64,5.88-73.84-4.17-34.17-14.2-56.85-57-46.91-88.68,2.59-8.28,6.87-14.6,15.31-17.77,14.63-5.51,29.18-11.25,43.77-16.87,2.62.86,4-.16,4.43-2.8,3-3,6.8-3.68,10.82-3.76,2.61.37,4.11-.79,4.64-3.32l10.34-6.76,5.21-3.92,9.83-5.72,5.62,6.41-8.36,6.73c-3.25.14-5.87,1.2-6.83,4.68l-6.12,4.61c-2.57-.26-4.08.9-4.58,3.42-10.47,8.93-21.12,17.67-31.37,26.84-9.47,8.46-24.84,15.74-17,31.49s22.07,7.94,36.42,1.29c-3.49,9.35-8.62,12.68-13.76,16-2.52.1-3.83,1.4-3.83,3.95a4.56,4.56,0,0,1-1.77,2.18c-11,5.84-9.65,12.41-1.16,19.42,4.69,4.61,10.78,5,16.82,5.62l3.66-1.13,3.59-1.19,3.91-3.34.27-.37,3.94-6.17a7.45,7.45,0,0,1,3.21-1.46l4-2.9c6.55-6.43,12.57-13.53,21.37-17.15l6.18,6.37a6.23,6.23,0,0,1-1.32,2.42l-4.53,5.79-1,1.15c-7.93,5-7.52,9.06,1.4,12.13l.11.12c.11,3.36,1.19,6,4.9,6.75,13.33,3.39,24.67-3.13,36.48-7.32,4.77.48,7.47-1.73,8.25-6.4l10.43-5.16c4,1.3,10.42-1.53,10.85,6.15l-.73,1.22c-4.5,1.48-6.35,4.44-5.11,9.14-.4,7.92,3.32,13.48,10,17.33,1.34,2.54,3.2,3.91,6.18,2.76l4.31-.11,4.9,5.07-32,30c-9.7,6.08-5.55,11,1.31,15.7,5.3,12.14,17.38,3.9,27.91,7.56-8.3,6.59-14.44,11.71-20.83,16.48-8.13,6.07-17.51,12.82-15.47,23.59,2.43,12.78,14.84,13.19,25.55,14.21.55,0,.91,2,1.33,3.07-7.94,7-16.23,13.65-23.68,21.12-8.42,8.45-10.18,20.91,1,24.95,18.72,6.75,7.61,11.69,1.17,17.54-7.14,6.49-11.19,14.12-7.59,23.34,3.48,8.89,12.08,7.23,19.55,7.05,2.15-.06,4.31,0,9.79,0l-29,22.27-3.59,4h0a4,4,0,0,0-3.1,4.75c-1.73,7.3,1.73,12.77,6.33,17.84.91,5.19,2.38,9,7.76,3.12l10.07-.55c5.08,1.34,8.05-.72,9.19-5.71l.5-.34c6.23-1.21,9.52.32,6.88,7.38-5,5.55-10.09,11-15,16.68-5.57,6.47-6.84,13.52-.89,20.32,5.28,6,11.74,9.51,20,5.72q6.81-3.1,13.64-6.18c5,2.79,4.48,7.68,4.7,12.29-6.67,12.66.6,19.45,10.59,25.09,3.41,5.66,6.25,5.1,8.6-.8l9.52-2.91c4.69,1.22,7.95-.17,9.28-5.08,7.8-4.38,14.89-10.6,26-11.24-2.14,10.1-4.59,18.45,4.43,25.09,9.51,7,16.7.91,24.15-2.86,15.62-7.89,30.86-16.52,46.36-24.63,7.27-3.81,14.65-10.37,10.51-17.36-8.6-14.53-.15-20.92,8.73-29.55,14.31-13.91,14.27-20.93-1.41-33.44-7.54-6-4.23-7.59.14-12.33,9.06-9.86,27.67-18.32,16.64-34.5-11.18-16.41-26.85-3-40.39,1.29-2.83-1.82-4.8-4.14-4.57-7.76l7.33-4.86c3.41-.25,6-1.44,6.37-5.34l8-6.34c6.31-2,8.33-6.32,6.75-12.57-.66-9-7.21-13-14.07-16.71-6.63-5.27-2.16-10.34.29-15.44,5.82-8.2,19.5-19.44,7.3-26.35-21.42-12.15-7.25-17.11,1.09-25.06,5.39-5.14,7.77-11.14,4.38-18.57-3.31-7.24-9.34-9.27-16.65-9.84-4.37-.33-8.6,4.51-14.76,0,8.69-6.82,16.92-12.38,24.05-19.1,9.15-8.62,16.39-18.34,3.73-30-5.64-5.2-4.77-9.95,1.34-13.54,11.1-6.53,9.63-16.29,7.56-26.4-6.17-8.71-13.27-12.24-22.49-4.07L434.63,425.5q-.81-3.75-1.63-7.5a4.22,4.22,0,0,1,1.6-2.22l3.54-3.18c15.49-13.58,31.24-26.87,46.36-40.85,8.78-8.12,11.05-20.3-.76-24.81-21.29-8.12-12.78-13-.53-20.35,4.22-2.53,7.58-6.52,11.22-10,6.88-6.51,11.6-14.6,6.13-23.32-6.23-10-16.11-7.31-25.15-3.47-12.54,5.33-25,10.89-37.47,16.35l.15.19c-1.58-4.7,1.73-6.37,4.83-8.75,15.34-11.8,30.84-23.45,45.51-36.05,5.81-5,13.2-12.12,5.65-20.65-6.32-7.15-15-9-23.66-2.93-11.63,8.12-23.18,16.36-34.76,24.54L429.29,256c10.73-9.47,21.36-19.05,32.23-28.36,7.76-6.64,9.88-15.35,5.41-23.57-5.06-9.3-14.36-8.2-23.32-5-6.38,2.29-11.51,7.72-18.84,7.62-6.91-23.12-16.17-26.78-38.6-16.45-18.74,8.63-36.18,19.92-56,26.37-9.68,3.15-14.28,10.21-10.58,20.53,2.92,8.14-.64,12.38-7,17-22.24,16-44,32.76-65.95,49.23C242.87,301.64,241.8,298.36,241.56,294.6Z"/><path class="cls-3" d="M227,318.13l-5.62-6.41c4.87-7.89,12.37-12.67,20.15-17.12.24,3.76,1.31,7,5.05,8.78C242,310.79,235.27,315.49,227,318.13Z"/><path class="cls-3" d="M211.58,317.44l-5.21,3.92C205.68,316.83,209.25,318,211.58,317.44Z"/><path class="cls-3" d="M180.57,335.2c-.39,2.64-1.81,3.66-4.43,2.8Q178.35,336.59,180.57,335.2Z"/><path class="cls-3" d="M196,328.12c-.53,2.53-2,3.69-4.64,3.32Z"/><path class="cls-4" d="M290.3,426.49l-10.43,5.16c-4.66-.33-7.09,2.23-8.25,6.4-11.81,4.19-23.15,10.71-36.49,7.32-.62-3-1.6-5.7-4.89-6.75l-.11-.12q-.7-6.08-1.4-12.13s1-1.15,1-1.14c3.78-.16,4.27-2.89,4.52-5.8a6.23,6.23,0,0,0,1.32-2.42c5.31-3.24,11-6,15.87-9.78q67-51.69,133.76-103.71c17.1-13.3,36.19-24.16,50.44-41,11.58-8.19,23.13-16.43,34.76-24.55,8.7-6.07,17.34-4.22,23.66,2.93,7.55,8.53.16,15.66-5.65,20.65-14.67,12.6-30.17,24.25-45.51,36.05-3.1,2.38-6.41,4.05-4.83,8.75l-5,1,.75,1.56,4.12-2.73c12.49-5.46,24.93-11,37.47-16.35,9-3.84,18.92-6.49,25.15,3.47,5.47,8.72.75,16.81-6.13,23.32-3.64,3.44-7,7.43-11.22,10-12.25,7.34-20.76,12.23.53,20.35,11.81,4.51,9.54,16.69.76,24.81-15.12,14-30.87,27.27-46.36,40.84l-3.54,3.19A4.15,4.15,0,0,0,433,418c-8.63,2.73-12.72,10.39-18.27,16.81,7.82-.9,14.9-2.86,19.89-9.31q20.25-8.22,40.52-16.44l22.49,4.06c2.07,10.11,3.54,19.87-7.56,26.4-6.11,3.59-7,8.34-1.34,13.54,12.66,11.66,5.42,21.38-3.73,30-7.13,6.72-15.36,12.28-24.05,19.1,6.16,4.53,10.39-.31,14.76,0,7.31.57,13.34,2.6,16.65,9.84,3.39,7.43,1,13.43-4.38,18.57-8.34,7.95-22.51,12.91-1.09,25.06,12.2,6.91-1.48,18.15-7.3,26.34-8.86,4.36-17.68,8.74-21.49,21.44l21.2-6c6.86,3.74,13.41,7.75,14.07,16.72-5.29,2.55-6.17,7.47-6.75,12.56l-8,6.35-6.37,5.33-7.33,4.86c-9.19,3.88-14.79,11.69-24.81,20.18,14.6-.08,22.48-5.14,29.38-12.42,13.54-4.27,29.21-17.7,40.39-1.29,11,16.18-7.58,24.64-16.64,34.5-4.37,4.74-7.68,6.31-.14,12.33,15.68,12.51,15.72,19.53,1.41,33.44-8.88,8.63-17.33,15-8.73,29.55,4.14,7-3.24,13.55-10.51,17.36-15.5,8.11-30.74,16.74-46.36,24.63-7.45,3.77-14.64,9.85-24.15,2.86-9-6.64-6.57-15-4.43-25.09-11.14.64-18.23,6.86-26,11.23-4.61-1.07-7.25,1.44-9.28,5.09l-9.52,2.9c-2.87.26-5.74.54-8.6.81-10-5.64-17.26-12.43-10.59-25.09,12-10.27,25.75-18.67,34.47-33-14.12,5-27.81,10.54-39.17,20.71q-6.83,3.09-13.64,6.18c-8.31,3.79-14.77.32-20-5.72-6-6.8-4.68-13.85.89-20.32,4.87-5.66,10-11.13,15-16.68,12.25-6.68,24.2-13.7,32.74-27.93-16.14,4.62-28.15,12.08-39.62,20.55l-.5.34c-4.82-.93-7.46,1.66-9.19,5.71l-10.07.55c-1.94-2.65-4.67-3.33-7.76-3.12-4.6-5.07-8.06-10.54-6.33-17.85l3.1-4.74h0l3.6-4,29-22.27c-5.48,0-7.64-.05-9.79,0-7.47.18-16.07,1.84-19.55-7.05-3.6-9.22.45-16.85,7.59-23.34,6.44-5.85,17.55-10.79-1.17-17.54-11.18-4-9.42-16.5-1-24.95,7.45-7.47,15.74-14.11,23.68-21.12-.42-1.07-.78-3-1.33-3.07-10.71-1-23.12-1.43-25.55-14.21-2-10.77,7.34-17.52,15.47-23.59,6.39-4.77,12.53-9.89,20.83-16.48-10.53-3.66-22.61,4.58-27.91-7.56q-.64-7.84-1.31-15.7l32-30c8.58.06,12.61-4.24,14-13.8-8.91.47-14.68,2.88-18.91,8.72l-4.31.12c-1.58-2-2.93-4.5-6.18-2.77-6.67-3.85-10.39-9.41-10-17.34,4-1.74,6.66-4.27,5.12-9.13,0,0,.73-1.22.74-1.22,4.08-.24,6.8-2.08,7.49-6.33a4.79,4.79,0,0,0,1.32-2.83c11.79-2.19,17.18-11.58,22.92-21C318.32,410,301.88,413.83,290.3,426.49Z"/><path class="cls-4" d="M227,318.13c8.24-2.64,14.93-7.34,19.58-14.75,21.95-16.46,43.71-33.17,65.95-49.22,6.4-4.62,10-8.86,7-17-3.7-10.32.9-17.38,10.58-20.53,19.81-6.45,37.25-17.74,56-26.37,22.43-10.33,31.69-6.67,38.6,16.45,7.33.1,12.46-5.33,18.84-7.62,9-3.22,18.26-4.32,23.32,5,4.47,8.22,2.35,16.93-5.41,23.57C450.65,237,440,246.53,429.29,256c-5.85,3.53-12.09,6.55-17.5,10.66-30.88,23.45-61.91,46.71-92.21,70.9s-62.88,45.32-90.17,73.08c-8.8,3.62-14.82,10.72-21.37,17.15l-4,2.9a7.55,7.55,0,0,0-3.21,1.45c-3.88.42-4.21,3.11-3.94,6.18l-.27.37L192.72,442l-3.59,1.19-3.66,1.13c-6-.57-12.13-1-16.82-5.62q.58-9.72,1.16-19.42a4.54,4.54,0,0,0,1.77-2.19l3.83-3.94c5.14-3.31,10.27-6.64,13.76-16-14.35,6.65-28.53,14.6-36.42-1.29s7.55-23,17-31.49c10.25-9.17,20.9-17.91,31.37-26.85l4.58-3.41,6.12-4.61c3.15-.28,5.64-1.53,6.83-4.68Z"/><path class="cls-3" d="M229.41,410.64c27.29-27.76,59.94-48.95,90.17-73.08s61.33-47.45,92.21-70.9c5.41-4.11,11.65-7.13,17.5-10.66l6.37,6.54c-14.25,16.82-33.34,27.68-50.44,41q-66.8,52-133.76,103.71c-4.89,3.78-10.56,6.54-15.87,9.78Z"/><path class="cls-3" d="M308.64,426.31c-.68,4.25-3.4,6.09-7.48,6.33-.44-7.68-6.82-4.85-10.86-6.15,11.58-12.66,28-16.47,42.59-24-5.74,9.45-11.13,18.84-22.92,21l-2.63-1.36C307.78,423.52,308.21,424.91,308.64,426.31Z"/><path class="cls-3" d="M331.6,762c11.36-10.17,25-15.75,39.17-20.71-8.72,14.33-22.46,22.73-34.47,33C336.08,769.64,336.57,764.75,331.6,762Z"/><path class="cls-3" d="M306.88,718c11.47-8.47,23.48-15.93,39.62-20.55C338,711.72,326,718.74,313.76,725.42,316.4,718.36,313.11,716.83,306.88,718Z"/><path class="cls-3" d="M469.48,651c-6.9,7.28-14.78,12.34-29.38,12.42,10-8.49,15.62-16.3,24.81-20.18C464.68,646.88,466.65,649.2,469.48,651Z"/><path class="cls-3" d="M479.31,597.44l-21.2,6c3.81-12.7,12.63-17.08,21.49-21.44C477.15,587.1,472.68,592.17,479.31,597.44Z"/><path class="cls-3" d="M315.79,463c4.23-5.84,10-8.25,18.91-8.72-1.4,9.56-5.43,13.86-14,13.8Q318.25,465.51,315.79,463Z"/><path class="cls-3" d="M434.63,425.5c-5,6.45-12.07,8.41-19.89,9.31,5.55-6.42,9.64-14.08,18.27-16.81Z"/><path class="cls-3" d="M169.81,419.31q-.57,9.7-1.16,19.42C160.16,431.72,158.84,425.15,169.81,419.31Z"/><path class="cls-3" d="M497.64,413.12l-22.49-4.06C484.37,400.88,491.47,404.41,497.64,413.12Z"/><path class="cls-3" d="M288.71,498.09q.66,7.85,1.31,15.7C283.16,509.09,279,504.17,288.71,498.09Z"/><path class="cls-3" d="M228.73,426.37q.71,6.06,1.4,12.13C221.21,435.43,220.8,431.38,228.73,426.37Z"/><path class="cls-3" d="M486.63,626.72c.58-5.09,1.46-10,6.75-12.56C495,620.4,492.94,624.71,486.63,626.72Z"/><path class="cls-3" d="M365,795.63c2-3.65,4.67-6.16,9.28-5.09C373,795.46,369.7,796.85,365,795.63Z"/><path class="cls-3" d="M346.89,799.34c2.86-.27,5.73-.55,8.6-.81C353.14,804.44,350.3,805,346.89,799.34Z"/><path class="cls-3" d="M279.36,721.52c3.09-.21,5.82.47,7.76,3.12C281.74,730.53,280.27,726.71,279.36,721.52Z"/><path class="cls-3" d="M300.42,433.86c1.54,4.86-1.08,7.39-5.12,9.13C294.07,438.3,295.92,435.34,300.42,433.86Z"/><path class="cls-3" d="M271.62,438.05c1.16-4.17,3.59-6.73,8.25-6.4C279.09,436.32,276.39,438.53,271.62,438.05Z"/><path class="cls-3" d="M297.19,724.09c1.73-4.05,4.37-6.64,9.19-5.71C305.24,723.37,302.27,725.43,297.19,724.09Z"/><path class="cls-3" d="M234.27,419.43c-.25,2.91-.74,5.64-4.52,5.8Q232,422.32,234.27,419.43Z"/><path class="cls-3" d="M472.24,638.4l6.37-5.33C478.26,637,475.65,638.15,472.24,638.4Z"/><path class="cls-3" d="M218.67,324.86c-1.19,3.15-3.68,4.4-6.83,4.68C212.8,326.06,215.42,325,218.67,324.86Z"/><path class="cls-3" d="M196.9,438.32c-.27-3.07.06-5.76,3.94-6.18C199.53,434.21,198.21,436.26,196.9,438.32Z"/><path class="cls-3" d="M230.24,438.62c3.29,1.05,4.27,3.76,4.89,6.75C231.43,444.63,230.35,442,230.24,438.62Z"/><path class="cls-3" d="M305.3,460.33c3.25-1.73,4.6.78,6.18,2.77C308.5,464.24,306.64,462.87,305.3,460.33Z"/><path class="cls-3" d="M185.47,444.35l3.66-1.13Z"/><path class="cls-3" d="M192.72,442l3.91-3.34Z"/><path class="cls-3" d="M204.05,430.69l4-2.9Z"/><path class="cls-3" d="M434.6,415.78l3.54-3.19Z"/><path class="cls-3" d="M175.41,413.18l-3.83,3.94C171.58,414.58,172.89,413.28,175.41,413.18Z"/><path class="cls-3" d="M276.13,698.93l-3.1,4.74A4,4,0,0,1,276.13,698.93Z"/><path class="cls-3" d="M279.73,695l-3.6,4Z"/><path class="cls-3" d="M205.72,334.15l-4.58,3.41C201.64,335.05,203.15,333.89,205.72,334.15Z"/><path class="cls-2" d="M437.94,306.19l-4.12,2.73-.75-1.56,5-1Z"/><path class="cls-2" d="M308.64,426.31c-.43-1.4-.86-2.79-1.3-4.19l2.63,1.36A4.74,4.74,0,0,1,308.64,426.31Z"/></svg>