<svg id="Capa_1" data-name="Capa 1" xmlns="http://www.w3.org/2000/svg" viewBox="0 0 667.71 1024"><defs><style>.cls-1{fill:#b4c549;}.cls-2{fill:#fbedbe;}.cls-3{fill:#f8f8eb;}.cls-4{fill:#fffffd;}.cls-5{fill:#aebf38;}</style></defs><path class="cls-1" d="M258.76,463.44l-11.24,3.92c-4.09.22-8.23.32-11.17,3.89l-9.61,1.93a1.71,1.71,0,0,0-2,.54L218.81,475c-4.16-.64-8.36-1.59-11.9,1.8l-23.85.24c-7.42-3.89-15.66-4-23.67-5.13l-7.5-2.32-3.83-1.84c-40.47-23.17-62-68.72-57.5-115.36,6.66-68.84,47.75-109,109-130.31,88.53-30.88,175.9-22.91,259.8,17.41,36.81,17.7,67.76,43.53,82.13,84,13.19,37.14,8.62,74.29-2,111.17-.95,3.29-2,6.55-3,9.83-5.85,6.26-7.08,14.45-9.26,22.24-.42,1-.85,2-1.26,3-.59,1.09-1.2,2.18-1.8,3.27-1,2-2,4-3,5.95-3.22,1.08-4.93,3.2-4.56,6.73l-4.32,7.93c-3.16,1.23-4.85,3.4-4.39,6.93-2.81,2.49-6.4,4.37-6.79,8.73a7.39,7.39,0,0,0-4.89,6.13q-13.91,15.15-27.78,30.31c-1.9,2.08-4.86,4-3.71,7.31,1.2,3.52,4.67,2.81,7.52,3,16.12,1.29,32.22,3.42,48.36,3.77,51.11,1.1,67.1,35.53,73.09,71.64,4.17,25.08,2.29,50.88-8.33,75.13-9.9,22.63-25.78,35.4-51.35,37.51-91.18,7.5-182.31,5.35-273.49.84-14.7-.73-29.43-1-44.12-1.86-44.6-2.7-65.81-21.05-73.5-65.23-10.31-59.2,8.1-110.07,46.7-154.76,16.92-19.6,37.55-34.11,60.33-46,4.69-2.44,10.25-3.76,13.31-8.75,11.79-1.77,21.31-7.59,29.14-16.41,18.31-9,33.35-22.11,46.31-37.57,4.2-5,10.14-11.74,5.08-18.35-7.22-9.43-18.32-7.2-28.61-5.93-9.25,1.14-8.88,7.93-8.17,14.32,1.77,15.87-3.73,28.73-15.16,39.42ZM472,730.24c12.77.63,25.5.38,38.1-2.08,35,2.71,49.52-4.14,60.71-31.07,8.86-21.3,9.7-43.74,5.25-66.39-7.16-36.45-26.06-55-61.29-54.4-22.41.37-44.89-3.44-67.33-5.58-7.16-.68-16.09-.07-18.61-8.56-2.32-7.82,6.34-10,10.91-13.93,59.46-50.94,98-111.71,91.53-193.78a95.78,95.78,0,0,0-23.38-55.92c-21.16-24.76-47.33-42.46-77.66-53.8-77-28.78-154.62-34.92-232.53-4.07-60.48,24-92.54,70.28-90.73,129,1.41,45.73,30.82,83.72,70.49,89.36,32.77,4.65,63.15-3.9,91.84-19.73,16.24-9,24.84-21.53,22.22-40.75-.94-6.85-.49-13.69,5.81-18.71,12.45-9.93,45.52-8.37,56.8,3.09,7.08,7.19,9.84,15.76,6.12,25.58a62.35,62.35,0,0,1-12,20c-22.07,24.46-49.57,41.5-78.2,56.71-27.5,14.6-53.66,30.8-73.25,55.48C163,583.31,147.83,630.8,162,685c6.73,25.74,21.44,38,44.42,40,82.71,7,165.56,8.65,248.51,7.43C460.62,732.29,466.73,734.06,472,730.24Z"/><path class="cls-1" d="M560,406.05c11.92-65.12-14.89-115.19-61.44-157.45-7.95-7.22-16.2-14.09-25.57-19.65-5.84-3.48-15.21-7.27-9.28-16.53,6.31-9.83,14.84-2.84,20.33,1.24,23.18,17.28,44.95,36.09,62,60,35.66,50,42.69,104.16,24,161.86-4.64,14.31-12.24,27.69-18.82,41.33-2.68,5.53-6.85,9.66-13.94,8.32-4.86-5.81-3.48-11.43-.37-17.69,3.22-6.48,9.06-11.82,9.12-19.75l0-.16a15.45,15.45,0,0,0,4.82-12.16q1.21-3.66,2.42-7.33C558.62,421.67,559.49,413.91,560,406.05Z"/><path class="cls-1" d="M433.52,783.26c-55.14-1.68-105.56-3.56-155.77-9.14-6.12-.68-12.31-1.36-11.67-9.75.69-9.12,8-7.36,13.4-7,32.75,2.2,65.45,5.62,98.23,7,58.78,2.51,117.65,4.35,175.2-12,5.86-1.66,11-1,13.57,5.13,3.25,7.75-3.58,9.09-8.19,11.09-19.25,8.31-40,9.31-60.43,11.27C475,782.11,451.87,782.38,433.52,783.26Z"/><path class="cls-1" d="M126.93,477.36c10.73,10.09,23.95,14.9,38,17.54,6.86,1.29,13.44,3.18,11.29,11.74-1.89,7.53-9,6.18-14.75,5.52C122.65,507.7,77.93,463.16,73,424c-.66-5.18-.3-10.22,6.17-11.39,5.65-1,8.81,1.65,10.89,7.21,5.8,15.45,10.37,31.7,23.67,43.07C116.19,469.49,120.43,474.46,126.93,477.36Z"/><path class="cls-1" d="M78.55,370.85c-1.07,8.34-5.4,13-13.54,12.69-8.54-.36-12-6.88-11.86-14s5.51-11.35,12.71-11.51C74.45,357.88,77.36,363.88,78.55,370.85Z"/><path class="cls-1" d="M511.47,513.4c8.23-7.79,15.35-5,22,2.34l.09,10.73-3,3C513.81,534.15,509.66,530.65,511.47,513.4Z"/><path class="cls-2" d="M148.06,467.74l3.83,1.84C150,470.24,148.78,469.53,148.06,467.74Z"/><path class="cls-3" d="M472,730.24c-5.3,3.82-11.41,2-17.11,2.13-82.95,1.22-165.8-.45-248.51-7.43-23-1.94-37.69-14.21-44.42-40-14.16-54.19,1-101.68,34.85-144.29,19.59-24.68,45.75-40.88,73.25-55.48,28.63-15.21,56.13-32.25,78.2-56.71a62.35,62.35,0,0,0,12-20c3.72-9.82,1-18.39-6.12-25.58-11.28-11.46-44.35-13-56.8-3.09-6.3,5-6.75,11.86-5.81,18.71,2.62,19.22-6,31.79-22.22,40.75-28.69,15.83-59.07,24.38-91.84,19.73-39.67-5.64-69.08-43.63-70.49-89.36-1.81-58.69,30.25-105,90.73-129,77.91-30.85,155.56-24.71,232.53,4.07,30.33,11.34,56.5,29,77.66,53.8a95.78,95.78,0,0,1,23.38,55.92c6.51,82.07-32.07,142.84-91.53,193.78-4.57,3.92-13.23,6.11-10.91,13.93,2.52,8.49,11.45,7.88,18.61,8.56,22.44,2.14,44.92,5.95,67.33,5.58,35.23-.58,54.13,18,61.29,54.4,4.45,22.65,3.61,45.09-5.25,66.39-11.19,26.93-25.7,33.78-60.71,31.07.46-12.91-4.35-15.88-16.65-10.8-4.56,1.88-8.27,11.66-15.56,4.16,12-6,22.21-20.42,38.13-6,4.28,3.86,11.08.76,15.71-4,8.18-8.41,16.94-16.27,25-24.8,12.07-12.79,10.74-19.1-5.16-26.84a18.56,18.56,0,0,1,2.29-3.64c5.1-5.09,9.67-10.58,4.77-17.9-4.59-6.87-11.76-6-18.67-4.37-2.84.65-5.57,1.77-8.35,2.68l-10.85-1c7.77-9.92,24.84-11.89,24.54-28.71l-1.8-3.34-6.42-4.89c-1.58-4.05-3.59-5-6.31-.88-8.33,2.7-17.22,3.74-24.87,8.46-6.4,4-9.94,3.43-9.49-5.38.55-10.6-5.63-13.19-15.16-12.46-9.2.71-16.82,5.13-24.64,9-10.41,5.21-14.34,1.55-14-9.15l-2.07-2.62c-8.14-2.14-16.21-.8-24.28.45-2.5-.47-4.65-.05-6.05,2.34l-26.68,12.07c.16-2.43.31-4.85.47-7.27,7.92-5.64,16.86-10,22.87-18.06,4.3-5.74,5.86-11.88-1.28-16.38-10.75-6.78-4.18-9.81,2.2-13.75,16.59-10.23,33.33-20.3,49.36-31.37,5.94-4.11,15.37-8.59,12.06-18-2.84-8,1.52-10.53,6.19-13.84,4.38-3.1,9.13-5.7,13.45-8.88,7.06-5.2,13.12-11.44,8-20.9s-13.49-6.42-20.58-3.1c-25.88,12.11-51.53,24.72-77.27,37.15l-3.55,2.11a3,3,0,0,1-2.14,1c-2.91-2.26-9.06,4.42-9.9-3.58,11.61-7.12,23.27-14.15,34.81-21.37,28.67-17.95,58.61-33.93,85.64-54.41,12-9.07,12.28-16,1.25-25.24-4.06-3.42-3.93-6.47-2.34-10.14,1.79-4.1,1.73-8.54-1.19-11-8.09-6.82-5.2-11.93,1-17.72,4.72-4.38,6.18-9.76,2.73-16-3.16-5.69-8-6.53-13.81-5.92-2,.22-4.69,2.37-6.22-1.64,1.87-5.42,7.35-10.81,2.35-17.41-5.26-7-11.81-5.12-18.67-3-3.41,1.07-7.16,2.85-7.5-4.33-.71-14.72-7.44-18.24-20.94-11.59-11.81,5.83-23.32,12.28-35,18.45l-5.22-5.39c5.3-4.19,10.75-8.21,15.88-12.6,6.77-5.8,14.23-12,8.88-22.17-4.84-9.19-13.7-10-22.94-7.84-5,1.14-9.77,2.26-11.41-4.79-3-13-12.28-12.48-21.56-8.68-11.23,4.6-21.92,10.49-32.85,15.82-7.6-4.82,4-14.88-5.27-19.25a.89.89,0,0,0-.4-1.48,2.78,2.78,0,0,0-3.19-2.71c-6.35-4.8-11.84-.56-17.52,1.66a16.89,16.89,0,0,0-14.67,7c-4,.64-8.95,4.58-11.71-1.11-6.52-13.43-16.37-8.86-26.17-5.6-18.4,6.12-34.06,21.46-55.85,16.48-1.92-.44-4.59,1.49-6.64,2.75-13.71,8.44-27.65,16.56-40.93,25.63-11.1,7.57-9.76,17,2.6,24.17L157,312l-.07,0c-3.49-.36-5.69,1-6.24,4.62l-10.3,9.68c-9.89,6.69,1,14.3-1,21.33l-6.61,5.34c-13.18,3.56-8.14,10.55-3.3,17.51l6.83,5.62,0,6.65c-5.42,6-10.31,12.54-3.83,20.32,5.59,6.71,12.79,5.1,19.81,1.73,9.48-4.54,19-8.95,28.57-13.42a2.8,2.8,0,0,0,2.18-1.19l22.47-11.95a3.15,3.15,0,0,0,3.85-2.31l17.19-8.89,7.35,1.64c-7.08,8.33-16.29,13.43-26.27,17.38-4.75-.62-8.18.79-9.16,6l-5.18,3.24a3.16,3.16,0,0,0-3.88,2.22l0,.06c-5.48.47-10.51,1.63-12.19,7.93-5.08,5.43-13,7.77-16.34,15.11-5.88,4.49-6.74,8.59.95,12,11.12,10.47,23,2.63,34.64,1.47l11,.88,5.25,4.1c3.42,8.7,7.6,4.3,11.73.67,14.51-9.14,28.86-18.54,43.61-27.27,5.62-3.32,7.3-7.69,6.55-13.41s-4.69-8.25-10.18-8.79c-2.34-.22-5,.16-6.62-4.26l105.39-62.62c2.56.05,4.56-.76,5.37-3.44l6.12-3.41c.23,2.52.45,5,.68,7.54q-6.06,5.31-12.12,10.61c-8.64,7.6-18.61,16.33-11.28,28.34,7,11.54,19,5.27,29,2.22l.48,8.45c-8.3,11.73-3.33,17.68,8.92,20.45l-.09,3.16-.51.51c-3.83-.31-5.44,1.79-5.73,5.31-9.5,5.25-18.44,12.4-14.9,24,2.71,8.87-1.37,11.56-6.76,15-16.51,10.57-33.15,20.93-49.63,31.55-28.81,18.57-57.67,37.07-86.22,56-9.36,6.23-19.8,12.87-10.46,27.08,3.51,5.34-2,7.62-5.12,10.4-7.7,6.78-15.85,13.13-22.93,20.5-4.85,5-7.59,11.87-3.32,18.84s10.57,8.15,18,5.32c1.71-.65,3.6-1.58,5.86,2.11-6.25,4.77-13,9.36-19,14.68-7.43,6.5-10.27,15.92-.48,20.55,11.52,5.44,6.32,8.17,1.29,13.81-9,10.11-6.77,19.06,5.69,23.37,3.89,1.34,7,1.82,8.11,6.75,2.49,10.93,10.14,10.91,19.44,9.06,11.57-2.3,20.4-11.84,33.28-12-2.78,6.72-9.4,12.6-2.84,20,4.37,4.92,9.77,6.38,16,4.15,5.07-1.82,9.95-4.19,15.07-5.86,11.58-3.77,21-12.93,33.88-13.43l0-.12c-2.65,6.34-6.44,12.9,0,19,5.51,5.22,11.95,3.06,18,.84,4.6-1.69,9.11-3.68,13.54-5.79,11.77-5.59,23.47-11.31,38.18-18.41-7.26,10-14.44,17.17-6.94,26.06,6.84,8.1,15.47,3.65,23.14.66,19.81-7.72,39.46-15.82,60.53-24.32-13.55,21.29-12.13,26.29,6.91,29.34Z"/><path class="cls-4" d="M472,730.24l.09-7.9,5.8-.82c7.29,7.5,11-2.28,15.56-4.16,12.3-5.08,17.11-2.11,16.65,10.8C497.53,730.62,484.8,730.87,472,730.24Z"/><path class="cls-5" d="M477.92,721.52l-5.8.82c-19-3.05-20.46-8.05-6.91-29.34-21.07,8.5-40.72,16.6-60.53,24.32-7.67,3-16.3,7.44-23.14-.66-7.5-8.89-.32-16,6.94-26.06-14.71,7.1-26.41,12.82-38.18,18.41-4.43,2.11-8.94,4.1-13.54,5.79-6.05,2.22-12.49,4.38-18-.84-6.41-6.08-2.62-12.64,0-19l.38-.31-.33.43c-12.87.5-22.3,9.66-33.88,13.43-5.12,1.67-10,4-15.07,5.86-6.19,2.23-11.59.77-16-4.15-6.56-7.36.06-13.24,2.84-20-12.88.12-21.71,9.66-33.28,12-9.3,1.85-16.95,1.87-19.44-9.06-1.12-4.93-4.22-5.41-8.11-6.75-12.46-4.31-14.71-13.26-5.69-23.37,5-5.64,10.23-8.37-1.29-13.81-9.79-4.63-6.95-14,.48-20.55,6.08-5.32,12.8-9.91,19-14.68-2.26-3.69-4.15-2.76-5.86-2.11-7.38,2.83-13.74,1.55-18-5.32s-1.53-13.79,3.32-18.84c7.08-7.37,15.23-13.72,22.93-20.5,3.16-2.78,8.63-5.06,5.12-10.4-9.34-14.21,1.1-20.85,10.46-27.08,28.55-19,57.41-37.48,86.22-56,16.48-10.62,33.12-21,49.63-31.55,5.39-3.45,9.47-6.14,6.76-15-3.54-11.57,5.4-18.72,14.9-24,3.47-.08,5.33-1.91,5.73-5.31l.5-.51c.32-.31.94-.67.9-.92a12,12,0,0,0-.8-2.24c-12.25-2.77-17.22-8.72-8.92-20.45,5.15-.72,8.71-3.58,10.08-8.51.73-2.62-1.39-4.66-3.71-5.18-4-.88-6.05,1.54-6.85,5.24-10.07,3.05-22,9.32-29-2.22-7.33-12,2.64-20.74,11.28-28.34l12.11-10.61c10.72-5.6,22.16-10.1,30.34-19.62,11.64-6.18,23.15-12.63,35-18.46,13.5-6.65,20.23-3.13,20.94,11.59.34,7.18,4.09,5.4,7.5,4.33,6.86-2.14,13.41-4,18.67,3,5,6.6-.48,12-2.35,17.41,1.53,4,4.19,1.86,6.22,1.64,5.78-.61,10.65.23,13.81,5.92,3.45,6.2,2,11.58-2.73,16-6.24,5.79-9.13,10.9-1,17.72,2.92,2.46,3,6.9,1.19,11-1.59,3.67-1.72,6.72,2.34,10.14,11,9.28,10.71,16.17-1.25,25.24-27,20.48-57,36.46-85.64,54.41-11.54,7.22-23.2,14.25-34.81,21.37-18,8.1-33.93,19.33-49.14,32a178.36,178.36,0,0,0,59-28.39,3,3,0,0,0,2.14-1l3.55-2.11c25.74-12.43,51.39-25,77.27-37.15,7.09-3.32,15.5-6.36,20.58,3.1s-1,15.7-8,20.9c-4.32,3.18-9.07,5.78-13.45,8.88-4.67,3.31-9,5.8-6.19,13.84,3.31,9.37-6.12,13.85-12.06,18-16,11.07-32.77,21.14-49.36,31.37-6.38,3.94-13,7-2.2,13.75,7.14,4.5,5.58,10.64,1.28,16.38-6,8-14.95,12.42-22.87,18.05-11.48,3.45-19.1,12.06-27.6,19.6,9.57-3.34,19.39-5.68,27.13-12.32l26.68-12.07a5.79,5.79,0,0,0,6.05-2.34c8.07-1.25,16.14-2.59,24.28-.46.68.88,1.38,1.75,2.07,2.63-.32,10.7,3.61,14.36,14,9.15,7.82-3.92,15.44-8.34,24.64-9,9.53-.73,15.71,1.86,15.16,12.46-.45,8.81,3.09,9.33,9.49,5.38,7.65-4.72,16.54-5.76,24.87-8.45l6.31.87,6.42,4.89,1.8,3.34c.3,16.82-16.77,18.79-24.54,28.71-10.07,1.47-16.23,8.44-22.43,15.47,11.53-4.11,23.77-6.26,33.28-14.52,2.78-.91,5.51-2,8.35-2.68,6.91-1.59,14.08-2.5,18.67,4.37,4.9,7.32.33,12.81-4.77,17.9a18.56,18.56,0,0,0-2.29,3.64c15.9,7.74,17.23,14,5.16,26.84-8,8.53-16.81,16.39-25,24.8-4.63,4.75-11.43,7.85-15.71,4C500.13,701.1,489.92,715.55,477.92,721.52ZM323.64,520.92c-9.45,7-23.38,7.65-28.81,20.35l-3.65,1.66c.3.35.76,1,.85,1,1.16-.59,2.27-1.29,3.39-1.95,11-3.19,21.77-6.92,29.28-16.41,2.51-1,6.44-1.57,4.9-5.19C328.3,517.3,325.64,520.13,323.64,520.92Z"/><path class="cls-5" d="M336.42,258.86c10.93-5.33,21.62-11.22,32.85-15.82,9.28-3.8,18.54-4.35,21.56,8.68,1.64,7,6.39,5.93,11.41,4.79,9.24-2.11,18.1-1.35,22.94,7.84,5.35,10.13-2.11,16.37-8.88,22.17-5.13,4.39-10.58,8.41-15.88,12.6-9.17,5-18.84,9.22-25.79,17.48L368.51,320l-5.37,3.44L257.75,386.07c1.6,4.42,4.28,4,6.62,4.26,5.49.54,9.44,3.09,10.18,8.79s-.93,10.09-6.55,13.41c-14.75,8.73-29.1,18.13-43.61,27.27l-11.73-.67L207.41,435c-3.08-7.38-7-4.77-11-.89-11.62,1.16-23.52,9-34.64-1.47q-.47-6-.95-12c3.32-7.34,11.26-9.68,16.34-15.1,5.37-.65,10.21-2.09,12.19-7.94v-.06l3.89-2.22,5.18-3.24c3.9-.67,7.52-1.8,9.16-6,10-3.95,19.19-9,26.26-17.38l-.19-.41c6.56,2.31,10.28-2.92,15-5.64,6.52-2.49,14.24-3.23,17-11.2.33-.93-.95-2.41-1.49-3.63-5.41,2.54-12.75,1.05-16.2,7.73l-14.5,7.46c-3.73-1.07-5.62,1-6.95,4.05L209.36,376l-3.85,2.31-22.46,11.94c-1.38-.77-2-.11-2.19,1.2-9.53,4.47-19.09,8.88-28.57,13.42-7,3.37-14.22,5-19.81-1.73-6.48-7.78-1.59-14.31,3.83-20.32,2.42-.41,5-1.13,4.43-4.11-.22-1.1-2.86-1.71-4.4-2.54l-6.83-5.62q1.67-8.74,3.3-17.51l6.61-5.34c10.64-6.64-2.22-14.34,1-21.33l10.29-9.67c3.77.74,5.55-1.21,6.25-4.63l.07,0c3-.35,6.37-1.52,5.94-4.65-.29-2.06-4-1.5-6.26-1-12.36-7.13-13.7-16.6-2.6-24.17,13.28-9.07,27.22-17.19,40.93-25.63,2.05-1.26,4.72-3.19,6.64-2.75,21.79,5,37.45-10.36,55.85-16.48,9.8-3.26,19.65-7.83,26.17,5.6,2.76,5.69,7.67,1.75,11.71,1.11,5.95-.08,11.58-.86,14.67-7,5.68-2.22,11.17-6.46,17.52-1.66l3.19,2.71a.9.9,0,0,1,.4,1.49c.25,8.44-3.5,13.77-10.26,19.34-6,5-17.64,4.36-18.82,17.27C315,271.38,326.41,266.55,336.42,258.86ZM324.89,316.3a162.19,162.19,0,0,0-54.44,29.64C291.45,341.67,307.77,328.4,324.89,316.3Z"/><path class="cls-2" d="M393.35,489.35a178.36,178.36,0,0,1-59,28.39c15.21-12.64,31.17-23.87,49.14-32C384.29,493.77,390.44,487.09,393.35,489.35Z"/><path class="cls-1" d="M336.42,258.86c-10,7.69-21.38,12.52-34.35,17.37,1.18-12.91,12.79-12.3,18.82-17.27,6.76-5.57,10.51-10.9,10.26-19.34C340.39,244,328.82,254,336.42,258.86Z"/><path class="cls-2" d="M374.63,316.6c6.95-8.26,16.62-12.5,25.79-17.48l5.22,5.39c-8.18,9.53-19.62,14-30.34,19.63Q375,320.38,374.63,316.6Z"/><path class="cls-2" d="M531.63,636.62c-9.51,8.26-21.75,10.41-33.28,14.52,6.2-7,12.36-14,22.43-15.47Z"/><path class="cls-2" d="M383.53,600.61c-7.74,6.64-17.56,9-27.13,12.32,8.5-7.54,16.12-16.15,27.6-19.6C383.84,595.76,383.69,598.18,383.53,600.61Z"/><path class="cls-1" d="M380.94,365.31c.8-3.7,2.87-6.12,6.85-5.24,2.32.52,4.44,2.56,3.71,5.18-1.37,4.93-4.93,7.79-10.08,8.51Z"/><path class="cls-2" d="M140.38,326.39c-3.18,7,9.68,14.69-1,21.33C141.4,340.69,130.49,333.08,140.38,326.39Z"/><path class="cls-2" d="M132.81,353.06q-1.63,8.76-3.3,17.51C124.67,363.61,119.63,356.62,132.81,353.06Z"/><path class="cls-1" d="M310,237.08c-3.09,6.12-8.72,6.9-14.67,7A16.89,16.89,0,0,1,310,237.08Z"/><path class="cls-2" d="M189.39,397.63c-2,5.85-6.82,7.29-12.19,7.94C178.88,399.26,183.91,398.1,189.39,397.63Z"/><path class="cls-2" d="M160.86,420.67q.48,6,.95,12C154.12,429.26,155,425.16,160.86,420.67Z"/><path class="cls-2" d="M212.66,439.13l11.73.67C220.26,443.43,216.08,447.83,212.66,439.13Z"/><path class="cls-2" d="M196.45,434.15c4-3.88,7.88-6.49,11,.89Z"/><path class="cls-2" d="M207.63,386.15c-1.64,4.16-5.26,5.29-9.16,6C199.45,386.94,202.88,385.53,207.63,386.15Z"/><path class="cls-2" d="M156.67,306.38c2.31-.49,6-1.05,6.26,1,.43,3.13-2.94,4.3-5.94,4.65C156.89,310.15,156.78,308.26,156.67,306.38Z"/><path class="cls-2" d="M136.34,376.19c1.54.83,4.18,1.44,4.4,2.54.61,3-2,3.7-4.43,4.11Z"/><path class="cls-2" d="M156.92,312.09c-.7,3.42-2.48,5.37-6.25,4.63C151.23,313.11,153.43,311.73,156.92,312.09Z"/><path class="cls-2" d="M226.55,367.13c1.33-3,3.22-5.12,6.95-4.06.07,1.77.13,3.53.2,5.3l.19.4Z"/><path class="cls-2" d="M537.1,598.73l-6.31-.87C533.51,593.72,535.52,594.68,537.1,598.73Z"/><path class="cls-1" d="M389.74,397.88c-.4,3.4-2.26,5.23-5.73,5.31C384.3,399.67,385.91,397.57,389.74,397.88Z"/><path class="cls-2" d="M416.26,586.2a5.79,5.79,0,0,1-6.05,2.34C411.61,586.15,413.76,585.73,416.26,586.2Z"/><path class="cls-2" d="M363.14,323.45l5.37-3.44C367.7,322.69,365.7,323.5,363.14,323.45Z"/><path class="cls-1" d="M330.75,238.13l-3.19-2.71A2.78,2.78,0,0,1,330.75,238.13Z"/><path class="cls-2" d="M399,486.25l-3.55,2.11Z"/><path class="cls-1" d="M390.34,394.21a12,12,0,0,1,.8,2.24c0,.25-.58.61-.9.92C390.28,396.31,390.31,395.26,390.34,394.21Z"/><path class="cls-2" d="M193.29,395.35l-3.89,2.22A3.17,3.17,0,0,1,193.29,395.35Z"/><path class="cls-2" d="M180.86,391.47c.23-1.31.81-2,2.19-1.2A2.82,2.82,0,0,1,180.86,391.47Z"/><path class="cls-2" d="M205.51,378.33l3.85-2.31A3.15,3.15,0,0,1,205.51,378.33Z"/><path class="cls-2" d="M545.32,607l-1.8-3.34Z"/><path class="cls-2" d="M442.61,588.37c-.69-.88-1.39-1.75-2.07-2.63Z"/><path class="cls-1" d="M294.82,541.26c5.44-12.69,19.37-13.35,28.83-20.34l1.05,4.65c-7.51,9.49-18.24,13.22-29.28,16.41Z"/><path class="cls-2" d="M324.7,525.57l-1.05-4.65c2-.79,4.65-3.62,6-.54C331.14,524,327.21,524.59,324.7,525.57Z"/><path class="cls-1" d="M295.42,542c-1.12.66-2.23,1.36-3.39,1.95-.09,0-.55-.65-.85-1l3.64-1.66Z"/><path class="cls-3" d="M318.83,695.1l.33-.43-.38.31A.61.61,0,0,1,318.83,695.1Z"/><path class="cls-2" d="M324.89,316.3c-17.12,12.1-33.44,25.37-54.44,29.64A162.19,162.19,0,0,1,324.89,316.3Z"/><path class="cls-2" d="M248,355.62c3.45-6.68,10.79-5.19,16.2-7.73.54,1.22,1.82,2.7,1.49,3.63-2.79,8-10.51,8.71-17,11.2C248.43,360.35,248.22,358,248,355.62Z"/><path class="cls-3" d="M248,355.62c.22,2.36.43,4.73.65,7.1-4.67,2.72-8.39,7.95-15,5.64-.07-1.76-.13-3.52-.2-5.29Z"/></svg>