<svg id="Capa_1" data-name="Capa 1" xmlns="http://www.w3.org/2000/svg" viewBox="0 0 667.71 1024"><defs><style>.cls-1{fill:#6ec2bf;}.cls-2{fill:#eef6fa;}.cls-3{fill:#fffffd;}.cls-4{fill:#cde7ec;}.cls-5{fill:#5dbdbb;}</style></defs><path class="cls-1" d="M275.11,729.43c-37.08-18.17-72.5-39.14-102-68.22-22.12-21.76-43.39-44.62-46.22-78.44-.88-10.54,0-21,5.11-29,19.73-31.06,44.95-56.64,84.22-58.65,19.88-1,39,7.61,57.77,14.82,20.59,7.89,37.61,23.25,59.63,27.95,12.67,2.71,25.17,3.5,35.49-6.15,4.2-3.94,10.31-7.92,8.13-15-2.27-7.35-9.2-8.73-15.84-9.11-19-1.07-38.07-.49-57.1-2.45-10.6-1.1-20.86-2.67-30.8-6.34-33.64-12.42-43.53-49.61-20.21-77,8.42-9.89,17.79-19,26.87-28.56-3.72-5.67-9.24-3.11-13.7-3.15-32.15-.32-64.33.64-96.45-.54-38.36-1.41-68.74-16.86-84.49-54.24-17.91-42.5,2.53-105.55,42-128.87A39.11,39.11,0,0,1,146,201c107.93-4.09,215.87-4.7,323.81-.56,15.45.59,31.23-1.61,46.26,4.11,39.79,15.11,55,47.73,59.84,86.53,3.57,28.68,3.24,58-17.59,80.94-10,11-20.06,22.3-30.91,32.65-8.39,8-9.58,14.27,0,23.41a204,204,0,0,1,55.38,89.83c4.12,13.66,2.67,27.93,5.93,41.61-3.4,21.58-4.84,43.58-14.75,63.69-39.2,79.53-105.32,117.24-191.67,123.48C345.27,749.32,309.85,741.39,275.11,729.43Zm91.16-240.34,13.5,2.29a23.66,23.66,0,0,0,12.16,11.79l1.29,4.91c-.3,2.53,0,4.79,2.48,6.23.08,2,.17,4,.25,6.05-4.18,3.13-2.92,7.75-3.25,11.93l-8.32,12.47c-21.56,15.78-44.61,15.19-68.25,5.87-27-10.66-50.84-28.83-79.83-34.84-38-7.89-59,6.42-83.76,39.43-13.79,18.36-9,43.36,11.12,69,26.19,33.46,60.86,56.06,96.85,77.54,80.83,48.27,212.74,35.93,276.5-49.49,31.45-42.14,43.93-87.47,25.34-138.56-11.55-31.74-30.61-58.53-56-80.54-11.13-9.67-14.77-17.77-2.71-29.36,11.19-10.75,21-22.89,31.81-34.08,32.18-33.35,30.75-98.61-1-132.7-19.14-20.58-43.42-20.1-66.85-20.34-98.5-1-197-.26-295.51-.44-28-.05-49.54,10.21-63.47,35.21-5,8.95-7.49,18.66-9.78,28.36-7.91,33.44,5.2,67.26,32.37,82.12,15.74,8.6,33.53,10,51.15,10.14,42.71.24,85.43,0,128.15,0,6.15,0,12.85-.58,14.51,7.29,1.48,7-4.67,9.2-9.34,11.95a172.47,172.47,0,0,0-46.49,39.78c-17.7,21.63-12.46,42.44,13.5,52.26,17,6.43,34.8,3.45,52.27,4.32,3.38,2.77,6.77,2.83,10.15,0h5.5C355.6,491.38,361,490.12,366.27,489.09Z"/><path class="cls-1" d="M344.63,776.88l-6-.27c-1.74-2.08-3.85-2.28-6.2-1.24l-45.06-10.9c-1.49-2.26-3.61-2.81-6.14-2.26l-14.85-6.72-1.47-12.07,4.38-3.19c5.77,1.56,11.68,2.72,17.28,4.75,38.72,14,78.24,18.09,119.42,14.45C494.2,751.64,597.93,672.05,599,566.06l4.95-1.68,6.2.34c12,15.71,4,32.37-.4,47-26.13,87.75-88,137.63-174.47,160.29-2.49-.93-4.58-.53-6.06,1.84l-9,1.59c-4.35-1.68-8.15.35-12,1.8l-18.11,2c-3.14-2.63-6.21-2.59-9.23.18l-12,0c-1.86-2-3.91-2.27-6.18-.71-4.88-2.12-10-1.63-15.08-1.29Z"/><path class="cls-1" d="M191.54,419.86c-31.33,1.64-61.87-.93-91.16-14.12-34.45-15.53-47.75-42.94-50-74.13-.47-6.46.91-13.29,10.37-13.39,9.27-.1,8.28,6.27,8.91,12.34,3.59,34.44,20.85,54.59,54.63,63.61,29.82,8,60,11.67,90.82,6.77,5.89-.94,12-.37,18.06-.38,5.25,0,10.74.45,11.29,7.12.6,7.24-3.89,11.73-10.69,12C219.68,420.25,205.6,419.86,191.54,419.86Z"/><path class="cls-1" d="M609.82,302.78c.78,46.77-17.16,80.36-45.41,109.43a39.6,39.6,0,0,1-8.42,6.23c-5.44,3.21-10.56,2.83-14.74-2.36-4.79-5.95.41-9.29,3.78-12.54,17.52-16.87,32.57-35.26,40.6-58.8,8.44-24.78,8.53-49.12-1-73.55-2.5-6.38-6.59-14.39,2.85-18,10-3.84,12.21,4.71,15.19,11.94C608.29,278.9,610.58,293.05,609.82,302.78Z"/><path class="cls-1" d="M587.8,223.13c-1.27,6.45-3.44,12.87-11.52,13-8.68.11-13.74-4.5-14.11-13.74-.33-8,4.07-13,11-13.48C581.73,208.35,586.25,214.6,587.8,223.13Z"/><path class="cls-1" d="M76.09,271.87c-1.25,8.16-5.36,12.93-13.84,12.61S49.8,279.1,50.14,270.87c.38-9.05,6.94-11.69,14.34-11.57C72.12,259.42,75.73,264.55,76.09,271.87Z"/><path class="cls-2" d="M350.69,487.71l-5.5,0H335c-17.47-.87-35.28,2.11-52.27-4.32-26-9.82-31.2-30.63-13.5-52.26a172.47,172.47,0,0,1,46.49-39.78c4.67-2.75,10.82-4.93,9.34-11.95-1.66-7.87-8.36-7.3-14.51-7.29-42.72.06-85.44.26-128.15,0C164.82,372,147,370.57,131.29,362,104.12,347.11,91,313.29,98.92,279.85c2.29-9.7,4.79-19.41,9.78-28.36,13.93-25,35.5-35.26,63.47-35.21,98.5.18,197-.56,295.51.44,23.43.24,47.71-.24,66.85,20.34,31.7,34.09,33.13,99.35,1,132.7-10.79,11.19-20.62,23.33-31.81,34.08-12.06,11.59-8.42,19.69,2.71,29.36,25.36,22,44.42,48.8,56,80.54,18.59,51.09,6.11,96.42-25.34,138.56-63.76,85.42-195.67,97.76-276.5,49.49-36-21.48-70.66-44.08-96.85-77.54-20.1-25.67-24.91-50.67-11.12-69,24.79-33,45.74-47.32,83.76-39.43,29,6,52.8,24.18,79.83,34.84,23.64,9.32,46.69,9.91,68.25-5.87,2.91,2.77,5.22,6.45,9.88,6.61-8.37,8.15-21,10.25-28.87,18-13.13,12.89-30.52.7-43.66,9.88-1.59,1.11-3.2-1.33-4.29-3.16-6.29-10.58-14.42-7.8-23.24-3.48-10.84,5.31-20.08,14.19-33.44,16.4,1.87-8.12,8.2-11.44,11.67-16.85,4.73-7.36,10.54-14.6,3.25-23-6.92-7.94-14.33-3.77-21.54.66-6.59,4-12.23,6.08-11.53-5.87.53-8.89-4.69-16.07-13.59-13.45A285.5,285.5,0,0,0,168.18,556c-6.1,3.49-6.71,10.07-4.2,16,3,7.06,9.3,6.33,15.5,5.14,3.46-.67,5.74-6.42,11.24-1.76-6,7.85-13.65,16.68-7.81,26.74,7.09,12.2,18.53,1,29,1.81a68.22,68.22,0,0,1-3.31,6.46c-15,22.19-14.33,23.85,12.1,27.67,3.43.5,4.78,1,5,5.26.91,20.16,2.74,21.56,21.89,15.44,9.22-2.94,10.07-.72,8.57,8-2.45,14.28,4.4,20.36,18.94,18.12,5.57-.86,11.06-2.28,16.82-3.49.22,6.84-6.28,11.22-2.77,17,5.46,9,12.73,9.86,21.82,5,14.51-7.8,29.34-15,45.16-23-.63,7-5.09,8.63-7,12C345.62,698.5,337.67,704,345,712.2c6.7,7.52,14.36,5.4,21.87,1.2,8.73-4.87,17.28-10.07,26.11-14.75,4.06-2.15,10.11-6.71,11.26,2.27,1.94,15.26,11.3,13,20.91,9.6,23.72-8.3,45.78-20.36,68.3-31.32,7.28-3.54,10.52-9.56,5.36-17.26-4.43-6.63-2.12-10.38,3.85-14.62C512.81,640.08,522.42,632,532,624c6.84-5.72,8.73-13.56,2-19.62-8.59-7.77-4.31-11,2.58-15.57,7.66-5,11.9-13.34,5-20.28-8-8.08-3.1-11.36,2.3-16.16,4.93-4.38,7.7-9.46,3-15.76-4.33-5.82-9.85-8.65-17-5.69-7.42,3.07-14.69,6.49-22,9.74-.35-3-.7-6-1.06-9L522.08,523c3.87.47,6.18-1.16,6.8-5.07l3.32-3.35c3.27-.88,6.74-1.64,3.25-6.11-3.82-19-8.35-20.93-28.09-12.31l-3.55.69c-7.41-8.77,2.7-10.07,6.28-12.35,8-5.06,7.9-11.71,4.2-18s-10.22-6.79-17.19-3.45c-6.52,3.13-12.11,8.9-20.56,8.41-.06-6.48,5.13-9.56,7.61-14.11,4.53-8.27,6-17.81-4.85-21.07-11.66-3.52-6.24-8-2-11.84,7.56-6.81,9.85-14.71,3.74-22.44s-2.19-11.44,3.42-15.72c12.3-9.42,24.45-19,36.9-28.27,7.82-5.78,14.53-12.44,9.23-22.48-5.16-9.79-14-3.71-21.52-2.69-.68.09-1.49-.75-2.4-1.24,2.69-5.88,8.58-8.13,12.89-12.1,8.19-7.54,20.5-11.67,22.07-25.06,5.2-1.78,6-4,.6-6.69-3.27-7.42-10.29-6.05-16.33-7l-.75-8.29c.4-2.81.79-5.62,1.19-8.43.28-.37.88-.89.79-1.07a14.14,14.14,0,0,0-1.43-2c-6.41-11.91-16.47-4.1-25.61-3.23,1.74-8.71,4.1-16.34-3.89-21.56-7.17-4.68-13.43-.77-19.72,2.36-7.63,3.8-15,8.21-22.92,11.32-8.67,3.42-15.36,11.54-29,12.32,4.21-3.27,5.8-4.31,7.16-5.59,6-5.61,12.15-11.67,8.66-20.69-3.6-9.28-12.35-9.19-20.51-8.52a56.23,56.23,0,0,0-14.62,2.93c-10.81,3.94-21.37,8.54-32.07,12.8-3.48,1.39-7.9,4.87-9.67-1.53-5-18-16.94-13.83-28.46-8.79C316.34,241,297.89,250,279.3,258.61c-2.5-.11-3.7,1.43-4.49,3.51l-8.43,2.71q0-3.37-.1-6.74c2.69-3,5.27-6,8.09-8.88,5.73-5.76,10-12.19,4-19.77-5.73-7.24-13.41-5.42-20.57-2-8.6,4.1-17.05,8.52-25.55,12.84-11.11,5.64-22.21,11.32-35.78,18.24,3.75-10.88,13.52-17.41,5.49-26.29s-17.69-4.29-26.43-.87c-16.77,6.55-32.59,15.32-49.86,20.83-6.7,2.13-8.45,8.58-6.69,14.89,1.6,5.76,5.84,9.29,12.46,8.36,3.3-.46,6.54-3.13,10.7.45-3.71,9.54-19.38,17.17-9.73,29.49s21.79-2.41,35.16-.71c-7.54,6.94-13.67,12.52-19.71,18.19-5.66,5.3-11.54,10.88-5.45,19.23,5.83,8,13.46,7.25,21.49,3.36,10.11-4.9,20.31-9.61,34-16.06-6,11.23-12.21,19.49-3,27.27,8.75,7.43,16-.12,23.26-3.63,9-4.35,17.64-9.54,26.61-14,24.1-12,46.74-26.87,71.93-36.76l2.48,2.76c-1.31,2.06-2.19,5.36-4,6-14.52,4.93-22.92,17.55-34.15,26.57-5.68,4.57-7.85,10.88-4.77,17.52,3.4,7.32,10.76,7.14,17.1,5.56s12-5,18-7.42c7.77-3.11,14.28-9.75,23.62-8.52.4.41.79.83,1.17,1.24-7.6,5.59-9.37,13-4.61,20.78,5.38,8.77,13.59,6.59,21.45,3.47,28-11.11,53.16-27.68,79.57-41.85,8.33-4.47,15.51-13.23,26.85-10.12-1.47,4.9-6.06,6.17-9.72,8.71-15.55,10.81-32.79,19.34-47.75,30.56-36.56,27.41-75.28,51.37-113.72,75.82-7.22,4.59-12.91,9.09-7.83,17.73,4.65,7.89,12.05,7.18,19.93,4.18,5.28-2,8.82-8.72,17.1-6-5.61,7.87-6.41,15.59.19,22.84.48,1.61,1.38,2.23,3,1.25l12.08-.23c1.54,1.16,2.42.57,2.92-1.08l0,0,3.93-.7c3.95.61,5,3.47,5.27,6.89l2.71,3,3,.76C350.53,483.86,350.61,485.79,350.69,487.71Z"/><path class="cls-3" d="M394.27,551.37c-4.67-.16-7-3.84-9.89-6.61l8.32-12.47c8.29-2,7.25-6.57,3.25-11.93-.08-2-.17-4-.25-6.05,4.72-4.28,1.15-5.26-2.48-6.23l-1.29-4.91c.23-8.35-3.5-12.61-12.16-11.79l-13.5-2.29c-.08-2.41-.16-4.83-.23-7.24l7.71-1.83c8.53,1.78,14.79-7.25,23.43-4.94-.1,1.7-.2,3.4-.31,5.1-1.1,8.41-.61,15.2,10.94,10.77l6.16-.21-2.44,15.16q-1.89,4.17-3.77,8.35c-3.42,3.13-3.64,6.18.24,9.11a7.44,7.44,0,0,1,.67,2.21,2.83,2.83,0,0,0,2.79,3.22h0c1.28,6.05,11.62.81,11.19,9l-4.66,1.6c-6.22-.63-11.11,1.08-13.29,7.55Z"/><path class="cls-4" d="M366,481.85c.07,2.41.15,4.83.23,7.24-5.32,1-10.67,2.29-15.58-1.38q-.12-2.88-.25-5.78Z"/><path class="cls-4" d="M379.77,491.38c8.66-.82,12.39,3.44,12.16,11.79A23.66,23.66,0,0,1,379.77,491.38Z"/><path class="cls-4" d="M396,520.36c4,5.36,5,9.91-3.25,11.93C393,528.11,391.77,523.49,396,520.36Z"/><path class="cls-4" d="M393.22,508.08c3.63,1,7.2,1.95,2.48,6.23C393.27,512.87,392.92,510.61,393.22,508.08Z"/><path class="cls-4" d="M335,487.69h10.15C341.81,490.52,338.42,490.46,335,487.69Z"/><path class="cls-5" d="M366,481.85l-15.6.08-3-.75-2.71-3c-.29-3.42-1.32-6.28-5.28-6.88-1.61-1.53-3-1.55-3.92.69l0,0-2.92,1.07-12.07.22-3-1.24c-6.6-7.25-5.8-15-.19-22.84-8.28-2.71-11.82,4-17.1,6-7.88,3-15.28,3.71-19.93-4.18-5.08-8.64.61-13.14,7.83-17.73,38.44-24.45,77.16-48.41,113.72-75.82,15-11.22,32.2-19.75,47.75-30.56,3.66-2.54,8.25-3.81,9.72-8.71l-.14.13,3-.12,63.71-37.46c6,.93,13.06-.44,16.32,7q-.3,3.35-.59,6.69c-1.57,13.39-13.88,17.52-22.07,25.06-4.31,4-10.2,6.22-12.89,12.1.91.49,1.72,1.33,2.4,1.24,7.49-1,16.36-7.1,21.52,2.69,5.3,10-1.41,16.7-9.23,22.48-12.45,9.22-24.6,18.85-36.9,28.27-5.61,4.28-9.59,7.91-3.42,15.72s3.82,15.63-3.74,22.44c-4.27,3.84-9.69,8.32,2,11.84,10.81,3.26,9.38,12.8,4.85,21.07-2.48,4.55-7.67,7.63-7.61,14.11,8.45.49,14-5.28,20.56-8.41,7-3.34,13.44-2.91,17.19,3.45s3.76,12.94-4.2,18c-3.58,2.28-13.69,3.58-6.28,12.34,1.51,1.47,2.76,1.57,3.55-.68,19.74-8.62,24.27-6.64,28.09,12.31-2.9,1.07-3.48,3.37-3.25,6.11l-3.32,3.35c-3.81-.38-6,1.45-6.8,5.07l-15.18,8.6c-25.63,11.18-48.2,27.78-72.67,41.06-19.63,10.65-39.52,21.14-57.07,35.26-8.53,2-16.93,4.19-24.89,15.85,12.66-4.88,23.12-4.61,28.61-15.17,28.07-9.39,52.37-26.35,78.42-39.73,16.61-8.53,34-16.07,48.65-28.22,7.34-3.26,14.61-6.68,22-9.75,7.16-3,12.68-.13,17,5.69,4.68,6.3,1.91,11.38-3,15.76-5.4,4.8-10.29,8.08-2.3,16.16,6.87,6.94,2.63,15.24-5,20.28-6.89,4.53-11.17,7.8-2.58,15.57,6.7,6.06,4.81,13.9-2,19.62-9.61,8-19.22,16.1-29.42,23.34-6,4.24-8.28,8-3.85,14.62,5.16,7.7,1.92,13.72-5.36,17.26-22.52,11-44.58,23-68.3,31.32-9.61,3.36-19,5.66-20.91-9.6-1.15-9-7.2-4.42-11.26-2.27-8.83,4.68-17.38,9.88-26.11,14.75-7.51,4.2-15.17,6.32-21.87-1.2-7.28-8.17.67-13.7,4.14-19.82,1.91-3.36,6.37-5,7-12-15.82,8-30.65,15.24-45.16,23-9.09,4.88-16.36,4.07-21.82-5-3.51-5.8,3-10.18,2.77-17-5.76,1.21-11.25,2.63-16.82,3.49-14.54,2.24-21.39-3.84-18.94-18.12,1.5-8.73.65-10.95-8.57-8-19.15,6.12-21,4.72-21.89-15.44-.19-4.22-1.54-4.76-5-5.26-26.43-3.82-27.11-5.48-12.1-27.67A68.22,68.22,0,0,0,211.9,604c-10.46-.79-21.9,10.39-29-1.81-5.84-10.06,1.79-18.89,7.81-26.74-5.5-4.66-7.78,1.09-11.24,1.76-6.2,1.19-12.55,1.92-15.5-5.14-2.51-6-1.9-12.56,4.2-16A285.5,285.5,0,0,1,229,530.5c8.9-2.62,14.12,4.56,13.59,13.45-.7,11.95,4.94,9.91,11.53,5.87,7.21-4.43,14.62-8.6,21.54-.66,7.29,8.38,1.48,15.62-3.25,23-3.47,5.41-9.8,8.73-11.67,16.85,13.36-2.21,22.6-11.09,33.44-16.4,8.82-4.32,16.95-7.1,23.24,3.48,1.09,1.83,2.7,4.27,4.29,3.16,13.14-9.18,30.53,3,43.66-9.88,7.87-7.73,20.5-9.83,28.87-18l10.45-4.45c5.84,0,10.55-2.06,13.29-7.55l4.66-1.6c20.09-8.78,40.29-17.33,57.85-30.84,5.32-3.91,14.24-2,18.1-10.26-8.47-3-13,2.64-18.49,5.2-6.86.26-11.87,4.81-17.75,7.38-16.65,7.27-30.59,21.82-50.89,19.53h0l-2.78-3.22a7.44,7.44,0,0,0-.67-2.21l-.24-9.11,3.76-8.35c7.2-5.06,12.67-11.53,17.39-20.26-7.15-1.79-11.47.4-14.94,5.1l-6.16.21-10.94-10.77c.11-1.7.21-3.4.31-5.1,3.62-3.88,8.62-6.77,9.91-15.08-12.44,6.54-24.91,9.55-33.34,20Zm-2.21,196.81-2.38-.19c.37.26.72.71,1.1.74S363.4,678.87,363.83,678.66Z"/><path class="cls-5" d="M279.3,258.61c18.59-8.65,37-17.63,55.82-25.85,11.52-5,23.46-9.2,28.46,8.79,1.77,6.4,6.19,2.92,9.67,1.53,10.7-4.26,21.26-8.86,32.07-12.8a56.23,56.23,0,0,1,14.62-2.93c8.16-.67,16.91-.76,20.51,8.52,3.49,9-2.69,15.08-8.66,20.69-1.36,1.28-3,2.32-7.16,5.59,13.6-.78,20.29-8.9,29-12.32,7.9-3.11,15.29-7.52,22.92-11.32,6.29-3.13,12.55-7,19.72-2.36,8,5.22,5.63,12.85,3.89,21.56,9.14-.87,19.2-8.68,25.6,3.23.22,1,.43,2.07.65,3.11q-.6,4.21-1.18,8.43c-5.21,2.94-10.89,5.27-15.55,8.9-16.08,12.53-36.64,18.13-50.95,33.3.16,1.22.33,2.45.5,3.67l.14-.13c-11.34-3.11-18.52,5.65-26.85,10.12-26.41,14.17-51.54,30.74-79.57,41.85-7.86,3.12-16.07,5.3-21.45-3.47-4.76-7.76-3-15.19,4.6-20.78a4.76,4.76,0,0,0,2.41-.84c6-1,10.47-3.38,10.77-10.56-6.95-1-9.89,1.92-10.67,7.63l-3.68,2.52c-9.33-1.22-15.84,5.42-23.61,8.53-6,2.42-11.78,5.88-18,7.42s-13.7,1.76-17.1-5.56c-3.08-6.64-.91-12.95,4.77-17.52,11.23-9,19.63-21.64,34.15-26.57,1.8-.61,2.68-3.91,4-6l4.93-1.34c11.76-3.18,18.2-13.18,27.06-20.2-11.69,3.22-23.25,6.26-31.37,15.78l-3.09,3c-25.18,9.9-47.82,24.76-71.92,36.77-9,4.47-17.58,9.66-26.61,14-7.29,3.51-14.51,11.06-23.26,3.63-9.16-7.78-2.91-16,3-27.27-13.65,6.45-23.85,11.16-34,16.06-8,3.89-15.66,4.63-21.49-3.36-6.09-8.35-.21-13.93,5.45-19.23,6-5.67,12.17-11.25,19.71-18.19-13.37-1.7-25.48,13.09-35.16.71s6-19.95,9.73-29.49c-4.16-3.58-7.4-.91-10.7-.45-6.62.93-10.86-2.6-12.46-8.36-1.76-6.31,0-12.76,6.69-14.89,17.27-5.51,33.09-14.28,49.86-20.83,8.74-3.42,18.26-8.16,26.43.87s-1.74,15.41-5.49,26.29c13.57-6.92,24.67-12.6,35.78-18.24,8.5-4.32,16.95-8.74,25.55-12.84,7.16-3.42,14.84-5.24,20.57,2,6,7.58,1.74,14-4,19.77-2.82,2.84-5.4,5.91-8.09,8.88-8.08,3.44-14.55,8.6-20.66,19,9.45-4.09,17.23-4.41,20.76-12.28,2.81-.9,5.62-1.81,8.44-2.7C277.7,262.73,278.36,260.49,279.3,258.61Z"/><path class="cls-4" d="M377.16,607.92c17.55-14.12,37.44-24.61,57.07-35.26,24.47-13.28,47-29.88,72.67-41.06q.53,4.5,1.05,9c-14.61,12.16-32,19.7-48.65,28.23-26.05,13.38-50.35,30.34-78.42,39.72Z"/><path class="cls-4" d="M458.69,314.68c14.31-15.17,34.87-20.77,50.95-33.3,4.66-3.63,10.34-6,15.55-8.9q.36,4.15.74,8.29l-63.71,37.47C461,317.05,459.87,315.86,458.69,314.68Z"/><path class="cls-4" d="M266.38,264.83c-3.53,7.87-11.31,8.19-20.76,12.28,6.11-10.42,12.58-15.58,20.66-19Q266.34,261.45,266.38,264.83Z"/><path class="cls-4" d="M541.66,294.44q.29-3.35.59-6.69C547.62,290.48,546.86,292.66,541.66,294.44Z"/><path class="cls-4" d="M522.08,523c.82-3.62,3-5.45,6.8-5.07C528.26,521.84,526,523.47,522.08,523Z"/><path class="cls-4" d="M532.2,514.58c-.23-2.74.35-5,3.25-6.11C538.94,512.94,535.47,513.7,532.2,514.58Z"/><path class="cls-4" d="M279.3,258.61c-.94,1.88-1.6,4.12-4.48,3.52C275.6,260,276.8,258.5,279.3,258.61Z"/><path class="cls-4" d="M507.36,496.16c-.79,2.25-2,2.15-3.55.68Z"/><path class="cls-4" d="M344.72,478.16l2.71,3Z"/><path class="cls-4" d="M332.56,473.07l2.92-1.07C335,473.64,334.1,474.23,332.56,473.07Z"/><path class="cls-4" d="M317.53,472.05l3,1.24C318.91,474.28,318,473.66,317.53,472.05Z"/><path class="cls-4" d="M335.52,472c1-2.24,2.31-2.22,3.92-.69Z"/><path class="cls-4" d="M526.37,264.05c-.22-1-.43-2.07-.65-3.11a13.46,13.46,0,0,1,1.44,2C527.25,263.16,526.65,263.68,526.37,264.05Z"/><path class="cls-4" d="M480.51,506.93C463,520.44,442.75,529,422.66,537.77c.43-8.18-9.91-2.94-11.19-9,20.31,2.29,34.25-12.26,50.9-19.53,5.88-2.57,10.89-7.12,17.75-7.38Z"/><path class="cls-4" d="M373.75,480c8.43-10.47,20.9-13.48,33.34-20-1.29,8.31-6.29,11.2-9.91,15.08C388.54,472.77,382.28,481.8,373.75,480Z"/><path class="cls-4" d="M414,490.74c3.47-4.7,7.79-6.89,14.94-5.1-4.72,8.73-10.19,15.2-17.39,20.26Q412.75,498.33,414,490.74Z"/><path class="cls-4" d="M396.87,480.18,407.81,491C396.26,495.38,395.77,488.59,396.87,480.18Z"/><path class="cls-4" d="M418,539.37c-2.74,5.49-7.45,7.52-13.29,7.55C406.89,540.45,411.78,538.74,418,539.37Z"/><path class="cls-4" d="M407.76,514.25l.24,9.11C404.12,520.43,404.34,517.38,407.76,514.25Z"/><path class="cls-4" d="M408.67,525.57l2.78,3.22A2.83,2.83,0,0,1,408.67,525.57Z"/><path class="cls-1" d="M377.16,607.92l3.72.67c-5.49,10.57-15.95,10.3-28.61,15.18C360.23,612.11,368.63,609.91,377.16,607.92Z"/><path class="cls-2" d="M480.51,506.93l-.39-5.06c5.49-2.56,10-8.23,18.49-5.2C494.75,504.94,485.83,503,480.51,506.93Z"/><path class="cls-2" d="M363.83,678.67c-.43.2-.87.57-1.28.54s-.73-.48-1.1-.74Z"/><path class="cls-2" d="M458.69,314.68c1.18,1.18,2.35,2.37,3.53,3.56l-3,.11C459,317.13,458.85,315.9,458.69,314.68Z"/><path class="cls-4" d="M319.68,299.25c8.12-9.52,19.68-12.56,31.37-15.78-8.86,7-15.3,17-27.06,20.2Z"/><path class="cls-4" d="M338.57,342.17c.78-5.71,3.72-8.65,10.67-7.63-.3,7.18-4.79,9.57-10.77,10.56A15.1,15.1,0,0,1,338.57,342.17Z"/><path class="cls-2" d="M319.68,299.25l4.31,4.42L319.06,305l-2.46-2.75Q318.13,300.75,319.68,299.25Z"/><path class="cls-2" d="M338.57,342.17a15.1,15.1,0,0,0-.1,2.93,4.76,4.76,0,0,1-2.41.84c-.37-.41-.76-.83-1.16-1.24Z"/></svg>