<svg id="Capa_1" data-name="Capa 1" xmlns="http://www.w3.org/2000/svg" viewBox="0 0 667.71 1024"><defs><style>.cls-1{fill:#7ac1ea;}.cls-2{fill:#cde7ec;}.cls-3{fill:#eef6fa;}.cls-4{fill:#fffffd;}.cls-5{fill:#f8f8eb;}</style></defs><path class="cls-1" d="M578,626.18c.44,28.75,2.54,57.54-2.27,86.15-5.07,3.72-4.25,10-6,15-12,33.89-38.94,48.94-70.94,58.07-30.29,2.66-60.52,6.06-90.88.08-28.76-5.66-53.58-17.14-69.59-43.11-1-7.76-4.57-14.27-9.62-20.08q-2.46-11.91-4.91-23.8c1.39-2.63.51-4.74-1.54-6.57-1.86-11-5.2-21.94.1-32.89,2.7-7.63,8.25-16.48-7-16.43l-20.4,1.6c-28.08-8.71-57.77-7.77-86.26-15C125.44,608,85.67,564.85,89.43,477.11c1-22.93,7.57-45.63,11.57-68.43,13.88-53,19.6-107.57,32.9-160.72,8.82-35.25,31.34-55,65-59.79,36.06-5.16,72.87-6.3,109,2.39,17.22,4.15,29.8,14.79,36.31,31.32,3.2,8.13,5.59,7.32,11.39,2.31,47.56-41.12,132.74-45.46,183.84-10.29,7.19,4.95,11.58,11.47,16.36,18.1.9,6.93,3.13,13.06,9.85,16.52.17,1.11.34,2.22.5,3.34-1,9.44,2.94,18.21,3.15,27.73,1.23,56.53-7,112.86-3.28,169.41q.24,18,.47,36c-.5,9.15-3.3,18.48,2.14,27.15q.54,21.47,1.07,42.94c-.23,6.93-2.93,14.15,2.41,20.43q.74,14.76,1.47,29.51c-1.12,2.87-.77,5.35,1.91,7.21.11,3.27.23,6.54.34,9.81C576.51,623.43,577.27,624.81,578,626.18ZM345.27,638.77c-3.39,2.92-3.15,6.52-2,10.31-.45,11.47-2.32,23.11-1.05,34.39,2.79,24.86,4.38,50.84,30.07,65.4,3.41,6.77,9.43,9.27,16.47,10.11l6.29,1.18c2.76,3,6.46,2.73,10,2.91l7,2.57c6.18,5.18,13.28,3,20.17,2.49a194.42,194.42,0,0,0,43-.28,34.63,34.63,0,0,0,27-5c3.7-.12,7.42-.18,10.23-3.15,21.84-3.9,32.47-19.61,39.71-38.41,11.36-29.48,9-60.45,6-90.58-4.43-45.19-8.48-90.36-9.23-135.74-1.17-69.91-.41-139.79,3.55-209.64,1.85-32.69-15.21-55.3-45.84-67.08-27.85-10.7-56-10.53-85.08-6.79-35.72,4.58-58.3,21.65-63.21,57.15-6.06,43.88-6,88.36-6.33,132.69-.15,21.65.08,43.32-.52,65-.41,15.09-10.33,25.87-22.71,25.75-15.56-.15-20.32-11.25-23.07-23.81-.82-3.73-.26-7.75-.36-11.63-1.25-48.57,11-95.47,18.39-142.91,3.52-22.6,6.19-45,5.16-67.77-1-21.2-10.41-32.32-30.9-37.53-24.62-6.26-49.72-3.2-74.59-3.27-53.49-.16-68.9,25.51-77.87,77.05q-.27,4.67-.55,9.33l-2.2,3.83-4.14,36.83c-2.67,1.6-3.18,4-2.4,6.78q-1.09,9.75-2.2,19.51c-2.77,4.2-5.52,8.4-4.35,13.83L128.53,382c-13.22,39.38-23,79.13-20.46,121.4,2.66,43.31,21.83,74.36,61.46,92.92,41.1,19.24,84.87,23.79,129.38,26.56,15.4,1,32.36-6,46.39,6.14ZM333.36,372.58c-5,29.72-13.22,58.86-11.07,89.29.27,3.91,1,8.63,5.71,8.64,5.66,0,4-5.38,4.57-8.87C337.53,432.07,334.73,402.32,333.36,372.58Z"/><path class="cls-1" d="M201.92,663.09l-6.49-1c-1.67-2.6-4.07-3-6.86-2.27C119,643.82,67.9,600.52,57,530.13c-3.66-23.78-.73-47.52,1.9-71.2,2.44-1.74,3-4.11,2.28-6.89,1.94-5.37,4.71-10.54,4.15-16.54,2.6-1.61,3.22-4,2.61-6.8l4-6.61c15.12-1.83,15.5,7.47,12.31,17.64-7.22,23-9.72,46.41-9.23,70.51,1,52.84,32.53,98.38,81.35,118.82,38,15.89,77.41,22.57,118.11,23.08,12.09.16,19.76,2.77,17.65,16.8l0,0c-2.77,0-5.18.68-6.74,3.19l-13.23-.13c-6.29-4.91-13.32-2.64-20.18-2.09l-16.59-1c-4.94-5-11-3-16.75-2.58l-6.65-.6C209.41,662,205.7,662.39,201.92,663.09Z"/><path class="cls-1" d="M592.29,721.84c8.39,5.49,6.55,12.92,4.2,20.71-10.54,34.86-35.38,54.88-68.71,65.59C484.58,822,440.45,820,396.23,814.43a34.8,34.8,0,0,1-6.43-1.68c-6.16-2-14.55-2.7-13.25-11.79,1.44-10,10.41-9.21,17.24-8,29.19,5,58.56,3.49,87.89,3.3,6,0,12.3,1,17.77-2.74,39.12-2.75,66.16-21.78,79.19-59.24C581.07,727.28,584.75,722.69,592.29,721.84Z"/><path class="cls-1" d="M578.6,265.24c.79-6.37,2.13-13.27,10.45-11.67,7.63,1.46,10.35,8,9.3,15.41-4,28.09-2.09,56.49-4.36,84.6-2.29,28.26-3.12,56.31-.08,84.48.89,8.26-.19,16.26-8.84,19.39C578,460,573.43,456,572.64,448.36,570.92,387.2,574.88,326.23,578.6,265.24Z"/><path class="cls-1" d="M80.88,388.41c-5.5-.4-11.86-4.62-11.12-13.94.6-7.51,5.7-13.89,13.88-13.52,8.76.4,15.76,4.22,14.76,15.46C97.59,385.54,92.73,388.86,80.88,388.41Z"/><path class="cls-1" d="M595.58,485.32c6.11,8.95,14.32,18.17-3.08,24.11L576.36,505s-.26-.52-.26-.51C574.53,489.91,582.11,484.62,595.58,485.32Z"/><path class="cls-2" d="M578,626.18c-.77-1.37-1.53-2.75-2.29-4.12C576.51,623.43,577.27,624.81,578,626.18Z"/><path class="cls-3" d="M145.61,282.11c9-51.54,24.38-77.21,77.87-77.05,24.87.07,50-3,74.59,3.27,20.49,5.21,29.93,16.33,30.9,37.53,1,22.77-1.64,45.17-5.16,67.77-7.4,47.44-19.64,94.34-18.39,142.91.1,3.88-.46,7.9.36,11.63,2.75,12.56,7.51,23.66,23.07,23.81,12.38.12,22.3-10.66,22.71-25.75.6-21.64.37-43.31.52-65,.29-44.33.27-88.81,6.33-132.69,4.91-35.5,27.49-52.57,63.21-57.15,29.09-3.74,57.23-3.91,85.08,6.79,30.63,11.78,47.69,34.39,45.84,67.08-4,69.85-4.72,139.73-3.55,209.64.75,45.38,4.8,90.55,9.23,135.74,2.95,30.13,5.35,61.1-6,90.58-7.24,18.8-17.87,34.51-39.71,38.4-4.46-8.4-1.08-15.37,6.5-22.6l-14.81.92c1.92-4.5,6.15-6.13,10.05-8.24,18.73-10.15,18.88-10.31,6.76-28.9-2.79-4.28-1.11-6.7,1-10.3,11.19-19.43,10.3-23.11-7-34.07,3.09-10.21,20.56-12.54,15.42-26.82-3.88-10.78-14.1-10-24.59-8.52,4.36-12.62,16.77-16.74,20.85-27.23,6.29-16.13-10.08-15.82-17.73-22.32,5.48-4.81,10.59-8.29,14.39-12.87,7.45-9,7.64-18.85-4.57-22.32-14.74-4.2-7-7.17-1.54-12.95,4.74-5,9.56-11,6.23-19.31-3.42-8.55-10.41-8.93-17.88-8.72l-3.47-6.7,13.58-6.54c5.66,0,11.16-.25,12.67-7.37,1-6.72,1.63-13.39-2.79-19.33.36-5.49-5.24-6.8-7.39-10.54,14-26.44,10.69-32.67-20.93-38,3.7-6.23,9.2-9.51,14.75-13.06,9.11-5.84,20.77-10.46,19.85-24-1.11-16.17-16.26-8.66-26.52-13,7-6.69,13-12.12,18.65-17.78,4.21-4.21,10.11-8.09,7.12-15.35-2.56-6.23-7.77-9.05-14.62-8.85-2.72.09-5.67,0-6-4.79,4.62-3.83,9.76-7.91,14.68-12.24,5.8-5.11,9.88-11.19,5.16-18.87-4.46-7.25-11.16-8.21-18.88-5-8.95,3.73-18,7.11-27.09,10.64-2.47-6.07,1.8-8,4-10.81,5.18-6.66,11-13.41,5-22.23s-14-6.66-22.12-2.7c-8.65,4.22-8.73.72-7.41-7.19,2.52-15.12-6.16-22.67-20.26-17-16.36,6.54-32,15-47.68,23.07-4,2.07-7.49,8.08-5.58,11.17,10.2,16.51-4.14,23.46-11.72,33.12l-2.74,3.7c-1.94,12.38,4.13,17.56,15.87,17.66l0,10.86c-5.12,4.14-10.72,7.83-15.25,12.54-6.23,6.48-7.49,15.62-.15,20.5,12.9,8.56,7.14,13.17-.82,20.4-6.49,5.88-10.59,15-1,21.25,11.19,7.29,6.78,11.94.29,19.09-9.77,10.77-7.14,18.51,6.62,23.44,3.24,1.16,8.23-1.16,9.62,5.33-5.94,4.38-12.36,8.68-18.27,13.59-6.39,5.29-14.13,10.75-7.56,20.63,5.73,8.63,12.49,8,21.4,3.15,14.89-8.06,30.74-14.33,46.19-21.36q1.11,2.3,2.2,4.61c-22.88,13.12-45.69,26.37-68.66,39.34-36.69,20.7-73.55,41.1-110.18,61.91-8.19,4.65-18,10.34-13,21.79,5.28,12.09,15.87,9,25.9,5.67,19.46-6.53,38.51-14,56.59-23.74l3.41-2.63q9.45-2.81,18.91-5.58a8.45,8.45,0,0,1,4.18,7.73c-10.12,4.23-20.88,7.1-29.79,13.92-4.44-.44-6.7,1.69-7.12,6l-.18.24c-.4.31-1.14.63-1.14.94a13.87,13.87,0,0,0,.53,2.67c-.19,14.83,10,15.83,21,15.77,5.68,6.73,5.71,1.25,6.34-2.93C356.41,602.19,368,589,385.55,589l-.19-.19c-3.9,4.42-7.24,9.56-11.82,13.1-10.14,7.83-14,17.43-11,29.85-6.23,2.18-10.51-8.13-17.25-2.69-14-12.18-31-5.18-46.39-6.14-44.51-2.77-88.28-7.32-129.38-26.56-39.63-18.56-58.8-49.61-61.46-92.92-2.59-42.27,7.24-82,20.46-121.4,4.18,2.7,3.28,7.16,3.86,11.1-.14,27.32,0,27.44,36.37,23.15-9.48,8.67-17.49,15.89-25.37,23.25-5,4.69-6.09,10.78-3.76,16.84s7.37,9.35,14.4,9.19c3-.07,6.59-1.87,9.6,2.58-6,10.34-23.15,16.84-16.15,32.75,6,13.69,19.11,4.86,31.42,5.54-6.34,6.94-11.92,11.64-15.67,17.51-4.24,6.63-11.3,13.62-5,22.56s14.63,4.37,22.68,2.59,17.48-13.26,22.82-6.36c4.78,6.17-8.68,12-12.82,19-3.12,5.22-7.5,10.14-1.78,16.35,4.73,5.16,9.41,9.24,17.25,5.51q48.88-23.29,95.19-51.32c6.35-3.84,9-10.41,6.29-17.32-3.09-7.9-10.57-6.49-17.27-6-5.85.41-9.36,8.79-17.65,4.26,2.11-9.2,14.87-14.41,11.34-25.66-3.85-12.25-17.6-5.75-25.69-12.25,3.67-4,6.51-7.3,9.63-10.35,7.54-7.38,21-12.2,15.26-26.15-6.41-15.47-19.17-7-30.09-3.81.12-9.18,6.64-11.39,10.83-15.29,8.11-7.55,16.46-14.84,24.65-22.31,5.29-4.83,9.13-10.71,4.64-17.52-3.82-5.8-9.87-8.7-17.37-6.56-2.68.77-5.74,3.85-8.77-1,10.31-9.22,20.49-18.46,30.83-27.54,7-6.13,11.13-13.67,5.27-21.81-5.38-7.48-13.92-4.94-21.4-2.36-5.84,2-10.75,6.83-22.17,6.79,14.67-9.57,24.61-18.34,33.39-28.15,7.52-8.42,11-18.56-3.25-23.43-9.73-3.33-6.46-6.56-2.26-11.18,3-3.28,6.73-6,9.2-9.6,3.4-5,7-10.44,2.66-16.8-3.93-5.74-9.72-6.78-16.18-6.33s-11.44,3.73-16.76,6.8c-8.23,4.74-16.16,10.44-29.37,12.92,7.45-10.84,13.06-19.92,5.36-28.31-7.55-8.22-16.64-2.1-24.71,1-12.41,4.74-24.59,10.08-36.94,15-10.48,4.13-16.12,11.37-15.65,22.88-7.83.29-14.77.84-11.07,12.2C156.75,281.71,150.75,281.91,145.61,282.11Z"/><path class="cls-4" d="M412.14,765.64l-7-2.57c-1.12-8.64-4.5-9.48-10-2.91L388.79,759c-1.8-9.38-9.26-9.54-16.47-10.11-25.69-14.56-27.28-40.54-30.07-65.4-1.27-11.28.6-22.92,1-34.39l5.52-3.57c6.05-1.13,12.26-2.06,13.28-9.92,5.32-.53,6.71,4.91,10.42,6.83l-11.3,13.05c-10.46,8.48-3.81,12.81,4.09,16.84l.09.09c1.2,8.46,7.75,7,12.83,6s7.3.19,7.92,5.06a2.59,2.59,0,0,1-.47,2.15c-6.3.3-10,3.37-10,9.9s3.5,9.71,9.88,10l0,0,4,18.07-.39,8.15c-.49,16.44-.49,16.44,9.64,14.1l10.05,0C419.9,750.75,426.91,756.36,412.14,765.64Z"/><path class="cls-4" d="M132.39,393.13c-.58-3.94.32-8.4-3.86-11.1q.63-4.9,1.24-9.81c5.54-3.32,12.46-6.2,4.35-13.83q1.09-9.75,2.2-19.51c4.18-1.06,7.24-2.51,2.4-6.78q2.07-18.41,4.13-36.82,1.11-1.92,2.21-3.84.28-4.67.55-9.33c5.14-.2,11.14-.4,8.71-7.88-3.7-11.36,3.24-11.91,11.07-12.2l6.73,6.48c-.1,7.7-8,10.48-10.48,16.24-4.22,9.64-17.24,19.05-3.11,30.71l.09.09c.67,3.93,1.19,8.12,6.55,3.69l10.06.36.66,6.81c-.82,6.47-6.9,8.38-10.66,12.31-1.89,1-4.06,1.6-5.64,2.93-13,11,2.28,19.86,2.31,29.9C151.84,378.43,144.83,389.5,132.39,393.13Z"/><path class="cls-4" d="M504.18,738l14.82-.92c-7.58,7.23-11,14.2-6.5,22.6-2.81,3-6.53,3-10.23,3.16-5.65-5.68-23.47-2.35-27,5a195,195,0,0,1-43,.29c-.79-9.29,3.84-13,12.71-12.35l4,1,3.07-.17,22.2-5c4.37.85,7.31-.46,8-5.22Z"/><path class="cls-2" d="M333.36,372.58c1.37,29.74,4.17,59.49-.79,89.06-.58,3.49,1.09,8.89-4.57,8.87-4.74,0-5.44-4.73-5.71-8.64C320.14,431.44,328.38,402.3,333.36,372.58Z"/><path class="cls-3" d="M445,755.79c-8.87-.65-13.5,3.06-12.71,12.35-6.89.5-14,2.68-20.17-2.5,14.77-9.28,7.76-14.89-3.34-19.8,11.48-3.66,26.09-26.26,31.88,5.29C441,752.89,443.52,754.24,445,755.79Z"/><path class="cls-3" d="M475.31,767.85c3.49-7.38,21.31-10.71,27-5A34.63,34.63,0,0,1,475.31,767.85Z"/><path class="cls-5" d="M362.09,635.59c-1,7.86-7.23,8.79-13.28,9.93-.1-2.82-.77-5.34-3.54-6.75l0-9.72c6.74-5.44,11,4.87,17.25,2.7l-.15.14C362.3,633.12,362.2,634.36,362.09,635.59Z"/><path class="cls-3" d="M372.32,748.87c7.21.57,14.67.73,16.47,10.11C381.75,758.14,375.73,755.64,372.32,748.87Z"/><path class="cls-3" d="M134.12,358.39c8.11,7.63,1.19,10.51-4.35,13.83C128.6,366.79,131.35,362.59,134.12,358.39Z"/><path class="cls-3" d="M345.27,638.77c2.77,1.41,3.44,3.93,3.54,6.75q-2.78,1.77-5.52,3.56C342.12,645.29,341.88,641.69,345.27,638.77Z"/><path class="cls-3" d="M395.08,760.16c5.53-6.57,8.91-5.73,10,2.91C401.54,762.89,397.84,763.13,395.08,760.16Z"/><path class="cls-3" d="M138.72,332.1c4.84,4.27,1.78,5.72-2.4,6.78C135.54,336.06,136.05,333.7,138.72,332.1Z"/><path class="cls-3" d="M145.06,291.44q-1.09,1.92-2.21,3.84Q144,293.36,145.06,291.44Z"/><path class="cls-1" d="M378.5,292c7.58-9.66,21.92-16.61,11.72-33.12-1.91-3.09,1.56-9.1,5.58-11.17,15.69-8.1,31.32-16.53,47.68-23.07,14.1-5.64,22.78,1.91,20.26,17-1.32,7.91-1.24,11.41,7.41,7.19,8.12-4,16-6.15,22.12,2.7s.22,15.57-5,22.23c-2.2,2.82-6.47,4.74-4,10.81,9-3.53,18.14-6.91,27.09-10.64,7.72-3.22,14.42-2.26,18.88,5,4.72,7.68.64,13.76-5.16,18.87-4.92,4.33-10.06,8.41-14.68,12.24.33,4.83,3.28,4.88,6,4.79,6.85-.2,12.06,2.62,14.62,8.85,3,7.26-2.91,11.14-7.12,15.35-5.69,5.66-11.61,11.09-18.65,17.78,10.26,4.33,25.41-3.18,26.52,13,.92,13.55-10.74,18.17-19.85,24-5.55,3.55-11,6.83-14.75,13.06,31.62,5.37,34.89,11.6,20.94,38-3.25.95-6.6,2.59-5.14,6.45,2.26,6,8.19,3.09,12.52,4.09,4.42,5.94,3.76,12.61,2.79,19.33-5.24.7-10.33,1.67-12.67,7.37l-13.58,6.54c-5.26,1.66-10.81,2.7-15.73,5.06q-62.08,29.79-123.94,60.09c-5.29,2.59-11.86,3.8-14.51,10.28L329,569.72c-1.14.87-2.27,1.75-3.41,2.64-18.08,9.79-37.13,17.21-56.59,23.74-10,3.36-20.62,6.42-25.9-5.67-5-11.45,4.78-17.14,13-21.79,36.63-20.81,73.49-41.21,110.18-61.91,23-13,45.78-26.22,68.66-39.34q-1.09-2.31-2.2-4.61c-15.45,7-31.3,13.3-46.19,21.36-8.91,4.83-15.67,5.48-21.4-3.15-6.57-9.88,1.17-15.34,7.56-20.63,5.91-4.91,12.33-9.21,18.27-13.59-1.39-6.49-6.38-4.17-9.62-5.33-13.76-4.93-16.39-12.67-6.62-23.44,6.49-7.15,10.9-11.8-.29-19.09-9.55-6.23-5.45-15.37,1-21.25,8-7.23,13.72-11.84.82-20.4-7.34-4.88-6.08-14,.15-20.5,4.53-4.71,10.13-8.4,15.26-12.53,5-1.32,9.56-4,8.34-9.55-.78-3.56-5.3-2.13-8.38-1.32-11.74-.1-17.81-5.28-15.88-17.66Z"/><path class="cls-1" d="M132.39,393.13c12.44-3.63,19.45-14.7,29.51-21.58,5.58-2,9.13-6.46,5-11.21-6.34-7.35-3.34-14.28-1.7-21.62,3.76-3.93,9.84-5.84,10.65-12.31,3.8-1.31,10.33-1,8.44-7.05-1.79-5.67-6-1.14-9.09.24l-10.06-.37c-1.27-2.84-3.68-3.68-6.55-3.68l-.09-.09c-2.22-14,4.72-23.93,14.22-33.08,4.34-4.2,11.89-9.86-.63-13.87L165.39,262c-.47-11.51,5.17-18.75,15.65-22.88,12.35-4.87,24.53-10.21,36.94-15,8.07-3.08,17.16-9.2,24.71-1,7.7,8.39,2.09,17.47-5.36,28.31,13.21-2.48,21.14-8.18,29.37-12.92,5.32-3.07,10.39-6.35,16.76-6.8s12.25.59,16.18,6.33c4.35,6.36.74,11.82-2.66,16.8-2.47,3.61-6.21,6.32-9.2,9.6-4.2,4.62-7.47,7.85,2.26,11.18,14.25,4.87,10.77,15,3.25,23.43-8.78,9.81-18.72,18.58-33.39,28.15,11.42,0,16.33-4.77,22.17-6.79,7.48-2.58,16-5.12,21.4,2.36,5.86,8.14,1.71,15.68-5.27,21.81-10.34,9.08-20.52,18.32-30.83,27.54,3,4.88,6.09,1.8,8.77,1,7.5-2.14,13.55.76,17.37,6.56,4.49,6.81.65,12.69-4.64,17.52-8.19,7.47-16.54,14.76-24.65,22.31-4.19,3.9-10.71,6.11-10.83,15.29,10.92-3.19,23.68-11.66,30.09,3.81,5.78,13.95-7.72,18.77-15.26,26.15-3.12,3.05-6,6.39-9.63,10.35,8.09,6.5,21.84,0,25.69,12.25,3.53,11.25-9.23,16.46-11.34,25.66,8.29,4.53,11.8-3.85,17.65-4.26,6.7-.46,14.18-1.87,17.27,6,2.7,6.91.06,13.48-6.29,17.32q-46.35,28-95.19,51.32c-7.84,3.73-12.52-.35-17.25-5.51-5.72-6.21-1.34-11.13,1.78-16.35,4.14-6.92,17.6-12.8,12.82-19-5.34-6.9-14.66,4.57-22.82,6.36s-16.32,6.43-22.68-2.59.76-15.93,5-22.56c3.75-5.87,9.33-10.57,15.67-17.51-12.31-.68-25.39,8.15-31.42-5.54-7-15.91,10.11-22.41,16.15-32.75-3-4.45-6.62-2.65-9.6-2.58-7,.16-12-3-14.4-9.19s-1.26-12.15,3.76-16.84c7.88-7.36,15.89-14.58,25.37-23.25C132.43,420.57,132.25,420.45,132.39,393.13Z"/><path class="cls-1" d="M445,755.79c-1.5-1.55-4-2.9-4.34-4.66-5.79-31.55-20.4-9-31.88-5.29l-10.05,0-9.64-14.1c.13-2.72.26-5.43.38-8.16,5.07-2.32,12-5.39,11-10.74-1.12-6.53-9.75-5-15-7.32l0,0q.06-9.94.11-19.89a2.6,2.6,0,0,0,.47-2.16c10.52-5.67,20.14-12.31,25.83-23.74-14.88,7.92-29.19,15.91-46.58,12.67l-.09-.09q-2-8.41-4.09-16.84l11.3-13.05c4.93-1.22,9.33-3,9.89-9.33l-20-1.2.15-.14c-3.05-12.43.85-22,11-29.86,4.58-3.54,7.92-8.68,11.82-13.1,2.06-.3,4.41-.3,4.88-3,.08-.48-1.27-1.81-1.77-1.71-2.63.49-2.76,2.74-2.92,4.87-17.52,0-29.14,13.21-43.85,19.52l-6.34,2.93c-11,.06-21.18-.94-21-15.76l.6-3.62.18-.23,7.12-6c8.91-6.82,19.67-9.69,29.79-13.92,2.64-.72,5.54-1,7.87-2.23,47.85-26.09,96.29-51,145.6-74.24,7.47-.21,14.46.17,17.88,8.72,3.33,8.34-1.49,14.32-6.23,19.31-5.49,5.78-13.2,8.75,1.54,12.95,12.21,3.47,12,13.35,4.57,22.32-3.8,4.58-8.91,8.06-14.39,12.87,7.65,6.5,24,6.19,17.73,22.32-4.08,10.49-16.49,14.61-20.85,27.23,10.49-1.47,20.71-2.26,24.59,8.52,5.14,14.28-12.33,16.61-15.42,26.82,17.3,11,18.19,14.64,7,34.07-2.07,3.6-3.75,6-1,10.3,12.12,18.59,12,18.75-6.76,28.9-3.9,2.11-8.13,3.74-10.05,8.24l-21.92,8.42c-4.4-.91-6.5,1.71-8,5.23l-22.2,5a3.12,3.12,0,0,0-3.07.18Z"/><path class="cls-2" d="M505.54,495.41c-49.31,23.22-97.75,48.15-145.6,74.24-2.33,1.27-5.23,1.51-7.87,2.23a8.45,8.45,0,0,0-4.18-7.73c2.65-6.49,9.22-7.7,14.51-10.29q61.85-30.32,123.94-60.09c4.92-2.36,10.47-3.4,15.73-5.06Z"/><path class="cls-2" d="M525.53,455.47c-4.33-1-10.26,1.88-12.52-4.09-1.46-3.86,1.89-5.5,5.14-6.45C520.29,448.67,525.89,450,525.53,455.47Z"/><path class="cls-2" d="M391.63,313.36c3.08-.81,7.6-2.24,8.38,1.32,1.22,5.54-3.36,8.23-8.34,9.55Q391.64,318.79,391.63,313.36Z"/><path class="cls-2" d="M515.65,482.17c2.34-5.7,7.43-6.67,12.67-7.37C526.81,481.92,521.31,482.19,515.65,482.17Z"/><path class="cls-2" d="M335.36,611.43l6.34-2.93C341.07,612.68,341,618.16,335.36,611.43Z"/><path class="cls-2" d="M322.28,585.8l-7.12,6C315.58,587.49,317.84,585.36,322.28,585.8Z"/><path class="cls-2" d="M325.57,572.36c1.14-.89,2.27-1.77,3.41-2.64Z"/><path class="cls-2" d="M378.5,292l-2.75,3.7Z"/><path class="cls-2" d="M315,592.05l-.6,3.62a13.41,13.41,0,0,1-.54-2.68C313.84,592.68,314.58,592.36,315,592.05Z"/><path class="cls-3" d="M365.39,672.4c17.39,3.24,31.7-4.75,46.58-12.67-5.69,11.43-15.31,18.07-25.83,23.74-.62-4.86-2.84-6.06-7.92-5.05S366.59,680.86,365.39,672.4Z"/><path class="cls-3" d="M385.54,705.5c5.24,2.28,13.87.79,15,7.32.92,5.35-6,8.42-11,10.74Q387.53,714.55,385.54,705.5Z"/><path class="cls-3" d="M385.67,685.63q0,9.95-.11,19.89c-6.38-.28-9.89-3.51-9.88-10S379.37,685.93,385.67,685.63Z"/><path class="cls-3" d="M362.4,631.89l20,1.2c-.56,6.35-5,8.11-9.89,9.33-3.71-1.92-5.1-7.36-10.42-6.83C362.2,634.36,362.3,633.12,362.4,631.89Z"/><path class="cls-3" d="M389.11,731.72l9.64,14.1C388.62,748.16,388.62,748.16,389.11,731.72Z"/><path class="cls-3" d="M361.21,655.47q2.06,8.41,4.09,16.84C357.4,668.28,350.75,664,361.21,655.47Z"/><path class="cls-3" d="M172.12,268.51c12.52,4,5,9.67.63,13.87-9.5,9.15-16.44,19.05-14.22,33.08-14.13-11.66-1.11-21.07,3.11-30.71C164.15,279,172,276.21,172.12,268.51Z"/><path class="cls-3" d="M165.23,338.72c-1.64,7.34-4.64,14.27,1.7,21.62,4.1,4.75.55,9.17-5,11.21,0-10-15.3-18.93-2.31-29.9C161.17,340.32,163.34,339.68,165.23,338.72Z"/><path class="cls-3" d="M175.23,319.6c3.1-1.38,7.3-5.91,9.09-.24,1.89,6-4.64,5.74-8.44,7.05Q175.57,323,175.23,319.6Z"/><path class="cls-3" d="M158.62,315.55c2.87,0,5.28.84,6.55,3.68C159.81,323.67,159.29,319.48,158.62,315.55Z"/><path class="cls-3" d="M474.26,751.63c1.51-3.52,3.61-6.14,8-5.23C481.57,751.17,478.63,752.48,474.26,751.63Z"/><path class="cls-3" d="M449,756.81a3.12,3.12,0,0,1,3.07-.18Z"/><path class="cls-3" d="M385.55,589c.16-2.13.29-4.38,2.92-4.87.5-.1,1.85,1.23,1.77,1.71-.47,2.67-2.82,2.67-4.88,3Z"/></svg>