<svg id="Capa_1" data-name="Capa 1" xmlns="http://www.w3.org/2000/svg" viewBox="0 0 667.71 1024"><defs><style>.cls-1{fill:#eb606a;}.cls-2{fill:#e9545f;}.cls-3{fill:#f6bcbb;}.cls-4{fill:#f9e9e8;}.cls-5{fill:#fffffd;}</style></defs><path class="cls-1" d="M572.63,627.51q-1.56,6.29-3.13,12.56-1.69,4.65-3.4,9.28l-1.44,3.4c-.66,1.89-1.31,3.79-2,5.69a20.24,20.24,0,0,0-5.92,12.92,165.08,165.08,0,0,1-30.86,44.18c-43.32,44-98.53,61.36-158.1,68.91-37.59,4.76-74.47-.07-111.44-5.43l-6.31-1.4c-1.53-2.47-3.85-2.73-6.42-2.3L236,773.8l-4.81-2.59C193.62,754,155.53,737.88,123,711.39c-17.38-14.14-30.47-30.75-36.66-52.46l.18-31.51L88,619.48c9.79-16.16,19.3-32.5,31.71-46.88l-.81-.35.85.18c5.81-.9,9.73-4.29,12.32-9.41l-.08-.07c44.87-24,89.3-21.18,134.92-.68,22.75,10.23,47.85,14.3,73.31,12.57,5.21-.35,11.17-.07,13.09-6.18,1.82-5.82-.2-11.26-4.7-15.63-7.36-7.15-16.43-10.88-26.23-13-40.64-8.87-81.9-6.15-123-6.4-50.94-.32-55.65-3.58-64.78-56.91C123.91,414.43,121,351.45,122,288.28c.1-5.92,2.63-12.47-2.24-17.9l2.25-8.62c2.8-4.11,2.9-8.55,1.58-13.16l.69-6,11-25.61,14.49-5.77a132.18,132.18,0,0,0,34.42-6.29A40.46,40.46,0,0,0,202.76,203c3.4,1.55,6.7,1.91,9.74-.82l21.74-1c3.41,1.07,6.75,1.64,9.68-1.19l21.6-.89c1.43.53,2.91,1.6,4.3,1.51,45.68-3.06,91.4-1.6,137.1-.93,29,.43,57.95,2.09,86.93,3.2L516,205.19c5.92,3.17,12.08,5.56,18.89,5.83a1.78,1.78,0,0,0,1.86.75l4.37,2.93a1.06,1.06,0,0,0,1.44.54c3.41,5.5,7.69,10,13.8,12.57l8.75,12.4c.36,3.29,1,6.46,3.91,8.6l1.89,5.93c6,18.67,6.93,37.92,5.14,57.17-4.07,43.67-33.27,88.37-89.85,83.6-12.74-1.07-25.77-1.68-38.77,1.65C475.1,401.57,499.63,414,524.33,426a1.23,1.23,0,0,0,1,1.17c.91,2.88,3.15,3.76,5.87,3.91L531,431c16.45,15.9,28.38,35.12,40.13,54.48.25,1.47.51,2.93.77,4.4.48,4.35-.12,9,3.6,12.43.66,3.05,1.32,6.11,2,9.16-1.46,4.59.15,8.61,2.32,12.52q.54,6.27,1.06,12.54a81,81,0,0,0,.09,31.65c-2.21,6-2,12.25-1.37,18.5-2.36,5.07-4.07,10.25-2.53,15.94l-1.65,12.18C571.69,618.45,572.19,623,572.63,627.51ZM230.91,220.25l-.26-.12c-24.64-.67-48.74,3-72.8,8-11.31,2.34-15.86,8.62-16.57,19.19-1,15.59-2.84,31.17-3,46.77-.73,57.94,3.48,115.57,11.27,173C156,515,158.13,517,206.9,517.44c34.38.29,68.84-2,103.09,3.19,19.89,3,39,7.65,52.83,23.89,17.11,20.06,10.07,41.17-15.49,46.73-7.74,1.69-15.51,1.49-23.34.73-30.36-2.91-59.13-11.71-87.38-22.83-32.26-12.69-64.56-11-92.69,8.79-41.59,29.22-64.19,75.94-9.87,119.43,35.76,28.64,76.43,49,120,62.13,50,15,101.3,13.28,151.68,1.69,54.45-12.51,102.63-37.06,130.84-88.14,25.49-46.18,30.93-97.07,24.88-148.76-6.24-53.21-37.53-86.57-88-102.76-45-14.44-91.3-14.63-137.82-12.95a137,137,0,0,1-21.82-.54c-6.05-.74-10.73-4.39-11.33-11.11-.57-6.34,2.19-11.12,8-13.88,7.63-3.6,15.75-6.07,24.1-5.95,46.4.68,92.85-1.93,139.18,2,29.76,2.49,56.6-2.08,73.52-30.1,14.2-23.49,16.67-49.32,10.75-75.5-8.11-35.86-25.05-50.23-61.78-52.29-47.29-2.65-94.64-4.79-142-5.71-22.23-.43-44.75-3-66.85,2.45l-6.25,0-6.07.25c-10.43-.18-20.91-1.67-31.19,1.34C239.51,217.9,235.11,217.06,230.91,220.25Z"/><path class="cls-1" d="M378.47,812.62l-25.56,1.76a176.68,176.68,0,0,0-46.74.16c-10.25-2.56-20.72-2-31.14-2.18-1.31-.76-2.54-2-3.94-2.21-7.49-1.29-18.43-.5-16.74-11.33,1.54-9.93,12.09-5.61,18.45-4.8,24.9,3.13,49.87,3.62,74.85,2.73,47.83-1.71,93.7-10.76,136.61-33.67,29.15-15.55,47.89-40.6,67-65.76,4.43-1.91,5.05-6,5.8-10.06,3.76-2.34,1.47-6.51,2.92-9.55,4.13-3.7,6.41-13.4,13.7-7.88,5,3.83,1.91,11.28-.86,17-5.51,11.45-13,22-16,34.6-.46.65-.91,1.31-1.34,2-2.38.76-4.16,2-4.12,4.84-36,46.34-86,67.61-141.58,78.77-3.53-.75-7.08-1.56-9.45,2.35L387.94,811C384.48,809.76,381.19,809.49,378.47,812.62Z"/><path class="cls-1" d="M96.8,271c14.61-2.82,14.85,6.06,14.19,16.68-3.92,63.45-1.6,126.57,10.87,189.08a199.14,199.14,0,0,0,16.69,50.07c2.86,5.73,8.95,12.36.66,17.71-8.64,5.57-11-4.54-15.82-8.18C96.84,479.73,93.91,418.79,92.1,357.88,91.24,328.93,89.19,299.64,96.8,271Z"/><path class="cls-1" d="M536.31,413.75c-1.9-7.39,2.81-11.08,7.67-15.46,33.43-30.18,48.51-67.63,43.26-112.7-1.82-15.6,0-17.08,15.71-11.23h.14c2.75,25.8,2.32,51.41-4.74,76.61q-1.07,2.85-2.11,5.71c-4.32,2.25-5.28,6.32-5.77,10.64q-2.79,4.88-5.6,9.75a52,52,0,0,0-13.72,20.32s-.32.46-.31.47a35.42,35.42,0,0,0-15.77,15.92l-4.46,1.47-12.67-.33A2.16,2.16,0,0,0,536.31,413.75Z"/><path class="cls-1" d="M579.13,432.05l8-1.23c8.76,6.24,11.51,14.11,6.55,24.07l.05-.21c-6.76,1.55-13.5,2-20.19-.36l-.85,1,.78-1.08q-.27-8.85-.52-17.72l.52-1.19Z"/><path class="cls-2" d="M108.22,238.31,96,235.14,93.43,230c-.11-1.07-.21-2.14-.32-3.21L96,218.54c1.9.81,2.46.34,1.5-1.57a22.87,22.87,0,0,0,1.88-1.65c1.71,1,2.55.25,3-1.42l6.8-.09a6.66,6.66,0,0,0,6,4l3,5.43-1.8,3.8q-2,4.6-4,9.23Z"/><path class="cls-3" d="M102.33,213.9c-.41,1.67-1.25,2.44-3,1.42Z"/><path class="cls-3" d="M97.49,217c1,1.91.4,2.38-1.5,1.57A2.09,2.09,0,0,1,97.49,217Z"/><path class="cls-4" d="M287.48,217.91c22.1-5.44,44.62-2.88,66.85-2.45,47.36.92,94.71,3.06,142,5.71,36.73,2.06,53.67,16.43,61.78,52.29,5.92,26.18,3.45,52-10.75,75.5-16.92,28-43.76,32.59-73.52,30.1-46.33-3.89-92.78-1.28-139.18-2-8.35-.12-16.47,2.35-24.1,5.95-5.84,2.76-8.6,7.54-8,13.88.6,6.72,5.28,10.37,11.33,11.11a137,137,0,0,0,21.82.54c46.52-1.68,92.84-1.49,137.82,12.95,50.43,16.19,81.72,49.55,88,102.76,6,51.69.61,102.58-24.88,148.76-28.21,51.08-76.39,75.63-130.84,88.14C355.36,772.78,304,774.51,254.06,759.5c-43.58-13.1-84.25-33.49-120-62.13-54.32-43.49-31.72-90.21,9.87-119.43,28.13-19.75,60.43-21.48,92.69-8.79,28.25,11.12,57,19.92,87.38,22.83,7.83.76,15.6,1,23.34-.73,25.56-5.56,32.6-26.67,15.49-46.73C349,528.28,329.88,523.65,310,520.63c-34.25-5.19-68.71-2.9-103.09-3.19-48.77-.4-50.9-2.4-57.39-50.34-7.79-57.42-12-115-11.27-173,.2-15.6,2-31.18,3-46.77.71-10.57,5.26-16.85,16.57-19.19,24.06-5,48.16-8.69,72.8-8,1.54,5.59,9.5,5.88,10.1,12.25-6.55-1.25-12.88-3.18-19.71-.23-18.56,8-37.48,15.17-55.91,23.44-8.37,3.76-11.75,11-4.73,18.74,4.66,5.14,6.29,8.57.82,14.16-8.38,8.56-6.95,16.67,2.92,23.27,2.81,1.88,5.89,5.26,2.54,7.15-12.85,7.23-6.42,19.64-8.64,29.51-3.14,14,4.71,21,18.38,16.25,19.53-6.78,38.63-14.8,57.92-22.29.16,2.43.33,4.85.5,7.28-18.09,16-41.06,24.21-60.55,38-5.93,4.18-15.21,7.73-14.22,15.14,1.49,11.11,8.46,21.46,3,33.42-.47,1,2.62,5.2,4.5,5.55,8.57,1.61,13.94,3.14,8.46,14.2-2.71,5.45,9.42,13.09-1,20.38-5.48,3.85-6.27,10.78-2.31,16.91,4.12,6.36,10.13,5.89,16.7,4.35,12.78-3,24.44-8.79,36.49-13.68,10.66-4.32,20.91-10.29,33.39-11.41,0,6.05-3.76,8.5-6.35,11.53-4.82,5.64-7.2,11.73-2.59,18.42,4.7,6.85,11.42,6.41,18.16,3.6,10.55-4.4,21-9,31.5-13.58a19.86,19.86,0,0,0,14.49-8.09l4.31-1.21c4.83-.54,9.12-2.19,12.4-6,2.61-.14,5-.76,6.39-3.25,18.62-3.72,4.46,7.52,5.42,11.87l0,0c-8.49,5.05-11.66,11.62-5.9,20.72,16.85,13.14,28.32-3.4,41.86-7.89,4.48-1.49,8.27-9.46,13-5.14,6,5.43-2.77,8.14-5,12.05-1.79,3.11-3.92,6-5.89,9-5,7.58-10.21,16.39-3.3,24.13,7.54,8.44,17.17,4.06,25.65-.83,26.11-15.05,50.79-32.28,75.58-49.36,7.7-5.3,15.61-10.31,23.06-15.94,5.81-4.41,6.7-10.72,2.73-16.59s-9.53-8-16.15-3.68q-11.67,7.58-23.29,15.2c-3,.22-5.3,1.44-6.36,4.43l-4.87,2.75-3.45,2.85-.13.21c-3.77-1.94-3.12-5.3-2.75-8.57l4.47-5.33c3.7-.56,4.1-3.06,3.61-6.1,4.28-6.87,3.94-13.18-2.28-18.77l-3.62-2.26-14.42.66-4.06,2.33-6.41,3-3.25,2.3-8.95,4.2c-15.17,2.08.82-10.77-6.07-12.65l-.54-6c-.39-2.59-2.16-3.62-4.51-4-7.62-5.37-14.94-2.21-22.09,1-17.67,8-35.26,16.11-52.43,24-2.75-3.53-1.88-5.46-.58-7.08,4.6-5.69,7.16-11.69,2.34-18.4-5.61-7.79-12.93-4.38-19.86-2.48-5.71,1.56-11,5-18.7,4.39,2-9,2.15-16.76-7.37-20.18-2.86-1-4.47-2.87-2.54-5.77,5.2-7.8,6.78-17.25,17.37-22.25,25.78-12.17,50.49-26.59,75.79-39.79,5.21-2.71,10.37-7.52,17.17-3.77,1.22,3.27-1.16,4.63-3.28,6.06-7,4.68-12.86,10.31-7.38,19.16,5.3,8.57,12.8,7.28,20.18,2.21a12.17,12.17,0,0,1,13.26-1c9.18,4.76,16.94,1.31,24.81-3.56,7-4.31,14.36-8,21.77-12.08,5.56,18.25,11.14,21.5,28.3,15.8,13.3-4.43,26.41-9.54,39.29-15.11,11.63-5,13.66-14,4.12-21.35-6.8-5.22-7.7-8.58-2-14.56,2.9-3,5.69-7.65,3.66-11.32-5.48-9.89-.7-14.82,7-20.05,6.21-4.24,5.88-10.84,1.88-16.56-3.69-5.28-8.87-6.86-15-3.26-5.35,3.15-10.85,6-16.28,9-4.11,0-4.46-3.18-5.18-6.07l2.5-5.65q2.75-3.33-.5-6.15l-1.41-.17L505.62,249c-1.83-6-6.27-6.75-11.58-5.75-3.5-.61-6.87-.74-9.44,2.34l-6.36,2.35-7.33,3.46-8,.36c-.22-1-.44-2-.65-3,1.14-4.2,1.76-8.39-.17-12.55.17-1.71-.36-2.87-2.29-3l-.21-.14c-9.5-6-18.51-5.65-26.94,2.09-5.06-.73-9.74.11-13.87,3.28-3.65.18-7.11.84-9.64,3.84l-5.86,1.08c-6.52.64-8-5.31-11.36-8.75a4.92,4.92,0,0,0-3.93-4.78c-5.32-4-10.59-4-15.84.14l-3.7,1.75a3.58,3.58,0,0,0-2.72,1l-6.53,2.58c-5.82.87-11.16,2.8-15.39,7.11l-43.05,18.37-1.18-1.61,6.81-7.3c6.5-5.18,13.63-10.19,5.28-19.41l-2-2.92c-4.91-11.23-14.7-3.84-22.05-5.79C287.59,221.83,287.54,219.87,287.48,217.91ZM162.22,696.71l1.59,3c2.47,5.59,6.8,8,12.83,7.57,3.77,1.79,6.41.6,8.14-3l11.54-4.61q.48,6.47,1,12.94c-1,6.15,2.81,9.93,6.69,13.7,3.3,6.48,7.07,5.31,11.06.69h.17c5.47,1,11.44-.22,16.19,3.81,4.89,11.46,13.46,11.64,23.22,7.36,10-4.39,19.85-9.07,29.77-13.62,4.23,1.44,8.59-5.81,12.75.18-1.37,1.56-2.66,3.21-4.14,4.66-4.95,4.87-7.39,10.23-2.86,16.59s10.79,6.9,18,4.9c8.22-2.26,17-11.63,24.47-5.64,13,10.43,23.93,4.4,36.36.87,17.54-5,33.21-21.17,53.83-9.85,1,.54,3.12-.35,4.42-1.1,26.56-15.26,53.21-30.34,79.49-46.07,7.14-4.27,10.35-13.39,3.2-18.31-14.11-9.71-4.61-12.21,3.08-16.66,5.35-3.09,10.3-6.88,15.47-10.3,11-7.29,13-15.64,3.1-25.47q-1.86-3.54-3.7-7.08c5.53-4.13,11.35-8,14.06-14.82.36-.33,1.06-.69,1-1a14.07,14.07,0,0,0-.72-2.57c-1.48-12.62-10.16-13.58-20.14-12.43-2.45-.33-4.6.17-6.21,2.21l-14.5,5.12c-2.84-.86-6.1-1-7.55-4.31h0c3.59.13,6.16-1.18,6.94-5l10.14-6.8c3.94-.26,7.58-1,8.42-5.77l1-.76a2.6,2.6,0,0,0,2.07-1.26l3.21-2.12,3.12-2.54c10.14-12.89,9.55-17.63-3.22-26.14-2.78-2.89-7.56-4.33-7-9.64,2.92-3,6.16-5.66,8.68-8.92,5.89-7.66,15-15.45,6.57-25.89-8-9.86-17.34-3.52-25.31,1.14C471.62,511.35,435,533.4,398.14,555c-7,4.07-10.69,9.91-7.45,16.63,4.49,9.34.13,12.78-6.76,17.23C364.78,601.19,346,614.2,327.14,627c-2.64-.36-6.75,1.25-5.64-4.18.84-4.09,1.73-8.19-2.84-10.86-3.06-3.54-7.09-5.08-11.61-5.6-2.92-.82-5.43-.53-7,2.51l-9.36,6.2-3.36,2.5c-5.91,3.86-11.1,9.08-18.63,9.89l.17.18c10.68-24.28,8.4-27.3-19.18-25.18-3.18.25-7,1-7.6-3-3-20.32-16.75-14.57-28.42-11.27-7.69,2.17-13.14,3.7-18.7-4.39-5-7.3-13.3-5.64-19.54-1.08-15.92,11.64-31.44,23.85-46.9,36.1-5,4-5.95,9.69-3.39,15.54,2.47,5.66,7.27,6.7,13,6.07,3.4-.38,6.65-3.46,10.58-.63-.24,7.44-7.52,9.12-11.45,13.46-4.88,5.38-11.63,10.09-6.32,18.57s12.87,6.31,20.75,3.94C161,672.91,168.8,666,179.86,665c-3,9-11.2,12-14.82,18.76-2.35,1.41-3.07,3.55-2.79,6.15l-.1.25c-3,2.06-3,4.15-.05,6.27Z"/><path class="cls-5" d="M287.48,217.91c.06,2,.11,3.92.17,5.88l-3.77,5.32-8.62,4.25c-7.65-1-12.43,2.94-15.77,9.3L250.35,247c-.25-3.86-1.24-7.15-5.83-7.72-.23-1.15-.46-2.29-.68-3.44L241.52,233l-.77-.58c-.6-6.37-8.56-6.66-10.1-12.25l.27.12c4.3-1,9,4.69,13.05-.71,10.28-3,20.76-1.52,31.18-1.34q3.21,4.13,6.08-.25Z"/><path class="cls-4" d="M244,219.54c-4.07,5.4-8.75-.29-13.05.71C235.11,217.06,239.51,217.9,244,219.54Z"/><path class="cls-4" d="M281.23,218q-2.87,4.37-6.08.25Z"/><path class="cls-3" d="M566.1,649.35l-1.45,3.4C565.14,651.62,565.62,650.49,566.1,649.35Z"/><path class="cls-2" d="M275.26,233.36l8.62-4.25c8.62-.57,17.32-5.38,25.82.47l2,2.92q-2.64,9.7-5.27,19.41l-6.81,7.3,1.18,1.61,43.05-18.37c5.6-1.35,14.4,4.22,15.39-7.11l6.54-2.58c2.19,3,2.56,1.3,2.71-1l3.7-1.75,15.84-.14a4.92,4.92,0,0,1,3.93,4.79c.75,3.33-9,3.94-2.13,9.08,4.91,3.68,9.15,7.1,13.49-.34l5.86-1.08c3.78.13,7.86,1,9.64-3.84,4.13-3.17,8.81-4,13.87-3.28l26.94-2.09.21.14,2.29,3c1.93,4.16,1.31,8.35.17,12.55-3.24.55-6,1.75-5,5.71.24,1,2,1.56,3.1,2.33l2.51-5,8-.36c3.19.42,6.11.28,7.32-3.46l6.36-2.35c3.37.11,6.85.71,9.44-2.34,5.31-1,9.75-.27,11.58,5.75-.23.37-.76,1-.66,1.09a15.38,15.38,0,0,0,1.74,1.68l1.4.16c.16,2,.34,4.11.51,6.16l-2.5,5.65c-2.45.65-5.31.68-7.28,2-25,17.16-51,32.75-77.45,47.63-10.59,6-22.16,10.42-31.2,19,.22,1.37.43,2.74.64,4.11l.13-.15c-6.8-3.75-12,1.06-17.17,3.77-25.3,13.2-50,27.62-75.79,39.79-10.59,5-12.17,14.45-17.37,22.25-1.93,2.9-.32,4.74,2.54,5.77,9.52,3.42,9.4,11.2,7.37,20.18,7.69.64,13-2.83,18.7-4.39,6.93-1.9,14.25-5.31,19.86,2.48,4.82,6.71,2.26,12.71-2.34,18.4-1.3,1.62-2.17,3.55.58,7.08,17.17-7.87,34.76-16,52.43-24,7.15-3.22,14.47-6.38,22.08-1-1.71,5,.8,5.18,4.52,4l.54,6c-5.39,5.47-7.08,12.42-9.63,20.11,7.25-1,12.58-2.05,15.7-7.46l8.95-4.2,3.25-2.3,6.41-3,4.06-2.33,14.42-.66,3.62,2.26c6.22,5.59,6.56,11.9,2.28,18.78q-1.8,3-3.61,6.09-2.24,2.67-4.48,5.32c-4.85,2.93-10.53,7.55-7.53,12.53,2.52,4.2,8.22,1.4,10.29-3.95l.12-.21,3.46-2.85,4.87-2.74c3.75.86,5.18-1.61,6.36-4.44q11.64-7.6,23.29-15.2c6.62-4.28,12.27-2.06,16.15,3.68s3.08,12.18-2.73,16.59c-7.45,5.63-15.36,10.64-23.06,15.94C454.3,505.67,429.62,522.9,403.51,538c-8.48,4.89-18.11,9.27-25.65.83-6.91-7.74-1.67-16.55,3.3-24.13,2-3,4.1-5.93,5.89-9,2.25-3.91,11-6.62,5-12.05-4.77-4.32-8.56,3.65-13,5.14-13.54,4.49-25,21-41.86,7.89-1.93-8,9.31-12.29,5.9-20.72,0,0,0,0,0,0,5.92,1.29,10.44.21,10.07-7.06-.21-4.24,2.7-10.68-2.8-12-4.7-1.17-11.49-.44-12.7,7.24-1.41,2.49-3.78,3.11-6.39,3.25-4.81.57-11.14-2-12.4,6l-4.32,1.21c-6.65-.56-12.47.35-14.48,8.09-10.49,4.54-21,9.18-31.5,13.58-6.74,2.81-13.46,3.25-18.16-3.6-4.61-6.69-2.23-12.78,2.59-18.42,2.59-3,6.34-5.48,6.35-11.53-12.48,1.12-22.73,7.09-33.39,11.41-12.05,4.89-23.71,10.68-36.49,13.68-6.57,1.54-12.58,2-16.7-4.35-4-6.13-3.17-13.06,2.31-16.91,10.4-7.29-1.73-14.93,1-20.38,5.48-11.06.11-12.59-8.46-14.2-1.88-.35-5-4.51-4.5-5.55,5.46-12-1.51-22.31-3-33.42-1-7.41,8.29-11,14.22-15.14,19.49-13.77,42.46-22,60.55-38,21.33-5.28,38.51-18,55.94-30.41-20.53,3.85-38.74,12.91-56.44,23.13-19.29,7.49-38.39,15.51-57.92,22.29-13.67,4.75-21.52-2.27-18.38-16.25,2.22-9.87-4.21-22.28,8.64-29.51,3.35-1.89.27-5.27-2.54-7.15-9.87-6.6-11.3-14.71-2.92-23.27,5.47-5.59,3.84-9-.82-14.16-7-7.75-3.64-15,4.73-18.74,18.43-8.27,37.35-15.44,55.91-23.44,6.83-3,13.16-1,19.71.23l.77.58,2.32,2.87c.22,1.15.45,2.29.68,3.44l-.33,9.45c-1.68,1.06-3.55,2.86-1.33,4.18,2.67,1.59,4-1.11,4.85-3.37l2.64-2.54,9.14-4.34C266.23,242.07,272.47,240.64,275.26,233.36Z"/><path class="cls-2" d="M522.14,580.46c10-1.15,18.66-.19,20.13,12.43l-.3,3.54c-2.71,6.82-8.53,10.69-14.06,14.82-2.83.81-6.95,1.87-5.6,5.06.71,1.68,6.05,1.41,9.3,2,9.95,9.83,7.92,18.18-3.1,25.47-5.17,3.42-10.12,7.21-15.47,10.3-7.69,4.45-17.19,6.95-3.08,16.66,7.15,4.92,3.94,14-3.2,18.31-26.28,15.73-52.93,30.81-79.49,46.07-1.3.75-3.43,1.64-4.42,1.1-20.62-11.32-36.29,4.88-53.83,9.85-12.43,3.53-23.37,9.56-36.36-.87-7.45-6-16.25,3.38-24.47,5.64-7.25,2-13.44,1.55-18-4.9s-2.09-11.72,2.86-16.59c1.48-1.45,2.77-3.1,4.14-4.66,12.86-4.49,23.9-11.49,31.74-23.1-14.61,8.25-31.44,11.91-44.49,22.92-9.92,4.55-19.78,9.23-29.77,13.62-9.76,4.28-18.33,4.1-23.22-7.36.34-12.16-.36-12.32-16.19-3.81h-.16L204,726.29c-3.88-3.77-7.71-7.55-6.69-13.7,21.94-20,49.74-31.06,73.56-48.17C289.19,651.26,310.08,642,327.14,627c18.9-12.75,37.64-25.76,56.79-38.14,6.89-4.45,11.25-7.89,6.76-17.23-3.24-6.72.48-12.56,7.45-16.63,36.88-21.55,73.48-43.6,110.35-65.16,8-4.66,17.33-11,25.31-1.14,8.45,10.44-.68,18.23-6.57,25.89-2.52,3.26-5.76,6-8.67,8.93-10.63,2.23-16.38,10.23-25.08,20.64l32.09-11c12.77,8.51,13.36,13.25,3.22,26.14l-3.12,2.54-3.2,2.11c-1.56-1-2.13-.37-2.08,1.27l-1,.76c-4.5-.54-7.33,1.35-8.42,5.77l-10.14,6.8c-4-.71-6.14,1.21-6.94,5h0c-13.9,4.35-24,14.46-35.16,23.41,14.28-6.49,30.92-7.28,42.71-19.1l14.5-5.12C518.53,583.42,520.74,583.08,522.14,580.46Z"/><path class="cls-2" d="M165,683.73C168.66,677,176.88,674,179.86,665c-11.06,1-18.86,7.94-28.13,10.72-7.88,2.37-15.41,4.59-20.75-3.94s1.44-13.19,6.32-18.57c3.93-4.34,11.21-6,11.45-13.46-3.93-2.83-7.18.25-10.58.63-5.72.63-10.52-.41-13-6.07-2.56-5.85-1.65-11.55,3.39-15.54,15.46-12.25,31-24.46,46.9-36.1,6.24-4.56,14.52-6.22,19.54,1.08,5.56,8.09,11,6.56,18.7,4.39,11.67-3.3,25.42-9.05,28.42,11.27.61,4.07,4.42,3.28,7.6,3,27.58-2.12,29.86.9,19.18,25.18l-.82,1,.65-1.16c7.53-.81,12.72-6,18.63-9.89l3.36-2.5,9.36-6.2,7-2.51c4.52.52,8.55,2.06,11.61,5.6-.68,8.53-2.43,16.45-10.73,21.19-20.63,11.8-40,25.66-61.2,36.58-17.35,8.93-33.65,19.9-50.41,30l-11.54,4.6c-3.7-1.59-6.23-.09-8.14,3.06-6,.45-10.36-2-12.83-7.56.7-1.66-.06-2.55-1.59-3l-.12-.31q0-3.14.05-6.27l.1-.25A5.33,5.33,0,0,0,165,683.73Z"/><path class="cls-2" d="M511.29,269.78c5.43-3,10.93-5.9,16.28-9,6.09-3.6,11.27-2,15,3.26,4,5.72,4.33,12.32-1.88,16.56-7.68,5.23-12.46,10.16-7,20.05,2,3.67-.76,8.28-3.66,11.32-5.69,6-4.79,9.34,2,14.56,9.54,7.32,7.51,16.32-4.12,21.35-12.88,5.57-26,10.68-39.29,15.11-17.16,5.7-22.74,2.45-28.3-15.8-7.41,4.08-14.79,7.77-21.77,12.08-7.87,4.87-15.63,8.32-24.81,3.56a12.17,12.17,0,0,0-13.26,1c-7.38,5.07-14.88,6.36-20.18-2.21-5.48-8.85.39-14.48,7.38-19.16,2.12-1.43,4.5-2.79,3.28-6.06l-.13.15,4.22.65C435.23,317.15,473.65,294.14,511.29,269.78Z"/><path class="cls-3" d="M196.32,699.65c16.76-10.07,33.06-21,50.41-30,21.23-10.92,40.57-24.78,61.2-36.58,8.3-4.74,10.05-12.66,10.73-21.19,4.57,2.67,3.68,6.77,2.84,10.86-1.11,5.43,3,3.82,5.64,4.18-17.06,15-37.95,24.31-56.28,37.47-23.82,17.11-51.62,28.15-73.56,48.17Q196.81,706.11,196.32,699.65Z"/><path class="cls-3" d="M511.29,269.78C473.65,294.14,435.23,317.15,395,337.1l-4.85-4.76c9-8.55,20.61-13,31.2-19,26.44-14.88,52.41-30.47,77.45-47.63,2-1.35,4.83-1.38,7.28-2C506.83,266.6,507.18,269.8,511.29,269.78Z"/><path class="cls-3" d="M234.34,342.38c17.7-10.22,35.91-19.28,56.44-23.13-17.43,12.39-34.61,25.13-55.94,30.41C234.67,347.23,234.5,344.81,234.34,342.38Z"/><path class="cls-3" d="M501.43,587.79c-11.79,11.82-28.43,12.61-42.71,19.1,11.12-8.95,21.26-19.06,35.16-23.41C495.33,586.8,498.59,586.93,501.43,587.79Z"/><path class="cls-3" d="M284.4,724.53c13.05-11,29.88-14.67,44.49-22.92-7.84,11.61-18.88,18.61-31.74,23.1C293,718.72,288.63,726,284.4,724.53Z"/><path class="cls-3" d="M525.57,533.1l-32.09,11c8.7-10.41,14.45-18.41,25.08-20.64C518,528.77,522.79,530.21,525.57,533.1Z"/><path class="cls-1" d="M337.63,474c1.21-7.68,8-8.41,12.7-7.24,5.5,1.37,2.59,7.81,2.8,12,.37,7.27-4.15,8.35-10.07,7.06C342.09,481.48,356.25,470.24,337.63,474Z"/><path class="cls-3" d="M413,449.26c-3.12,5.41-8.45,6.46-15.7,7.46,2.55-7.69,4.24-14.64,9.63-20.11C413.79,438.49,397.8,451.34,413,449.26Z"/><path class="cls-3" d="M450.63,477.82c-2.07,5.35-7.77,8.15-10.29,3.95-3-5,2.68-9.6,7.53-12.53C447.51,472.52,446.86,475.88,450.63,477.82Z"/><path class="cls-1" d="M403.28,243.37c-4.34,7.44-8.58,4-13.49.34-6.85-5.14,2.88-5.75,2.13-9.08C395.31,238.06,396.76,244,403.28,243.37Z"/><path class="cls-1" d="M459.59,233.08l-26.94,2.09C441.08,227.43,450.09,227,459.59,233.08Z"/><path class="cls-3" d="M215.22,727c15.83-8.51,16.53-8.35,16.19,3.81C226.66,726.76,220.69,727.94,215.22,727Z"/><path class="cls-3" d="M309.7,229.58c-8.5-5.85-17.2-1-25.82-.47l3.77-5.32C295,225.74,304.79,218.35,309.7,229.58Z"/><path class="cls-1" d="M343.07,485.87c3.41,8.43-7.83,12.7-5.9,20.72C331.41,497.49,334.58,490.92,343.07,485.87Z"/><path class="cls-3" d="M306.39,251.91q2.64-9.71,5.27-19.41C320,241.72,312.89,246.73,306.39,251.91Z"/><path class="cls-1" d="M300,492.47c2-7.74,7.83-8.65,14.48-8.09A19.82,19.82,0,0,1,300,492.47Z"/><path class="cls-1" d="M359.2,235.34c-1,11.33-9.79,5.76-15.39,7.11C348,238.14,353.38,236.21,359.2,235.34Z"/><path class="cls-1" d="M318.84,483.17c1.26-8,7.59-5.39,12.4-6C328,481,323.67,482.63,318.84,483.17Z"/><path class="cls-1" d="M462.91,251.73l-2.51,5c-1.07-.77-2.86-1.35-3.1-2.33-1-4,1.72-5.16,5-5.71C462.47,249.73,462.69,250.73,462.91,251.73Z"/><path class="cls-3" d="M531.61,618.33c-3.25-.61-8.59-.34-9.3-2-1.35-3.19,2.77-4.25,5.6-5.06Q529.76,614.79,531.61,618.33Z"/><path class="cls-1" d="M388,229.84l-15.84.14C377.4,225.83,382.67,225.85,388,229.84Z"/><path class="cls-3" d="M511,571.69c1.09-4.42,3.92-6.31,8.42-5.77C518.58,570.72,514.94,571.43,511,571.69Z"/><path class="cls-3" d="M176.64,707.31c1.91-3.15,4.44-4.65,8.14-3.06C183.05,707.91,180.41,709.1,176.64,707.31Z"/><path class="cls-3" d="M204,726.29l11.07.69C211.06,731.6,207.29,732.77,204,726.29Z"/><path class="cls-3" d="M493.92,583.47c.8-3.77,2.93-5.69,6.94-5C500.08,582.29,497.51,583.6,493.92,583.47Z"/><path class="cls-3" d="M406.36,430.64c-3.72,1.18-6.23,1-4.52-4C404.2,427,406,428.05,406.36,430.64Z"/><path class="cls-3" d="M465.44,467.58c-1.18,2.83-2.61,5.3-6.36,4.44C460.14,469,462.44,467.8,465.44,467.58Z"/><path class="cls-1" d="M494,243.22c-2.59,3.05-6.07,2.45-9.44,2.34C487.17,242.48,490.54,242.61,494,243.22Z"/><path class="cls-1" d="M418.78,238.45c-1.78,4.87-5.86,4-9.64,3.84C411.67,239.29,415.13,238.63,418.78,238.45Z"/><path class="cls-3" d="M165,683.73a5.33,5.33,0,0,1-2.79,6.15C162,687.28,162.69,685.14,165,683.73Z"/><path class="cls-3" d="M162.15,690.13q0,3.14-.05,6.27C159.16,694.28,159.19,692.19,162.15,690.13Z"/><path class="cls-3" d="M452.35,463.92q1.81-3,3.61-6.09C456.45,460.86,456.05,463.36,452.35,463.92Z"/><path class="cls-1" d="M478.24,247.91c-1.21,3.74-4.13,3.88-7.32,3.46Z"/><path class="cls-3" d="M307.05,606.31l-7,2.51C301.62,605.78,304.13,605.49,307.05,606.31Z"/><path class="cls-3" d="M522.14,580.46c-1.4,2.62-3.61,3-6.21,2.21C517.54,580.63,519.69,580.13,522.14,580.46Z"/><path class="cls-3" d="M508.61,258.06c-.17-2.05-.35-4.11-.51-6.16C510.28,253.79,510.44,255.84,508.61,258.06Z"/><path class="cls-3" d="M520.39,565.16c0-1.64.52-2.25,2.08-1.27A2.62,2.62,0,0,1,520.39,565.16Z"/><path class="cls-3" d="M454.21,474.76l-3.46,2.85Z"/><path class="cls-1" d="M368.45,231.73c-.15,2.33-.52,4.05-2.71,1A3.55,3.55,0,0,1,368.45,231.73Z"/><path class="cls-3" d="M425.17,442.76l-3.25,2.3Z"/><path class="cls-3" d="M453.68,439.05l-3.62-2.26Z"/><path class="cls-3" d="M435.64,437.45l-4.06,2.33Z"/><path class="cls-1" d="M462.09,236.18l-2.29-3C461.73,233.31,462.26,234.47,462.09,236.18Z"/><path class="cls-3" d="M290.73,615l-3.36,2.5Z"/><path class="cls-3" d="M162.22,696.71c1.53.49,2.29,1.38,1.59,3Z"/><path class="cls-3" d="M525.67,561.78l3.12-2.54Z"/><path class="cls-1" d="M506.7,251.74a15.38,15.38,0,0,1-1.74-1.68c-.1-.11.43-.72.66-1.09Z"/><path class="cls-3" d="M542,596.43l.3-3.54a13.35,13.35,0,0,1,.73,2.57C543,595.74,542.33,596.1,542,596.43Z"/><path class="cls-3" d="M275.26,233.36c-2.79,7.28-9,8.71-15.77,9.29C262.83,236.3,267.61,232.4,275.26,233.36Z"/><path class="cls-4" d="M244.19,248.72l.33-9.45c4.59.57,5.58,3.86,5.83,7.72l-2.65,2.53Z"/><path class="cls-4" d="M243.84,235.83,241.52,233Z"/><path class="cls-3" d="M244.19,248.72l3.51.8c-.87,2.27-2.17,5-4.84,3.38C240.64,251.58,242.51,249.78,244.19,248.72Z"/><path class="cls-4" d="M390.18,332.34,395,337.1l-4.21-.65C390.61,335.08,390.4,333.71,390.18,332.34Z"/><path class="cls-4" d="M268.74,627.41l-.65,1.16.82-1Z"/></svg>