<svg id="Capa_1" data-name="Capa 1" xmlns="http://www.w3.org/2000/svg" viewBox="0 0 667.71 1024"><defs><style>.cls-1{fill:#f8c647;}.cls-2{fill:#fbedbe;}.cls-3{fill:#f8f8eb;}.cls-4{fill:#fac235;}</style></defs><path class="cls-1" d="M553.9,259.49c25.78,26.7,17.32,69.53.29,93.76-13.31,18.94-28.78,35-49.61,45.32-14.72,7.32-30.11,5.88-45.37,2.25A53.8,53.8,0,0,0,436,400c27.39,9.06,54.44,18.48,76.91,37.23,2.95,3.14,5.72,6.48,8.88,9.39,23.18,21.28,36.44,47.35,38,79,1.46,30,1.08,60-5.75,89.5-.81,3-1.63,5.93-2.44,8.9-5.21,7.81-7.23,16.86-9.88,25.66q-1.22,2.82-2.42,5.65c-2.69,1.34-3.59,3.67-3.61,6.48-11.61,14.79-21.6,30.62-36.55,43-32.44,26.82-71,37.7-111,43.17-52.68,7.21-104.83,3.31-154-19.2-53.8-24.64-89.45-65.66-108.9-121.63-21.17-60.91-22.72-122.95-10.31-185.19,14.35-72,52.55-128.33,117.38-165.13,41.95-23.81,86.85-37.92,135-41.57,23.72.12,47.54-1.19,71.12.68C480.85,219.27,521.26,229.49,553.9,259.49Zm-429,235.45c-.54,22.48,1.78,44.59,5.7,66.7C142,625.91,171.74,678.4,231.29,708.32c74.52,37.44,151,34.13,226.82,2.43,23.34-9.76,42.4-26.6,56.11-47.34,24.56-37.15,32.12-79.29,31.19-123.5-1.19-56.9-33.06-91.22-82.08-112.33-38.91-16.76-79.83-19-121.35-11.67-19.71,3.45-34.72-1.77-36-12.67-1.24-10.39,10.84-18.9,30.42-21.2,43.65-5.12,87.32-5.42,130.51,3.24,12.8,2.57,23.71,1.62,34.87-4.44a93.57,93.57,0,0,0,26-20.88c14.6-16.75,26.37-35.61,25.33-58.62-1.34-29.41-22-44.29-46.74-53.59-49.74-18.7-101.29-21.79-153.52-14.26-60.5,8.72-115.71,30-159.56,74C141.82,359.19,124.64,424.09,124.86,494.94Z"/><path class="cls-1" d="M74.26,502.32c0-12.62-.16-25.25.07-37.87.11-6,1.08-12.33,9.18-12.17,8.95.18,9.48,6.34,8.65,13.35-5.26,44.47-1.09,88,11.39,131.07C117.25,643.92,142.37,683,182.34,712c27.78,20.18,59,32.82,92.16,40.86a40.42,40.42,0,0,1,8.13,3.1c3.59,1.76,7.24,4.14,6.31,8.71-.89,4.4-5.27,5.23-9,6.35-6.24,1.87-11.09-2.49-16.64-3.65C219,758.17,180.4,738,147.91,706.72,125.34,685,109.33,658.52,96.58,630,78.4,589.34,73.08,546.32,74.26,502.32Z"/><path class="cls-1" d="M355.55,205.84c-8.61,1.11-17.2,2.6-25.84,3.21-5.54.38-12.87,1.53-13.58-6.83-.69-8,5.82-10.74,12.32-11.6,16.29-2.16,32.61-4.47,49-5.49,52.06-3.26,103.6-1,152.69,19.11,12,4.93,23.12,11.95,34.65,18a6.8,6.8,0,0,0,6.28,5.4c4.1,3.93,4.17,8.87,3.47,14l-2.91,2.9c-7.18,1.9-11.74-3.79-17.48-6-3-6.17-9.24-8.51-14.66-11.19C480.79,198.18,418.87,195.88,355.55,205.84Z"/><path class="cls-1" d="M581.06,591.71q-1.74,5.88-3.46,11.78c-.35,1.74-.69,3.48-1,5.22,0,0,.09-.16.1-.15-4.7,2-9.62,7.1-14.55,2.51-4.5-4.18-1.52-10,0-15,6.93-22.44,11.1-45.34,8.89-68.82-3.68-39.21-19-72.46-51.88-96.07-2.2-1.9-4.5-3.71-6.59-5.72-4-3.81-5.65-8-1.23-12.63,4.18-4.35,8.1-3.3,12.81,0,29.84,20.76,49.48,48.38,58.38,83.79,7.64,30.37,4.51,60.61.15,90.94Z"/><path class="cls-1" d="M104.52,411.44c.25,9.15-4.77,12.13-12.7,12.39-9.91.33-10.49-7.27-11-13.71C80.13,401.69,86,397.69,93.55,398,101.61,398.31,105.12,403.85,104.52,411.44Z"/><path class="cls-1" d="M540.35,396.09c.33-9.44,4.07-13.08,11.84-13.16,8.68-.09,12.42,4.66,12.34,12.45-.08,7.36-5,11.29-12,11.53C544.27,407.2,540.54,402.26,540.35,396.09Z"/><path class="cls-2" d="M571.63,244.54l2.91-2.9Z"/><path class="cls-3" d="M581.06,591.71l1.62-4.21C582.14,588.89,581.6,590.3,581.06,591.71Z"/><path class="cls-3" d="M124.86,494.94c-.22-70.85,17-135.75,68.43-187.41,43.85-44,99.06-65.32,159.56-74,52.23-7.53,103.78-4.44,153.52,14.26,24.74,9.3,45.4,24.18,46.74,53.59,1,23-10.73,41.87-25.33,58.62a93.57,93.57,0,0,1-26,20.88c-11.16,6.06-22.07,7-34.87,4.44C423.7,376.62,380,376.92,336.38,382c-19.58,2.3-31.66,10.81-30.42,21.2,1.3,10.9,16.31,16.12,36,12.67,41.52-7.29,82.44-5.09,121.35,11.67,49,21.11,80.89,55.43,82.08,112.33.93,44.21-6.63,86.35-31.19,123.5-13.71,20.74-32.77,37.58-56.11,47.34-75.81,31.7-152.3,35-226.82-2.43C171.74,678.4,142,625.91,130.56,561.64,126.64,539.53,124.32,517.42,124.86,494.94Zm373.31-210h.06l3.07-2.9,7.56-10.78c4.67-1.94,5-4.15.41-6.67l-4.62-6.86-2.42-1.76-.47-.3c-3-3.15-6-3.09-9,0-10.62,3.16-21.16,12.9-31.57-1.5-2.52-3.48-9.15-1.1-13.67.65-6.23,2.41-12.35,5.13-18.52,7.71-4-3.57,1.48-6.8.37-10.27l-.83-7.65c.18-2.66-.31-4.91-3.48-5.45-7-1.54-13.09.3-19.45,3.56-15.67,8-30.27,18.28-50.46,25.49,5.33-9.21,5.27-16.25-.59-20.79-6.73-5.22-13.88-1.54-20.38,1.95-14.9,8-29.91,15.78-44.49,24.33-5.69,3.34-10.13,4.91-15.55-.05-6.1-5.59-12-4-18.19.75-17.71,13.42-36.14,25.91-53.4,39.87-7.41,6-19.76,11.79-10.5,25.55,2.79,4.13-1.07,6.29-3.53,8.17-5,3.82-10.41,7-15.49,10.72-7.41,5.4-14.53,12-8.83,21.69,5.51,9.36,14.69,5.16,22.15,2,14.7-6.14,29.09-13,43.61-19.59.23,1.63.46,3.25.68,4.88a3.87,3.87,0,0,1-1.81,1.83c-2.86.25-5.78.35-7.42,3.32C202.79,383,184,392.91,165.58,403.53c-8.57,5-19.81,10.05-7.72,22.63,3,3.17,1.87,5.93-1.49,8.39a134.87,134.87,0,0,0-11.23,9.14c-5.25,4.8-7,10.84-2.86,16.88,4.45,6.55,11,6.83,17.87,3.61,4.32-2,8.57-4.23,12.85-6.35a3.47,3.47,0,0,0,1.79-1.13l5.47-2.34c2.85.33,5.49,1,6.93,3.87l-8.81,5.68-3.68,1.41c-12.2,5.87-23.73,12.77-34.08,21.6-5.2,4.43-6,10-4.06,15.83,2.25,6.74,8.43,5,13.63,5.28,3.54.2,7.17-4.19,10.83.27-2.7,6.19-9.7,7.64-13.59,12.39-4.7,5.72-13.11,9.49-9.9,19.35,3,9.09,11.53,7.2,18.48,9.28-2.84,7.1-10.78,11.83-7.41,21,4,10.85,14.14,5,21.34,8.2-1.13,1.74-1.81,2.93-2.62,4-4.37,5.83-13.9,10.21-7.76,19.46,6.3,9.49,15.61,4.85,23.86,2.91,5.22-1.24,9.9-5.7,17.69-2.24-7.32,6.1-13.6,11.16-19.68,16.47-5,4.36-6.37,10-3.06,15.73s8.28,7.61,15,5.42c4.61-1.52,8.92-5.4,15.63-3.17-2.32,2.54-3.72,4.53-5.55,6-6.36,5.12-12.73,11.05-7.44,19.49,5.08,8.11,13.27,5.73,20.92,2.66,10.48-4.21,21.11-8,32.78-12.43-1.5,9.28-8.68,12-12.44,17.37-4.73,6.75-11.84,13.48-5.41,22,6.64,8.77,15.45,3.61,22.47,0,14.62-7.63,28.69-16.31,43-24.56l-.15-.18c-3.27,10.87-14.81,13.32-21.26,20.91-4.12,4.84-8.43,10.25-3.31,16.78,4.37,5.58,9.68,6.32,16.78,3.73,10.08-3.67,18.37-11.65,30.84-13.61-4.25,8.3-13.31,14.16-4.8,23,7.61,7.92,15.16,3.24,22.61-.17,10-4.58,19.88-9.36,29.94-14.11,4.71,20.88,9.08,22,29.35,13.72,14.92-6.06,27.24-23.91,47.17-12.27,2.74,1.61,6.2-2,8.84-4.1,15.11-12.11,30.35-24.06,45.22-36.45,6.76-5.63,9.43-12.88,2.14-20-6.2-6-2.11-8.79,2.55-12,3.17-2.22,6.32-4.49,9.26-7,16.28-14,15.84-18.47-2.54-29-.58-.33-.58-1.67-.93-2.82,4.83-3.74,10.3-7,14.48-11.51,3.51-3.77,6.67-8.82,3-14.49-3.54-5.5-8.56-7.71-15-5.67-3.23,1-6.39,2.24-9.58,3.37-2.36-.32-4.75-.55-6-3,9.23-7,18.22-14.35,27.77-20.87,7.57-5.16,13.06-11.71,9.48-20.5-3.8-9.31-12.82-5.52-20.54-4.05,4.09-8.82,15.12-15.68,8.07-26.3-7.64-11.51-18.45-.87-28-1.37,9.16-21,7.09-24.58-14.3-24.13-5.89.12-5.88-2.46-5.85-7,.08-15-6.45-19.8-20.5-14-11.06,4.57-21.37,11-32,16.54-2.86-1.24-3-3.65-2.67-6.25,6.11-6,11.85-12.9,6.13-21.42s-14.5-5.52-22.39-2.64c-3.6,1.32-7,3.28-10.51,4.79-14.61,6.22-27.73,15.79-43.54,19.29-.4-1.05-.81-2.1-1.21-3.14,6.67-6.85,19.36-12.3,9.64-24.4-8.05-10-18.07-2.57-26.37,1.23-13.63,6.22-26.67,13.74-40,20.71l-4.78-4.55,4.23-7.11c3-2,3.39-4.54,1.7-7.57l2.91-10.29c.23-.29.66-.6.65-.87a12.39,12.39,0,0,0-.47-2.05c-.67-1.78-1.35-3.57-2-5.37-2-10.06-12.88-3.22-17.1-9l7.7-3.82c5.84.3,10.74-1,12.83-7.32,18.38-10.76,36.62-21.74,55.24-32.06,3.3-1.84,8.84-6.86,12.08.74,5.84,13.67,14.39,9.47,23.54,4.16,4.17-2.42,8.51-8.61,13.69-2.13,7.1,8.89,14.72,5,22.13,1.44s14.32-8.11,21.62-11.91c4.59-2.39,8.08-3.61,7.16,4.66-1.62,14.59,4.62,19.93,18.43,15.63,17.16-5.34,33.12-13.69,48.68-22.62,6-3.45,8.33-11.12,3.56-14.75-14.09-10.72-1.69-15.65,3.6-22.09,3.05-3.72,7.08-6.6,10.32-10.17,3.62-4,3.75-9.08,2-13.69-2-5.27-6.93-6.1-12.09-6-4.9.12-9.62.74-13.94,3.23-2.67-.39-5,0-6.16,2.83l-3.13,2.69a8,8,0,0,1-6.56-3.41l.34-.07Z"/><path class="cls-4" d="M291.24,411.39q1,2.69,2,5.36c-.07,1-.12,1.95-.18,2.92q-1.45,5.15-2.9,10.3c-2.77,2-4.54,4.26-1.71,7.56l-4.23,7.11c-6.49,3-12.09,6.83-16.1,15.43,9.7-1.44,16.34-4.07,20.88-10.88,13.29-7,26.33-14.49,40-20.71,8.3-3.8,18.32-11.27,26.37-1.23,9.72,12.1-3,17.55-9.64,24.4-9.84,3.68-18.76,8.45-23.34,18.56,10-2.55,21.2-3.07,24.55-15.42,15.81-3.5,28.93-13.07,43.54-19.29C394,434,397.38,432,401,430.71c7.89-2.88,16.65-5.9,22.39,2.64s0,15.41-6.13,21.42c-6.14.23-10,3.51-11.39,9.3-.68,2.82,1.35,4.6,4.06,4.88,5.77.58,9.3-2,10-7.93,10.65-5.58,21-12,32-16.54,14.05-5.81,20.58-1,20.5,14,0,4.56,0,7.14,5.85,7,21.39-.45,23.46,3.1,14.3,24.13,9.59.5,20.4-10.14,28,1.37,7,10.62-4,17.48-8.07,26.3,7.72-1.47,16.74-5.26,20.54,4.05,3.58,8.79-1.91,15.34-9.48,20.5-9.55,6.52-18.54,13.88-27.77,20.87-9.11,2.59-14,10.82-21.06,16.36,9.77-3,19.86-5.21,27.1-13.35,3.19-1.13,6.35-2.35,9.58-3.37,6.46-2,11.48.17,15,5.67,3.65,5.67.49,10.72-3,14.49C519.28,587,513.81,590.28,509,594c.35,1.15.35,2.49.93,2.82,18.38,10.56,18.82,15.08,2.54,29-2.94,2.52-6.09,4.79-9.26,7-4.66,3.25-8.75,6-2.55,12,7.29,7.09,4.62,14.34-2.14,20-14.87,12.39-30.11,24.34-45.22,36.45-2.64,2.11-6.1,5.71-8.84,4.1-19.93-11.64-32.25,6.21-47.17,12.27C377,726,372.63,724.87,367.92,704,357.86,708.74,348,713.52,338,718.1c-7.45,3.41-15,8.09-22.61.17-8.51-8.85.55-14.71,4.8-23-12.47,2-20.76,9.94-30.84,13.61-7.1,2.59-12.41,1.85-16.78-3.73-5.12-6.53-.81-11.94,3.31-16.78,6.45-7.59,18-10,21.26-20.91l3.29-.9c-.33-.14-.77-.5-1-.39a23.64,23.64,0,0,0-2.17,1.47c-14.29,8.25-28.36,16.93-43,24.56-7,3.66-15.83,8.82-22.47,0-6.43-8.51.68-15.24,5.41-22,3.76-5.34,10.94-8.09,12.44-17.37-11.67,4.4-22.3,8.22-32.78,12.43-7.65,3.07-15.84,5.45-20.92-2.66-5.29-8.44,1.08-14.37,7.44-19.49,1.83-1.47,3.23-3.46,5.55-6-6.71-2.23-11,1.65-15.63,3.17-6.68,2.19-11.72.21-15-5.42s-1.93-11.37,3.06-15.73c6.08-5.31,12.36-10.37,19.68-16.47-7.79-3.46-12.47,1-17.69,2.24-8.25,1.94-17.56,6.58-23.86-2.91-6.14-9.25,3.39-13.63,7.76-19.46.81-1.09,1.49-2.28,2.62-4-7.2-3.24-17.38,2.65-21.34-8.2-3.37-9.21,4.57-13.94,7.41-21-6.95-2.08-15.52-.19-18.48-9.28-3.21-9.86,5.2-13.63,9.9-19.35,3.89-4.75,10.89-6.2,13.59-12.39-3.66-4.46-7.29-.07-10.83-.27-5.2-.3-11.38,1.46-13.63-5.28-1.95-5.83-1.14-11.4,4.06-15.83,10.35-8.83,21.88-15.73,34.08-21.6l3.68-1.41,8.8-5.68c24.23-9.51,45.75-24,68.22-36.8C266.51,415.11,276.91,406.21,291.24,411.39Zm5.15,189c-4.26,1.61-6.49,4.24-.54,5.81,5,1.3,10.5.46,15.78.56,7.54,6.36,0,14.45,1.93,22.62,11-5.89,21.19-11.22,31.25-16.73,7.23-4,13.86-5,18.84,3.21,2.94,4.85,6.19,5.25,10.76,2.06,11.09-7.75,22.49-15,33.5-22.91,4.24-3,9.44-6.8,4.69-13-7.07-9.27-2.31-14.93,5.18-20.4,5.36-3.91,10.37-8.31,15.8-12.7-8.64-5.36-8.93-5.41-14.76-17-1.57-3.12-3.42-3.66-6.57-4.2-17.74-3-19.9-9.17-8.83-23.87,1.57-2.09,5.09-3.48,2.9-7.09a5.11,5.11,0,0,0-6.75.56c-16.82,17-35.29-1.89-52.71,2.36-1.35.32-3.78-2.7-5.32-4.49-2-2.33-4.12-4.57-7.36-3.19-17.38,7.38-36.95,14.06-48.26,28-7,8.61-13.3,18.42-23.58,26.24,8.7,2.71,18.39-.81,21.86,8.45,3.36,9-6.57,13.67-8.84,21.33C299.1,573.58,304,579.53,296.39,600.37Z"/><path class="cls-4" d="M429,262.45c6.17-2.59,12.29-5.31,18.52-7.72,4.52-1.75,11.15-4.13,13.67-.65,10.41,14.4,20.95,4.66,31.57,1.5l9,0,.47.31,2.42,1.75,4.61,6.86q-.21,3.34-.4,6.67L501.3,282l-3.07,2.9h-.06l-3,2.81-.33.07c-7.9,3.86-15.22,8.44-22.4,17,12.71-2,21-7.47,28.95-13.58l3.13-2.69,6.16-2.83c4.32-2.49,9-3.11,13.94-3.23,5.16-.13,10.11.7,12.09,6,1.74,4.61,1.61,9.7-2,13.69-3.24,3.57-7.27,6.45-10.32,10.17-5.29,6.44-17.69,11.37-3.6,22.09,4.77,3.63,2.44,11.3-3.56,14.75-15.56,8.93-31.52,17.28-48.68,22.62-13.81,4.3-20.05-1-18.43-15.63.92-8.27-2.57-7.05-7.16-4.66-7.3,3.8-14.23,8.33-21.62,11.91s-15,7.45-22.13-1.44c-5.18-6.48-9.52-.29-13.69,2.13-9.15,5.31-17.7,9.51-23.54-4.16-3.24-7.6-8.78-2.58-12.08-.74-18.62,10.32-36.86,21.3-55.24,32.06-5.79-.22-9.89,2.54-12.83,7.32l-7.7,3.82c-10.23,1.93-18.18,8.5-26.76,13.61-22.15,13.21-46,23.45-67.13,38.41l-5.47,2.33c-1.43-.93-1.86-.28-1.79,1.14-4.28,2.12-8.53,4.31-12.85,6.35-6.83,3.22-13.42,2.94-17.87-3.61-4.11-6-2.39-12.08,2.86-16.88a134.87,134.87,0,0,1,11.23-9.14c3.36-2.46,4.53-5.22,1.49-8.39-12.09-12.58-.85-17.68,7.72-22.63,18.4-10.62,37.21-20.54,55.86-30.74,3,0,6,.21,7.42-3.32a3.87,3.87,0,0,0,1.81-1.83c20.28-7.56,38.51-19.14,57.2-29.72,13.09-7.42,28.72-10.82,38.71-23.39l-.11.1C362.76,301.37,395.67,281.47,429,262.45Z"/><path class="cls-4" d="M428.57,244.52q.42,3.82.82,7.64c-16.14,15.59-37.64,22.25-56.25,33.73-15.54,9.59-34.49,13.69-46.67,28.74l.11-.1c-15.75.43-27.74,10.06-40.34,17.45-18.46,10.84-40,16.07-56.25,30.78-14.52,6.57-28.91,13.45-43.61,19.59-7.46,3.12-16.64,7.32-22.15-2-5.7-9.67,1.42-16.29,8.83-21.69,5.08-3.69,10.52-6.9,15.49-10.72,2.46-1.88,6.32-4,3.53-8.17-9.26-13.76,3.09-19.55,10.5-25.55,17.26-14,35.69-26.45,53.4-39.87,6.22-4.72,12.09-6.34,18.19-.75,5.42,5,9.86,3.39,15.55.05,14.58-8.55,29.59-16.34,44.49-24.33,6.5-3.49,13.65-7.17,20.38-1.95,5.86,4.54,5.92,11.58.59,20.79,20.19-7.21,34.79-17.49,50.46-25.49,6.36-3.26,12.46-5.1,19.46-3.56C426.26,240.89,427.41,242.71,428.57,244.52Z"/><path class="cls-2" d="M180.26,454.36c21.14-15,45-25.2,67.13-38.41,8.58-5.11,16.53-11.68,26.76-13.61,4.22,5.82,15.13-1,17.1,9.05-14.34-5.18-24.74,3.72-35.85,10-22.47,12.78-44,27.29-68.22,36.8C185.75,455.39,183.11,454.69,180.26,454.36Z"/><path class="cls-2" d="M326.47,314.63c12.18-15.05,31.13-19.15,46.67-28.74,18.61-11.48,40.11-18.14,56.25-33.73,1.12,3.48-4.39,6.71-.36,10.29C395.67,281.47,362.76,301.37,326.47,314.63Z"/><path class="cls-2" d="M230,362.76c16.29-14.71,37.79-19.94,56.25-30.78,12.6-7.39,24.59-17,40.34-17.45-10,12.57-25.62,16-38.71,23.39-18.69,10.58-36.92,22.16-57.2,29.72C230.45,366,230.22,364.39,230,362.76Z"/><path class="cls-1" d="M346.93,454.79c-3.35,12.35-14.53,12.87-24.55,15.42,4.58-10.11,13.5-14.88,23.34-18.56C346.12,452.69,346.53,453.74,346.93,454.79Z"/><path class="cls-2" d="M501.88,565.72c-7.24,8.14-17.33,10.31-27.1,13.35,7.1-5.54,12-13.77,21.06-16.36C497.13,565.17,499.52,565.4,501.88,565.72Z"/><path class="cls-2" d="M501.42,291.19c-8,6.11-16.24,11.6-28.95,13.58,7.18-8.55,14.5-13.13,22.4-17A8,8,0,0,0,501.42,291.19Z"/><path class="cls-2" d="M289,449.19c-4.54,6.81-11.18,9.44-20.88,10.88,4-8.6,9.61-12.47,16.1-15.43Z"/><path class="cls-1" d="M419.91,461c-.7,6-4.23,8.51-10,7.93-2.71-.28-4.74-2.06-4.06-4.88,1.41-5.79,5.25-9.07,11.39-9.3C416.94,457.37,417.05,459.78,419.91,461Z"/><path class="cls-2" d="M281.85,398.52c2.94-4.78,7-7.54,12.83-7.32C292.59,397.47,287.69,398.82,281.85,398.52Z"/><path class="cls-2" d="M288.48,437.53c-2.83-3.3-1.06-5.54,1.71-7.56C291.87,433,291.53,435.57,288.48,437.53Z"/><path class="cls-2" d="M508.86,271.21q.19-3.33.4-6.67C513.9,267.06,513.53,269.27,508.86,271.21Z"/><path class="cls-2" d="M228.86,369.47c-1.38,3.53-4.45,3.33-7.42,3.32C223.08,369.82,226,369.72,228.86,369.47Z"/><path class="cls-2" d="M501.76,255.62l-9,0C495.8,252.53,498.79,252.47,501.76,255.62Z"/><path class="cls-2" d="M428.57,244.52c-1.16-1.81-2.31-3.63-3.47-5.45C428.26,239.61,428.75,241.86,428.57,244.52Z"/><path class="cls-2" d="M510.71,285.67l-6.16,2.83C505.71,285.63,508,285.28,510.71,285.67Z"/><path class="cls-2" d="M498.23,284.89l3.07-2.9Z"/><path class="cls-2" d="M178.38,463.91l-3.68,1.41Z"/><path class="cls-2" d="M173,457.83c-.07-1.42.36-2.07,1.79-1.14A3.42,3.42,0,0,1,173,457.83Z"/><path class="cls-2" d="M293.09,419.67c.06-1,.11-1.95.18-2.92a12.39,12.39,0,0,1,.47,2.05C293.75,419.07,293.32,419.38,293.09,419.67Z"/><path class="cls-2" d="M504.65,257.68l-2.42-1.75Z"/><path class="cls-2" d="M495.2,287.71l3-2.81Z"/><path class="cls-3" d="M296.39,600.37c7.64-20.84,2.71-26.79-21-24.37,2.27-7.66,12.2-12.38,8.84-21.33-3.47-9.26-13.16-5.74-21.86-8.45C272.62,538.4,279,528.59,285.92,520c11.31-14,30.88-20.66,48.26-28,3.24-1.38,5.34.86,7.36,3.19,1.54,1.79,4,4.81,5.32,4.49,17.42-4.25,35.89,14.6,52.71-2.36a5.11,5.11,0,0,1,6.75-.56c2.19,3.61-1.33,5-2.9,7.09-11.07,14.7-8.91,20.83,8.83,23.87,3.15.54,5,1.08,6.57,4.2,5.83,11.59,6.12,11.64,14.76,17-5.43,4.39-10.44,8.79-15.8,12.7-7.49,5.47-12.25,11.13-5.18,20.4,4.75,6.23-.45,10-4.69,13-11,7.86-22.41,15.16-33.5,22.91-4.57,3.19-7.82,2.79-10.76-2.06-5-8.19-11.61-7.18-18.84-3.21-10.06,5.51-20.23,10.84-31.25,16.73-1.95-8.17,5.61-16.26-1.92-22.62C309,598.89,302.1,601,296.39,600.37Zm35.32-88c-30.58.56-34.91,5.12-30.59,32.13,7.55,47.12,40.46,67,79.6,48.19,22.38-10.78,27.69-33.37,12.23-52.9C377.34,520.05,356.43,511.88,331.71,512.35Z"/><path class="cls-2" d="M296.39,600.37c5.71.61,12.56-1.48,15.25,6.37-5.29-.1-10.82.74-15.79-.56C289.9,604.61,292.13,602,296.39,600.37Z"/><path class="cls-3" d="M297.27,667.63a23.64,23.64,0,0,1,2.17-1.47c.2-.11.64.25,1,.39l-3.29.9Z"/><path class="cls-1" d="M331.72,512.34c24.71-.46,45.62,7.71,61.23,27.43,15.46,19.53,10.15,42.12-12.23,52.9-39.14,18.86-72.05-1.07-79.6-48.19C296.8,517.47,301.13,512.91,331.72,512.34Zm-1.37,15.81c-4,.47-12.53-1.19-12.64,8.77-.18,16.16,5.4,30.52,18.26,40.81,12.23,9.8,25.43,6.8,38.23.62,12.08-5.83,14.5-16.37,6.46-27.3C368.81,535,351.94,529.17,330.35,528.15Z"/></svg>