<svg id="Capa_1" data-name="Capa 1" xmlns="http://www.w3.org/2000/svg" viewBox="0 0 667.71 1024"><defs><style>.cls-1{fill:#b4c549;}.cls-2{fill:#f8f8eb;}.cls-3{fill:#aebf38;}.cls-4{fill:#fbedbe;}</style></defs><path class="cls-1" d="M576.37,338.84c.52,4.23.53,8.59,1.63,12.65,6,22.13,1.71,41.35-12.13,60.12-34.14,46.32-64.76,94.9-88.37,147.62-19.88,44.41-32.49,91.34-48.24,137.18-12.79,37.27-27.13,75.42-70,87.09-39.78,10.83-80.47,8.6-119.51-6.19-27.61-10.46-41.16-32.7-46.6-60.48-3.62-18.53-2.53-37.16.56-55.74,11.84-71.23,40.8-136.54,69.6-201.91,8.11-18.4,7.64-19.11-12-21-28.17-2.75-55.94-6.74-82.47-17.94-60-25.34-75-65.86-72.2-123.56a142.43,142.43,0,0,1,6.8-36.08c11.44-35.66,40.55-47,73.79-47.48,42.12-.58,84.29,2.42,126.44,3.45,53.37,1.31,106.75,2,160.11,3.35,28.19.72,54.16,7,70.48,33.25,7.22,13.34,14,27,21.78,39.94C564.73,307.55,566.19,325.12,576.37,338.84ZM210.79,231.08c-14.48,0-27.34-.72-40.09.14-30.81,2.07-52.16,23.7-54.43,54.47-.63,8.51-.28,17.09-.83,25.61-3.35,51.69,28.12,79.39,63.11,93.13,32.93,12.93,67,16.92,102.08,16.16,15-.33,18.14,5.13,12.12,18.64-7.6,17.06-15.43,34-22.83,51.18-25.58,59.26-51,118.66-59.59,183.38-5.47,41.07,3.8,78.68,48.95,91.48,10.68,3,22,3.68,33.06,5.54,57.64,9.75,93.76-10.61,113.54-65.49,14.11-39.13,26.13-79,40.3-118.13,25.33-69.87,65.31-131.69,107.85-192,6.81-9.65,9.85-19.19,7.72-31.27-7.11-40.36-25-75.71-48.47-108.65-6.55-9.2-16.13-13.74-27.33-14.67-15.41-1.28-30.82-3.28-46.25-3.48C362.81,236.17,285.93,235.19,210.79,231.08Z"/><path class="cls-1" d="M431,737.87c9.81-39.18,23.77-73.74,38.73-107.94,25.22-57.67,55.16-112.83,88-166.44,1.67-2.71,2.94-5.92,5.22-7.95,4-3.6,9-6.75,14.36-2.75,4.64,3.49,3.78,8.9,1.42,13.15-8.26,14.89-16.74,29.67-25.58,44.21A1021.77,1021.77,0,0,0,461,706.22c-4,11.54-8,23.13-12.62,34.43-1.81,4.42-5.46,8.29-11.39,6.09C431.39,744.66,430.57,740.16,431,737.87Z"/><path class="cls-1" d="M56.29,315.41C55,304.88,57.9,291.23,60,277.53c1.1-7.32,3.44-14.47,12.59-13.19,9.45,1.33,8.62,8.06,7.3,15.83-4.48,26.41-5.14,52.55.73,79.34,11.58,52.78,61.91,81.85,102.58,88,5.78.88,11.56,1.82,17.28,3s10.51,3.64,9.62,10.51c-.94,7.18-6.75,7.55-12.23,7.17-33.16-2.3-64.12-11.5-90.55-32.19C69.36,406.33,56.09,365.45,56.29,315.41Z"/><path class="cls-1" d="M542.44,243.7c-17.28-22-38.58-36.36-67.76-36.34-6.33,0-14.18-.14-13.45-9.51.7-9,7.65-10.26,15.36-9.71,37,2.62,66.45,18.76,86.59,49.88,15.11,23.33,26.11,48.81,34,75.53,1.59,5.38,2.55,10.52-2.12,14.82-5.09,4.69-9.67,3.06-13.87-1.45C572.7,297.13,563.83,267.49,542.44,243.7Z"/><path class="cls-1" d="M91.49,213.4c6.46.69,13.85,3.16,13.44,12.74-.32,7.31-4.33,13-13,13.28-9.17.33-14.53-4.35-14.71-13C77.05,218.78,80.94,213.09,91.49,213.4Z"/><path class="cls-1" d="M602.27,423.82c-.24,7.94-6.34,11.29-13.67,10.88s-13.17-5-12.78-13.38c.37-7.79,4.71-13.08,13.1-12.8C597.77,408.81,602.34,413.84,602.27,423.82Z"/><path class="cls-2" d="M210.79,231.08c75.14,4.11,152,5.09,228.91,6.08,15.43.2,30.84,2.2,46.25,3.48,11.2.93,20.78,5.47,27.33,14.67C536.7,288.25,554.64,323.6,561.75,364c2.13,12.08-.91,21.62-7.72,31.27-42.54,60.27-82.52,122.09-107.85,192-14.17,39.11-26.19,79-40.3,118.13C386.1,760.2,350,780.56,292.34,770.81c-11-1.86-22.38-2.51-33.06-5.54-45.15-12.8-54.42-50.41-48.95-91.48,8.63-64.72,34-124.12,59.59-183.38,7.4-17.15,15.23-34.12,22.83-51.18,6-13.51,2.87-19-12.12-18.64-35.06.76-69.15-3.23-102.08-16.16-35-13.74-66.46-41.44-63.11-93.13.55-8.52.2-17.1.83-25.61,2.27-30.77,23.62-52.4,54.43-54.47C183.45,230.36,196.31,231.08,210.79,231.08ZM356.72,407.36l-.06.07L353.44,410c-13.25,10.69-26.84,21-39.62,32.23-7.86,6.9-15.91,17.07-4.28,25.33s6.54,11.36-1,16.48c-6.17,4.2-12.38,8.37-18.3,12.9-18.33,14.06-17.37,22.55,3.8,32.36-8.16,7.63-17,14.52-24.09,22.86-7.82,9.16-4,20.87,6.44,22,4.4.49,9-.78,17.55-1.68-20.46,15.13-38.06,27.68-55.09,41-6,4.68-14.37,10.44-8.59,19.68,4.95,7.93,13.15,10.41,22.47,6,1.73-.82,4.23-3.92,6.56.62-6.29,4.89-12.67,9.58-18.73,14.66-5.18,4.33-10.93,7.66-13.09,15.39-4.06,14.54,17,14.69,14.45,21-3.95,10-13.19,17.33-1,27.27,4.38,4.71,8.79,4.77,13.24.08,4.16-1.9,7.6-5.59,12.7-5.22l-.57,6.18c-6.45,6.79-16.72,12.94-10.43,24,6.85,12.07,17.63,5.26,27.19,3,10-2.38,18.39-10.21,30-9.66-2.58,7.79-8.44,14.86-.5,21.25,6.75,5.43,14.07,3.47,21-.32,9.35-5.1,18.42-10.75,28-15.26,12.23-5.73,24.23-10.85,16.21-28.13-1.17-2.53.59-5.13,2.58-7.11,5.38-5.35,10.74-10.6,7.76-19.41-3.06-9.06-12.47-7.26-20.2-10.22,13.33-10.26,25.1-19.35,36.91-28.4,5.6-4.3,8.22-9.77,6.51-16.79-1.87-7.68-8-9.13-14.71-9.68-2.15-.17-5.29,2.57-6.36-2.94,8.75-6.28,17.95-12.52,26.74-19.28,11.7-9,12-18.71-.27-26.39-7.92-5-5.66-6.41.22-10.6,11.69-8.34,22.9-17.38,34-26.54,5.33-4.41,7.46-10.25,4-17.14-3.88-7.79-10.66-7.73-17.84-6.87-7.36.88-12.6,7.84-22.6,7.47,5.61-4.9,9.67-9,14.25-12.35,18.43-13.57,37.27-26.6,55.43-40.52,6.12-4.69,13.5-9.61,14-18.58.41-7.54-6.9-10.65-12-15.37,14.9-10.62,29-20.14,42.5-30.51,8.24-6.35,18.91-12.89,13.5-25.93-5.51-13.26-16.75-3.77-25.36-4.88l.19.2c-.2-6.6,6.57-7.61,9.54-11.74,4.07-5.68,9.34-11,3.89-18.21-4.6-6.1-11-7.91-18.34-5.14-3.94,1.48-7.8,3.18-11.69,4.78-1.52-.72-2.15-.16-2.07,1.43l-4,1.83c-4-2.66-1-5.67-.44-8.56l19.45-14.92c3.78-1.46,9.26-1,8.65-7.49,4.6-7.67,7.8-15.09-3.7-19.76-2.1-2.8-4.83-2.9-7.84-1.86l-25.28,7.78c5.25-6.89,11.81-11.82,18-17.16,5.51-4.72,10.15-10.44,5.35-17.93-4.24-6.62-10.88-8.11-18.3-5.46-4,1.43-8.16,2.63-11.94,4.53C470.22,268.38,463,273.1,461,258c-1-7.47-8.51-9.21-15.34-7.41a127.94,127.94,0,0,0-19.45,7.11c-19.16,8.58-38.17,17.46-58.31,26.71,1.24-6.91,6.07-7.89,9.11-10.63,6.11-5.51,12.44-11.09,7.35-20.36-5-9-12.74-8.22-20.81-4.86-5.89,2.46-11.76,5-17.55,7.63Q319.18,268.54,292.42,281c-.19-4.31,1.07-5.91,2.41-7.45,5.21-6,15.5-10.08,8.69-20.87-7.18-11.36-16.52-6.68-25.32-2.59-19.79,9.19-39.43,18.7-59.19,28-3.41,1.61-6.74,5.83-11.49,1.07,1.59-2.12,3.25-4.07,4.63-6.22,4.16-6.51,10.87-12.28,4.3-21.31-6.71-9.24-13.95-6.05-22.53-3.14-12.58,4.29-24.09,11.15-37.34,13.94-10.52,2.21-13,13.76-6.82,18.22,15.41,11.09,5.6,17.33-1.56,25.48-5.41,6.16-10.26,13.18-4.73,21.51s13.51,6.6,21.56,4.23c3.15-.93,6.13-4.61,10.09-1.35-1.84,8.35-11.84,8.87-15,15.83-10,8.83-8.48,15.14,4.18,19a45.38,45.38,0,0,0,21.8-2.17q.89,5.19,1.78,10.39c-2.72,8.25-2.86,15.87,5.23,21.49.65,1.57,1.59,2,2.93.73l10.09-.69c4,3.92,5.3,1,6.33-2.56l15.34-6.83c1.6,5.11-1.85,11.81,4.84,15.32,8.66,10.36,18.62,6.86,28.86,3,12.06-4.58,22.68-12.77,36.66-15.47.75,8.76-7.65,18.31,1.73,24.05,9.54,5.83,19.33,1.29,28.58-3.17,4.71-2.28,9.75-3.9,14.64-5.82,3.58.57,6.12-.62,7.19-4.28l7.82-3.66,5.64,6-3.75,2.65Z"/><path class="cls-3" d="M160.17,346.33c3.11-7,13.11-7.48,15-15.83-4-3.26-6.94.42-10.09,1.35-8.05,2.37-16.1,4-21.56-4.23s-.68-15.35,4.73-21.51c7.16-8.15,17-14.39,1.56-25.48-6.2-4.46-3.7-16,6.82-18.22,13.25-2.79,24.76-9.65,37.34-13.94,8.58-2.91,15.82-6.1,22.53,3.14,6.57,9-.14,14.8-4.3,21.31-1.38,2.15-3,4.1-4.63,6.22,4.75,4.76,8.08.54,11.49-1.07,19.76-9.26,39.4-18.77,59.19-28,8.8-4.09,18.14-8.77,25.32,2.59,6.81,10.79-3.48,14.85-8.69,20.87-1.34,1.54-2.6,3.14-2.41,7.45Q319.21,268.6,346,256.21c5.79-2.66,11.66-5.17,17.55-7.63,8.07-3.36,15.84-4.18,20.81,4.86,5.09,9.27-1.24,14.85-7.35,20.36-3,2.74-7.87,3.72-9.11,10.63,20.14-9.25,39.15-18.13,58.31-26.71a127.94,127.94,0,0,1,19.45-7.11c6.83-1.8,14.37-.06,15.34,7.41,2,15.08,9.21,10.36,17.34,6.29,3.78-1.9,7.93-3.1,11.94-4.53,7.42-2.65,14.06-1.16,18.3,5.46,4.8,7.49.16,13.21-5.35,17.93-6.21,5.34-12.77,10.27-18,17.16l25.28-7.78c2.15,2.56,5,2.37,7.84,1.86,11.5,4.67,8.3,12.09,3.7,19.77-4.65.45-7.41,3.08-8.65,7.48l-19.45,14.92C484,341,474,345.37,469,358c11.4-.94,19.65-4.34,25.35-12.86l4-1.83a5,5,0,0,0,2.07-1.43c3.89-1.6,7.75-3.3,11.69-4.78,7.33-2.77,13.74-1,18.34,5.14,5.45,7.24.18,12.53-3.89,18.21-3,4.13-9.74,5.14-9.54,11.74l-3.38,1.27c.36.12.87.45,1.06.32a24,24,0,0,0,2.13-1.79c8.61,1.11,19.85-8.38,25.36,4.88,5.41,13-5.26,19.58-13.5,25.93-13.47,10.37-27.6,19.89-42.5,30.51,5.11,4.72,12.42,7.83,12,15.37-.48,9-7.86,13.89-14,18.58-18.16,13.92-37,26.95-55.43,40.52-4.58,3.37-8.64,7.45-14.25,12.35,10,.37,15.24-6.59,22.6-7.47,7.18-.86,14-.92,17.84,6.87,3.43,6.89,1.3,12.73-4,17.14-11.07,9.16-22.28,18.2-34,26.54-5.88,4.19-8.14,5.63-.22,10.6,12.26,7.68,12,17.39.27,26.39-8.79,6.76-18,13-26.74,19.28,1.07,5.51,4.21,2.77,6.36,2.94,6.69.55,12.84,2,14.71,9.68,1.71,7-.91,12.49-6.51,16.79-11.81,9.05-23.58,18.14-36.91,28.4,7.73,3,17.14,1.16,20.2,10.22,3,8.81-2.38,14.06-7.76,19.41-2,2-3.75,4.58-2.58,7.11,8,17.28-4,22.4-16.21,28.13-9.62,4.51-18.69,10.16-28,15.26-6.94,3.79-14.26,5.75-21,.32-7.94-6.39-2.08-13.46.5-21.25-11.61-.55-20,7.28-30,9.66-9.56,2.28-20.34,9.09-27.19-3-6.29-11.09,4-17.24,10.44-24,7.41-2.75,12.67-7.87,16.85-14.34-6,2.05-12.85,2-16.29,8.15-5.1-.37-8.54,3.32-12.7,5.21-4.4-2.52-8.82-1.81-13.24-.07-12.15-9.94-2.91-17.31,1-27.27,2.51-6.34-18.51-6.49-14.45-21,2.16-7.73,7.91-11.06,13.09-15.39,6.06-5.08,12.44-9.77,18.73-14.66-2.33-4.54-4.83-1.44-6.56-.62-9.32,4.43-17.52,2-22.47-6-5.78-9.24,2.6-15,8.59-19.68,17-13.29,34.63-25.84,55.09-41-8.56.9-13.15,2.17-17.55,1.68C266,573,262.18,561.3,270,552.14c7.11-8.34,15.93-15.23,24.09-22.86-21.17-9.81-22.13-18.3-3.8-32.36,5.92-4.53,12.13-8.7,18.3-12.9,7.49-5.12,12.52-8.26,1-16.48s-3.58-18.43,4.28-25.33C326.6,431,340.19,420.67,353.44,410l3.22-2.55.06-.07,3.34-3.11q1.88-1.32,3.74-2.65c10.46-4.55,19.35-11,28.85-23.42-14.63,5.94-25.44,9.89-34.48,17.46l-7.82,3.65c-4.23-1.65-6,.93-7.19,4.29-4.89,1.92-9.93,3.54-14.64,5.82-9.25,4.46-19,9-28.58,3.17-9.38-5.74-1-15.29-1.73-24.05-14,2.7-24.6,10.89-36.66,15.47-10.24,3.88-20.2,7.38-28.86-3a44.61,44.61,0,0,1,7.6-20.83c-6.19.47-10.4.79-12.44,5.51l-15.34,6.83c-2.75-.73-5-.26-6.33,2.56l-10.08.68-2.94-.72c-8.09-5.62-7.95-13.24-5.24-21.49,4-1.9,8.87-2.63,10-8.07l8.51-5.88C212.85,358.21,217,354,223.67,347c-9.85,2.7-16.45,3.46-21.55,8.24l-9.19,4.1c-3.12-.27-5.56.68-6.78,3.81a45.38,45.38,0,0,1-21.8,2.17C161.88,359.24,159.21,353.18,160.17,346.33Z"/><path class="cls-4" d="M358.17,395.64c9-7.57,19.85-11.52,34.48-17.46-9.5,12.45-18.39,18.87-28.85,23.42Z"/><path class="cls-1" d="M494.38,345.14c-5.7,8.52-13.95,11.92-25.35,12.86,5-12.63,15-17,24.91-21.42C493.38,339.47,490.42,342.48,494.38,345.14Z"/><path class="cls-4" d="M266.87,713c3.44-6.11,10.26-6.1,16.29-8.15-4.18,6.47-9.44,11.59-16.85,14.34Q266.58,716,266.87,713Z"/><path class="cls-4" d="M227.85,385.69c2-4.72,6.25-5,12.44-5.51a44.61,44.61,0,0,0-7.6,20.83C226,397.5,229.45,390.8,227.85,385.69Z"/><path class="cls-4" d="M160.17,346.33c-1,6.85,1.71,12.91,4.18,19C151.69,361.47,150.21,355.16,160.17,346.33Z"/><path class="cls-4" d="M186.15,363.16c1.22-3.13,3.66-4.08,6.78-3.81.18,3.23,1.19,5.78,4.95,6.13-1.09,5.44-6,6.17-10,8.07C187.34,370.09,186.74,366.62,186.15,363.16Z"/><path class="cls-4" d="M240.93,718.1c4.42-1.74,8.84-2.45,13.24.07C249.72,722.87,245.31,722.81,240.93,718.1Z"/><path class="cls-1" d="M513.39,321.66c1.24-4.4,4-7,8.65-7.48C522.65,320.71,517.17,320.2,513.39,321.66Z"/><path class="cls-4" d="M206.18,395.08c1.32-2.82,3.58-3.29,6.33-2.56C211.48,396,210.22,399,206.18,395.08Z"/><path class="cls-4" d="M343.16,403.58c1.24-3.36,3-5.94,7.19-4.29C349.28,403,346.74,404.15,343.16,403.58Z"/><path class="cls-1" d="M518.34,294.41c-2.88.51-5.69.7-7.84-1.86C513.51,291.51,516.24,291.61,518.34,294.41Z"/><path class="cls-1" d="M500.44,341.88a5,5,0,0,1-2.07,1.43C498.29,341.72,498.92,341.16,500.44,341.88Z"/><path class="cls-4" d="M193.16,395l2.94.72C194.75,397,193.81,396.61,193.16,395Z"/><path class="cls-4" d="M356.66,407.43,353.44,410Z"/><path class="cls-4" d="M360.06,404.25l-3.34,3.11Z"/><path class="cls-4" d="M202.12,355.25c5.1-4.78,11.7-5.54,21.55-8.24-6.65,6.94-10.82,11.2-17.29,12.59Z"/><path class="cls-2" d="M202.12,355.25l4.26,4.35-8.51,5.88c-3.75-.35-4.76-2.9-4.94-6.13Z"/><path class="cls-2" d="M516.85,372a24,24,0,0,1-2.13,1.79c-.19.13-.7-.2-1.06-.32l3.38-1.27Z"/></svg>