<svg id="Capa_1" data-name="Capa 1" xmlns="http://www.w3.org/2000/svg" viewBox="0 0 667.71 1024"><defs><style>.cls-1{fill:#6ec2bf;}.cls-2{fill:#eef6fa;}.cls-3{fill:#fffffd;}.cls-4{fill:#5dbdbb;}.cls-5{fill:#cde7ec;}</style></defs><path class="cls-1" d="M542.72,382.58a115.78,115.78,0,0,1-25.21,45.17c-7.14,8-9.12,12.39,1.52,21,47.82,38.76,70.49,89.39,66,151.38-.4,5.59-1.41,11.13-2.15,16.69-.94,1.76-2.31,3.42-2.76,5.29-11.91,50.28-41.68,86.72-85.21,113.63-13.56,8.38-30,10.58-41.95,21.58-2.33,1.12-7.68-.25-4.49,5.43,3.12,3,6.48,2.1,10,.74,24-9.34,47.1-20.67,67-37,33.7-27.66,59.72-60.54,64.47-106.06,4.74-15.07,2-30.53,2.37-45.82.17-6.49-1.59-14.84,8.18-15.31s11.19,7.8,11.74,15c2.27,29.66-2.7,58.2-13.71,85.81-24.63,61.78-73.67,96.42-132.89,119.7-9.52,3.74-19.5,6.28-29.09,9.85-6.87,2.56-12.89,1.92-15.12-5.33-2-6.6,3.37-10,8.9-12.22,4.88-2,14.39-2,12.48-8.06-2.16-6.83-10-1.91-15.66-.6-6.42,1.47-13.16,1.56-19.76,2.25-2.57-.8-4.89-.64-6.6,1.78l-12.22.84-15.65.41-24.39.12-12.62-.12-24.49-1.33c-2.75-3.17-6.18-2.66-9.68-1.81-51.34-4.51-98.72-20.55-141.15-49.92a181.59,181.59,0,0,1-55.73-62c-1-1.15-1.91-2.3-2.87-3.44l.21-.08c-5.38-20.18-14.72-39.32-15.58-60.69-2.47-61.41,24.56-108.39,71.13-145.85,4.64-3.74,12.46-6.94,6.66-14.12-5.43-6.73-7.7-15.82-15.52-20.65-7.2-22.84-17-45.09-15.68-69.84,3.09-59.26,29.33-103.31,84.68-127.78C272,187.38,328.77,186,386.41,192.57c32.73,3.76,64.22,11.66,93.83,26.55,34.21,17.22,58.34,42.71,67.88,80.61C554.06,327.85,550.73,355.37,542.72,382.58ZM296.1,745.77c2.5,4.09,5.86,3.47,9.43,1.71l18.14.93c6.69,5.2,14.24,3.83,21.74,2.86,18.58,2.78,36.88-.27,55.21-2.67,24.4-1.43,47.43-8.44,69.17-18.94,56.67-27.37,93-70.61,97-135.14,3.8-61.65-23.09-109.08-74.39-142.53-11.06-7.2-13.69-12.55-2.7-21.64,11.93-9.86,20.89-22.12,28.09-35.94,36.82-70.66,11.91-140.9-66.05-168.56-59-20.93-120.37-23.92-182-12.39-33.86,6.34-64.64,20-88.68,45.58-41.51,44.17-35.09,132.45,4.26,167.83,8.92,8,7.85,14.67-2.31,20.43-16.3,9.25-29.24,22.49-42.05,35.83C104.13,521.45,92.48,587.93,115,633.59c27.28,55.34,73.84,86.16,131.75,102.2l6,1.18c3.34,3.9,7.93,3.07,12.26,3.24l3.47.49,14.83,3.09C287.24,746.68,291.67,746.2,296.1,745.77Z"/><path class="cls-1" d="M95.38,657.07c10.5,19.31,21.7,38.14,36.64,54.5,4.32,4.73,7.71,10.39,1.23,16-6.11,5.29-11.8,2.52-16-2.64-35.42-43.36-61.36-91-60.61-148.76.68-51.85,20.93-96.45,56-134.24,7.21-7.77,13.17-17.1,23-22.32,4.67-.29,9.57-.83,11.8,4.68,2.16,5.33-1.4,8.73-4.76,11.95A240.08,240.08,0,0,0,102.93,485C68.83,540.86,65.36,598.27,95.38,657.07Z"/><path class="cls-1" d="M554.56,299c-3.94-20.18-9.37-39.75-22.5-56.24-4.79-6-8.72-13.49-1.51-18.84s14,.7,17.88,6.88c10.71,17,19.61,34.67,22.7,55a236.32,236.32,0,0,1-2.5,87c-1.59,7.21-3.75,14.41-13.76,13-3.65-6.07-3-12.15-1.92-19.06C556.42,344.33,562.43,321.78,554.56,299Z"/><path class="cls-1" d="M563.47,433.54c.38,10.86-2.55,15.91-11,16.08-8.94.19-14.92-3.94-15.29-13-.34-8.33,4.74-13.19,13.2-13.29C559,423.21,562.91,428.48,563.47,433.54Z"/><path class="cls-1" d="M134.56,386.35c-.26,8.38-4.13,13.09-11.92,13.64-8.36.6-13.89-3.27-14.26-12-.34-8.31,3.86-13.36,12.48-14.14C130.46,373,132.56,379.83,134.56,386.35Z"/><path class="cls-2" d="M101.93,650.32c1,1.14,1.91,2.29,2.87,3.44C103.84,652.61,102.89,651.46,101.93,650.32Z"/><path class="cls-2" d="M246.73,735.78c-57.91-16-104.47-46.85-131.75-102.19-22.5-45.66-10.85-112.14,25.94-150.46,12.81-13.34,25.75-26.58,42.05-35.83,10.16-5.76,11.23-12.41,2.31-20.43C145.93,391.49,139.51,303.21,181,259c24-25.59,54.82-39.24,88.68-45.58,61.63-11.53,123-8.54,182,12.39,78,27.66,102.87,97.9,66.05,168.56-7.2,13.82-16.16,26.08-28.09,35.94-11,9.09-8.36,14.44,2.7,21.64,51.3,33.45,78.19,80.88,74.39,142.53-4,64.53-40.29,107.77-97,135.14-21.74,10.5-44.77,17.51-69.16,18.94-1-3.59-2.05-7.17-3.08-10.77,7.39.37,14.31-1.77,20.6-5.17,27.45-14.85,54.67-30.12,82.1-45,7-3.8,10-8.9,6.72-16.32-3.57-8.11.8-12.19,6.69-16.43,10.78-7.76,21.36-15.82,31.79-24.06,5.69-4.49,8.92-10.31,4.51-17.41-3.67-5.93-9.14-7.87-15.93-5.37-2.29.84-4.68,1.42-7.95,2.39,2.1-6.4,6.6-8.94,10.43-12,7.39-5.8,16.28-12,10.16-22.42-6.49-11-16.84-6.09-26.11-2.71-8.39,3.07-15.33,10.33-26.89,9.28,4.07-6.26,9.1-9.39,13.95-12.89,10.76-7.79,21.41-15.76,31.8-24,5.58-4.44,8.63-10.36,5.07-17.57s-10.14-8.12-17.11-6.78c-5,1-9.85,2.7-14.77,4.1-2.91-1.74-4-4.52-4.45-7.69l.17-.06,2.73-3.63c-.9-16.6-7.95-21.13-22.77-14.59-3.15,1.39-6.26,2.87-9.4,4.3l-2.6-2.88c.39-1.54.77-3.07,1.16-4.6l3.44-2.89c3.33-5.28,9.58-8.42,11.05-15.06,6.2-4,5.83-7.27-1.06-9.84-9-10.75-18.23-4.76-27.08,0-15.92,8.5-31.61,17.42-47.4,26.16-.11-2.52-.23-5-.34-7.56,12.29-11.76,29.07-17.33,40.9-29.7C467.3,446.58,465.07,437,451,432c-2.26-.81-5.28-.31-5.64-4.44l45.91-27.28c7-4.17,11-9.88,6.54-17.82-4.39-7.73-11.2-7.83-18.65-4.11-6.39,3.19-12.95,6-19.43,9-.42-2-.85-4-1.27-5.95,13.42-11.75,30.72-18.32,42.72-32.05,4.11-4.71,6.18-9.58,3.15-15.34-2.9-5.51-7.69-7.87-14.08-7.12-2.39.28-5.27,3.54-7.66-.18,7.51-10.36,27.13-12.25,21.36-30.19-4-12.5-15.83-4.85-25.26-6.62,6.88-9.6,7.52-17.95-5.1-22.86-3.91-1.53-3.94-5.44-5-8.88-3.4-10.89-10.36-12.83-20.21-7.66-6.68,3.51-11.51,10.44-19.89,10.78.06-1.64.11-3.29.17-4.94,3.88-6.44,10-12.5,2.84-20.55-6.73-7.53-14.26-4-21.29-1.27-8.86,3.37-17.36,7.66-26.7,11.86,1.58-24.66-5.86-29.35-28.08-20.17-11.12,4.6-20.3,13.35-34.23,16.61,2.88-7.89,8.41-14.22.81-20.63-6.77-5.7-13.29-3.55-20.12-.8-10.93,4.4-21.84,8.83-32.82,13.08-4.71,1.83-11.91,6.08-14,4.37-14.06-11.43-22.65.71-32.52,6.43-8.85,5.14-17,11.48-25.82,16.68-9.15,5.39-19.44,10.83-14.87,23.35,4.69,12.83,16.18,6.46,25.28,5.94.4,0,.83.5,2,1.28-4.83,10.08-16.22,13.39-22.68,21.68-7.58,9.73-5.19,18.81,6.44,22.33,3,.92,7.45-1.86,9.13,3.68-6.74,10-26,13.24-19.38,30.73,3.48,9.24,13.06,5.62,20.52,5.2,2.43.28,4.86.57,6.21,3a84.08,84.08,0,0,0-7,5.72c-5.42,5.44-15.1,9.82-9.2,19.6,6,10,15.46,7.37,24.24,3.5,7.38-3.26,14.39-7.43,22.53-8.68,1.21,1.59,2.41,3.18,3.62,4.76-10.08,6.94-20.21,13.81-30.22,20.84C196.26,437,196.93,446,216.12,455.38c-3.06,2.28-5.78,4.57-8.74,6.49-20.59,13.33-41.25,26.55-61.83,39.88-7,4.53-11.93,10.21-7.33,19.07,4.69,9,12.29,7.45,20,4.78l20.09-7c-15,12.32-31.25,22-46.5,33s-14.47,20.16.46,28.69l-.18,4.62c-6,5.76-15.12,10.58-9.59,21,5.66,10.64,14.92,8.32,23.94,4.83,3.78-1.47,7.55-3,11.25-4.63q24.3-10.82,48.56-21.72c.7,3.77-1,6.81-2.91,9.8-15.63,11.55-33,20.67-47.5,33.77-6.46,5.82-12.35,12.6-6.81,21.19s14.45,5,22.24,2.39c12-4,22.93-10.81,38.32-13.26-7.38,8.69-15.33,12.22-22.2,17.17-9.27,6.69-24.31,13.05-16.48,26.68,7.64,13.3,20.94,4,31.31-.53,15.19-6.7,30.09-14.06,45.11-21.14-3.77,7.62-9.93,12.08-14.62,17.75-6,7.24-20.14,10.92-14.45,23.93,6.51,14.91,18.63,4.15,28.38,4.14.81,7.43-9.71,4.39-10.12,11.5C248.35,718.86,246.37,728,246.73,735.78Z"/><path class="cls-2" d="M265,740.21c-4.33-.17-8.92.66-12.26-3.24,4.4-11.44,0-22.85-.09-34.27,1.59-3.67,5.26-2.88,8.14-3.78l5,1.38c-1,2.8-1.48,6.1-3.27,8.31-4.71,5.85-6.34,11.61-1.08,17.73s11.58,4.77,18.07,2.19c4.17-1.67,8.5-3,12.76-4.41,7.8,11.45-8.38,12-8.94,19.67l-14.83-3.1C267.58,738.71,266.56,737.56,265,740.21Z"/><path class="cls-3" d="M252.67,702.7c.07,11.42,4.49,22.83.09,34.27l-6-1.18c-.36-7.84,1.62-16.93-10.22-17.93.41-7.11,10.93-4.07,10.12-11.5Z"/><path class="cls-4" d="M252.67,702.7l-6,3.66c-9.75,0-21.87,10.77-28.38-4.14-5.69-13,8.47-16.69,14.45-23.93,4.69-5.67,10.85-10.13,14.62-17.75-15,7.08-29.92,14.44-45.11,21.14-10.37,4.58-23.67,13.83-31.31.53-7.83-13.63,7.21-20,16.48-26.68,6.87-4.95,14.82-8.48,22.2-17.17-15.39,2.45-26.37,9.29-38.32,13.26-7.79,2.59-16.62,6.31-22.24-2.39s.35-15.37,6.81-21.19c14.53-13.1,31.87-22.22,47.5-33.76,19.75-9.57,37.11-22.66,53.84-36.89-16.94,9.26-37,12.36-50.93,27.08Q182,595.35,157.68,606.19c-3.7,1.65-7.47,3.16-11.25,4.63-9,3.49-18.28,5.81-23.94-4.83-5.53-10.43,3.59-15.25,9.59-21,4.74,1.1,7.29-1.84,9.62-5.19l.08-.06,3-3,0,0c22.81-9.49,43.17-23.52,64-36.32C279.45,497,351,455.12,422.21,412.82c13-7.69,27.64-13.18,37.55-25.48,6.48-3,13-5.83,19.43-9,7.45-3.72,14.26-3.62,18.65,4.11,4.5,7.94.46,13.65-6.54,17.82l-45.91,27.28c.36,4.13,3.38,3.63,5.64,4.44,14,5,16.27,14.61,5.93,25.43-11.83,12.37-28.61,17.94-40.9,29.7A261.31,261.31,0,0,0,360,526.25c21.46-5.94,40-16.95,56.45-31.59,15.79-8.74,31.48-17.66,47.4-26.16,8.85-4.72,18.08-10.71,27.07,0q.53,4.92,1.07,9.84c-1.47,6.64-7.72,9.78-11.05,15.06l-3.44,2.89c-.39,1.53-.77,3.06-1.15,4.61-1.57.54-3.17,1.07-4.76,1.59-5.73,3.47-10.58,7.74-15.73,16.2,9.47-3.57,16.22-5.14,19.7-12.14l3.39-2.77c3.13-1.44,6.24-2.92,9.39-4.31,14.82-6.54,21.87-2,22.77,14.6l-2.73,3.62-.17.06c-10.13,5.84-20.32,11.59-30.38,17.54q-32.29,19.11-64.46,38.4c-3.53,2.11-7.72,4.45-5,9.4,1.7,3.08,4.48.66,6.57-.58,32.42-19.28,67-34.81,97.7-57.07,4.92-1.4,9.77-3.14,14.77-4.1,7-1.34,13.54-.47,17.11,6.78s.51,13.13-5.07,17.57c-10.39,8.27-21,16.24-31.8,24-4.85,3.5-9.88,6.63-13.95,12.89,11.56,1.05,18.5-6.21,26.89-9.28,9.27-3.38,19.62-8.32,26.11,2.71,6.12,10.42-2.77,16.62-10.16,22.42-3.83,3-8.33,5.56-10.43,12,3.27-1,5.66-1.55,7.95-2.39,6.79-2.5,12.26-.56,15.93,5.37,4.41,7.1,1.18,12.92-4.51,17.41-10.43,8.24-21,16.3-31.79,24.06-5.89,4.24-10.26,8.32-6.69,16.43,3.26,7.42.28,12.52-6.72,16.32-27.43,14.88-54.65,30.15-82.1,45-6.29,3.4-13.21,5.54-20.6,5.17a3.07,3.07,0,0,0-2.47-1l-3.42-3.2.18.06-1.71-6,.09-6c1.38-2.38,5.55-5.83,1.61-7.26-4.22-1.53-8.45,2.22-10.82,6.57a1.82,1.82,0,0,0-1.84.58c-3.87,0-6.21,2.14-7.75,5.44-9.89,1.85-18.18,7.08-26.39,12.48-12.53,1.79-25.41,4.18-25.93-14.91.77-1.92,1.55-3.83,2.32-5.74,9.73-4,15.36-13.22,23.93-18.69,14.69-3,24.51-12.65,33.43-23.69-10.71,7.54-25.48,8.09-33.68,19.62-11.33,5-23.78,8.13-32.09,18.45l-4.72,1.12c-6.1,1.35-12,3.15-15.78,8.64l-.25-.2c-4.26,1.45-8.59,2.74-12.76,4.41-6.49,2.58-12.83,3.89-18.07-2.19s-3.63-11.88,1.08-17.73c1.79-2.21,2.22-5.51,3.26-8.32,15,.94,20.63-11.08,28.76-19.8-11.31,6.23-24.79,8.35-33.72,18.43C257.93,699.82,254.26,699,252.67,702.7Zm94.16-82.58c22.3.19,39.89-14.58,40.07-33.67.15-16.83-27.47-43.12-45.83-43.61-18.6-.5-45.54,24.66-45.52,42.51C295.58,605.05,317.4,619.85,346.83,620.12ZM465.44,600.6c10.49-2.28,18.64-4.82,24.14-12.53.46-.64-1-3.78-1.42-3.74-8,.75-13,7-19.28,11C467.82,596,467.34,597.59,465.44,600.6ZM307.78,675.9c-1.39-1.32-2.21-2.75-3.23-2.9-1.21-.19-3.31.38-3.73,1.24-1.06,2.21.42,3.69,2.66,3.67C304.68,677.89,305.86,676.84,307.78,675.9Zm5.78-8.65c-.39.87-.76,1.74-1.14,2.61.87.38,1.92,1.24,2.56,1a2.62,2.62,0,0,0,1-2.41C315.78,667.82,314.43,667.63,313.56,667.25Z"/><path class="cls-4" d="M240,399.3c-8.14,1.25-15.15,5.42-22.53,8.68-8.78,3.87-18.23,6.48-24.24-3.5-5.9-9.78,3.78-14.16,9.2-19.6a84.08,84.08,0,0,1,7-5.72c9.17-3.34,17-8.48,22.41-17.19-10.25,3.41-20.92,5.67-28.62,14.15-7.46.42-17,4-20.52-5.2-6.61-17.49,12.64-20.72,19.38-30.73-1.68-5.54-6.09-2.76-9.13-3.68-11.63-3.52-14-12.6-6.44-22.33,6.46-8.29,17.85-11.6,22.68-21.68-1.21-.78-1.64-1.3-2-1.28-9.1.52-20.59,6.89-25.28-5.94-4.57-12.52,5.72-18,14.87-23.35,8.82-5.2,17-11.54,25.82-16.68,9.87-5.72,18.46-17.86,32.52-6.43,2.11,1.71,9.31-2.54,14-4.37,11-4.25,21.89-8.68,32.82-13.08,6.83-2.75,13.35-4.9,20.12.8,7.6,6.41,2.07,12.74-.81,20.63,13.93-3.26,23.11-12,34.23-16.61,22.22-9.18,29.66-4.49,28.08,20.17,9.34-4.2,17.84-8.49,26.7-11.86,7-2.68,14.56-6.26,21.29,1.27,7.19,8,1,14.11-2.84,20.54-5.47,2.07-10.4,4.59-9.68,11.76l-4,1,1.17,1.83,3.17-2.41c4.45-.65,7.84-2.63,9.16-7.24,8.38-.33,13.21-7.26,19.89-10.77,9.85-5.17,16.81-3.23,20.21,7.66,1.07,3.44,1.1,7.35,5,8.88,12.62,4.91,12,13.26,5.1,22.86C488.15,291.65,500,284,504,296.5c5.77,17.94-13.85,19.83-21.36,30.19,2.39,3.72,5.27.46,7.66.18,6.39-.75,11.18,1.61,14.08,7.12,3,5.76,1,10.63-3.15,15.34-12,13.73-29.3,20.3-42.72,32.06-5.1,2.31-10.54,4.08-15.25,7-19.95,12.42-39.42,25.61-59.52,37.76-69.14,41.75-138.65,82.88-207.53,125.05-11.3,6.91-25,12-31.35,25.44l0,0-3,3-.07.06-9.45.57c-14.93-8.53-15.56-17.74-.46-28.69s31.52-20.72,46.5-33l-20.09,7c-7.7,2.67-15.3,4.24-20-4.78-4.6-8.86.34-14.54,7.33-19.07,20.58-13.33,41.24-26.55,61.83-39.88,3-1.92,5.68-4.21,8.74-6.49C196.93,446,196.26,437,213.4,424.9c10-7,20.14-13.9,30.22-20.84,10-1.76,16.3-9.11,23.1-15.93C257.11,390.23,247.23,391.46,240,399.3ZM388.68,287.12c9.37-.6,16.17-4.78,19.17-14.3-7.3,3.52-15.3,6-19.69,13.78-2.16.6-4.8.68-4.47,4a1.42,1.42,0,0,0,1,1C388,291.92,388.07,289.28,388.68,287.12Zm-51.06,83.36c16.39-4.4,33.51-11.38,44.15-27.76,6.25-9.62,5.05-19.5-5.46-26.81-19.06-13.25-39.54-15.58-61.23-8.12-14.95,5.15-22.31,18-18.92,32.32C299.17,352.76,322.46,370.65,337.62,370.48Zm-122-81.38,1.31-.61c-.38-.28-.74-.75-1.14-.78s-.86.36-1.3.56Z"/><path class="cls-5" d="M144.84,576.66c6.39-13.42,20-18.53,31.35-25.44,68.88-42.17,138.39-83.3,207.53-125,20.1-12.15,39.57-25.34,59.52-37.76,4.71-2.94,10.15-4.71,15.25-7,.42,2,.85,3.95,1.27,5.94-9.91,12.31-24.59,17.8-37.55,25.49C351,455.12,279.45,497,208.84,540.34,188,553.14,167.65,567.17,144.84,576.66Z"/><path class="cls-5" d="M512.61,525.48c-30.68,22.26-65.28,37.79-97.7,57.07-2.09,1.24-4.87,3.66-6.57.58-2.74-5,1.45-7.29,5-9.4q32.21-19.25,64.46-38.4c10.06-6,20.25-11.7,30.38-17.54C508.6,521,509.7,523.74,512.61,525.48Z"/><path class="cls-5" d="M416.4,494.66c-16.48,14.64-35,25.65-56.45,31.59a261.31,261.31,0,0,1,56.11-39.15C416.17,489.62,416.29,492.14,416.4,494.66Z"/><path class="cls-5" d="M206.24,584.47c13.92-14.72,34-17.82,50.93-27.08-16.73,14.23-34.09,27.32-53.84,36.89C205.23,591.28,206.94,588.24,206.24,584.47Z"/><path class="cls-5" d="M203.21,376.12c7.7-8.48,18.37-10.74,28.62-14.15-5.4,8.71-13.24,13.85-22.41,17.19C208.07,376.69,205.64,376.4,203.21,376.12Z"/><path class="cls-5" d="M240,399.3c7.23-7.84,17.11-9.07,26.72-11.17-6.8,6.82-13.08,14.17-23.1,15.93C242.41,402.48,241.21,400.89,240,399.3Z"/><path class="cls-5" d="M419,268.07c-.72-7.17,4.21-9.69,9.68-11.76-.06,1.66-.11,3.31-.17,4.95-1.32,4.6-4.71,6.58-9.16,7.23Z"/><path class="cls-5" d="M491.94,478.38q-.54-4.92-1.07-9.84Q501.22,472.4,491.94,478.38Z"/><path class="cls-5" d="M132.26,580.36l9.45-.57c-2.34,3.35-4.89,6.29-9.63,5.19Z"/><path class="cls-5" d="M477.45,496.33l3.44-2.89Z"/><path class="cls-5" d="M508.33,517.73l2.73-3.62Z"/><path class="cls-5" d="M260.81,698.92c8.93-10.08,22.41-12.2,33.72-18.43-8.13,8.72-13.79,20.74-28.76,19.8Z"/><path class="cls-2" d="M313,714.56c8.31-10.32,20.76-13.4,32.09-18.44.09,1.36.17,2.71.25,4.06-8.57,5.47-14.2,14.71-23.93,18.69Q317.22,716.71,313,714.56Z"/><path class="cls-5" d="M345.35,700.18c-.08-1.35-.16-2.7-.25-4.06,8.2-11.54,23-12.09,33.68-19.63C369.86,687.53,360,697.22,345.35,700.18Z"/><path class="cls-1" d="M465.44,600.6c1.9-3,2.38-4.62,3.44-5.31,6.24-4,11.27-10.21,19.28-11,.39,0,1.88,3.1,1.42,3.74C484.08,595.78,475.93,598.32,465.44,600.6Z"/><path class="cls-5" d="M475.51,506.59c-3.48,7-10.23,8.57-19.7,12.14,5.15-8.46,10-12.73,15.73-16.19Z"/><path class="cls-1" d="M307.78,675.9c-1.92.94-3.1,2-4.3,2-2.24,0-3.72-1.46-2.66-3.67.42-.86,2.52-1.43,3.73-1.24C305.57,673.15,306.39,674.58,307.78,675.9Z"/><path class="cls-1" d="M313.56,667.25c.87.38,2.22.57,2.47,1.2a2.62,2.62,0,0,1-1,2.41c-.64.24-1.69-.62-2.56-1C312.8,669,313.17,668.12,313.56,667.25Z"/><path class="cls-2" d="M475.51,506.59l-4-4c1.59-.53,3.19-1.06,4.76-1.6l2.59,2.87Z"/><path class="cls-5" d="M141.78,579.73l3-3Z"/><path class="cls-1" d="M388.16,286.6c4.39-7.81,12.39-10.26,19.69-13.78-3,9.52-9.8,13.7-19.17,14.3Z"/><path class="cls-1" d="M388.68,287.12c-.61,2.16-.72,4.8-4,4.44a1.42,1.42,0,0,1-1-1c-.33-3.32,2.31-3.4,4.47-4Z"/><path class="cls-5" d="M419.35,268.49l-3.17,2.41L415,269.07l4-1Z"/><path class="cls-2" d="M215.58,289.1l-1.13-.83c.44-.2.89-.59,1.3-.56s.76.5,1.14.78Z"/></svg>