<svg id="Capa_1" data-name="Capa 1" xmlns="http://www.w3.org/2000/svg" viewBox="0 0 667.71 1024"><defs><style>.cls-1{fill:#7ac1ea;}.cls-2{fill:#eef6fa;}.cls-3{fill:#cde7ec;}</style></defs><path class="cls-1" d="M90.91,281.77c45.47-73.49,116-101.25,197.82-106.8,58.87-4,115.94,4.45,169.34,31.3,3.58,1.8,6.93,4.06,10.39,6.11,46.85,32,85.65,70.91,107,124.82q2.79,12,5.56,24.05c-1.36,2.88-1.06,5.31,1.89,7,.56,3.44,1.11,6.87,1.66,10.31-1.48,2.9-.91,5.26,1.85,7,4.91,31.91,2.43,64,2.89,96,.08,5.68-4.49,14.93,7.41,15.48l17.23-4.3c3.28,5.45,3.25,11.55,3.5,17.6-3.85,2.76-3.48,6.56-2.56,10.49C596.3,625.84,547.61,711.2,454.66,767.85c-3.68.2-5.75,2.52-7.28,5.55-5.29,1.11-10.2,2.91-13.69,7.35-4.37-.13-6.75,2.4-8.22,6.15l-50.86,15-6.71-7.39,0-6.87c5.71-2.75,11.21-6.1,17.16-8.17,73.36-25.52,128.84-72.51,166.87-139.9,22.11-39.18,39.75-80.13,42.43-126-2.2-3.67-4.38-3.19-6.53,0-3.35,2.77-4.31,6.55-4.92,10.67-6.6,44.68-24.79,84.46-49.94,121.69-36.3,53.74-84.28,93-142.48,121-10.71,5.16-25.06,6.48-31,19.79C337.11,792,315.69,801,292.59,803.09c-30.52,2.71-78.91-8.72-94.94-53.57.61-4.51-2.08-6.83-5.68-8.54q-1-13-2-26.05l.15-17.56c1.33-20.26,12-34.4,29-44.41,15.49-6.42,28.73-16.64,42.8-25.44,2.36-1.48,5.39-3.38,3.61-6.67-.86-1.58-3.58-2.83-5.56-3-17.49-1.41-33.58-8-49.54-14.24-58.63-22.91-103.94-60.34-128-120.33-8.58-21.41-9.91-44.49-15.89-66.48q-.3-6.87-.59-13.73,0-13.92,0-27.86.33-6.86.64-13.72c4.24-4.11,3-9.12,2.31-14,.32-2.27.65-4.54,1-6.81,2.76-1.68,3.17-4.18,2.47-7.07q.91-6.81,1.82-13.63c3.25-2.58,3-6.44,3.64-10a27.3,27.3,0,0,0,6.19-14.25C88.3,292,90.32,287.26,90.91,281.77ZM569.18,446.58c0-10.44.24-19.1,0-27.75-3.13-97.68-50.88-165.64-140-203.12-57.06-24-117.56-26.58-178.2-15.59-43.2,7.83-83.4,23.94-114.69,55.81C88.05,305,80.75,366.19,88.8,430.94c3.66,29.51,12.93,57.28,30.24,81.68,42.71,60.19,105.4,82.53,175,91.35,6.46.82,14.88-2.09,17.4,7.26,2.73,10.11-6.41,12.6-12.27,16.31C274.92,643,250.31,657.9,225.8,673c-6,3.69-11.16,8.06-13.65,15-14.51,40.23,18.26,94.09,63.7,94,47.37-.08,87.29-18.91,126.37-41.08Q484.95,694,532.9,611.11C562.92,559.19,570.69,503.18,569.18,446.58Z"/><path class="cls-1" d="M53.52,344.22c-2.16,24.28-8.58,48.47-1.69,73,3.73,96.56,64.71,167.41,157.47,203.54,6.7,2.61,14.55,3.32,12.61,12.68-2.11,10.17-10.69,5.61-17,5.79l-6-1.08c-1.94-2.67-4.7-3.33-7.78-3.2-77-33-131.81-86-152.81-169.51-.88-9.57-1.55-19.18-6.56-27.77q-.87-17.28-1.73-34.55c2.42-13.89,1.62-27.83.63-41.77q.63-10.32,1.24-20.65c4.68-3.66,2.9-9.05,3.67-13.76,3.54-4.28,7.28-8.19,13.61-7.25q3.33,3.6,6.68,7.18L55.65,337C53.15,338.9,52.63,341.35,53.52,344.22Z"/><path class="cls-1" d="M589.45,338.48l-5.64-1.92C566.46,277.33,523,239.89,475.05,206.17c-4.47-5.29-4.36-10.87.64-15.27,4.48-3.94,9.64-2.37,14.22.92,24.66,17.69,48.56,36,68.31,59.63,12.48,14.92,24.85,29.48,32.2,47.67l2.64,3.26q2,5.22,4,10.46C598,322.42,606.05,334.12,589.45,338.48Z"/><path class="cls-1" d="M77,264.44c-1.16,12.72-8,19.11-20.56,15.66-9-2.49-11.91-10.39-9.29-19.15,3.59-11.95,16.52-13.12,28.64-3Q76.36,261.21,77,264.44Z"/><path class="cls-1" d="M637,389.88c-2.71,7.23-8.65,12.63-17.17,12s-15.65-6.8-14.48-15.72c1.07-8.08,7.42-14.47,16.91-13.53C631.42,373.53,636.25,379.46,637,389.88Z"/><path class="cls-2" d="M593.06,302.38l-2.64-3.26C591.31,300.21,592.19,301.29,593.06,302.38Z"/><path class="cls-2" d="M569.18,446.58c1.51,56.6-6.26,112.61-36.28,164.53q-48,83-130.68,129.79c-39.08,22.17-79,41-126.37,41.08-45.44.08-78.21-53.78-63.7-94,2.49-6.93,7.63-11.3,13.65-15,24.51-15.08,49.12-30,73.41-45.44,5.86-3.71,15-6.2,12.27-16.31-2.52-9.35-10.94-6.44-17.4-7.26-69.64-8.82-132.33-31.16-175-91.35-17.31-24.4-26.58-52.17-30.24-81.68-8-64.75-.75-125.91,47.46-175,31.29-31.87,71.49-48,114.69-55.81,60.64-11,121.14-8.41,178.2,15.59,89.11,37.48,136.86,105.44,140,203.12C569.42,427.48,569.18,436.14,569.18,446.58Zm-440.4-91.84c0,2.28.05,4.55.08,6.82-6.85,5.19-13.78,10.28-20.52,15.59-7.1,5.59-10.3,12.88-5.86,21.24,4.53,8.55,12,9.73,20.69,5.89,3.3-1.45,6.55-5.31,11.37-1.67-1.64,7.74-9.3,9.42-14.13,13.87-5.56,5.14-11,10.41-8.06,19.3,3.05,9.21,10.12,9.6,18.08,9.15,3.62-.21,8.79-2.83,10.5,2.49,1.47,4.58-3.32,7-6.14,9.47-7.95,6.88-17.68,13.46-10.83,25.59,6.3,11.13,16.74,7,26.29,4.45,1.36-.36,3.13.81,5.45,1.49-3.07,8.95-12,17.91-2.5,26.8,9.24,8.62,19.47,2.55,29.16-.37,2.73-.83,5.2-3.19,7.88-3.35,4.64-.28,9.83-7.26,13.63-.75,2.72,4.68-3,8-5.78,11.46-1.43,1.8-3.13,3.38-4.59,5.16-4.82,5.88-6.46,12-1.79,18.9,4.82,7.07,11.92,7.24,18.48,4.67,15.76-6.17,31.16-13.28,47.55-20.38.59,10.62-7.36,14.25-10.86,20.43-3.94,6.93-6.32,13.66-.79,20.8s12.51,5.42,18.74,2.38c17-8.29,33.7-17.28,50.51-26,3.17,2.5,10.08-6,10.82,3.66-16.5,14.94-15.17,27.68,3.58,34.36l.87,4.76c-1.14,7.76-2.54,15.59,5.74,20.73.3,5.22,6.06,6.15,7.95,10.12-32,21.36-63.94,42.93-96.21,63.93-8.14,5.3-10.41,12-8.5,20.59,2,9,9.45,8.68,16.51,8.76,2.08,0,4.76-.51,5,3.53-1.65,1.8-3.55,3.93-5.5,6-6.65,7-15.82,13.59-9,25,7.17,12,17.9,7.68,27.6,4,9.15-3.42,17.9-7.91,26.84-11.92,5.52-2.49,10.13-3.29,10.71,5,1.12,16.1,11.44,15.37,22.21,11,11.16-4.47,22.9-8.81,32.42-15.86,26.56-19.66,66.36-21.5,79.81-59,1.19-3.32,5.58-5.78,8.91-8,10.06-6.68,21-12.19,30.31-19.76,9.48-7.71,27.65-13.81,18.16-30.08-8.94-15.34-23.29-5.86-35.23-.28l-3.59,2.63c-1.11.29-2.24.53-3.38.72-3.07-.15-5.85-.84-7.42-3.87,18-17,41.76-25.37,61.1-40.43,7.09-5.52,15.22-11.23,11.45-20.76-4-10.2-.24-14.85,7.67-19.06,8.58-4.58,14.37-10.67,7.74-20.55-6.33-9.43-14.81-6.87-22.84-2.31-28.34,16.09-56.59,32.34-84.88,48.52-5.34-.57-8.84,1.84-10.83,6.69a21.88,21.88,0,0,1-3.07.77c-4.14-2.42-1-5.57-.86-8.43,5.17-3.54,10.37-7,15.5-10.63q47.94-33.63,95.8-67.37c7.55-5.35,9.89-13.66,6-21.51-4.27-8.62-12.57-8.78-21-5.32-9.28,3.79-18.67,7.35-28,11,9.24-14.4,23.34-22.1,35.09-32.46,9.39-8.28,28.78-15.22,19.29-31.75-10.11-17.63-26.29-5.38-38.09.8-39.78,20.86-78.85,43.06-118.14,64.85-22.32,12.37-44.53,24.94-68.18,38.2-.82-8.38,4-10.68,6.28-14.31,3.75-6,7.38-11.77,3.16-19.17-4.49-7.86-11.88-5.43-18.54-5.67-6-.21-10.89,3.66-16.37,4.95-10.34,2.43-17.71,12.75-30.61,11.78,1.65-11.1,17.11-15.76,11.52-27.79-6.09-13.08-18.59-7-28.9-7.31,9.77-31.29,7.73-33.13-30.81-29,1.07-9.36,10.74-11.4,15.14-18,5.38-8.08,6.76-15.57-1.56-21-11.28-7.36-5.79-10.73,1.8-15.32,9.57-5.8,19.15-11.86,12.91-25.91-3-6.79,2.62-9,7.12-11.6,20.93-12.12,41.81-24.31,62.79-36.34,2.88-1.65,7.18-5.14,9.39-2.46,13.33,16.15,24.57,1.93,36.52-1.83,1.05,8.69-3.77,18.75,6.44,25.27,10.43,6.67,16.94-6.42,27.58-6C387,327.9,385,339.23,402.13,342c3.29.54,4.28,4,3.75,6.89-2.56,14,12.93,26.15,4.07,41-.81,1.36,1.39,5.91,3.36,7.32,7.63,5.46,7.63,10.41.86,16.65-5.93,5.46-6.44,12.1-1.32,18.55s11.87,6.6,18.64,2.9c32.35-17.72,64.84-35.19,96.81-53.57,10.82-6.22,14.58-15.57,1.71-24.18-6-4.05-5.87-8-4.55-14.51,3-14.74-4.62-21.34-19.4-18.09-2.8.62-5.4,2.13-8.54-.35-1.78-7.86,10.88-15.35,2.2-23.35S480.15,287.82,480,272.64c-.07-6.56-10.14-5.13-16.47-4.84-5.34.24-8,6.9-13.95,5.48-6-25.53-14.81-28.8-36.54-13.53-2.81,2-4.92,5.09-7.88,6.73-16.35,9-28.07,25.69-47.79,29.17,13.53-18.33,34.34-28.53,49.85-44.65,6.32-6.58,11.36-13.79,4.85-22.85-6.4-8.91-16.25-7.49-23.28-3.16-11.18,6.9-18.26,7.85-25.74-4.9-4.52-7.72-12.52-3.11-18.4.58q-48.78,30.6-97.37,61.52l-4.1,3.07c-1.14.33-2.27.66-3.4,1l-.39-8.25c15-11.39,30.36-22.4,44.92-34.35,6.39-5.25,14-11.71,7-21.74-6.78-9.67-16-7.45-24.72-3.74-9.5,4-18.68,8.93-27.78,13.85-7,3.77-12.68,6.86-19-2.09-4.54-6.46-12.53-5.78-18.64-1.27-24.95,18.4-48.28,38.75-70.72,60.14-5.74,5.49-7.58,13.05-3.43,18.77,7.23,10,2,13.78-5.7,18.53-7.21,4.44-12.16,10.67-9.38,20.15C114.53,355.11,122,354.28,128.78,354.74ZM395.4,406.18c0-50.65-34.87-88-80.49-86.34-49.71,1.86-77.85,49-56.53,93.43,18.91,39.42,64.3,57.55,103.34,55.15,9.83-.6,17.39-5.37,21.8-14.44C390.86,438.89,395.89,423.22,395.4,406.18Z"/><path class="cls-1" d="M336.35,611.71c-8.28-5.16-6.88-13-5.75-20.76,6.67-2,14.65-2.12,16.38-11.31l.81-1.24c-.23.45-.46.9-.7,1.35-6.46.34-13.56-1.07-17.35,6.45-18.75-6.68-20.08-19.42-3.58-34.36,14-7.06,25.65-17.2,36.53-28.7-15.07,10-35.22,9.89-47.35,25-16.81,8.71-33.49,17.7-50.51,26-6.23,3-13.31,4.63-18.74-2.38s-3.15-13.87.79-20.8c3.5-6.18,11.45-9.81,10.86-20.43-16.39,7.1-31.79,14.21-47.55,20.38-6.56,2.57-13.66,2.4-18.48-4.67-4.67-6.86-3-13,1.79-18.9,1.46-1.78,3.16-3.36,4.59-5.16,2.77-3.47,8.5-6.78,5.78-11.46-3.8-6.51-9,.47-13.63.75-2.68.16-5.15,2.52-7.88,3.35-9.69,2.92-19.92,9-29.16.37-9.54-8.89-.57-17.85,2.5-26.8-2.32-.68-4.09-1.85-5.45-1.49-9.55,2.55-20,6.68-26.29-4.45-6.85-12.13,2.88-18.71,10.83-25.59,2.82-2.45,7.61-4.89,6.14-9.47-1.71-5.32-6.88-2.7-10.5-2.49-8,.45-15,.06-18.08-9.15-2.94-8.89,2.5-14.16,8.06-19.3,4.83-4.45,12.49-6.13,14.13-13.87-4.82-3.64-8.07.22-11.37,1.67-8.74,3.84-16.16,2.66-20.69-5.89-4.44-8.36-1.24-15.65,5.86-21.24,6.74-5.31,13.67-10.4,20.52-15.59,26.44-12.47,48.31-32,72.72-47.58,13.19-8.44,28.82-13.92,38.2-27.73l3.4-1,4.1-3.07Q296,251.4,344.65,220.67c5.88-3.69,13.88-8.3,18.4-.58,7.48,12.75,14.56,11.8,25.74,4.9,7-4.33,16.88-5.75,23.28,3.16,6.51,9.06,1.47,16.27-4.85,22.85-15.51,16.12-36.32,26.32-49.85,44.65l.13-.14c-11.95,3.76-23.19,18-36.52,1.83-2.21-2.68-6.51.81-9.39,2.46-21,12-41.86,24.22-62.79,36.34-4.5,2.61-10.13,4.81-7.12,11.6,6.24,14.05-3.34,20.11-12.91,25.91-7.59,4.59-13.08,8-1.8,15.32,8.32,5.43,6.94,12.92,1.56,21-4.4,6.61-14.07,8.65-15.14,18,38.54-4.09,40.58-2.25,30.81,29,10.31.28,22.81-5.77,28.9,7.31,5.59,12-9.87,16.69-11.52,27.79,12.9,1,20.27-9.35,30.61-11.78,5.48-1.29,10.35-5.16,16.37-4.95,6.66.24,14.05-2.19,18.54,5.67,4.22,7.4.59,13.21-3.16,19.17-2.28,3.63-7.1,5.93-6.28,14.31,23.65-13.26,45.86-25.83,68.18-38.2,39.29-21.79,78.36-44,118.14-64.85,11.8-6.18,28-18.43,38.09-.8,9.49,16.53-9.9,23.47-19.29,31.75C511,452.8,496.93,460.5,487.69,474.9c9.34-3.67,18.73-7.23,28-11,8.44-3.46,16.74-3.3,21,5.32,3.89,7.85,1.55,16.16-6,21.51q-47.78,33.87-95.8,67.37c-5.13,3.6-10.33,7.09-15.49,10.64-9.29,3-16.94,8.91-25.28,13.66C375.38,593.06,361,612.65,336.35,611.71Z"/><path class="cls-1" d="M420.27,577.14a21.88,21.88,0,0,0,3.07-.77c5.1.2,9.59-.62,10.83-6.69,28.29-16.18,56.54-32.43,84.88-48.52,8-4.56,16.51-7.12,22.84,2.31,6.63,9.88.84,16-7.74,20.55-7.91,4.21-11.71,8.86-7.67,19.06,3.77,9.53-4.36,15.24-11.45,20.76-19.34,15.06-43.1,23.39-61.1,40.44-20.06,5.29-35.05,18.22-49.1,32.74,20.06-7.37,39.37-16,56.52-28.88,1.14-.19,2.27-.43,3.38-.72l3.59-2.63c11.94-5.58,26.29-15.06,35.23.28,9.49,16.27-8.68,22.37-18.16,30.08-9.3,7.57-20.25,13.08-30.31,19.76-3.33,2.22-7.72,4.68-8.91,8-13.45,37.54-53.25,39.38-79.81,59-9.52,7-21.26,11.39-32.42,15.86-10.77,4.32-21.09,5.05-22.21-11-.58-8.34-5.19-7.54-10.71-5-8.94,4-17.69,8.5-26.84,11.92-9.7,3.64-20.43,7.94-27.6-4-6.81-11.38,2.36-17.93,9-25,2-2.07,3.85-4.2,5.5-6-.23-4-2.91-3.51-5-3.53-7.06-.08-14.52.29-16.51-8.76-1.91-8.63.36-15.29,8.5-20.59,32.27-21,64.17-42.57,96.21-63.93C374.1,614.54,396.43,594.55,420.27,577.14Z"/><path class="cls-1" d="M357.37,295.65c19.72-3.48,31.44-20.12,47.79-29.17,3-1.64,5.07-4.75,7.88-6.73,21.73-15.27,30.52-12,36.54,13.53,5.9,1.42,8.61-5.24,13.95-5.48,6.33-.29,16.4-1.72,16.47,4.84.15,15.18,10.92,20.52,19.72,28.63s-4,15.49-2.2,23.35c3.14,2.48,5.74,1,8.54.35,14.78-3.25,22.39,3.35,19.4,18.09-1.32,6.54-1.5,10.46,4.55,14.51,12.87,8.61,9.11,18-1.71,24.18-32,18.38-64.46,35.85-96.81,53.57-6.77,3.7-13.43,3.67-18.64-2.9s-4.61-13.09,1.32-18.55c6.77-6.24,6.77-11.19-.86-16.65-2-1.41-4.17-6-3.36-7.32,8.86-14.82-6.63-27-4.07-41,.53-2.92-.46-6.35-3.75-6.89C385,339.23,387,327.9,391.52,314.74c-10.64-.38-17.15,12.71-27.58,6-10.21-6.52-5.39-16.58-6.44-25.27Z"/><path class="cls-1" d="M128.78,354.74c-6.82-.46-14.25.37-16.85-8.51-2.78-9.48,2.17-15.71,9.38-20.15,7.72-4.75,12.93-8.55,5.7-18.53-4.15-5.72-2.31-13.28,3.43-18.77,22.44-21.39,45.77-41.74,70.72-60.14,6.11-4.51,14.1-5.19,18.64,1.27,6.3,9,12,5.86,19,2.09,9.1-4.92,18.28-9.8,27.78-13.85,8.68-3.71,17.94-5.93,24.72,3.74,7,10-.58,16.49-7,21.74-14.56,12-29.9,23-44.92,34.35-31.2,16.95-57.77,40.75-87.82,59.45C143.53,342.43,133.24,344.89,128.78,354.74Z"/><path class="cls-1" d="M395.4,406.18c.49,17-4.54,32.71-11.88,47.8-4.41,9.07-12,13.84-21.8,14.44-39,2.4-84.43-15.73-103.34-55.15-21.32-44.42,6.82-91.57,56.53-93.43C360.53,318.14,395.39,355.53,395.4,406.18Zm-19.92-5.89c1.37-9.62-3.78-22.43-10.67-34.51-14.33-25.13-44.51-32.39-71.77-17.69-23.58,12.71-29.33,34.39-14.78,61.56,9.35,17.46,25.49,29,43.95,33.91C362.55,454.23,371.52,453.82,375.48,400.29Z"/><path class="cls-3" d="M128.78,354.74c4.46-9.85,14.75-12.31,22.79-17.31,30.05-18.7,56.62-42.5,87.82-59.45l.39,8.26c-9.38,13.82-25,19.3-38.2,27.74-24.41,15.61-46.28,35.11-72.72,47.58C128.83,359.29,128.81,357,128.78,354.74Z"/><path class="cls-3" d="M420.27,577.14c-23.84,17.41-46.17,37.4-76,44.67-1.89-4-7.65-4.9-7.95-10.11,24.63.95,39-18.64,57.79-29.32,8.34-4.75,16-10.65,25.28-13.66C419.24,571.57,416.13,574.72,420.27,577.14Z"/><path class="cls-3" d="M461.35,628.14C444.2,641,424.89,649.65,404.83,657c14.05-14.52,29-27.45,49.1-32.74C455.5,627.3,458.28,628,461.35,628.14Z"/><path class="cls-3" d="M315.34,548.18c12.13-15.15,32.28-15,47.35-25-10.88,11.5-22.5,21.64-36.53,28.7C325.42,542.15,318.51,550.68,315.34,548.18Z"/><path class="cls-3" d="M329.74,586.2c3.79-7.52,10.89-6.11,17.35-6.45l-.11-.11c-1.73,9.19-9.71,9.3-16.38,11.31C330.32,589.37,330,587.79,329.74,586.2Z"/><path class="cls-3" d="M434.17,569.68c-1.24,6.07-5.73,6.89-10.83,6.69C425.33,571.52,428.83,569.11,434.17,569.68Z"/><path class="cls-3" d="M468.32,624.79l-3.59,2.63Z"/><path class="cls-3" d="M247.28,282.19l-4.1,3.07Z"/><path class="cls-3" d="M347.09,579.75c.24-.45.47-.9.7-1.35l-.81,1.24Z"/></svg>