<svg id="Capa_1" data-name="Capa 1" xmlns="http://www.w3.org/2000/svg" viewBox="0 0 667.71 1024"><defs><style>.cls-1{fill:#fffffd;}.cls-2{fill:#f9e9e8;}.cls-3{fill:#15150f;}.cls-4{fill:#616160;}.cls-5{fill:#fff;}.cls-6{fill:#e6e7e7;}.cls-7{fill:#994269;}</style></defs><path class="cls-1" d="M204.43,452c0,.91.06,1.83.08,2.75l-1.76,2.49-4,2c-3.59-.45-5.83,1.38-7.4,4.35l-4.28,2c-.12-1.81-.59-3.36-2.74-3.62-.1-.54-.21-1.08-.32-1.61L182.89,459l-.37-.27c-.28-3-4-3.12-4.73-5.74l.13.05c2-.47,4.21,2.2,6.11-.33,4.83-1.42,9.74-.71,14.63-.63q1.5,1.93,2.84-.12Z"/><path class="cls-2" d="M184,452.74c-1.9,2.53-4.09-.14-6.11.33C179.88,451.58,182,452,184,452.74Z"/><path class="cls-2" d="M201.5,452q-1.33,2.06-2.84.12Z"/><path class="cls-3" d="M310.31,652c50.56,0,101.13-.06,151.69.11,4.52,0,5.56-1.2,5-5.15-.9-5.85-1.22-11.78-2-17.65-2.74-20.79-5.66-41.55-8.33-62.35-2.86-22.22-5.27-44.5-8.47-66.68-.65-4.46.69-5.91,4.57-6.71,9.27-1.92,18.64-3.44,27.78-5.79,45.74-11.8,83.4-35.28,112.44-70.55,32.31-39.24,49.38-84.29,54.62-133.34,3.18-29.72,2.44-59.44-4.46-88.82-9.09-38.68-26.67-73.17-54.8-103-27.75-29.4-59.93-51.88-100.4-63.48a405.41,405.41,0,0,0-98-15.74c-29.36-1-58.59.44-87.87,2.74A582.9,582.9,0,0,0,224.5,27.25c-28,6-53.65,17.11-78,31.59-39.21,23.28-73.69,50.68-96.6,89.4C35.57,172.4,23.57,197.4,18.59,224.88c-2.24,12.35-3.61,24.84-5.7,37.21-1.42,8.37-1.09,9,7.77,8.13,1.52-.14,3-.27,4.55-.47C46.52,267,68,266,89.42,264.11c26.16-2.28,52.38-3.89,78.57-5.94,29.79-2.35,59.57-4.83,89.44-6.05,5.12-.2,7.16-1.64,8-6.44a51.09,51.09,0,0,1,18.65-31.8c24-19.35,63.91-27.56,94.76-14.07,25.47,11.13,45.77,26.27,48.81,55.22,1.37,13.06-.86,24.89-9.63,35.36-9.14,10.91-21.77,17.23-34.62,23.08-24.46,11.15-50.79,16.73-77.24,21.42-40.84,7.24-81,17.54-122.29,22.73-2.61.33-3.37,1.42-3.55,3.82-.47,6.07-1.45,12.11-2,18.18-2.06,22.87-3.92,45.75-6,68.61-2.47,26.79-5.2,53.55-7.68,80.33-1.73,18.59-3.17,37.19-4.82,55.78-1.85,20.71-3.71,41.43-5.76,62.12-.44,4.41.83,5.67,5.74,5.65C210,651.91,260.13,652,310.31,652Z"/><path class="cls-3" d="M225,726.86c-22.42,21.67-16.65,64.08,6,82.53,11.53,10.87,27.84,13.4,41,6.36,15.14-8.09,21.48-21.75,17.47-37.68q-.15-7.52-.29-15c.44-5.46,2.92-10.88.49-16.4a58.62,58.62,0,0,0-12.87-18.8C261.14,712.71,239.49,712.32,225,726.86Zm120.44-20.74c-12.94-.93-23.27,4-31.87,12.66-10.37,10.39-15.67,23.07-18,37-3,17.88-.48,34.86,10.08,50.37a38.9,38.9,0,0,0,15.14,14.19c16,8.79,36.19,4,48.64-11.87,16.2-20.68,20-43.84,12.5-68.18C376.67,722.93,366.24,709.29,345.44,706.12ZM205.63,775.77c-.14-9.37-1.57-18.8,2.42-28.41a14.07,14.07,0,0,0-2.4,1c-32.3,24.1-51.73,55.2-57.13,93.8a151.7,151.7,0,0,0,6.3,68.52c9,27.59,24.67,51.39,49.8,68.28,37.34,25.09,79.29,33.5,124.48,26.49,30.54-4.73,59.22-14.17,83.74-32.7,47.59-36,67.55-82.49,57-139.11-5.54-29.86-18.68-57-43.16-78.2-13-11.29-27-21-44-28.15.84,2.18,1.31,3.49,1.84,4.78,12.51,30.15,8.85,58.24-14.11,82.6-16.17,17.16-42,20.21-61.39,3.08-6.31-5.57-10.61-12.41-14.43-19.83-1.43,2.28-2.64,4.31-4,6.27-14.18,21.27-40.49,25.53-61.49,10.1-10.93-8-16.77-19.16-21.86-30.81Q206.46,779.63,205.63,775.77ZM273,720.17c9.16,5.6,15,13.23,20.36,21.9,4.3-10.44,9.73-19.32,18-27.09-7,.71-13.13,1.26-19.27,2S279.67,717.49,273,720.17Z"/><path class="cls-3" d="M348.92,668.15c3.29,1.66,7,1.77,10.54,2.71l9,5.89,5.62,5.47c1.63,2.12,3.25,4.25,4.88,6.38a21.15,21.15,0,0,1,2.06,13c-6.48-1.76-11.76-6.12-18.4-7.53-4.21-2.39-9-2.71-13.68-3.29-4-1.64-8.38-1.27-12.57-1.86l-2.71-.4-1.08-3.09c0-.36,0-.73,0-1.09.44-2.51.89-5,1.34-7.54a26,26,0,0,0,3.32-8.67C341.16,665.2,345,668.94,348.92,668.15Z"/><path class="cls-3" d="M247,676c3.13-1.74,4.84.35,6.65,2.17.66,1.82,1.45,3.6,1.94,5.45,1,3.84,4.21,7,3.85,11.26-8.41,2.12-17.33,2.54-25.09,6.77-4.19.86-6.63,4.27-10.12,6.16-1.29.69-2.35,1.86-3.46-.09l0-4.58.69-1.45.14-1.19c.21-.67.41-1.34.61-2l5.36-9.8,5.85-5.07L245.08,677Z"/><path class="cls-4" d="M310.31,652c-50.18,0-100.36-.07-150.54.13-4.91,0-6.18-1.24-5.74-5.65,2.05-20.69,3.91-41.41,5.76-62.12,1.65-18.59,3.09-37.19,4.82-55.78,2.48-26.78,5.21-53.54,7.68-80.33,2.12-22.86,4-45.74,6-68.61.54-6.07,1.52-12.11,2-18.18.18-2.4.94-3.49,3.55-3.82,41.26-5.19,81.45-15.49,122.29-22.73,26.45-4.69,52.78-10.27,77.24-21.42,12.85-5.85,25.48-12.17,34.62-23.08,8.77-10.47,11-22.3,9.63-35.36-3-28.95-23.34-44.09-48.81-55.22-30.85-13.49-70.73-5.28-94.76,14.07a51.09,51.09,0,0,0-18.65,31.8c-.84,4.8-2.88,6.24-8,6.44-29.87,1.22-59.65,3.7-89.44,6.05-26.19,2.05-52.41,3.66-78.57,5.94C68,266,46.52,267,25.21,269.75c-1.51.2-3,.33-4.55.47-8.86.82-9.19.24-7.77-8.13,2.09-12.37,3.46-24.86,5.7-37.21,5-27.48,17-52.48,31.27-76.64,22.91-38.72,57.39-66.12,96.6-89.4,24.39-14.48,50-25.54,78-31.59a582.9,582.9,0,0,1,77.57-11.66c29.28-2.3,58.51-3.77,87.87-2.74a405.41,405.41,0,0,1,98,15.74c40.47,11.6,72.65,34.08,100.4,63.48,28.13,29.81,45.71,64.3,54.8,103,6.9,29.38,7.64,59.1,4.46,88.82C642.33,332.92,625.26,378,593,417.21c-29,35.27-66.7,58.75-112.44,70.55-9.14,2.35-18.51,3.87-27.78,5.79-3.88.8-5.22,2.25-4.57,6.71,3.2,22.18,5.61,44.46,8.47,66.68,2.67,20.8,5.59,41.56,8.33,62.35.78,5.87,1.1,11.8,2,17.65.6,3.95-.44,5.16-5,5.15C411.44,651.92,360.87,652,310.31,652Zm-21-614.1a204,204,0,0,0-65.14,6.79,271.09,271.09,0,0,0-86.31,40.11,289.57,289.57,0,0,0-52.68,47.34c-18.55,21.25-35.37,43.53-45.46,69.62-4.65,12-8.56,24.29-7.52,37.44A48,48,0,0,0,35,231.84,145.54,145.54,0,0,1,47,204.58c8.62-15.44,19.34-29.55,31.12-43a326.54,326.54,0,0,1,40.77-39c13.5-10.85,28.66-19.4,42.82-29.31A321,321,0,0,1,237.42,54.4C254.44,48.27,271.15,41.51,289.28,37.88ZM178.34,622.19l1.53.08c1.34-5.53,3.07-11,3.94-16.59,3.7-23.66,6.93-47.37,10.74-71,4.48-27.72,7.38-55.62,11.2-83.41,2-14.52,3.56-29.1,5.48-43.63.4-3-.57-4-3.65-3.47-2.05.37-4.11.78-6.18.95-2.31.19-3.49,1.19-3.54,3.38-.28,10.38-2.28,20.6-3.41,30.9-2.09,19.18-3.95,38.39-5.92,57.58-2.25,21.85-4.47,43.7-6.79,65.54-1.52,14.4-1.08,28.92-3.27,43.3C177.66,611.17,178.34,616.72,178.34,622.19Z"/><path class="cls-4" d="M207.27,783.48c5.09,11.65,10.93,22.78,21.86,30.81,21,15.43,47.31,11.17,61.49-10.1,1.32-2,2.53-4,4-6.27,3.82,7.42,8.12,14.26,14.43,19.83,19.4,17.13,45.22,14.08,61.39-3.08,23-24.36,26.62-52.45,14.11-82.6-.53-1.29-1-2.6-1.84-4.78,17,7.16,31,16.86,44,28.15,24.48,21.22,37.62,48.34,43.16,78.2,10.53,56.62-9.43,103.16-57,139.11-24.52,18.53-53.2,28-83.74,32.7-45.19,7-87.14-1.4-124.48-26.49-25.13-16.89-40.85-40.69-49.8-68.28a151.7,151.7,0,0,1-6.3-68.52c5.4-38.6,24.83-69.7,57.13-93.8a14.07,14.07,0,0,1,2.4-1c-4,9.61-2.56,19-2.42,28.41-9.28,5.15-16.26,12.61-23.13,20.22-6.69,7.41-10.23,16.56-15.78,24.58-1.36-.4-.86-2.92-3.05-2.43-.93,4.71,1.13,9.21.77,13.84a5,5,0,0,0-.87,1.35c-5.59,23.11-3,45.4,8.07,66.67,3.1,6,6.42,12,12.3,16.46-2.34-7.33-3.23-14.88-5.17-22.21-3.83-14.45-7-28.92-3.8-43.9.88.92,1.84,1.77,2.62,2.75,7.18,9.11,14.93,17.71,24.93,24.21,15.21,9.88,32.2,16.07,50,20,7.93,1.76,11.34,6.52,13.86,12.73,1,2.49,1.5,5.17,2.4,7.71,2.1,5.85.19,11.29-1.83,16.72-1.4,3.77-6.16,2.58-8.38,4.75-5.42,5.3-10.35,4.56-16.62,1-4.48-2.54-11.36,1.54-10.25,5.65,1.57,5.82,1.58,9.89-5.66,11.49a2.16,2.16,0,0,0-1.53,2.58c.51,1.35,1.86.73,3,.64,4.45-.4,8.82-2.18,13.59-.3.77-5.52-1.93-10-3.26-15.32,3.9,1,6.39,3.23,9.07,5.07,4.15,2.84,8,6.12,12.83,8,17.31,6.76,35,11,54.15,10.1,15.18-.72,29.54-4.12,41.08-12.64,20.68-15.27,39.94-32.08,48.94-56.73,2.86-7.81,5.22-16.19,11.74-22.43,10.66-10.2,17.88-22.14,20.75-36.26.87-4.3,2.58-4.79,6.33-2.31,5.37,3.54,8.92,8.66,13.53,13.31.49-15.35-20.88-26.13-38.11-26.28-.15,6.74,5.6,6.28,10.11,7.15,3.09.61,4.26,1.26,3.52,4.92-5.27,25.92-21.6,42.75-47.34,52-17.79,6.37-36.6,7.64-55.32,9.19-31.05,2.57-61.53.34-91.2-9.22-26.59-8.56-47.75-23.33-61.29-47C181.68,820,190.64,799.94,207.27,783.48Z"/><path class="cls-5" d="M305.69,806.1c-10.56-15.51-13-32.49-10.08-50.37,2.29-13.88,7.59-26.56,18-37,8.6-8.62,18.93-13.59,31.87-12.66-.72,3.9,2.46,4.78,5.23,5.9,4.93,2,9.46,4.52,12.91,8.49,13.62,15.71,18.13,33.5,13.77,53.35-3.05,13.83-7.28,26.93-21.33,34.81-12.31,6.91-24.78,8.53-38.18,2.56C313.86,809.45,310.91,805.27,305.69,806.1Zm48-34.14c0-8.05-1-12.08-3.73-15.57-3.7-4.77-8.81-5.11-12.65-.84-6.43,7.13-6.79,23.37-.69,30.8,4,4.91,9.46,4.79,13.07-.39C352.84,781.5,354.28,776.58,353.73,772Z"/><path class="cls-5" d="M231,809.39c-22.61-18.45-28.38-60.86-6-82.53,1.95,2.86,3.62.48,5.1-.4,11.43-6.82,23.4-5.53,34.94-1.14,6.65,2.53,11.34,8.35,15.28,13.91,2.82,4,5.34,8.34,6.05,13.62.45,3.29-.74,7.48,2.8,10.19q.15,7.51.29,15c-2.46,2.89-2,6.71-3,10-6,20-30.48,30.27-51.29,21.34A4.3,4.3,0,0,0,231,809.39Zm46.23-37.5c0-4.59-.26-8.42-2.62-11.95-3.82-5.72-8.26-6-12.3-.5-4.48,6.06-4.62,18.64-.29,24.49,3.2,4.32,8.53,4.36,11.62,0C276.27,780.09,277.7,775.89,277.19,771.89Z"/><path class="cls-6" d="M305.69,806.1c5.22-.83,8.17,3.35,12.15,5.13,13.4,6,25.87,4.35,38.18-2.56,14.05-7.88,18.28-21,21.33-34.81,4.36-19.85-.15-37.64-13.77-53.35-3.45-4-8-6.49-12.91-8.49-2.77-1.12-5.95-2-5.23-5.9,20.8,3.17,31.23,16.81,36.53,34.12,7.46,24.34,3.7,47.5-12.5,68.18-12.45,15.91-32.64,20.66-48.64,11.87A38.9,38.9,0,0,1,305.69,806.1Z"/><path class="cls-5" d="M207.27,783.48c-16.63,16.46-25.59,36.5-30.67,58.35a48.28,48.28,0,0,1-9.88-21.26c5.55-8,9.09-17.17,15.78-24.58,6.87-7.61,13.85-15.07,23.13-20.22Q206.46,779.63,207.27,783.48Z"/><path class="cls-6" d="M231,809.39a4.3,4.3,0,0,1,4.18,0C256,818.31,280.42,808,286.43,788c1-3.26.57-7.08,3-10,4,15.93-2.33,29.59-17.47,37.68C258.8,822.79,242.49,820.26,231,809.39Z"/><path class="cls-4" d="M273,720.17c6.7-2.68,13-2.47,19.11-3.2s12.31-1.28,19.27-2c-8.29,7.77-13.72,16.65-18,27.09C287.93,733.4,282.13,725.77,273,720.17Z"/><path class="cls-6" d="M289.17,763c-3.54-2.71-2.35-6.9-2.8-10.19-.71-5.28-3.23-9.65-6.05-13.62-3.94-5.56-8.63-11.38-15.28-13.91-11.54-4.39-23.51-5.68-34.94,1.14-1.48.88-3.15,3.26-5.1.4,14.49-14.54,36.14-14.15,51.79,1a58.62,58.62,0,0,1,12.87,18.8C292.09,752.16,289.61,757.58,289.17,763Z"/><path class="cls-5" d="M289.28,37.88c-18.13,3.63-34.84,10.39-51.86,16.52a321,321,0,0,0-75.75,38.92c-14.16,9.91-29.32,18.46-42.82,29.31a326.54,326.54,0,0,0-40.77,39C66.3,175,55.58,189.14,47,204.58A145.54,145.54,0,0,0,35,231.84a48,48,0,0,1-2.86,7.34c-1-13.15,2.87-25.43,7.52-37.44,10.09-26.09,26.91-48.37,45.46-69.62a289.57,289.57,0,0,1,52.68-47.34,271.09,271.09,0,0,1,86.31-40.11A204,204,0,0,1,289.28,37.88Z"/><path class="cls-5" d="M178.34,622.19c0-5.47-.68-11,.13-16.38,2.19-14.38,1.75-28.9,3.27-43.3,2.32-21.84,4.54-43.69,6.79-65.54,2-19.19,3.83-38.4,5.92-57.58,1.13-10.3,3.13-20.52,3.41-30.9,0-2.19,1.23-3.19,3.54-3.38,2.07-.17,4.13-.58,6.18-.95,3.08-.55,4,.43,3.65,3.47-1.92,14.53-3.48,29.11-5.48,43.63-3.82,27.79-6.72,55.69-11.2,83.41-3.81,23.64-7,47.35-10.74,71-.87,5.59-2.6,11.06-3.94,16.59Z"/><path class="cls-3" d="M166.72,820.57a48.28,48.28,0,0,0,9.88,21.26c13.53,23.63,34.69,38.4,61.28,47,29.67,9.56,60.15,11.79,91.2,9.22,18.72-1.55,37.53-2.82,55.32-9.19,25.74-9.21,42.07-26,47.34-52,.74-3.66-.43-4.31-3.52-4.92-4.51-.87-10.26-.41-10.11-7.15,17.23.15,38.6,10.93,38.11,26.28-4.61-4.65-8.16-9.77-13.53-13.31-3.75-2.48-5.46-2-6.33,2.31-2.87,14.12-10.09,26.06-20.75,36.26-6.52,6.24-8.88,14.62-11.74,22.43-9,24.65-28.26,41.46-48.94,56.73-11.54,8.52-25.9,11.92-41.08,12.64C294.7,969,277,964.79,259.7,958c-4.78-1.86-8.68-5.14-12.83-8-2.68-1.84-5.17-4-9.07-5.07,1.33,5.29,4,9.8,3.26,15.32-4.77-1.88-9.14-.1-13.59.3-1.1.09-2.45.71-3-.64a2.16,2.16,0,0,1,1.53-2.58c7.24-1.6,7.23-5.67,5.66-11.49-1.11-4.11,5.77-8.19,10.25-5.65,6.27,3.56,11.2,4.3,16.62-1,2.22-2.17,7-1,8.38-4.75,2-5.43,3.93-10.87,1.83-16.72-.9-2.54-1.38-5.22-2.4-7.71-2.52-6.21-5.93-11-13.86-12.73-17.8-4-34.79-10.14-50-20-10-6.5-17.75-15.1-24.93-24.21-.78-1-1.74-1.83-2.62-2.75A96.15,96.15,0,0,1,164.44,832c.36-4.63-1.7-9.13-.77-13.84C165.86,817.65,165.36,820.17,166.72,820.57ZM264,941.8c-1.71.33-3.47.6-4.4,2.29-5.86,3.43-5.84,3.63-.43,7.3s11.43,5.55,17.59,7.32c15.4,4.42,31,6.94,47.12,4.06,3.74-.67,9.76-1,10.15-4.16.47-3.92-3.81-7.46-7.78-9.89-11.21-6.86-29.72-5.83-40.21,2.11-1.57,1.19-2.68,3.43-5.36,3.24a9.06,9.06,0,0,1,3.18-5.94c2.24-2.17,1.84-3.55-.83-4.63C276.89,941,270.7,938.88,264,941.8Zm121.46-48.38A331.26,331.26,0,0,1,269,901.19c1.61,3.72,3.1,7.19,4.6,10.65.88,7.78,4.18,15.54.17,23.37-.76,1.5.05,2,1.63,2.57,8.95,3.29,17.36,6.24,27.76,3.56,12-3.07,23.21.33,31.27,10.19,5.11,6.25,5.12,6.24,12.64,2.66a31.07,31.07,0,0,0,3-1.59c13.84-8.76,25-20.22,35.81-32,2.92-3.16,5.7-6.65,6.36-11.08,5.62-7,8.12-15.08,10.93-23.9Z"/><path class="cls-5" d="M164.44,832A96.15,96.15,0,0,0,175,850.35c-3.24,15,0,29.45,3.8,43.9,1.94,7.33,2.83,14.88,5.17,22.21-5.88-4.48-9.2-10.49-12.3-16.46-11.06-21.27-13.66-43.56-8.07-66.67A5,5,0,0,1,164.44,832Z"/><path class="cls-3" d="M353.73,772c.55,4.62-.89,9.54-4,14-3.61,5.18-9.05,5.3-13.07.39-6.1-7.43-5.74-23.67.69-30.8,3.84-4.27,8.95-3.93,12.65.84C352.72,759.88,353.73,763.91,353.73,772Zm-3.4-5.32c-.15-2.31-.69-4.79-3.56-4.5s-3.69,2.88-3.53,5.35c.12,2,.55,4.2,3.35,4.13C350,771.54,350.08,769,350.33,766.64Z"/><path class="cls-3" d="M277.19,771.89c.51,4-.92,8.2-3.59,12-3.09,4.4-8.42,4.36-11.62,0-4.33-5.85-4.19-18.43.29-24.49,4-5.47,8.48-5.22,12.3.5C276.93,763.47,277.21,767.3,277.19,771.89Zm-5.66-8.11a4.08,4.08,0,0,0-3.47,4.34c0,1.56.67,3.74,3.25,3.63s2.74-2.34,2.92-3.94S273.86,764.24,271.53,763.78Z"/><path class="cls-7" d="M392.23,909.57c-.66,4.43-3.44,7.92-6.36,11.08-10.83,11.73-22,23.19-35.81,32a31.07,31.07,0,0,1-3,1.59c-7.52,3.58-7.53,3.59-12.64-2.66-8.06-9.86-19.29-13.26-31.27-10.19-10.4,2.68-18.81-.27-27.76-3.56-1.58-.58-2.39-1.07-1.63-2.57,4-7.83.71-15.59-.17-23.37,2.24.32,4.47.83,6.72.95,33.2,1.81,66.37,2.45,99.41-2.25Z"/><path class="cls-5" d="M379.76,910.54c-33,4.7-66.21,4.06-99.41,2.25-2.25-.12-4.48-.63-6.72-.95-1.5-3.46-3-6.93-4.6-10.65a331.26,331.26,0,0,0,116.43-7.77c1.36.88,1,2,.75,3.28C385.31,901.86,382.62,906.22,379.76,910.54Z"/><path class="cls-6" d="M264,941.8c6.7-2.92,12.89-.76,19,1.7,2.67,1.08,3.07,2.46.83,4.63a9.06,9.06,0,0,0-3.18,5.94c2.68.19,3.79-2.05,5.36-3.24,10.49-7.94,29-9,40.21-2.11,4,2.43,8.25,6,7.78,9.89-.39,3.18-6.41,3.49-10.15,4.16-16.08,2.88-31.72.36-47.12-4.06-6.16-1.77-12.26-3.7-17.59-7.32s-5.43-3.87.43-7.3l.38.37c-.46,1.69-.13,2.87,2,2.82a4.5,4.5,0,0,0,4-2.62c.78-1.45.16-2.4-1.7-2.4A3.46,3.46,0,0,0,264,941.8Z"/><path class="cls-6" d="M379.76,910.54c2.86-4.32,5.55-8.68,6.45-13.84.23-1.3.61-2.4-.75-3.28l17.7-7.75c-2.81,8.82-5.31,17-10.93,23.9Z"/><path class="cls-6" d="M259.6,944.09c.93-1.69,2.69-2,4.4-2.29a3.46,3.46,0,0,1,.32.46l-4.34,2.2Z"/><path class="cls-6" d="M350.33,766.64c-.25,2.31-.34,4.9-3.74,5-2.8.07-3.23-2.17-3.35-4.13-.16-2.47.68-5.06,3.53-5.35S350.18,764.33,350.33,766.64Z"/><path class="cls-6" d="M271.53,763.78c2.33.46,2.89,2.3,2.7,4s-.32,3.83-2.92,3.94-3.28-2.07-3.25-3.63A4.08,4.08,0,0,1,271.53,763.78Z"/><path class="cls-5" d="M260,944.46l4.34-2.2c1.86,0,2.48,1,1.7,2.4a4.5,4.5,0,0,1-4,2.62C259.85,947.33,259.52,946.15,260,944.46Z"/></svg>