<svg id="Capa_1" data-name="Capa 1" xmlns="http://www.w3.org/2000/svg" viewBox="0 0 667.71 1024"><defs><style>.cls-1{fill:#131312;}.cls-2{fill:#d1d3d2;}.cls-3{fill:#88451f;}.cls-4{fill:#f6f7f7;}.cls-5{fill:#a0a2a1;}</style></defs><path class="cls-1" d="M526.78,829c-5.33.43-10.2-1.49-15.13-3-24.09-15.28-42.95-36.33-62.34-56.74C437.2,756.5,425.57,743.3,414,730.1c-3.23-3.66-5-3.81-8,.33-5.79,8-13,14.4-23,16.72-7.82,1.82-9.34.47-8.43-7.15,1.93-16,1.93-16-13.64-18.69-11.91-2-11.83-2-9.06-14,1.25-5.42,5.29-11.59,2.89-16.08s-9.82-4.59-15-6.6c-14-5.45-14.24-5.38-12.58-20.07.48-4.18-.31-6.33-4.69-7-3.32-.51-6.5-2.07-9.82-2.42-6.7-.73-7.59-4.2-6.37-10.13,2.94-14.32,2.81-14.72-11.42-18-6-1.41-8.28-3.79-7.33-10,.81-5.32.43-10.81.93-16.19.36-3.87-1-5.95-4.81-6.69-1.76-.34-3.38-1.37-5.13-1.67-9.85-1.71-15.6-6.51-13.93-17.45.52-3.46-1.39-5.28-4.74-6.22-5.42-1.52-10.66-3.68-16.11-5.08-4.29-1.11-5.79-3.08-5-7.62,1.06-5.72,3.57-12.75.71-17.1-3-4.53-10.73-3.14-16.41-4.16-3.76-.68-4.8-2.39-4.53-5.95.45-6.06.43-12.17.88-18.24.23-3.18-.75-5.08-3.88-6.08-2.56-.81-5-2.08-7.48-3.11-13.89-5.72-14.29-5.74-13.34-20.32.47-7.2-1.17-10.28-8.91-11.17-14.28-1.66-14.58-2.28-11.58-16.54,1.44-6.8.09-9.76-7-11.89-17-5.14-17.19-5.6-15.86-23.5.47-6.33-1.36-8.87-7.55-9.53-5.05-.53-12,.2-14.54-3.46-2.7-3.84,1.31-9.8,2.8-14.62,1.79-5.81-.28-7-5.47-7.22-6.07-.3-12.08-1.53-18.14-2-3.22-.27-4.19-1.58-4-4.71.54-7,.62-14,1.23-20.93.37-4.23-.48-7.1-5.27-7.45a4,4,0,0,1-.65-.19c-15.64-4.47-15.9-4.46-16.7-21.09-.26-5.31-2.22-7.25-7.14-8.43-16.2-3.9-16.16-4.08-13.65-20.38.3-2,.64-4,1.11-6,.61-2.52-.34-3.87-2.84-4.26a10.78,10.78,0,0,0-2-.31c-13.09.51-18.75-7-20.39-18.85-.8-5.76-3.29-10-9.53-11.47-1.85-.42-3.51-2-5.06-3.29-9.63-8-9.68-12,.09-19.24,26.79-19.89,54-39.23,82.62-56.37,16.8-10.05,32.3-6.62,45.8,7.66,10.49,11.09,22.65,20.62,34.18,30.72q137,120.17,274.14,240.29c1.85,1.62,3.61,3,6.31,3.51,27.82,4.95,49.74,20.15,68.53,40.38A28.51,28.51,0,0,1,543,521.13c-.13,6.86,4.73,11.07,9.25,15a132.54,132.54,0,0,0,37.39,22.73c19,7.77,36.37,17.94,50.52,33,9.2,9.81,15.72,20.82,15.27,34.93-.63,19.76-17.11,34-36.66,31.5-3.39-.44-6.68-.73-10,.64-4.67,1.94-7.24,4.59-7.84,10.35-2.61,25-14.52,46.12-28.72,66.18a258.42,258.42,0,0,1-25.75,30.41,6.22,6.22,0,0,0-4,4.12l-1.27,1.41C534,776.07,538.45,782.28,539,788l0,10.85c-1.55,2.63-1.49,5.46-1.09,8.33l-.33,2.5a4.27,4.27,0,0,0-1.2,4.2c-.84,2.45-1.67,4.91-2.51,7.36a3,3,0,0,0-1.65,3.42,2.3,2.3,0,0,0-.55.86,4.48,4.48,0,0,0-2.77,2.58ZM438.63,497c8.22-7-1-9.28-3.93-11.89Q342.8,403.72,250.48,322.8q-59.41-52.28-118.73-104.66c-2.15-1.9-4.12-4.56-7.59-2.82-7.41,3.71-15.15,6.83-22,11.57-5.73,2.63-11.47,5.23-17.17,7.92-2.46,1.17-4.56,2.86-6.57-1-2.09-4,.75-4.61,3.12-5.79,13.32-6.63,26.81-12.93,39.88-20,5.09-2.76,8-2.09,12.26,1.62Q284,342.36,434.65,474.79c3.53,3.11,7.4,8.56,10.86,8.37,4.65-.25,4.68-7.69,7.63-11.44s2-6.36-1.55-9.51Q316.37,344,181.35,225.6C169,214.76,156,204.49,144.55,192.73c-10.68-11-20.66-13.55-33.87-5.47C102,192.56,93.34,197.82,85,203.52c-12.83,8.7-26.1,16.8-37.86,27-5.5,2.27-9.68,6.48-14.45,9.82-5.37,3.76-5.23,5,.53,8,1.39.74,2.9,1.65,4.38,1.71,5.66.23,7.84,3.51,8.27,8.61,1.09,13,7.33,20.61,21.19,20.09,7.73-.29,8.72,3.69,7.13,10.14-1.34,5.44-4.14,12-2.31,16.36,2.16,5.18,10.18,4.25,15.63,5.88,3.45,1,4.75,2.49,4.94,6,.33,6-.72,13.3,2.26,17.74s11,4.13,16.79,5.59c3.79.95,5.08,2.76,4.7,6.67-.65,6.73-.69,13.51-1.2,20.26-.25,3.37.75,4.91,4.37,5.08,5.17.24,10.32.94,15.47,1.59,13.8,1.76,11.37.23,8.51,12-2.81,11.6-3,11.56,8.85,13.82,9.47,1.8,9.47,1.8,9.13,11.39-.63,18.17-.71,18.48,17.29,23.55,6.55,1.84,8.46,4.55,7.05,11.23-2.89,13.66-2.61,14,11,15.74,6.36.8,8.48,3,8.16,9.69-.86,17.84-.6,18.17,16.23,24.34,6.51,2.38,9,5.27,8.38,12.61-1.49,16.8-1,16.9,15.38,19.82,4.47.8,7.54,1.84,6.08,7.67-1.14,4.54-.82,9.42-1.53,14.09-.54,3.57.62,5.42,4.07,6.41,5.41,1.56,10.67,3.67,16.11,5.11,3.47.92,5.1,2.7,4.62,6.18-1.45,10.41,3.37,15.85,13.43,17.29.88.12,1.7.66,2.58.79,7,1.11,10.09,4.59,8.32,12.07-.91,3.88-.12,8.13-.69,12.13-.78,5.44,1,7.84,6.58,9.18,16.06,3.84,16.28,4.19,13.05,20.09-1.1,5.42.56,7,5.41,8.26,15.1,4,15.25,4.15,13.88,20-.38,4.35,1.21,6,4.91,7.28,7.26,2.43,14.38,5.29,21.64,7.72,3.43,1.15,4.58,2.89,3.53,6.47-1.69,5.85-2.9,11.83-4.57,17.67-1,3.43-.08,5.12,3.5,5.48,2.24.22,4.46.66,6.68,1,13.82,2.42,13.82,2.42,13.11,16.66a24.85,24.85,0,0,0-.19,2.7c.08,1.62.74,2.35,2.56,1.78,3.61-1.12,15.78-15.44,15.76-18.93a5.9,5.9,0,0,0-1.16-3.09c-8-11.51-12.39-24.46-15.49-37.94-2.2-25.09,7.55-45.4,24.11-63.6,10.7-11.75,18-25.87,22.58-41.18,3-10.07,4.72-20.16.45-30.39C427.84,524.29,429,510.16,438.63,497ZM522,817.63c-5.66-5.46-11.41-10.81-17-16.38-18.28-18.37-36.66-36.61-53.67-56.22-10.91-12.58-20.3-26.38-32.05-38.29C413,700.31,409,692.07,405.9,683.49c-6-16.86-5.08-33.15,6.53-47.12a217.6,217.6,0,0,0,24.18-35.71c10.95-20.25,15.65-41.69,10.23-64.44-4.77-20,5.58-34.11,17.2-48,1.36-1.63,3-2,4.68-.4s1,3.38-.45,4.63c-3.38,2.83-5.14,6.84-7.53,10.34-6.8,10-10.26,20.38-7.48,33.07,5.15,23.56.54,46-10.62,67.29a187.39,187.39,0,0,1-24.06,35.66c-13.53,15.67-12.56,34-1.44,53.5,8.14,14.3,21,25,31,38.06,18.22,23.83,40.44,44.15,60.8,66.1,1.33,1.44,2.63,3.19,5.57,2.39,0-7.08-.39-14.28.1-21.43.56-8.07,1.71-16.15,6.22-23.2.91-1.43,2.14-3.34,4.33-2,1.47.92,3.33,2.23,2.07,4.34-8,13.23-6,27.85-5.88,42.16.06,5.29,1.38,10.57,2.16,16.09a4.57,4.57,0,0,0,3.1-3.77,69.57,69.57,0,0,0,1.21-33.4c-.87-4.24.29-7,3.19-10.07,14.1-15.14,28.84-29.75,39.7-47.64,11.32-18.64,21.1-37.74,20.9-60.34,0-1.56-.23-3.63,1.49-4.19,8.12-2.66,14.88-9.37,24.67-7.32,5.61,1.17,11.55,1.42,16.82-2.6,11.82-9,14.47-22.65,6.44-35.91-9.54-15.77-23.81-26.29-40-34.19-17.79-8.7-36.28-16.09-51.87-28.7-7.58-6.13-15.28-12.63-15.76-23.31a28.42,28.42,0,0,0-8.92-19.77,141.74,141.74,0,0,0-51.73-32.21c-5.37-1.95-8.12-.59-10.69,4.37-4.53,8.76-7.46,18.4-14.22,26-9.39,10.5-9.85,22.23-4.26,34.59,3.57,7.91,3.89,16.08,2.39,24.45-4.28,23.82-16.43,43.62-31.8,61.7-14.08,16.55-21.15,34.86-15.54,56.77,4.43,17.29,13.69,32,24.32,46,4.76,6.25,10.32,11.91,15.68,17.69,20.16,21.77,40,43.89,62.6,63.22C507.13,811.26,513,816.65,522,817.63Z"/><path class="cls-2" d="M47.09,230.51c11.76-10.19,25-18.29,37.86-27,8.39-5.7,17.07-11,25.73-16.26,13.21-8.08,23.19-5.5,33.87,5.47,11.44,11.76,24.42,22,36.8,32.87Q316.41,344,451.59,462.21c3.59,3.15,4.57,5.66,1.55,9.51s-3,11.19-7.63,11.44c-3.46.19-7.33-5.26-10.86-8.37q-150.57-132.51-301-265.15c-4.21-3.71-7.17-4.38-12.26-1.62-13.07,7.08-26.56,13.38-39.88,20-2.37,1.18-5.21,1.78-3.12,5.79,2,3.85,4.11,2.16,6.57,1,5.7-2.69,11.44-5.29,17.17-7.92,3.1,1.07,6.16.18,9.28,0,8.35-.48,17.52-3.8,24.76,2.32,16.63,14.06,32.68,28.8,49,43.23q17.16,15.18,34.42,30.24,35.78,31.18,71.62,62.29c12.53,10.87,25.16,21.62,37.66,32.51,14,12.23,28.74,23.74,42.51,36.19,19.43,17.57,39.17,34.76,59,51.87,3.59,3.09,8.65,5.37,8.24,11.45-9.68,13.18-10.79,27.31-4.57,42.19,4.27,10.23,2.59,20.32-.45,30.39C429,584.87,421.73,599,411,610.74c-16.56,18.2-26.31,38.51-24.11,63.6-6.11-3.07-8.79-9.38-12.65-14.32-17.34-22.26-33.91-45.13-50.93-67.65-10.78-14.26-21.91-28.25-32.8-42.42q-36.06-47-72-94-33.89-44.4-67.63-88.91c-9.52-12.49-19.16-24.89-28.73-37.33-14.63-19-29.36-37.95-43.85-57.06C67.74,258.72,57.48,244.56,47.09,230.51Z"/><path class="cls-3" d="M522,817.63c-9.08-1-14.91-6.37-20.82-11.43-22.61-19.33-42.44-41.45-62.6-63.22-5.36-5.78-10.92-11.44-15.68-17.69-10.63-13.95-19.89-28.7-24.32-46-5.61-21.91,1.46-40.22,15.54-56.77,15.37-18.08,27.52-37.88,31.8-61.7,1.5-8.37,1.18-16.54-2.39-24.45-5.59-12.36-5.13-24.09,4.26-34.59,6.76-7.57,9.69-17.21,14.22-26,2.57-5,5.32-6.32,10.69-4.37a141.74,141.74,0,0,1,51.73,32.21,28.42,28.42,0,0,1,8.92,19.77c.48,10.68,8.18,17.18,15.76,23.31,15.59,12.61,34.08,20,51.87,28.7,16.16,7.9,30.43,18.42,40,34.19,8,13.26,5.38,26.9-6.44,35.91-5.27,4-11.21,3.77-16.82,2.6-9.79-2-16.55,4.66-24.67,7.32-1.72.56-1.5,2.63-1.49,4.19.2,22.6-9.58,41.7-20.9,60.34-10.86,17.89-25.6,32.5-39.7,47.64-2.9,3.11-4.06,5.83-3.19,10.07a69.57,69.57,0,0,1-1.21,33.4,4.57,4.57,0,0,1-3.1,3.77c-.78-5.52-2.1-10.8-2.16-16.09-.16-14.31-2.08-28.93,5.88-42.16,1.26-2.11-.6-3.42-2.07-4.34-2.19-1.37-3.42.54-4.33,2-4.51,7-5.66,15.13-6.22,23.2-.49,7.15-.1,14.35-.1,21.43-2.94.8-4.24-1-5.57-2.39-20.36-22-42.58-42.27-60.8-66.1-10-13-22.82-23.76-31-38.06-11.12-19.52-12.09-37.83,1.44-53.5a187.39,187.39,0,0,0,24.06-35.66c11.16-21.24,15.77-43.73,10.62-67.29-2.78-12.69.68-23.11,7.48-33.07,2.39-3.5,4.15-7.51,7.53-10.34,1.5-1.25,2.24-3,.45-4.63s-3.32-1.23-4.68.4c-11.62,13.87-22,28-17.2,48,5.42,22.75.72,44.19-10.23,64.44a217.6,217.6,0,0,1-24.18,35.71c-11.61,14-12.57,30.26-6.53,47.12,3.08,8.58,7.11,16.82,13.46,23.25,11.75,11.91,21.14,25.71,32.05,38.29,17,19.61,35.39,37.85,53.67,56.22C510.63,806.82,516.38,812.17,522,817.63Zm53.45-206.36c-1-5.4,1.09-11.2-2-16.9-5.26-9.75-13.34-15.62-23.52-18.92-7.2-2.33-14.63-6.11-22.17-3.9-13,3.8-21.28,12.58-24.24,26.35-4.63,21.5-12.12,42-26.05,59.32-5.91,7.35-12.57,14.09-17.58,22.17-4.25,6.86-7.11,14.12-5.51,22.29,2.69,13.65,27.76,27.65,43.39,24.73,25.75-4.81,43.64-20.7,57.05-41.78C568.94,662.53,575.17,637.77,575.49,611.27ZM506.33,524c0-12.74-8.47-21.39-20.93-21.43-11.16,0-20.95,9.83-21,21.16,0,11.66,10.13,22.06,21.26,21.74A21.19,21.19,0,0,0,506.33,524Zm-84,131.78a21.16,21.16,0,0,0,21.89,20.82c10-.32,20.33-11.1,20-20.95A21.23,21.23,0,0,0,443,634.86C430.83,635,422.24,643.63,422.31,655.74Zm30.93-63.88a19.92,19.92,0,0,0,19.88,20.27,20.4,20.4,0,0,0,21.13-20.7c.08-11.88-9.32-21.16-21.53-21.25C462,570.1,453.26,579.77,453.24,591.86Zm175.5,41.93a17.52,17.52,0,0,0,2.17,0c2.09-.14,4.87.79,5.27-2.55s-2.59-3.26-4.55-3.76c-11.36-2.88-27.31,3.81-32.07,13.32-.91,1.82-2.14,3.79.13,5.37s4.1.61,5.49-1.71C610.26,636,618.23,633.43,628.74,633.79Z"/><path class="cls-4" d="M47.09,230.51c10.39,14.05,20.65,28.21,31.22,42.14,14.49,19.11,29.22,38.05,43.85,57.06,9.57,12.44,19.21,24.84,28.73,37.33q33.86,44.43,67.63,88.91,35.92,47.06,72,94c10.89,14.17,22,28.16,32.8,42.42,17,22.52,33.59,45.39,50.93,67.65,3.86,4.94,6.54,11.25,12.65,14.32,3.1,13.48,7.51,26.43,15.49,37.94a5.9,5.9,0,0,1,1.16,3.09c0,3.49-12.15,17.81-15.76,18.93-1.82.57-2.48-.16-2.56-1.78a24.85,24.85,0,0,1,.19-2.7c.71-14.24.71-14.24-13.11-16.66-2.22-.39-4.44-.83-6.68-1-3.58-.36-4.49-2.05-3.5-5.48,1.67-5.84,2.88-11.82,4.57-17.67,1-3.58-.1-5.32-3.53-6.47-7.26-2.43-14.38-5.29-21.64-7.72-3.7-1.24-5.29-2.93-4.91-7.28,1.37-15.82,1.22-16-13.88-20-4.85-1.27-6.51-2.84-5.41-8.26,3.23-15.9,3-16.25-13.05-20.09-5.6-1.34-7.36-3.74-6.58-9.18.57-4-.22-8.25.69-12.13,1.77-7.48-1.29-11-8.32-12.07-.88-.13-1.7-.67-2.58-.79-10.06-1.44-14.88-6.88-13.43-17.29.48-3.48-1.15-5.26-4.62-6.18-5.44-1.44-10.7-3.55-16.11-5.11-3.45-1-4.61-2.84-4.07-6.41.71-4.67.39-9.55,1.53-14.09,1.46-5.83-1.61-6.87-6.08-7.67-16.42-2.92-16.87-3-15.38-19.82.65-7.34-1.87-10.23-8.38-12.61-16.83-6.17-17.09-6.5-16.23-24.34.32-6.73-1.8-8.89-8.16-9.69-13.57-1.71-13.85-2.08-11-15.74,1.41-6.68-.5-9.39-7.05-11.23-18-5.07-17.92-5.38-17.29-23.55.34-9.59.34-9.59-9.13-11.39-11.82-2.26-11.66-2.22-8.85-13.82,2.86-11.76,5.29-10.23-8.51-12-5.15-.65-10.3-1.35-15.47-1.59-3.62-.17-4.62-1.71-4.37-5.08.51-6.75.55-13.53,1.2-20.26.38-3.91-.91-5.72-4.7-6.67-5.84-1.46-13.73-1-16.79-5.59s-1.93-11.7-2.26-17.74c-.19-3.49-1.49-4.95-4.94-6-5.45-1.63-13.47-.7-15.63-5.88-1.83-4.39,1-10.92,2.31-16.36,1.59-6.45.6-10.43-7.13-10.14-13.86.52-20.1-7.09-21.19-20.09-.43-5.1-2.61-8.38-8.27-8.61-1.48-.06-3-1-4.38-1.71-5.76-3.07-5.9-4.28-.53-8C37.41,237,41.59,232.78,47.09,230.51Z"/><path class="cls-5" d="M438.63,497c.41-6.08-4.65-8.36-8.24-11.45-19.83-17.11-39.57-34.3-59-51.87-13.77-12.45-28.48-24-42.51-36.19-12.5-10.89-25.13-21.64-37.66-32.51q-35.84-31.11-71.62-62.29-17.28-15.06-34.42-30.24c-16.32-14.43-32.37-29.17-49-43.23-7.24-6.12-16.41-2.8-24.76-2.32-3.12.19-6.18,1.08-9.28,0,6.87-4.74,14.61-7.86,22-11.57,3.47-1.74,5.44.92,7.59,2.82q59.37,52.32,118.73,104.66,92.15,81.1,184.22,162.29C437.64,487.7,446.85,490,438.63,497Z"/><path class="cls-1" d="M575.49,611.27c-.32,26.5-6.55,51.26-20.62,73.36-13.41,21.08-31.3,37-57.05,41.78-15.63,2.92-40.7-11.08-43.39-24.73-1.6-8.17,1.26-15.43,5.51-22.29,5-8.08,11.67-14.82,17.58-22.17,13.93-17.37,21.42-37.82,26.05-59.32,3-13.77,11.22-22.55,24.24-26.35,7.54-2.21,15,1.57,22.17,3.9,10.18,3.3,18.26,9.17,23.52,18.92C576.58,600.07,574.51,605.87,575.49,611.27Zm-26.76,4.5a131.68,131.68,0,0,0-3-26.89c-.47-2.18-.85-4.19-3.4-5.36-8.28-3.77-15.87-2.57-22.28,3.92-3.42,3.47-5.26,7.64-6.43,12.38C507,627,498,653,477,673.1a51.82,51.82,0,0,0-10.73,15.5c-4.31,9.23-2.62,15.38,6.11,20.61,3.45,2.06,7.35,3.38,11,5,2.52,1.13,4.72.57,7-.88C526.13,690.53,547.74,659.3,548.73,615.77Zm-22.57,81.4c3.71-.35,5.66-1.45,7-3.23,5.85-7.66,12.66-14.59,17.31-23.16,10.43-19.26,13.23-40.37,15.06-61.72A21.12,21.12,0,0,0,563,597.34c-1.39-2.68-3.77-5.55-6.65-4.61-2.51.82-1.12,4.43-.82,6.69a114.34,114.34,0,0,1-9.7,64.38C540.51,675.24,532.38,684.93,526.16,697.17Z"/><path class="cls-1" d="M506.33,524a21.19,21.19,0,0,1-20.66,21.47c-11.13.32-21.3-10.08-21.26-21.74,0-11.33,9.83-21.19,21-21.16C497.86,502.57,506.3,511.22,506.33,524Zm-7.32-.49a13.56,13.56,0,0,0-13.83-12.92,13.23,13.23,0,0,0-12.9,13.7c.17,7.18,6.65,13.35,13.7,13A13.82,13.82,0,0,0,499,523.47Z"/><path class="cls-1" d="M422.31,655.74c-.07-12.11,8.52-20.79,20.66-20.88a21.23,21.23,0,0,1,21.26,20.75c.3,9.85-10,20.63-20,20.95A21.16,21.16,0,0,1,422.31,655.74Zm20.61,13a13.06,13.06,0,0,0,13.41-13A13.42,13.42,0,0,0,443.6,642c-7.25-.28-14,6.23-14,13.5A13.4,13.4,0,0,0,442.92,668.75Z"/><path class="cls-1" d="M453.24,591.86c0-12.09,8.71-21.76,19.48-21.68,12.21.09,21.61,9.37,21.53,21.25a20.4,20.4,0,0,1-21.13,20.7A19.92,19.92,0,0,1,453.24,591.86Zm33.85-.34a13.41,13.41,0,0,0-26.81-.43c-.17,7,6.21,13.62,13.21,13.67A13.7,13.7,0,0,0,487.09,591.52Z"/><path class="cls-1" d="M628.74,633.79c-10.51-.36-18.48,2.19-23.56,10.66-1.39,2.32-3.12,3.35-5.49,1.71s-1-3.55-.13-5.37c4.76-9.51,20.71-16.2,32.07-13.32,2,.5,5,.41,4.55,3.76s-3.18,2.41-5.27,2.55A17.52,17.52,0,0,1,628.74,633.79Z"/><path class="cls-3" d="M526.16,697.17c6.22-12.24,14.35-21.93,19.64-33.37a114.34,114.34,0,0,0,9.7-64.38c-.3-2.26-1.69-5.87.82-6.69,2.88-.94,5.26,1.93,6.65,4.61a21.12,21.12,0,0,1,2.58,11.72c-1.83,21.35-4.63,42.46-15.06,61.72-4.65,8.57-11.46,15.5-17.31,23.16C531.82,695.72,529.87,696.82,526.16,697.17Z"/><path class="cls-5" d="M499,523.47a13.82,13.82,0,0,1-13,13.83c-7.05.3-13.53-5.87-13.7-13a13.23,13.23,0,0,1,12.9-13.7A13.56,13.56,0,0,1,499,523.47Z"/><path class="cls-5" d="M442.92,668.75a13.4,13.4,0,0,1-13.28-13.29c0-7.27,6.71-13.78,14-13.5a13.42,13.42,0,0,1,12.73,13.83A13.06,13.06,0,0,1,442.92,668.75Z"/><path class="cls-5" d="M487.09,591.52a13.7,13.7,0,0,1-13.6,13.24c-7,0-13.38-6.65-13.21-13.67a13.41,13.41,0,0,1,26.81.43Z"/></svg>