<svg id="Capa_1" data-name="Capa 1" xmlns="http://www.w3.org/2000/svg" viewBox="0 0 667.71 1024"><defs><style>.cls-1{fill:#030302;}.cls-2{fill:#da4942;}.cls-3{fill:#ca433d;}.cls-4{fill:#fbb52f;}.cls-5{fill:#e4e4e4;}.cls-6{fill:#5b5b5a;}</style></defs><path class="cls-1" d="M634.08,627.91c-1.91.26-2.06,1.61-2.42,3.23-8.66,38.47-32,62.71-70.36,72.18a83,83,0,0,1-20,1.92q-108.47,0-216.93,0-113.85,0-227.7-.09c-4.1,0-4.85,1.33-4.8,5.06.21,13.93.1,27.87.08,41.8,0,10.2-3.2,13.35-13.55,13.37-10.79,0-21.6-.25-32.39.1-6.17.2-11-1.46-14.13-6.92V591.26c4-5.86,9.86-6.32,16.3-6.31q84.3.18,168.61.07c6,0,6,0,3.25-5.37-8.59-16.51-17.34-32.93-25.72-49.54a53.73,53.73,0,0,1-5.39-29.17c.23-2.71-.31-4.6-2.56-6.46-19.71-16.34-24.54-39.44-12.57-62.33,12.53-24,25.43-47.76,38.43-71.49,9.67-17.64,25-26.52,45-26.17,8.67.15,14.56-1.55,20.31-9.09,11-14.46,26.94-21,45.17-21,49,0,98-.76,147,.46,46.6,1.17,86,20.16,117.82,54.2,24,25.63,38.39,56,43.72,90.72.37,2.41-.7,5.82,2.89,7.07ZM272.45,635.4A314.24,314.24,0,0,0,288.67,666c8.07,13.13,20.37,19.14,35.47,19.16q109.14.15,218.29,0a70.38,70.38,0,0,0,23.47-4c28.72-10,47.18-36.39,47.26-67.75.11-41,0-82,.05-123,0-13.94-.11-27.86-2.53-41.64C607,427.78,599.33,408.3,587,390.76c-1.57-2.31-3-4.71-4.72-6.9-29-37-67.07-57.74-114-59-48.81-1.32-97.68-.55-146.52-.3-15.92.08-27.67,8.16-35.07,22.16q-36.19,68.49-72.21,137.07c-7.52,14.27-7.43,28.31.23,42.59,12.29,22.89,24.2,46,36.35,69C258.05,608.72,265.28,622,272.45,635.4Zm4.8,49.69c-9.11-12-15.19-24.69-21.11-37.39C251.86,638.52,247,632.56,236,635c-2.86.65-3.76-1-3.71-3.76.13-7.51,0-15,.08-22.54,0-2.55-.68-3.71-3.43-3.61-4.37.17-8.76.16-13.14,0-2.67-.1-3.57.89-3.53,3.53.12,7.35-.08,14.71.1,22.06.08,3.16-.74,4.62-4.17,4.4a99.79,99.79,0,0,0-11.73,0c-3.21.18-4.43-.86-4.33-4.23.22-7.35,0-14.71.12-22.06.06-2.9-1-3.85-3.81-3.72-4.21.19-8.45.21-12.67,0-3-.15-3.7,1.14-3.65,3.87.14,6.73-.26,13.48.15,20.18.3,4.74-1.06,6.59-5.93,6-4.47-.56-10.3,1.83-13.18-.9-3.13-3-.75-8.89-1.08-13.51-.37-5,2.08-11.44-.93-14.5-3.25-3.29-9.79-.85-14.89-1-6.14-.2-12.29-.05-19.11-.05,19.91,27.11,19.64,53.47.09,80ZM52,645.16c0,12.05,0,24.1,0,36.14,0,1.72-.74,4,2.46,3.85,8.43-.28,16.89.57,25.28-.94,16.79-3,30.66-18.45,31.85-35.47,1.31-18.63-9.53-35.31-26.28-41.09-10.25-3.55-20.75-1.94-31.16-2.33-2.83-.11-2.14,2.13-2.14,3.7C51.94,621.07,52,633.11,52,645.16ZM187.64,455.44c0,7.27,1.73,12.84,5,17.59,1.82,2.61,3,3.12,4.76-.26,5.1-10,10.48-19.93,15.73-29.89q22.11-41.94,44.18-83.88c.63-1.19,2-2.52,1.22-3.81-1-1.5-2.84-.64-4.34-.54-12.12.75-20.1,7.42-25.65,17.76-12.2,22.75-24.53,45.42-36.72,68.17C189.27,445.42,187.12,450.49,187.64,455.44ZM71.58,725.67c0-1.72,0-3.44,0-5.16-.18-4.81,2.07-11.39-.79-14-3.5-3.19-10.09-.66-15.32-1.08-2.74-.22-3.46,1-3.43,3.54.1,10.93.12,21.87,0,32.8,0,2.81,1.1,3.43,3.61,3.34,4.21-.16,8.44-.21,12.65,0,2.82.15,3.42-1,3.35-3.54C71.48,736.29,71.57,731,71.58,725.67Z"/><path class="cls-2" d="M272.45,635.4c-7.17-13.36-14.4-26.68-21.48-40.08-12.15-23-24.06-46.06-36.35-69-7.66-14.28-7.75-28.32-.23-42.59q36.12-68.52,72.21-137.07c7.4-14,19.15-22.08,35.07-22.16,48.84-.25,97.71-1,146.52.3,47,1.27,85,22,114,59,1.72,2.19,3.15,4.59,4.72,6.9-1.75.65-2.65,2.28-3.51,3.65-7.6,12.17-16.85,23.14-25.16,34.78-1.37,1.91-2.67,3.44-5.19,3.31a8.8,8.8,0,0,1-.91-1c-23.11-36.19-55.66-58.29-98.11-65.16-31.86-5.15-62.22.24-90.13,16.34-38.74,22.35-62.29,55.9-69.59,100.17-5.44,33,.73,64.11,17.52,93.12,6.25,10.78,14.29,20.12,22.54,29.34,0,1.29-.19,2.47-1.54,3.16-4,2.07-7.95,4.32-12,6.27-8.84,4.23-17.61,8.68-26.7,12.33C287,629.91,280.19,634,272.45,635.4Z"/><path class="cls-3" d="M272.45,635.4c7.74-1.44,14.51-5.49,21.69-8.37,9.09-3.65,17.86-8.1,26.7-12.33,4.08-2,8-4.2,12-6.27,1.35-.69,1.52-1.87,1.54-3.16.85.66,1.76,1.26,2.56,2,36,32.4,77.89,44.18,125.19,34.56,35.51-7.22,64.06-26.32,84.9-56C571.3,551.28,578.31,513.1,569,471.92c-3.17-14-9-26.91-15.88-39.42,2.52.13,3.82-1.4,5.19-3.31,8.31-11.64,17.56-22.61,25.16-34.78.86-1.37,1.76-3,3.51-3.65,12.38,17.54,20,37,23.73,58.09,2.42,13.78,2.55,27.7,2.53,41.64-.06,41,.06,82-.05,123-.08,31.36-18.54,57.71-47.26,67.75a70.38,70.38,0,0,1-23.47,4q-109.14,0-218.29,0c-15.1,0-27.4-6-35.47-19.16A314.24,314.24,0,0,1,272.45,635.4Z"/><path class="cls-4" d="M277.25,685.09h-160c19.55-26.48,19.82-52.84-.09-80,6.82,0,13-.15,19.11.05,5.1.18,11.64-2.26,14.89,1,3,3.06.56,9.54.93,14.5.33,4.62-2,10.55,1.08,13.51,2.88,2.73,8.71.34,13.18.9,4.87.6,6.23-1.25,5.93-6-.41-6.7,0-13.45-.15-20.18-.05-2.73.64-4,3.65-3.87,4.22.22,8.46.2,12.67,0,2.84-.13,3.87.82,3.81,3.72-.16,7.35.1,14.71-.12,22.06-.1,3.37,1.12,4.41,4.33,4.23a99.79,99.79,0,0,1,11.73,0c3.43.22,4.25-1.24,4.17-4.4-.18-7.35,0-14.71-.1-22.06,0-2.64.86-3.63,3.53-3.53,4.38.16,8.77.17,13.14,0,2.75-.1,3.47,1.06,3.43,3.61-.11,7.52.05,15-.08,22.54-.05,2.79.85,4.41,3.71,3.76,11-2.48,15.88,3.48,20.16,12.66C262.06,660.4,268.14,673.14,277.25,685.09Z"/><path class="cls-5" d="M52,645.16c0-12,0-24.09,0-36.14,0-1.57-.69-3.81,2.14-3.7,10.41.39,20.91-1.22,31.16,2.33,16.75,5.78,27.59,22.46,26.28,41.09-1.19,17-15.06,32.43-31.85,35.47-8.39,1.51-16.85.66-25.28.94-3.2.11-2.45-2.13-2.46-3.85C51.94,669.26,52,657.21,52,645.16Zm30.09,10.17c10,0,10,0,10-10.11,0-10.32,0-10.32-10.28-10.32-10,0-10,0-10,10.13C71.73,655.33,71.73,655.33,82.05,655.33Z"/><path class="cls-6" d="M187.64,455.44c-.52-4.95,1.63-10,4.22-14.86,12.19-22.75,24.52-45.42,36.72-68.17,5.55-10.34,13.53-17,25.65-17.76,1.5-.1,3.37-1,4.34.54.83,1.29-.59,2.62-1.22,3.81q-22.07,42-44.18,83.88c-5.25,10-10.63,19.85-15.73,29.89-1.72,3.38-2.94,2.87-4.76.26C189.37,468.28,187.64,462.71,187.64,455.44Z"/><path class="cls-5" d="M71.58,725.67c0,5.31-.1,10.62,0,15.93.07,2.51-.53,3.69-3.35,3.54-4.21-.23-8.44-.18-12.65,0-2.51.09-3.65-.53-3.61-3.34.13-10.93.11-21.87,0-32.8,0-2.58.69-3.76,3.43-3.54,5.23.42,11.82-2.11,15.32,1.08,2.86,2.6.61,9.18.79,14C71.63,722.23,71.58,724,71.58,725.67Z"/><path class="cls-1" d="M553.09,432.5C560,445,565.8,457.91,569,471.92c9.34,41.18,2.33,79.36-21.91,113.89-20.84,29.68-49.39,48.78-84.9,56-47.3,9.62-89.22-2.16-125.19-34.56-.8-.72-1.71-1.32-2.56-2-8.25-9.22-16.29-18.56-22.54-29.34-16.79-29-23-60.1-17.52-93.12,7.3-44.27,30.85-77.82,69.59-100.17,27.91-16.1,58.27-21.49,90.13-16.34,42.45,6.87,75,29,98.11,65.16A8.8,8.8,0,0,0,553.09,432.5Zm-120-48c-66.16-.2-120.14,53.56-120.46,119.78C312.3,570.07,365.11,624.76,432.07,625c65.57.18,120.43-50.88,120.74-119.92C553.12,438.26,500.51,385.52,433.08,384.52Z"/><path class="cls-1" d="M82.05,655.33c-10.32,0-10.32,0-10.32-10.3,0-10.13,0-10.13,10-10.13,10.28,0,10.28,0,10.28,10.32C92.05,655.33,92.05,655.33,82.05,655.33Z"/><path class="cls-6" d="M433.08,384.52c67.43,1,120,53.74,119.73,120.51-.31,69-55.17,120.1-120.74,119.92-67-.19-119.77-54.88-119.45-120.65C312.94,438.08,366.92,384.32,433.08,384.52Zm-.18,80q-41.34,0-82.67,0c-7.28,0-10.65,2.5-12.82,9.3a98.77,98.77,0,0,0,0,61.82c2.2,6.83,5.46,9.4,12.76,9.41q82.67.08,165.34,0c7.18,0,10.18-2.28,12.43-9.1a98.19,98.19,0,0,0,.64-60.44c-2.73-9.08-5.43-11-14.85-11Z"/><path class="cls-1" d="M432.9,464.51h80.79c9.42,0,12.12,1.92,14.85,11A98.19,98.19,0,0,1,527.9,536c-2.25,6.82-5.25,9.1-12.43,9.1q-82.67.06-165.34,0c-7.3,0-10.56-2.58-12.76-9.41a98.77,98.77,0,0,1,0-61.82c2.17-6.8,5.54-9.29,12.82-9.3Q391.55,464.48,432.9,464.51Zm-.12,20.27v0c-24.27,0-48.54.09-72.81-.09-3.73,0-5.09,1.12-5.78,4.73a80,80,0,0,0,.11,31.25c.66,3.27,1.86,4.26,5.19,4.23,21.29-.15,42.59-.07,63.88-.08,27.24,0,54.49-.08,81.73,0,3.71,0,5.49-.67,6.17-4.86a92.71,92.71,0,0,0,0-30.33c-.68-4.13-2.39-4.94-6.15-4.92C481,484.85,456.89,484.78,432.78,484.78Z"/><path class="cls-4" d="M432.78,484.78c24.11,0,48.22.07,72.33-.07,3.76,0,5.47.79,6.15,4.92a92.71,92.71,0,0,1,0,30.33c-.68,4.19-2.46,4.88-6.17,4.86-27.24-.12-54.49,0-81.73,0-21.29,0-42.59-.07-63.88.08-3.33,0-4.53-1-5.19-4.23a80,80,0,0,1-.11-31.25c.69-3.61,2.05-4.76,5.78-4.73,24.27.18,48.54.09,72.81.09Z"/></svg>