<svg id="Capa_1" data-name="Capa 1" xmlns="http://www.w3.org/2000/svg" viewBox="0 0 667.71 1024"><defs><style>.cls-1{fill:#cbcbcb;}.cls-2{fill:#f94d3d;}.cls-3{fill:#d9d9d9;}.cls-4{fill:#7c7474;}.cls-5{fill:#f88a7f;}</style></defs><path class="cls-1" d="M203,608.3c-13.59-17.18-16.86-36.4-10.27-57,6-18.73,19.53-30.66,37-38.7,7.56-3.48,14.9-7.41,22.37-11,2.22-1.08,3.63-2.44,3.34-5.13-1.7-15.86,4.69-29.83,11-43.59,3.66-8,5.54-16,4.89-24.66-.92-6.38-5.89-9.78-10.14-13.67-2.48-2.26-3.63-4.9-2.74-8.11a7.69,7.69,0,0,1,5.87-5.55c3.48-.83,6,1.14,8.78,3,3.8,2.5,5.3,7.8,10.51,8.48,11.29,20.21,3.35,38.71-5,57.2-1.91,4.22-3.81,8.46-5.45,12.8-.86,2.26-1.33,5.16.28,7,2,2.29,4.67.08,6.69-.75A147.05,147.05,0,0,1,338.79,478c34.38.71,65.65,10.91,93.47,31.81,16.75,12.58,29.56,28.72,43.25,44.1,11.16,12.52,21.76,25.53,32.65,38.29q24.39,28.6,48.85,57.17c13,15.19,26,30.44,39.26,45.41,3.39,3.82,5.47,8.5,9.09,12.07-6.48,5.37-15.09,5.27-22.32,8.76-8.29,4-17.28,4.06-26.14,3.26-12-1.08-24-2.43-35.91-4.44-23.19-3.9-46.5-7-69.44-12.35-18.55-4.33-37.43-7.44-55.74-12.61-18.8-5.31-37.35-11.6-55.65-18.6-7.67-2.94-15.31-6.11-22.87-9.22-10.91-4.5-21.51-10.26-32.31-14.82-20.49-8.63-39.63-20-60.24-28.24C217.26,615.63,210.8,610.53,203,608.3Z"/><path class="cls-2" d="M205.2,408.14c-3.07,1.5-5.09-.93-7-2.28Q134,361.48,70,316.92c-4.26-2.95-7.28-7-10.66-10.71a24.49,24.49,0,0,0-1.22-4c-8.49-17.6,3.82-40.63,19.29-47,2.27,3.15,5.84,4.19,9.15,5.67A293.39,293.39,0,0,1,115,275.38c23.16,13.53,44.67,29.43,66.08,45.52,15.56,11.7,31.67,22.66,47.54,34a6.43,6.43,0,0,1-2.7,3.87,67,67,0,0,0-15.25,18.39C205.27,386.7,204.46,397.34,205.2,408.14Z"/><path class="cls-3" d="M203,608.3c7.83,2.23,14.29,7.33,21.77,10.32,20.61,8.25,39.75,19.61,60.24,28.24,10.8,4.56,21.4,10.32,32.31,14.82,7.56,3.11,15.2,6.28,22.87,9.22,18.3,7,36.85,13.29,55.65,18.6,18.31,5.17,37.19,8.28,55.74,12.61,22.94,5.34,46.25,8.45,69.44,12.35,11.94,2,23.9,3.36,35.91,4.44,8.86.8,17.85.74,26.14-3.26,7.23-3.49,15.84-3.39,22.32-8.76,17.93,13.81,17.63,34.27-.1,47.7a63.1,63.1,0,0,1-34,12.93c-10.71.8-21.12-2.47-31.14-6.57-36.29-14.84-72.66-29.5-108.94-44.35-35.72-14.62-71.34-29.46-107.06-44.08-27.49-11.24-55.21-21.94-82.55-33.55C226.08,632.37,212.2,623.1,203,608.3Z"/><path class="cls-4" d="M205.2,408.14c-.74-10.8.07-21.44,5.49-31a67,67,0,0,1,15.25-18.39,6.43,6.43,0,0,0,2.7-3.87c4.33-.87,8-5.16,13-2.65,10.68,7.29,21.83,14,31.93,22,12.42,9.86,15.14,23.11,10.05,38-5.21-.68-6.71-6-10.51-8.48-2.77-1.83-5.3-3.8-8.78-3a7.69,7.69,0,0,0-5.87,5.55c-.89,3.21.26,5.85,2.74,8.11,4.25,3.89,9.22,7.29,10.14,13.67-8,4-16.27,6.39-25.45,4.58-7-1.39-12.48-5.49-18.16-9.3C220.17,418.36,212.69,413.23,205.2,408.14Z"/><path class="cls-5" d="M241.6,352.21c-5-2.51-8.63,1.78-13,2.65-15.87-11.3-32-22.26-47.54-34-21.41-16.09-42.92-32-66.08-45.52a293.39,293.39,0,0,0-28.5-14.51c-3.31-1.48-6.88-2.52-9.15-5.67l13.48-3.9,3.93-.21c10.9,1.65,19,8.64,27.64,14.56,25.8,17.72,51.66,35.34,77.25,53.36,12.23,8.6,24.46,17.2,36.83,25.6C239.05,346.34,242.16,348.18,241.6,352.21Z"/><path class="cls-4" d="M90.85,251.3l-13.48,3.9c-15.47,6.37-27.78,29.4-19.29,47a24.49,24.49,0,0,1,1.22,4c-18.88-11.58-22-37.76-6-51.17C65.35,249.33,77.91,248.39,90.85,251.3Z"/><path class="cls-1" d="M90.85,251.3c-12.94-2.91-25.5-2-37.58,3.74,3.37-7.83,10.92-9.21,17.81-10.41,8.57-1.5,17.41-1.54,23.7,6.46Z"/></svg>