<svg id="Capa_1" data-name="Capa 1" xmlns="http://www.w3.org/2000/svg" viewBox="0 0 667.71 1024"><defs><style>.cls-1{fill:#392f19;}.cls-2{fill:#dbb913;}.cls-3{fill:#d4d3d2;}.cls-4{fill:#af9209;}.cls-5{fill:#cfb32b;}.cls-6{fill:#8f908e;}.cls-7{fill:#525353;}.cls-8{fill:#e1c955;}.cls-9{fill:#573c08;}.cls-10{fill:#fddc3e;}.cls-11{fill:#eaeaea;}.cls-12{fill:#ededed;}.cls-13{fill:#cb9909;}.cls-14{fill:#fdf3bc;}</style></defs><path class="cls-1" d="M387.48,259.18c4.4-5.82,10-10.73,13.48-17.26,10.53-7.41,17.81-18,26.81-27l-.3-.23.26.27c2.52-.84,4.1-2.71,5.4-4.89l3.19-3a11.68,11.68,0,0,0,5.58-3.75,4.49,4.49,0,0,0,3.46-1.85c7.87-3.34,15.71-6.73,23.61-10,6.65-2.74,13.67-3.64,20.83-3.68,16.48,1.9,31.6,7.16,44.53,17.89l8.54,10.95q1.47,6.45,2.93,12.9l-2.69,1.72c-.27-1-.53-1.93-.8-2.9-.17-.56-.35-1.12-.53-1.68-2.74-4.21-4.18-9.36-8.79-12.24-4-2.31-6.44-6.89-11.49-7.54-.67-4.53-4.58-4.76-7.81-5.9l0,.06c-3.87-3.55-8.7-4.05-13.62-4.28a2,2,0,0,0-1.05-.43c-1.62-3.74-4.94-2-7.62-2.38l-3.2-.33c-3.95-1.28-7.89-1.64-11.81.09-3.29.81-7.52-.23-8.83,4.48-.08.8-.15,1.6-.22,2.4-5.67.16-11.07.62-16.44,3.4-14.43,7.49-24.79,19.32-35.16,31.26-3.87,3-6.45,7.1-9,11.22L406,247l.31.44-1.69,2.75a40.55,40.55,0,0,0-15.72,18.34c-4.14-.41-3.61,3.17-4.63,5.43h0c-3.8,2.55-6.78,5.66-7,10.56l-1.7,2.87c-5.21,2.72-7.57,7.95-10.61,12.47C347.37,326,332.64,353.51,324.06,384c-1.23,4.39-2.22,9.29,3.42,12l.36-.06c.55.51,1.11,1,1.67,1.51,0,.77,0,1.54,0,2.31-5.26,0-7.77,2.58-8.88,7.78a115.66,115.66,0,0,1-6.88,21.08,319.24,319.24,0,0,1-26.36,49.65c-4.79,7.33-4.09,8.16,4.21,9.62,20.27,3.59,36.89,12.54,45.78,32.26,2.54,5.64,4.88,6,8.63.88,16-22.06,35.66-40.85,55.14-59.75,8.12-7.89,7.72-7.72,1.64-17.6-3.14-5.1-9.07-8.53-9.46-15.3l4.22,2.11,1.09,1.23c1,2.24,2.38,4.08,4.89,4.75,3.18,5.49,5.29,11.71,10.68,15.69l1.39-1.16.25-.27,1.2-1.29a2.47,2.47,0,0,1,1.05-.58c1.31.41,2.54,2.24,3.92,1s-.44-2.55-.89-3.81h.19l1.43-1.47,0-.17,3.32.35c3.94,3.94,6.22-.46,8.55-2.09,34.56-24.22,59.26-56.81,78.69-93.74,3.84-7.3,8.69-14.3,9.28-23v0c3.34.1,2.62-2.48,2.91-4.4l0-.06c1.8-1,1.47-2.79,1.48-4.43h0c1.4-.6,1.29-1.89,1.39-3.08,1.66-2.88,3.63-5.66,2.73-9.29l3.41-7.37a8.14,8.14,0,0,0,2.53-7l.24-.36.63-.26-.41-.5c.27-1.6.53-3.21.8-4.81,3.34-4,1.65-9,2.48-13.46l.57-12.59c.29-2.44.59-4.87.88-7.31,4.49-1.08,1.73-4.69,2.45-7.09,1-3.2-2.13-7.25,2-9.81l.41,2.76a3,3,0,0,0,.3,4.47q.2,8.89.41,17.79-.64,5.1-1.3,10.2c-1.54.84-2.06,1.84-.5,3.16q-.48,2.89-1,5.77c-1.57,1-1.78,2.34-1.14,3.94-.5,2.4-1,4.8-1.52,7.21-1.77,8.64-8.08,15.68-8.76,24.72-.27,1-.53,1.93-.79,2.89l-13.89,31c-17.28,32.77-38.65,62.39-66.6,87a24.55,24.55,0,0,0-7.26,5.95c-12.59,7.81-23.63,18.23-38.37,22.45a10.65,10.65,0,0,0-5.94,5.16c-3.57,2.63-6.94,5.47-9.38,9.26A279.86,279.86,0,0,0,351.71,522a3.82,3.82,0,0,0-2.52,3.06,29.49,29.49,0,0,0-7.95,19c-.89,17.06-10.42,22.64-25.69,16.29a34.4,34.4,0,0,0-3.49-1.08c-3.71-2.38-7-5.79-12.1-4.52l-2.94-.39,3.69-6,3.56.3c4.16,4.88,10.2,6.45,15.77,8.72,1.65.67,3.95,2.3,5.48.81,1.87-1.81.21-4.22-.55-6.21-5.44-14.2-15.74-24.13-28-32.62-10-6.94-21.61-9.26-32.8-12.86,4.33-2.14,8.92-1.34,13,0,24.56,7.76,43.46,22,52.49,47.16.4,1.11.59,2.42,2.15,2.56,5.3-6.73,7.15-14.35,5.38-22.1-5.94-26-26.12-42.59-52.94-43.37-8.59-.25-16,2.48-21,10.1-1.42,2.2-3.12,4.24.72,5.69-1,1.07-2.34,1.93-2.23,3.63.26,4,11.43,18.38,15.07,19.53,2.05.65,4.18-.35,4-1.94-.75-6.45,3.88-4.61,6.55-4.08,9.81,2,18.19,6.2,22.1,16.3l-3.86-.17c-2.69-5-6.94-8.21-12-10.47s-9.31-2.41-11.9,3.84c-1.71,4.14-3.87,7.52-7.24.54-1.07-2.22-4.65-3.24-7.08-4.81.09-1.17-.07-2.2-1.34-2.69-1.16-1.88-2.36-3.74-3.49-5.64-8.66-14.48-6.15-24,8.52-32.17a17.09,17.09,0,0,1,2.7-1.08,11.06,11.06,0,0,0,5.73-4.46c9.62-14.61,19.12-29.29,25.86-45.54,3.13-6.19,6.21-12.41,7.78-19.24,3.53-7.57,6.61-15.23,5.43-23.87.48-3.66.86-7.34,1.46-11,2-12.28,7.6-23.37,11.64-35l24.41-44.52,2.6-4.21Z"/><path class="cls-1" d="M115.05,794.1c4.2-10.38,9.34-20.33,11.93-31.42,1.12-4.77,5-8.91,7.58-13.34l.8-1.49c5.92-8.67,12.06-17.19,17.67-26,3.21-5.08,7.75-9.48,8.95-15.72,7.76-7.08,12.14-16.53,17.64-25.2A178.29,178.29,0,0,0,194.76,658q15-20.51,28.07-42.31l1.82-2.89c3.17-4.49,6.12-9.17,9.6-13.41,1.75-2.14,1.72-6.45,6.14-5.86l.12,1.47c.19,2.19-1.28,3.63-2.35,5.27-7.45,11.34-15,22.63-22.3,34-13.05,20.31-27.11,40-39.12,61-2.34,1.33-3.27,3.61-4,6a61.08,61.08,0,0,0-8.95,13.64c-2.16,2.95-4.53,5.77-6.44,8.86C149,737.24,138.85,749.65,131.84,764l-2.75,4.72q-7.66,20.31-15.32,40.61l2.71,1.83c4.2-4.68,8.34-9.39,12.61-14,1.79-1.92,3.92-4,4.35,1-7.86,7.09-15.55,14.33-22.26,22.56-1.49,1.84-3.3,4.56-6,2.55-2.4-1.76.13-4.06.78-5.86C108.78,809.55,112,801.85,115.05,794.1Z"/><path class="cls-2" d="M398.6,431.69l-1.09-1.23c.39-1.65.43-3.49,1.21-4.92,7.22-13.22,17.11-24.58,26.18-36.46,3.39-4.43,5.93-8.72,7.09-14,3.4-.75,4.09-3.3,4.15-6.27l0,0c4.15.14,5.89-3,7.67-5.86,3.53-5.62,8.91-9.62,12.43-15.4,3.38-5.54,7.29-10.61,8.31-17.22l1.23-1.51c3.2.14,3.31-2,3.23-4.34l4.2-4.63c5.08.63,9.26-3.6,15-2.62-2.94-1.41-4.76-3.11-4.33-6.19l0,0c1.32,0,2.5-.21,2.89-1.74l-.09,0c6.26.26,9-3.56,10.38-9l0,.07c6.79-.21,8.63-2.13,7.21-7.55.53-.91,1.07-1.82,1.61-2.73,5.07-1.49,7.52-5.63,8.23-10.15,2.43-15.38,1.23-30-10.84-41.76-2.46-7.54-9.06-12.11-15.25-14.28-9.93-3.49-20.76-1-31,1.47-2.51.6-5.73,2.06-5.67,5.88l-2.4,1.24c-8.46,2.32-16.62,7.32-25.81,2.78l-1.57-.24c7.29-10.78,17.3-18.3,28-25.49,8.67-5.8,16.54-7.36,25.64-2.6,7.14,3.74,15.65,3.66,22.49,8.35,2.05,1.4,4.78.72,7.22.25l-.06.15c-.21,3.44,2.11,3.25,4.42,3.08v-.07c2.58,5.9,6.75,9.76,13.43,10.35l0,0c-.83,5,1.59,6.62,6.19,6.05l1.11,1.13c-.73,4.12.24,7.46,4.24,9.46a191,191,0,0,1-16.44,41.54C499.13,322.71,479,357.23,454,388.65c-13,16.3-25,33.67-45.75,41.45C404.42,427,402.14,433.18,398.6,431.69ZM490.89,313.4c5.3,1,6.4-2.12,8-4.52C495.59,308.72,493.63,310.58,490.89,313.4Z"/><path class="cls-3" d="M131.84,764c7-14.36,17.11-26.77,25.47-40.29,1.91-3.09,4.28-5.91,6.44-8.86a50.32,50.32,0,0,0,7.09,1.51c4.52.33,8.41-5.34,8.77-11.47.39-6.8-4.45-2.8-6.91-3.68.77-2.39,1.7-4.67,4-6,3.68,0,5.09,7.43,10.6,2.5,8-7.17,12.15-17.08,18-25.55,3.58-5.17,6.56-11.72,10.21-17.43,10.57-16.5,20.35-33.57,31.86-49.38,10.43-14.32,19.17-29.8,30.54-43.47,2.66-3.2,5.74-8.14,2.94-12.1-2.95-4.15-6.28,1.87-9.77,1.66l1.89-5,.48-.51-.46-.35.36.09a.58.58,0,0,0,.4-.64l1.68-2.65c.84-1.27,2.78-2.72.85-4-1.49-1-2.07,1.11-2.8,2.17-.57,1-1.14,1.89-1.7,2.84a.7.7,0,0,0-.57.5l-2.51,1.88c-3.06-5.42-1-11.23-1.27-16.86,2.43,1.57,6,2.59,7.08,4.81,3.37,7,5.53,3.6,7.24-.54,2.59-6.25,6.86-6.11,11.9-3.84s9.28,5.49,12,10.47l-5,8.6-3.69,6c-1.23,1.54-2.61,3-3.68,4.61q-34.06,51.72-68.06,103.46c-8.82,13.43-17.55,26.92-26.43,40.31-1.56,2.36-2.47,3.89,1.49,3.86-1.63,4.33-3,8.85-7.34,11.42-.52-1.22-1.36-3.8-2.57-1.83-1.84,3-7.5,5.11-3.66,10.23-.34,3.59-1.09,6.91-5.28,8a6.46,6.46,0,0,0-.72-2.09c-1.38-1.69-1.38.56-1.6.84-1.95,2.54-3.77,5.2-5.55,7.87-6.58,9.86-13.2,19.71-19.67,29.64-2.66,4.1-4.82,6.79-8.9,1.06C142,767.33,137,765.33,131.84,764Z"/><path class="cls-4" d="M408.23,430.1C428.94,422.32,441,405,454,388.65c25-31.42,45.15-65.94,63.87-101.3a191,191,0,0,0,16.44-41.54l1.79,0,2.88,4.47c.2,1.39.4,2.79.61,4.18a3.24,3.24,0,0,0,1.71,3.92q-.27,6.28-.55,12.57c-2.58,4.16-2.62,8.8-2.49,13.47-.27,1.6-.53,3.21-.8,4.81a1,1,0,0,0-.22.76l-.24.36c-3.46,1.4-2,4.57-2.53,7-1.13,2.46-2.27,4.91-3.41,7.37-1.7.75-2.49,2.26-3.34,3.8-22.81,41.58-52.36,78.09-84.43,112.78-7,7.56-14.77,14.46-20.59,23.08l0,.17L421.28,446h-.18a3.84,3.84,0,0,0-3,2.83,2.47,2.47,0,0,0-1.05.58l-1.2,1.29-.25.27-1.39,1.16c-5.39-4-7.5-10.2-10.67-15.69C403.91,433.45,408,433.2,408.23,430.1Z"/><path class="cls-4" d="M393.29,428.35c.39,6.77,6.32,10.2,9.46,15.3,6.08,9.88,6.48,9.71-1.64,17.6C381.63,480.15,362,498.94,346,521c-3.75,5.16-6.09,4.76-8.63-.88-8.89-19.72-25.51-28.67-45.78-32.26-8.3-1.46-9-2.29-4.21-9.62a319.24,319.24,0,0,0,26.36-49.65,115.66,115.66,0,0,0,6.88-21.08c1.11-5.2,3.62-7.8,8.88-7.78a3.11,3.11,0,0,1-.08.74c-1.63,3.24-6.36,4.74-5.81,9.06.85,6.79-6.35,13.38-3.91,18.12,5,9.78-4.58,7.6-6.88,11.11a7.37,7.37,0,0,0-1.07,2.69c-.37,2.15.23,4.44-1.22,6.44-6.48,8.89-12,18.4-17.59,27.83-4.32,7.22-4.17,8.17,4.07,9.15,16.67,2,28.92,11.57,39.95,23.25a5.5,5.5,0,0,1,1.24,2.62c.38,1.93.33,4.37,2.77,4.66,2.6.32,3.64-2,4.68-4,12.25-23.72,26.36-46,48.28-62.23,2-1.51,5-3.49,3.18-6.65a60.48,60.48,0,0,0-7.09-9.16,6.18,6.18,0,0,0-8.15-1.21c-4.86,2.88-10,5.67-13.95,9.59s-7.68,2.91-12.11,2.09c-9-1.68-12.9-18.38-9.8-26.29,3.49-8.87.82-12.61-8.49-11.76-4.35.39-5-2.05-5.12-5.36,3.19-2,7.44,2.76,10.27-1.6,1.5,2.07,4.76.29,6.06,2.79,1.4,3.46,5.1,4.64,7.28,7.33l-.1.08c-3.83-.9-4.64,2.08-5.41,4.56a43.21,43.21,0,0,0-1.9,16c.35,5,2.43,8.38,7.67,9.23,6.83,1.06,12.61-1.92,17.89-5.45,6-4,11.69-7.65,19.23-4.93Z"/><path class="cls-3" d="M264,506.51c-3.84-1.45-2.14-3.49-.72-5.69,5-7.62,12.37-10.35,21-10.1,26.82.78,47,17.41,52.94,43.37,1.77,7.75-.08,15.37-5.38,22.1-1.56-.14-1.75-1.45-2.15-2.56-9-25.13-27.93-39.4-52.49-47.16-4.1-1.29-8.69-2.09-13,0Z"/><path class="cls-5" d="M522.52,325.93c-.59,8.66-5.44,15.66-9.28,23-19.43,36.93-44.13,69.52-78.69,93.74-2.33,1.63-4.61,6-8.55,2.1a601.78,601.78,0,0,0,76.27-89.18C509.14,345.77,515.77,335.81,522.52,325.93Z"/><path class="cls-6" d="M264,506.51h.14c11.19,3.6,22.79,5.92,32.8,12.86,12.26,8.49,22.56,18.42,28,32.62.76,2,2.42,4.4.55,6.21-1.53,1.49-3.83-.14-5.48-.81-5.57-2.27-11.61-3.84-15.77-8.72,3.43-1.9,8.39-2.88,5.25-8.73-3.91-10.1-12.29-14.35-22.1-16.3-2.67-.53-7.3-2.37-6.55,4.08.18,1.59-1.95,2.59-4,1.94-3.64-1.15-14.81-15.53-15.07-19.53C261.69,508.44,263.07,507.58,264,506.51Z"/><path class="cls-7" d="M200.34,706.57c-4,0-3.05-1.5-1.49-3.86,8.88-13.39,17.61-26.88,26.43-40.31q34-51.75,68.06-103.46c1.07-1.63,2.45-3.07,3.68-4.61l2.94.39-9.76,16-8.5,13.48a8.32,8.32,0,0,0-3.17,5.17c-16.48,22.85-31.65,46.57-46.61,70.42L221.7,675l-19.31,29.41Z"/><path class="cls-8" d="M327.5,396c-5.66-2.69-4.67-7.59-3.44-12,8.58-30.48,23.31-58,40.89-84.15,3-4.52,5.4-9.75,10.61-12.47.47,6.75-5.75,10.61-7.13,16.56-1,2.24-1.78,4.56-2.95,6.7-9.89,18.1-19.31,36.45-28,55.13-1.53,3.28-3.79,6.41-3.23,10.37-1.23,1.9-2.22,3.87-1.8,6.24C326.93,385.52,326.34,390.43,327.5,396Z"/><path class="cls-9" d="M522.52,325.93c-6.75,9.88-13.38,19.84-20.25,29.62A601.78,601.78,0,0,1,426,444.73l-3.32-.36c5.82-8.62,13.61-15.52,20.59-23.08,32.07-34.69,61.62-71.2,84.43-112.78.85-1.54,1.64-3.05,3.34-3.8.9,3.63-1.07,6.41-2.73,9.29-.46,1-.93,2.05-1.39,3.08h0c-1.85,1-1.73,2.71-1.48,4.43l0,.06a3.67,3.67,0,0,0-2.91,4.4Z"/><path class="cls-5" d="M504.92,215.68c-2.44.47-5.17,1.15-7.22-.25-6.84-4.69-15.35-4.61-22.49-8.35-9.1-4.76-17-3.2-25.64,2.6-10.74,7.19-20.75,14.71-28,25.49l-5.74.15c10.37-11.94,20.73-23.77,35.16-31.26,5.37-2.78,10.77-3.24,16.44-3.4,8.6,2,16.78,5.6,25.64,6.6l.58-.11.59.08C495.4,213.05,502.24,211.72,504.92,215.68Z"/><path class="cls-10" d="M521.5,207c5,.65,7.53,5.23,11.49,7.54-1.65,5-7.2,7.81-8.42,4.63-2.81-7.36-8.71-4.13-13.43-5l-.06-.26c.84-2.32,2.16-5.67-1.07-6.15-6.69-1-12.37-6-19.52-4.68a4.62,4.62,0,0,1-3.86-1.24c-.65-3-4.36-2.39-6.1-5.17h17l1.58-.22a2,2,0,0,1,1.06.43c3.37,5.1,8.49,4.69,13.61,4.28l0-.06C513.73,206.42,518.45,205.57,521.5,207Z"/><path class="cls-8" d="M511.14,214.12c4.72.87,10.62-2.36,13.43,5,1.22,3.18,6.77.33,8.42-4.63,4.61,2.88,6,8,8.79,12.24.18.56.36,1.12.53,1.68.27,1,.53,1.94.8,2.9-.84,5.58,2.37,11.45-1.17,16.85a54.22,54.22,0,0,0-10.32-16.46C525.54,225,518.2,219.71,511.14,214.12Z"/><path class="cls-4" d="M368.43,303.93c1.38-5.95,7.6-9.81,7.13-16.56l1.7-2.87c5.06-1.71,7.08-5.45,7-10.56h0c3.71,0,3.64-3.15,4.63-5.43a40.55,40.55,0,0,1,15.72-18.34c0,.87,0,1.74.05,2.62a131.71,131.71,0,0,0-16.37,26.73c-2.61,1-3.05,3.57-4.24,5.6-4,6.84-7.12,14.19-12.4,20.24A2.72,2.72,0,0,0,368.43,303.93Z"/><path class="cls-5" d="M432,375.07c-1.16,5.29-3.7,9.58-7.09,14-9.07,11.88-19,23.24-26.18,36.46-.78,1.43-.82,3.27-1.21,4.92l-4.22-2.11.07,0c.49-1.6.61-3.47,1.53-4.77Q412.5,399,430.3,374.52l.58.07.58,0Z"/><path class="cls-9" d="M511.14,214.12c7.06,5.59,14.4,10.83,20.48,17.58a54.22,54.22,0,0,1,10.32,16.46c.07,1,.15,1.92.23,2.87-.29,2.44-.59,4.87-.88,7.31a3.23,3.23,0,0,1-1.73-3.91,3,3,0,0,0-.6-4.18l-2.88-4.47c-1.13-3.7-2.78-7.07-6-9.43l-1.12-1.13c-1.77-2.31-3-5.14-6.18-6.05l-.06,0a28.41,28.41,0,0,0-13.42-10.36v.07a5.17,5.17,0,0,0-4.42-3.08l.06-.15c-2.68-4-9.52-2.63-10.72-8.45,6.86-.92,11,5.15,16.88,6.63Z"/><path class="cls-8" d="M404.7,252.79c0-.88,0-1.75-.05-2.62l1.69-2.75a1.15,1.15,0,0,0,.5-.88c2.5-4.12,5.08-8.18,9-11.22l5.74-.15,1.57.24c4.84,7,3,16-4.47,22.31-.28-3.92,2.54-6.81,3.41-10.36.61-2.5,2.9-5.49-.32-7.14-3-1.54-5.56.92-7.38,3.28a13.61,13.61,0,0,0-2.69,5.18c-.78,3.66-3.27,4.45-6.38,4.65Z"/><path class="cls-9" d="M486.63,201.79A4.63,4.63,0,0,0,490.5,203q1.26,2.11,2.53,4.23c-8.86-1-17-4.62-25.64-6.6l.21-2.4C474.22,198,480.21,201,486.63,201.79Z"/><path class="cls-8" d="M486.63,201.79c-6.42-.76-12.41-3.84-19-3.53,1.32-4.71,5.55-3.67,8.84-4.48a11.09,11.09,0,0,0,11.81-.09l3.2.33,6,2.6h-17C482.27,199.4,486,198.78,486.63,201.79Z"/><path class="cls-5" d="M332.41,382.37c-.42-2.37.57-4.34,1.79-6.24l2.34.12c1.57,6.91-4.64,12.83-2.56,19.81-1.06,1.87-3,.87-4.47,1.36-.56-.5-1.12-1-1.65-1.51C330.13,391.64,332.36,387.37,332.41,382.37Z"/><path class="cls-9" d="M329.51,397.42c1.48-.49,3.41.51,4.47-1.36,2.88-.28,5.72-.36,8.25,1.4a6.55,6.55,0,0,0,.41,1.37c-2.83,4.36-7.08-.43-10.27,1.6l-3,0a3.11,3.11,0,0,0,.08-.74C329.48,399,329.49,398.19,329.51,397.42Z"/><path class="cls-7" d="M309.52,540c3.14,5.85-1.82,6.83-5.25,8.73l-3.56-.3,5-8.6Z"/><path class="cls-7" d="M542.17,251c-.08-.95-.16-1.91-.23-2.87,3.54-5.4.33-11.27,1.17-16.85l2.69-1.72a4.23,4.23,0,0,1,.85,4.54c-4.16,2.56-1.07,6.61-2,9.81C543.9,246.34,546.66,250,542.17,251Z"/><path class="cls-9" d="M332.41,382.37c-.05,5-2.28,9.27-4.55,13.54l-.38.06C326.34,390.43,326.93,385.52,332.41,382.37Z"/><path class="cls-5" d="M408.23,430.1c-.25,3.1-4.32,3.35-4.73,6.34-2.52-.67-3.91-2.51-4.9-4.75C402.14,433.18,404.42,427,408.23,430.1Z"/><path class="cls-8" d="M384.3,273.94c0,5.11-2,8.85-7,10.56C377.52,279.6,380.5,276.49,384.3,273.94Z"/><path class="cls-5" d="M488.25,193.69a11.09,11.09,0,0,1-11.81.09C480.36,192.05,484.3,192.41,488.25,193.69Z"/><path class="cls-8" d="M513.74,201.11c-5.12.41-10.24.82-13.61-4.28C505,197.06,509.87,197.56,513.74,201.11Z"/><path class="cls-7" d="M538.24,284.39c-.13-4.67-.09-9.31,2.49-13.47C539.89,275.41,541.58,280.36,538.24,284.39Z"/><path class="cls-8" d="M521.5,207c-3-1.38-7.77-.53-7.81-5.9C516.92,202.19,520.83,202.42,521.5,207Z"/><path class="cls-8" d="M388.93,268.51c-1,2.28-.92,5.46-4.63,5.43C385.32,271.68,384.79,268.1,388.93,268.51Z"/><path class="cls-7" d="M534.45,297.34c.53-2.45-.93-5.62,2.53-7A8.14,8.14,0,0,1,534.45,297.34Z"/><path class="cls-9" d="M418.06,448.83a3.84,3.84,0,0,1,3-2.83c.44,1.26,2.39,2.44.88,3.81S419.37,449.24,418.06,448.83Z"/><path class="cls-5" d="M497.49,196.62l-6-2.6c2.68.35,6-1.36,7.62,2.38Z"/><path class="cls-4" d="M522.51,326a3.67,3.67,0,0,1,2.91-4.4C525.13,323.48,525.85,326.06,522.51,326Z"/><path class="cls-7" d="M546.47,269.35a2.59,2.59,0,0,1-.5,3.16C544.41,271.19,544.93,270.19,546.47,269.35Z"/><path class="cls-7" d="M545,278.28a3.34,3.34,0,0,1-1.14,3.94C543.21,280.62,543.42,279.25,545,278.28Z"/><path class="cls-7" d="M547.06,236.89l.3,4.47A3,3,0,0,1,547.06,236.89Z"/><path class="cls-4" d="M525.45,321.5c-.25-1.72-.37-3.41,1.48-4.43C526.92,318.71,527.25,320.46,525.45,321.5Z"/><path class="cls-4" d="M526.92,317.08c.46-1,.93-2.05,1.39-3.08C528.21,315.19,528.32,316.48,526.92,317.08Z"/><path class="cls-4" d="M406.84,246.54a1.15,1.15,0,0,1-.5.88L406,247Z"/><path class="cls-7" d="M537.22,290a1,1,0,0,1,.22-.76l.41.5Z"/><path class="cls-9" d="M414.17,452.13l1.39-1.16Z"/><path class="cls-9" d="M415.81,450.7l1.2-1.29Z"/><path class="cls-9" d="M421.28,446l1.43-1.47Z"/><path class="cls-7" d="M542.31,228.41c-.17-.56-.35-1.12-.53-1.68C542,227.29,542.14,227.85,542.31,228.41Z"/><path class="cls-7" d="M131.84,764c5.12,1.32,10.12,3.32,13.21,7.66,4.08,5.73,6.24,3,8.9-1.06,6.47-9.93,13.09-19.78,19.67-29.64,1.78-2.67,3.6-5.33,5.55-7.87.22-.28.22-2.53,1.6-.84a6.46,6.46,0,0,1,.72,2.09c-11.15,17.56-20.23,36.65-36.81,50.79,2.48-5.64-.16-9.19-3.71-12.25-3.36-2.88-6.87-5.78-11.88-4.16Z"/><path class="cls-11" d="M271.12,551.45c3.49.21,6.82-5.81,9.77-1.66,2.8,4-.28,8.9-2.94,12.1-11.37,13.67-20.11,29.15-30.54,43.47-11.51,15.81-21.29,32.88-31.86,49.38-3.65,5.71-6.63,12.26-10.21,17.43-5.85,8.47-10,18.38-18,25.55-5.51,4.93-6.92-2.52-10.6-2.5,12-21,26.07-40.64,39.12-61,7.33-11.42,14.85-22.71,22.3-34,1.07-1.64,2.54-3.08,2.35-5.27C252,581.35,260.55,565.69,271.12,551.45Z"/><path class="cls-7" d="M240.39,593.48c1.67-8.68,8-14.93,11.73-22.55l16.62-25.19,2.51-1.88,2.14,1.82-.36-.09a.51.51,0,0,1,0,.86l-1.89,5c-10.57,14.24-19.13,29.9-30.61,43.5Z"/><path class="cls-12" d="M172.7,701.22c2.46.88,7.3-3.12,6.91,3.68-.36,6.13-4.25,11.8-8.77,11.47a50.32,50.32,0,0,1-7.09-1.51A61.08,61.08,0,0,1,172.7,701.22Z"/><path class="cls-9" d="M448.91,232.63l2.4-1.24,5.83-1.9a3.54,3.54,0,0,0,2.25,3.42c-.54.55-1.08,1.09-1.61,1.64-14.24,5.83-25.43,14.23-29.76,30.26-2.22,8.22-2.21,17.27-6.27,24.66-11.81,21.54-23.91,42.94-37.24,63.6a2.84,2.84,0,0,0-2.84-1.78c-.06-.5-.11-1-.17-1.51l0,0c3.37-2.81,4.61-7,6.89-10.51l.48-1.42c2.52-3.84,5.23-7.56,7.53-11.53,7.14-12.38,15.06-24.33,20.8-37.49,1.39-1.16,1.41-2.76,1.41-4.37,3-4.72,2.79-10.32,4.25-15.46,3.52-12.4,7.35-24.53,20-31.13C445.15,236.71,446.9,234.42,448.91,232.63Z"/><path class="cls-9" d="M465.74,328.84l-1.23,1.51c-4.07,2.61-6.27,6.92-8.84,10.65-6.44,9.34-15.51,16.84-19.57,27.83l0,0-2.56.59-2.31-2.13.66-2.67,0,0c2.09-1.55,3.91-3.29,4.41-6h0c2.76-1.45,3.64-4.28,5-6.78l.12-.17a5.69,5.69,0,0,0,3.82-4.91h0a5.45,5.45,0,0,0,3.11-4.38l-.08.05,1.47-1.64,1.37-1.52a2.91,2.91,0,0,0,2-2.61v.05a4.65,4.65,0,0,0,2.81-3.25c9.65-11.28,18.76-23.07,31.83-30.86,2.48-1.48,4.47-3.77,6.69-5.68,1.06-.43,2.1-.88,2.26-2.22a1.35,1.35,0,0,0,.68-1,4.64,4.64,0,0,0,2.79-3.4,9.67,9.67,0,0,0,3.28-5.66c2.4-7.18,5.27-14.28,4.07-22.13a2.69,2.69,0,0,1,2.7-1.79c1.93,10.34-.11,20.11-4.38,29.53-.54.91-1.08,1.82-1.61,2.73L497,300.51l0-.07c-4.53,1.74-7.46,5.34-10.38,9l.09,0a3,3,0,0,0-2.89,1.73l0,0c-4,2.39-8.09,4.67-10.64,8.81L469,324.5A6,6,0,0,0,465.74,328.84Z"/><path class="cls-5" d="M448.91,232.63c-2,1.79-3.76,4.08-6.08,5.28-12.66,6.6-16.49,18.73-20,31.13-1.46,5.14-1.24,10.74-4.25,15.46-4.38-3.77,2.84-8.88-1.63-13-3.36,3.12-5.92,6.52-7,10.92-1,4.12-3.29,7.05-7.66,8,4.42-11.35,12.69-20.79,16.3-32.55l.06-.08c7.52-6.35,9.31-15.29,4.47-22.31C432.29,240,440.45,235,448.91,232.63Z"/><path class="cls-5" d="M505.82,290.23c4.27-9.42,6.31-19.19,4.39-29.54-.16-8.06-4.7-14.47-8.06-21.33l1.06-1c12.07,11.72,13.27,26.38,10.84,41.76C513.34,284.6,510.89,288.74,505.82,290.23Z"/><path class="cls-5" d="M436.1,368.83c4.06-11,13.13-18.49,19.57-27.83,2.57-3.73,4.77-8,8.84-10.65-1,6.61-4.93,11.68-8.31,17.22-3.52,5.78-8.9,9.78-12.43,15.4C442,365.8,440.25,369,436.1,368.83Z"/><path class="cls-5" d="M457.14,229.49l-5.83,1.9c-.06-3.82,3.16-5.28,5.67-5.88,10.22-2.46,21-5,31-1.47,6.19,2.17,12.79,6.74,15.25,14.28l-1.06,1C489.4,225.81,474.69,221.16,457.14,229.49Z"/><path class="cls-5" d="M473.17,319.87c2.55-4.14,6.65-6.42,10.64-8.81-.43,3.08,1.39,4.78,4.33,6.19C482.43,316.27,478.25,320.5,473.17,319.87Z"/><path class="cls-5" d="M509.27,218.84a28.41,28.41,0,0,1,13.42,10.36C516,228.6,511.85,224.74,509.27,218.84Z"/><path class="cls-5" d="M486.59,309.4c2.92-3.62,5.85-7.22,10.38-9C495.59,305.84,492.85,309.66,486.59,309.4Z"/><path class="cls-5" d="M497,300.51l7.21-7.55C505.63,298.38,503.79,300.3,497,300.51Z"/><path class="cls-5" d="M530.05,236.35c3.25,2.36,4.9,5.73,6,9.43l-1.79,0C530.29,243.81,529.32,240.47,530.05,236.35Z"/><path class="cls-5" d="M490.89,313.4c2.74-2.82,4.7-4.68,8-4.52C497.29,311.28,496.19,314.43,490.89,313.4Z"/><path class="cls-5" d="M522.75,229.17c3.15.91,4.41,3.74,6.18,6.05C524.34,235.79,521.92,234.14,522.75,229.17Z"/><path class="cls-5" d="M433.58,369.39l2.56-.59c-.06,3-.75,5.52-4.15,6.27l-.53-.52c.08-.84.15-1.69.22-2.53Z"/><path class="cls-5" d="M504.86,215.83a5.17,5.17,0,0,1,4.42,3.08C507,219.08,504.65,219.27,504.86,215.83Z"/><path class="cls-5" d="M465.74,328.84A6,6,0,0,1,469,324.5C469.05,326.81,468.94,329,465.74,328.84Z"/><path class="cls-5" d="M483.79,311.09a3,3,0,0,1,2.89-1.73C486.29,310.88,485.11,311.11,483.79,311.09Z"/><path class="cls-1" d="M273.39,545.68l-2.14-1.82a.7.7,0,0,1,.57-.5l2,1.68A.56.56,0,0,1,273.39,545.68Z"/><path class="cls-1" d="M273,546.45a.51.51,0,0,0,0-.86l.46.35Z"/><path class="cls-7" d="M539,250.25a3,3,0,0,1,.6,4.18Z"/><path class="cls-13" d="M329.39,400.47l3,0c.11,3.31.77,5.75,5.12,5.36,9.31-.85,12,2.89,8.49,11.76-3.1,7.91.82,24.61,9.8,26.29,4.43.82,8.12,1.88,12.11-2.09s9.09-6.71,13.95-9.59a6.18,6.18,0,0,1,8.15,1.21,60.48,60.48,0,0,1,7.09,9.16c1.84,3.16-1.14,5.14-3.18,6.65-21.92,16.25-36,38.51-48.28,62.23-1,2-2.08,4.31-4.68,4-2.44-.29-2.39-2.73-2.77-4.66a5.5,5.5,0,0,0-1.24-2.62c-11-11.68-23.28-21.27-39.95-23.25-8.24-1-8.39-1.93-4.07-9.15,5.63-9.43,11.11-18.94,17.59-27.83,1.45-2,.85-4.29,1.22-6.44a7.37,7.37,0,0,1,1.07-2.69c2.3-3.51,11.92-1.33,6.88-11.11-2.44-4.74,4.76-11.33,3.91-18.12C323,405.21,327.76,403.71,329.39,400.47Z"/><path class="cls-1" d="M433.58,369.39l-1.9,2.63c-.45.83-.92,1.66-1.38,2.5q-17.73,24.54-35.41,49.11c-.92,1.3-1,3.17-1.53,4.77-7.54-2.72-13.27.94-19.23,4.93-5.28,3.53-11.06,6.51-17.89,5.45l3-2.83c5.53-1.33,10.81-3.15,14.84-7.45a4.92,4.92,0,0,0,3.72-2.11l5.7-4,1.29-2.49c2.51-.29,3.78,6,7,1.52,12-16.93,24.81-33.25,35.76-50.9l0,0,3.81-3.32Z"/><path class="cls-1" d="M381.67,351.29a2.84,2.84,0,0,1,2.84,1.78c-8.48,14.65-17,29.24-25.33,44-1.26,2.24-4.8,5.24,0,7.83,0,.81,0,1.63,0,2.44L356,409c-2.18-2.69-5.88-3.87-7.28-7.33,3.61-.05,5.18-2.53,6.46-5.37l-.09-.21Z"/><path class="cls-9" d="M359.21,436l-3,2.83c-5.24-.85-7.32-4.2-7.67-9.23a43.21,43.21,0,0,1,1.9-16c.77-2.48,1.58-5.46,5.41-4.55-1.36,2.85-3.08,5.59-2.61,9-1.53.63-1.53,1.77-1,3.08C348.82,429.29,350.94,433.8,359.21,436Z"/><path class="cls-8" d="M353.27,418c-.47-3.38,1.25-6.12,2.61-9l.1-.09,3.14-1.61c5.08,2.9,10.62,5,15.15,8.82-4.1,1.14-6.89-2-10.31-3.1-2.08-.66-5.7-2.76-5.5,1.29C358.71,419.59,355.42,417.48,353.27,418Z"/><path class="cls-5" d="M355.16,396.25c-1.28,2.84-2.85,5.32-6.46,5.37-1.3-2.5-4.56-.72-6.06-2.79a6.55,6.55,0,0,1-.41-1.37Z"/><path class="cls-9" d="M336.53,376.25l-2.33-.12c-.55-4,1.71-7.09,3.24-10.37,8.73-18.68,18.15-37,28-55.13,1.17-2.14,2-4.46,2.95-6.7a2.72,2.72,0,0,1,3.26,1.43c-6.63,13.88-15.23,26.76-20.78,41.18a11.83,11.83,0,0,0-3.85,7.52l.08,0a3.26,3.26,0,0,0-1.71,3,3.38,3.38,0,0,0-1.22,3.16c-2.13,3.62-4.52,7.13-4.76,11.52l.3.09c-1.08-.06-1.33.68-1.49,1.52C337.69,374.29,337.11,375.27,336.53,376.25Z"/><path class="cls-8" d="M493,207.26q-1.27-2.12-2.53-4.23c7.14-1.28,12.82,3.7,19.51,4.68,3.23.48,1.91,3.83,1.07,6.15-5.91-1.48-10-7.55-16.88-6.63l-.59-.08Z"/><path class="cls-8" d="M350.9,346.54c5.56-14.42,14.16-27.3,20.79-41.18,5.28-6.05,8.43-13.4,12.4-20.24,1.19-2,1.63-4.64,4.24-5.6.25.21.48.42.71.63-4.43,15.46-14.63,28-21.69,42.18-3.25,6.52-7.1,13.24-10.87,19.74-2.33,4,.43,7.68,4,9.92,4,2.5,5.66-.81,7.28-3.64,1.2-2.12,2.21-4.36,3.52-6.41,2.77-4.35,2.95-10.49,8.72-12.79l-4.41,11.69c-.09,1-.17,1.9-.25,2.85a2.68,2.68,0,0,0-2.64,3.14c-2.43,1.92-3.13,4.92-4.65,7.4a2.91,2.91,0,0,0-2.94,1.69c-4,.35-7.62-.36-10.65-3.17C354.25,350.12,353.53,347.78,350.9,346.54Z"/><path class="cls-8" d="M388.33,279.52a131.71,131.71,0,0,1,16.37-26.73l.57.54c-3.73,10-8,19.61-16.23,26.82C388.81,279.94,388.58,279.73,388.33,279.52Z"/><path class="cls-9" d="M430.3,374.52c.46-.84.93-1.67,1.38-2.5-.07.84-.14,1.69-.22,2.53l-.58,0Z"/><path class="cls-14" d="M389,280.15c8.27-7.21,12.5-16.86,16.23-26.82,3.11-.2,5.6-1,6.38-4.65a13.61,13.61,0,0,1,2.69-5.18c1.82-2.36,4.38-4.82,7.38-3.28,3.22,1.65.93,4.64.32,7.14-.87,3.55-3.69,6.44-3.41,10.36l-.06.07c-5.7,1.22-5.84,7-7.92,10.69-5.08,9.06-11.78,17.47-13.52,28.16-.74,1.45-1.49,2.89-2.23,4.33-2,.07-3.27.52-1.58,2.72-.19.82-.39,1.65-.58,2.48-5.84,4.23-9.71,9.65-10.22,17.08L380,329.16c-5.78,2.29-6,8.43-8.73,12.78-1.31,2.05-2.32,4.29-3.52,6.41-1.62,2.83-3.26,6.14-7.28,3.64-3.59-2.24-6.35-5.9-4-9.92,3.77-6.5,7.62-13.22,10.87-19.74C374.41,308.18,384.61,295.61,389,280.15Z"/><path class="cls-2" d="M394.9,301c.74-1.44,1.49-2.88,2.23-4.33l2.14-.34c2-.11,2.93-1.11,2.82-3.1l.18-2.85c4.37-.9,6.64-3.83,7.66-8,1.09-4.4,3.65-7.8,7-10.92,4.47,4.14-2.75,9.25,1.63,13,0,1.61,0,3.21-1.41,4.37-1.65,0-2.63.89-3.51,2.24q-9,13.92-18.06,27.73c-1.17,1.77,1.65,4.26-.84,5.32-6.48,2.76-5.09,8.67-5.92,13.73l-.48,1.42c-6.05,1-7.05,5.39-6.89,10.51l0,0c-.93.26-2.45.25-2.71.82-4.06,9-11.88,15.74-15.74,24.85-2.87,6.77-7.94,12.72-8,20.59l.09.21-12.93,1.21c-2.53-1.76-5.37-1.68-8.25-1.4-2.08-7,4.13-12.9,2.56-19.81l1.72-2.94,1.49-1.52-.3-.08c4.31-.1,3,7,7.88,6.15h0c1.7,4.35,3.73,4.19,6,.45l2.51-.51,1.61-1.79c-.22-3.32,1.25-6.88-1.43-9.85.26-2.76-1.88-2.89-3.7-3.37s-2,.61-2,1.94c-.39.09-.79.19-1.18.31-3.23,0-3.13-3.41-4.94-4.86a3.38,3.38,0,0,1,1.22-3.16c1.57-.42,1.8-1.61,1.71-3l-.07,0,7.41-1.31c3,2.81,6.68,3.52,10.65,3.16,2.41,2,2.62,0,2.94-1.68,1.52-2.48,2.22-5.48,4.64-7.4a2.63,2.63,0,0,0,2.65-3.14l.24-2.85c6.64-3.58,6.84-11.86,12.13-16.64a7.36,7.36,0,0,0,1.26-8.62,3,3,0,0,1,1.44-2.92c1.95-.17,2.88-1.21,2.71-3.19-.14-1.1-.27-2.2-.41-3.31.2-.82.4-1.65.59-2.47A2.61,2.61,0,0,0,394.9,301Z"/><path class="cls-8" d="M359.14,404.9c-4.76-2.59-1.22-5.59,0-7.83,8.29-14.76,16.85-29.35,25.33-44,13.33-20.66,25.43-42.06,37.24-63.6,4.06-7.39,4.05-16.44,6.27-24.66,4.33-16,15.52-24.43,29.76-30.25a6.13,6.13,0,0,0,.84.85c-1.19,2-5,2.36-4.06,5.37,1.09,3.54,4.51,1.64,6.9,2,3.53.55,8.21-1.43,9.07,4.48-2.3-.52-4.56-.38-6.92-1.57-6.57-3.31-14.51-1.51-16,3.44-2.29,7.55,4.31,8.59,8.8,11.06-9.35.83-13.43-2.48-14.1-11.42,1.1-.17,2.37-.16,2.26-1.81a.69.69,0,0,0-.47-.47c-1.65-.11-1.63,1.16-1.81,2.26a5.46,5.46,0,0,0-3.09,1.68c-8.37,7.08-7.15,18.24-11.6,27s-3.42,19-10.05,28.18C406.39,321,399.22,339.14,388,354.73c7.95,1.07,13.34,5.14,17.21,11.47-3.46-1.77-6.87-3.65-10.38-5.29-2.8-1.31-5.69-1.87-7.8,1.28-2,3-.09,5.17,1.82,7.06,2.93,2.9,6.12,5.56,9.19,8.32-5.45.81-9.55-2.62-11.68-6.3-4.83-8.34-6.1-2.84-8.22,1.35a36.9,36.9,0,0,1-2.6,4.47c-2.09,3-2,4.9,2.25,5.35,3.85.4,7.07,1.91,8,6.21-2.41-1.12-4.72-2.63-7.25-3.25s-5.59-1.36-7.83,1.69c-2.42,3.3,0,5.4,1.48,7.65a58.14,58.14,0,0,0,4.61,5.46c-3.29-.83-8,3.44-9.81-3.43-.58-2.16-3.78-.22-4.64,2.13s.77,4.27,1.07,6.43Z"/><path class="cls-1" d="M457.14,229.49c17.55-8.33,32.26-3.68,45,9.87,3.36,6.86,7.9,13.27,8.06,21.33a2.72,2.72,0,0,0-2.71,1.8c-4.3-1.23-1.75-5.95-4.15-8.15a1,1,0,0,0-.42-1.12,10.54,10.54,0,0,0-4-7.64l.06,0c-5.28-9.37-13-14.68-24-14.4l-3-.06c-4.39-.91-8.41.88-12.55,1.76A3.54,3.54,0,0,1,457.14,229.49Z"/><path class="cls-5" d="M388.83,337.89c.83-5.06-.56-11,5.92-13.73,2.49-1.06-.33-3.55.84-5.32q9.14-13.8,18.06-27.73c.88-1.35,1.86-2.25,3.51-2.24C411.42,302,403.5,314,396.36,326.36,394.06,330.33,391.35,334.05,388.83,337.89Z"/><path class="cls-5" d="M355.07,396c0-7.87,5.11-13.82,8-20.59,3.86-9.11,11.68-15.8,15.74-24.85.26-.57,1.78-.56,2.71-.82.06.5.11,1,.17,1.51Z"/><path class="cls-8" d="M459.39,232.91c4.14-.88,8.16-2.67,12.55-1.76-1.79,9.72-8.21,4.95-13.32,4.26a6.13,6.13,0,0,1-.84-.85C458.31,234,458.85,233.46,459.39,232.91Z"/><path class="cls-5" d="M381.46,349.82c-.16-5.12.84-9.47,6.89-10.51C386.07,342.82,384.83,347,381.46,349.82Z"/><path class="cls-10" d="M458.62,235.41c5.11.69,11.53,5.46,13.32-4.26l3,.06c4.14,5.83,12.65,4,17.1,9.88,1.33,1.77,3.13,5.42,6.94,4.52l-.06,0c-.29,3.41-.92,7,4,7.64a1,1,0,0,1,.42,1.12q0,15.15.08,30.28a9.73,9.73,0,0,1-3.28,5.67c-2.14.13-3,1.3-2.79,3.39a1.35,1.35,0,0,1-.68,1,2.26,2.26,0,0,0-2.26,2.22c-2.22,1.91-4.21,4.2-6.69,5.68-13.07,7.79-22.18,19.58-31.83,30.86-2.16,0-3.33.91-2.81,3.25v-.05c-1.58.17-1.87,1.32-2,2.61-.46.51-.92,1-1.37,1.52l-1.47,1.64.08-.05c-3.11,0-3.17,2.14-3.11,4.38h0c-2.89.38-4.84,1.49-3.82,4.91a1.92,1.92,0,0,1-.13.17c-5.14-.3-4.47,3.67-5,6.78h0c-3.86.25-4.56,2.82-4.41,6l0,0c-3.86.23-4.66,2.74-4.47,6l0,0c-2.6.6-5.56.69-7.13,3.19-1.37,2.17-1.23,5.54-5,5.53V375.2c1.29-7.84-4.11-8.37-9.61-8.79l-.6-.21c-3.87-6.33-9.26-10.4-17.21-11.47,11.25-15.59,18.42-33.73,29.56-49.08,6.63-9.14,5.58-19.35,10.05-28.18s3.23-20,11.6-27a5.46,5.46,0,0,1,3.09-1.68l0,0c.67,8.94,4.75,12.25,14.1,11.43l2.12.92c.49,2.73,2.6,2.53,4.59,2.52,7.69,2.05,13.2,7.27,18.37,12.86,3.28,3.54,6.9,4.79,11,2.11s4.29-7.14,2.64-11.16c-1.17-2.83-3.65-5.13-5.54-7.66a1.81,1.81,0,0,0-1.67-1.85l0,.14c.82-9.27-5.95-7.62-11.38-7.89l-6-2.93c-.86-5.91-5.54-3.93-9.07-4.48-2.39-.37-5.81,1.53-6.9-2C453.63,237.77,457.43,237.37,458.62,235.41Zm-16.24,34.51c-3.9,2.71-3.69,5.37-.55,8.81,3.88,4.25,9.41,5.47,13.93,8.47.42,1.26,1.45,1.55,2.61,1.62,2.25,4.4,5.87,6.46,10.76,5.8,3.25-.43,5.22-2.64,5.87-5.8,1-4.84-2-7.8-5.34-10.5-5.23-4.19-11.36-6.7-17.46-9.27,1-4.15-2.54-4.55-4.75-4.76C444,264,442.49,266.59,442.38,269.92Z"/><path class="cls-8" d="M503.43,284.62q0-15.14-.08-30.28c2.4,2.2-.15,6.92,4.15,8.15C508.7,270.34,505.83,277.44,503.43,284.62Z"/><path class="cls-8" d="M436.32,358.62c.51-3.11-.16-7.08,5-6.78C440,354.34,439.08,357.17,436.32,358.62Z"/><path class="cls-8" d="M427.46,370.58c-.19-3.25.61-5.76,4.47-6l-.66,2.67Z"/><path class="cls-8" d="M431.91,364.63c-.15-3.19.55-5.76,4.41-6C435.82,361.34,434,363.08,431.91,364.63Z"/><path class="cls-8" d="M441.43,351.67c-1-3.42.93-4.53,3.82-4.91A5.69,5.69,0,0,1,441.43,351.67Z"/><path class="cls-8" d="M445.25,346.77c-.06-2.24,0-4.4,3.11-4.38A5.45,5.45,0,0,1,445.25,346.77Z"/><path class="cls-8" d="M497.36,293.68c-.23-2.09.65-3.26,2.79-3.39A4.64,4.64,0,0,1,497.36,293.68Z"/><path class="cls-8" d="M453.09,336.72c-.52-2.34.65-3.23,2.81-3.25A4.65,4.65,0,0,1,453.09,336.72Z"/><path class="cls-8" d="M494.42,296.93a2.26,2.26,0,0,1,2.26-2.22C496.52,296.05,495.48,296.5,494.42,296.93Z"/><path class="cls-8" d="M451.12,339.28c.1-1.29.39-2.44,2-2.61A2.91,2.91,0,0,1,451.12,339.28Z"/><path class="cls-8" d="M448.28,342.44l1.47-1.64Z"/><path class="cls-8" d="M402.27,290.35l-.18,2.85a2.83,2.83,0,0,0-2.82,3.1l-2.14.34c1.74-10.69,8.44-19.1,13.52-28.16,2.08-3.72,2.22-9.47,7.92-10.69C415,269.56,406.69,279,402.27,290.35Z"/><path class="cls-8" d="M415.39,379.26c3.75,0,3.61-3.35,5-5.52,1.57-2.5,4.53-2.59,7.13-3.19-10.95,17.65-23.79,34-35.76,50.9-3.2,4.52-4.47-1.81-7-1.51L382.61,417c2.19-.62,4.28-.12,6.48.22,3.48.55,4.56-2.81,5.18-5,1-3.37-2.17-2.94-4.28-3.08-2.35-.15-5.16.6-5.65-3,4.07,1.38,8.21,2.8,11.26-1.78,2.48-3.72.46-6.4-2.36-8.78l-.38-2.61a12.38,12.38,0,0,1,9.38,8.3c2.73-2.31-1.41-5.61,1.77-6.89,5.29-2.12,4-6.52,4.19-10.49C411.46,383.68,413.32,381.31,415.39,379.26Z"/><path class="cls-8" d="M359.21,436c-8.27-2.15-10.39-6.66-7-14.86,4.69,11,6.39,11.7,17.13,7.7a21.07,21.07,0,0,1,4.31-.68l.37.39C370,432.8,364.74,434.62,359.21,436Z"/><path class="cls-9" d="M382.61,417l2.15,2.92-1.29,2.48c-1.61-1.78-3.34-3.39-5.8-3.92l-.1,0c-.56-1.57-1.87-2-3.33-2.26l0-.06c-4.53-3.82-10.07-5.92-15.15-8.82,0-.81,0-1.63,0-2.44l4.26.43,1.76.87,13,8,1.64.86a3.27,3.27,0,0,0,2.86,1.84Z"/><path class="cls-8" d="M377.67,418.5c2.46.53,4.19,2.14,5.8,3.92l-5.7,4a5.69,5.69,0,0,0-.86-1C377.17,423.11,377.42,420.81,377.67,418.5Z"/><path class="cls-8" d="M377.77,426.39a4.92,4.92,0,0,1-3.72,2.11l-.36-.39a3.19,3.19,0,0,1,3.22-2.69A5.69,5.69,0,0,1,377.77,426.39Z"/><path class="cls-10" d="M376.91,425.42a3.19,3.19,0,0,0-3.22,2.69,21.05,21.05,0,0,0-4.32.68c-10.74,4-12.44,3.26-17.13-7.7-.5-1.31-.5-2.45,1-3.08,2.15-.53,5.44,1.58,5.19-3.66-.2-4.05,3.42-2,5.5-1.29,3.42,1.09,6.21,4.24,10.31,3.1l0,.06c-.05,2.47.79,3.62,3.33,2.26l.1,0C377.42,420.81,377.17,423.11,376.91,425.42Z"/><path class="cls-8" d="M344.21,360.18c1.81,1.45,1.71,4.85,4.94,4.86-2.45,4-5,8-1.82,12.82-4.91.88-3.57-6.25-7.88-6.15C339.69,367.31,342.08,363.8,344.21,360.18Z"/><path class="cls-5" d="M354.48,352.75l-7.41,1.31a11.77,11.77,0,0,1,3.84-7.52C353.53,347.78,354.25,350.12,354.48,352.75Z"/><path class="cls-5" d="M347.14,354c.09,1.37-.14,2.56-1.71,3A3.26,3.26,0,0,1,347.14,354Z"/><path class="cls-8" d="M339.75,371.79l-1.49,1.52C338.42,372.47,338.67,371.73,339.75,371.79Z"/><path class="cls-5" d="M389,315.58a7.36,7.36,0,0,1-1.26,8.62c-5.29,4.78-5.49,13.06-12.13,16.64q2.22-5.85,4.42-11.69,1.26-2.94,2.49-5.9C385.85,321.69,385.36,316.89,389,315.58Z"/><path class="cls-5" d="M375.36,343.69a2.63,2.63,0,0,1-2.65,3.14A2.69,2.69,0,0,1,375.36,343.69Z"/><path class="cls-5" d="M368.07,354.23c-.32,1.73-.53,3.64-2.94,1.68A2.91,2.91,0,0,1,368.07,354.23Z"/><path class="cls-8" d="M389,315.58c-3.63,1.31-3.14,6.11-6.48,7.67.52-7.43,4.39-12.85,10.23-17.08.13,1.1.26,2.2.4,3.31a2.88,2.88,0,0,0-2.71,3.18A3,3,0,0,0,389,315.58Z"/><path class="cls-8" d="M394.9,301a2.61,2.61,0,0,1-1.58,2.72C391.63,301.49,392.93,301,394.9,301Z"/><path class="cls-14" d="M347.33,377.86c-3.16-4.81-.63-8.81,1.82-12.82.39-.12.79-.22,1.18-.31l5.71,1.43c2.68,3,1.21,6.53,1.43,9.85-.54.6-1.07,1.2-1.61,1.79l-2.51.51-6-.45Z"/><path class="cls-8" d="M347.33,377.86l6,.45C351.06,382.05,349,382.21,347.33,377.86Z"/><path class="cls-8" d="M356,366.16l-5.71-1.43c0-1.33.29-2.39,2-1.94S356.3,363.4,356,366.16Z"/><path class="cls-5" d="M390.43,312.66a2.88,2.88,0,0,1,2.71-3.18C393.31,311.45,392.38,312.49,390.43,312.66Z"/><path class="cls-5" d="M399.27,296.3a2.83,2.83,0,0,1,2.82-3.1C402.2,295.19,401.23,296.19,399.27,296.3Z"/><path class="cls-5" d="M355.86,377.8c.54-.59,1.07-1.19,1.61-1.79Z"/><path class="cls-9" d="M458.51,261.13l-2.12-.92c-4.49-2.48-11.09-3.52-8.8-11.07,1.51-4.95,9.45-6.75,16-3.44,2.36,1.19,4.62,1.05,6.92,1.57l6,2.93,11.38,7.89,0-.14c.56.61,1.12,1.23,1.67,1.85,1.89,2.53,4.37,4.83,5.54,7.66,1.65,4,1.58,8.42-2.64,11.16s-7.75,1.43-11-2.11c-5.17-5.59-10.68-10.81-18.37-12.86A4.32,4.32,0,0,0,458.51,261.13Zm27.17,2.21-.07-.07a2.37,2.37,0,0,0-1.65-2.65l-.08-.07-1.49-1.21a2.18,2.18,0,0,0-1.11-.46l-1.74-1.3L476.63,256a3.3,3.3,0,0,0-3.11-1.45,1.06,1.06,0,0,0-1-.25c-4.15-4.58-9.72-5.18-15.38-5.34-2.08-.06-5-.7-5.39,2.35-.41,3.56,2.77,3.34,5.15,3.68,5.17,2,9.19,6.25,14.78,7.36,1.26,1.72,2.6,3.34,4.75,4a2.26,2.26,0,0,0,1.06.6l3.21,2.6.16.2c1.47,4.59,5.06,7.74,9.05,5,3.17-2.16,2.42-6.9-1.42-9.7l-.14-.15A2.29,2.29,0,0,0,485.68,263.34Z"/><path class="cls-10" d="M408.2,383.86c-.17,4,1.1,8.37-4.19,10.49-3.18,1.28,1,4.58-1.77,6.89a12.38,12.38,0,0,0-9.38-8.3c-.29,0-.57-.09-.86-.15-.5-2.58-1.29-4.71-4.6-3.05l-1.63-1.09c-.94-4.3-4.16-5.81-8-6.21-4.29-.45-4.34-2.32-2.25-5.35a36.9,36.9,0,0,0,2.6-4.47c2.12-4.19,3.39-9.69,8.22-1.35,2.13,3.68,6.23,7.11,11.68,6.3l0,.07c-.61,2.82,1.43,4.6,3,6.15,2.35,2.32,2.43-.34,2.86-1.82Z"/><path class="cls-9" d="M408.2,383.86,403.84,382c-1.6-1.93-3.21-3.83-5.86-4.33l0-.07c-3.07-2.76-6.26-5.42-9.19-8.32-1.91-1.89-3.83-4.07-1.82-7.06,2.11-3.15,5-2.59,7.8-1.28,3.51,1.64,6.92,3.52,10.38,5.29l.61.21c2.66,3.51,7.34,4.83,9.6,8.79v4.07C413.32,381.31,411.46,383.68,408.2,383.86Zm2.45-6.81c-.1-.36-.17-.6-.23-.83-.71-2.65-14.82-12-17.62-11.53s-1.47,2.3-.61,3.06c4.6,4.12,9.34,8.1,14.87,10.93C408.69,379.52,410.53,379.72,410.65,377.05Z"/><path class="cls-9" d="M385.77,388.65l1.63,1.09.36,3.22c-3.58.72-5.73-2.45-8.77-3.22-1.37-.35-2.94-1.22-4,.37s0,2.86,1.14,3.81c3.36,2.85,6.89,5.5,10.19,8.4,1.59,1.38,2.74,2.69,4.86.72,1.78-1.65,2.16-3.05.52-5-1.84-2.18.24-2.15,1.55-2.51,2.82,2.38,4.84,5.06,2.36,8.78-3.05,4.58-7.19,3.16-11.26,1.78l-1.59-1.39c-.95-1.71-2.05-3.19-4.32-3l-1.65-1.53a58.14,58.14,0,0,1-4.61-5.46c-1.52-2.25-3.9-4.35-1.48-7.65,2.24-3,5.16-2.35,7.83-1.69S383.36,387.53,385.77,388.65Z"/><path class="cls-10" d="M376.78,400.2l1.65,1.53c-3.35,4.68-8.41,4.28-13.27,4.47l-1.76-.87c-.3-2.16-1.89-4.15-1.07-6.43s4.06-4.29,4.64-2.13C368.81,403.64,373.49,399.37,376.78,400.2Z"/><path class="cls-10" d="M442.27,248.76c.18-1.1.16-2.37,1.81-2.26a.69.69,0,0,1,.47.47c.11,1.65-1.16,1.64-2.26,1.81Z"/><path class="cls-8" d="M499,245.61c-3.81.9-5.61-2.75-6.94-4.52-4.45-5.9-13-4.05-17.1-9.88C486,230.93,493.69,236.24,499,245.61Z"/><path class="cls-8" d="M502.93,253.22c-4.94-.65-4.31-4.23-4-7.64A10.54,10.54,0,0,1,502.93,253.22Z"/><path class="cls-9" d="M455.76,287.2c-4.52-3-10.05-4.22-13.93-8.47-3.14-3.44-3.35-6.1.55-8.81a15,15,0,0,1,9.82-.87c6.1,2.57,12.23,5.08,17.46,9.27C473,281,476,284,475,288.82c-.65,3.16-2.62,5.37-5.87,5.8-4.89.66-8.51-1.4-10.76-5.8,2.3-.72,4.21.54,6.24,1.22l.69.14.7-.05c5.72-5.61,4.35-8.68-5.46-12.22a11.83,11.83,0,0,0-7.75-3.78c-2.39-.17-5.57-3.45-7.05.23-1.15,2.84,2.86,3.32,4.51,4.91C452.62,281.56,457.51,282.05,455.76,287.2Z"/><path class="cls-4" d="M464.61,290c-2-.68-3.94-1.94-6.24-1.22-1.16-.07-2.19-.36-2.61-1.62,1.75-5.15-3.14-5.64-5.51-7.93-1.65-1.59-5.66-2.07-4.51-4.91,1.48-3.68,4.66-.4,7.05-.23a11.83,11.83,0,0,1,7.75,3.78,7.79,7.79,0,0,1-.51.63c-.76.36-2.09.63-2.19,1.12-.3,1.61,1.16,1.57,2.25,1.77h0C459.83,285.24,464.56,286.42,464.61,290Z"/><path class="cls-8" d="M487.9,258.09l-11.38-7.89C482,250.47,488.72,248.82,487.9,258.09Z"/><path class="cls-8" d="M452.2,269.05a15,15,0,0,0-9.82.87c.11-3.33,1.58-6,5.07-5.63C449.66,264.5,453.24,264.9,452.2,269.05Z"/><path class="cls-8" d="M415.39,375.2c-2.26-4-6.94-5.28-9.6-8.79C411.28,366.83,416.68,367.36,415.39,375.2Z"/><path class="cls-8" d="M458.51,261.13a4.32,4.32,0,0,1,4.59,2.52C461.11,263.66,459,263.86,458.51,261.13Z"/><path class="cls-8" d="M489.6,259.8c-.55-.62-1.11-1.24-1.67-1.85A1.81,1.81,0,0,1,489.6,259.8Z"/><path class="cls-10" d="M382.75,404.72l1.59,1.39c.49,3.62,3.3,2.87,5.65,3,2.11.14,5.23-.29,4.28,3.08-.62,2.22-1.7,5.58-5.18,5-2.2-.34-4.29-.84-6.48-.22l.08-.09c-.31-1.61-1.49-1.87-2.86-1.84l-1.64-.86C378.44,410.46,374.07,404.46,382.75,404.72Z"/><path class="cls-4" d="M393.24,395.55c-1.31.36-3.39.33-1.55,2.51,1.64,1.93,1.26,3.33-.52,5-2.12,2-3.27.66-4.86-.72-3.3-2.9-6.83-5.55-10.19-8.4C375,393,374,391.65,375,390.11s2.64-.72,4-.37c3,.77,5.19,3.94,8.77,3.22,1.44.54,2.91,2.06,4.24-.17.29.06.57.11.86.15C393,393.81,393.11,394.68,393.24,395.55Z"/><path class="cls-8" d="M382.75,404.72c-8.68-.26-4.31,5.74-4.56,9.51l-13-8c4.86-.19,9.92.21,13.27-4.47C380.7,401.53,381.8,403,382.75,404.72Z"/><path class="cls-8" d="M377.57,418.48c-2.54,1.36-3.38.21-3.33-2.26C375.7,416.45,377,416.91,377.57,418.48Z"/><path class="cls-8" d="M379.83,415.09c1.37,0,2.55.23,2.86,1.84A3.27,3.27,0,0,1,379.83,415.09Z"/><path class="cls-13" d="M472.53,254.29a1.06,1.06,0,0,1,1,.25c.59,1.44,1.76,1.64,3.11,1.45l2.91,1.59,1.74,1.3a2.18,2.18,0,0,1,1.11.46l1.49,1.21.08.07c0,1.25.11,2.39,1.65,2.65l.07.07c.29,1.56,1.41,1.69,2.68,1.57l.14.15c.72,6.87-3.48,5.73-7.63,4.68l-.16-.2c.06-2.26-1.14-3-3.21-2.6a2.26,2.26,0,0,1-1.06-.6c-.33-2.81-1.82-4.25-4.75-4-5.59-1.11-9.61-5.4-14.78-7.36-.12-3.22,1.11-4.33,4.36-3.19C464.91,253.07,468.59,254.33,472.53,254.29Z"/><path class="cls-4" d="M472.53,254.29c-3.94,0-7.62-1.22-11.26-2.5-3.25-1.14-4.48,0-4.36,3.19-2.38-.34-5.56-.12-5.15-3.68.34-3.05,3.31-2.41,5.39-2.35C462.81,249.11,468.38,249.71,472.53,254.29Z"/><path class="cls-4" d="M480.87,269.74c4.15,1.05,8.35,2.19,7.63-4.68,3.84,2.8,4.59,7.54,1.42,9.7C485.93,277.48,482.34,274.33,480.87,269.74Z"/><path class="cls-4" d="M471.69,262.34c2.93-.25,4.42,1.19,4.75,4C474.29,265.68,473,264.06,471.69,262.34Z"/><path class="cls-4" d="M477.5,266.94c2.07-.37,3.27.34,3.21,2.6Z"/><path class="cls-4" d="M485.61,263.27c-1.54-.26-1.68-1.4-1.65-2.65A2.37,2.37,0,0,1,485.61,263.27Z"/><path class="cls-4" d="M476.63,256c-1.35.19-2.52,0-3.11-1.45A3.3,3.3,0,0,1,476.63,256Z"/><path class="cls-4" d="M488.36,264.91c-1.27.12-2.39,0-2.68-1.57A2.29,2.29,0,0,1,488.36,264.91Z"/><path class="cls-4" d="M481.28,258.88l-1.74-1.3Z"/><path class="cls-4" d="M483.88,260.55l-1.49-1.21Z"/><path class="cls-8" d="M398,377.64c2.65.5,4.26,2.4,5.86,4.33-.43,1.48-.51,4.14-2.86,1.82C399.41,382.24,397.37,380.46,398,377.64Z"/><path class="cls-8" d="M392,392.79c-1.33,2.23-2.8.71-4.24.17l-.36-3.22C390.71,388.08,391.5,390.21,392,392.79Z"/><path class="cls-4" d="M410.65,377.05c-.12,2.67-2,2.47-3.59,1.63-5.53-2.83-10.27-6.81-14.87-10.93-.86-.76-2.2-2.64.61-3.06s16.91,8.88,17.62,11.53C410.48,376.45,410.55,376.69,410.65,377.05Z"/><path class="cls-4" d="M460.54,277.91c9.81,3.54,11.18,6.61,5.46,12.22,2.65-6,.56-8.84-5.89-8.69h0l-.06-2.89A7.79,7.79,0,0,0,460.54,277.91Z"/><path class="cls-13" d="M460.11,281.44c6.45-.15,8.54,2.66,5.89,8.69l-.7.05-.69-.14C464.56,286.42,459.83,285.24,460.11,281.44Z"/><path class="cls-13" d="M460,278.54l.06,2.89c-1.09-.2-2.55-.16-2.25-1.77C457.94,279.17,459.27,278.9,460,278.54Z"/></svg>