<svg id="Capa_1" data-name="Capa 1" xmlns="http://www.w3.org/2000/svg" viewBox="0 0 667.71 1024"><defs><style>.cls-1{fill:#060707;}.cls-2{fill:#b2dff7;}.cls-3{fill:#b1def6;}.cls-4{fill:#0264fb;}.cls-5{fill:#a5a5a5;}</style></defs><path class="cls-1" d="M224.91,181.62c19.69.64,34.49,6.44,48.65,14.62a166.06,166.06,0,0,1,37.51,29.95c1.82,1.93,3.18,2.14,5.77.9,5.25-2.5,10.23-5.59,15.92-7.25,7.26-2.13,11.76-.47,13.81,6.72a323.67,323.67,0,0,1,7.93,35.82c2,11.9,4.28,23.75,6,35.69a116.29,116.29,0,0,1,1.38,18.77C361.5,331.41,365.6,344.22,372,357c14.62,29,31.44,56.74,48.55,84.34,16.24,26.19,33.32,51.82,49.76,77.86,12.06,19.1,24.87,37.68,37.14,56.62,18.94,29.23,38.64,58,57.32,87.35,5.79,9.11,12.55,17.78,16.42,28.09,4.26,11.38,6.62,22.53,4.71,35.16-3.11,20.53-12.37,37.13-27.36,50.66-16.89,15.25-36.44,25.64-59.08,29.84-7.14,1.32-14.36,3.21-21.48,2.81-19.36-1.1-37.35-6.12-53.29-18.35-14-10.73-23.48-24.58-31.25-39.76q-15.6-30.44-29.75-61.62c-9.71-21.38-19.67-42.65-28.67-64.36-7.25-17.45-15.95-34.28-23.39-51.66-10.6-24.78-21.88-49.25-33.09-73.75-5.53-12.1-11.61-24-17.12-36.08-6.7-14.73-17.08-26.32-31.4-33.27-11.51-5.59-23.67-8.34-37.45-6-16.46,2.81-33.17-.27-49-6.39-5.06-2-10.27-3.65-15.14-6-5.57-2.69-10.64.74-16,.86-14.29.31-22.33-2.32-26.59-15.41-2.6-8,.72-14.29,4.29-20.44,1.56-2.69,1.29-4.38-.14-6.16C77.68,355.85,71.12,338,67.31,318.76c-2.36-11.91-3.65-23.85-2.75-35.84,1.2-16,4-31.91,9.51-47,3.29-9,12.29-13.58,20.19-18.43,15.67-9.61,32.33-17.22,49.37-24,5.77-2.3,9.9-.61,15,7.51q15.81,25.34,31,51.07c8.18,13.86,16,28,23.84,42,1.27,2.26,2.34,2.06,4.29.7A157.93,157.93,0,0,1,231.47,286c2.1-1.17,2.12-1.81.91-3.64q-18-27.19-35.89-54.51c-4.06-6.23-7.56-12.84-11.57-19.11-1.33-2.09-1.69-3.83.08-5.47C197.21,191.92,211,183.71,224.91,181.62ZM571.69,714.77c.44-5.84-1-11.39-2.66-16.78-4.79-16-15.5-28.68-24.07-42.52-9.87-15.94-20.51-31.4-30.72-47.12-16.72-25.71-33.29-51.53-50.07-77.2-15.25-23.31-30.78-46.43-46-69.73-10.06-15.37-19.67-31-29.83-46.33-11.2-16.84-21.76-33.89-27.78-53.47-6.39-20.8-9.6-42-10.95-63.68-.36-5.81-.91-11.72-1.69-17.54-1.21-9-2.76-17.92-4.31-26.85-1.24-7.12-2.34-14.22-5.59-20.91-1.74-3.58-3.36-4.09-6.32-2.16-8.8,5.72-17.49,11.58-26,17.74-17.47,12.63-35.4,24.66-53.41,36.52-11.13,7.33-21.63,15.64-33.65,21.62-2.93,1.46-5.51,2.13-7.66-.6a90.09,90.09,0,0,1-8.41-11.93q-16.86-30.48-36-59.58c-5.92-9-12.1-17.87-20-25.36-1.88-1.79-3.6-3.11-5.47-.34-5.21,7.71-9.9,15.89-12.79,24.61a106.17,106.17,0,0,0-5,42.6,73.11,73.11,0,0,0,4.23,19.33c7.15,19.19,17.32,36.41,33.7,49.56a97.45,97.45,0,0,0,36.9,18.7c15,3.9,30.54,3.25,45.61,6.22,10.92,2.15,20.71,6.11,27.39,16.1,7.21,10.77,12.21,22.6,17.82,34.12,14.63,30,30.06,59.7,44.32,89.95,16.68,35.38,34.65,70.15,52.38,105,18.69,36.76,35.61,74.5,59,108.69,9.67,14.13,20.6,27.28,34.93,36.75s29.6,14.46,47.05,8.06c12.6-4.62,22.65-12.38,31.79-21.85C567,737.5,571.13,726.93,571.69,714.77Zm-469-348.55c.36-4.17,4.23-5.22,6.79-6.44,6.37-3,12.54-6.66,20.56-4.84,13,3,18.11,13,22.45,23.53,3.19,7.73,1.2,11.15-6.12,16-2.15,1.42-3.9,3.45-6,5.35,1.15.88,1.86,1.77,2.77,2.09,7.58,2.6,15.06,5.74,22.85,7.47,12.62,2.81,25.33,5.71,38.47,2.17,7.24-1.95,14.71-2.08,21.82,1.09,24.08,10.71,41.31,28.86,53.61,51.53,13.11,24.17,24.58,49.18,35.22,74.55,8.51,20.26,17.59,40.28,26.3,60.46,8.93,20.7,17.46,41.57,26.62,62.17,8.2,18.46,16.83,36.74,25.61,54.93,7.75,16,15.81,32.14,27.32,45.77,16.87,20,38.8,30,65.29,27.41,5.88-.59,12.78-.49,18.1-5.79-20.42-.56-33.42-6.61-46.33-17.11-16.95-13.78-29.31-31.71-39.67-50.76-9.19-16.89-17.33-34.34-25.81-51.61-16.23-33.09-33.25-65.78-49-99.09-15.1-31.84-31.18-63.21-47.21-94.6-9.29-18.17-19.93-35.68-28.86-54-9.47-19.43-24.3-30.68-45.34-34.55-18-3.31-36-6.37-53.36-12.35-15.37-5.28-27.69-13.72-34.59-29.21-3-6.76-6.49-13.38-9.78-20-6.83-13.85-11.6-28.59-13-43.66-1.92-20.24-1.66-40.83,10.92-58.72.64-.9,1.09-1.94.46-2.83-.88-1.25-2.41-.82-3.32-.23-9,5.83-18.57,10.67-28,15.72-2.66,1.43-4.58,4.08-5.54,7.7-3.92,14.85-8.11,29.55-7.46,45.19.44,10.63-.47,21.31,1.69,31.86C83.79,333.74,92.46,350,102.67,366.22Zm133-173.73c-1,1.79-7.28-1.7-4.12,3.37,12.46,20,25.67,39.51,38.67,59.16,1.32,2,2.61,2.65,5.31.68,8.95-6.52,18.36-12.39,27.52-18.63,2.28-1.55,3.58-3,.69-6A174.42,174.42,0,0,0,274.63,207C262.94,199.15,249.7,195.13,235.68,192.49ZM258,265.32a28,28,0,0,0-1.34-3c-11-18-21.92-36-33.1-53.84-2.53-4.05-3.87-10.69-8-11.45-4.41-.8-8.71,4.52-13.33,6.43-5.85,2.43-4.54,5.46-2.08,9.39,5.5,8.76,10.84,17.61,16.25,26.42,6.89,11.22,13.71,22.47,20.73,33.6,1.65,2.6,3.5,4.95,7.26,1.56,3.09-2.8,7.28-4.36,10.91-6.58C256.39,267.23,258.37,267.25,258,265.32Zm-147.36,111c7.82,2.05,10.27,7.21,11,13.28.56,4.61,2.26,3.61,4.44,1.36a47.75,47.75,0,0,1,8.37-7c2.42-1.56,5-3.68,3-7.4-2.26-4.26-4.08-8.79-9.11-10.78-1.16-.46-2-1.3-3.25-.32C120.66,368.86,116.15,372.2,110.65,376.32Zm-8.18,10.23c-5.4,0-8.66,2.77-8.5,7.23.18,4.84,5,10,9.39,10,6.34,0,9.29-2.51,9.3-7.82C112.66,390.05,108.88,386.55,102.47,386.55Z"/><path class="cls-2" d="M571.69,714.77c-.56,12.16-4.73,22.73-13.32,31.64-9.14,9.47-19.19,17.23-31.79,21.85-17.45,6.4-32.81,1.36-47.05-8.06s-25.26-22.62-34.93-36.75c-23.41-34.19-40.33-71.93-59-108.69-17.73-34.87-35.7-69.64-52.38-105-14.26-30.25-29.69-59.9-44.32-89.95-5.61-11.52-10.61-23.35-17.82-34.12-6.68-10-16.47-13.95-27.39-16.1-15.07-3-30.64-2.32-45.61-6.22a97.45,97.45,0,0,1-36.9-18.7c-16.38-13.15-26.55-30.37-33.7-49.56a73.11,73.11,0,0,1-4.23-19.33,106.17,106.17,0,0,1,5-42.6c2.89-8.72,7.58-16.9,12.79-24.61,1.87-2.77,3.59-1.45,5.47.34,7.9,7.49,14.08,16.38,20,25.36q19.17,29.07,36,59.58a90.09,90.09,0,0,0,8.41,11.93c2.15,2.73,4.73,2.06,7.66.6,12-6,22.52-14.29,33.65-21.62,18-11.86,35.94-23.89,53.41-36.52,8.52-6.16,17.21-12,26-17.74,3-1.93,4.58-1.42,6.32,2.16,3.25,6.69,4.35,13.79,5.59,20.91,1.55,8.93,3.1,17.87,4.31,26.85.78,5.82,1.33,11.73,1.69,17.54,1.35,21.67,4.56,42.88,10.95,63.68,6,19.58,16.58,36.63,27.78,53.47,10.16,15.3,19.77,31,29.83,46.33,15.26,23.3,30.79,46.42,46,69.73,16.78,25.67,33.35,51.49,50.07,77.2,10.21,15.72,20.85,31.18,30.72,47.12C553.53,669.31,564.24,682,569,698,570.65,703.38,572.13,708.93,571.69,714.77ZM342.58,400.53c-13.26-.09-18.95,5.63-19.17,16.34-.24,11.22,3.19,21.54,7.79,31.47Q344.84,477.82,359,507c13.08,27.06,26.16,54.13,39.62,81,15.87,31.69,31.4,63.56,48.12,94.83,9.61,18,20.7,34.59,37.52,46.51,8,5.67,17.28,9.66,27.18,8.93,8.61-.64,16.6-4.4,23.88-9.4,12.22-8.4,18.41-26.14,14.16-39.68-5.67-18.11-16.14-33.74-25.43-49.93-10-17.48-21-34.41-31.71-51.51C480.56,569,468.94,550,456.68,531.51q-25.12-38-53.29-73.82c-13.32-17-26.73-33.79-43.4-47.58C354.28,405.39,347.9,401.18,342.58,400.53Zm8.7-49.21c.09-1.17-.85-1.77-1.36-2.62-3-5-6-10.09-8.84-15.21-7.56-13.57-15-27.22-22.64-40.73-1.15-2-2.25-4.24-6.07-1.62-19.44,13.3-39.59,25.53-59.06,38.82-3.35,2.29-4.1,3.59-2.17,6.81q8.08,13.51,16.05,27.09c5,8.52,10.19,16.95,14.76,25.69,2,3.76,3.91,3.05,6.5,1.5,11.94-7.15,23.76-14.52,35.83-21.44,8.41-4.83,16.75-9.73,24.77-15.2C350.35,353.52,351.43,353,351.28,351.32Z"/><path class="cls-3" d="M102.67,366.22C92.46,350,83.79,333.74,80,315.33c-2.16-10.55-1.25-21.23-1.69-31.86-.65-15.64,3.54-30.34,7.46-45.19,1-3.62,2.88-6.27,5.54-7.7,9.46-5.05,19-9.89,28-15.72.91-.59,2.44-1,3.32.23.63.89.18,1.93-.46,2.83-12.58,17.89-12.84,38.48-10.92,58.72,1.44,15.07,6.21,29.81,13,43.66,3.29,6.66,6.76,13.28,9.78,20,6.9,15.49,19.22,23.93,34.59,29.21,17.37,6,35.4,9,53.36,12.35,21,3.87,35.87,15.12,45.34,34.55,8.93,18.34,19.57,35.85,28.86,54,16,31.39,32.11,62.76,47.21,94.6,15.8,33.31,32.82,66,49,99.09,8.48,17.27,16.62,34.72,25.81,51.61,10.36,19.05,22.72,37,39.67,50.76,12.91,10.5,25.91,16.55,46.33,17.11-5.32,5.3-12.22,5.2-18.1,5.79C459.75,792.05,437.82,782,421,762c-11.51-13.63-19.57-29.72-27.32-45.77-8.78-18.19-17.41-36.47-25.61-54.93-9.16-20.6-17.69-41.47-26.62-62.17-8.71-20.18-17.79-40.2-26.3-60.46-10.64-25.37-22.11-50.38-35.22-74.55-12.3-22.67-29.53-40.82-53.61-51.53-7.11-3.17-14.58-3-21.82-1.09-13.14,3.54-25.85.64-38.47-2.17-7.79-1.73-15.27-4.87-22.85-7.47-.91-.32-1.62-1.21-2.77-2.09,2.09-1.9,3.84-3.93,6-5.35,7.32-4.82,9.31-8.24,6.12-16C148.13,368,143,357.9,130,354.94c-8-1.82-14.19,1.81-20.56,4.84C106.9,361,103,362.05,102.67,366.22Z"/><path class="cls-3" d="M235.68,192.49c14,2.64,27.26,6.66,38.95,14.52a174.42,174.42,0,0,1,29.12,24.05c2.89,3,1.59,4.46-.69,6-9.16,6.24-18.57,12.11-27.52,18.63-2.7,2-4,1.31-5.31-.68-13-19.65-26.21-39.17-38.67-59.16C228.4,190.79,234.66,194.28,235.68,192.49Z"/><path class="cls-4" d="M258,265.32c.36,1.93-1.62,1.91-2.7,2.57-3.63,2.22-7.82,3.78-10.91,6.58-3.76,3.39-5.61,1-7.26-1.56-7-11.13-13.84-22.38-20.73-33.6-5.41-8.81-10.75-17.66-16.25-26.42-2.46-3.93-3.77-7,2.08-9.39,4.62-1.91,8.92-7.23,13.33-6.43,4.13.76,5.47,7.4,8,11.45,11.18,17.86,22.11,35.87,33.1,53.84A28,28,0,0,1,258,265.32Z"/><path class="cls-5" d="M110.65,376.32c5.5-4.12,10-7.46,14.47-10.87,1.29-1,2.09-.14,3.25.32,5,2,6.85,6.52,9.11,10.78,2,3.72-.6,5.84-3,7.4a47.75,47.75,0,0,0-8.37,7c-2.18,2.25-3.88,3.25-4.44-1.36C120.92,383.53,118.47,378.37,110.65,376.32Z"/><path class="cls-5" d="M102.47,386.55c6.41,0,10.19,3.5,10.19,9.41,0,5.31-3,7.79-9.3,7.82-4.35,0-9.21-5.16-9.39-10C93.81,389.32,97.07,386.55,102.47,386.55Z"/><path class="cls-1" d="M342.58,400.53c5.32.65,11.7,4.86,17.41,9.58,16.67,13.79,30.08,30.62,43.4,47.58q28.17,35.83,53.29,73.82C468.94,550,480.56,569,492.35,587.79c10.7,17.1,21.68,34,31.71,51.51,9.29,16.19,19.76,31.82,25.43,49.93,4.25,13.54-1.94,31.28-14.16,39.68-7.28,5-15.27,8.76-23.88,9.4-9.9.73-19.18-3.26-27.18-8.93-16.82-11.92-27.91-28.53-37.52-46.51C430,651.6,414.5,619.73,398.63,588c-13.46-26.87-26.54-53.94-39.62-81q-14.14-29.24-27.81-58.7c-4.6-9.93-8-20.25-7.79-31.47C323.63,406.16,329.32,400.44,342.58,400.53Zm-3.75,31.27c0,5,1.54,8.79,2.88,12.56,7.22,20.28,17.4,39.24,26.24,58.81,7.95,17.61,16.24,35.07,24.65,52.47,10.81,22.34,22.47,44.26,32.71,66.89,6.48,14.3,14.49,27.84,21.56,41.85,10.55,20.92,21.52,41.38,43.58,52.49,15,7.58,25.85,10.33,39-5.24,7-8.31,9-22.29,4.41-30-9.75-16.17-19.31-32.46-29.14-48.58-12.78-21-25.46-42-38.71-62.63-12.15-18.93-24.81-37.53-37.59-56-8.42-12.19-17.36-24-26.26-35.89-8.29-11.06-16.38-22.31-25.38-32.77-6.8-7.91-14-15.65-22.89-21.46-3.41-2.24-7.67-3.2-11.17-1.36S338.52,428.73,338.83,431.8Z"/><path class="cls-1" d="M351.28,351.31c.15,1.7-.93,2.21-2.23,3.1-8,5.47-16.36,10.37-24.77,15.2-12.07,6.92-23.89,14.29-35.83,21.44-2.59,1.55-4.53,2.26-6.5-1.5-4.57-8.74-9.76-17.17-14.76-25.69q-8-13.58-16.05-27.09c-1.93-3.22-1.18-4.52,2.17-6.81,19.47-13.29,39.62-25.52,59.06-38.82,3.82-2.62,4.92-.41,6.07,1.62,7.67,13.51,15.08,27.16,22.64,40.73,2.85,5.12,5.82,10.18,8.84,15.21C350.43,349.55,351.37,350.15,351.28,351.31ZM316,363.45c-.42-.73-.71-1.24-1-1.74q-11.74-18.78-23.48-37.56c-.83-1.34-1.05-3.61-3.34-2.14-1.65,1.05-2.46,2.39-.93,4.6,2.18,3.14,3.71,6.72,5.7,10q8.33,13.77,16.83,27.43c.81,1.31,1.7,3.22,3.78,2.06C314.48,365.56,315.12,364.39,316,363.45Zm-5.91-55c.35.53.71,1,1,1.55,4.71,8.24,9.08,16.71,14.27,24.65,3,4.57,5.7,9.33,8.83,13.8.81,1.16,1.92,3.33,3.86,2.21,2.37-1.37.05-2.91-.56-4.1-2.46-4.86-5.19-9.59-7.78-14.39q-6.81-12.58-13.54-25.2c-.67-1.27-1-3-2.92-2.06A5.81,5.81,0,0,0,310.05,308.42Zm18,48a17.27,17.27,0,0,1-1.71-2q-3.61-6-7.14-12c-5-8.5-9.9-17.07-15.05-25.48-1-1.58-2.64-4.28-4.71-2.94s-.4,3.42.8,5.3c4.22,6.64,8.16,13.46,12.16,20.25,3.28,5.57,6.45,11.2,9.76,16.75.7,1.17,1.6,2.66,3.34,2.1C326.38,358.22,327,357.3,328.05,356.46Zm-51.71-26.65c-3.64.91-1.61,3.17-.82,4.5,7.17,12.16,14.43,24.29,21.91,36.27.75,1.2.77,5.13,3.93,3,2.74-1.83.5-4-.57-5.8-6.87-11.4-13.86-22.72-20.7-34.13A10.67,10.67,0,0,0,276.34,329.81Zm-11.28,7.73c-3.31,1.56-1.79,3.72-.66,5.61q10.92,18.23,22,36.36c.66,1.08,1.34,2.82,3.23,1.35,1.42-1.1,1.4-2.16.47-3.69q-11.33-18.65-22.47-37.41C267,338.65,266.39,337.65,265.06,337.54Z"/><path class="cls-4" d="M338.83,431.8c-.31-3.07.57-7.09,3.93-8.86s7.76-.88,11.17,1.36c8.86,5.81,16.09,13.55,22.89,21.46,9,10.46,17.09,21.71,25.38,32.77,8.9,11.86,17.84,23.7,26.26,35.89,12.78,18.51,25.44,37.11,37.59,56,13.25,20.65,25.93,41.68,38.71,62.63,9.83,16.12,19.39,32.41,29.14,48.58,4.62,7.67,2.62,21.65-4.41,30-13.19,15.57-24,12.82-39,5.24-22.06-11.11-33-31.57-43.58-52.49-7.07-14-15.08-27.55-21.56-41.85-10.24-22.63-21.9-44.55-32.71-66.89-8.41-17.4-16.7-34.86-24.65-52.47-8.84-19.57-19-38.53-26.24-58.81C340.37,440.59,338.84,436.79,338.83,431.8Z"/><path class="cls-5" d="M316,363.45c-.84.94-1.48,2.11-2.47,2.66-2.08,1.16-3-.75-3.78-2.06q-8.5-13.67-16.83-27.43c-2-3.29-3.52-6.87-5.7-10-1.53-2.21-.72-3.55.93-4.6,2.29-1.47,2.51.8,3.34,2.14q11.69,18.81,23.48,37.56C315.25,362.21,315.54,362.72,316,363.45Z"/><path class="cls-5" d="M310.05,308.42a5.81,5.81,0,0,1,3.18-3.54c1.92-1,2.25.79,2.92,2.06q6.71,12.63,13.54,25.2c2.59,4.8,5.32,9.53,7.78,14.39.61,1.19,2.93,2.73.56,4.1-1.94,1.12-3-1.05-3.86-2.21-3.13-4.47-5.83-9.23-8.83-13.8-5.19-7.94-9.56-16.41-14.27-24.65C310.76,309.44,310.4,309,310.05,308.42Z"/><path class="cls-5" d="M328.05,356.46c-1,.84-1.67,1.76-2.55,2.05-1.74.56-2.64-.93-3.34-2.1-3.31-5.55-6.48-11.18-9.76-16.75-4-6.79-7.94-13.61-12.16-20.25-1.2-1.88-2.75-4-.8-5.3s3.75,1.36,4.71,2.94c5.15,8.41,10,17,15.05,25.48q3.53,6,7.14,12A17.27,17.27,0,0,0,328.05,356.46Z"/><path class="cls-5" d="M276.34,329.81a10.67,10.67,0,0,1,3.75,3.88c6.84,11.41,13.83,22.73,20.7,34.13,1.07,1.77,3.31,4,.57,5.8-3.16,2.09-3.18-1.84-3.93-3-7.48-12-14.74-24.11-21.91-36.27C274.73,333,272.7,330.72,276.34,329.81Z"/><path class="cls-5" d="M265.06,337.54c1.33.11,1.91,1.11,2.57,2.22q11.17,18.75,22.47,37.41c.93,1.53.95,2.59-.47,3.69-1.89,1.47-2.57-.27-3.23-1.35q-11.07-18.13-22-36.36C263.27,341.26,261.75,339.1,265.06,337.54Z"/></svg>