<svg id="Capa_1" data-name="Capa 1" xmlns="http://www.w3.org/2000/svg" viewBox="0 0 667.71 1024"><defs><style>.cls-1{fill:#5a411e;}.cls-2{fill:#e5b789;}.cls-3{fill:#c2c2c2;}.cls-4{fill:#aaaaa9;}.cls-5{fill:#ededed;}.cls-6{fill:#fefefe;}</style></defs><path class="cls-1" d="M456.16,317.88a24.38,24.38,0,0,0-6.93-4.05,28.26,28.26,0,0,0-8.3-3.6,21.59,21.59,0,0,0-9.72-2.31c-1.53,0-3.07.09-2.73,2.33a38.91,38.91,0,0,0-2,8.31l-2,8.32-4,16.53c-.6,2.56-1.55,5-1.64,7.7a33.17,33.17,0,0,0-2.12,9A24.21,24.21,0,0,0,415,366.8c-.07.51-.15,1-.22,1.52a34.14,34.14,0,0,0-1.9,7.57c-.67,2.79-1.33,5.59-2,8.38s-1.31,5.51-2,8.27a19.57,19.57,0,0,1-9.56,10.21l-7.51,2c-.57,0-1.13-.09-1.69-.09-4.67-.07-4.67-.06-5.29,4.66a35.34,35.34,0,0,0-2,8.3c-.13.43-.25.86-.37,1.3l-1.65,7-2,8.28c-.64,2.72-1.29,5.43-1.93,8.15a41.17,41.17,0,0,0-1.84,8.34l0,0a19.25,19.25,0,0,0-2,8.49,28.22,28.22,0,0,0-1.87,7.63,37.87,37.87,0,0,0-2.09,9c-1.1,2.38-1.39,5-1.91,7.5q-1.93,8.37-3.88,16.76a37,37,0,0,0-2,8.28,38.36,38.36,0,0,0-2,8.32,106.41,106.41,0,0,0-3.6,15.64c-1.29,2.95-1.68,6.12-2.38,9.21l-1.87,8.31c-2.93,11-5.51,22.14-7.9,33.3a35.6,35.6,0,0,0-1.81,7.56l-.6,2.8a15.26,15.26,0,0,0-1.33,5.55,34.73,34.73,0,0,0-2,8.34,43.19,43.19,0,0,0-2,8.32c-.57,2.4-1.15,4.81-1.72,7.22L330,640.43a42.28,42.28,0,0,0-1.89,8.39,33.56,33.56,0,0,0-2,8.34,143.16,143.16,0,0,0-4,16.6,30,30,0,0,0-1.78,7.53,53.22,53.22,0,0,0-2.21,9.06,158.78,158.78,0,0,0-3.74,16c-.68,2.77-1.36,5.53-2,8.3s-1.35,5.55-2,8.33-1.3,5.47-2,8.21c-1.42,5.52-2.89,11-3.78,16.67-.79,2.75-2,5.39-2,8.34a35,35,0,0,0-2,8.32l-4,16.56a32.31,32.31,0,0,0-1.69,7.65,34.83,34.83,0,0,0-2.13,9,3.88,3.88,0,0,0-.72,2.72c-.4,1.64-.8,3.27-1.19,4.91q-1,4.15-2,8.33l-2,8.28c-.81,2.72-1.62,5.45-2.42,8.17-3.82,6.1-9.24,9.62-16.46,10.23l-8.24-1.2a117.87,117.87,0,0,0-16.65-4,35.76,35.76,0,0,0-8.28-2l-8.33-2c-2.6-1.39-5.59-.62-8.28-1.51l-1.32-.16c-1.9-2-4.61-1.57-6.94-2.26l-7.53-2.09a21.6,21.6,0,0,1-10.57-11.45,35.36,35.36,0,0,1-.81-8.33l1.7-8.27c1-2.21,1.3-4.63,1.84-7q2.06-8.62,4.1-17.26l1.92-8.17c1.32-5.58,3-11.08,3.81-16.77a34.46,34.46,0,0,0,2-8.32,37.55,37.55,0,0,0,2-8.29,45.25,45.25,0,0,0,2-8.34q1.93-8.28,3.86-16.56A33.46,33.46,0,0,0,216.2,698a31.4,31.4,0,0,0,2-8.34,5.71,5.71,0,0,0,.88-3.37q2.5-10.41,5-20.82l1.86-8.3c1.52-5.5,3-11,3.94-16.66l2-8.34,2-8.19a151.67,151.67,0,0,0,3.81-16.67,29.37,29.37,0,0,0,2-8.36,31.36,31.36,0,0,0,2-8.31,39.51,39.51,0,0,0,2-8.29l.27-1.3c.58-2.34,1.15-4.67,1.72-7a36.22,36.22,0,0,0,1.74-7.56,38.22,38.22,0,0,0,2-8.39,36.51,36.51,0,0,0,2-8.3,153.81,153.81,0,0,0,3.7-15.57l2.25-9.19c.64-2.81,1.27-5.61,1.91-8.41A124,124,0,0,0,263.14,500a32.8,32.8,0,0,0,2-8.29,41.11,41.11,0,0,0,2-8.34q2-8.26,4-16.55a39.48,39.48,0,0,0,1.72-7.66,38.3,38.3,0,0,0,2-8.31l2-8.33c.14-.66.29-1.31.43-2,.5-2,1-4.08,1.51-6.12l1.91-8.32-.12,0,.37-.87a37.28,37.28,0,0,0,1.69-7.6,32.18,32.18,0,0,0,2-8.37,119.06,119.06,0,0,0,4-16.63,39.27,39.27,0,0,0,2-8.28c1.05-1.95.59-3.07-1.72-3.33-1.46-.17-2.89-.51-4.33-.77l-7.36-3L275.58,376c-5.34-5.37-8.34-11.68-6.12-19.25,1.23-4.2-.57-6.53-3.41-8.72a15.54,15.54,0,0,0-6.34-3.26c-5.83-2.92-12.23-3.48-18.52-4.54a1.69,1.69,0,0,0-2.07,1.3c-2.19,6.1-6.78,9.57-12.63,11.69a29.24,29.24,0,0,1-8.25.23l-7.66-1.69c-5.74-.5-10.91-3.34-16.59-4.07l-8.32-2-8.27-2c-5.37-1.21-10-3.59-13.22-8.26-1-1.44-1.1-3.4-2.71-4.42V318.56c2-5.38,2.94-11,4.05-16.63a38,38,0,0,0,2-8.28l2-8.15c.15-.74.29-1.47.44-2.2a23.61,23.61,0,0,0,1.5-6.2,35.77,35.77,0,0,0,1.92-8.35,33.73,33.73,0,0,0,2-8.33,35.62,35.62,0,0,0,2-8.33l.21-1a32.44,32.44,0,0,0,1.81-7.34l1.83-7.48,1.94-8.39a42.72,42.72,0,0,0,1.9-8.36c1.83-5.24,2.22-10.92,4.81-15.93,2.62-3.81,6.29-6.32,10.37-8.32h12.45c4.44,1.82,9.18,2.48,13.84,3.44l7.09,1.76a40.25,40.25,0,0,0,8.53,1.87c5.82,2.1,12.3,2.27,17.57,6l3,2.88a19.9,19.9,0,0,1,3.89,9.68,2.26,2.26,0,0,0,1.64,2.27c2.67.92,5.23,2.16,8.08,2.5a30.49,30.49,0,0,0,8.1,1.93,27.91,27.91,0,0,0,8.51.17c5.13-.13,7.37-1.57,8.42-5.42l1.41-2.8a36.83,36.83,0,0,1,6.1-6.19l1.37-.76,6.92-2.14,8.24.93a128.88,128.88,0,0,0,16.66,4,40.79,40.79,0,0,0,8.29,2l8.32,2,4.13.83c6.76,2.22,13.74,3.55,20.68,5a37.58,37.58,0,0,0,7.68,1.79,160.51,160.51,0,0,0,16.47,4l8.37,2a42.9,42.9,0,0,0,8.31,1.87l16.61,4.41,8.38,2.84,16.56,7.24a31,31,0,0,0,6.17,3.49l1.2.69,8.5,5.54a3,3,0,0,0,1.89,1.36l6.36,5,12.24,11.63,4.37,5a10.12,10.12,0,0,0,2.67,3.32l5.61,7.83a.29.29,0,0,0,.19.38c3.46,5.7,6.51,11.62,9.43,17.6l2.89,7.36,3.53,13.82v24.93l-5.5,18.7c-1.85,3.44-3.32,7.06-5.6,10.29-2.42,3.43-5.28,5.78-9.77,5.13-4.18-.6-6.33-3.39-7.62-7.1a28.32,28.32,0,0,0-1.31-8.33,21.13,21.13,0,0,0-1.73-6.38l-.42-1.24a33.2,33.2,0,0,0-3.95-9,25.49,25.49,0,0,0-4.08-7.24l-.73-1.08a38.07,38.07,0,0,0-6.16-8.57,3.32,3.32,0,0,0-1.53-1.79,97.7,97.7,0,0,0-25-22m-284.92-.8c-3.29,10.19-1.19,13.91,9.16,16.36q18.12,4.27,36.23,8.59c7.09,1.68,11-.72,12.68-7.77q12.87-54.39,25.76-108.78c1.26-5.35-1.13-9.74-6.38-11.2-3.64-1-7.37-1.69-11.07-2.51-9.26-2.28-18.52-4.59-27.79-6.84-8.8-2.14-12.29.14-14.36,9C191.6,236.87,186.27,259,181,281.21,178.17,293.42,175.4,305.64,172.59,317.86Zm109.24,31.86c-1.46,2.79-1.66,5.94-2.38,8.93-1.37,5.7,1.33,9.92,7.15,11.31q36.06,8.63,72.15,17.2c9.06,2.16,18.13,4.29,27.19,6.45,8.09,1.92,12.15-.51,14.07-8.59q9.35-39.28,18.66-78.59c1.51-6.35,4.38-8.65,10.91-8.78a31.17,31.17,0,0,1,6.53.46c9,1.72,17.08,5.53,24.72,10.32,20.64,12.91,36.72,29.89,46.25,52.61a91.38,91.38,0,0,1,5,17.58c.46-.35.69-.45.79-.62a13.15,13.15,0,0,0,.84-1.51c7.87-17.05,10.29-34.69,4.39-52.75-9.77-29.88-30.15-50.68-57.39-65.26-18.53-9.91-39-13.45-59.19-18.11-3.1,0-5.84-1.44-8.77-2.14q-35.22-8.46-70.47-16.79c-6.55-1.56-10.64,1.07-12.18,7.62q-11.46,48.56-23,97.11C285.26,334,283.05,341.75,281.83,349.72Zm-15,480.17c4.93-.12,8.27-3.16,9.39-7.9q15.48-65.31,31-130.61,12.51-52.71,25-105.42,16.54-69.86,33.06-139.71,5.81-24.51,11.67-49c.46-1.91.22-2.78-2-3.36-4.52-1.2-9.13-2-13.66-3.15-13.3-3.49-26.71-6.56-40.09-9.75-5-1.2-10.09-2.19-15.06-3.46-2.63-.67-3.26-.64-3.86,2-3.61,15.71-7.36,31.38-11.09,47.06q-13,54.58-26,109.17Q247.64,610,230.1,684.26q-14.17,59.82-28.37,119.63c-1.66,7,1,11,8,12.63,14.21,3.32,28.42,6.7,42.63,10C257.34,827.73,262.39,828.87,266.84,829.89Zm39.34-595.68c-6.59,3.9-13.1,4.83-20.09,4.19a82.78,82.78,0,0,1-25.19-6.81c-2-.85-3-1-3.47,1.64-1.07,5.53-2.54,11-3.84,16.46-6,25.41-12,50.83-18.15,76.21-.75,3.07.26,3.61,2.77,3.63a64.86,64.86,0,0,1,12.65,1.58c9.21,1.93,18.09,4.66,24.92,11.69,1.22,1.25,2.25,2.68,3.63,4.34Z"/><path class="cls-2" d="M266.84,829.89c-4.45-1-9.5-2.16-14.53-3.34-14.21-3.33-28.42-6.71-42.63-10-7-1.63-9.61-5.64-8-12.63q14.16-59.82,28.37-119.63Q247.7,610,265.25,535.74q13-54.58,26-109.17c3.73-15.68,7.48-31.35,11.09-47.06.6-2.63,1.23-2.66,3.86-2,5,1.27,10.05,2.26,15.06,3.46,13.38,3.19,26.79,6.26,40.09,9.75,4.53,1.18,9.14,1.95,13.66,3.15,2.18.58,2.42,1.45,2,3.36q-5.9,24.5-11.67,49Q348.75,516.11,332.23,586q-12.5,52.71-25,105.42-15.49,65.31-31,130.61C275.11,826.73,271.77,829.77,266.84,829.89ZM214.61,781a12.34,12.34,0,0,0,.27,2.32c.54,1.69,1.46,3.65,3.22,3.67,1.93,0,1.83-2.19,2.19-3.74,1.29-5.46,2.55-10.93,3.94-16.37,3.48-13.62,6.36-27.39,9.5-41.09,2.45-10.72,5.26-21.34,7.55-32.1s5.21-21.36,7.67-32.08c4.44-19.32,9.44-38.5,14.05-57.78,2.84-11.93,5.3-23.95,8.1-35.89,3.48-14.83,7.2-29.6,10.69-44.42,2.21-9.37,4.25-18.79,6.52-28.13,2.41-9.88,4.64-19.81,7.21-29.65,3-11.53,5.54-23.18,8.27-34.78,1-4.13,2-8.25,2.84-12.4.2-.93.55-2.22-.63-2.8a2.89,2.89,0,0,0-3.2.56,8.86,8.86,0,0,0-3,5.26q-5.64,24.15-11.33,48.3Q276.7,519.46,264.89,569q-9.54,40.05-19.1,80.1-13.51,57-27,114C217.4,769.15,216,775.18,214.61,781Z"/><path class="cls-3" d="M281.83,349.72c1.22-8,3.43-15.72,5.28-23.55q11.44-48.57,23-97.11c1.54-6.55,5.63-9.18,12.18-7.62q35.24,8.37,70.47,16.79c2.93.7,5.67,2.13,8.77,2.14a18.08,18.08,0,0,1-.28,4.44c-.61,2-.19,2.64,1.86,3.38,4.94,1.8,10.09,2.76,15.26,4.44-4.09-.43-5.72.86-6.72,5.21-2.14,9.35-2.49,19.33-8.12,27.68a8.28,8.28,0,0,0-.65,1.59c-5,11.73-6.41,24.34-8.93,36.66-2.61,12.8-5.7,25.42-13.79,36-7.34,9.62-13.92,14.05-27.26,10.32-7.05-2-14.23-3.47-21.36-5.17-12.59-3-25.14-6.15-37.79-8.86C289,355.06,285.64,352.1,281.83,349.72Zm10.92-27,.9.17A236.28,236.28,0,0,1,302,298.81c5.3-13.16,11.13-26.07,20.15-37.21A27.81,27.81,0,0,1,335,252.15c7.85-2.62,16-3.06,24.1-3.44,11.25-.54,22.51.24,33.73,1.2,1.08.1,2.8.75,3-1.23.2-1.73-1.22-1.87-2.5-2.18-13-3.15-26-6.62-39.11-9.43-7.08-1.51-14.08-3.63-21.67-2.44-12.59,2-21.59,9.93-24.43,22.48-3.29,14.55-6.75,29.06-10.16,43.59C296.27,308,294.5,315.36,292.75,322.69Zm.11,2.46-.27-.56c-.11.17-.3.35-.31.53s.16.38.25.57Z"/><path class="cls-4" d="M281.83,349.72c3.81,2.38,7.18,5.34,11.89,6.35,12.65,2.71,25.2,5.87,37.79,8.86,7.13,1.7,14.31,3.2,21.36,5.17,13.34,3.73,19.92-.7,27.26-10.32,8.09-10.59,11.18-23.21,13.79-36,2.52-12.32,3.93-24.93,8.93-36.66a8.28,8.28,0,0,1,.65-1.59c5.63-8.35,6-18.33,8.12-27.68,1-4.35,2.63-5.64,6.72-5.21C413.17,251,408,250,403.08,248.19c-2.05-.74-2.47-1.37-1.86-3.38a18.08,18.08,0,0,0,.28-4.44c20.15,4.66,40.66,8.2,59.19,18.11,27.24,14.58,47.62,35.38,57.39,65.26,5.9,18.06,3.48,35.7-4.39,52.75a13.15,13.15,0,0,1-.84,1.51c-.1.17-.33.27-.79.62a91.38,91.38,0,0,0-5-17.58c-9.53-22.72-25.61-39.7-46.25-52.61-7.64-4.79-15.76-8.6-24.72-10.32a31.17,31.17,0,0,0-6.53-.46c-6.53.13-9.4,2.43-10.91,8.78Q409.33,345.73,400,385c-1.92,8.08-6,10.51-14.07,8.59-9.06-2.16-18.13-4.29-27.19-6.45q-36.08-8.6-72.15-17.2c-5.82-1.39-8.52-5.61-7.15-11.31C280.17,355.66,280.37,352.51,281.83,349.72Z"/><path class="cls-4" d="M306.18,234.21,279.41,347.14c-1.38-1.66-2.41-3.09-3.63-4.34-6.83-7-15.71-9.76-24.92-11.69a64.86,64.86,0,0,0-12.65-1.58c-2.51,0-3.52-.56-2.77-3.63,6.18-25.38,12.13-50.8,18.15-76.21,1.3-5.48,2.77-10.93,3.84-16.46.51-2.6,1.48-2.49,3.47-1.64a82.78,82.78,0,0,0,25.19,6.81C293.08,239,299.59,238.11,306.18,234.21Z"/><path class="cls-3" d="M172.59,317.86c2.81-12.22,5.58-24.44,8.45-36.65,5.23-22.18,10.56-44.34,15.78-66.52,2.07-8.84,5.56-11.12,14.36-9,9.27,2.25,18.53,4.56,27.79,6.84a25.89,25.89,0,0,1-.34,3.42c-5.4,22.87-10.88,45.73-16.25,68.62-2.54,10.84-5.38,21.45-15,28.58-7.49,5.55-15.89,7.47-25,6.46C179.09,319.26,175.85,318.46,172.59,317.86Zm7.32-12.52c0,1.64.28,3.08,1.8,3.9a3.08,3.08,0,0,0,3.29-.11c1.34-.88,1.76-2.31,2.12-3.81q8.26-35.19,16.59-70.36c1.53-6.48,3.13-12.94,4.68-19.42.55-2.29-.37-4-2.56-4.57s-3.64.77-4.26,2.91c-.25.88-.47,1.78-.68,2.67l-16,67.69Q182.41,294.78,179.91,305.34Z"/><path class="cls-4" d="M172.59,317.86c3.26.6,6.5,1.4,9.79,1.77,9.12,1,17.52-.91,25-6.46,9.61-7.13,12.45-17.74,15-28.58,5.37-22.89,10.85-45.75,16.25-68.62a25.89,25.89,0,0,0,.34-3.42c3.7.82,7.43,1.5,11.07,2.51,5.25,1.46,7.64,5.85,6.38,11.2Q243.54,280.65,230.66,335c-1.67,7-5.59,9.45-12.68,7.77q-18.1-4.31-36.23-8.59C171.4,331.77,169.3,328.05,172.59,317.86Z"/><path class="cls-5" d="M214.61,781c1.37-5.79,2.79-11.82,4.22-17.85q13.47-57,27-114,9.51-40.07,19.1-80.1,11.79-49.59,23.55-99.19,5.71-24.14,11.33-48.3a8.86,8.86,0,0,1,3-5.26,2.89,2.89,0,0,1,3.2-.56c1.18.58.83,1.87.63,2.8-.87,4.15-1.87,8.27-2.84,12.4-2.73,11.6-5.26,23.25-8.27,34.78-2.57,9.84-4.8,19.77-7.21,29.65-2.27,9.34-4.31,18.76-6.52,28.13-3.49,14.82-7.21,29.59-10.69,44.42-2.8,11.94-5.26,24-8.1,35.89-4.61,19.28-9.61,38.46-14.05,57.78-2.46,10.72-5.38,21.33-7.67,32.08s-5.1,21.38-7.55,32.1c-3.14,13.7-6,27.47-9.5,41.09-1.39,5.44-2.65,10.91-3.94,16.37-.36,1.55-.26,3.75-2.19,3.74-1.76,0-2.68-2-3.22-3.67A12.34,12.34,0,0,1,214.61,781Z"/><path class="cls-5" d="M292.75,322.69c1.75-7.33,3.52-14.66,5.24-22,3.41-14.53,6.87-29,10.16-43.59,2.84-12.55,11.84-20.52,24.43-22.48,7.59-1.19,14.59.93,21.67,2.44,13.11,2.81,26.07,6.28,39.11,9.43,1.28.31,2.7.45,2.5,2.18-.23,2-1.95,1.33-3,1.23-11.22-1-22.48-1.74-33.73-1.2-8.1.38-16.25.82-24.1,3.44a27.81,27.81,0,0,0-12.89,9.45c-9,11.14-14.85,24-20.15,37.21a236.28,236.28,0,0,0-8.31,24.05Z"/><path class="cls-5" d="M292.86,325.15l-.33.54c-.09-.19-.26-.38-.25-.57s.2-.36.31-.53Z"/><path class="cls-6" d="M179.91,305.34q2.49-10.54,5-21.1l16-67.69c.21-.89.43-1.79.68-2.67.62-2.14,2-3.52,4.26-2.91s3.11,2.28,2.56,4.57c-1.55,6.48-3.15,12.94-4.68,19.42q-8.33,35.18-16.59,70.36c-.36,1.5-.78,2.93-2.12,3.81a3.08,3.08,0,0,1-3.29.11C180.19,308.42,179.87,307,179.91,305.34Z"/></svg>