<svg id="Capa_1" data-name="Capa 1" xmlns="http://www.w3.org/2000/svg" viewBox="0 0 667.71 1024"><defs><style>.cls-1{fill:#070706;}.cls-2{fill:#cb9731;}.cls-3{fill:#a77411;}.cls-4{fill:#989897;}.cls-5{fill:#656565;}.cls-6{fill:#747473;}.cls-7{fill:gray;}.cls-8{fill:#b2b2b2;}.cls-9{fill:#898989;}.cls-10{fill:#3f3e3d;}.cls-11{fill:#525252;}.cls-12{fill:#fefefe;}</style></defs><path class="cls-1" d="M593.53,843.64h-44c-7.66-2-15.52-2.71-23.34-3.71-4.06-2-8.48-3-12.84-4.1l-.57-.3a40,40,0,0,0-9.28-3.45A29.44,29.44,0,0,0,493,826.54c-1.16-2.35-3.74-2.86-5.61-4.29a15.64,15.64,0,0,0-5.05-3.5,440.53,440.53,0,0,1-32.92-29.66,4,4,0,0,0-2.05-2.06c-9.84-10.76-20.1-21.11-30.55-31.29a6.24,6.24,0,0,0-2.74-2.87,76.3,76.3,0,0,0-8.39-8.57,2,2,0,0,0-1.41-1.41c-8.73-8.51-17.39-17.09-26.23-25.49-1.86-1.76-2.86-3.24-1.41-5.61,1.2.23,1.68-.52,2-1.48,1.16,0,1.78-.9,2.48-1.64l.09-.08a79.52,79.52,0,0,0,8.81-7.38,3.38,3.38,0,0,0,2.14-2.16l10.32-9.93.22,0,.06-.22c4-2.85,6.87-6.73,9.61-10.72l.09-.11c.33-.58.67-1.16,1-1.75a2.47,2.47,0,0,0,1.42-1.91c1.84-1.86,2.64-4.28,3.62-6.61a23.73,23.73,0,0,0,3.72-12.11c.12-.93.23-1.87.35-2.8a.84.84,0,0,0,0-1.39c-.29-2.55,1.52-4.64,1.52-7.12-2.45-4.1-6-7.3-9.23-10.68l-2.21-2.41c-.88-1.95-2.49-3.27-4-4.71a65.64,65.64,0,0,0-7.24-8.2,55.54,55.54,0,0,0-7.13-8.18,13.89,13.89,0,0,0-3.63-4.08,22.12,22.12,0,0,0-5.15-5.84,21.18,21.18,0,0,0-4.78-5.51,40.56,40.56,0,0,0-6.11-7,17.36,17.36,0,0,0-4.07-4.6,10.94,10.94,0,0,0-3-3.44L358.08,569l-.59-.61a6.24,6.24,0,0,0-2.29-2.79l-7.94-9.15a.94.94,0,0,0-.77-.92l-1.21-1.27c-5.65-6.59-11.18-13.29-17-19.74-7.06-7.86-13.65-16.12-21.13-23.61a19.75,19.75,0,0,0-4.38-5.09,50.41,50.41,0,0,0-6.65-7.5A4.53,4.53,0,0,0,294,496l-2.57-2.93-5.13-5.92-2.08-2.33A20.81,20.81,0,0,0,280,480c-1-1.16-1.45-2.83-3.27-3.09-1-3.12-3.69-4.93-5.79-7.18q-3.81-4.35-7.62-8.67l-.45-.52a16.79,16.79,0,0,0-3.73-4.24l-2.3-2.51a25.13,25.13,0,0,0-5.12-5.86,32.78,32.78,0,0,0-5.69-6.47,42.58,42.58,0,0,0-6.22-7.06,15.24,15.24,0,0,0-3.72-4.24,57.62,57.62,0,0,0-7.47-8.44,16.58,16.58,0,0,0-3.85-4.41l-.57-.63a5.87,5.87,0,0,0-2.22-2.46.33.33,0,0,0-.31-.45,7.45,7.45,0,0,0-2.52-2.85v0a31.82,31.82,0,0,0-5.7-6.34,21.72,21.72,0,0,0-4.27-4.95,82,82,0,0,0-7.94-9.12l-8.94-10.07a1.85,1.85,0,0,0-1.18-1.32q-4.65-5.43-9.31-10.84c-.72-.84-1.48-1.53-2.69-.93-2.36.7-3.85-.68-5.3-2.18q-3.14-3.46-6.25-6.94c-3.3-4.26-6.16-8.87-10.11-12.6l0,.06a.66.66,0,0,0-.89-.57c-2.37-.07-4.75-.38-7.11.12l-14.17-.09-7.09-.79-.74-.05-1.25-.19A212.69,212.69,0,0,1,102,337.25c-3.19-1.94-6.75-3-10.19-4.39-.66-.82-1.62-.41-2.43-.6-2.47-2.93-6.06-4.07-9.28-5.8l-8.43-5.55a8,8,0,0,0-2.93-2.24L58,310.33a3.52,3.52,0,0,0-2-1.78l-9.37-8.9L46,299,35.34,287.51l-.64-.78a40.64,40.64,0,0,0-2.53-3.27c-1.93-2-4-3.93-3.22-7.16l5.65-9.87a6.68,6.68,0,0,0,2.11-2.68A69.66,69.66,0,0,0,44,255.6l3-2.87a72.64,72.64,0,0,0,7.93-7.66c1-1.18,2.61-1.89,3.25-3.46l.65-.59c3.45-1.7,6-4.47,8.62-7.18,1.19-.24,1.34-1.48,2.06-2.17A34.78,34.78,0,0,0,77.9,225a17.1,17.1,0,0,0,4.51-3.7l-.12-.32.14.31a8.23,8.23,0,0,0,2.9-2.47,35.46,35.46,0,0,0,6.49-5.41,28,28,0,0,0,5.37-4.53A25.55,25.55,0,0,0,103,204.1a22.27,22.27,0,0,0,6.08-5.32,3.06,3.06,0,0,0,2.22-1.69l2-1.64h0c5.27-4.35,10.49-8.75,15.83-13,3.22-2.56,6.46-5.19,10.82-5.63a8.94,8.94,0,0,0,4.27-.1c5,.11,9.26,2.18,13.25,5l.16.12a49.76,49.76,0,0,1,6.7,7.36l3.42,4.17,4.67,6.27a180.33,180.33,0,0,1,12.27,22.2c1,2.56,2.05,5.11,3.07,7.67l2.43,7.27q1.13,3.75,2.24,7.48l3.06,10.11A53.67,53.67,0,0,0,198,265a186.91,186.91,0,0,1,2.85,38.15c0,1,0,1.9,1,2.4a17.83,17.83,0,0,0,4.18,5.6,37.58,37.58,0,0,0,6,7.2,7.47,7.47,0,0,0,2.48,2.73,2.31,2.31,0,0,0,1.26,1.53c2.41,2.83,4.59,5.76,4.53,9.74.16,2.89,2.63,4.22,4.2,6.15a25.17,25.17,0,0,0,4.32,5.22,63.58,63.58,0,0,0,7.12,8.58l.58.67A137.48,137.48,0,0,0,248,366.73c6.12,8,12.58,15.69,19.19,23.27a52.78,52.78,0,0,0,8.56,9.83c.42,2.63,3.05,3.63,4.23,5.71l5.6,6.69,3.66,4.59a3.52,3.52,0,0,0,2.13,2.12c.67.94.73,2.32,2.07,2.77a12.5,12.5,0,0,0,3.54,4.27,6.55,6.55,0,0,0,2.23,2.79,2.2,2.2,0,0,0,1.31,1.46,5.37,5.37,0,0,0,1.9,2.44l3.05,3.7A35.65,35.65,0,0,0,311,443a9.3,9.3,0,0,0,3,3.62l.55.63a8,8,0,0,0,2.29,2.91l.52.65a116.46,116.46,0,0,0,10.09,12.09l0-.05a3.1,3.1,0,0,0,1.52,1.83,2.37,2.37,0,0,0,1.29,1.62,31.64,31.64,0,0,0,4.75,5.82,9.52,9.52,0,0,0,2.9,3.37l.2,0-.18.09a3.7,3.7,0,0,0,1.69,2.09,66.9,66.9,0,0,0,7.06,8.59l1.74,2.19c3.25,4.07,6.3,8.31,10.08,11.94l.13.08a62.72,62.72,0,0,0,8,9.86,8.17,8.17,0,0,0,2.82,3.44,63.79,63.79,0,0,0,7.1,8.62l3.46,4.36,7.13,8.43A23.48,23.48,0,0,0,392,541a10.43,10.43,0,0,0,2.76,3.43,61.13,61.13,0,0,0,7.66,9.24l1.08,1.3a8.57,8.57,0,0,0,2.77,3.29,7.08,7.08,0,0,0,2.51,3.21c.8,1,1.6,1.89,2.39,2.84l0,0a40.54,40.54,0,0,0,5.74,6.81l.9,1.1a62.58,62.58,0,0,0,6.9,8.35l1.81,2.21a150,150,0,0,0,10.33,12.32c.07.12.15.24.23.35l1.86,2.09,1.23,1.51a108.47,108.47,0,0,0,9.38,11.35.58.58,0,0,0,.61.68,29.26,29.26,0,0,1,2.22,3.14c2.84,5.31,7.08,7,13.06,6.12,5.53-.8,11.24-.15,16.77-1.45a16.78,16.78,0,0,0,8.5-1.43c3.74-1.11,6.79-3.5,10.05-5.5a5.17,5.17,0,0,0,2.73-2.31,86.32,86.32,0,0,0,10.66-9.56c.39-.06.76-.14.77-.65a53.09,53.09,0,0,0,9.84-9,7.18,7.18,0,0,0,2.65-2.87c3.59-3.26,3.58-3.25,6.59.77.42.55.9,1,1.35,1.57l.47.66a86.61,86.61,0,0,0,7.86,10.61,4.8,4.8,0,0,0,2,2.85,1.6,1.6,0,0,0,1,1.32l.77,1.42c-.09.5.15.74.63.8l2.7,3.53a64.38,64.38,0,0,0,7.26,9.88l.12.1,1,1.43a122.75,122.75,0,0,0,8.53,11.86c.43,1.82,1.85,2.88,3.09,4.08a16.31,16.31,0,0,0,3.34,4.56l1.24,1.72.24-.06-.22.09a45.56,45.56,0,0,0,5.25,7.46,8.27,8.27,0,0,0,2.44,3.5A119.67,119.67,0,0,0,592,668.64a58.67,58.67,0,0,0,5.89,9,45.51,45.51,0,0,0,5.17,8l3.67,5.69a51.05,51.05,0,0,0,5.1,8.33,24.83,24.83,0,0,0,3.41,5.8,29.68,29.68,0,0,0,3.69,6.45,159.12,159.12,0,0,1,9.57,22l.7,1.93.39,1.44a30,30,0,0,0,2.16,7.93l2.16,10.47a10.24,10.24,0,0,0,.76,4.95,6.12,6.12,0,0,0,.59,4.24,97,97,0,0,0,1.18,14.24,1.18,1.18,0,0,0,.18,1.36,40.74,40.74,0,0,0,.11,8.55l0,9.91-.42,9.24a3.87,3.87,0,0,0-.2,2.82c-.09.47-.18,1-.26,1.43a2,2,0,0,0-.15,2.24c-.88,1-.68,2.25-.68,3.44a9.36,9.36,0,0,0-1,4.25,3.92,3.92,0,0,0-.89,2.83l-3.84,8.38c-1.1,1.17-2.2,2.33-3.29,3.5-2.72,1.35-5.77,1.54-8.62,2.43a.51.51,0,0,0-.62.14l-1.32.31L602,842.15C599.16,842.54,596.19,842.21,593.53,843.64Zm-88.7-124.28-.48-.57-5.73-5c-.88-.95-1.7-2-2.64-2.83q-17.21-15.83-34.45-31.6c-9-8.19-18.08-16.25-27-24.47-2.09-1.91-2.34-1.13-2.91,1.08-4.17,16.16-13.33,29.29-25.13,40.74-5.41,5.25-10.31,11-16.21,15.76-1.19.95-1.18,1.76-.15,2.92,4.35,4.81,8.27,10.08,13,14.49,11.48,10.73,22.17,22.22,33.23,33.35,13.4,13.48,26.26,27.5,40.58,40,12.9,11.3,27,20.55,43.52,25.78,12.1,3.84,24.62,5.4,37.24,6a240.69,240.69,0,0,0,61.59-4.46c1.62-.33,3-.77,3.48-2.49s1.25-3.36,1.87-5a26.8,26.8,0,0,0,2.2-8.51c2.08-14.21,1.62-28.47.51-42.72-.64-8.28-3.4-16.07-5.73-24-.56-1.44.17-3.42-1.77-4.3l0,.06c1-2.37-1.16-4-1.4-6.17a58.91,58.91,0,0,0-8.28-23.84c-9.85-16.55-20.4-32.65-31.23-48.57-14.34-21.11-29.8-41.41-44.83-62-4.87-6.68-4.52-6.59-10-.34-12.33,14-26.67,24.65-46.07,26.4a34.65,34.65,0,0,0-7.88.33h-6.66c3,4.68,5.79,9,8.65,13.31,8.45,12.64,16,25.87,24.92,38.2-.23.54.05.84.5,1.06,2.85,4.34,5.39,8.89,8.73,12.9a.56.56,0,0,0,.14.6l.59.63c4.36,8.18,10.55,15.3,14,24,.29,1.37.58,2.74.86,4.11-.88.25-1.19-.35-1.61-1-2.68-3.87-5.33-7.76-8.13-11.54-4.53-6.12-8.29-12.79-13.34-18.54a4.61,4.61,0,0,0-.45-1.31q-10-14.35-20.16-28.69c-21.93-31.65-42.95-64-70.23-91.63-1.12,2.41-3,4.57-3.64,7.37-2.92,1.58-4.79,4.35-7.25,6.44-1.93.45-3.38,1.76-5,2.74a22,22,0,0,1-2.71.78c-2.76.47-3.41,1.23-1.21,3.65,7,7.75,13.87,15.66,20.73,23.56,6.42,7.4,12.66,15,19.72,21.78,2.87,2.76,5.29,6,8.82,8.07.38.45.74.92,1.15,1.34q30.3,31,60.59,61.95c5.34,5.48,11.18,10.48,16,16.44-.45,1-1.32.85-2.16.82l-.23-.2c-.79-1.73-1.81-3.18-3.92-3.38a.78.78,0,0,0-.32-.25,2.13,2.13,0,0,0-1.89-1.8.75.75,0,0,0-.27-.26,1.11,1.11,0,0,0-1.28-1.11ZM171.2,340.74a20.8,20.8,0,0,0-2.07.35c-3.9,1.06-3.91,1.12-1.29,4.32s5.45,6.52,8.07,9.86c3.92,5,3.88,5,9.78,2.51a22.29,22.29,0,0,0,8.5-2.78A32.19,32.19,0,0,0,212,338.05c1.26-1.66,3-3.15,1.08-5.51q-9.74-11.93-19.4-23.93c-1.52-1.79-1.82-3.81-1.79-6.18.21-13.95,0-27.91-3.62-41.48-5.18-19.4-10.65-38.72-22.34-55.51-4.78-6.87-9.28-14-16.6-18.62-2.6-1.65-5.32-2.2-8.09-1.1a26.72,26.72,0,0,0-7.77,4.15c-21.89,18.7-45,36-65.8,55.95C58.79,254.38,49,262.1,41.5,272.08c-1.3,2-4.71,3.57-2.2,6.65,3,3.61,6.25,6.95,9.39,10.41,6.7,7.66,14.41,14.22,22.39,20.46,16.12,12.58,33.82,21.83,54.2,25.26,5.21.88,10.39,2.12,15.75,1.53,1.88,0,3.77.22,5.64.08,15.49-1.17,30.28-5.34,44.82-10.55-.18,1.45-1.35,2.17-2.33,2.94-3,2.4-6.1,4.7-9.16,7Zm33.24,18.94c-3.89,1.62-7.37,4.18-11.65,4.91-2.76.48-2.91,1.57-1,3.67,8.83,10,17.54,20,26.29,30.07,12.76,14.65,25.46,29.35,38.27,44,13.19,15,26.54,30,39.71,45,14.49,16.57,28.81,33.28,43.28,49.86,12.38,14.18,24.88,28.26,37.3,42.41,4.51,5.14,6.84,5.56,12.67,2,1.49-.92,2.85-2,4.28-3.07,3.56-3.32,7.84-6.09,8.81-11.42,1.43-1.86-.06-3.09-1.06-4.28q-30.46-36.53-61-73Q321.58,467.38,302.83,445c-11.32-13.43-22.77-26.75-34.09-40.19-15.57-18.49-31.05-37.06-46.63-55.55-3.82-4.54-3.93-4.45-7.59.64A59.69,59.69,0,0,1,204.44,359.68Z"/><path class="cls-2" d="M402.35,567.05c-1,5.33-5.25,8.1-8.81,11.42-5.15-8.36-13.27-14.14-19-22-4.13-5.66-10.12-9.71-14.13-15.6-3.24-4.76-8.27-8.06-11.61-12.7-4.74-6.59-10.74-12-15.85-18.26-5.95-7.28-12.48-14.07-18.69-21.15-7.43-8.47-14.59-17.2-22.23-25.49-6.19-6.72-11.31-14.31-17.83-20.76a86.22,86.22,0,0,1-10.69-13c-2.48-3.68-6.63-5.56-8.86-9.39a22.28,22.28,0,0,0-2.36-3.87c-5.87-6.64-11.56-13.43-17.33-20.16-6.17-7.22-12.44-14.36-18.51-21.66-4.05-4.87-8.47-9.46-12-14.76a59.69,59.69,0,0,0,10.08-9.76c3.9,1.14,5.76,4.78,8.19,7.39,9.15,9.82,17.81,20.09,26.5,30.33,8.32,9.79,16.41,19.76,24.67,29.61,9.64,11.51,19.37,23,29,34.45,7.77,9.25,15.16,18.84,23.36,27.69,7.36,8,13.53,16.89,21.09,24.69,4.62,4.76,8.27,10.44,12.59,15.51,11.13,13,22.28,26.06,33.69,38.86C396.33,561.47,398.47,565.19,402.35,567.05Z"/><path class="cls-3" d="M204.44,359.68c3.53,5.3,7.95,9.89,12,14.76,6.07,7.3,12.34,14.44,18.51,21.66,5.77,6.73,11.46,13.52,17.33,20.16a22.28,22.28,0,0,1,2.36,3.87c2.23,3.83,6.38,5.71,8.86,9.39a86.22,86.22,0,0,0,10.69,13c6.52,6.45,11.64,14,17.83,20.76,7.64,8.29,14.8,17,22.23,25.49,6.21,7.08,12.74,13.87,18.69,21.15,5.11,6.24,11.11,11.67,15.85,18.26,3.34,4.64,8.37,7.94,11.61,12.7,4,5.89,10,9.94,14.13,15.6,5.74,7.88,13.86,13.66,19,22-1.43,1-2.79,2.15-4.28,3.07-5.83,3.6-8.16,3.18-12.67-2-12.42-14.15-24.92-28.23-37.3-42.41-14.47-16.58-28.79-33.29-43.28-49.86-13.17-15.06-26.52-30-39.71-45-12.81-14.61-25.51-29.31-38.27-44-8.75-10-17.46-20.11-26.29-30.07-1.86-2.1-1.71-3.19,1-3.67C197.07,363.86,200.55,361.3,204.44,359.68Z"/><path class="cls-4" d="M41.5,272.08c7.51-10,17.29-17.7,26.21-26.26,20.8-20,43.91-37.25,65.8-55.95a26.72,26.72,0,0,1,7.77-4.15c2.77-1.1,5.49-.55,8.09,1.1,7.32,4.64,11.82,11.75,16.6,18.62,11.69,16.79,17.16,36.11,22.34,55.51,3.62,13.57,3.83,27.53,3.62,41.48,0,2.37.27,4.39,1.79,6.19a43.32,43.32,0,0,1-12.71,11c-11.42,6.73-23.73,9.72-36.88,8.29-12.75-1.38-24.12-6.85-34.84-13.51C95,305.51,82.67,294,69.74,283.29,61.41,276.4,52.86,270.94,41.5,272.08Zm27.81-3.57c1.47,2.11,3.65,3.24,5.9,4.27-.38,1.43-3.09,1.94-1.17,4.36,4,5.08,7.47,10.65,12.17,15.18,14.72,14.17,32.64,21.82,52.51,25.11,13.29,2.2,26.56,2.44,39.29-3.16,3.79-1.67,6.38-4.6,9.14-7.36l-.6-.75-3.13.28c3.52-14.84,2.81-29.65-.63-44.35-3.28-14-7.5-27.72-14.83-40.21-4.08-6.94-7.09-14.58-13.24-20.24-2.43-2.23-5.48-4.06-6.22-7.84-.3-1.55-1.41-.47-2.09.13q-6,5.25-11.92,10.5c-6.52,5.78-13,11.58-19.54,17.35q-14.81,13.1-29.65,26.14c-6.28,5.51-12.53,11.05-19,16.35-2.45,2-1.76,2.85.61,3.69A20.59,20.59,0,0,0,69.31,268.51Z"/><path class="cls-5" d="M506.4,695.51a.56.56,0,0,1-.14-.6A6.41,6.41,0,0,0,505.1,691c-1.18-2-2.65-3.82-3.19-6.13-.15-2.88-2.78-4.87-2.8-7.79,1.91-1,2.4,1.63,3.62,1.54,2.23-.16,4.53-1.74,6.32,1,.06.1.84-.23,1.26-.41,2.79-1.24,5.48.54,5.16,3.58-.34,3.23,2.24,4.5,4,6.23s2.28-.7,3.39-1.25a4.87,4.87,0,0,1,6.88,3.51c.11.59,4.37,3.06,5,3,2.28-.27,4.91-1.39,5.7,2.25.22,1,.86.74,1.58.32,2.7-1.58,5.51,0,5.63,3.15.08,2,4,4.9,6,4.33a5.41,5.41,0,0,1,4.64.93c.21.23.64.26,1,.35a8,8,0,0,1,3.74,2.51c2,2.09,5.41.45,7.31,2.83.08.09.84-.27,1.21-.54,2.14-1.52,3.19-.55,3.77,1.6.9,3.32,4.71,4.47,5.79,7.68.06.18.6.31.9.28,3-.27,5.73,1.61,8.85,1.16,1.25-.18,3.59.51,1.16,2.66a1,1,0,0,0,.06,1.55c.37.37,1,.64,1.25.26,2.08-2.69,2,.61,3.18,1.4-.27-4.73-.56-9.07-.75-13.41-.08-2-.73-4.71,3-4,.67.54.6,1.29.58,2l-.3.4.4-.31c1.27.06,1.71,1,2.25,2,1.21,2.14,2.5,4.23,3.73,6.36a69.45,69.45,0,0,1,8.09,20.14c-1.25.26-2.72,1.56-3.37-.82-.46.79.13,1.75-.79,2.52-3-4.36-9.14-1.25-12.41-5.85-1.46,6-2.68,11.54-4.75,16.85l-.7.73c-.32-.12-.94-.26-.93-.35.5-5.49-2.91-2.17-4.71-2-.83.1-1.37.87-2.48.17-3.77-2.37-5.47-6.88-9.83-8.84-1.66-.74-2.77-1.93-4.86-1.49-1.53.32-3.57.23-4.61-.94-3.49-3.91-7.53-5.81-12.87-5.27-1,.1-3.43.9-3.67-1.76-.42-4.49-2.29-7.07-6.63-7.53-4.92-.53-9.8-.49-12.84-5.31,0-.08-.26,0-.32-.12-2.24-2.64-4.47.71-6.71,0-3.4-8.73-9.59-15.85-14-24Zm60.85,16.58-.32-.54c-.1.18-.28.36-.28.54s.18.36.28.54C567,712.45,567.14,712.27,567.25,712.09Zm12.44,9.07c.11-.2.28-.38.28-.56s-.18-.36-.28-.54c-.1.18-.27.36-.27.54S579.58,721,579.69,721.16Zm-17.64-10.34c-.08,0-.19,0-.22,0a.71.71,0,0,0-.06.26l.37-.07Z"/><path class="cls-6" d="M520.94,720.17c2.24.72,4.47-2.63,6.71,0,.06.07.28,0,.32.12,3,4.82,7.92,4.78,12.84,5.31,4.34.46,6.21,3,6.63,7.53.24,2.66,2.67,1.86,3.67,1.76,5.34-.54,9.38,1.36,12.87,5.27,1,1.17,3.08,1.26,4.61.94,2.09-.44,3.2.75,4.86,1.49,4.36,2,6.06,6.47,9.83,8.84,1.11.7,1.65-.07,2.48-.17,1.8-.21,5.21-3.53,4.71,2,0,.09.61.23.93.35-1.48,3.73-4,6.78-6.39,9.92-2.79,3.49-6.68,5.35-10.63,7.1a10.46,10.46,0,0,0-6-3.19c-4.12-.73-6.79-4.25-10.54-5.73-1.63-.64-4-.78-4.76-2-1.91-3-4.76-3.54-7.69-4.35-1.16-.33-3.09-.43-2.79-2.13.71-4-1-2-2.66-1.4-1.38.51-2.36,2.67-4.62.88-1.29-1-.74-5.15-4.31-3-.34.21-.57-.86-.67-1.43a2.46,2.46,0,0,0-1.51-1.78c-5.81-3.17-13.08-4.15-16.56-10.87-.07-.15-.4-.19-.61-.23-6.27-1.22-12.13-3.33-15.16-5.58-1.13-.84-2.75-1.26-3.54-2-3.11-3-8.29-2.81-10.41-7.1-.26-.52-1-.94-1.5-.6-2.8,1.85-4.05-.56-5.54-2-5-4.86-9.18-10.44-14.64-14.9-1.64-1.34-1.79,1.41-2,.26-.48-2.28-2.44-2.44-3.92-3.13-4.28-2-8.7-3.72-13-5.7-1.62-.74-3.44-.88-4.92-1.5-2.75-1.16-6.26-1.06-8.07-4.09l.17-.29L429,689l-4.26-1.42c.94-2.82,2.9-5.07,4.4-7.57,2.52-4.18,6.6-4.38,9.75-.68.61.72,1.22,1.69,2,1.94a14.43,14.43,0,0,1,7.11,5.34,2.58,2.58,0,0,0,3.77.59c3.06-3.11,5-.12,7.33,1,2.66,1.23,2.56,5.52,6.09,5.68,2.24.1,3.75,1.52,5.14,2.77a5,5,0,0,0,3.13,1.69,5.07,5.07,0,0,1,4.41,3.49c.54,1.51,1.64,2.36,2.88,1.9,1.76-.67,2.74.36,3.81,1.11,3.17,2.23,6.2,4.67,9.37,6.9,1.4,1,2.65,2.47,4.69,2.06l5.73,5,.48.57.2.19c-.09,1,.29,1.39,1.28,1.11a.65.65,0,0,1,.26.26c-.18,1.46.34,2.19,1.9,1.8a.78.78,0,0,1,.32.25c.41,2.16,1.92,3.06,3.92,3.38l.23.2c1,2.19,3.61,2.41,5.17,4,.51.51.85-.41.86-1,2.21-1.06,4.32-2.17,2.83-5.22C521.52,722.91,521.23,721.54,520.94,720.17Z"/><path class="cls-5" d="M498.62,713.79c-2,.41-3.29-1.08-4.69-2.06-3.17-2.23-6.2-4.67-9.37-6.9-1.07-.75-2.05-1.78-3.81-1.11-1.24.46-2.34-.39-2.88-1.9a5.07,5.07,0,0,0-4.41-3.49,5,5,0,0,1-3.13-1.69c-1.39-1.25-2.9-2.67-5.14-2.77-3.53-.16-3.43-4.45-6.09-5.68-2.32-1.07-4.27-4.06-7.33-1a2.58,2.58,0,0,1-3.77-.59,14.43,14.43,0,0,0-7.11-5.34c-.81-.25-1.42-1.22-2-1.94-3.15-3.7-7.23-3.5-9.75.68-1.5,2.5-3.46,4.75-4.4,7.57-2.7,2.93-4.34,6.67-7.37,9.37-.95.85-.55,2.24.42,3.17s2.27,2.05,3.4,3.07c0,.23,0,.47.07.71-3.77-.58-7-2.54-11.07,1.41-2.85,2.72-5.71,6.06-9.37,8.16-1.38.8-.54,1.8.26,2.58l10.89,10.54c2.43,3.49,6,5.94,8.66,9.16,6.12,7.32,13.45,13.46,19.7,20.64q11.29,12.12,23.39,23.42c.36.46.69.95,1.09,1.38,7,7.65,15.11,14.2,22.78,21.15,5.36,4.85,10.75,9.83,17.46,13,12,5.72,24.88,8.55,37.79,11.15a269.79,269.79,0,0,0,36.54,5.26,133.56,133.56,0,0,0,25.69-.38c2.54-.33,5.54.29,7.68-1.93,3.49.66,6.53-2,10-1.37-.52,1.72-1.86,2.16-3.48,2.49a240.69,240.69,0,0,1-61.59,4.46c-12.62-.62-25.14-2.18-37.24-6-16.48-5.23-30.62-14.48-43.52-25.78-14.32-12.55-27.18-26.57-40.58-40-11.06-11.13-21.75-22.62-33.23-33.35-4.72-4.41-8.64-9.68-13-14.49-1-1.16-1-2,.15-2.92,5.9-4.73,10.8-10.51,16.21-15.76,11.8-11.45,21-24.58,25.13-40.74.57-2.21.82-3,2.91-1.08,8.95,8.22,18.05,16.28,27,24.47Q478.81,695.1,496,711C496.92,711.83,497.74,712.84,498.62,713.79Z"/><path class="cls-7" d="M585,763.5c2.39-3.14,4.91-6.19,6.39-9.92.23-.24.46-.49.7-.73,1.72.66,3.65,2.82,4.89-1-.14,1.93.67,2.57,2.15,2.42,4.63-.45,8.63.62,11.41,4.66.23.34.3.36.68.13,2-1.19,3.81-.7,5.67.4,1.09.65,2.26.89,1.71-1.1-1.2-4.4-1-9.13-3.11-13.31.07-1.21-.15-2.28-1.4-2.83h0l-.72-.78,0-1.3A69.45,69.45,0,0,0,605.33,720c-1.23-2.13-2.52-4.22-3.73-6.36-.54-.95-1-1.91-2.25-2l-.09-.1c0-.73.08-1.48-.59-2-1.13-1.91-2.27-3.82-3.38-5.75-4.79-8.35-10.25-16.27-15.81-24.11-1.11-1.79-2.13-3.64-3.33-5.36-4.78-6.87-9.64-13.69-14.43-20.56Q546.53,632,531.39,610.21c-1.4-2-2.28-2.63-4-.2-9.19,13-22.54,19.6-37.41,23.76-2.13-.28-4.18.24-6.27.51s-2.23.84-1.47,2.66c5.57,13.4,10.73,27,16.87,40.13,0,2.92,2.65,4.91,2.8,7.79-1.91-.26-1.71-3.77-4.38-2.85-.45-.22-.73-.52-.5-1.06a7.13,7.13,0,0,0-1.13-5c-2-3.3-3.7-6.84-5.61-10.23-6-10.55-11.49-21.37-18.37-31.4-1-1.4-2.08-2.92-1.8-4.87a34.65,34.65,0,0,1,7.88-.33c.09.88-1.51,1.08-.93,2,.42.69,1.31.46,2,.35,8.47-1.39,17.09-2.81,24.73-6.69a60.21,60.21,0,0,0,22.77-20.18c2.34-3.44,2.38-3.46,4.92.07,8.65,12,17.4,24,25.88,36.13,13.22,18.92,26.56,37.74,39.16,57.08,7.41,11.37,14.31,23,19.1,35.75,1.27,3.37,1.94,7,4.25,10l0-.06c0,1.68-.09,3.39,1.77,4.3,2.33,7.89,5.09,15.68,5.73,24,1.11,14.25,1.57,28.51-.51,42.72a26.8,26.8,0,0,1-2.2,8.51c-2.36-.34-2.14-2.19-2-3.74.36-2.91-1-3.71-3.57-3.36a32.78,32.78,0,0,0,2.83-8c2.3-11.36,1.93-22.84,1.37-34.32,0-1-.39-1.58-1.41-1.69-1.66-1.41.34-3.91-1.45-5.38-2.42,2.64-.2,6.51-2.77,8.94-1.87-.06-4.1,1.72-5.44.46-2.25-2.1-5-2.44-7.59-3.36-5.21-1.85-9.43-6.26-15.34-6.14A3.9,3.9,0,0,1,585,763.5Z"/><path class="cls-7" d="M521.8,724.28c1.49,3.05-.62,4.16-2.82,5.22-1.64-.9-1.91-3.21-3.88-3.77-4.85-6-10.69-11-16-16.44q-30.26-31-60.59-61.95c-.41-.42-.77-.89-1.15-1.34.43-1.47-.37-2.41-1.28-3.43-4-4.47-8-8.92-11.88-13.52-7.46-8.92-14.95-17.82-22.11-27-3.51-4.5-7.88-8.44-10.08-13.91,1.63-1,3.08-2.29,5-2.74,1.47,1.83,2.83,3.76,4.43,5.47q15.88,17,31.54,34.28c10.06,11.07,20.61,21.69,30.93,32.52,1.94,2,3.78,4.13,5.7,6.17q13.32,14.13,26.67,28.26a2.79,2.79,0,0,0,2.46,1.12c5,5.75,8.81,12.42,13.34,18.54,2.8,3.78,5.45,7.67,8.13,11.54C520.61,723.93,520.92,724.53,521.8,724.28Z"/><path class="cls-7" d="M41.5,272.08c11.36-1.14,19.91,4.32,28.24,11.21C82.67,294,95,305.51,109.29,314.41c10.72,6.66,22.09,12.13,34.84,13.51,13.15,1.43,25.46-1.56,36.88-8.29a43.32,43.32,0,0,0,12.71-11c6.46,8,12.91,16,19.4,23.92,1.93,2.36.18,3.85-1.08,5.51a8.07,8.07,0,0,1-3-2.88c-2.71-3.79-5.43-7.56-8.2-11.3-1.4-1.88-2.89-3.15-5-.71a8.46,8.46,0,0,1-4.34,2.76c-14.54,5.21-29.33,9.38-44.82,10.55-1.87.14-3.76-.05-5.64-.08-.45-1.63-2-1.5-3.15-1.81-2.37-.67-4.82-1-7.21-1.61-10.29-2.48-19.89-5.8-28.35-13-11-9.41-22.07-19-34.44-26.82a43.87,43.87,0,0,0-13.6-5.36,5.82,5.82,0,0,0-5.59,1.37c-3.14-3.46-6.43-6.8-9.39-10.41C36.79,275.65,40.2,274.12,41.5,272.08Z"/><path class="cls-3" d="M402.35,567.05c-3.88-1.86-6-5.58-8.7-8.6-11.41-12.8-22.56-25.82-33.69-38.86-4.32-5.07-8-10.75-12.59-15.51-7.56-7.8-13.73-16.73-21.09-24.69-8.2-8.85-15.59-18.44-23.36-27.69-9.67-11.49-19.4-22.94-29-34.45-8.26-9.85-16.35-19.82-24.67-29.61-8.69-10.24-17.35-20.51-26.5-30.33-2.43-2.61-4.29-6.25-8.19-7.39,3.66-5.09,3.77-5.18,7.59-.64,15.58,18.49,31.06,37.06,46.63,55.55,11.32,13.44,22.77,26.76,34.09,40.19q18.8,22.31,37.47,44.74,30.51,36.5,61,73C402.29,564,403.78,565.19,402.35,567.05Z"/><path class="cls-4" d="M498.72,693.24a2.79,2.79,0,0,1-2.46-1.12Q482.93,678,469.59,663.86c-1.92-2-3.76-4.15-5.7-6.17C453.57,646.86,443,636.24,433,625.17q-15.68-17.24-31.54-34.28c-1.6-1.71-3-3.64-4.43-5.47,2.46-2.09,4.33-4.86,7.25-6.43,2.3,4.84,6.44,8.4,9,13.06a27.56,27.56,0,0,0,3.3,5.4q19.34,21.3,38.83,42.45c6.85,7.44,13.95,14.65,20.42,22.45.44.53.9,2.39,2.33.89q10.09,14.34,20.16,28.69A4.61,4.61,0,0,1,498.72,693.24Z"/><path class="cls-8" d="M478.11,663.24c-1.43,1.5-1.89-.36-2.33-.89-6.47-7.8-13.57-15-20.42-22.45q-19.47-21.18-38.83-42.45a27.56,27.56,0,0,1-3.3-5.4c-2.55-4.66-6.69-8.22-9-13.06.63-2.81,2.52-5,3.64-7.38C435.16,599.25,456.18,631.59,478.11,663.24Z"/><path class="cls-8" d="M619.85,743.65c-2.31-2.95-3-6.61-4.25-10-4.79-12.77-11.69-24.38-19.1-35.75-12.6-19.34-25.94-38.16-39.16-57.08-8.48-12.14-17.23-24.11-25.88-36.13-2.54-3.53-2.58-3.51-4.92-.07a60.21,60.21,0,0,1-22.77,20.18c-7.64,3.88-16.26,5.3-24.73,6.69-.66.11-1.55.34-2-.35-.58-1,1-1.17.93-2,19.4-1.75,33.74-12.43,46.07-26.4,5.52-6.25,5.17-6.34,10,.34,15,20.61,30.49,40.91,44.83,62,10.83,15.92,21.38,32,31.23,48.57a58.91,58.91,0,0,1,8.28,23.84C618.69,739.61,620.82,741.28,619.85,743.65Z"/><path class="cls-5" d="M48.69,289.14a5.82,5.82,0,0,1,5.59-1.37,43.87,43.87,0,0,1,13.6,5.36C80.25,301,91.27,310.54,102.32,320c8.46,7.22,18.06,10.54,28.35,13,2.39.58,4.84.94,7.21,1.61,1.14.31,2.7.18,3.15,1.81-5.36.59-10.54-.65-15.75-1.53-20.38-3.43-38.08-12.68-54.2-25.26C63.1,303.36,55.39,296.8,48.69,289.14Z"/><path class="cls-4" d="M191.49,325.92a8.46,8.46,0,0,0,4.34-2.76c2.14-2.44,3.63-1.17,5,.71,2.77,3.74,5.49,7.51,8.2,11.3a8.07,8.07,0,0,0,3,2.88A32.19,32.19,0,0,1,194.19,355c-.45-3.88-4.26-5.37-6-8.38-2.23-3.94-6.91-6.05-8.22-10.73,3.06-2.33,6.15-4.63,9.16-7C190.14,328.09,191.31,327.37,191.49,325.92Z"/><path class="cls-5" d="M392,588.16c2.2,5.47,6.57,9.41,10.08,13.91,7.16,9.16,14.65,18.06,22.11,27,3.84,4.6,7.88,9.05,11.88,13.52.91,1,1.71,2,1.28,3.43-3.53-2-5.95-5.31-8.82-8.07-7.06-6.81-13.3-14.38-19.72-21.78-6.86-7.9-13.71-15.81-20.73-23.56-2.2-2.42-1.55-3.18,1.21-3.65A22,22,0,0,0,392,588.16Z"/><path class="cls-8" d="M470.12,629.44c-.28,1.95.83,3.47,1.8,4.87,6.88,10,12.4,20.85,18.37,31.4,1.91,3.39,3.56,6.93,5.61,10.23a7.13,7.13,0,0,1,1.13,5c-8.93-12.33-16.47-25.56-24.92-38.2-2.86-4.28-5.62-8.63-8.65-13.31Z"/><path class="cls-7" d="M180,335.89c1.31,4.68,6,6.79,8.22,10.73,1.71,3,5.52,4.5,6,8.38a22.29,22.29,0,0,1-8.5,2.78c-.1-3.24-2.78-4.67-4.65-6.67-3.27-3.47-6.16-7.29-9.84-10.37Z"/><path class="cls-9" d="M619.08,816c2.57-.35,3.93.45,3.57,3.36-.19,1.55-.41,3.4,2,3.74q-.93,2.53-1.87,5c-3.48-.62-6.52,2-10,1.37-3.37-.94-6-3.53-9.41-4.34.77-1.31,2.06-1.2,3.35-1.41C611.86,822.9,616.33,820.79,619.08,816Z"/><path class="cls-5" d="M171.2,340.74c3.68,3.08,6.57,6.9,9.84,10.37,1.87,2,4.55,3.43,4.65,6.67-5.9,2.52-5.86,2.49-9.78-2.51-2.62-3.34-5.37-6.58-8.07-9.86s-2.61-3.26,1.29-4.32A20.8,20.8,0,0,1,171.2,340.74Z"/><path class="cls-4" d="M497.53,682c2.67-.92,2.47,2.59,4.38,2.85.54,2.31,2,4.17,3.19,6.13a6.41,6.41,0,0,1,1.16,3.92C502.92,690.9,500.38,686.35,497.53,682Z"/><path class="cls-10" d="M515.1,725.73c2,.56,2.24,2.87,3.88,3.77,0,.61-.36,1.53-.87,1-1.56-1.56-4.13-1.78-5.17-4C513.78,726.58,514.65,726.71,515.1,725.73Z"/><path class="cls-10" d="M512.71,726.35c-2-.32-3.51-1.22-3.92-3.38C510.9,723.17,511.92,724.62,512.71,726.35Z"/><path class="cls-8" d="M621.58,747.89c-1.86-.91-1.79-2.62-1.77-4.3C621.75,744.47,621,746.45,621.58,747.89Z"/><path class="cls-10" d="M508.47,722.72c-1.56.39-2.08-.34-1.9-1.8A2.13,2.13,0,0,1,508.47,722.72Z"/><path class="cls-10" d="M506.31,720.66c-1,.28-1.37-.15-1.28-1.11A1.11,1.11,0,0,1,506.31,720.66Z"/><path class="cls-10" d="M504.83,719.36l-.48-.57Z"/><path class="cls-4" d="M506.4,695.51l.59.63Z"/><path class="cls-1" d="M183.42,306.44l3.13-.28.6.75c-2.76,2.76-5.35,5.69-9.14,7.36-12.73,5.6-26,5.36-39.29,3.16-19.87-3.29-37.79-10.94-52.51-25.11-4.7-4.53-8.13-10.1-12.17-15.18-1.92-2.42.79-2.93,1.17-4.36a23.48,23.48,0,0,0,2.6-1.79C83.57,265.77,89.3,260.5,95,255.25l44.89-41.06c1.92-1.76,3.84-3.55,6.76-3.22A14.53,14.53,0,0,1,150,213.6a81.16,81.16,0,0,1,16.15,23.86c9.09,20.22,14.59,41,11.05,63.42C176.07,307.88,176.19,307.9,183.42,306.44ZM159.7,244.31l-2.37-4.95a12.3,12.3,0,0,0-2.73-5.57c-1.64-4.39-4.92-7.61-7.87-11.07-.69-1.46-1.42-2.51-3-.83s-3.34,3.29-5,4.94a25,25,0,0,0-5,4.45,74.07,74.07,0,0,0-8.44,7.88A14.67,14.67,0,0,0,121.1,243q-9.6,8.07-18.44,17a60,60,0,0,0-7.8,7.14,12,12,0,0,0-3.58,3.41c-9.18,7.85-8.67,5.15-1.18,13.81a2.19,2.19,0,0,0,.59.37,14.41,14.41,0,0,0,4.07,3.75,22.9,22.9,0,0,0,6.39,5.11,73.19,73.19,0,0,0,23.44,11.55,1.4,1.4,0,0,0,1.46.38,31.81,31.81,0,0,0,9.27,2.57,8.45,8.45,0,0,0,4.25.87,2.31,2.31,0,0,0,2.14.32,3.88,3.88,0,0,0,2.83.39,1.5,1.5,0,0,0,1.92.14,2.63,2.63,0,0,0,2.34.33,38.43,38.43,0,0,0,9.22,0l1.39-.09a7.91,7.91,0,0,0,4.25-.45c1.49.36,2.55,0,2.9-1.66.81-3.65,2.1-7.22,1.92-11,1-3,.83-6.13.71-9.24a54,54,0,0,0-1.11-14.95c-.05-1.44,0-2.89-.8-4.18,0-1,.19-2.05-.65-2.87a47.68,47.68,0,0,0-3.24-11.53A40.83,40.83,0,0,0,159.7,244.31Z"/><path class="cls-7" d="M183.42,306.44c-7.23,1.46-7.35,1.44-6.24-5.56,3.54-22.41-2-43.2-11.05-63.42A81.16,81.16,0,0,0,150,213.6a14.53,14.53,0,0,0-3.29-2.63,28.34,28.34,0,0,0,2.75-8.63c.09-.75.41-1.76-.51-2.24s-1.24.42-1.75.85c-4.66,4-9.36,7.84-13.94,11.88-7.13,6.27-14,12.82-21.27,18.94-11.31,9.54-22.21,19.54-33.42,29.19-3,2.59-5.56,5.78-9.24,7.55a20.59,20.59,0,0,1-2.38-.55c-2.37-.84-3.06-1.68-.61-3.69,6.45-5.3,12.7-10.84,19-16.35q14.86-13,29.65-26.14c6.53-5.77,13-11.57,19.54-17.35q5.94-5.27,11.92-10.5c.68-.6,1.79-1.68,2.09-.13.74,3.78,3.79,5.61,6.22,7.84,6.15,5.66,9.16,13.3,13.24,20.24,7.33,12.49,11.55,26.21,14.83,40.21C186.23,276.79,186.94,291.6,183.42,306.44Z"/><path class="cls-5" d="M69.31,268.51c3.68-1.77,6.23-5,9.24-7.55,11.21-9.65,22.11-19.65,33.42-29.19,7.25-6.12,14.14-12.67,21.27-18.94,4.58-4,9.28-7.93,13.94-11.88.51-.43,1-1.25,1.75-.85s.6,1.49.51,2.24a28.34,28.34,0,0,1-2.75,8.63c-2.92-.33-4.84,1.46-6.76,3.22L95,255.25C89.3,260.5,83.57,265.77,77.81,271a23.48,23.48,0,0,1-2.6,1.79C73,271.75,70.78,270.62,69.31,268.51Z"/><path class="cls-11" d="M499.11,677.07c-6.14-13.16-11.3-26.73-16.87-40.13-.76-1.82-.59-2.4,1.47-2.66s4.14-.79,6.27-.51c1.07,3.17,3.92,4,6.64,4.88,1.29.42,2.27.35,2.92,2.21,1.47,4.23,4.38,5.46,8.91,4.54a3.2,3.2,0,0,1,2.91.46c1.95,1.4,3.63,3.75,6.72,2.24.82-.4,1.48.91,2.18,1.52,2.1,1.83,4,4.34,6.5,5.1,2.28.72,3.25,1.56,4,3.63a5.15,5.15,0,0,0,6.22,3.5c3.21-.58,10.26,1.73,11.91,4.26.24.37.55,1,.4,1.26-1.21,2.27.57,3.73,1.45,5.76l.56-3.06c.84,3.33,2.5,3.2,4.44,1.79,3.61-2.61,4.5-2.28,6,2.21.33,1,1,1.85,1.35,2.83,1,2.66,3,1.52,4,.56,2-1.9,3.1-1.86,4.55.57,1.55,2.6,6,3.36,7.87,1.67,5.56,7.84,11,15.76,15.81,24.11,1.11,1.93,2.25,3.84,3.38,5.75-3.72-.71-3.07,2-3,4,.19,4.34.48,8.68.75,13.41-1.2-.79-1.1-4.09-3.18-1.4-.29.38-.88.11-1.25-.26a1,1,0,0,1-.06-1.55c2.43-2.15.09-2.84-1.16-2.66-3.12.45-5.83-1.43-8.85-1.16-.3,0-.84-.1-.9-.28-1.08-3.21-4.89-4.36-5.79-7.68-.58-2.15-1.63-3.12-3.77-1.6-.37.27-1.13.63-1.21.54-1.9-2.38-5.34-.74-7.31-2.83a8,8,0,0,0-3.74-2.51c-.34-.09-.77-.12-1-.35a5.41,5.41,0,0,0-4.64-.93c-1.92.57-5.87-2.3-6-4.33-.12-3.14-2.93-4.73-5.63-3.15-.72.42-1.36.71-1.58-.32-.79-3.64-3.42-2.52-5.7-2.25-.61.07-4.87-2.4-5-3a4.87,4.87,0,0,0-6.88-3.51c-1.11.55-1.73,2.88-3.39,1.25s-4.35-3-4-6.23c.32-3-2.37-4.82-5.16-3.58-.42.18-1.2.51-1.26.41-1.79-2.73-4.09-1.15-6.32-1C501.51,678.7,501,676.07,499.11,677.07Zm79.59,10.57-.48-.79c-.09.19-.27.4-.26.59a4.5,4.5,0,0,0,.25.94Z"/><path class="cls-6" d="M613.42,740.15l0,1.31.72.77h0c.15,1.1-.51,2.6,1.4,2.83,2.14,4.18,1.91,8.91,3.11,13.31.55,2-.62,1.75-1.71,1.1-1.86-1.1-3.71-1.59-5.67-.4-.38.23-.45.21-.68-.13-2.78-4-6.78-5.11-11.41-4.66-1.48.15-2.29-.49-2.15-2.42-1.24,3.82-3.17,1.66-4.89,1,2.07-5.31,3.29-10.88,4.75-16.85,3.27,4.6,9.45,1.49,12.41,5.85.92-.77.33-1.73.79-2.52C610.7,741.71,612.17,740.41,613.42,740.15Z"/><path class="cls-11" d="M567.25,712.09c-.11.18-.22.36-.32.54-.1-.18-.28-.36-.28-.54s.18-.36.28-.54Z"/><path class="cls-11" d="M579.69,721.16c-.11-.2-.28-.38-.27-.56s.17-.36.27-.54c.1.18.28.36.28.54S579.8,721,579.69,721.16Z"/><path class="cls-11" d="M562.05,710.82l.09.24-.37.07a.71.71,0,0,1,.06-.26S562,710.83,562.05,710.82Z"/><path class="cls-11" d="M599.35,711.68l-.4.31.3-.4Z"/><path class="cls-7" d="M421.16,703.23c-1.13-1-2.29-2-3.4-3.07s-1.37-2.32-.42-3.17c3-2.7,4.67-6.44,7.37-9.37L429,689h0c1.81,3,5.32,2.93,8.07,4.09,1.48.62,3.3.76,4.92,1.5,4.29,2,8.71,3.69,13,5.7,1.48.69,3.44.85,3.92,3.13.24,1.15.39-1.6,2-.26,5.46,4.46,9.67,10,14.64,14.9,1.49,1.46,2.74,3.87,5.54,2,.51-.34,1.24.08,1.5.6,2.12,4.29,7.3,4.14,10.41,7.1.79.76,2.41,1.18,3.54,2,3,2.25,8.89,4.36,15.16,5.58.21,0,.54.08.61.23,3.48,6.72,10.75,7.7,16.56,10.87a2.46,2.46,0,0,1,1.51,1.78c.1.57.33,1.64.67,1.43,3.57-2.17,3,2,4.31,3,2.26,1.79,3.24-.37,4.62-.88,1.71-.64,3.37-2.59,2.66,1.4-.3,1.7,1.63,1.8,2.79,2.13,2.93.81,5.78,1.36,7.69,4.35.75,1.19,3.13,1.33,4.76,2,3.75,1.48,6.42,5,10.54,5.73a10.46,10.46,0,0,1,6,3.19v.72c-8.42,3.36-16.8,2.51-25.16-.21-13.11-4.27-24.71-11.34-35.84-19.3q-5.69-4.06-11.35-8.16c-.08-1.51-1.24-2.11-2.26-2.94-4.57-3.7-9.64-6.8-13.58-11.23-3.14-3.53-6.33-6.65-11.25-7.86-5.68-1.4-10.57-5.51-16.86-5.08a2.17,2.17,0,0,1-1.77-1c-.78-1.87-2.45-1.95-4-2.4-4.5-1.29-8.72-3.48-13.36-4.29-2-.34-2.43-3-4.7-2.8s-4.26-.95-6.36-1.72S423.78,701.06,421.16,703.23Z"/><path class="cls-9" d="M574.38,771.32v-.72c4-1.75,7.84-3.61,10.63-7.1a3.9,3.9,0,0,0,4.27,3c5.91-.12,10.13,4.29,15.34,6.14,2.58.92,5.34,1.26,7.59,3.36,1.34,1.26,3.57-.52,5.44-.46-.49,1.55-.88,3.15-1.51,4.65-.82,2-1.22,4.41-4.09,4.58-6.55-2.32-13.89-1-20.11-5.59C586.83,775.43,579.75,775.1,574.38,771.32Z"/><path class="cls-7" d="M429,689l.16-.29L429,689Z"/><path class="cls-4" d="M574.38,771.32c5.37,3.78,12.45,4.11,17.56,7.88,6.22,4.6,13.56,3.27,20.11,5.59,0,1.28,0,2.56-1.13,3.52s-2,2-1.88,3.53a122.28,122.28,0,0,1-19.1,11.37,9.09,9.09,0,0,0-3.45.59c-12.19,4.1-24.51,4-36.86.94-4.72-1.14-9.38-2.54-14.08-3.83-.21,1.07.11,1.77.8,2,5.46,2,10.88,4.16,16.43,5.87,2.81.86,6.2-.07,8.26,3a.94.94,0,0,0,.91.21c4.19-2.17,3.35,1.36,3.84,3.38-3.37,1.25-6.72.14-10.11,0-10.34-.44-20.63-2-31-1.45-1.21.06-2.63-1.45-4.1.69,12.16,2,23.53,5.93,35.58,6.91,5.67.46,11.28,1.93,17,2.24,10.05.55,20.1,1,30.16,1.42,3.43.81,6,3.4,9.41,4.34-2.14,2.22-5.14,1.6-7.68,1.93a133.56,133.56,0,0,1-25.69.38,269.79,269.79,0,0,1-36.54-5.26C529.9,824,517,821.12,505,815.4c-6.71-3.19-12.1-8.17-17.46-13-7.67-7-15.74-13.5-22.78-21.15-.4-.43-.73-.92-1.08-1.38.69-2.62,2.08-.78,2.83-.25,3.89,2.75,8.56,3.5,12.86,5.16,3,1.17,6.87.22,9.32,2.59s5.81,2.52,8.76,3.45c2.32.73,5.37-.49,6.39,3a1.35,1.35,0,0,0,1.14.61c5.15-.6,9.65,2.82,14.76,2.4h0c.11.34.16.94.31,1,3.76.63,7.21,2.24,10.84,3.25a1.4,1.4,0,0,0,1.69-1c.54-1.45-.86-1.16-1.43-1.41C521,794.22,511.74,788.29,502.64,782c-4-2.79-7.23-6.74-11.94-8.58l-18-16.38c-3.38-3.1-7-6-10.05-9.39a159.76,159.76,0,0,0-12.41-12.55c-1.44-2.9-4-4.82-6.11-7.17-1.38-1.55-3.49-2.53-3.88-4.87a16.82,16.82,0,0,1,6.59.86c5.68,2.17,11.44,4.15,17.06,6.48,2.62,1.08,5.6,1.34,7.75,3.8,1.07,1.23,3.87,2.53,4.83,2,2.1-1.22,3.19,0,4.73.58,4,1.57,7.82,3.69,11.84,4.93,2.81.87,5.61,3.06,8.94,2q5.67,4.08,11.35,8.16c11.13,8,22.73,15,35.84,19.3C557.58,773.83,566,774.68,574.38,771.32Z"/><path class="cls-7" d="M450.28,735.11a159.76,159.76,0,0,1,12.41,12.55c3,3.42,6.67,6.29,10.05,9.39l18,16.38c-5.1,0-9.82-1.79-14.26-3.89-2.38-1.12-4.73-2.22-7.21-2.36-3.25-.2-6-1.52-9-2.38-1.9-.54-3.4-1.77-5.4-2.14a26,26,0,0,1-12.23-5.77c-.65-.54-1.23-1.7-2.26-.46-6.25-7.18-13.58-13.32-19.7-20.64-2.68-3.22-6.23-5.67-8.66-9.16.48-2.65,2.12-2.37,4-1.55,2.6,1.17,5.23,2.19,8.14,1.18a1.87,1.87,0,0,1,1.9.55,28.56,28.56,0,0,0,7.38,3.71c1.35.5,3.54.33,4.17,2.57.7,2.45,5.55,4.26,7.32,2.59a2.1,2.1,0,0,1,3-.36C448.66,735.79,449.53,736.15,450.28,735.11Z"/><path class="cls-9" d="M440.3,756.43c1-1.24,1.61-.08,2.26.46a26,26,0,0,0,12.23,5.77c2,.37,3.5,1.6,5.4,2.14,3,.86,5.79,2.18,9,2.38,2.48.14,4.83,1.24,7.21,2.36,4.44,2.1,9.16,3.87,14.26,3.89,4.71,1.84,7.9,5.79,11.94,8.58,9.1,6.28,18.37,12.21,28.52,16.66.57.25,2,0,1.43,1.41a1.4,1.4,0,0,1-1.69,1c-3.63-1-7.08-2.62-10.84-3.25-.15,0-.2-.63-.31-1l.17-.28-.16.29c-5.11.42-9.61-3-14.76-2.4a1.35,1.35,0,0,1-1.14-.61c-1-3.52-4.07-2.3-6.39-3-3-.93-6.19-1-8.76-3.45s-6.3-1.42-9.32-2.59c-4.3-1.66-9-2.41-12.86-5.16-.75-.53-2.14-2.37-2.83.25Q451.57,768.57,440.3,756.43Z"/><path class="cls-9" d="M502,743.65c-3.33,1.1-6.13-1.09-8.94-2-4-1.24-7.85-3.36-11.84-4.93-1.54-.6-2.63-1.8-4.73-.58-1,.56-3.76-.74-4.83-2-2.15-2.46-5.13-2.72-7.75-3.8-5.62-2.33-11.38-4.31-17.06-6.48a16.82,16.82,0,0,0-6.59-.86c-2-1.85-4-3.64-5.87-5.56-4.44-4.48-8.07-9.75-13.19-13.57,0-.24-.05-.48-.07-.71,2.62-2.17,4.65.34,6.72,1.1s4,1.93,6.36,1.72,2.73,2.46,4.7,2.8c4.64.81,8.86,3,13.36,4.29,1.56.45,3.23.53,4,2.4a2.17,2.17,0,0,0,1.77,1c6.29-.43,11.18,3.68,16.86,5.08,4.92,1.21,8.11,4.33,11.25,7.86,3.94,4.43,9,7.53,13.58,11.23C500.79,741.54,502,742.14,502,743.65Z"/><path class="cls-6" d="M421.23,703.94c5.12,3.82,8.75,9.09,13.19,13.57,1.9,1.92,3.91,3.71,5.87,5.56.39,2.34,2.5,3.32,3.88,4.87,2.08,2.35,4.67,4.27,6.11,7.17-.75,1-1.62.68-2.49.21a2.1,2.1,0,0,0-3,.36c-1.77,1.67-6.62-.14-7.32-2.59-.63-2.24-2.82-2.07-4.17-2.57a28.56,28.56,0,0,1-7.38-3.71,1.87,1.87,0,0,0-1.9-.55c-2.91,1-5.54,0-8.14-1.18-1.84-.82-3.48-1.1-4,1.55l-10.89-10.54c-.8-.78-1.64-1.78-.26-2.58,3.66-2.1,6.52-5.44,9.37-8.16C414.28,701.4,417.46,703.36,421.23,703.94Z"/><path class="cls-10" d="M579.48,679.7c-1.88,1.69-6.32.93-7.87-1.67-1.45-2.43-2.54-2.47-4.55-.57-1,1-3,2.1-4-.56-.37-1-1-1.85-1.35-2.83-1.5-4.49-2.39-4.82-6-2.21-1.94,1.41-3.6,1.54-4.44-1.79l-.56,3.06c-.88-2-2.66-3.49-1.45-5.76.15-.27-.16-.89-.4-1.26-1.65-2.53-8.7-4.84-11.91-4.26a5.15,5.15,0,0,1-6.22-3.5c-.72-2.07-1.69-2.91-4-3.63-2.46-.76-4.4-3.27-6.5-5.1-.7-.61-1.36-1.92-2.18-1.52-3.09,1.51-4.77-.84-6.72-2.24a3.2,3.2,0,0,0-2.91-.46c-4.53.92-7.44-.31-8.91-4.54-.65-1.86-1.63-1.79-2.92-2.21-2.72-.87-5.57-1.71-6.64-4.88C504.85,629.61,518.2,623,527.39,610c1.72-2.43,2.6-1.83,4,.2Q546.5,632,561.72,653.78c4.79,6.87,9.65,13.69,14.43,20.56C577.35,676.06,578.37,677.91,579.48,679.7Z"/><path class="cls-8" d="M603.31,825.16c-10.06-.47-20.11-.87-30.16-1.42-5.72-.31-11.33-1.78-17-2.24-12-1-23.42-4.93-35.58-6.91,1.47-2.14,2.89-.63,4.1-.69,10.38-.54,20.67,1,31,1.45,3.39.14,6.74,1.25,10.12,0a12.87,12.87,0,0,0,6.12,1.38,61.61,61.61,0,0,0,11.61-.81c6.7-1.1,13.47-2.15,19.26-6.17,6.16-3,10.93-7.35,12.78-14.26,2.95-7.6,4.46-15.59,6.3-23.48,1,.11,1.36.73,1.41,1.69.56,11.48.93,23-1.37,34.32a32.78,32.78,0,0,1-2.83,8c-2.75,4.81-7.22,6.92-12.42,7.77C605.37,824,604.08,823.85,603.31,825.16Z"/><path class="cls-6" d="M621.87,772c-1.84,7.89-3.35,15.88-6.3,23.48-.76-.09-.56-3.69-2.28-.6-.29.53-1-.26-1.39-.6-1-.8-1.91-1.63-2.86-2.44-.12-1.57.82-2.6,1.88-3.53s1.08-2.24,1.13-3.52c2.87-.17,3.27-2.61,4.09-4.58.63-1.5,1-3.1,1.51-4.65,2.57-2.43.35-6.3,2.77-8.94C622.21,768.09,620.21,770.59,621.87,772Z"/><path class="cls-5" d="M615.5,745.05c-1.91-.23-1.25-1.73-1.4-2.83C615.35,742.77,615.57,743.84,615.5,745.05Z"/><path class="cls-5" d="M614.11,742.23l-.72-.77Z"/><path class="cls-12" d="M80,209.65h0"/><path class="cls-10" d="M578.7,687.64l-.49.74a4.5,4.5,0,0,1-.25-.94c0-.19.17-.4.26-.59Z"/><path class="cls-9" d="M602.79,809.74c-5.79,4-12.56,5.07-19.26,6.17a61.61,61.61,0,0,1-11.61.81,12.87,12.87,0,0,1-6.12-1.38c-.5-2,.34-5.54-3.85-3.37a.94.94,0,0,1-.91-.21c-2.06-3-5.45-2.09-8.26-3-5.55-1.71-11-3.85-16.43-5.87-.69-.26-1-1-.8-2,4.7,1.29,9.36,2.69,14.08,3.83,12.35,3,24.67,3.16,36.86-.94a9.09,9.09,0,0,1,3.45-.59,6.16,6.16,0,0,0,4.37.59c.65-.13,1.44-.73,1.88.06a7.54,7.54,0,0,0,6,4C602.89,808,602.69,809.07,602.79,809.74Z"/><path class="cls-7" d="M602.79,809.74c-.1-.67.1-1.78-.56-1.87a7.54,7.54,0,0,1-6-4c-.44-.79-1.23-.19-1.88-.06a6.16,6.16,0,0,1-4.37-.59A122.28,122.28,0,0,0,609,791.84c1,.81,1.9,1.64,2.86,2.44.42.34,1.1,1.13,1.39.6,1.72-3.09,1.52.51,2.28.6C613.72,802.39,609,806.69,602.79,809.74Z"/><path class="cls-4" d="M519.76,796.84l.16-.29-.17.28Z"/></svg>