<svg id="Capa_1" data-name="Capa 1" xmlns="http://www.w3.org/2000/svg" viewBox="0 0 667.71 1024"><defs><style>.cls-1{fill:#e9dad0;}.cls-2{fill:#d2ad98;}.cls-3{fill:#c0351f;}.cls-4{fill:#dec5b4;}.cls-5{fill:#e6e3e2;}.cls-6{fill:#c39173;}.cls-7{fill:#ab6d4e;}.cls-8{fill:#482d1d;}.cls-9{fill:#fcfbfa;}.cls-10{fill:#ae3223;}</style></defs><path class="cls-1" d="M94.94,286.15l0,0,.84.86,3.46.11c2.91,2.91,6.13,5.19,10.48,5.19,4.6,3.09,9.94,4.58,14.9,6.89.64,1,1.41.86,2.11.12a21.62,21.62,0,0,0,5-8.09c3.84-.87,6.39-3.82,9.44-5.95,3.86-1.09,7.78-2,11.55-3.33a18.08,18.08,0,0,1,12.1,0c5.58,1.78,11,3.85,16.52,5.86,4.7,4.65,11.59,7,14.18,13.91.47,1.27,1.28-.09,1.72-.72,4.21-1.42,8.39-3,12.34.75.46.44,1.66.12,2.51.15-.2,1.82.91,2.68,2.17,3.84,3.71,3.41,8.48,5.45,11.85,9.26a1.94,1.94,0,0,0-1.77,1.56c-2.24,6.68.52,12.61,3.61,17.95,3,5.13,4.91,10.25,5.09,16.1-2.29,2.63-4.66,5.09-8.67,3.84-8.67-5.8-17.35-11.57-26-17.42-1.6-1.09-2.57-1.46-3.68.63-2.91,5.47-7.7,8.91-13.18,11.5-4.9,2.47-10.23,3.12-15.57,3.42-8.63.48-16.91-1.85-25.28-3.44-6.47-4.59-12.8-9.33-17.7-15.69-1.85-1.87-4.17-.67-6.26-1-4.67-3.19-9.3-6.46-14-9.56C86.9,312.5,71.2,302.21,59.08,287c-12-15.08-25.75-28.73-38.29-43.38-3.34-3.9-7.62-7.15-9.82-12l.06-3.11c.14,0,.36,0,.41-.08,3.38-4.81,6.72-2.84,10,.06h0"/><path class="cls-2" d="M11,231.56c2.2,4.86,6.48,8.11,9.82,12C33.33,258.22,47.1,271.87,59.08,287c12.12,15.26,27.82,25.55,43.69,35.94,4.73,3.1,9.36,6.37,14,9.56V350.9c-2.92.49-5.13-1.72-7.83-2.08-.87-1.82-2.88-2.11-4.32-3.17a37,37,0,0,0-9.69-7,36.89,36.89,0,0,0-10.32-7.08c-.79-2.09-2.63-2.87-4.51-3.6-4.69-4-10.07-7.25-14-12.12l-.8-.24c-4.58-7.43-11.15-13.21-16.63-19.88C42.36,288,35.58,280.68,29,273.2a9,9,0,0,0-1.36-1.06c-1.58-1.88-2.84-4.07-5.05-5.37C20.25,263,17.06,260,13.85,257c-2.27-3-4.81-6-4-10.21.06-3.75.11-7.49.2-11.24C10.08,234.19,9.6,232.65,11,231.56Z"/><path class="cls-3" d="M657.19,551.86,652,555.39c-3.38,1.35-6.64,3.06-10.32,3.51-8.3-10.41-15.87-21.54-25.12-31-8.22-8.42-16.64-16.76-25.51-24.64-17.44-15.5-36.09-29.36-55-43-9-6.5-18.17-12.85-27.06-19.52-9.5-7.14-19.07-14.21-29.53-19.82-14-7.52-28.65-13.7-43.09-20.33-11.22-5.14-22.88-8.94-34.35-13.29-17.11-6.48-35-10.78-52.55-15.79-12.87-3.67-26.24-5.39-39.34-8.14-14.23-3-28.86-4.17-43.36-5.77-4.75-.53-10,.8-14.39-2.42.8-1.2,1.62-2.39,2.41-3.59,3.5-5.27,7.9-9.91,10.76-15.62l2.91-3.6,2.52-1.59.18.17.05-.27,2.23-.79c4.23-.84,8.23.59,12.31,1.24a6.77,6.77,0,0,0,4.35,1.11,1.53,1.53,0,0,0,1.73.73l2.57.41c1.61,1.11,3.53,1.11,5.33,1.52,5.53,1.2,10.84,3.33,16.52,3.83l1.8.66c3.41,1.23,6.81,2.49,10.51,2.51,5.32,2.15,11,3.13,16.52,4.29a.58.58,0,0,0,.92.36,28.94,28.94,0,0,0,9.57,2.58l.8.17,2.81.52A86.11,86.11,0,0,0,374,353.48a58,58,0,0,0,12.52,3.14,2.71,2.71,0,0,0,3,.76l.2,0c3.32,1.75,7.07,2,10.61,2.95,2,.38,3.88,1.44,6,1.14,8.59,3,17.46,5,26.27,7.23l14,4.36.24.13.26-.05h.09c2.18,1.67,4.84,2,7.38,2.67l1.7.4,18.42,7.47.83.19.88.19h0a3.29,3.29,0,0,0,2.57,1.16c3.47,1.76,6.85,3.75,10.63,4.83a1.82,1.82,0,0,0,1.69.85l14,7a100.55,100.55,0,0,0,13.83,7.52,1.93,1.93,0,0,0,1.88,1.36l13.16,8.41c1,.92,1.93,1.93,3.38,2.13a93.23,93.23,0,0,0,12.2,8.89l0-.06a5,5,0,0,0,2.73,1.89c2.29,2.63,5.18,4.51,8,6.46l3,2.31,14.81,12.44,14.14,11.9c.78.79,1.56,1.59,2.35,2.38a139.17,139.17,0,0,0,12.58,11.58l2.63,2.67A100.42,100.42,0,0,0,622.06,490c.73,1,1.24,2.22,2.54,2.68a110.28,110.28,0,0,0,12.69,13.76l1.11,1.7c8,8.32,14.45,17.56,17.3,28.95l.69,4.33c-.07.11-.23.24-.21.3a4.28,4.28,0,0,0,.34.63c.07.58.15,1.16.23,1.74a1,1,0,0,0,.4,1.32l.12,1.95a3.42,3.42,0,0,0,.05,3C657.28,550.87,657.23,551.36,657.19,551.86Z"/><path class="cls-4" d="M123.77,219.7a45.45,45.45,0,0,0,10.49,8.76l5.25,5.3,14.89,14.88c2.58,3.5,5,7.12,8.77,9.54,1.18,2.31,2.37,4.61,5.15,5.39.55,4.16,3.51,6.73,6.22,9.46,2.46,3.13,3.57,7.25,7.07,9.61v3.45l-.21,1.7c-5.49-2-10.94-4.08-16.52-5.86a18.08,18.08,0,0,0-12.1,0c-3.77,1.34-7.69,2.24-11.55,3.33a11.32,11.32,0,0,1-1-1.37,307.62,307.62,0,0,0-22.3-35.23c-8.44-11.43-18.66-21.33-29.06-31a182.44,182.44,0,0,0-22.2-17.32c-4.18-2.82-9.35-4-12.82-7.89l8-8.58,4.28.63c.52,1.1,1.57,1.06,2.55,1.2"/><path class="cls-5" d="M140.76,349.12c8.37,1.59,16.65,3.92,25.28,3.44,5.34-.3,10.67-.95,15.57-3.42,8.07,9.36,16.65,18.22,25.3,27,.12,4.2-4.66,4.18-6.08,7.05a1.68,1.68,0,0,0-1.86-.84c-8.1,2.35-16.44,1.41-24.67,1.87-2.64-1.83-5.87-1.31-8.74-2.23-3.65-1.17-7.81-1-10.54-4.54-4.19-5.34-8.61-10.51-12.8-15.85C139.22,357.82,138.28,353.64,140.76,349.12Z"/><path class="cls-6" d="M52.09,198.68q0-3,0-6.11l1.74-.11c3.47,3.91,8.64,5.07,12.82,7.89a182.44,182.44,0,0,1,22.2,17.32c10.4,9.66,20.62,19.56,29.06,31a307.62,307.62,0,0,1,22.3,35.23,11.32,11.32,0,0,0,1,1.37c-3.05,2.13-5.6,5.08-9.45,5.95L129.36,287a25,25,0,0,0-3.74-7c-1-3.11-3.36-5.37-5.13-8a66,66,0,0,0-10.6-14.17l-.61-.83a138.56,138.56,0,0,0-27.91-27.24,2.44,2.44,0,0,0-1.87-1.37c-4.17-3.69-8.41-7.27-13.47-9.72-2.3-1.64-4.29-3.78-7.19-4.44-.62-.58-1.13-1.42-1.86-1.69-3.56-1.28-4.42-3.75-4.1-7.33C53.07,203.07,53.81,200.66,52.09,198.68Z"/><path class="cls-7" d="M140.76,349.12c-2.48,4.52-1.54,8.7,1.46,12.51,4.19,5.34,8.61,10.51,12.8,15.85,2.73,3.49,6.89,3.37,10.54,4.54,2.87.92,6.1.4,8.74,2.23.75,1.71,1.37,3.49,2.28,5.11,4.68,8.3,9.63,16.44,13.77,25-1.74,2.42-2.63,5.44-5.12,7.34l-1.94-2.67q-4-7-8-14c-1.57-2.43-1.75-5.87-5.1-7-5.38-2.49-11.77-2.47-16.53-6.53a1.92,1.92,0,0,0-1.54-1.44c-.34-.38-.68-.75-1-1.13l-11-9.75c-1.09-1.85-2.91-2.84-4.63-4-2.18-3.34-.67-7.06-1-10.59-.19-1.89.18-3.91-2.44-4.37-1.51-3.63-4.59-5.93-7.3-8.53a3.62,3.62,0,0,0-2.56-2.23,94.57,94.57,0,0,0,1-16.13C128,339.79,134.29,344.53,140.76,349.12Z"/><path class="cls-8" d="M206.91,376.17c-8.65-8.81-17.23-17.67-25.3-27,5.48-2.59,10.27-6,13.18-11.5,1.11-2.09,2.08-1.72,3.68-.63,8.62,5.85,17.3,11.62,26,17.42-.55,3.6-4.11,4.14-6.21,6.17-1.52,1.47-4.7,1.44-4.37,4.64-3.19,1.89-3.49,5.52-5.06,8.38Z"/><path class="cls-4" d="M265.52,336c-2.86,5.71-7.26,10.35-10.76,15.62-.79,1.2-1.61,2.39-2.41,3.59a1.05,1.05,0,0,0-.75.27l-18.49-4.87c-.18-5.85-2.12-11-5.09-16.1-3.09-5.34-5.85-11.27-3.61-17.95a1.94,1.94,0,0,1,1.77-1.56l0-.05,1.69,1.8c3.33,5.59,5.78,12.18,14,12.2,2.65,1.73,6,1.36,8.72,2.74,2.14.21,3.88,1.9,6.15,1.6C259.48,334.75,262.56,335.16,265.52,336Z"/><path class="cls-7" d="M233.11,350.59l18.49,4.87c-1.43,3.59-4.62,6-6.33,9.4a5.91,5.91,0,0,0-4.25-2.58c-5.41-2.42-9.47,0-13.13,3.72-4.85,2.92-9.57,3.45-14-.76-.33-3.2,2.85-3.17,4.37-4.64,2.1-2,5.66-2.57,6.21-6.17C228.45,355.68,230.82,353.22,233.11,350.59Z"/><path class="cls-6" d="M123.06,333.43a94.57,94.57,0,0,1-1,16.13,6.06,6.06,0,0,1-5.31,1.34V332.45C118.89,332.76,121.21,331.56,123.06,333.43Z"/><path class="cls-9" d="M95,286.13l.84.86Z"/><path class="cls-10" d="M535.94,476.73c-5.49-4-10.72-8.57-16.45-12.39a9.1,9.1,0,0,0-3.72-2.64,49.26,49.26,0,0,0-10.62-6.36c-3.92-3.24-8.5-5.34-13.08-7.42l-3.34-1.51c-3.18-2.56-7-3.82-10.71-5.37a63.46,63.46,0,0,0-12.4-5.31l-.18-.34-.36.06-1.85-.73a1.64,1.64,0,0,0-1.75-.82,82.53,82.53,0,0,0-14.89-6.12,84,84,0,0,0-14-5.28,4.3,4.3,0,0,0-2.94-1.06,2.34,2.34,0,0,0-2.35-1,18.51,18.51,0,0,0-6.12-2.13A130.62,130.62,0,0,0,399.41,411a50.07,50.07,0,0,0-10.56-3.27,94.32,94.32,0,0,0-14.84-4.2l-1.49-.66L360,399.8A97.38,97.38,0,0,0,344.17,396l-1.72-.32a1.41,1.41,0,0,0-1.77-.52l-2.59-.41c-.54-.72-1.11-.62-1.69-.05-2.59.44-4.5-1.85-7-1.71a1,1,0,0,0-.83-.15c-3.63-1.64-7.58-1.89-11.43-2.55a24.88,24.88,0,0,0-7.68-1.46,25.05,25.05,0,0,0-8.93-2c-1.28-1.13-2.88-.76-4.36-.93a1.66,1.66,0,0,0-1.78-.59c-2.32-.2-4.46-1.47-6.86-1.2-3.66-1.59-7.62-1.87-11.48-2.59l-3.51,0a.37.37,0,0,0-.55-.09c-.24-.51-.53-.94-1.21-.68-2.54.23-4.38-2.28-7-1.8a1.52,1.52,0,0,0-1.79-.57l-2.59-.28a1.43,1.43,0,0,0-1.81-.65l-.92,0-10.27-2.4c-.37-1.32.36-2.94-1-4,0-.83,0-1.66,0-2.49v-1.12c0-.83,0-1.65,0-2.48,1.71-3.4,4.9-5.81,6.33-9.4a1.05,1.05,0,0,1,.75-.27c4.36,3.22,9.64,1.89,14.39,2.42,14.5,1.6,29.13,2.79,43.36,5.77,13.1,2.75,26.47,4.47,39.34,8.14,17.59,5,35.44,9.31,52.55,15.79,11.47,4.35,23.13,8.15,34.35,13.29,14.44,6.63,29.1,12.81,43.09,20.33,10.46,5.61,20,12.68,29.53,19.82,8.89,6.67,18,13,27.06,19.52,18.89,13.6,37.54,27.46,55,43,8.87,7.88,17.29,16.22,25.51,24.64,9.25,9.49,16.82,20.62,25.12,31l-4.31.44c-5.17.24-9.32-2.28-13.43-4.94-.91-1.63-2.55-2.38-4-3.33a95.48,95.48,0,0,0-11.58-9.28l-.29-.21-.1-.34h-.34c-2-1.72-3.62-3.87-6.07-5-2.14-2.27-4.28-4.55-7.15-6A56.8,56.8,0,0,0,584,521.11c-.92-1.37-1.88-2.71-3.57-3.24l-11.18-10.58a15.7,15.7,0,0,0-4.49-4.33,22.47,22.47,0,0,0-1.7-1.94"/><polygon class="cls-5" points="270.95 330.79 271.18 330.69 271.13 330.96 270.95 330.79"/><path class="cls-10" d="M413.37,778.65c-3.4-2-6.73-4.17-10.48-5.5a4.43,4.43,0,0,0-2.71-1.64c-3.71-2.48-7.28-5.18-11.4-7l-13-9.33-.73-.38-15.87-13-.48-.67-13.35-12.65a4.86,4.86,0,0,0-2.33-2.38c-3.92-4.94-8.84-8.82-13.71-12.74a1,1,0,0,0-.4-.39c-3.9-5-8.86-9-13.27-13.5v.21l-1-1.22-.53-.55c-4.61-4.83-8.54-10.3-13.58-14.74a163.62,163.62,0,0,0-13-16l-.48-.83c-3.09-4.56-6-9.24-10-13.1-.93-2.86-2.28-5.41-5.05-6.93a16.06,16.06,0,0,0-3.85-6.87l-10.29-16.75q-3.54-6.08-7.07-12.14-7.5-14.87-15-29.71c-4.18-9.77-8.41-19.51-13.35-28.93a116,116,0,0,0-6.29-15,13.77,13.77,0,0,0-2.41-5.29q-1.76-4.7-3.49-9.4l-.58-1a92.7,92.7,0,0,0-6-15,64.53,64.53,0,0,0-5-13.64l-4.95-14.92c-1.43-4.74-2.41-9.62-4.63-14.09-1.45-4.42-1.18-9.51-5-13,.11-.59-.22-.89-.72-1.09l-.73-.73a8.83,8.83,0,0,0-2.38-5c-2.73-3.22-3.73-6.64-2.17-10.66,1.86-4.12,4.64-7.65,7.14-11.36,2.49-1.9,3.38-4.92,5.12-7.34.28.06.55.14.83.22a9,9,0,0,0,.13,1.73c5,17.86,9.4,35.91,16.16,53.27,3,7.61,5,15.56,7.93,23.25,5.16,13.64,10.7,27.07,16.43,40.47,6,14,12.5,27.66,19.08,41.35,7.84,16.32,17.08,31.82,25.87,47.58,4.68,8.39,11.4,15.28,17.14,22.84C304.51,659,316.44,672,328.67,684.55c20.42,21,41.66,41,66.37,57.05a260.93,260.93,0,0,0,40,21.8c4.11,1.75,8.55,2.74,12.66,4.51a29.46,29.46,0,0,0,10.41,2.69c-.22,7.86-3.8,13.67-10.69,17.46l.05,0c-1,0-2,0-2.72.89l-2.52.31H438.7l-6.9-2.41a5.08,5.08,0,0,0-3.54-1.42Z"/><path class="cls-4" d="M191.18,414.62c-.28-.08-.55-.16-.83-.22-4.14-8.6-9.09-16.74-13.77-25-.91-1.62-1.53-3.4-2.28-5.11,8.23-.46,16.57.48,24.67-1.87a1.68,1.68,0,0,1,1.86.84c-.19,2.51,1.22,4.6,1.83,6.9.49,3.9,3.5,7,3.43,11.09C200.94,405.48,195,408.84,191.18,414.62Z"/><path class="cls-7" d="M246.39,374.94l-1.6-.8c.23-1.06-.34-2.25.55-3.19C246.75,372,246,373.62,246.39,374.94Z"/><path class="cls-7" d="M245.32,368.46c-.63-.37-.64-.74,0-1.12Z"/><path class="cls-3" d="M191.18,414.62c3.79-5.78,9.76-9.14,14.91-13.41a22.17,22.17,0,0,1,6.12-3.28c3.09.71,5.66,2.05,6.51,5.44l.46.79,0,0a56.87,56.87,0,0,0,5.08,14.23c0,2.72,1.67,4.95,2.15,7.53,1.37,2.85,1.45,6.19,3.36,8.83q2.66,7.84,5.3,15.7c1.36,4.2,2.1,8.62,4.52,12.44l.58,2.48.78,2a.46.46,0,0,0,.16.62c1.08,3.24,1.76,6.63,3.51,9.62,1.06,5.48,3.36,10.53,5.26,15.73a75,75,0,0,0,4.3,12.27l.42,1.79c-.22.47,0,.74.42.9a13.44,13.44,0,0,0,1.67,5.22,24.12,24.12,0,0,0,2.52,7.89,63.81,63.81,0,0,0,5.32,14.86l1,2.58a187.42,187.42,0,0,0,12.39,28l.29.9.54.75c.24,1.81,1.43,3.11,2.43,4.51a1.2,1.2,0,0,0,.85,1.23,16.08,16.08,0,0,0,2.84,5.74l.58,1a94.38,94.38,0,0,0,8.89,14.83,35.6,35.6,0,0,0,6.17,9.67,23.39,23.39,0,0,0,4.09,6.07,65.17,65.17,0,0,0,8.88,12.18,3.38,3.38,0,0,0,1.75,2.3,71.61,71.61,0,0,0,10.58,13.5,15.74,15.74,0,0,0,3.51,4.4c2.85,3.65,5.65,7.34,9.2,10.36a30,30,0,0,0,6.63,7.14.77.77,0,0,0,.81.83,7.69,7.69,0,0,0,3.35,3.62,5.61,5.61,0,0,0,2.35,2.56,47.27,47.27,0,0,0,7.43,7.4,43.14,43.14,0,0,0,8.8,8.32,28.52,28.52,0,0,0,6.2,5.45c3.18,3.11,6.32,6.27,10.19,8.55a6.35,6.35,0,0,0,2.8,2.58,132.78,132.78,0,0,0,15.8,12.24,91.83,91.83,0,0,0,14.76,10.71,20.88,20.88,0,0,0,6.24,4.13,22.32,22.32,0,0,0,6.69,4.5A65.08,65.08,0,0,0,442,739.92c6.3,3.59,11.46,8.14,14.36,14.94.94,5.21,3.28,10.26,1.73,15.74a29.46,29.46,0,0,1-10.41-2.69c-4.11-1.77-8.55-2.76-12.66-4.51a260.93,260.93,0,0,1-40-21.8c-24.71-16.07-46-36.08-66.37-57.05C316.44,672,304.51,659,293.92,645.11c-5.74-7.56-12.46-14.45-17.14-22.84-8.79-15.76-18-31.26-25.87-47.58-6.58-13.69-13.09-27.37-19.08-41.35-5.73-13.4-11.27-26.83-16.43-40.47-2.91-7.69-5-15.64-7.93-23.25-6.76-17.36-11.13-35.41-16.16-53.27A9,9,0,0,1,191.18,414.62Z"/></svg>